%TF.GenerationSoftware,KiCad,Pcbnew,7.0.8*%
%TF.CreationDate,2023-11-23T12:29:14-06:00*%
%TF.ProjectId,27C160_Adapter,32374331-3630-45f4-9164-61707465722e,1.1*%
%TF.SameCoordinates,Original*%
%TF.FileFunction,Paste,Bot*%
%TF.FilePolarity,Positive*%
%FSLAX46Y46*%
G04 Gerber Fmt 4.6, Leading zero omitted, Abs format (unit mm)*
G04 Created by KiCad (PCBNEW 7.0.8) date 2023-11-23 12:29:14*
%MOMM*%
%LPD*%
G01*
G04 APERTURE LIST*
%ADD10O,1.506220X3.014980*%
%ADD11O,1.320800X2.641600*%
%ADD12C,1.676400*%
G04 APERTURE END LIST*
D10*
%TO.C,ZX1*%
X118021000Y-103733600D03*
X120561000Y-103733600D03*
X123101000Y-103733600D03*
X125641000Y-103733600D03*
X128181000Y-103733600D03*
X130721000Y-103733600D03*
X133261000Y-103733600D03*
X135801000Y-103733600D03*
X138341000Y-103733600D03*
X140881000Y-103733600D03*
X143421000Y-103733600D03*
X145961000Y-103733600D03*
X148501000Y-103733600D03*
X151041000Y-103733600D03*
X153581000Y-103733600D03*
X156121000Y-103733600D03*
X158661000Y-103733600D03*
X161201000Y-103733600D03*
X163741000Y-103733600D03*
X166281000Y-103733600D03*
X168821000Y-103733600D03*
X171361000Y-103733600D03*
X173901000Y-103733600D03*
X176441000Y-103733600D03*
X176441000Y-88493600D03*
X173901000Y-88493600D03*
X171361000Y-88493600D03*
X168821000Y-88493600D03*
X166281000Y-88493600D03*
X163741000Y-88493600D03*
X161201000Y-88493600D03*
X158661000Y-88493600D03*
X156121000Y-88493600D03*
X153581000Y-88493600D03*
X151041000Y-88493600D03*
X148501000Y-88493600D03*
X145961000Y-88493600D03*
X143421000Y-88493600D03*
X140881000Y-88493600D03*
X138341000Y-88493600D03*
X135801000Y-88493600D03*
X133261000Y-88493600D03*
X130721000Y-88493600D03*
X128181000Y-88493600D03*
X125641000Y-88493600D03*
X123101000Y-88493600D03*
X120561000Y-88493600D03*
X118021000Y-88493600D03*
%TD*%
%TO.C,U1*%
X133360000Y-94954000D03*
X135900000Y-94954000D03*
X138440000Y-94954000D03*
X140980000Y-94954000D03*
X143520000Y-94954000D03*
X146060000Y-94954000D03*
X148600000Y-94954000D03*
X151140000Y-94954000D03*
X153680000Y-94954000D03*
X156220000Y-94954000D03*
X158760000Y-94954000D03*
X161300000Y-94954000D03*
X163840000Y-94954000D03*
X166380000Y-94954000D03*
X168920000Y-94954000D03*
X171460000Y-94954000D03*
X174000000Y-94954000D03*
X176540000Y-94954000D03*
X179080000Y-94954000D03*
X181620000Y-94954000D03*
X181620000Y-109940000D03*
X179080000Y-109940000D03*
X176540000Y-109940000D03*
X174000000Y-109940000D03*
X171460000Y-109940000D03*
X168920000Y-109940000D03*
X166380000Y-109940000D03*
X163840000Y-109940000D03*
X161300000Y-109940000D03*
X158760000Y-109940000D03*
X156220000Y-109940000D03*
X153680000Y-109940000D03*
X151140000Y-109940000D03*
X148600000Y-109940000D03*
X146060000Y-109940000D03*
X143520000Y-109940000D03*
X140980000Y-109940000D03*
X138440000Y-109940000D03*
X135900000Y-109940000D03*
X133360000Y-109940000D03*
%TD*%
D11*
%TO.C,SW2*%
X149136000Y-115164000D03*
X151676000Y-115164000D03*
X154216000Y-115164000D03*
X154216000Y-122784000D03*
X151676000Y-122784000D03*
X149136000Y-122784000D03*
%TD*%
D12*
%TO.C,SW1*%
X131086000Y-121514000D03*
X131086000Y-118974000D03*
X131086000Y-116434000D03*
X133626000Y-121514000D03*
X133626000Y-118974000D03*
X133626000Y-116434000D03*
%TD*%
M02*
