M48
; DRILL file {KiCad 7.0.8} date Thu Nov 23 12:29:15 2023
; FORMAT={-:-/ absolute / metric / decimal}
; #@! TF.CreationDate,2023-11-23T12:29:15-06:00
; #@! TF.GenerationSoftware,Kicad,Pcbnew,7.0.8
; #@! TF.FileFunction,MixedPlating,1,2
FMAT,2
METRIC
; #@! TA.AperFunction,Plated,PTH,ViaDrill
T1C0.400
; #@! TA.AperFunction,Plated,PTH,ComponentDrill
T2C0.813
; #@! TA.AperFunction,Plated,PTH,ComponentDrill
T3C0.998
%
G90
G05
T1
X155.639Y-96.859
T2
X149.136Y-115.164
X149.136Y-122.784
X151.676Y-115.164
X151.676Y-122.784
X154.216Y-115.164
X154.216Y-122.784
T3
X118.021Y-88.494
X118.021Y-103.734
X120.561Y-88.494
X120.561Y-103.734
X123.101Y-88.494
X123.101Y-103.734
X125.641Y-88.494
X125.641Y-103.734
X128.181Y-88.494
X128.181Y-103.734
X130.721Y-88.494
X130.721Y-103.734
X131.086Y-116.434
X131.086Y-118.974
X131.086Y-121.514
X133.261Y-88.494
X133.261Y-103.734
X133.36Y-94.954
X133.36Y-109.94
X133.626Y-116.434
X133.626Y-118.974
X133.626Y-121.514
X135.801Y-88.494
X135.801Y-103.734
X135.9Y-94.954
X135.9Y-109.94
X138.341Y-88.494
X138.341Y-103.734
X138.44Y-94.954
X138.44Y-109.94
X140.881Y-88.494
X140.881Y-103.734
X140.98Y-94.954
X140.98Y-109.94
X143.421Y-88.494
X143.421Y-103.734
X143.52Y-94.954
X143.52Y-109.94
X145.961Y-88.494
X145.961Y-103.734
X146.06Y-94.954
X146.06Y-109.94
X148.501Y-88.494
X148.501Y-103.734
X148.6Y-94.954
X148.6Y-109.94
X151.041Y-88.494
X151.041Y-103.734
X151.14Y-94.954
X151.14Y-109.94
X153.581Y-88.494
X153.581Y-103.734
X153.68Y-94.954
X153.68Y-109.94
X156.121Y-88.494
X156.121Y-103.734
X156.22Y-94.954
X156.22Y-109.94
X158.661Y-88.494
X158.661Y-103.734
X158.76Y-94.954
X158.76Y-109.94
X161.201Y-88.494
X161.201Y-103.734
X161.3Y-94.954
X161.3Y-109.94
X163.741Y-88.494
X163.741Y-103.734
X163.84Y-94.954
X163.84Y-109.94
X166.281Y-88.494
X166.281Y-103.734
X166.38Y-94.954
X166.38Y-109.94
X168.821Y-88.494
X168.821Y-103.734
X168.92Y-94.954
X168.92Y-109.94
X171.361Y-88.494
X171.361Y-103.734
X171.46Y-94.954
X171.46Y-109.94
X173.901Y-88.494
X173.901Y-103.734
X174.0Y-94.954
X174.0Y-109.94
X176.441Y-88.494
X176.441Y-103.734
X176.54Y-94.954
X176.54Y-109.94
X179.08Y-94.954
X179.08Y-109.94
X181.62Y-94.954
X181.62Y-109.94
T0
M30
