%TF.GenerationSoftware,KiCad,Pcbnew,7.0.8*%
%TF.CreationDate,2023-11-23T12:29:14-06:00*%
%TF.ProjectId,27C160_Adapter,32374331-3630-45f4-9164-61707465722e,1.1*%
%TF.SameCoordinates,Original*%
%TF.FileFunction,Copper,L2,Bot*%
%TF.FilePolarity,Positive*%
%FSLAX46Y46*%
G04 Gerber Fmt 4.6, Leading zero omitted, Abs format (unit mm)*
G04 Created by KiCad (PCBNEW 7.0.8) date 2023-11-23 12:29:14*
%MOMM*%
%LPD*%
G01*
G04 APERTURE LIST*
%TA.AperFunction,ComponentPad*%
%ADD10O,1.506220X3.014980*%
%TD*%
%TA.AperFunction,ComponentPad*%
%ADD11O,1.320800X2.641600*%
%TD*%
%TA.AperFunction,ComponentPad*%
%ADD12C,1.676400*%
%TD*%
%TA.AperFunction,ViaPad*%
%ADD13C,0.600000*%
%TD*%
%TA.AperFunction,Conductor*%
%ADD14C,0.250000*%
%TD*%
G04 APERTURE END LIST*
D10*
%TO.P,ZX1,1,1*%
%TO.N,unconnected-(ZX1-Pad1)*%
X118021000Y-103733600D03*
%TO.P,ZX1,2,2*%
%TO.N,unconnected-(ZX1-Pad2)*%
X120561000Y-103733600D03*
%TO.P,ZX1,3,3*%
%TO.N,unconnected-(ZX1-Pad3)*%
X123101000Y-103733600D03*
%TO.P,ZX1,4,4*%
%TO.N,/A18*%
X125641000Y-103733600D03*
%TO.P,ZX1,5,5*%
%TO.N,/A17*%
X128181000Y-103733600D03*
%TO.P,ZX1,6,6*%
%TO.N,/A7*%
X130721000Y-103733600D03*
%TO.P,ZX1,7,7*%
%TO.N,/A6*%
X133261000Y-103733600D03*
%TO.P,ZX1,8,8*%
%TO.N,/A5*%
X135801000Y-103733600D03*
%TO.P,ZX1,9,9*%
%TO.N,/A4*%
X138341000Y-103733600D03*
%TO.P,ZX1,10,10*%
%TO.N,/A3*%
X140881000Y-103733600D03*
%TO.P,ZX1,11,11*%
%TO.N,/A2*%
X143421000Y-103733600D03*
%TO.P,ZX1,12,12*%
%TO.N,/A1*%
X145961000Y-103733600D03*
%TO.P,ZX1,13,13*%
%TO.N,/A0*%
X148501000Y-103733600D03*
%TO.P,ZX1,14,14*%
%TO.N,/E*%
X151041000Y-103733600D03*
%TO.P,ZX1,15,15*%
%TO.N,GND*%
X153581000Y-103733600D03*
%TO.P,ZX1,16,16*%
%TO.N,/N$6*%
X156121000Y-103733600D03*
%TO.P,ZX1,17,17*%
%TO.N,/D0*%
X158661000Y-103733600D03*
%TO.P,ZX1,18,18*%
%TO.N,/D8*%
X161201000Y-103733600D03*
%TO.P,ZX1,19,19*%
%TO.N,/D1*%
X163741000Y-103733600D03*
%TO.P,ZX1,20,20*%
%TO.N,/D9*%
X166281000Y-103733600D03*
%TO.P,ZX1,21,21*%
%TO.N,/D2*%
X168821000Y-103733600D03*
%TO.P,ZX1,22,22*%
%TO.N,/D10*%
X171361000Y-103733600D03*
%TO.P,ZX1,23,23*%
%TO.N,/D3*%
X173901000Y-103733600D03*
%TO.P,ZX1,24,24*%
%TO.N,/D11*%
X176441000Y-103733600D03*
%TO.P,ZX1,25,25*%
%TO.N,VCC*%
X176441000Y-88493600D03*
%TO.P,ZX1,26,26*%
%TO.N,/D4*%
X173901000Y-88493600D03*
%TO.P,ZX1,27,27*%
%TO.N,/D12*%
X171361000Y-88493600D03*
%TO.P,ZX1,28,28*%
%TO.N,/D5*%
X168821000Y-88493600D03*
%TO.P,ZX1,29,29*%
%TO.N,/D13*%
X166281000Y-88493600D03*
%TO.P,ZX1,30,30*%
%TO.N,/D6*%
X163741000Y-88493600D03*
%TO.P,ZX1,31,31*%
%TO.N,/D14*%
X161201000Y-88493600D03*
%TO.P,ZX1,32,32*%
%TO.N,/D7*%
X158661000Y-88493600D03*
%TO.P,ZX1,33,33*%
%TO.N,/D15*%
X156121000Y-88493600D03*
%TO.P,ZX1,34,34*%
%TO.N,GND*%
X153581000Y-88493600D03*
%TO.P,ZX1,35,35*%
%TO.N,/N$2*%
X151041000Y-88493600D03*
%TO.P,ZX1,36,36*%
%TO.N,/A16*%
X148501000Y-88493600D03*
%TO.P,ZX1,37,37*%
%TO.N,/A15*%
X145961000Y-88493600D03*
%TO.P,ZX1,38,38*%
%TO.N,/A14*%
X143421000Y-88493600D03*
%TO.P,ZX1,39,39*%
%TO.N,/A13*%
X140881000Y-88493600D03*
%TO.P,ZX1,40,40*%
%TO.N,/A12*%
X138341000Y-88493600D03*
%TO.P,ZX1,41,41*%
%TO.N,/A11*%
X135801000Y-88493600D03*
%TO.P,ZX1,42,42*%
%TO.N,/A10*%
X133261000Y-88493600D03*
%TO.P,ZX1,43,43*%
%TO.N,/A9*%
X130721000Y-88493600D03*
%TO.P,ZX1,44,44*%
%TO.N,/A8*%
X128181000Y-88493600D03*
%TO.P,ZX1,45,45*%
%TO.N,/A19*%
X125641000Y-88493600D03*
%TO.P,ZX1,46,46*%
%TO.N,unconnected-(ZX1-Pad46)*%
X123101000Y-88493600D03*
%TO.P,ZX1,47,47*%
%TO.N,unconnected-(ZX1-Pad47)*%
X120561000Y-88493600D03*
%TO.P,ZX1,48,48*%
%TO.N,unconnected-(ZX1-Pad48)*%
X118021000Y-88493600D03*
%TD*%
%TO.P,U1,40,VCC*%
%TO.N,VCC*%
X133360000Y-94954000D03*
%TO.P,U1,39,A17*%
%TO.N,/A17*%
X135900000Y-94954000D03*
%TO.P,U1,38,A16*%
%TO.N,/A16*%
X138440000Y-94954000D03*
%TO.P,U1,37,A15*%
%TO.N,/A15*%
X140980000Y-94954000D03*
%TO.P,U1,36,A14*%
%TO.N,/A14*%
X143520000Y-94954000D03*
%TO.P,U1,35,A13*%
%TO.N,/A13*%
X146060000Y-94954000D03*
%TO.P,U1,34,A12*%
%TO.N,/A12*%
X148600000Y-94954000D03*
%TO.P,U1,33,A11*%
%TO.N,/A11*%
X151140000Y-94954000D03*
%TO.P,U1,32,A10*%
%TO.N,/A10*%
X153680000Y-94954000D03*
%TO.P,U1,31,A9*%
%TO.N,/A9*%
X156220000Y-94954000D03*
%TO.P,U1,30,GND*%
%TO.N,GND*%
X158760000Y-94954000D03*
%TO.P,U1,29,A8*%
%TO.N,/A8*%
X161300000Y-94954000D03*
%TO.P,U1,28,A7*%
%TO.N,/A7*%
X163840000Y-94954000D03*
%TO.P,U1,27,A6*%
%TO.N,/A6*%
X166380000Y-94954000D03*
%TO.P,U1,26,A5*%
%TO.N,/A5*%
X168920000Y-94954000D03*
%TO.P,U1,25,A4*%
%TO.N,/A4*%
X171460000Y-94954000D03*
%TO.P,U1,24,A3*%
%TO.N,/A3*%
X174000000Y-94954000D03*
%TO.P,U1,23,A2*%
%TO.N,/A2*%
X176540000Y-94954000D03*
%TO.P,U1,22,A1*%
%TO.N,/A1*%
X179080000Y-94954000D03*
%TO.P,U1,21,A0*%
%TO.N,/A0*%
X181620000Y-94954000D03*
%TO.P,U1,20,/G*%
%TO.N,/N$5*%
X181620000Y-109940000D03*
%TO.P,U1,19,D0*%
%TO.N,/D0*%
X179080000Y-109940000D03*
%TO.P,U1,18,D1*%
%TO.N,/D1*%
X176540000Y-109940000D03*
%TO.P,U1,17,D2*%
%TO.N,/D2*%
X174000000Y-109940000D03*
%TO.P,U1,16,D3*%
%TO.N,/D3*%
X171460000Y-109940000D03*
%TO.P,U1,15,D4*%
%TO.N,/D4*%
X168920000Y-109940000D03*
%TO.P,U1,14,D5*%
%TO.N,/D5*%
X166380000Y-109940000D03*
%TO.P,U1,13,D6*%
%TO.N,/D6*%
X163840000Y-109940000D03*
%TO.P,U1,12,D7*%
%TO.N,/D7*%
X161300000Y-109940000D03*
%TO.P,U1,11,GND*%
%TO.N,GND*%
X158760000Y-109940000D03*
%TO.P,U1,10,D8*%
%TO.N,/D8*%
X156220000Y-109940000D03*
%TO.P,U1,9,D9*%
%TO.N,/D9*%
X153680000Y-109940000D03*
%TO.P,U1,8,D10*%
%TO.N,/D10*%
X151140000Y-109940000D03*
%TO.P,U1,7,D11*%
%TO.N,/D11*%
X148600000Y-109940000D03*
%TO.P,U1,6,D12*%
%TO.N,/D12*%
X146060000Y-109940000D03*
%TO.P,U1,5,D13*%
%TO.N,/D13*%
X143520000Y-109940000D03*
%TO.P,U1,4,D14*%
%TO.N,/D14*%
X140980000Y-109940000D03*
%TO.P,U1,3,D15*%
%TO.N,/D15*%
X138440000Y-109940000D03*
%TO.P,U1,2,/CE*%
%TO.N,/E*%
X135900000Y-109940000D03*
%TO.P,U1,1,VPP*%
%TO.N,/VPP*%
X133360000Y-109940000D03*
%TD*%
D11*
%TO.P,SW2,6,6*%
%TO.N,/A18*%
X149136000Y-115164000D03*
%TO.P,SW2,5,5*%
%TO.N,/A19*%
X151676000Y-115164000D03*
%TO.P,SW2,4,4*%
%TO.N,/A20*%
X154216000Y-115164000D03*
%TO.P,SW2,3,3*%
%TO.N,GND*%
X154216000Y-122784000D03*
%TO.P,SW2,2,2*%
X151676000Y-122784000D03*
%TO.P,SW2,1,1*%
X149136000Y-122784000D03*
%TD*%
D12*
%TO.P,SW1,1,O*%
%TO.N,/VPP*%
X131086000Y-121514000D03*
%TO.P,SW1,2,P*%
%TO.N,/N$2*%
X131086000Y-118974000D03*
%TO.P,SW1,3,S*%
%TO.N,/A20*%
X131086000Y-116434000D03*
%TO.P,SW1,4,O1*%
%TO.N,/N$5*%
X133626000Y-121514000D03*
%TO.P,SW1,5,P1*%
%TO.N,/N$6*%
X133626000Y-118974000D03*
%TO.P,SW1,6,S1*%
%TO.N,/N$4*%
X133626000Y-116434000D03*
%TD*%
D13*
%TO.N,/D12*%
X155639000Y-96859000D03*
%TD*%
D14*
%TO.N,/A17*%
X133387000Y-96740800D02*
X128181000Y-101946800D01*
X135900000Y-96740800D02*
X133387000Y-96740800D01*
X135900000Y-94954000D02*
X135900000Y-96740800D01*
X128181000Y-103733600D02*
X128181000Y-101946800D01*
%TO.N,/A14*%
X143520000Y-90379400D02*
X143421000Y-90280400D01*
X143520000Y-94954000D02*
X143520000Y-90379400D01*
X143421000Y-88493600D02*
X143421000Y-90280400D01*
%TO.N,/A13*%
X142390100Y-91789500D02*
X140881000Y-90280400D01*
X142390100Y-96042900D02*
X142390100Y-91789500D01*
X143088000Y-96740800D02*
X142390100Y-96042900D01*
X146060000Y-96740800D02*
X143088000Y-96740800D01*
X146060000Y-94954000D02*
X146060000Y-96740800D01*
X140881000Y-88493600D02*
X140881000Y-90280400D01*
%TO.N,/A12*%
X140159500Y-86675100D02*
X138341000Y-88493600D01*
X143836300Y-86675100D02*
X140159500Y-86675100D01*
X144691000Y-87529800D02*
X143836300Y-86675100D01*
X144691000Y-89462800D02*
X144691000Y-87529800D01*
X148395400Y-93167200D02*
X144691000Y-89462800D01*
X148600000Y-93167200D02*
X148395400Y-93167200D01*
X148600000Y-94954000D02*
X148600000Y-93167200D01*
%TO.N,/D1*%
X162802600Y-106458800D02*
X163741000Y-105520400D01*
X162802600Y-111157600D02*
X162802600Y-106458800D01*
X163791800Y-112146800D02*
X162802600Y-111157600D01*
X176120000Y-112146800D02*
X163791800Y-112146800D01*
X176540000Y-111726800D02*
X176120000Y-112146800D01*
X176540000Y-109940000D02*
X176540000Y-111726800D01*
X163741000Y-103733600D02*
X163741000Y-105520400D01*
%TO.N,/D2*%
X168821000Y-107680500D02*
X168821000Y-103733600D01*
X167881800Y-108619700D02*
X168821000Y-107680500D01*
X167881800Y-111130700D02*
X167881800Y-108619700D01*
X168477900Y-111726800D02*
X167881800Y-111130700D01*
X174000000Y-111726800D02*
X168477900Y-111726800D01*
X174000000Y-109940000D02*
X174000000Y-111726800D01*
%TO.N,/D3*%
X171460000Y-107961400D02*
X173901000Y-105520400D01*
X171460000Y-109940000D02*
X171460000Y-107961400D01*
X173901000Y-103733600D02*
X173901000Y-105520400D01*
%TO.N,/D4*%
X168920000Y-109940000D02*
X168920000Y-108153200D01*
X173901000Y-88493600D02*
X173901000Y-90280400D01*
X169952400Y-94229000D02*
X173901000Y-90280400D01*
X169952400Y-107120800D02*
X169952400Y-94229000D01*
X168920000Y-108153200D02*
X169952400Y-107120800D01*
%TO.N,/D5*%
X167788600Y-91312800D02*
X168821000Y-90280400D01*
X167788600Y-106744600D02*
X167788600Y-91312800D01*
X166380000Y-108153200D02*
X167788600Y-106744600D01*
X166380000Y-109940000D02*
X166380000Y-108153200D01*
X168821000Y-88493600D02*
X168821000Y-90280400D01*
%TO.N,/D6*%
X163840000Y-109940000D02*
X163840000Y-108153200D01*
X163741000Y-88493600D02*
X163741000Y-90280400D01*
X164872400Y-91411800D02*
X163741000Y-90280400D01*
X164872400Y-107120800D02*
X164872400Y-91411800D01*
X163840000Y-108153200D02*
X164872400Y-107120800D01*
%TO.N,/D7*%
X161300000Y-109940000D02*
X161300000Y-108153200D01*
X162332500Y-107120700D02*
X161300000Y-108153200D01*
X162332500Y-87355600D02*
X162332500Y-107120700D01*
X161683700Y-86706800D02*
X162332500Y-87355600D01*
X160447800Y-86706800D02*
X161683700Y-86706800D01*
X158661000Y-88493600D02*
X160447800Y-86706800D01*
%TO.N,/D8*%
X158568200Y-108153200D02*
X161201000Y-105520400D01*
X156220000Y-108153200D02*
X158568200Y-108153200D01*
X156220000Y-109940000D02*
X156220000Y-108153200D01*
X161201000Y-103733600D02*
X161201000Y-105520400D01*
%TO.N,/D12*%
X146060000Y-109940000D02*
X146060000Y-108153200D01*
X149771000Y-102727000D02*
X155639000Y-96859000D01*
X149771000Y-104709600D02*
X149771000Y-102727000D01*
X146327400Y-108153200D02*
X149771000Y-104709600D01*
X146060000Y-108153200D02*
X146327400Y-108153200D01*
%TO.N,/D13*%
X165876700Y-86302500D02*
X166281000Y-86706800D01*
X158576700Y-86302500D02*
X165876700Y-86302500D01*
X157352800Y-87526400D02*
X158576700Y-86302500D01*
X157352800Y-89814100D02*
X157352800Y-87526400D01*
X155122600Y-92044300D02*
X157352800Y-89814100D01*
X155122600Y-95807100D02*
X155122600Y-92044300D01*
X154042600Y-96887100D02*
X155122600Y-95807100D01*
X153108500Y-96887100D02*
X154042600Y-96887100D01*
X147231000Y-102764600D02*
X153108500Y-96887100D01*
X147231000Y-104749200D02*
X147231000Y-102764600D01*
X143827000Y-108153200D02*
X147231000Y-104749200D01*
X143520000Y-108153200D02*
X143827000Y-108153200D01*
X143520000Y-109940000D02*
X143520000Y-108153200D01*
X166281000Y-88493600D02*
X166281000Y-86706800D01*
%TO.N,/D14*%
X157490000Y-93991400D02*
X161201000Y-90280400D01*
X157490000Y-96870200D02*
X157490000Y-93991400D01*
X152382100Y-101978100D02*
X157490000Y-96870200D01*
X152382100Y-104680900D02*
X152382100Y-101978100D01*
X151533900Y-105529100D02*
X152382100Y-104680900D01*
X150756700Y-105529100D02*
X151533900Y-105529100D01*
X147334200Y-108951600D02*
X150756700Y-105529100D01*
X147334200Y-110920100D02*
X147334200Y-108951600D01*
X146527500Y-111726800D02*
X147334200Y-110920100D01*
X140980000Y-111726800D02*
X146527500Y-111726800D01*
X140980000Y-109940000D02*
X140980000Y-111726800D01*
X161201000Y-88493600D02*
X161201000Y-90280400D01*
%TO.N,/D15*%
X152410000Y-93991400D02*
X156121000Y-90280400D01*
X152410000Y-95926900D02*
X152410000Y-93991400D01*
X151452400Y-96884500D02*
X152410000Y-95926900D01*
X150528600Y-96884500D02*
X151452400Y-96884500D01*
X144691000Y-102722100D02*
X150528600Y-96884500D01*
X144691000Y-104794200D02*
X144691000Y-102722100D01*
X141332000Y-108153200D02*
X144691000Y-104794200D01*
X138440000Y-108153200D02*
X141332000Y-108153200D01*
X138440000Y-109940000D02*
X138440000Y-108153200D01*
X156121000Y-88493600D02*
X156121000Y-90280400D01*
%TO.N,/N$5*%
X168930000Y-124416800D02*
X181620000Y-111726800D01*
X136528800Y-124416800D02*
X168930000Y-124416800D01*
X133626000Y-121514000D02*
X136528800Y-124416800D01*
X181620000Y-109940000D02*
X181620000Y-111726800D01*
%TO.N,/N$6*%
X153339500Y-105520400D02*
X156121000Y-105520400D01*
X149870000Y-108989900D02*
X153339500Y-105520400D01*
X149870000Y-110959100D02*
X149870000Y-108989900D01*
X141855100Y-118974000D02*
X149870000Y-110959100D01*
X133626000Y-118974000D02*
X141855100Y-118974000D01*
X156121000Y-103733600D02*
X156121000Y-105520400D01*
%TO.N,/N$2*%
X150008600Y-91312800D02*
X151041000Y-90280400D01*
X150008600Y-95808100D02*
X150008600Y-91312800D01*
X148733800Y-97082900D02*
X150008600Y-95808100D01*
X147850000Y-97082900D02*
X148733800Y-97082900D01*
X142151000Y-102781900D02*
X147850000Y-97082900D01*
X142151000Y-104720800D02*
X142151000Y-102781900D01*
X140989300Y-105882500D02*
X142151000Y-104720800D01*
X140085700Y-105882500D02*
X140989300Y-105882500D01*
X136955500Y-109012700D02*
X140085700Y-105882500D01*
X136955500Y-111478500D02*
X136955500Y-109012700D01*
X132356000Y-116078000D02*
X136955500Y-111478500D01*
X132356000Y-117704000D02*
X132356000Y-116078000D01*
X131086000Y-118974000D02*
X132356000Y-117704000D01*
X151041000Y-88493600D02*
X151041000Y-90280400D01*
%TO.N,/A20*%
X154216000Y-115164000D02*
X154216000Y-116764100D01*
X129939800Y-117580200D02*
X131086000Y-116434000D01*
X129939800Y-119475600D02*
X129939800Y-117580200D01*
X130605600Y-120141400D02*
X129939800Y-119475600D01*
X150838700Y-120141400D02*
X130605600Y-120141400D01*
X154216000Y-116764100D02*
X150838700Y-120141400D01*
%TO.N,/VPP*%
X129506800Y-115580000D02*
X133360000Y-111726800D01*
X129506800Y-119934800D02*
X129506800Y-115580000D01*
X131086000Y-121514000D02*
X129506800Y-119934800D01*
X133360000Y-109940000D02*
X133360000Y-111726800D01*
%TO.N,VCC*%
X133360000Y-94954000D02*
X133360000Y-93167200D01*
X176441000Y-88493600D02*
X176441000Y-86706800D01*
X136907200Y-89620000D02*
X133360000Y-93167200D01*
X136907200Y-87614300D02*
X136907200Y-89620000D01*
X138623300Y-85898200D02*
X136907200Y-87614300D01*
X175632400Y-85898200D02*
X138623300Y-85898200D01*
X176441000Y-86706800D02*
X175632400Y-85898200D01*
%TO.N,GND*%
X158760000Y-94954000D02*
X158760000Y-96740800D01*
X153581000Y-103733600D02*
X153581000Y-101946800D01*
X154216000Y-122784000D02*
X154216000Y-121183900D01*
X155968500Y-99532300D02*
X155968500Y-101346100D01*
X158760000Y-96740800D02*
X155968500Y-99532300D01*
X155367800Y-101946800D02*
X153581000Y-101946800D01*
X155968500Y-101346100D02*
X155367800Y-101946800D01*
X158760000Y-109940000D02*
X158760000Y-111726800D01*
X157174700Y-102552300D02*
X155968500Y-101346100D01*
X157174700Y-105363500D02*
X157174700Y-102552300D01*
X155145900Y-107392300D02*
X157174700Y-105363500D01*
X155145900Y-111668400D02*
X155145900Y-107392300D01*
X155204300Y-111726800D02*
X155145900Y-111668400D01*
X158760000Y-111726800D02*
X155204300Y-111726800D01*
X155204300Y-120195600D02*
X154216000Y-121183900D01*
X155204300Y-111726800D02*
X155204300Y-120195600D01*
%TD*%
%TA.AperFunction,Conductor*%
%TO.N,GND*%
G36*
X151284673Y-122911150D02*
G01*
X151343117Y-123025854D01*
X151434146Y-123116883D01*
X151548850Y-123175327D01*
X151626005Y-123187547D01*
X150710971Y-124102581D01*
X150649648Y-124136066D01*
X150623290Y-124138900D01*
X150188710Y-124138900D01*
X150121671Y-124119215D01*
X150101029Y-124102581D01*
X149185994Y-123187547D01*
X149263150Y-123175327D01*
X149377854Y-123116883D01*
X149468883Y-123025854D01*
X149527327Y-122911150D01*
X149539547Y-122833995D01*
X150288527Y-123582975D01*
X150327905Y-123568758D01*
X150365114Y-123542104D01*
X150434895Y-123538584D01*
X150493282Y-123572076D01*
X150523469Y-123582976D01*
X151272452Y-122833994D01*
X151284673Y-122911150D01*
G37*
%TD.AperFunction*%
%TA.AperFunction,Conductor*%
G36*
X153824673Y-122911150D02*
G01*
X153883117Y-123025854D01*
X153974146Y-123116883D01*
X154088850Y-123175327D01*
X154166005Y-123187547D01*
X153250971Y-124102581D01*
X153189648Y-124136066D01*
X153163290Y-124138900D01*
X152728710Y-124138900D01*
X152661671Y-124119215D01*
X152641029Y-124102581D01*
X151725994Y-123187547D01*
X151803150Y-123175327D01*
X151917854Y-123116883D01*
X152008883Y-123025854D01*
X152067327Y-122911150D01*
X152079547Y-122833995D01*
X152828527Y-123582975D01*
X152867905Y-123568758D01*
X152905114Y-123542104D01*
X152974895Y-123538584D01*
X153033282Y-123572076D01*
X153063469Y-123582976D01*
X153812452Y-122833994D01*
X153824673Y-122911150D01*
G37*
%TD.AperFunction*%
%TA.AperFunction,Conductor*%
G36*
X158077768Y-86195785D02*
G01*
X158123523Y-86248589D01*
X158133467Y-86317747D01*
X158104442Y-86381303D01*
X158098415Y-86387775D01*
X157411943Y-87074246D01*
X157197621Y-87288568D01*
X157191141Y-87294207D01*
X157182428Y-87300787D01*
X157152704Y-87333391D01*
X157150730Y-87335458D01*
X157138079Y-87348111D01*
X157135786Y-87350872D01*
X157134359Y-87351831D01*
X157134037Y-87352154D01*
X157133973Y-87352090D01*
X157077810Y-87389866D01*
X157007955Y-87391325D01*
X156948401Y-87354786D01*
X156933011Y-87333644D01*
X156924934Y-87319655D01*
X156886721Y-87253467D01*
X156858016Y-87203748D01*
X156858011Y-87203741D01*
X156730579Y-87062214D01*
X156730577Y-87062212D01*
X156576502Y-86950270D01*
X156576501Y-86950269D01*
X156434568Y-86887078D01*
X156402515Y-86872807D01*
X156402513Y-86872806D01*
X156216226Y-86833210D01*
X156025774Y-86833210D01*
X155839485Y-86872806D01*
X155665502Y-86950268D01*
X155511421Y-87062213D01*
X155383988Y-87203741D01*
X155383983Y-87203748D01*
X155288758Y-87368684D01*
X155229907Y-87549810D01*
X155229907Y-87549812D01*
X155214990Y-87691735D01*
X155214990Y-89295465D01*
X155224735Y-89388180D01*
X155229907Y-89437389D01*
X155284359Y-89604977D01*
X155288759Y-89618517D01*
X155291100Y-89622571D01*
X155383983Y-89783451D01*
X155383988Y-89783458D01*
X155511420Y-89924985D01*
X155511422Y-89924987D01*
X155665497Y-90036929D01*
X155665498Y-90036929D01*
X155665499Y-90036930D01*
X155712379Y-90057802D01*
X155765616Y-90103051D01*
X155785939Y-90169899D01*
X155766895Y-90237124D01*
X155749626Y-90258763D01*
X152254821Y-93753568D01*
X152248341Y-93759207D01*
X152239628Y-93765787D01*
X152209904Y-93798391D01*
X152207930Y-93800458D01*
X152195282Y-93813108D01*
X152195278Y-93813112D01*
X152194054Y-93814899D01*
X152188728Y-93821621D01*
X152167787Y-93844593D01*
X152108077Y-93880876D01*
X152038229Y-93879117D01*
X151980421Y-93839875D01*
X151968761Y-93823056D01*
X151877019Y-93664152D01*
X151877011Y-93664141D01*
X151749579Y-93522614D01*
X151749577Y-93522612D01*
X151595502Y-93410670D01*
X151595501Y-93410669D01*
X151465238Y-93352673D01*
X151421515Y-93333207D01*
X151421513Y-93333206D01*
X151235226Y-93293610D01*
X151044774Y-93293610D01*
X150858485Y-93333206D01*
X150684502Y-93410668D01*
X150530420Y-93522614D01*
X150502649Y-93553457D01*
X150443162Y-93590105D01*
X150373305Y-93588774D01*
X150315257Y-93549887D01*
X150287448Y-93485790D01*
X150286500Y-93470484D01*
X150286500Y-91479271D01*
X150306185Y-91412232D01*
X150322819Y-91391590D01*
X150639441Y-91074968D01*
X151196184Y-90518224D01*
X151202666Y-90512584D01*
X151211369Y-90506012D01*
X151211373Y-90506011D01*
X151241115Y-90473384D01*
X151243022Y-90471386D01*
X151255715Y-90458695D01*
X151256927Y-90456924D01*
X151262271Y-90450177D01*
X151281368Y-90429230D01*
X151283290Y-90424267D01*
X151296616Y-90398985D01*
X151299625Y-90394594D01*
X151306118Y-90366983D01*
X151308654Y-90358795D01*
X151318900Y-90332349D01*
X151318900Y-90327025D01*
X151322194Y-90298635D01*
X151322662Y-90296646D01*
X151323412Y-90293457D01*
X151319494Y-90265375D01*
X151318900Y-90256802D01*
X151318900Y-90196529D01*
X151338585Y-90129490D01*
X151391389Y-90083735D01*
X151392418Y-90083269D01*
X151496500Y-90036930D01*
X151650579Y-89924986D01*
X151751395Y-89813018D01*
X151778011Y-89783458D01*
X151778016Y-89783451D01*
X151786457Y-89768831D01*
X151873241Y-89618517D01*
X151932093Y-89437388D01*
X151946086Y-89304256D01*
X152327890Y-89304256D01*
X152335230Y-89385816D01*
X153098640Y-88622406D01*
X153122325Y-88703070D01*
X153199919Y-88823808D01*
X153308386Y-88917795D01*
X153438939Y-88977417D01*
X153449252Y-88978899D01*
X152515201Y-89912950D01*
X152515201Y-89912952D01*
X152633499Y-90075776D01*
X152633500Y-90075778D01*
X152796542Y-90231662D01*
X152984791Y-90355924D01*
X153192195Y-90444572D01*
X153192212Y-90444578D01*
X153412110Y-90494767D01*
X153637443Y-90504887D01*
X153860973Y-90474608D01*
X154075495Y-90404906D01*
X154274122Y-90298020D01*
X154274125Y-90298018D01*
X154450475Y-90157384D01*
X154598885Y-89987516D01*
X154644692Y-89910845D01*
X153712746Y-88978899D01*
X153723061Y-88977417D01*
X153853614Y-88917795D01*
X153962081Y-88823808D01*
X154039675Y-88703070D01*
X154063359Y-88622407D01*
X154829132Y-89388180D01*
X154829134Y-89388180D01*
X154834110Y-89360764D01*
X154834110Y-87682947D01*
X154826768Y-87601383D01*
X154063359Y-88364792D01*
X154039675Y-88284130D01*
X153962081Y-88163392D01*
X153853614Y-88069405D01*
X153723061Y-88009783D01*
X153712747Y-88008300D01*
X154646797Y-87074248D01*
X154646797Y-87074246D01*
X154528497Y-86911420D01*
X154528498Y-86911420D01*
X154365457Y-86755537D01*
X154177208Y-86631275D01*
X153969804Y-86542627D01*
X153969787Y-86542621D01*
X153749889Y-86492432D01*
X153524556Y-86482312D01*
X153301026Y-86512591D01*
X153086504Y-86582293D01*
X152887877Y-86689179D01*
X152887874Y-86689181D01*
X152711524Y-86829815D01*
X152563112Y-86999685D01*
X152517306Y-87076351D01*
X152517306Y-87076353D01*
X153449253Y-88008300D01*
X153438939Y-88009783D01*
X153308386Y-88069405D01*
X153199919Y-88163392D01*
X153122325Y-88284130D01*
X153098640Y-88364793D01*
X152332864Y-87599017D01*
X152327890Y-87626435D01*
X152327890Y-89304256D01*
X151946086Y-89304256D01*
X151947010Y-89295465D01*
X151947010Y-87691735D01*
X151932093Y-87549812D01*
X151873241Y-87368683D01*
X151806721Y-87253467D01*
X151778016Y-87203748D01*
X151778011Y-87203741D01*
X151650579Y-87062214D01*
X151650577Y-87062212D01*
X151496502Y-86950270D01*
X151496501Y-86950269D01*
X151354568Y-86887078D01*
X151322515Y-86872807D01*
X151322513Y-86872806D01*
X151136226Y-86833210D01*
X150945774Y-86833210D01*
X150759485Y-86872806D01*
X150585502Y-86950268D01*
X150431421Y-87062213D01*
X150303988Y-87203741D01*
X150303983Y-87203748D01*
X150208758Y-87368684D01*
X150149907Y-87549810D01*
X150149907Y-87549812D01*
X150134990Y-87691735D01*
X150134990Y-89295465D01*
X150144735Y-89388180D01*
X150149907Y-89437389D01*
X150204359Y-89604977D01*
X150208759Y-89618517D01*
X150211100Y-89622571D01*
X150303983Y-89783451D01*
X150303988Y-89783458D01*
X150431420Y-89924985D01*
X150431422Y-89924987D01*
X150585497Y-90036929D01*
X150585498Y-90036929D01*
X150585499Y-90036930D01*
X150632379Y-90057802D01*
X150685616Y-90103051D01*
X150705939Y-90169899D01*
X150686895Y-90237124D01*
X150669626Y-90258763D01*
X149853421Y-91074968D01*
X149846941Y-91080607D01*
X149838228Y-91087187D01*
X149808504Y-91119791D01*
X149806530Y-91121858D01*
X149793882Y-91134508D01*
X149793879Y-91134510D01*
X149792655Y-91136298D01*
X149787329Y-91143019D01*
X149768231Y-91163970D01*
X149766305Y-91168942D01*
X149752991Y-91194202D01*
X149749976Y-91198604D01*
X149749975Y-91198606D01*
X149743482Y-91226206D01*
X149740941Y-91234413D01*
X149730700Y-91260850D01*
X149730700Y-91266172D01*
X149727407Y-91294557D01*
X149726188Y-91299737D01*
X149726188Y-91299743D01*
X149730105Y-91327821D01*
X149730700Y-91336397D01*
X149730700Y-93964742D01*
X149711015Y-94031781D01*
X149658211Y-94077536D01*
X149589053Y-94087480D01*
X149525497Y-94058455D01*
X149488769Y-94003060D01*
X149476319Y-93964742D01*
X149432241Y-93829083D01*
X149337015Y-93664147D01*
X149337011Y-93664141D01*
X149209579Y-93522614D01*
X149209577Y-93522612D01*
X149055502Y-93410670D01*
X149055501Y-93410669D01*
X148951465Y-93364350D01*
X148898228Y-93319100D01*
X148877906Y-93252251D01*
X148877900Y-93251070D01*
X148877900Y-93223265D01*
X148880485Y-93204734D01*
X148880448Y-93204731D01*
X148881508Y-93193287D01*
X148878165Y-93157203D01*
X148877900Y-93151480D01*
X148877900Y-93141452D01*
X148877900Y-93141447D01*
X148876050Y-93131554D01*
X148875267Y-93125941D01*
X148871922Y-93089832D01*
X148871920Y-93089827D01*
X148868777Y-93078777D01*
X148868813Y-93078766D01*
X148867808Y-93075768D01*
X148867772Y-93075782D01*
X148863624Y-93065073D01*
X148853425Y-93048602D01*
X148844542Y-93034256D01*
X148841772Y-93029284D01*
X148825611Y-92996827D01*
X148825607Y-92996824D01*
X148818687Y-92987659D01*
X148818716Y-92987636D01*
X148816696Y-92985203D01*
X148816669Y-92985229D01*
X148808928Y-92976737D01*
X148806943Y-92975238D01*
X148780006Y-92954896D01*
X148775604Y-92951240D01*
X148748830Y-92926831D01*
X148739061Y-92920783D01*
X148739080Y-92920750D01*
X148736319Y-92919212D01*
X148736303Y-92919247D01*
X148726020Y-92914126D01*
X148691164Y-92904208D01*
X148685738Y-92902389D01*
X148667034Y-92895144D01*
X148651947Y-92889299D01*
X148640652Y-92887188D01*
X148640658Y-92887151D01*
X148637531Y-92886715D01*
X148637528Y-92886752D01*
X148626086Y-92885691D01*
X148590004Y-92889035D01*
X148584281Y-92889300D01*
X148561872Y-92889300D01*
X148494833Y-92869615D01*
X148474191Y-92852981D01*
X145985754Y-90364544D01*
X145952269Y-90303221D01*
X145957253Y-90233529D01*
X145999125Y-90177596D01*
X146050335Y-90157529D01*
X146049870Y-90155341D01*
X146056226Y-90153990D01*
X146242515Y-90114393D01*
X146416500Y-90036930D01*
X146570579Y-89924986D01*
X146671395Y-89813018D01*
X146698011Y-89783458D01*
X146698016Y-89783451D01*
X146706457Y-89768831D01*
X146793241Y-89618517D01*
X146852093Y-89437388D01*
X146867010Y-89295465D01*
X147594990Y-89295465D01*
X147604735Y-89388180D01*
X147609907Y-89437389D01*
X147664359Y-89604977D01*
X147668759Y-89618517D01*
X147671100Y-89622571D01*
X147763983Y-89783451D01*
X147763988Y-89783458D01*
X147891420Y-89924985D01*
X147891422Y-89924987D01*
X148045497Y-90036929D01*
X148045498Y-90036930D01*
X148079192Y-90051931D01*
X148219485Y-90114393D01*
X148405774Y-90153990D01*
X148596226Y-90153990D01*
X148782515Y-90114393D01*
X148956500Y-90036930D01*
X149110579Y-89924986D01*
X149211395Y-89813018D01*
X149238011Y-89783458D01*
X149238016Y-89783451D01*
X149246457Y-89768831D01*
X149333241Y-89618517D01*
X149392093Y-89437388D01*
X149407010Y-89295465D01*
X149407010Y-87691735D01*
X149392093Y-87549812D01*
X149333241Y-87368683D01*
X149266721Y-87253467D01*
X149238016Y-87203748D01*
X149238011Y-87203741D01*
X149110579Y-87062214D01*
X149110577Y-87062212D01*
X148956502Y-86950270D01*
X148956501Y-86950269D01*
X148814568Y-86887078D01*
X148782515Y-86872807D01*
X148782513Y-86872806D01*
X148596226Y-86833210D01*
X148405774Y-86833210D01*
X148219485Y-86872806D01*
X148045502Y-86950268D01*
X147891421Y-87062213D01*
X147763988Y-87203741D01*
X147763983Y-87203748D01*
X147668758Y-87368684D01*
X147609907Y-87549810D01*
X147609907Y-87549812D01*
X147594990Y-87691735D01*
X147594990Y-89295465D01*
X146867010Y-89295465D01*
X146867010Y-87691735D01*
X146852093Y-87549812D01*
X146793241Y-87368683D01*
X146726721Y-87253467D01*
X146698016Y-87203748D01*
X146698011Y-87203741D01*
X146570579Y-87062214D01*
X146570577Y-87062212D01*
X146416502Y-86950270D01*
X146416501Y-86950269D01*
X146274568Y-86887078D01*
X146242515Y-86872807D01*
X146242513Y-86872806D01*
X146056226Y-86833210D01*
X145865774Y-86833210D01*
X145679485Y-86872806D01*
X145505502Y-86950268D01*
X145351421Y-87062213D01*
X145223988Y-87203741D01*
X145223983Y-87203749D01*
X145133230Y-87360937D01*
X145082663Y-87409153D01*
X145014055Y-87422375D01*
X144949191Y-87396407D01*
X144928270Y-87374060D01*
X144924238Y-87370028D01*
X144920474Y-87366264D01*
X144902728Y-87343860D01*
X144899928Y-87339337D01*
X144894791Y-87335458D01*
X144877301Y-87322250D01*
X144870816Y-87316606D01*
X144074131Y-86519921D01*
X144068487Y-86513435D01*
X144061910Y-86504726D01*
X144029318Y-86475014D01*
X144027246Y-86473036D01*
X144014593Y-86460383D01*
X144012812Y-86459163D01*
X144006077Y-86453827D01*
X143985130Y-86434732D01*
X143980162Y-86432807D01*
X143954888Y-86419485D01*
X143950493Y-86416474D01*
X143943835Y-86413535D01*
X143890459Y-86368450D01*
X143869930Y-86301664D01*
X143888767Y-86234382D01*
X143940990Y-86187964D01*
X143993920Y-86176100D01*
X158010729Y-86176100D01*
X158077768Y-86195785D01*
G37*
%TD.AperFunction*%
%TA.AperFunction,Conductor*%
G36*
X188470426Y-83514691D02*
G01*
X188502521Y-83517216D01*
X188645136Y-83528440D01*
X188664346Y-83531483D01*
X188827638Y-83570686D01*
X188846130Y-83576694D01*
X188969090Y-83627626D01*
X189001277Y-83640959D01*
X189018614Y-83649793D01*
X189161786Y-83737529D01*
X189177527Y-83748965D01*
X189305217Y-83858022D01*
X189318977Y-83871782D01*
X189428034Y-83999472D01*
X189439470Y-84015213D01*
X189527206Y-84158385D01*
X189536040Y-84175722D01*
X189600302Y-84330862D01*
X189606315Y-84349368D01*
X189645515Y-84512648D01*
X189648559Y-84531866D01*
X189662309Y-84706573D01*
X189662500Y-84711440D01*
X189662500Y-125346292D01*
X189662264Y-125351698D01*
X189647227Y-125523561D01*
X189643474Y-125544846D01*
X189600929Y-125703627D01*
X189593536Y-125723939D01*
X189524067Y-125872915D01*
X189513260Y-125891633D01*
X189418971Y-126026292D01*
X189405077Y-126042850D01*
X189288850Y-126159077D01*
X189272292Y-126172971D01*
X189137633Y-126267260D01*
X189118915Y-126278067D01*
X188969939Y-126347536D01*
X188949627Y-126354929D01*
X188790846Y-126397474D01*
X188769561Y-126401227D01*
X188629729Y-126413461D01*
X188597695Y-126416264D01*
X188592293Y-126416500D01*
X128780707Y-126416500D01*
X128775304Y-126416264D01*
X128738923Y-126413081D01*
X128603438Y-126401227D01*
X128582153Y-126397474D01*
X128423372Y-126354929D01*
X128403060Y-126347536D01*
X128254084Y-126278067D01*
X128235366Y-126267260D01*
X128100707Y-126172971D01*
X128084149Y-126159077D01*
X127967922Y-126042850D01*
X127954028Y-126026292D01*
X127859739Y-125891633D01*
X127848932Y-125872915D01*
X127779463Y-125723939D01*
X127772070Y-125703627D01*
X127729525Y-125544846D01*
X127725772Y-125523560D01*
X127710736Y-125351698D01*
X127710500Y-125346292D01*
X127710500Y-109886096D01*
X127680497Y-109696670D01*
X127680497Y-109696667D01*
X127621228Y-109514258D01*
X127534155Y-109343367D01*
X127534153Y-109343364D01*
X127533515Y-109342112D01*
X127520000Y-109285817D01*
X127520000Y-109011362D01*
X127539685Y-108944323D01*
X127556319Y-108923681D01*
X127600000Y-108880000D01*
X127510000Y-108790000D01*
X126764972Y-108790000D01*
X126745574Y-108788473D01*
X126587903Y-108763500D01*
X126587898Y-108763500D01*
X126519480Y-108763500D01*
X108460707Y-108763500D01*
X108455304Y-108763264D01*
X108413858Y-108759638D01*
X108283438Y-108748227D01*
X108262153Y-108744474D01*
X108103372Y-108701929D01*
X108083060Y-108694536D01*
X107934084Y-108625067D01*
X107915366Y-108614260D01*
X107780707Y-108519971D01*
X107764149Y-108506077D01*
X107647922Y-108389850D01*
X107634028Y-108373292D01*
X107539739Y-108238633D01*
X107528932Y-108219915D01*
X107459463Y-108070939D01*
X107452070Y-108050627D01*
X107431781Y-107974908D01*
X107409524Y-107891843D01*
X107405772Y-107870560D01*
X107404464Y-107855615D01*
X107390735Y-107698696D01*
X107390500Y-107693292D01*
X107390500Y-104535465D01*
X117114990Y-104535465D01*
X117122371Y-104605690D01*
X117129907Y-104677389D01*
X117188730Y-104858430D01*
X117188759Y-104858517D01*
X117189895Y-104860484D01*
X117283983Y-105023451D01*
X117283988Y-105023458D01*
X117411420Y-105164985D01*
X117411422Y-105164987D01*
X117565497Y-105276929D01*
X117565498Y-105276930D01*
X117608019Y-105295861D01*
X117739485Y-105354393D01*
X117925774Y-105393990D01*
X118116226Y-105393990D01*
X118302515Y-105354393D01*
X118476500Y-105276930D01*
X118630579Y-105164986D01*
X118747142Y-105035529D01*
X118758011Y-105023458D01*
X118758016Y-105023451D01*
X118779043Y-104987031D01*
X118853241Y-104858517D01*
X118912093Y-104677388D01*
X118927010Y-104535465D01*
X119654990Y-104535465D01*
X119662371Y-104605690D01*
X119669907Y-104677389D01*
X119728730Y-104858430D01*
X119728759Y-104858517D01*
X119729895Y-104860484D01*
X119823983Y-105023451D01*
X119823988Y-105023458D01*
X119951420Y-105164985D01*
X119951422Y-105164987D01*
X120105497Y-105276929D01*
X120105498Y-105276930D01*
X120148019Y-105295861D01*
X120279485Y-105354393D01*
X120465774Y-105393990D01*
X120656226Y-105393990D01*
X120842515Y-105354393D01*
X121016500Y-105276930D01*
X121170579Y-105164986D01*
X121287142Y-105035529D01*
X121298011Y-105023458D01*
X121298016Y-105023451D01*
X121319043Y-104987031D01*
X121393241Y-104858517D01*
X121452093Y-104677388D01*
X121467010Y-104535465D01*
X122194990Y-104535465D01*
X122202371Y-104605690D01*
X122209907Y-104677389D01*
X122268730Y-104858430D01*
X122268759Y-104858517D01*
X122269895Y-104860484D01*
X122363983Y-105023451D01*
X122363988Y-105023458D01*
X122491420Y-105164985D01*
X122491422Y-105164987D01*
X122645497Y-105276929D01*
X122645498Y-105276930D01*
X122688019Y-105295861D01*
X122819485Y-105354393D01*
X123005774Y-105393990D01*
X123196226Y-105393990D01*
X123382515Y-105354393D01*
X123556500Y-105276930D01*
X123710579Y-105164986D01*
X123827142Y-105035529D01*
X123838011Y-105023458D01*
X123838016Y-105023451D01*
X123859043Y-104987031D01*
X123933241Y-104858517D01*
X123992093Y-104677388D01*
X124007010Y-104535465D01*
X124734990Y-104535465D01*
X124742371Y-104605690D01*
X124749907Y-104677389D01*
X124808730Y-104858430D01*
X124808759Y-104858517D01*
X124809895Y-104860484D01*
X124903983Y-105023451D01*
X124903988Y-105023458D01*
X125031420Y-105164985D01*
X125031422Y-105164987D01*
X125185497Y-105276929D01*
X125185498Y-105276930D01*
X125228019Y-105295861D01*
X125359485Y-105354393D01*
X125545774Y-105393990D01*
X125736226Y-105393990D01*
X125922515Y-105354393D01*
X126096500Y-105276930D01*
X126250579Y-105164986D01*
X126367142Y-105035529D01*
X126378011Y-105023458D01*
X126378016Y-105023451D01*
X126399043Y-104987031D01*
X126473241Y-104858517D01*
X126532093Y-104677388D01*
X126547010Y-104535465D01*
X127274990Y-104535465D01*
X127282371Y-104605690D01*
X127289907Y-104677389D01*
X127348730Y-104858430D01*
X127348759Y-104858517D01*
X127349895Y-104860484D01*
X127443983Y-105023451D01*
X127443988Y-105023458D01*
X127571420Y-105164985D01*
X127571422Y-105164987D01*
X127725497Y-105276929D01*
X127725498Y-105276930D01*
X127768019Y-105295861D01*
X127899485Y-105354393D01*
X128085774Y-105393990D01*
X128276226Y-105393990D01*
X128462515Y-105354393D01*
X128636500Y-105276930D01*
X128790579Y-105164986D01*
X128907142Y-105035529D01*
X128918011Y-105023458D01*
X128918016Y-105023451D01*
X128939043Y-104987031D01*
X129013241Y-104858517D01*
X129072093Y-104677388D01*
X129087010Y-104535465D01*
X129814990Y-104535465D01*
X129822371Y-104605690D01*
X129829907Y-104677389D01*
X129888730Y-104858430D01*
X129888759Y-104858517D01*
X129889895Y-104860484D01*
X129983983Y-105023451D01*
X129983988Y-105023458D01*
X130111420Y-105164985D01*
X130111422Y-105164987D01*
X130265497Y-105276929D01*
X130265498Y-105276930D01*
X130308019Y-105295861D01*
X130439485Y-105354393D01*
X130625774Y-105393990D01*
X130816226Y-105393990D01*
X131002515Y-105354393D01*
X131176500Y-105276930D01*
X131330579Y-105164986D01*
X131447142Y-105035529D01*
X131458011Y-105023458D01*
X131458016Y-105023451D01*
X131479043Y-104987031D01*
X131553241Y-104858517D01*
X131612093Y-104677388D01*
X131627010Y-104535465D01*
X132354990Y-104535465D01*
X132362371Y-104605690D01*
X132369907Y-104677389D01*
X132428730Y-104858430D01*
X132428759Y-104858517D01*
X132429895Y-104860484D01*
X132523983Y-105023451D01*
X132523988Y-105023458D01*
X132651420Y-105164985D01*
X132651422Y-105164987D01*
X132805497Y-105276929D01*
X132805498Y-105276930D01*
X132848019Y-105295861D01*
X132979485Y-105354393D01*
X133165774Y-105393990D01*
X133356226Y-105393990D01*
X133542515Y-105354393D01*
X133716500Y-105276930D01*
X133870579Y-105164986D01*
X133987142Y-105035529D01*
X133998011Y-105023458D01*
X133998016Y-105023451D01*
X134019043Y-104987031D01*
X134093241Y-104858517D01*
X134152093Y-104677388D01*
X134167010Y-104535465D01*
X134894990Y-104535465D01*
X134902371Y-104605690D01*
X134909907Y-104677389D01*
X134968730Y-104858430D01*
X134968759Y-104858517D01*
X134969895Y-104860484D01*
X135063983Y-105023451D01*
X135063988Y-105023458D01*
X135191420Y-105164985D01*
X135191422Y-105164987D01*
X135345497Y-105276929D01*
X135345498Y-105276930D01*
X135388019Y-105295861D01*
X135519485Y-105354393D01*
X135705774Y-105393990D01*
X135896226Y-105393990D01*
X136082515Y-105354393D01*
X136256500Y-105276930D01*
X136410579Y-105164986D01*
X136527142Y-105035529D01*
X136538011Y-105023458D01*
X136538016Y-105023451D01*
X136559043Y-104987031D01*
X136633241Y-104858517D01*
X136692093Y-104677388D01*
X136707010Y-104535465D01*
X137434990Y-104535465D01*
X137442371Y-104605690D01*
X137449907Y-104677389D01*
X137508730Y-104858430D01*
X137508759Y-104858517D01*
X137509895Y-104860484D01*
X137603983Y-105023451D01*
X137603988Y-105023458D01*
X137731420Y-105164985D01*
X137731422Y-105164987D01*
X137885497Y-105276929D01*
X137885498Y-105276930D01*
X137928019Y-105295861D01*
X138059485Y-105354393D01*
X138245774Y-105393990D01*
X138436226Y-105393990D01*
X138622515Y-105354393D01*
X138796500Y-105276930D01*
X138950579Y-105164986D01*
X139067142Y-105035529D01*
X139078011Y-105023458D01*
X139078016Y-105023451D01*
X139099043Y-104987031D01*
X139173241Y-104858517D01*
X139232093Y-104677388D01*
X139247010Y-104535465D01*
X139247010Y-102931735D01*
X139232093Y-102789812D01*
X139173241Y-102608683D01*
X139111294Y-102501387D01*
X139078016Y-102443748D01*
X139078011Y-102443741D01*
X138950579Y-102302214D01*
X138950577Y-102302212D01*
X138796502Y-102190270D01*
X138796501Y-102190269D01*
X138666238Y-102132273D01*
X138622515Y-102112807D01*
X138622513Y-102112806D01*
X138436226Y-102073210D01*
X138245774Y-102073210D01*
X138059485Y-102112806D01*
X137885502Y-102190268D01*
X137731421Y-102302213D01*
X137603988Y-102443741D01*
X137603983Y-102443748D01*
X137508758Y-102608684D01*
X137449907Y-102789810D01*
X137449907Y-102789812D01*
X137434990Y-102931735D01*
X137434990Y-104535465D01*
X136707010Y-104535465D01*
X136707010Y-102931735D01*
X136692093Y-102789812D01*
X136633241Y-102608683D01*
X136571294Y-102501387D01*
X136538016Y-102443748D01*
X136538011Y-102443741D01*
X136410579Y-102302214D01*
X136410577Y-102302212D01*
X136256502Y-102190270D01*
X136256501Y-102190269D01*
X136126238Y-102132273D01*
X136082515Y-102112807D01*
X136082513Y-102112806D01*
X135896226Y-102073210D01*
X135705774Y-102073210D01*
X135519485Y-102112806D01*
X135345502Y-102190268D01*
X135191421Y-102302213D01*
X135063988Y-102443741D01*
X135063983Y-102443748D01*
X134968758Y-102608684D01*
X134909907Y-102789810D01*
X134909907Y-102789812D01*
X134894990Y-102931735D01*
X134894990Y-104535465D01*
X134167010Y-104535465D01*
X134167010Y-102931735D01*
X134152093Y-102789812D01*
X134093241Y-102608683D01*
X134031294Y-102501387D01*
X133998016Y-102443748D01*
X133998011Y-102443741D01*
X133870579Y-102302214D01*
X133870577Y-102302212D01*
X133716502Y-102190270D01*
X133716501Y-102190269D01*
X133586238Y-102132273D01*
X133542515Y-102112807D01*
X133542513Y-102112806D01*
X133356226Y-102073210D01*
X133165774Y-102073210D01*
X132979485Y-102112806D01*
X132805502Y-102190268D01*
X132651421Y-102302213D01*
X132523988Y-102443741D01*
X132523983Y-102443748D01*
X132428758Y-102608684D01*
X132369907Y-102789810D01*
X132369907Y-102789812D01*
X132354990Y-102931735D01*
X132354990Y-104535465D01*
X131627010Y-104535465D01*
X131627010Y-102931735D01*
X131612093Y-102789812D01*
X131553241Y-102608683D01*
X131491294Y-102501387D01*
X131458016Y-102443748D01*
X131458011Y-102443741D01*
X131330579Y-102302214D01*
X131330577Y-102302212D01*
X131176502Y-102190270D01*
X131176501Y-102190269D01*
X131046238Y-102132273D01*
X131002515Y-102112807D01*
X131002513Y-102112806D01*
X130816226Y-102073210D01*
X130625774Y-102073210D01*
X130439485Y-102112806D01*
X130265502Y-102190268D01*
X130111421Y-102302213D01*
X129983988Y-102443741D01*
X129983983Y-102443748D01*
X129888758Y-102608684D01*
X129829907Y-102789810D01*
X129829907Y-102789812D01*
X129814990Y-102931735D01*
X129814990Y-104535465D01*
X129087010Y-104535465D01*
X129087010Y-102931735D01*
X129072093Y-102789812D01*
X129013241Y-102608683D01*
X128951294Y-102501387D01*
X128918016Y-102443748D01*
X128918011Y-102443741D01*
X128790579Y-102302214D01*
X128790577Y-102302212D01*
X128636502Y-102190270D01*
X128636496Y-102190267D01*
X128589618Y-102169395D01*
X128536381Y-102124145D01*
X128516060Y-102057296D01*
X128535106Y-101990072D01*
X128552368Y-101968440D01*
X133465791Y-97055019D01*
X133527114Y-97021534D01*
X133553472Y-97018700D01*
X135843935Y-97018700D01*
X135862468Y-97021284D01*
X135862472Y-97021248D01*
X135873913Y-97022308D01*
X135873913Y-97022307D01*
X135873914Y-97022308D01*
X135882267Y-97021534D01*
X135909996Y-97018965D01*
X135915719Y-97018700D01*
X135925750Y-97018700D01*
X135925753Y-97018700D01*
X135935633Y-97016852D01*
X135941266Y-97016066D01*
X135977368Y-97012722D01*
X135977370Y-97012720D01*
X135988424Y-97009577D01*
X135988434Y-97009614D01*
X135991425Y-97008611D01*
X135991411Y-97008575D01*
X136002122Y-97004424D01*
X136002128Y-97004423D01*
X136032942Y-96985342D01*
X136037932Y-96982563D01*
X136070373Y-96966411D01*
X136070374Y-96966410D01*
X136079543Y-96959486D01*
X136079566Y-96959517D01*
X136081997Y-96957498D01*
X136081971Y-96957469D01*
X136090459Y-96949730D01*
X136090463Y-96949728D01*
X136101579Y-96935008D01*
X136112296Y-96920816D01*
X136115950Y-96916413D01*
X136140368Y-96889630D01*
X136140369Y-96889627D01*
X136146417Y-96879859D01*
X136146451Y-96879880D01*
X136147988Y-96877120D01*
X136147953Y-96877103D01*
X136153074Y-96866818D01*
X136153505Y-96865306D01*
X136162992Y-96831959D01*
X136164812Y-96826531D01*
X136168002Y-96818298D01*
X136177900Y-96792749D01*
X136177900Y-96792747D01*
X136177901Y-96792745D01*
X136180012Y-96781454D01*
X136180049Y-96781460D01*
X136180485Y-96778334D01*
X136180448Y-96778331D01*
X136181508Y-96766887D01*
X136178165Y-96730803D01*
X136177900Y-96725080D01*
X136177900Y-96656929D01*
X136197585Y-96589890D01*
X136250389Y-96544135D01*
X136251418Y-96543669D01*
X136355500Y-96497330D01*
X136509579Y-96385386D01*
X136624550Y-96257697D01*
X136637011Y-96243858D01*
X136637016Y-96243852D01*
X136732241Y-96078917D01*
X136791093Y-95897788D01*
X136806010Y-95755865D01*
X137533990Y-95755865D01*
X137543597Y-95847264D01*
X137548907Y-95897789D01*
X137607758Y-96078915D01*
X137702983Y-96243851D01*
X137702988Y-96243858D01*
X137830420Y-96385385D01*
X137830422Y-96385387D01*
X137984497Y-96497329D01*
X137984498Y-96497330D01*
X138020146Y-96513201D01*
X138158485Y-96574793D01*
X138344774Y-96614390D01*
X138535226Y-96614390D01*
X138721515Y-96574793D01*
X138895500Y-96497330D01*
X139049579Y-96385386D01*
X139164550Y-96257697D01*
X139177011Y-96243858D01*
X139177016Y-96243852D01*
X139272241Y-96078917D01*
X139331093Y-95897788D01*
X139346010Y-95755865D01*
X139346010Y-94152135D01*
X139331093Y-94010212D01*
X139272241Y-93829083D01*
X139177015Y-93664147D01*
X139177011Y-93664141D01*
X139049579Y-93522614D01*
X139049577Y-93522612D01*
X138895502Y-93410670D01*
X138895501Y-93410669D01*
X138765238Y-93352673D01*
X138721515Y-93333207D01*
X138721513Y-93333206D01*
X138535226Y-93293610D01*
X138344774Y-93293610D01*
X138158485Y-93333206D01*
X137984502Y-93410668D01*
X137830421Y-93522613D01*
X137702988Y-93664141D01*
X137702983Y-93664148D01*
X137607758Y-93829084D01*
X137548907Y-94010210D01*
X137548907Y-94010212D01*
X137533990Y-94152135D01*
X137533990Y-95755865D01*
X136806010Y-95755865D01*
X136806010Y-94152135D01*
X136791093Y-94010212D01*
X136732241Y-93829083D01*
X136637015Y-93664147D01*
X136637011Y-93664141D01*
X136509579Y-93522614D01*
X136509577Y-93522612D01*
X136355502Y-93410670D01*
X136355501Y-93410669D01*
X136225238Y-93352673D01*
X136181515Y-93333207D01*
X136181513Y-93333206D01*
X135995226Y-93293610D01*
X135804774Y-93293610D01*
X135618485Y-93333206D01*
X135444502Y-93410668D01*
X135290421Y-93522613D01*
X135162988Y-93664141D01*
X135162983Y-93664148D01*
X135067758Y-93829084D01*
X135008907Y-94010210D01*
X135008907Y-94010212D01*
X134993990Y-94152135D01*
X134993990Y-95755865D01*
X135003597Y-95847264D01*
X135008907Y-95897789D01*
X135067758Y-96078915D01*
X135162983Y-96243851D01*
X135162988Y-96243858D01*
X135173857Y-96255929D01*
X135204086Y-96318921D01*
X135195460Y-96388256D01*
X135150718Y-96441921D01*
X135084065Y-96462878D01*
X135081706Y-96462900D01*
X134178294Y-96462900D01*
X134111255Y-96443215D01*
X134065500Y-96390411D01*
X134055556Y-96321253D01*
X134084581Y-96257697D01*
X134086143Y-96255929D01*
X134097011Y-96243858D01*
X134097016Y-96243852D01*
X134192241Y-96078917D01*
X134251093Y-95897788D01*
X134266010Y-95755865D01*
X134266010Y-94152135D01*
X134251093Y-94010212D01*
X134192241Y-93829083D01*
X134097015Y-93664147D01*
X134097011Y-93664141D01*
X133969579Y-93522614D01*
X133969577Y-93522612D01*
X133815502Y-93410670D01*
X133815496Y-93410667D01*
X133768618Y-93389795D01*
X133715381Y-93344545D01*
X133695060Y-93277696D01*
X133714106Y-93210472D01*
X133731369Y-93188839D01*
X137062384Y-89857824D01*
X137068866Y-89852184D01*
X137077569Y-89845612D01*
X137077573Y-89845611D01*
X137107315Y-89812984D01*
X137109222Y-89810986D01*
X137121915Y-89798295D01*
X137123127Y-89796524D01*
X137128471Y-89789777D01*
X137134232Y-89783458D01*
X137147568Y-89768830D01*
X137149490Y-89763867D01*
X137162816Y-89738585D01*
X137165825Y-89734194D01*
X137172318Y-89706583D01*
X137174854Y-89698395D01*
X137185100Y-89671949D01*
X137185100Y-89666626D01*
X137188394Y-89638235D01*
X137188801Y-89636504D01*
X137189612Y-89633057D01*
X137185694Y-89604975D01*
X137185100Y-89596402D01*
X137185100Y-87780770D01*
X137204785Y-87713731D01*
X137221415Y-87693093D01*
X137223310Y-87691197D01*
X137284632Y-87657714D01*
X137354324Y-87662698D01*
X137410257Y-87704570D01*
X137434674Y-87770034D01*
X137434990Y-87778880D01*
X137434990Y-89295465D01*
X137444735Y-89388180D01*
X137449907Y-89437389D01*
X137504359Y-89604977D01*
X137508759Y-89618517D01*
X137511100Y-89622571D01*
X137603983Y-89783451D01*
X137603988Y-89783458D01*
X137731420Y-89924985D01*
X137731422Y-89924987D01*
X137885497Y-90036929D01*
X137885498Y-90036930D01*
X137919192Y-90051931D01*
X138059485Y-90114393D01*
X138245774Y-90153990D01*
X138436226Y-90153990D01*
X138622515Y-90114393D01*
X138796500Y-90036930D01*
X138950579Y-89924986D01*
X139051395Y-89813018D01*
X139078011Y-89783458D01*
X139078016Y-89783451D01*
X139086457Y-89768831D01*
X139173241Y-89618517D01*
X139232093Y-89437388D01*
X139247010Y-89295465D01*
X139247010Y-88031961D01*
X139266695Y-87964922D01*
X139283329Y-87944280D01*
X139759131Y-87468478D01*
X139778961Y-87448648D01*
X139840283Y-87415164D01*
X139909975Y-87420148D01*
X139965908Y-87462020D01*
X139990325Y-87527484D01*
X139989962Y-87549292D01*
X139989907Y-87549810D01*
X139989907Y-87549812D01*
X139974990Y-87691735D01*
X139974990Y-89295465D01*
X139984735Y-89388180D01*
X139989907Y-89437389D01*
X140044359Y-89604977D01*
X140048759Y-89618517D01*
X140051100Y-89622571D01*
X140143983Y-89783451D01*
X140143988Y-89783458D01*
X140271420Y-89924985D01*
X140271422Y-89924987D01*
X140425497Y-90036929D01*
X140425501Y-90036931D01*
X140529534Y-90083249D01*
X140582772Y-90128499D01*
X140603094Y-90195347D01*
X140603100Y-90196529D01*
X140603100Y-90221954D01*
X140602505Y-90230529D01*
X140600997Y-90241338D01*
X140603034Y-90285406D01*
X140603100Y-90288269D01*
X140603100Y-90306155D01*
X140603495Y-90308271D01*
X140604484Y-90316799D01*
X140605794Y-90345127D01*
X140607944Y-90349995D01*
X140616398Y-90377294D01*
X140617376Y-90382526D01*
X140617376Y-90382527D01*
X140617377Y-90382528D01*
X140627564Y-90398981D01*
X140632304Y-90406635D01*
X140636312Y-90414240D01*
X140647760Y-90440168D01*
X140647761Y-90440169D01*
X140647762Y-90440171D01*
X140651523Y-90443932D01*
X140669265Y-90466331D01*
X140672072Y-90470863D01*
X140672073Y-90470864D01*
X140675455Y-90473418D01*
X140694701Y-90487951D01*
X140701183Y-90493592D01*
X142075881Y-91868290D01*
X142109366Y-91929613D01*
X142112200Y-91955971D01*
X142112200Y-93969358D01*
X142092515Y-94036397D01*
X142039711Y-94082152D01*
X141970553Y-94092096D01*
X141906997Y-94063071D01*
X141870269Y-94007676D01*
X141854505Y-93959158D01*
X141812241Y-93829083D01*
X141717015Y-93664147D01*
X141717011Y-93664141D01*
X141589579Y-93522614D01*
X141589577Y-93522612D01*
X141435502Y-93410670D01*
X141435501Y-93410669D01*
X141305238Y-93352673D01*
X141261515Y-93333207D01*
X141261513Y-93333206D01*
X141075226Y-93293610D01*
X140884774Y-93293610D01*
X140698485Y-93333206D01*
X140524502Y-93410668D01*
X140370421Y-93522613D01*
X140242988Y-93664141D01*
X140242983Y-93664148D01*
X140147758Y-93829084D01*
X140088907Y-94010210D01*
X140088907Y-94010212D01*
X140073990Y-94152135D01*
X140073990Y-95755865D01*
X140083597Y-95847264D01*
X140088907Y-95897789D01*
X140147758Y-96078915D01*
X140242983Y-96243851D01*
X140242988Y-96243858D01*
X140370420Y-96385385D01*
X140370422Y-96385387D01*
X140524497Y-96497329D01*
X140524498Y-96497330D01*
X140560146Y-96513201D01*
X140698485Y-96574793D01*
X140884774Y-96614390D01*
X141075226Y-96614390D01*
X141261515Y-96574793D01*
X141435500Y-96497330D01*
X141589579Y-96385386D01*
X141704550Y-96257697D01*
X141717011Y-96243858D01*
X141717016Y-96243852D01*
X141812241Y-96078917D01*
X141870269Y-95900322D01*
X141909706Y-95842648D01*
X141974065Y-95815449D01*
X142042911Y-95827363D01*
X142094387Y-95874607D01*
X142112200Y-95938641D01*
X142112200Y-95984454D01*
X142111605Y-95993029D01*
X142110097Y-96003838D01*
X142110097Y-96003840D01*
X142110097Y-96003841D01*
X142110543Y-96013488D01*
X142112134Y-96047906D01*
X142112200Y-96050769D01*
X142112200Y-96068655D01*
X142112595Y-96070771D01*
X142113584Y-96079299D01*
X142114894Y-96107627D01*
X142117044Y-96112495D01*
X142125498Y-96139794D01*
X142126476Y-96145026D01*
X142126476Y-96145027D01*
X142126477Y-96145028D01*
X142135180Y-96159084D01*
X142141404Y-96169135D01*
X142145412Y-96176740D01*
X142156861Y-96202671D01*
X142160622Y-96206432D01*
X142178366Y-96228832D01*
X142181172Y-96233363D01*
X142203804Y-96250454D01*
X142210284Y-96256094D01*
X142850175Y-96895985D01*
X142855812Y-96902464D01*
X142862389Y-96911173D01*
X142894991Y-96940894D01*
X142897052Y-96942862D01*
X142909705Y-96955515D01*
X142909708Y-96955517D01*
X142911483Y-96956733D01*
X142918221Y-96962071D01*
X142921749Y-96965287D01*
X142939170Y-96981168D01*
X142939173Y-96981169D01*
X142944130Y-96983090D01*
X142969411Y-96996414D01*
X142973806Y-96999425D01*
X143001416Y-97005918D01*
X143009603Y-97008454D01*
X143036051Y-97018700D01*
X143041375Y-97018700D01*
X143069764Y-97021993D01*
X143074944Y-97023212D01*
X143103025Y-97019294D01*
X143111599Y-97018700D01*
X146003935Y-97018700D01*
X146022468Y-97021284D01*
X146022472Y-97021248D01*
X146033913Y-97022308D01*
X146033913Y-97022307D01*
X146033914Y-97022308D01*
X146042267Y-97021534D01*
X146069996Y-97018965D01*
X146075719Y-97018700D01*
X146085750Y-97018700D01*
X146085753Y-97018700D01*
X146095633Y-97016852D01*
X146101266Y-97016066D01*
X146137368Y-97012722D01*
X146137370Y-97012720D01*
X146148424Y-97009577D01*
X146148434Y-97009614D01*
X146151425Y-97008611D01*
X146151411Y-97008575D01*
X146162122Y-97004424D01*
X146162128Y-97004423D01*
X146192942Y-96985342D01*
X146197932Y-96982563D01*
X146230373Y-96966411D01*
X146230374Y-96966410D01*
X146239543Y-96959486D01*
X146239566Y-96959517D01*
X146241997Y-96957498D01*
X146241971Y-96957469D01*
X146250459Y-96949730D01*
X146250463Y-96949728D01*
X146261579Y-96935008D01*
X146272296Y-96920816D01*
X146275950Y-96916413D01*
X146300368Y-96889630D01*
X146300369Y-96889627D01*
X146306417Y-96879859D01*
X146306451Y-96879880D01*
X146307988Y-96877120D01*
X146307953Y-96877103D01*
X146313074Y-96866818D01*
X146313505Y-96865306D01*
X146322992Y-96831959D01*
X146324812Y-96826531D01*
X146328002Y-96818298D01*
X146337900Y-96792749D01*
X146337900Y-96792747D01*
X146337901Y-96792745D01*
X146340012Y-96781454D01*
X146340049Y-96781460D01*
X146340485Y-96778334D01*
X146340448Y-96778331D01*
X146341508Y-96766887D01*
X146338165Y-96730803D01*
X146337900Y-96725080D01*
X146337900Y-96656929D01*
X146357585Y-96589890D01*
X146410389Y-96544135D01*
X146411418Y-96543669D01*
X146515500Y-96497330D01*
X146669579Y-96385386D01*
X146784550Y-96257697D01*
X146797011Y-96243858D01*
X146797016Y-96243852D01*
X146892241Y-96078917D01*
X146951093Y-95897788D01*
X146966010Y-95755865D01*
X146966010Y-94152135D01*
X146951093Y-94010212D01*
X146892241Y-93829083D01*
X146797015Y-93664147D01*
X146797011Y-93664141D01*
X146669579Y-93522614D01*
X146669577Y-93522612D01*
X146515502Y-93410670D01*
X146515501Y-93410669D01*
X146385238Y-93352673D01*
X146341515Y-93333207D01*
X146341513Y-93333206D01*
X146155226Y-93293610D01*
X145964774Y-93293610D01*
X145778485Y-93333206D01*
X145604502Y-93410668D01*
X145450421Y-93522613D01*
X145322988Y-93664141D01*
X145322983Y-93664148D01*
X145227758Y-93829084D01*
X145168907Y-94010210D01*
X145168907Y-94010212D01*
X145153990Y-94152135D01*
X145153990Y-95755865D01*
X145163597Y-95847264D01*
X145168907Y-95897789D01*
X145227758Y-96078915D01*
X145322983Y-96243851D01*
X145322988Y-96243858D01*
X145333857Y-96255929D01*
X145364086Y-96318921D01*
X145355460Y-96388256D01*
X145310718Y-96441921D01*
X145244065Y-96462878D01*
X145241706Y-96462900D01*
X144338294Y-96462900D01*
X144271255Y-96443215D01*
X144225500Y-96390411D01*
X144215556Y-96321253D01*
X144244581Y-96257697D01*
X144246143Y-96255929D01*
X144257011Y-96243858D01*
X144257016Y-96243852D01*
X144352241Y-96078917D01*
X144411093Y-95897788D01*
X144426010Y-95755865D01*
X144426010Y-94152135D01*
X144411093Y-94010212D01*
X144352241Y-93829083D01*
X144257015Y-93664147D01*
X144257011Y-93664141D01*
X144129579Y-93522614D01*
X144129577Y-93522612D01*
X143975502Y-93410670D01*
X143975501Y-93410669D01*
X143871465Y-93364350D01*
X143818228Y-93319100D01*
X143797906Y-93252251D01*
X143797900Y-93251070D01*
X143797900Y-90437842D01*
X143798495Y-90429266D01*
X143800001Y-90418464D01*
X143800003Y-90418459D01*
X143798342Y-90382528D01*
X143797966Y-90374400D01*
X143797900Y-90371537D01*
X143797900Y-90353649D01*
X143797900Y-90353647D01*
X143797503Y-90351528D01*
X143796513Y-90342990D01*
X143796021Y-90332348D01*
X143795204Y-90314673D01*
X143793052Y-90309801D01*
X143784600Y-90282504D01*
X143783623Y-90277272D01*
X143768688Y-90253153D01*
X143764691Y-90245569D01*
X143756000Y-90225885D01*
X143746935Y-90156607D01*
X143776763Y-90093424D01*
X143819003Y-90062528D01*
X143876500Y-90036930D01*
X144030579Y-89924986D01*
X144131395Y-89813018D01*
X144158011Y-89783458D01*
X144158014Y-89783454D01*
X144158016Y-89783451D01*
X144247079Y-89629188D01*
X144297643Y-89580976D01*
X144366250Y-89567752D01*
X144431115Y-89593720D01*
X144456764Y-89621114D01*
X144457760Y-89622569D01*
X144457761Y-89622570D01*
X144457762Y-89622571D01*
X144461523Y-89626332D01*
X144479265Y-89648731D01*
X144482072Y-89653263D01*
X144504701Y-89670351D01*
X144511183Y-89675992D01*
X148100544Y-93265354D01*
X148134029Y-93326677D01*
X148129045Y-93396369D01*
X148087173Y-93452302D01*
X148085749Y-93453353D01*
X147990422Y-93522612D01*
X147862988Y-93664141D01*
X147862983Y-93664148D01*
X147767758Y-93829084D01*
X147708907Y-94010210D01*
X147708907Y-94010212D01*
X147693990Y-94152135D01*
X147693990Y-95755865D01*
X147703597Y-95847264D01*
X147708907Y-95897789D01*
X147767758Y-96078915D01*
X147862983Y-96243851D01*
X147862988Y-96243858D01*
X147990420Y-96385385D01*
X147990422Y-96385387D01*
X148144497Y-96497329D01*
X148144498Y-96497330D01*
X148302599Y-96567720D01*
X148355836Y-96612970D01*
X148376158Y-96679819D01*
X148357113Y-96747043D01*
X148304747Y-96793299D01*
X148252164Y-96805000D01*
X147908443Y-96805000D01*
X147899868Y-96804405D01*
X147889060Y-96802897D01*
X147889059Y-96802897D01*
X147880845Y-96803276D01*
X147845001Y-96804934D01*
X147842138Y-96805000D01*
X147824247Y-96805000D01*
X147822120Y-96805397D01*
X147813597Y-96806385D01*
X147785277Y-96807694D01*
X147785270Y-96807696D01*
X147780400Y-96809847D01*
X147753106Y-96818298D01*
X147747873Y-96819276D01*
X147747871Y-96819276D01*
X147723761Y-96834204D01*
X147716161Y-96838210D01*
X147690229Y-96849661D01*
X147690227Y-96849662D01*
X147686463Y-96853427D01*
X147664066Y-96871167D01*
X147659536Y-96873971D01*
X147642445Y-96896602D01*
X147636804Y-96903085D01*
X141995821Y-102544068D01*
X141989341Y-102549707D01*
X141980628Y-102556287D01*
X141950904Y-102588891D01*
X141948930Y-102590958D01*
X141936282Y-102603608D01*
X141936278Y-102603612D01*
X141935054Y-102605399D01*
X141929727Y-102612122D01*
X141912639Y-102630867D01*
X141852929Y-102667149D01*
X141783081Y-102665390D01*
X141725273Y-102626147D01*
X141713614Y-102609330D01*
X141713241Y-102608684D01*
X141713241Y-102608683D01*
X141651294Y-102501387D01*
X141618016Y-102443748D01*
X141618011Y-102443741D01*
X141490579Y-102302214D01*
X141490577Y-102302212D01*
X141336502Y-102190270D01*
X141336501Y-102190269D01*
X141206238Y-102132273D01*
X141162515Y-102112807D01*
X141162513Y-102112806D01*
X140976226Y-102073210D01*
X140785774Y-102073210D01*
X140599485Y-102112806D01*
X140425502Y-102190268D01*
X140271421Y-102302213D01*
X140143988Y-102443741D01*
X140143983Y-102443748D01*
X140048758Y-102608684D01*
X139989907Y-102789810D01*
X139989907Y-102789812D01*
X139974990Y-102931735D01*
X139974990Y-104535465D01*
X139982371Y-104605690D01*
X139989907Y-104677389D01*
X140048730Y-104858430D01*
X140048759Y-104858517D01*
X140049895Y-104860484D01*
X140143983Y-105023451D01*
X140143988Y-105023458D01*
X140271420Y-105164985D01*
X140271422Y-105164987D01*
X140425497Y-105276929D01*
X140425498Y-105276930D01*
X140468019Y-105295861D01*
X140599485Y-105354393D01*
X140611825Y-105357016D01*
X140622617Y-105359310D01*
X140684099Y-105392502D01*
X140717875Y-105453665D01*
X140713223Y-105523380D01*
X140671618Y-105579512D01*
X140606271Y-105604241D01*
X140596836Y-105604600D01*
X140144143Y-105604600D01*
X140135568Y-105604005D01*
X140124760Y-105602497D01*
X140124759Y-105602497D01*
X140118163Y-105602802D01*
X140080701Y-105604534D01*
X140077838Y-105604600D01*
X140059947Y-105604600D01*
X140057820Y-105604997D01*
X140049297Y-105605985D01*
X140020977Y-105607294D01*
X140020970Y-105607296D01*
X140016100Y-105609447D01*
X139988806Y-105617898D01*
X139983573Y-105618876D01*
X139983571Y-105618876D01*
X139959461Y-105633804D01*
X139951861Y-105637810D01*
X139925929Y-105649261D01*
X139925927Y-105649262D01*
X139922163Y-105653027D01*
X139899766Y-105670767D01*
X139895236Y-105673571D01*
X139878145Y-105696202D01*
X139872504Y-105702685D01*
X136856708Y-108718480D01*
X136795385Y-108751965D01*
X136725693Y-108746981D01*
X136669760Y-108705109D01*
X136661643Y-108692805D01*
X136637015Y-108650147D01*
X136637014Y-108650145D01*
X136637011Y-108650141D01*
X136509579Y-108508614D01*
X136509577Y-108508612D01*
X136355502Y-108396670D01*
X136355501Y-108396669D01*
X136219370Y-108336061D01*
X136181515Y-108319207D01*
X136181513Y-108319206D01*
X135995226Y-108279610D01*
X135804774Y-108279610D01*
X135618485Y-108319206D01*
X135444502Y-108396668D01*
X135290421Y-108508613D01*
X135162988Y-108650141D01*
X135162983Y-108650148D01*
X135067758Y-108815084D01*
X135008907Y-108996210D01*
X135004483Y-109038306D01*
X134993990Y-109138135D01*
X134993990Y-110741865D01*
X135003735Y-110834580D01*
X135008907Y-110883789D01*
X135038366Y-110974456D01*
X135067759Y-111064917D01*
X135076946Y-111080829D01*
X135162983Y-111229851D01*
X135162988Y-111229858D01*
X135290420Y-111371385D01*
X135290422Y-111371387D01*
X135444497Y-111483329D01*
X135444498Y-111483330D01*
X135474607Y-111496735D01*
X135618485Y-111560793D01*
X135804774Y-111600390D01*
X135995226Y-111600390D01*
X136151353Y-111567204D01*
X136221019Y-111572520D01*
X136276753Y-111614657D01*
X136300858Y-111680236D01*
X136285681Y-111748438D01*
X136264814Y-111776175D01*
X132200821Y-115840168D01*
X132194341Y-115845807D01*
X132185628Y-115852387D01*
X132155904Y-115884991D01*
X132153930Y-115887058D01*
X132141282Y-115899708D01*
X132141279Y-115899710D01*
X132140055Y-115901498D01*
X132134730Y-115908218D01*
X132123148Y-115920925D01*
X132063439Y-115957210D01*
X131993591Y-115955453D01*
X131935781Y-115916213D01*
X131922148Y-115895846D01*
X131914058Y-115880712D01*
X131914056Y-115880709D01*
X131905331Y-115870078D01*
X131803891Y-115746471D01*
X131790205Y-115729794D01*
X131639290Y-115605943D01*
X131639284Y-115605938D01*
X131467117Y-115513913D01*
X131369202Y-115484211D01*
X131280290Y-115457240D01*
X131280288Y-115457239D01*
X131280290Y-115457239D01*
X131086000Y-115438104D01*
X130891711Y-115457239D01*
X130704882Y-115513913D01*
X130532715Y-115605938D01*
X130532709Y-115605943D01*
X130381794Y-115729794D01*
X130257943Y-115880709D01*
X130257938Y-115880715D01*
X130165913Y-116052882D01*
X130109239Y-116239711D01*
X130090104Y-116434000D01*
X130109239Y-116628288D01*
X130165913Y-116815116D01*
X130173402Y-116829126D01*
X130187645Y-116897528D01*
X130162646Y-116962773D01*
X130151727Y-116975262D01*
X130009752Y-117117238D01*
X129996382Y-117130608D01*
X129935058Y-117164093D01*
X129865367Y-117159109D01*
X129809433Y-117117238D01*
X129785016Y-117051773D01*
X129784700Y-117042927D01*
X129784700Y-115746471D01*
X129804385Y-115679432D01*
X129821019Y-115658790D01*
X131616096Y-113863713D01*
X133515184Y-111964624D01*
X133521666Y-111958984D01*
X133530369Y-111952412D01*
X133530373Y-111952411D01*
X133560115Y-111919784D01*
X133562022Y-111917786D01*
X133574715Y-111905095D01*
X133575927Y-111903324D01*
X133581271Y-111896577D01*
X133600368Y-111875630D01*
X133602290Y-111870667D01*
X133615616Y-111845385D01*
X133618625Y-111840994D01*
X133625118Y-111813383D01*
X133627654Y-111805195D01*
X133637900Y-111778749D01*
X133637900Y-111773426D01*
X133641194Y-111745035D01*
X133641899Y-111742037D01*
X133642412Y-111739857D01*
X133638494Y-111711775D01*
X133637900Y-111703202D01*
X133637900Y-111642929D01*
X133657585Y-111575890D01*
X133710389Y-111530135D01*
X133711418Y-111529669D01*
X133815500Y-111483330D01*
X133969579Y-111371386D01*
X134070116Y-111259728D01*
X134097011Y-111229858D01*
X134097016Y-111229851D01*
X134098319Y-111227594D01*
X134192241Y-111064917D01*
X134251093Y-110883788D01*
X134266010Y-110741865D01*
X134266010Y-109138135D01*
X134251093Y-108996212D01*
X134192241Y-108815083D01*
X134128747Y-108705109D01*
X134097016Y-108650148D01*
X134097011Y-108650141D01*
X133969579Y-108508614D01*
X133969577Y-108508612D01*
X133815502Y-108396670D01*
X133815501Y-108396669D01*
X133679370Y-108336061D01*
X133641515Y-108319207D01*
X133641513Y-108319206D01*
X133455226Y-108279610D01*
X133264774Y-108279610D01*
X133078485Y-108319206D01*
X132904502Y-108396668D01*
X132750421Y-108508613D01*
X132622988Y-108650141D01*
X132622983Y-108650148D01*
X132527758Y-108815084D01*
X132468907Y-108996210D01*
X132464483Y-109038306D01*
X132453990Y-109138135D01*
X132453990Y-110741865D01*
X132463735Y-110834580D01*
X132468907Y-110883789D01*
X132498366Y-110974456D01*
X132527759Y-111064917D01*
X132536946Y-111080829D01*
X132622983Y-111229851D01*
X132622988Y-111229858D01*
X132750420Y-111371385D01*
X132750422Y-111371387D01*
X132904497Y-111483329D01*
X132904498Y-111483329D01*
X132904499Y-111483330D01*
X132951379Y-111504202D01*
X133004616Y-111549451D01*
X133024939Y-111616299D01*
X133005895Y-111683524D01*
X132988626Y-111705163D01*
X129351621Y-115342168D01*
X129345141Y-115347807D01*
X129336428Y-115354387D01*
X129306704Y-115386991D01*
X129304730Y-115389058D01*
X129292082Y-115401708D01*
X129292079Y-115401710D01*
X129290855Y-115403498D01*
X129285529Y-115410219D01*
X129266431Y-115431170D01*
X129264505Y-115436142D01*
X129251191Y-115461402D01*
X129248176Y-115465804D01*
X129248174Y-115465808D01*
X129241682Y-115493406D01*
X129239141Y-115501613D01*
X129228900Y-115528050D01*
X129228900Y-115533372D01*
X129225607Y-115561757D01*
X129224388Y-115566937D01*
X129224388Y-115566943D01*
X129228305Y-115595021D01*
X129228900Y-115603597D01*
X129228900Y-119876354D01*
X129228305Y-119884929D01*
X129226797Y-119895738D01*
X129228834Y-119939806D01*
X129228900Y-119942669D01*
X129228900Y-119960555D01*
X129229295Y-119962671D01*
X129230284Y-119971199D01*
X129231594Y-119999527D01*
X129233744Y-120004395D01*
X129242198Y-120031694D01*
X129243176Y-120036926D01*
X129258104Y-120061035D01*
X129262112Y-120068640D01*
X129273560Y-120094568D01*
X129273561Y-120094569D01*
X129273562Y-120094571D01*
X129277323Y-120098332D01*
X129295065Y-120120731D01*
X129297872Y-120125263D01*
X129320501Y-120142351D01*
X129326983Y-120147992D01*
X130151726Y-120972736D01*
X130185211Y-121034059D01*
X130180227Y-121103751D01*
X130173406Y-121118865D01*
X130165914Y-121132882D01*
X130165913Y-121132884D01*
X130165912Y-121132887D01*
X130147491Y-121193614D01*
X130109239Y-121319713D01*
X130090104Y-121514000D01*
X130109239Y-121708288D01*
X130165913Y-121895117D01*
X130257938Y-122067284D01*
X130257943Y-122067290D01*
X130381794Y-122218205D01*
X130532709Y-122342056D01*
X130532715Y-122342061D01*
X130704882Y-122434086D01*
X130704884Y-122434086D01*
X130704887Y-122434088D01*
X130891710Y-122490760D01*
X130891709Y-122490760D01*
X130909129Y-122492475D01*
X131086000Y-122509896D01*
X131280290Y-122490760D01*
X131467113Y-122434088D01*
X131481126Y-122426598D01*
X131639284Y-122342061D01*
X131639286Y-122342058D01*
X131639290Y-122342057D01*
X131790205Y-122218205D01*
X131914057Y-122067290D01*
X131914058Y-122067286D01*
X131914061Y-122067284D01*
X132006086Y-121895117D01*
X132006086Y-121895116D01*
X132006088Y-121895113D01*
X132062760Y-121708290D01*
X132081896Y-121514000D01*
X132062760Y-121319710D01*
X132006088Y-121132887D01*
X132006086Y-121132884D01*
X132006086Y-121132882D01*
X131914061Y-120960715D01*
X131914056Y-120960709D01*
X131790205Y-120809794D01*
X131639290Y-120685943D01*
X131639284Y-120685938D01*
X131577020Y-120652658D01*
X131527175Y-120603696D01*
X131511715Y-120535558D01*
X131535547Y-120469878D01*
X131591104Y-120427510D01*
X131635473Y-120419300D01*
X133076527Y-120419300D01*
X133143566Y-120438985D01*
X133189321Y-120491789D01*
X133199265Y-120560947D01*
X133170240Y-120624503D01*
X133134980Y-120652658D01*
X133072715Y-120685938D01*
X133072709Y-120685943D01*
X132921794Y-120809794D01*
X132797943Y-120960709D01*
X132797938Y-120960715D01*
X132705913Y-121132882D01*
X132649239Y-121319711D01*
X132630104Y-121514000D01*
X132649239Y-121708288D01*
X132705913Y-121895117D01*
X132797938Y-122067284D01*
X132797943Y-122067290D01*
X132921794Y-122218205D01*
X133072709Y-122342056D01*
X133072715Y-122342061D01*
X133244882Y-122434086D01*
X133244884Y-122434086D01*
X133244887Y-122434088D01*
X133431710Y-122490760D01*
X133431709Y-122490760D01*
X133449129Y-122492475D01*
X133626000Y-122509896D01*
X133820290Y-122490760D01*
X134007113Y-122434088D01*
X134021125Y-122426597D01*
X134089527Y-122412353D01*
X134154772Y-122437351D01*
X134167263Y-122448273D01*
X136290975Y-124571985D01*
X136296612Y-124578464D01*
X136303189Y-124587173D01*
X136335791Y-124616894D01*
X136337852Y-124618862D01*
X136350505Y-124631515D01*
X136350508Y-124631517D01*
X136352283Y-124632733D01*
X136359021Y-124638071D01*
X136368031Y-124646284D01*
X136379970Y-124657168D01*
X136379973Y-124657169D01*
X136384930Y-124659090D01*
X136410211Y-124672414D01*
X136414606Y-124675425D01*
X136442216Y-124681918D01*
X136450403Y-124684454D01*
X136476851Y-124694700D01*
X136482174Y-124694700D01*
X136510563Y-124697993D01*
X136515743Y-124699212D01*
X136543824Y-124695294D01*
X136552398Y-124694700D01*
X168871557Y-124694700D01*
X168880133Y-124695295D01*
X168890936Y-124696801D01*
X168890941Y-124696803D01*
X168930392Y-124694979D01*
X168935006Y-124694766D01*
X168937869Y-124694700D01*
X168955745Y-124694700D01*
X168955753Y-124694700D01*
X168957864Y-124694305D01*
X168966389Y-124693314D01*
X168994727Y-124692005D01*
X168999587Y-124689858D01*
X169026903Y-124681399D01*
X169032128Y-124680423D01*
X169056236Y-124665494D01*
X169063828Y-124661492D01*
X169089771Y-124650038D01*
X169093531Y-124646277D01*
X169115939Y-124628528D01*
X169120463Y-124625728D01*
X169137560Y-124603086D01*
X169143189Y-124596618D01*
X181775184Y-111964624D01*
X181781666Y-111958984D01*
X181790369Y-111952412D01*
X181790373Y-111952411D01*
X181820115Y-111919784D01*
X181822022Y-111917786D01*
X181834715Y-111905095D01*
X181835927Y-111903324D01*
X181841271Y-111896577D01*
X181860368Y-111875630D01*
X181862290Y-111870667D01*
X181875616Y-111845385D01*
X181878625Y-111840994D01*
X181885118Y-111813383D01*
X181887654Y-111805195D01*
X181897900Y-111778749D01*
X181897900Y-111773426D01*
X181901194Y-111745035D01*
X181901899Y-111742037D01*
X181902412Y-111739857D01*
X181898494Y-111711775D01*
X181897900Y-111703202D01*
X181897900Y-111642929D01*
X181917585Y-111575890D01*
X181970389Y-111530135D01*
X181971418Y-111529669D01*
X182075500Y-111483330D01*
X182229579Y-111371386D01*
X182330116Y-111259728D01*
X182357011Y-111229858D01*
X182357016Y-111229851D01*
X182358319Y-111227594D01*
X182452241Y-111064917D01*
X182511093Y-110883788D01*
X182526010Y-110741865D01*
X182526010Y-109138135D01*
X182511093Y-108996212D01*
X182452241Y-108815083D01*
X182388747Y-108705109D01*
X182357016Y-108650148D01*
X182357011Y-108650141D01*
X182229579Y-108508614D01*
X182229577Y-108508612D01*
X182075502Y-108396670D01*
X182075501Y-108396669D01*
X181939370Y-108336061D01*
X181901515Y-108319207D01*
X181901513Y-108319206D01*
X181715226Y-108279610D01*
X181524774Y-108279610D01*
X181338485Y-108319206D01*
X181164502Y-108396668D01*
X181010421Y-108508613D01*
X180882988Y-108650141D01*
X180882983Y-108650148D01*
X180787758Y-108815084D01*
X180728907Y-108996210D01*
X180724483Y-109038306D01*
X180713990Y-109138135D01*
X180713990Y-110741865D01*
X180723735Y-110834580D01*
X180728907Y-110883789D01*
X180758366Y-110974456D01*
X180787759Y-111064917D01*
X180796946Y-111080829D01*
X180882983Y-111229851D01*
X180882988Y-111229858D01*
X181010420Y-111371385D01*
X181010422Y-111371387D01*
X181164497Y-111483329D01*
X181164498Y-111483329D01*
X181164499Y-111483330D01*
X181211379Y-111504202D01*
X181264616Y-111549451D01*
X181284939Y-111616299D01*
X181265895Y-111683524D01*
X181248626Y-111705163D01*
X168851209Y-124102581D01*
X168789886Y-124136066D01*
X168763528Y-124138900D01*
X155268710Y-124138900D01*
X155201671Y-124119215D01*
X155181029Y-124102581D01*
X154265994Y-123187547D01*
X154343150Y-123175327D01*
X154457854Y-123116883D01*
X154548883Y-123025854D01*
X154607327Y-122911150D01*
X154619547Y-122833994D01*
X155368527Y-123582975D01*
X155368529Y-123582975D01*
X155376400Y-123498041D01*
X155376400Y-122069958D01*
X155368528Y-121985023D01*
X155368527Y-121985023D01*
X154619547Y-122734004D01*
X154607327Y-122656850D01*
X154548883Y-122542146D01*
X154457854Y-122451117D01*
X154343150Y-122392673D01*
X154265995Y-122380452D01*
X155176491Y-121469954D01*
X155077218Y-121338492D01*
X154918293Y-121193614D01*
X154918291Y-121193612D01*
X154735454Y-121080404D01*
X154735448Y-121080402D01*
X154534916Y-121002716D01*
X154323525Y-120963200D01*
X154108475Y-120963200D01*
X153897083Y-121002716D01*
X153897082Y-121002716D01*
X153696551Y-121080402D01*
X153696545Y-121080404D01*
X153513708Y-121193612D01*
X153513706Y-121193614D01*
X153354780Y-121338493D01*
X153354778Y-121338496D01*
X153255506Y-121469954D01*
X154166005Y-122380452D01*
X154088850Y-122392673D01*
X153974146Y-122451117D01*
X153883117Y-122542146D01*
X153824673Y-122656850D01*
X153812452Y-122734005D01*
X153063469Y-121985022D01*
X153024090Y-121999241D01*
X152986883Y-122025894D01*
X152917102Y-122029414D01*
X152858720Y-121995924D01*
X152828527Y-121985023D01*
X152079547Y-122734004D01*
X152067327Y-122656850D01*
X152008883Y-122542146D01*
X151917854Y-122451117D01*
X151803150Y-122392673D01*
X151725995Y-122380452D01*
X152636491Y-121469954D01*
X152537218Y-121338492D01*
X152378293Y-121193614D01*
X152378291Y-121193612D01*
X152195454Y-121080404D01*
X152195448Y-121080402D01*
X151994916Y-121002716D01*
X151783525Y-120963200D01*
X151568475Y-120963200D01*
X151357083Y-121002716D01*
X151357082Y-121002716D01*
X151156551Y-121080402D01*
X151156545Y-121080404D01*
X150973708Y-121193612D01*
X150973706Y-121193614D01*
X150814780Y-121338493D01*
X150814778Y-121338496D01*
X150715506Y-121469954D01*
X151626005Y-122380452D01*
X151548850Y-122392673D01*
X151434146Y-122451117D01*
X151343117Y-122542146D01*
X151284673Y-122656850D01*
X151272452Y-122734005D01*
X150523469Y-121985022D01*
X150484090Y-121999241D01*
X150446883Y-122025894D01*
X150377102Y-122029414D01*
X150318720Y-121995924D01*
X150288527Y-121985023D01*
X149539547Y-122734004D01*
X149527327Y-122656850D01*
X149468883Y-122542146D01*
X149377854Y-122451117D01*
X149263150Y-122392673D01*
X149185995Y-122380452D01*
X150096491Y-121469954D01*
X149997218Y-121338492D01*
X149838293Y-121193614D01*
X149838291Y-121193612D01*
X149655454Y-121080404D01*
X149655448Y-121080402D01*
X149454916Y-121002716D01*
X149243525Y-120963200D01*
X149028475Y-120963200D01*
X148817083Y-121002716D01*
X148817082Y-121002716D01*
X148616551Y-121080402D01*
X148616545Y-121080404D01*
X148433708Y-121193612D01*
X148433706Y-121193614D01*
X148274780Y-121338493D01*
X148274778Y-121338496D01*
X148175506Y-121469954D01*
X149086005Y-122380452D01*
X149008850Y-122392673D01*
X148894146Y-122451117D01*
X148803117Y-122542146D01*
X148744673Y-122656850D01*
X148732452Y-122734005D01*
X147983470Y-121985023D01*
X147975600Y-122069958D01*
X147975600Y-123498042D01*
X147983469Y-123582975D01*
X148732452Y-122833994D01*
X148744673Y-122911150D01*
X148803117Y-123025854D01*
X148894146Y-123116883D01*
X149008850Y-123175327D01*
X149086005Y-123187547D01*
X148170971Y-124102581D01*
X148109648Y-124136066D01*
X148083290Y-124138900D01*
X136695272Y-124138900D01*
X136628233Y-124119215D01*
X136607591Y-124102581D01*
X134560273Y-122055263D01*
X134526788Y-121993940D01*
X134531772Y-121924248D01*
X134538598Y-121909125D01*
X134546088Y-121895113D01*
X134602760Y-121708290D01*
X134621896Y-121514000D01*
X134602760Y-121319710D01*
X134546088Y-121132887D01*
X134546086Y-121132884D01*
X134546086Y-121132882D01*
X134454061Y-120960715D01*
X134454056Y-120960709D01*
X134330205Y-120809794D01*
X134179290Y-120685943D01*
X134179284Y-120685938D01*
X134117020Y-120652658D01*
X134067175Y-120603696D01*
X134051715Y-120535558D01*
X134075547Y-120469878D01*
X134131104Y-120427510D01*
X134175473Y-120419300D01*
X150780257Y-120419300D01*
X150788833Y-120419895D01*
X150799636Y-120421401D01*
X150799641Y-120421403D01*
X150839092Y-120419579D01*
X150843706Y-120419366D01*
X150846569Y-120419300D01*
X150864445Y-120419300D01*
X150864453Y-120419300D01*
X150866564Y-120418905D01*
X150875089Y-120417914D01*
X150903427Y-120416605D01*
X150908287Y-120414458D01*
X150935603Y-120405999D01*
X150940828Y-120405023D01*
X150964936Y-120390094D01*
X150972528Y-120386092D01*
X150998471Y-120374638D01*
X151002231Y-120370877D01*
X151024639Y-120353128D01*
X151029163Y-120350328D01*
X151046260Y-120327686D01*
X151051882Y-120321225D01*
X154371184Y-117001924D01*
X154377666Y-116996284D01*
X154386369Y-116989712D01*
X154386373Y-116989711D01*
X154416115Y-116957084D01*
X154418022Y-116955086D01*
X154430715Y-116942395D01*
X154431932Y-116940617D01*
X154437271Y-116933877D01*
X154456368Y-116912930D01*
X154458290Y-116907966D01*
X154471617Y-116882685D01*
X154474625Y-116878295D01*
X154481117Y-116850685D01*
X154483655Y-116842490D01*
X154493900Y-116816049D01*
X154493900Y-116810725D01*
X154497194Y-116782334D01*
X154498412Y-116777157D01*
X154494495Y-116749077D01*
X154493900Y-116740502D01*
X154493900Y-116676793D01*
X154513585Y-116609754D01*
X154565013Y-116565190D01*
X154564834Y-116564817D01*
X154566209Y-116564154D01*
X154566389Y-116563999D01*
X154567254Y-116563651D01*
X154571104Y-116561797D01*
X154571107Y-116561794D01*
X154571110Y-116561794D01*
X154726293Y-116464287D01*
X154855887Y-116334693D01*
X154953394Y-116179510D01*
X155013926Y-116006521D01*
X155029300Y-115870072D01*
X155029300Y-114457928D01*
X155013926Y-114321479D01*
X154953394Y-114148490D01*
X154855887Y-113993307D01*
X154726293Y-113863713D01*
X154571110Y-113766206D01*
X154571109Y-113766205D01*
X154571108Y-113766205D01*
X154571106Y-113766204D01*
X154398115Y-113705672D01*
X154216004Y-113685154D01*
X154215996Y-113685154D01*
X154033884Y-113705672D01*
X153860893Y-113766204D01*
X153860891Y-113766205D01*
X153705706Y-113863713D01*
X153576113Y-113993306D01*
X153478605Y-114148491D01*
X153478604Y-114148493D01*
X153418072Y-114321484D01*
X153402700Y-114457921D01*
X153402700Y-115870078D01*
X153418072Y-116006515D01*
X153478604Y-116179506D01*
X153478605Y-116179508D01*
X153478606Y-116179510D01*
X153576113Y-116334693D01*
X153705709Y-116464289D01*
X153830196Y-116542508D01*
X153876488Y-116594842D01*
X153887137Y-116663896D01*
X153858762Y-116727744D01*
X153851906Y-116735183D01*
X150759909Y-119827181D01*
X150698586Y-119860666D01*
X150672228Y-119863500D01*
X134440314Y-119863500D01*
X134373275Y-119843815D01*
X134327520Y-119791011D01*
X134317576Y-119721853D01*
X134344460Y-119660836D01*
X134390159Y-119605149D01*
X134454057Y-119527290D01*
X134454058Y-119527286D01*
X134454061Y-119527284D01*
X134512046Y-119418800D01*
X134546088Y-119355113D01*
X134550702Y-119339904D01*
X134589000Y-119281465D01*
X134652812Y-119253009D01*
X134669362Y-119251900D01*
X141796657Y-119251900D01*
X141805233Y-119252495D01*
X141816036Y-119254001D01*
X141816041Y-119254003D01*
X141855492Y-119252179D01*
X141860106Y-119251966D01*
X141862969Y-119251900D01*
X141880845Y-119251900D01*
X141880853Y-119251900D01*
X141882964Y-119251505D01*
X141891489Y-119250514D01*
X141919827Y-119249205D01*
X141924687Y-119247058D01*
X141952003Y-119238599D01*
X141957228Y-119237623D01*
X141981336Y-119222694D01*
X141988928Y-119218692D01*
X142014871Y-119207238D01*
X142018631Y-119203477D01*
X142041039Y-119185728D01*
X142045563Y-119182928D01*
X142062660Y-119160286D01*
X142068289Y-119153818D01*
X145352029Y-115870078D01*
X148322700Y-115870078D01*
X148338072Y-116006515D01*
X148398604Y-116179506D01*
X148398605Y-116179508D01*
X148398606Y-116179510D01*
X148496113Y-116334693D01*
X148625707Y-116464287D01*
X148780890Y-116561794D01*
X148953879Y-116622326D01*
X148953882Y-116622326D01*
X148953884Y-116622327D01*
X149135996Y-116642846D01*
X149136000Y-116642846D01*
X149136004Y-116642846D01*
X149318115Y-116622327D01*
X149318116Y-116622326D01*
X149318121Y-116622326D01*
X149491110Y-116561794D01*
X149646293Y-116464287D01*
X149775887Y-116334693D01*
X149873394Y-116179510D01*
X149933926Y-116006521D01*
X149949299Y-115870078D01*
X150862700Y-115870078D01*
X150878072Y-116006515D01*
X150938604Y-116179506D01*
X150938605Y-116179508D01*
X150938606Y-116179510D01*
X151036113Y-116334693D01*
X151165707Y-116464287D01*
X151320890Y-116561794D01*
X151493879Y-116622326D01*
X151493882Y-116622326D01*
X151493884Y-116622327D01*
X151675996Y-116642846D01*
X151676000Y-116642846D01*
X151676004Y-116642846D01*
X151858115Y-116622327D01*
X151858116Y-116622326D01*
X151858121Y-116622326D01*
X152031110Y-116561794D01*
X152186293Y-116464287D01*
X152315887Y-116334693D01*
X152413394Y-116179510D01*
X152473926Y-116006521D01*
X152489300Y-115870072D01*
X152489300Y-114457928D01*
X152473926Y-114321479D01*
X152413394Y-114148490D01*
X152315887Y-113993307D01*
X152186293Y-113863713D01*
X152031110Y-113766206D01*
X152031109Y-113766205D01*
X152031108Y-113766205D01*
X152031106Y-113766204D01*
X151858115Y-113705672D01*
X151676004Y-113685154D01*
X151675996Y-113685154D01*
X151493884Y-113705672D01*
X151320893Y-113766204D01*
X151320891Y-113766205D01*
X151165706Y-113863713D01*
X151036113Y-113993306D01*
X150938605Y-114148491D01*
X150938604Y-114148493D01*
X150878072Y-114321484D01*
X150862700Y-114457921D01*
X150862700Y-115870078D01*
X149949299Y-115870078D01*
X149949300Y-115870072D01*
X149949300Y-114457928D01*
X149933926Y-114321479D01*
X149873394Y-114148490D01*
X149775887Y-113993307D01*
X149646293Y-113863713D01*
X149491110Y-113766206D01*
X149491109Y-113766205D01*
X149491108Y-113766205D01*
X149491106Y-113766204D01*
X149318115Y-113705672D01*
X149136004Y-113685154D01*
X149135996Y-113685154D01*
X148953884Y-113705672D01*
X148780893Y-113766204D01*
X148780891Y-113766205D01*
X148625706Y-113863713D01*
X148496113Y-113993306D01*
X148398605Y-114148491D01*
X148398604Y-114148493D01*
X148338072Y-114321484D01*
X148322700Y-114457921D01*
X148322700Y-115870078D01*
X145352029Y-115870078D01*
X150025184Y-111196924D01*
X150031666Y-111191284D01*
X150040369Y-111184712D01*
X150040373Y-111184711D01*
X150070115Y-111152084D01*
X150072022Y-111150086D01*
X150084715Y-111137395D01*
X150085927Y-111135624D01*
X150091271Y-111128877D01*
X150110366Y-111107932D01*
X150110365Y-111107932D01*
X150110368Y-111107930D01*
X150110369Y-111107926D01*
X150116216Y-111098484D01*
X150168244Y-111051847D01*
X150237225Y-111040743D01*
X150301260Y-111068695D01*
X150329031Y-111101761D01*
X150402980Y-111229847D01*
X150402988Y-111229858D01*
X150530420Y-111371385D01*
X150530422Y-111371387D01*
X150684497Y-111483329D01*
X150684498Y-111483330D01*
X150714607Y-111496735D01*
X150858485Y-111560793D01*
X151044774Y-111600390D01*
X151235226Y-111600390D01*
X151421515Y-111560793D01*
X151595500Y-111483330D01*
X151749579Y-111371386D01*
X151850116Y-111259728D01*
X151877011Y-111229858D01*
X151877016Y-111229851D01*
X151878319Y-111227594D01*
X151972241Y-111064917D01*
X152031093Y-110883788D01*
X152046010Y-110741865D01*
X152773990Y-110741865D01*
X152783735Y-110834580D01*
X152788907Y-110883789D01*
X152818366Y-110974456D01*
X152847759Y-111064917D01*
X152856946Y-111080829D01*
X152942983Y-111229851D01*
X152942988Y-111229858D01*
X153070420Y-111371385D01*
X153070422Y-111371387D01*
X153224497Y-111483329D01*
X153224498Y-111483330D01*
X153254607Y-111496735D01*
X153398485Y-111560793D01*
X153584774Y-111600390D01*
X153775226Y-111600390D01*
X153961515Y-111560793D01*
X154135500Y-111483330D01*
X154289579Y-111371386D01*
X154390116Y-111259728D01*
X154417011Y-111229858D01*
X154417016Y-111229851D01*
X154418319Y-111227594D01*
X154512241Y-111064917D01*
X154571093Y-110883788D01*
X154586010Y-110741865D01*
X154586010Y-109138135D01*
X154571093Y-108996212D01*
X154512241Y-108815083D01*
X154448747Y-108705109D01*
X154417016Y-108650148D01*
X154417011Y-108650141D01*
X154289579Y-108508614D01*
X154289577Y-108508612D01*
X154135502Y-108396670D01*
X154135501Y-108396669D01*
X153999370Y-108336061D01*
X153961515Y-108319207D01*
X153961513Y-108319206D01*
X153775226Y-108279610D01*
X153584774Y-108279610D01*
X153398485Y-108319206D01*
X153224502Y-108396668D01*
X153070421Y-108508613D01*
X152942988Y-108650141D01*
X152942983Y-108650148D01*
X152847758Y-108815084D01*
X152788907Y-108996210D01*
X152784483Y-109038306D01*
X152773990Y-109138135D01*
X152773990Y-110741865D01*
X152046010Y-110741865D01*
X152046010Y-109138135D01*
X152031093Y-108996212D01*
X151972241Y-108815083D01*
X151908747Y-108705109D01*
X151877016Y-108650148D01*
X151877011Y-108650141D01*
X151749579Y-108508614D01*
X151749577Y-108508612D01*
X151595502Y-108396670D01*
X151595501Y-108396669D01*
X151459370Y-108336061D01*
X151421515Y-108319207D01*
X151421513Y-108319206D01*
X151421512Y-108319206D01*
X151242601Y-108281177D01*
X151181119Y-108247984D01*
X151147343Y-108186821D01*
X151151995Y-108117107D01*
X151180698Y-108072209D01*
X153418291Y-105834619D01*
X153479614Y-105801134D01*
X153505972Y-105798300D01*
X156064935Y-105798300D01*
X156083468Y-105800884D01*
X156083472Y-105800848D01*
X156094913Y-105801908D01*
X156094913Y-105801907D01*
X156094914Y-105801908D01*
X156103267Y-105801134D01*
X156130996Y-105798565D01*
X156136719Y-105798300D01*
X156146750Y-105798300D01*
X156146753Y-105798300D01*
X156156633Y-105796452D01*
X156162266Y-105795666D01*
X156198368Y-105792322D01*
X156198370Y-105792320D01*
X156209424Y-105789177D01*
X156209434Y-105789214D01*
X156212425Y-105788211D01*
X156212411Y-105788175D01*
X156223122Y-105784024D01*
X156223128Y-105784023D01*
X156253942Y-105764942D01*
X156258932Y-105762163D01*
X156291373Y-105746011D01*
X156291374Y-105746010D01*
X156300543Y-105739086D01*
X156300566Y-105739117D01*
X156302997Y-105737098D01*
X156302971Y-105737069D01*
X156311459Y-105729330D01*
X156311463Y-105729328D01*
X156326877Y-105708916D01*
X156333296Y-105700416D01*
X156336950Y-105696013D01*
X156361368Y-105669230D01*
X156361369Y-105669227D01*
X156367417Y-105659459D01*
X156367451Y-105659480D01*
X156368988Y-105656720D01*
X156368953Y-105656703D01*
X156374074Y-105646418D01*
X156376191Y-105638980D01*
X156383992Y-105611559D01*
X156385812Y-105606131D01*
X156388661Y-105598777D01*
X156398900Y-105572349D01*
X156398900Y-105572347D01*
X156398901Y-105572345D01*
X156401012Y-105561054D01*
X156401049Y-105561060D01*
X156401485Y-105557934D01*
X156401448Y-105557931D01*
X156402508Y-105546487D01*
X156399165Y-105510403D01*
X156398900Y-105504680D01*
X156398900Y-105436529D01*
X156418585Y-105369490D01*
X156471389Y-105323735D01*
X156472418Y-105323269D01*
X156576500Y-105276930D01*
X156730579Y-105164986D01*
X156847142Y-105035529D01*
X156858011Y-105023458D01*
X156858016Y-105023451D01*
X156879043Y-104987031D01*
X156953241Y-104858517D01*
X157012093Y-104677388D01*
X157027010Y-104535465D01*
X157754990Y-104535465D01*
X157762371Y-104605690D01*
X157769907Y-104677389D01*
X157828730Y-104858430D01*
X157828759Y-104858517D01*
X157829895Y-104860484D01*
X157923983Y-105023451D01*
X157923988Y-105023458D01*
X158051420Y-105164985D01*
X158051422Y-105164987D01*
X158205497Y-105276929D01*
X158205498Y-105276930D01*
X158248019Y-105295861D01*
X158379485Y-105354393D01*
X158565774Y-105393990D01*
X158756226Y-105393990D01*
X158942515Y-105354393D01*
X159116500Y-105276930D01*
X159270579Y-105164986D01*
X159387142Y-105035529D01*
X159398011Y-105023458D01*
X159398016Y-105023451D01*
X159419043Y-104987031D01*
X159493241Y-104858517D01*
X159552093Y-104677388D01*
X159567010Y-104535465D01*
X159567010Y-102931735D01*
X159552093Y-102789812D01*
X159493241Y-102608683D01*
X159431294Y-102501387D01*
X159398016Y-102443748D01*
X159398011Y-102443741D01*
X159270579Y-102302214D01*
X159270577Y-102302212D01*
X159116502Y-102190270D01*
X159116501Y-102190269D01*
X158986238Y-102132273D01*
X158942515Y-102112807D01*
X158942513Y-102112806D01*
X158756226Y-102073210D01*
X158565774Y-102073210D01*
X158379485Y-102112806D01*
X158205502Y-102190268D01*
X158051421Y-102302213D01*
X157923988Y-102443741D01*
X157923983Y-102443748D01*
X157828758Y-102608684D01*
X157769907Y-102789810D01*
X157769907Y-102789812D01*
X157754990Y-102931735D01*
X157754990Y-104535465D01*
X157027010Y-104535465D01*
X157027010Y-102931735D01*
X157012093Y-102789812D01*
X156953241Y-102608683D01*
X156891294Y-102501387D01*
X156858016Y-102443748D01*
X156858011Y-102443741D01*
X156730579Y-102302214D01*
X156730577Y-102302212D01*
X156576502Y-102190270D01*
X156576501Y-102190269D01*
X156446238Y-102132273D01*
X156402515Y-102112807D01*
X156402513Y-102112806D01*
X156216226Y-102073210D01*
X156025774Y-102073210D01*
X155839485Y-102112806D01*
X155665502Y-102190268D01*
X155511421Y-102302213D01*
X155383988Y-102443741D01*
X155383983Y-102443748D01*
X155288758Y-102608684D01*
X155229907Y-102789810D01*
X155229907Y-102789812D01*
X155214990Y-102931735D01*
X155214990Y-104535465D01*
X155222371Y-104605690D01*
X155229907Y-104677389D01*
X155288730Y-104858430D01*
X155288759Y-104858517D01*
X155289895Y-104860484D01*
X155383983Y-105023451D01*
X155383988Y-105023458D01*
X155394857Y-105035529D01*
X155425086Y-105098521D01*
X155416460Y-105167856D01*
X155371718Y-105221521D01*
X155305065Y-105242478D01*
X155302706Y-105242500D01*
X154765631Y-105242500D01*
X154698592Y-105222815D01*
X154652837Y-105170011D01*
X154648483Y-105154636D01*
X153712746Y-104218899D01*
X153723061Y-104217417D01*
X153853614Y-104157795D01*
X153962081Y-104063808D01*
X154039675Y-103943070D01*
X154063359Y-103862407D01*
X154829132Y-104628180D01*
X154829134Y-104628180D01*
X154834110Y-104600764D01*
X154834110Y-102922947D01*
X154826768Y-102841383D01*
X154063359Y-103604792D01*
X154039675Y-103524130D01*
X153962081Y-103403392D01*
X153853614Y-103309405D01*
X153723061Y-103249783D01*
X153712746Y-103248300D01*
X154646797Y-102314248D01*
X154646797Y-102314246D01*
X154528497Y-102151420D01*
X154528498Y-102151420D01*
X154365457Y-101995537D01*
X154177208Y-101871275D01*
X153969804Y-101782627D01*
X153969787Y-101782621D01*
X153749889Y-101732432D01*
X153524555Y-101722312D01*
X153524554Y-101722312D01*
X153317770Y-101750322D01*
X153248695Y-101739814D01*
X153196267Y-101693630D01*
X153177130Y-101626432D01*
X153197361Y-101559555D01*
X153213440Y-101539768D01*
X157645184Y-97108024D01*
X157651666Y-97102384D01*
X157660369Y-97095812D01*
X157660373Y-97095811D01*
X157690115Y-97063184D01*
X157692022Y-97061186D01*
X157704715Y-97048495D01*
X157705932Y-97046717D01*
X157711271Y-97039977D01*
X157730368Y-97019030D01*
X157732290Y-97014066D01*
X157745617Y-96988785D01*
X157748625Y-96984395D01*
X157755117Y-96956785D01*
X157757655Y-96948590D01*
X157767900Y-96922149D01*
X157767900Y-96916825D01*
X157771194Y-96888434D01*
X157772412Y-96883257D01*
X157768495Y-96855177D01*
X157767900Y-96846602D01*
X157767900Y-96783648D01*
X157787585Y-96716609D01*
X157840389Y-96670854D01*
X157909547Y-96660910D01*
X157970908Y-96688932D01*
X157971184Y-96688587D01*
X157972568Y-96689690D01*
X157973103Y-96689935D01*
X157974714Y-96691402D01*
X157975539Y-96692059D01*
X158163791Y-96816324D01*
X158371195Y-96904972D01*
X158371212Y-96904978D01*
X158591110Y-96955167D01*
X158816443Y-96965287D01*
X159039973Y-96935008D01*
X159254495Y-96865306D01*
X159453122Y-96758420D01*
X159453125Y-96758418D01*
X159629475Y-96617784D01*
X159777885Y-96447916D01*
X159823692Y-96371245D01*
X158891746Y-95439299D01*
X158902061Y-95437817D01*
X159032614Y-95378195D01*
X159141081Y-95284208D01*
X159218675Y-95163470D01*
X159242359Y-95082807D01*
X160008132Y-95848580D01*
X160008134Y-95848580D01*
X160013110Y-95821164D01*
X160013110Y-94143347D01*
X160005768Y-94061783D01*
X159242359Y-94825192D01*
X159218675Y-94744530D01*
X159141081Y-94623792D01*
X159032614Y-94529805D01*
X158902061Y-94470183D01*
X158891746Y-94468700D01*
X159825797Y-93534648D01*
X159825797Y-93534646D01*
X159707497Y-93371820D01*
X159707498Y-93371820D01*
X159544457Y-93215937D01*
X159356208Y-93091675D01*
X159148804Y-93003027D01*
X159148790Y-93003022D01*
X159141669Y-93001397D01*
X159080691Y-92967287D01*
X159047834Y-92905625D01*
X159053530Y-92835988D01*
X159081578Y-92792830D01*
X161356184Y-90518224D01*
X161362666Y-90512584D01*
X161371369Y-90506012D01*
X161371373Y-90506011D01*
X161401115Y-90473384D01*
X161403022Y-90471386D01*
X161415715Y-90458695D01*
X161416927Y-90456924D01*
X161422271Y-90450177D01*
X161441368Y-90429230D01*
X161443290Y-90424267D01*
X161456616Y-90398985D01*
X161459625Y-90394594D01*
X161466118Y-90366983D01*
X161468654Y-90358795D01*
X161478900Y-90332349D01*
X161478900Y-90327025D01*
X161482194Y-90298634D01*
X161483412Y-90293456D01*
X161479494Y-90265374D01*
X161478900Y-90256801D01*
X161478900Y-90196529D01*
X161498585Y-90129490D01*
X161551389Y-90083735D01*
X161552418Y-90083269D01*
X161656500Y-90036930D01*
X161810579Y-89924986D01*
X161838450Y-89894032D01*
X161897936Y-89857383D01*
X161967793Y-89858713D01*
X162025842Y-89897600D01*
X162053652Y-89961697D01*
X162054600Y-89977004D01*
X162054600Y-93384614D01*
X162034915Y-93451653D01*
X161982111Y-93497408D01*
X161912953Y-93507352D01*
X161857715Y-93484932D01*
X161755502Y-93410670D01*
X161755501Y-93410669D01*
X161625238Y-93352673D01*
X161581515Y-93333207D01*
X161581513Y-93333206D01*
X161395226Y-93293610D01*
X161204774Y-93293610D01*
X161018485Y-93333206D01*
X160844502Y-93410668D01*
X160690421Y-93522613D01*
X160562988Y-93664141D01*
X160562983Y-93664148D01*
X160467758Y-93829084D01*
X160408907Y-94010210D01*
X160408907Y-94010212D01*
X160393990Y-94152135D01*
X160393990Y-95755865D01*
X160403597Y-95847264D01*
X160408907Y-95897789D01*
X160467758Y-96078915D01*
X160562983Y-96243851D01*
X160562988Y-96243858D01*
X160690420Y-96385385D01*
X160690422Y-96385387D01*
X160844497Y-96497329D01*
X160844498Y-96497330D01*
X160880146Y-96513201D01*
X161018485Y-96574793D01*
X161204774Y-96614390D01*
X161395226Y-96614390D01*
X161581515Y-96574793D01*
X161755500Y-96497330D01*
X161857715Y-96423066D01*
X161923522Y-96399588D01*
X161991576Y-96415414D01*
X162040270Y-96465520D01*
X162054600Y-96523386D01*
X162054600Y-102250195D01*
X162034915Y-102317234D01*
X161982111Y-102362989D01*
X161912953Y-102372933D01*
X161849397Y-102343908D01*
X161838451Y-102333168D01*
X161810580Y-102302215D01*
X161810577Y-102302212D01*
X161656502Y-102190270D01*
X161656501Y-102190269D01*
X161526238Y-102132273D01*
X161482515Y-102112807D01*
X161482513Y-102112806D01*
X161296226Y-102073210D01*
X161105774Y-102073210D01*
X160919485Y-102112806D01*
X160745502Y-102190268D01*
X160591421Y-102302213D01*
X160463988Y-102443741D01*
X160463983Y-102443748D01*
X160368758Y-102608684D01*
X160309907Y-102789810D01*
X160309907Y-102789812D01*
X160294990Y-102931735D01*
X160294990Y-104535465D01*
X160302371Y-104605690D01*
X160309907Y-104677389D01*
X160368730Y-104858430D01*
X160368759Y-104858517D01*
X160369895Y-104860484D01*
X160463983Y-105023451D01*
X160463988Y-105023458D01*
X160591420Y-105164985D01*
X160591422Y-105164987D01*
X160745497Y-105276929D01*
X160745498Y-105276929D01*
X160745499Y-105276930D01*
X160792379Y-105297802D01*
X160845616Y-105343051D01*
X160865939Y-105409899D01*
X160846895Y-105477124D01*
X160829626Y-105498763D01*
X158489409Y-107838981D01*
X158428086Y-107872466D01*
X158401728Y-107875300D01*
X156276065Y-107875300D01*
X156257531Y-107872715D01*
X156257528Y-107872752D01*
X156246086Y-107871691D01*
X156210004Y-107875035D01*
X156204281Y-107875300D01*
X156194241Y-107875300D01*
X156184384Y-107877143D01*
X156178714Y-107877934D01*
X156142631Y-107881278D01*
X156131584Y-107884421D01*
X156131574Y-107884388D01*
X156128569Y-107885395D01*
X156128582Y-107885428D01*
X156117870Y-107889577D01*
X156087069Y-107908648D01*
X156082066Y-107911435D01*
X156049628Y-107927587D01*
X156040462Y-107934510D01*
X156040440Y-107934481D01*
X156038002Y-107936506D01*
X156038026Y-107936533D01*
X156029534Y-107944274D01*
X156007706Y-107973179D01*
X156004048Y-107977584D01*
X155979633Y-108004367D01*
X155973586Y-108014135D01*
X155973555Y-108014116D01*
X155972014Y-108016882D01*
X155972047Y-108016899D01*
X155966924Y-108027185D01*
X155957005Y-108062042D01*
X155955186Y-108067470D01*
X155942099Y-108101251D01*
X155939989Y-108112544D01*
X155939951Y-108112537D01*
X155939515Y-108115668D01*
X155939552Y-108115672D01*
X155938491Y-108127113D01*
X155941835Y-108163195D01*
X155942100Y-108168918D01*
X155942100Y-108237070D01*
X155922415Y-108304109D01*
X155869611Y-108349864D01*
X155868536Y-108350350D01*
X155764500Y-108396669D01*
X155610421Y-108508613D01*
X155482988Y-108650141D01*
X155482983Y-108650148D01*
X155387758Y-108815084D01*
X155328907Y-108996210D01*
X155324483Y-109038306D01*
X155313990Y-109138135D01*
X155313990Y-110741865D01*
X155323735Y-110834580D01*
X155328907Y-110883789D01*
X155358366Y-110974456D01*
X155387759Y-111064917D01*
X155396946Y-111080829D01*
X155482983Y-111229851D01*
X155482988Y-111229858D01*
X155610420Y-111371385D01*
X155610422Y-111371387D01*
X155764497Y-111483329D01*
X155764498Y-111483330D01*
X155794607Y-111496735D01*
X155938485Y-111560793D01*
X156124774Y-111600390D01*
X156315226Y-111600390D01*
X156501515Y-111560793D01*
X156675500Y-111483330D01*
X156829579Y-111371386D01*
X156930116Y-111259728D01*
X156957011Y-111229858D01*
X156957016Y-111229851D01*
X156958319Y-111227594D01*
X157052241Y-111064917D01*
X157111093Y-110883788D01*
X157126010Y-110741865D01*
X157126010Y-109138135D01*
X157111093Y-108996212D01*
X157052241Y-108815083D01*
X156988747Y-108705109D01*
X156957016Y-108650148D01*
X156957011Y-108650141D01*
X156946143Y-108638071D01*
X156915914Y-108575079D01*
X156924540Y-108505744D01*
X156969282Y-108452079D01*
X157035935Y-108431122D01*
X157038294Y-108431100D01*
X157575369Y-108431100D01*
X157642408Y-108450785D01*
X157688163Y-108503589D01*
X157692515Y-108518962D01*
X158628253Y-109454700D01*
X158617939Y-109456183D01*
X158487386Y-109515805D01*
X158378919Y-109609792D01*
X158301325Y-109730530D01*
X158277640Y-109811192D01*
X157511864Y-109045417D01*
X157506890Y-109072835D01*
X157506890Y-110750656D01*
X157514230Y-110832216D01*
X158277640Y-110068806D01*
X158301325Y-110149470D01*
X158378919Y-110270208D01*
X158487386Y-110364195D01*
X158617939Y-110423817D01*
X158628252Y-110425299D01*
X157694201Y-111359350D01*
X157694201Y-111359352D01*
X157812499Y-111522176D01*
X157812500Y-111522178D01*
X157975542Y-111678062D01*
X158163791Y-111802324D01*
X158371195Y-111890972D01*
X158371212Y-111890978D01*
X158591110Y-111941167D01*
X158816443Y-111951287D01*
X159039973Y-111921008D01*
X159254495Y-111851306D01*
X159453122Y-111744420D01*
X159453125Y-111744418D01*
X159629475Y-111603784D01*
X159777885Y-111433916D01*
X159823692Y-111357245D01*
X158891746Y-110425299D01*
X158902061Y-110423817D01*
X159032614Y-110364195D01*
X159141081Y-110270208D01*
X159218675Y-110149470D01*
X159242359Y-110068807D01*
X160008132Y-110834580D01*
X160008134Y-110834580D01*
X160013110Y-110807164D01*
X160013110Y-109129347D01*
X160005768Y-109047783D01*
X159242359Y-109811192D01*
X159218675Y-109730530D01*
X159141081Y-109609792D01*
X159032614Y-109515805D01*
X158902061Y-109456183D01*
X158891747Y-109454700D01*
X159825797Y-108520648D01*
X159825797Y-108520646D01*
X159707497Y-108357820D01*
X159707498Y-108357820D01*
X159544457Y-108201937D01*
X159356208Y-108077675D01*
X159300983Y-108054071D01*
X159247075Y-108009623D01*
X159225755Y-107943085D01*
X159243793Y-107875584D01*
X159262028Y-107852379D01*
X161356184Y-105758224D01*
X161362666Y-105752584D01*
X161371369Y-105746012D01*
X161371373Y-105746011D01*
X161401115Y-105713384D01*
X161403022Y-105711386D01*
X161415715Y-105698695D01*
X161416932Y-105696917D01*
X161422271Y-105690177D01*
X161441368Y-105669230D01*
X161443290Y-105664266D01*
X161456617Y-105638985D01*
X161459625Y-105634595D01*
X161466117Y-105606985D01*
X161468655Y-105598790D01*
X161478900Y-105572349D01*
X161478900Y-105567025D01*
X161482194Y-105538634D01*
X161482899Y-105535637D01*
X161483412Y-105533457D01*
X161479495Y-105505377D01*
X161478900Y-105496802D01*
X161478900Y-105436529D01*
X161498585Y-105369490D01*
X161551389Y-105323735D01*
X161552418Y-105323269D01*
X161656500Y-105276930D01*
X161810579Y-105164986D01*
X161838450Y-105134032D01*
X161897936Y-105097383D01*
X161967793Y-105098713D01*
X162025842Y-105137600D01*
X162053652Y-105201697D01*
X162054600Y-105217004D01*
X162054600Y-106954227D01*
X162034915Y-107021266D01*
X162018281Y-107041908D01*
X161144821Y-107915368D01*
X161138341Y-107921007D01*
X161129628Y-107927587D01*
X161099904Y-107960191D01*
X161097930Y-107962258D01*
X161085282Y-107974908D01*
X161085279Y-107974910D01*
X161084055Y-107976698D01*
X161078729Y-107983419D01*
X161059631Y-108004370D01*
X161057705Y-108009342D01*
X161044391Y-108034602D01*
X161041376Y-108039004D01*
X161041374Y-108039008D01*
X161034882Y-108066606D01*
X161032341Y-108074813D01*
X161022100Y-108101250D01*
X161022100Y-108106572D01*
X161018807Y-108134957D01*
X161017588Y-108140137D01*
X161017588Y-108140143D01*
X161021505Y-108168221D01*
X161022100Y-108176797D01*
X161022100Y-108237070D01*
X161002415Y-108304109D01*
X160949611Y-108349864D01*
X160948536Y-108350350D01*
X160844500Y-108396669D01*
X160690421Y-108508613D01*
X160562988Y-108650141D01*
X160562983Y-108650148D01*
X160467758Y-108815084D01*
X160408907Y-108996210D01*
X160404483Y-109038306D01*
X160393990Y-109138135D01*
X160393990Y-110741865D01*
X160403735Y-110834580D01*
X160408907Y-110883789D01*
X160438366Y-110974456D01*
X160467759Y-111064917D01*
X160476946Y-111080829D01*
X160562983Y-111229851D01*
X160562988Y-111229858D01*
X160690420Y-111371385D01*
X160690422Y-111371387D01*
X160844497Y-111483329D01*
X160844498Y-111483330D01*
X160874607Y-111496735D01*
X161018485Y-111560793D01*
X161204774Y-111600390D01*
X161395226Y-111600390D01*
X161581515Y-111560793D01*
X161755500Y-111483330D01*
X161909579Y-111371386D01*
X162010116Y-111259728D01*
X162037011Y-111229858D01*
X162037016Y-111229851D01*
X162038319Y-111227594D01*
X162132241Y-111064917D01*
X162191093Y-110883788D01*
X162206010Y-110741865D01*
X162206010Y-109138135D01*
X162191093Y-108996212D01*
X162132241Y-108815083D01*
X162068747Y-108705109D01*
X162037016Y-108650148D01*
X162037011Y-108650141D01*
X161909579Y-108508614D01*
X161909577Y-108508612D01*
X161755502Y-108396670D01*
X161755496Y-108396667D01*
X161708618Y-108375795D01*
X161655381Y-108330545D01*
X161635060Y-108263696D01*
X161654106Y-108196472D01*
X161671369Y-108174839D01*
X162313019Y-107533190D01*
X162374342Y-107499705D01*
X162444034Y-107504689D01*
X162499967Y-107546561D01*
X162524384Y-107612025D01*
X162524700Y-107620871D01*
X162524700Y-111099154D01*
X162524105Y-111107729D01*
X162522597Y-111118538D01*
X162524634Y-111162606D01*
X162524700Y-111165469D01*
X162524700Y-111183355D01*
X162525095Y-111185471D01*
X162526084Y-111193999D01*
X162527394Y-111222327D01*
X162529544Y-111227195D01*
X162537998Y-111254494D01*
X162538976Y-111259726D01*
X162538976Y-111259727D01*
X162538977Y-111259728D01*
X162541956Y-111264540D01*
X162553904Y-111283835D01*
X162557912Y-111291440D01*
X162569360Y-111317368D01*
X162569361Y-111317369D01*
X162569362Y-111317371D01*
X162573123Y-111321132D01*
X162590865Y-111343531D01*
X162593672Y-111348063D01*
X162616301Y-111365151D01*
X162622782Y-111370791D01*
X163553975Y-112301985D01*
X163559612Y-112308464D01*
X163566189Y-112317173D01*
X163598791Y-112346894D01*
X163600852Y-112348862D01*
X163613505Y-112361515D01*
X163613508Y-112361517D01*
X163615283Y-112362733D01*
X163622021Y-112368071D01*
X163635149Y-112380038D01*
X163642970Y-112387168D01*
X163642973Y-112387169D01*
X163647930Y-112389090D01*
X163673211Y-112402414D01*
X163677606Y-112405425D01*
X163705216Y-112411918D01*
X163713403Y-112414454D01*
X163739851Y-112424700D01*
X163745174Y-112424700D01*
X163773563Y-112427993D01*
X163778743Y-112429212D01*
X163806824Y-112425294D01*
X163815398Y-112424700D01*
X176061557Y-112424700D01*
X176070133Y-112425295D01*
X176080936Y-112426801D01*
X176080941Y-112426803D01*
X176120392Y-112424979D01*
X176125006Y-112424766D01*
X176127869Y-112424700D01*
X176145745Y-112424700D01*
X176145753Y-112424700D01*
X176147864Y-112424305D01*
X176156389Y-112423314D01*
X176184727Y-112422005D01*
X176189587Y-112419858D01*
X176216903Y-112411399D01*
X176222128Y-112410423D01*
X176246236Y-112395494D01*
X176253828Y-112391492D01*
X176279771Y-112380038D01*
X176283532Y-112376276D01*
X176305931Y-112358533D01*
X176310463Y-112355728D01*
X176327556Y-112333091D01*
X176333179Y-112326628D01*
X176695189Y-111964619D01*
X176701662Y-111958988D01*
X176710369Y-111952412D01*
X176710373Y-111952411D01*
X176740104Y-111919795D01*
X176742033Y-111917774D01*
X176754715Y-111905095D01*
X176755933Y-111903316D01*
X176761260Y-111896589D01*
X176780368Y-111875630D01*
X176782290Y-111870667D01*
X176795616Y-111845385D01*
X176798625Y-111840994D01*
X176805118Y-111813383D01*
X176807654Y-111805195D01*
X176817900Y-111778749D01*
X176817900Y-111773426D01*
X176821194Y-111745035D01*
X176821899Y-111742037D01*
X176822412Y-111739857D01*
X176818494Y-111711775D01*
X176817900Y-111703202D01*
X176817900Y-111642929D01*
X176837585Y-111575890D01*
X176890389Y-111530135D01*
X176891418Y-111529669D01*
X176995500Y-111483330D01*
X177149579Y-111371386D01*
X177250116Y-111259728D01*
X177277011Y-111229858D01*
X177277016Y-111229851D01*
X177278319Y-111227594D01*
X177372241Y-111064917D01*
X177431093Y-110883788D01*
X177446010Y-110741865D01*
X178173990Y-110741865D01*
X178183735Y-110834580D01*
X178188907Y-110883789D01*
X178218366Y-110974456D01*
X178247759Y-111064917D01*
X178256946Y-111080829D01*
X178342983Y-111229851D01*
X178342988Y-111229858D01*
X178470420Y-111371385D01*
X178470422Y-111371387D01*
X178624497Y-111483329D01*
X178624498Y-111483330D01*
X178654607Y-111496735D01*
X178798485Y-111560793D01*
X178984774Y-111600390D01*
X179175226Y-111600390D01*
X179361515Y-111560793D01*
X179535500Y-111483330D01*
X179689579Y-111371386D01*
X179790116Y-111259728D01*
X179817011Y-111229858D01*
X179817016Y-111229851D01*
X179818319Y-111227594D01*
X179912241Y-111064917D01*
X179971093Y-110883788D01*
X179986010Y-110741865D01*
X179986010Y-109138135D01*
X179971093Y-108996212D01*
X179912241Y-108815083D01*
X179848747Y-108705109D01*
X179817016Y-108650148D01*
X179817011Y-108650141D01*
X179689579Y-108508614D01*
X179689577Y-108508612D01*
X179535502Y-108396670D01*
X179535501Y-108396669D01*
X179399370Y-108336061D01*
X179361515Y-108319207D01*
X179361513Y-108319206D01*
X179175226Y-108279610D01*
X178984774Y-108279610D01*
X178798485Y-108319206D01*
X178624502Y-108396668D01*
X178470421Y-108508613D01*
X178342988Y-108650141D01*
X178342983Y-108650148D01*
X178247758Y-108815084D01*
X178188907Y-108996210D01*
X178184483Y-109038306D01*
X178173990Y-109138135D01*
X178173990Y-110741865D01*
X177446010Y-110741865D01*
X177446010Y-109138135D01*
X177431093Y-108996212D01*
X177372241Y-108815083D01*
X177308747Y-108705109D01*
X177277016Y-108650148D01*
X177277011Y-108650141D01*
X177149579Y-108508614D01*
X177149577Y-108508612D01*
X176995502Y-108396670D01*
X176995501Y-108396669D01*
X176859370Y-108336061D01*
X176821515Y-108319207D01*
X176821513Y-108319206D01*
X176635226Y-108279610D01*
X176444774Y-108279610D01*
X176258485Y-108319206D01*
X176084502Y-108396668D01*
X175930421Y-108508613D01*
X175802988Y-108650141D01*
X175802983Y-108650148D01*
X175707758Y-108815084D01*
X175648907Y-108996210D01*
X175644483Y-109038306D01*
X175633990Y-109138135D01*
X175633990Y-110741865D01*
X175643735Y-110834580D01*
X175648907Y-110883789D01*
X175678366Y-110974456D01*
X175707759Y-111064917D01*
X175716946Y-111080829D01*
X175802983Y-111229851D01*
X175802988Y-111229858D01*
X175930420Y-111371385D01*
X175930422Y-111371387D01*
X176084497Y-111483329D01*
X176084498Y-111483329D01*
X176084499Y-111483330D01*
X176131379Y-111504202D01*
X176184616Y-111549451D01*
X176204939Y-111616299D01*
X176185895Y-111683524D01*
X176168627Y-111705163D01*
X176041207Y-111832582D01*
X175979887Y-111866066D01*
X175953528Y-111868900D01*
X174405299Y-111868900D01*
X174338260Y-111849215D01*
X174292505Y-111796411D01*
X174281828Y-111756340D01*
X174278165Y-111716803D01*
X174277900Y-111711080D01*
X174277900Y-111642929D01*
X174297585Y-111575890D01*
X174350389Y-111530135D01*
X174351418Y-111529669D01*
X174455500Y-111483330D01*
X174609579Y-111371386D01*
X174710116Y-111259728D01*
X174737011Y-111229858D01*
X174737016Y-111229851D01*
X174738319Y-111227594D01*
X174832241Y-111064917D01*
X174891093Y-110883788D01*
X174906010Y-110741865D01*
X174906010Y-109138135D01*
X174891093Y-108996212D01*
X174832241Y-108815083D01*
X174768747Y-108705109D01*
X174737016Y-108650148D01*
X174737011Y-108650141D01*
X174609579Y-108508614D01*
X174609577Y-108508612D01*
X174455502Y-108396670D01*
X174455501Y-108396669D01*
X174319370Y-108336061D01*
X174281515Y-108319207D01*
X174281513Y-108319206D01*
X174095226Y-108279610D01*
X173904774Y-108279610D01*
X173718485Y-108319206D01*
X173544502Y-108396668D01*
X173390421Y-108508613D01*
X173262988Y-108650141D01*
X173262983Y-108650148D01*
X173167758Y-108815084D01*
X173108907Y-108996210D01*
X173104483Y-109038306D01*
X173093990Y-109138135D01*
X173093990Y-110741865D01*
X173103735Y-110834580D01*
X173108907Y-110883789D01*
X173138366Y-110974456D01*
X173167759Y-111064917D01*
X173176946Y-111080829D01*
X173262983Y-111229851D01*
X173262988Y-111229858D01*
X173273857Y-111241929D01*
X173304086Y-111304921D01*
X173295460Y-111374256D01*
X173250718Y-111427921D01*
X173184065Y-111448878D01*
X173181706Y-111448900D01*
X172278294Y-111448900D01*
X172211255Y-111429215D01*
X172165500Y-111376411D01*
X172155556Y-111307253D01*
X172184581Y-111243697D01*
X172186143Y-111241929D01*
X172197011Y-111229858D01*
X172197016Y-111229851D01*
X172198319Y-111227594D01*
X172292241Y-111064917D01*
X172351093Y-110883788D01*
X172366010Y-110741865D01*
X172366010Y-109138135D01*
X172351093Y-108996212D01*
X172292241Y-108815083D01*
X172228747Y-108705109D01*
X172197016Y-108650148D01*
X172197011Y-108650141D01*
X172069579Y-108508614D01*
X172069577Y-108508612D01*
X171915502Y-108396670D01*
X171915501Y-108396669D01*
X171811465Y-108350350D01*
X171758228Y-108305100D01*
X171737906Y-108238251D01*
X171737900Y-108237070D01*
X171737900Y-108127871D01*
X171757585Y-108060832D01*
X171774219Y-108040190D01*
X172900032Y-106914377D01*
X174056184Y-105758224D01*
X174062666Y-105752584D01*
X174071369Y-105746012D01*
X174071373Y-105746011D01*
X174101115Y-105713384D01*
X174103022Y-105711386D01*
X174115715Y-105698695D01*
X174116927Y-105696924D01*
X174122271Y-105690177D01*
X174141368Y-105669230D01*
X174143290Y-105664267D01*
X174156616Y-105638985D01*
X174159625Y-105634594D01*
X174166118Y-105606983D01*
X174168654Y-105598795D01*
X174178900Y-105572349D01*
X174178900Y-105567025D01*
X174182194Y-105538635D01*
X174182899Y-105535637D01*
X174183412Y-105533457D01*
X174179494Y-105505375D01*
X174178900Y-105496802D01*
X174178900Y-105436529D01*
X174198585Y-105369490D01*
X174251389Y-105323735D01*
X174252418Y-105323269D01*
X174356500Y-105276930D01*
X174510579Y-105164986D01*
X174627142Y-105035529D01*
X174638011Y-105023458D01*
X174638016Y-105023451D01*
X174659043Y-104987031D01*
X174733241Y-104858517D01*
X174792093Y-104677388D01*
X174807010Y-104535465D01*
X175534990Y-104535465D01*
X175542371Y-104605690D01*
X175549907Y-104677389D01*
X175608730Y-104858430D01*
X175608759Y-104858517D01*
X175609895Y-104860484D01*
X175703983Y-105023451D01*
X175703988Y-105023458D01*
X175831420Y-105164985D01*
X175831422Y-105164987D01*
X175985497Y-105276929D01*
X175985498Y-105276930D01*
X176028019Y-105295861D01*
X176159485Y-105354393D01*
X176345774Y-105393990D01*
X176536226Y-105393990D01*
X176722515Y-105354393D01*
X176896500Y-105276930D01*
X177050579Y-105164986D01*
X177167142Y-105035529D01*
X177178011Y-105023458D01*
X177178016Y-105023451D01*
X177199043Y-104987031D01*
X177273241Y-104858517D01*
X177332093Y-104677388D01*
X177347010Y-104535465D01*
X177347010Y-102931735D01*
X177332093Y-102789812D01*
X177273241Y-102608683D01*
X177211294Y-102501387D01*
X177178016Y-102443748D01*
X177178011Y-102443741D01*
X177050579Y-102302214D01*
X177050577Y-102302212D01*
X176896502Y-102190270D01*
X176896501Y-102190269D01*
X176766238Y-102132273D01*
X176722515Y-102112807D01*
X176722513Y-102112806D01*
X176536226Y-102073210D01*
X176345774Y-102073210D01*
X176159485Y-102112806D01*
X175985502Y-102190268D01*
X175831421Y-102302213D01*
X175703988Y-102443741D01*
X175703983Y-102443748D01*
X175608758Y-102608684D01*
X175549907Y-102789810D01*
X175549907Y-102789812D01*
X175534990Y-102931735D01*
X175534990Y-104535465D01*
X174807010Y-104535465D01*
X174807010Y-102931735D01*
X174792093Y-102789812D01*
X174733241Y-102608683D01*
X174671294Y-102501387D01*
X174638016Y-102443748D01*
X174638011Y-102443741D01*
X174510579Y-102302214D01*
X174510577Y-102302212D01*
X174356502Y-102190270D01*
X174356501Y-102190269D01*
X174226238Y-102132273D01*
X174182515Y-102112807D01*
X174182513Y-102112806D01*
X173996226Y-102073210D01*
X173805774Y-102073210D01*
X173619485Y-102112806D01*
X173445502Y-102190268D01*
X173291421Y-102302213D01*
X173163988Y-102443741D01*
X173163983Y-102443748D01*
X173068758Y-102608684D01*
X173009907Y-102789810D01*
X173009907Y-102789812D01*
X172994990Y-102931735D01*
X172994990Y-104535465D01*
X173002371Y-104605690D01*
X173009907Y-104677389D01*
X173068730Y-104858430D01*
X173068759Y-104858517D01*
X173069895Y-104860484D01*
X173163983Y-105023451D01*
X173163988Y-105023458D01*
X173291420Y-105164985D01*
X173291422Y-105164987D01*
X173445497Y-105276929D01*
X173445498Y-105276929D01*
X173445499Y-105276930D01*
X173492379Y-105297802D01*
X173545616Y-105343051D01*
X173565939Y-105409899D01*
X173546895Y-105477124D01*
X173529626Y-105498763D01*
X171304821Y-107723568D01*
X171298341Y-107729207D01*
X171289628Y-107735787D01*
X171259904Y-107768391D01*
X171257930Y-107770458D01*
X171245282Y-107783108D01*
X171245279Y-107783110D01*
X171244055Y-107784898D01*
X171238729Y-107791619D01*
X171219631Y-107812570D01*
X171217705Y-107817542D01*
X171204391Y-107842802D01*
X171201376Y-107847204D01*
X171201374Y-107847208D01*
X171194882Y-107874806D01*
X171192341Y-107883013D01*
X171182100Y-107909450D01*
X171182100Y-107914772D01*
X171178807Y-107943157D01*
X171177588Y-107948337D01*
X171177588Y-107948343D01*
X171181372Y-107975472D01*
X171181505Y-107976421D01*
X171182100Y-107984997D01*
X171182100Y-108237070D01*
X171162415Y-108304109D01*
X171109611Y-108349864D01*
X171108536Y-108350350D01*
X171004500Y-108396669D01*
X170850421Y-108508613D01*
X170722988Y-108650141D01*
X170722983Y-108650148D01*
X170627758Y-108815084D01*
X170568907Y-108996210D01*
X170564483Y-109038306D01*
X170553990Y-109138135D01*
X170553990Y-110741865D01*
X170563735Y-110834580D01*
X170568907Y-110883789D01*
X170598366Y-110974456D01*
X170627759Y-111064917D01*
X170636946Y-111080829D01*
X170722983Y-111229851D01*
X170722988Y-111229858D01*
X170733857Y-111241929D01*
X170764086Y-111304921D01*
X170755460Y-111374256D01*
X170710718Y-111427921D01*
X170644065Y-111448878D01*
X170641706Y-111448900D01*
X169738294Y-111448900D01*
X169671255Y-111429215D01*
X169625500Y-111376411D01*
X169615556Y-111307253D01*
X169644581Y-111243697D01*
X169646143Y-111241929D01*
X169657011Y-111229858D01*
X169657016Y-111229851D01*
X169658319Y-111227594D01*
X169752241Y-111064917D01*
X169811093Y-110883788D01*
X169826010Y-110741865D01*
X169826010Y-109138135D01*
X169811093Y-108996212D01*
X169752241Y-108815083D01*
X169688747Y-108705109D01*
X169657016Y-108650148D01*
X169657011Y-108650141D01*
X169529579Y-108508614D01*
X169529577Y-108508612D01*
X169375502Y-108396670D01*
X169375496Y-108396667D01*
X169328618Y-108375795D01*
X169275381Y-108330545D01*
X169255060Y-108263696D01*
X169274106Y-108196472D01*
X169291369Y-108174839D01*
X170107584Y-107358624D01*
X170114066Y-107352984D01*
X170122769Y-107346412D01*
X170122773Y-107346411D01*
X170152515Y-107313784D01*
X170154422Y-107311786D01*
X170167115Y-107299095D01*
X170168327Y-107297324D01*
X170173671Y-107290577D01*
X170181556Y-107281928D01*
X170192768Y-107269630D01*
X170194690Y-107264667D01*
X170208016Y-107239385D01*
X170211025Y-107234994D01*
X170217518Y-107207383D01*
X170220054Y-107199195D01*
X170230300Y-107172749D01*
X170230300Y-107167426D01*
X170233594Y-107139035D01*
X170234812Y-107133857D01*
X170230894Y-107105775D01*
X170230300Y-107097202D01*
X170230300Y-104722857D01*
X170249985Y-104655818D01*
X170302789Y-104610063D01*
X170371947Y-104600119D01*
X170435503Y-104629144D01*
X170472229Y-104684537D01*
X170501594Y-104774911D01*
X170528730Y-104858430D01*
X170528759Y-104858517D01*
X170529895Y-104860484D01*
X170623983Y-105023451D01*
X170623988Y-105023458D01*
X170751420Y-105164985D01*
X170751422Y-105164987D01*
X170905497Y-105276929D01*
X170905498Y-105276930D01*
X170948019Y-105295861D01*
X171079485Y-105354393D01*
X171265774Y-105393990D01*
X171456226Y-105393990D01*
X171642515Y-105354393D01*
X171816500Y-105276930D01*
X171970579Y-105164986D01*
X172087142Y-105035529D01*
X172098011Y-105023458D01*
X172098016Y-105023451D01*
X172119043Y-104987031D01*
X172193241Y-104858517D01*
X172252093Y-104677388D01*
X172267010Y-104535465D01*
X172267010Y-102931735D01*
X172252093Y-102789812D01*
X172193241Y-102608683D01*
X172131294Y-102501387D01*
X172098016Y-102443748D01*
X172098011Y-102443741D01*
X171970579Y-102302214D01*
X171970577Y-102302212D01*
X171816502Y-102190270D01*
X171816501Y-102190269D01*
X171686238Y-102132273D01*
X171642515Y-102112807D01*
X171642513Y-102112806D01*
X171456226Y-102073210D01*
X171265774Y-102073210D01*
X171079485Y-102112806D01*
X170905502Y-102190268D01*
X170751421Y-102302213D01*
X170623988Y-102443741D01*
X170623983Y-102443748D01*
X170528758Y-102608684D01*
X170499252Y-102699497D01*
X170475255Y-102773354D01*
X170472231Y-102782660D01*
X170432794Y-102840335D01*
X170368435Y-102867534D01*
X170299589Y-102855620D01*
X170248113Y-102808376D01*
X170230300Y-102744342D01*
X170230300Y-94395470D01*
X170249985Y-94328431D01*
X170266615Y-94307793D01*
X170342310Y-94232098D01*
X170403632Y-94198614D01*
X170473324Y-94203598D01*
X170529257Y-94245470D01*
X170553674Y-94310934D01*
X170553990Y-94319780D01*
X170553990Y-95755865D01*
X170563597Y-95847264D01*
X170568907Y-95897789D01*
X170627758Y-96078915D01*
X170722983Y-96243851D01*
X170722988Y-96243858D01*
X170850420Y-96385385D01*
X170850422Y-96385387D01*
X171004497Y-96497329D01*
X171004498Y-96497330D01*
X171040146Y-96513201D01*
X171178485Y-96574793D01*
X171364774Y-96614390D01*
X171555226Y-96614390D01*
X171741515Y-96574793D01*
X171915500Y-96497330D01*
X172069579Y-96385386D01*
X172184550Y-96257697D01*
X172197011Y-96243858D01*
X172197016Y-96243852D01*
X172292241Y-96078917D01*
X172351093Y-95897788D01*
X172366010Y-95755865D01*
X173093990Y-95755865D01*
X173103597Y-95847264D01*
X173108907Y-95897789D01*
X173167758Y-96078915D01*
X173262983Y-96243851D01*
X173262988Y-96243858D01*
X173390420Y-96385385D01*
X173390422Y-96385387D01*
X173544497Y-96497329D01*
X173544498Y-96497330D01*
X173580146Y-96513201D01*
X173718485Y-96574793D01*
X173904774Y-96614390D01*
X174095226Y-96614390D01*
X174281515Y-96574793D01*
X174455500Y-96497330D01*
X174609579Y-96385386D01*
X174724550Y-96257697D01*
X174737011Y-96243858D01*
X174737016Y-96243852D01*
X174832241Y-96078917D01*
X174891093Y-95897788D01*
X174906010Y-95755865D01*
X175633990Y-95755865D01*
X175643597Y-95847264D01*
X175648907Y-95897789D01*
X175707758Y-96078915D01*
X175802983Y-96243851D01*
X175802988Y-96243858D01*
X175930420Y-96385385D01*
X175930422Y-96385387D01*
X176084497Y-96497329D01*
X176084498Y-96497330D01*
X176120146Y-96513201D01*
X176258485Y-96574793D01*
X176444774Y-96614390D01*
X176635226Y-96614390D01*
X176821515Y-96574793D01*
X176995500Y-96497330D01*
X177149579Y-96385386D01*
X177264550Y-96257697D01*
X177277011Y-96243858D01*
X177277016Y-96243852D01*
X177372241Y-96078917D01*
X177431093Y-95897788D01*
X177446010Y-95755865D01*
X178173990Y-95755865D01*
X178183597Y-95847264D01*
X178188907Y-95897789D01*
X178247758Y-96078915D01*
X178342983Y-96243851D01*
X178342988Y-96243858D01*
X178470420Y-96385385D01*
X178470422Y-96385387D01*
X178624497Y-96497329D01*
X178624498Y-96497330D01*
X178660146Y-96513201D01*
X178798485Y-96574793D01*
X178984774Y-96614390D01*
X179175226Y-96614390D01*
X179361515Y-96574793D01*
X179535500Y-96497330D01*
X179689579Y-96385386D01*
X179804550Y-96257697D01*
X179817011Y-96243858D01*
X179817016Y-96243852D01*
X179912241Y-96078917D01*
X179971093Y-95897788D01*
X179986010Y-95755865D01*
X180713990Y-95755865D01*
X180723597Y-95847264D01*
X180728907Y-95897789D01*
X180787758Y-96078915D01*
X180882983Y-96243851D01*
X180882988Y-96243858D01*
X181010420Y-96385385D01*
X181010422Y-96385387D01*
X181164497Y-96497329D01*
X181164498Y-96497330D01*
X181200146Y-96513201D01*
X181338485Y-96574793D01*
X181524774Y-96614390D01*
X181715226Y-96614390D01*
X181901515Y-96574793D01*
X182075500Y-96497330D01*
X182229579Y-96385386D01*
X182344550Y-96257697D01*
X182357011Y-96243858D01*
X182357016Y-96243852D01*
X182452241Y-96078917D01*
X182511093Y-95897788D01*
X182526010Y-95755865D01*
X182526010Y-94152135D01*
X182511093Y-94010212D01*
X182452241Y-93829083D01*
X182357015Y-93664147D01*
X182357011Y-93664141D01*
X182229579Y-93522614D01*
X182229577Y-93522612D01*
X182075502Y-93410670D01*
X182075501Y-93410669D01*
X181945238Y-93352673D01*
X181901515Y-93333207D01*
X181901513Y-93333206D01*
X181715226Y-93293610D01*
X181524774Y-93293610D01*
X181338485Y-93333206D01*
X181164502Y-93410668D01*
X181010421Y-93522613D01*
X180882988Y-93664141D01*
X180882983Y-93664148D01*
X180787758Y-93829084D01*
X180728907Y-94010210D01*
X180728907Y-94010212D01*
X180713990Y-94152135D01*
X180713990Y-95755865D01*
X179986010Y-95755865D01*
X179986010Y-94152135D01*
X179971093Y-94010212D01*
X179912241Y-93829083D01*
X179817015Y-93664147D01*
X179817011Y-93664141D01*
X179689579Y-93522614D01*
X179689577Y-93522612D01*
X179535502Y-93410670D01*
X179535501Y-93410669D01*
X179405238Y-93352673D01*
X179361515Y-93333207D01*
X179361513Y-93333206D01*
X179175226Y-93293610D01*
X178984774Y-93293610D01*
X178798485Y-93333206D01*
X178624502Y-93410668D01*
X178470421Y-93522613D01*
X178342988Y-93664141D01*
X178342983Y-93664148D01*
X178247758Y-93829084D01*
X178188907Y-94010210D01*
X178188907Y-94010212D01*
X178173990Y-94152135D01*
X178173990Y-95755865D01*
X177446010Y-95755865D01*
X177446010Y-94152135D01*
X177431093Y-94010212D01*
X177372241Y-93829083D01*
X177277015Y-93664147D01*
X177277011Y-93664141D01*
X177149579Y-93522614D01*
X177149577Y-93522612D01*
X176995502Y-93410670D01*
X176995501Y-93410669D01*
X176865238Y-93352673D01*
X176821515Y-93333207D01*
X176821513Y-93333206D01*
X176635226Y-93293610D01*
X176444774Y-93293610D01*
X176258485Y-93333206D01*
X176084502Y-93410668D01*
X175930421Y-93522613D01*
X175802988Y-93664141D01*
X175802983Y-93664148D01*
X175707758Y-93829084D01*
X175648907Y-94010210D01*
X175648907Y-94010212D01*
X175633990Y-94152135D01*
X175633990Y-95755865D01*
X174906010Y-95755865D01*
X174906010Y-94152135D01*
X174891093Y-94010212D01*
X174832241Y-93829083D01*
X174737015Y-93664147D01*
X174737011Y-93664141D01*
X174609579Y-93522614D01*
X174609577Y-93522612D01*
X174455502Y-93410670D01*
X174455501Y-93410669D01*
X174325238Y-93352673D01*
X174281515Y-93333207D01*
X174281513Y-93333206D01*
X174095226Y-93293610D01*
X173904774Y-93293610D01*
X173718485Y-93333206D01*
X173544502Y-93410668D01*
X173390421Y-93522613D01*
X173262988Y-93664141D01*
X173262983Y-93664148D01*
X173167758Y-93829084D01*
X173108907Y-94010210D01*
X173108907Y-94010212D01*
X173093990Y-94152135D01*
X173093990Y-95755865D01*
X172366010Y-95755865D01*
X172366010Y-94152135D01*
X172351093Y-94010212D01*
X172292241Y-93829083D01*
X172197015Y-93664147D01*
X172197011Y-93664141D01*
X172069579Y-93522614D01*
X172069577Y-93522612D01*
X171915502Y-93410670D01*
X171915501Y-93410669D01*
X171785238Y-93352673D01*
X171741515Y-93333207D01*
X171741513Y-93333206D01*
X171741512Y-93333206D01*
X171552292Y-93292986D01*
X171490810Y-93259794D01*
X171457034Y-93198630D01*
X171461686Y-93128916D01*
X171490390Y-93084018D01*
X174056184Y-90518224D01*
X174062666Y-90512584D01*
X174071369Y-90506012D01*
X174071373Y-90506011D01*
X174101115Y-90473384D01*
X174103022Y-90471386D01*
X174115715Y-90458695D01*
X174116927Y-90456924D01*
X174122271Y-90450177D01*
X174141368Y-90429230D01*
X174143290Y-90424267D01*
X174156616Y-90398985D01*
X174159625Y-90394594D01*
X174166118Y-90366983D01*
X174168654Y-90358795D01*
X174178900Y-90332349D01*
X174178900Y-90327025D01*
X174182194Y-90298634D01*
X174183412Y-90293456D01*
X174179494Y-90265374D01*
X174178900Y-90256801D01*
X174178900Y-90196529D01*
X174198585Y-90129490D01*
X174251389Y-90083735D01*
X174252418Y-90083269D01*
X174356500Y-90036930D01*
X174510579Y-89924986D01*
X174611395Y-89813018D01*
X174638011Y-89783458D01*
X174638016Y-89783451D01*
X174646457Y-89768831D01*
X174733241Y-89618517D01*
X174792093Y-89437388D01*
X174807010Y-89295465D01*
X174807010Y-87691735D01*
X174792093Y-87549812D01*
X174733241Y-87368683D01*
X174666721Y-87253467D01*
X174638016Y-87203748D01*
X174638011Y-87203741D01*
X174510579Y-87062214D01*
X174510577Y-87062212D01*
X174356502Y-86950270D01*
X174356501Y-86950269D01*
X174214568Y-86887078D01*
X174182515Y-86872807D01*
X174182513Y-86872806D01*
X173996226Y-86833210D01*
X173805774Y-86833210D01*
X173619485Y-86872806D01*
X173445502Y-86950268D01*
X173291421Y-87062213D01*
X173163988Y-87203741D01*
X173163983Y-87203748D01*
X173068758Y-87368684D01*
X173009907Y-87549810D01*
X173009907Y-87549812D01*
X172994990Y-87691735D01*
X172994990Y-89295465D01*
X173004735Y-89388180D01*
X173009907Y-89437389D01*
X173064359Y-89604977D01*
X173068759Y-89618517D01*
X173071100Y-89622571D01*
X173163983Y-89783451D01*
X173163988Y-89783458D01*
X173291420Y-89924985D01*
X173291422Y-89924987D01*
X173445497Y-90036929D01*
X173445498Y-90036929D01*
X173445499Y-90036930D01*
X173492379Y-90057802D01*
X173545616Y-90103051D01*
X173565939Y-90169899D01*
X173546895Y-90237124D01*
X173529626Y-90258763D01*
X169942300Y-93846088D01*
X169880977Y-93879573D01*
X169811285Y-93874589D01*
X169755352Y-93832717D01*
X169747232Y-93820407D01*
X169657016Y-93664148D01*
X169657011Y-93664141D01*
X169529579Y-93522614D01*
X169529577Y-93522612D01*
X169375502Y-93410670D01*
X169375501Y-93410669D01*
X169245238Y-93352673D01*
X169201515Y-93333207D01*
X169201513Y-93333206D01*
X169015226Y-93293610D01*
X168824774Y-93293610D01*
X168638485Y-93333206D01*
X168464502Y-93410668D01*
X168310420Y-93522614D01*
X168282649Y-93553457D01*
X168223162Y-93590105D01*
X168153305Y-93588774D01*
X168095257Y-93549887D01*
X168067448Y-93485790D01*
X168066500Y-93470484D01*
X168066500Y-91479271D01*
X168086185Y-91412232D01*
X168102819Y-91391590D01*
X168419441Y-91074968D01*
X168976184Y-90518224D01*
X168982666Y-90512584D01*
X168991369Y-90506012D01*
X168991373Y-90506011D01*
X169021115Y-90473384D01*
X169023022Y-90471386D01*
X169035715Y-90458695D01*
X169036927Y-90456924D01*
X169042271Y-90450177D01*
X169061368Y-90429230D01*
X169063290Y-90424267D01*
X169076616Y-90398985D01*
X169079625Y-90394594D01*
X169086118Y-90366983D01*
X169088654Y-90358795D01*
X169098900Y-90332349D01*
X169098900Y-90327025D01*
X169102194Y-90298635D01*
X169102662Y-90296646D01*
X169103412Y-90293457D01*
X169099494Y-90265375D01*
X169098900Y-90256802D01*
X169098900Y-90196529D01*
X169118585Y-90129490D01*
X169171389Y-90083735D01*
X169172418Y-90083269D01*
X169276500Y-90036930D01*
X169430579Y-89924986D01*
X169531395Y-89813018D01*
X169558011Y-89783458D01*
X169558016Y-89783451D01*
X169566457Y-89768831D01*
X169653241Y-89618517D01*
X169712093Y-89437388D01*
X169727010Y-89295465D01*
X170454990Y-89295465D01*
X170464735Y-89388180D01*
X170469907Y-89437389D01*
X170524359Y-89604977D01*
X170528759Y-89618517D01*
X170531100Y-89622571D01*
X170623983Y-89783451D01*
X170623988Y-89783458D01*
X170751420Y-89924985D01*
X170751422Y-89924987D01*
X170905497Y-90036929D01*
X170905498Y-90036930D01*
X170939192Y-90051931D01*
X171079485Y-90114393D01*
X171265774Y-90153990D01*
X171456226Y-90153990D01*
X171642515Y-90114393D01*
X171816500Y-90036930D01*
X171970579Y-89924986D01*
X172071395Y-89813018D01*
X172098011Y-89783458D01*
X172098016Y-89783451D01*
X172106457Y-89768831D01*
X172193241Y-89618517D01*
X172252093Y-89437388D01*
X172267010Y-89295465D01*
X172267010Y-87691735D01*
X172252093Y-87549812D01*
X172193241Y-87368683D01*
X172126721Y-87253467D01*
X172098016Y-87203748D01*
X172098011Y-87203741D01*
X171970579Y-87062214D01*
X171970577Y-87062212D01*
X171816502Y-86950270D01*
X171816501Y-86950269D01*
X171674568Y-86887078D01*
X171642515Y-86872807D01*
X171642513Y-86872806D01*
X171456226Y-86833210D01*
X171265774Y-86833210D01*
X171079485Y-86872806D01*
X170905502Y-86950268D01*
X170751421Y-87062213D01*
X170623988Y-87203741D01*
X170623983Y-87203748D01*
X170528758Y-87368684D01*
X170469907Y-87549810D01*
X170469907Y-87549812D01*
X170454990Y-87691735D01*
X170454990Y-89295465D01*
X169727010Y-89295465D01*
X169727010Y-87691735D01*
X169712093Y-87549812D01*
X169653241Y-87368683D01*
X169586721Y-87253467D01*
X169558016Y-87203748D01*
X169558011Y-87203741D01*
X169430579Y-87062214D01*
X169430577Y-87062212D01*
X169276502Y-86950270D01*
X169276501Y-86950269D01*
X169134568Y-86887078D01*
X169102515Y-86872807D01*
X169102513Y-86872806D01*
X168916226Y-86833210D01*
X168725774Y-86833210D01*
X168539485Y-86872806D01*
X168365502Y-86950268D01*
X168211421Y-87062213D01*
X168083988Y-87203741D01*
X168083983Y-87203748D01*
X167988758Y-87368684D01*
X167929907Y-87549810D01*
X167929907Y-87549812D01*
X167914990Y-87691735D01*
X167914990Y-89295465D01*
X167924735Y-89388180D01*
X167929907Y-89437389D01*
X167984359Y-89604977D01*
X167988759Y-89618517D01*
X167991100Y-89622571D01*
X168083983Y-89783451D01*
X168083988Y-89783458D01*
X168211420Y-89924985D01*
X168211422Y-89924987D01*
X168365497Y-90036929D01*
X168365498Y-90036929D01*
X168365499Y-90036930D01*
X168412379Y-90057802D01*
X168465616Y-90103051D01*
X168485939Y-90169899D01*
X168466895Y-90237124D01*
X168449626Y-90258763D01*
X167633421Y-91074968D01*
X167626941Y-91080607D01*
X167618228Y-91087187D01*
X167588504Y-91119791D01*
X167586530Y-91121858D01*
X167573882Y-91134508D01*
X167573879Y-91134510D01*
X167572655Y-91136298D01*
X167567329Y-91143019D01*
X167548231Y-91163970D01*
X167546305Y-91168942D01*
X167532991Y-91194202D01*
X167529976Y-91198604D01*
X167529975Y-91198606D01*
X167523482Y-91226206D01*
X167520941Y-91234413D01*
X167510700Y-91260850D01*
X167510700Y-91266172D01*
X167507407Y-91294557D01*
X167506188Y-91299737D01*
X167506188Y-91299743D01*
X167510105Y-91327821D01*
X167510700Y-91336397D01*
X167510700Y-93964742D01*
X167491015Y-94031781D01*
X167438211Y-94077536D01*
X167369053Y-94087480D01*
X167305497Y-94058455D01*
X167268769Y-94003060D01*
X167256319Y-93964742D01*
X167212241Y-93829083D01*
X167117015Y-93664147D01*
X167117011Y-93664141D01*
X166989579Y-93522614D01*
X166989577Y-93522612D01*
X166835502Y-93410670D01*
X166835501Y-93410669D01*
X166705238Y-93352673D01*
X166661515Y-93333207D01*
X166661513Y-93333206D01*
X166475226Y-93293610D01*
X166284774Y-93293610D01*
X166098485Y-93333206D01*
X165924502Y-93410668D01*
X165770421Y-93522613D01*
X165642988Y-93664141D01*
X165642983Y-93664148D01*
X165547758Y-93829084D01*
X165488907Y-94010210D01*
X165488907Y-94010212D01*
X165473990Y-94152135D01*
X165473990Y-95755865D01*
X165483597Y-95847264D01*
X165488907Y-95897789D01*
X165547758Y-96078915D01*
X165642983Y-96243851D01*
X165642988Y-96243858D01*
X165770420Y-96385385D01*
X165770422Y-96385387D01*
X165924497Y-96497329D01*
X165924498Y-96497330D01*
X165960146Y-96513201D01*
X166098485Y-96574793D01*
X166284774Y-96614390D01*
X166475226Y-96614390D01*
X166661515Y-96574793D01*
X166835500Y-96497330D01*
X166989579Y-96385386D01*
X167104550Y-96257697D01*
X167117011Y-96243858D01*
X167117016Y-96243852D01*
X167212241Y-96078917D01*
X167268769Y-95904937D01*
X167308206Y-95847264D01*
X167372565Y-95820065D01*
X167441411Y-95831979D01*
X167492887Y-95879223D01*
X167510700Y-95943257D01*
X167510700Y-106578127D01*
X167491015Y-106645166D01*
X167474381Y-106665808D01*
X166224821Y-107915368D01*
X166218341Y-107921007D01*
X166209628Y-107927587D01*
X166179904Y-107960191D01*
X166177930Y-107962258D01*
X166165282Y-107974908D01*
X166165279Y-107974910D01*
X166164055Y-107976698D01*
X166158729Y-107983419D01*
X166139631Y-108004370D01*
X166137705Y-108009342D01*
X166124391Y-108034602D01*
X166121376Y-108039004D01*
X166121374Y-108039008D01*
X166114882Y-108066606D01*
X166112341Y-108074813D01*
X166102100Y-108101250D01*
X166102100Y-108106572D01*
X166098807Y-108134957D01*
X166097588Y-108140137D01*
X166097588Y-108140143D01*
X166101505Y-108168221D01*
X166102100Y-108176797D01*
X166102100Y-108237070D01*
X166082415Y-108304109D01*
X166029611Y-108349864D01*
X166028536Y-108350350D01*
X165924500Y-108396669D01*
X165770421Y-108508613D01*
X165642988Y-108650141D01*
X165642983Y-108650148D01*
X165547758Y-108815084D01*
X165488907Y-108996210D01*
X165484483Y-109038306D01*
X165473990Y-109138135D01*
X165473990Y-110741865D01*
X165483735Y-110834580D01*
X165488907Y-110883789D01*
X165518366Y-110974456D01*
X165547759Y-111064917D01*
X165556946Y-111080829D01*
X165642983Y-111229851D01*
X165642988Y-111229858D01*
X165770420Y-111371385D01*
X165770422Y-111371387D01*
X165924497Y-111483329D01*
X165924498Y-111483330D01*
X165954607Y-111496735D01*
X166098485Y-111560793D01*
X166284774Y-111600390D01*
X166475226Y-111600390D01*
X166661515Y-111560793D01*
X166835500Y-111483330D01*
X166989579Y-111371386D01*
X167090116Y-111259728D01*
X167117011Y-111229858D01*
X167117016Y-111229851D01*
X167118319Y-111227594D01*
X167212241Y-111064917D01*
X167271093Y-110883788D01*
X167286010Y-110741865D01*
X167286010Y-109138135D01*
X167271093Y-108996212D01*
X167212241Y-108815083D01*
X167148747Y-108705109D01*
X167117016Y-108650148D01*
X167117011Y-108650141D01*
X166989579Y-108508614D01*
X166989577Y-108508612D01*
X166835502Y-108396670D01*
X166835496Y-108396667D01*
X166788618Y-108375795D01*
X166735381Y-108330545D01*
X166715060Y-108263696D01*
X166734106Y-108196472D01*
X166751369Y-108174839D01*
X167943784Y-106982424D01*
X167950266Y-106976784D01*
X167958969Y-106970212D01*
X167958973Y-106970211D01*
X167988715Y-106937584D01*
X167990622Y-106935586D01*
X168003315Y-106922895D01*
X168004527Y-106921124D01*
X168009871Y-106914377D01*
X168028968Y-106893430D01*
X168030890Y-106888467D01*
X168044216Y-106863185D01*
X168047225Y-106858794D01*
X168053718Y-106831183D01*
X168056254Y-106822995D01*
X168066500Y-106796549D01*
X168066500Y-106791226D01*
X168069794Y-106762835D01*
X168071012Y-106757657D01*
X168067094Y-106729575D01*
X168066500Y-106721002D01*
X168066500Y-105303058D01*
X168086185Y-105236019D01*
X168138989Y-105190264D01*
X168208147Y-105180320D01*
X168263383Y-105202739D01*
X168365498Y-105276929D01*
X168365502Y-105276932D01*
X168469534Y-105323249D01*
X168522772Y-105368499D01*
X168543094Y-105435347D01*
X168543100Y-105436529D01*
X168543100Y-107514027D01*
X168523415Y-107581066D01*
X168506781Y-107601708D01*
X167726621Y-108381868D01*
X167720141Y-108387507D01*
X167711428Y-108394087D01*
X167681704Y-108426691D01*
X167679730Y-108428758D01*
X167667082Y-108441408D01*
X167667079Y-108441410D01*
X167665855Y-108443198D01*
X167660529Y-108449919D01*
X167641431Y-108470870D01*
X167639505Y-108475842D01*
X167626191Y-108501102D01*
X167623176Y-108505504D01*
X167623174Y-108505508D01*
X167616682Y-108533106D01*
X167614141Y-108541313D01*
X167603900Y-108567750D01*
X167603900Y-108573072D01*
X167600607Y-108601457D01*
X167599388Y-108606637D01*
X167599388Y-108606643D01*
X167601318Y-108620482D01*
X167603305Y-108634721D01*
X167603900Y-108643297D01*
X167603900Y-111072254D01*
X167603305Y-111080829D01*
X167601797Y-111091638D01*
X167601797Y-111091640D01*
X167601797Y-111091641D01*
X167602790Y-111113118D01*
X167603834Y-111135706D01*
X167603900Y-111138569D01*
X167603900Y-111156455D01*
X167604295Y-111158571D01*
X167605284Y-111167099D01*
X167606594Y-111195427D01*
X167608744Y-111200295D01*
X167617198Y-111227594D01*
X167618176Y-111232826D01*
X167618176Y-111232827D01*
X167618177Y-111232828D01*
X167631592Y-111254494D01*
X167633104Y-111256935D01*
X167637112Y-111264540D01*
X167648560Y-111290468D01*
X167648561Y-111290469D01*
X167648562Y-111290471D01*
X167652323Y-111294232D01*
X167670065Y-111316631D01*
X167672872Y-111321163D01*
X167684636Y-111330047D01*
X167695501Y-111338252D01*
X167701986Y-111343895D01*
X168015309Y-111657219D01*
X168048794Y-111718542D01*
X168043810Y-111788234D01*
X168001938Y-111844167D01*
X167936474Y-111868584D01*
X167927628Y-111868900D01*
X163958272Y-111868900D01*
X163891233Y-111849215D01*
X163870591Y-111832581D01*
X163850081Y-111812071D01*
X163816596Y-111750748D01*
X163821580Y-111681056D01*
X163863452Y-111625123D01*
X163928916Y-111600706D01*
X163933922Y-111600527D01*
X163935225Y-111600390D01*
X163935226Y-111600390D01*
X164121515Y-111560793D01*
X164295500Y-111483330D01*
X164449579Y-111371386D01*
X164550116Y-111259728D01*
X164577011Y-111229858D01*
X164577016Y-111229851D01*
X164578319Y-111227594D01*
X164672241Y-111064917D01*
X164731093Y-110883788D01*
X164746010Y-110741865D01*
X164746010Y-109138135D01*
X164731093Y-108996212D01*
X164672241Y-108815083D01*
X164608747Y-108705109D01*
X164577016Y-108650148D01*
X164577011Y-108650141D01*
X164449579Y-108508614D01*
X164449577Y-108508612D01*
X164295502Y-108396670D01*
X164295496Y-108396667D01*
X164248618Y-108375795D01*
X164195381Y-108330545D01*
X164175060Y-108263696D01*
X164194106Y-108196472D01*
X164211369Y-108174839D01*
X165027584Y-107358624D01*
X165034066Y-107352984D01*
X165042769Y-107346412D01*
X165042773Y-107346411D01*
X165072515Y-107313784D01*
X165074422Y-107311786D01*
X165087115Y-107299095D01*
X165088327Y-107297324D01*
X165093671Y-107290577D01*
X165101556Y-107281928D01*
X165112768Y-107269630D01*
X165114690Y-107264667D01*
X165128016Y-107239385D01*
X165131025Y-107234994D01*
X165137518Y-107207383D01*
X165140054Y-107199195D01*
X165150300Y-107172749D01*
X165150300Y-107167426D01*
X165153594Y-107139035D01*
X165154812Y-107133857D01*
X165150894Y-107105775D01*
X165150300Y-107097202D01*
X165150300Y-104722857D01*
X165169985Y-104655818D01*
X165222789Y-104610063D01*
X165291947Y-104600119D01*
X165355503Y-104629144D01*
X165392229Y-104684537D01*
X165421594Y-104774911D01*
X165448730Y-104858430D01*
X165448759Y-104858517D01*
X165449895Y-104860484D01*
X165543983Y-105023451D01*
X165543988Y-105023458D01*
X165671420Y-105164985D01*
X165671422Y-105164987D01*
X165825497Y-105276929D01*
X165825498Y-105276930D01*
X165868019Y-105295861D01*
X165999485Y-105354393D01*
X166185774Y-105393990D01*
X166376226Y-105393990D01*
X166562515Y-105354393D01*
X166736500Y-105276930D01*
X166890579Y-105164986D01*
X167007142Y-105035529D01*
X167018011Y-105023458D01*
X167018016Y-105023451D01*
X167039043Y-104987031D01*
X167113241Y-104858517D01*
X167172093Y-104677388D01*
X167187010Y-104535465D01*
X167187010Y-102931735D01*
X167172093Y-102789812D01*
X167113241Y-102608683D01*
X167051294Y-102501387D01*
X167018016Y-102443748D01*
X167018011Y-102443741D01*
X166890579Y-102302214D01*
X166890577Y-102302212D01*
X166736502Y-102190270D01*
X166736501Y-102190269D01*
X166606238Y-102132273D01*
X166562515Y-102112807D01*
X166562513Y-102112806D01*
X166376226Y-102073210D01*
X166185774Y-102073210D01*
X165999485Y-102112806D01*
X165825502Y-102190268D01*
X165671421Y-102302213D01*
X165543988Y-102443741D01*
X165543983Y-102443748D01*
X165448758Y-102608684D01*
X165419252Y-102699497D01*
X165395255Y-102773354D01*
X165392231Y-102782660D01*
X165352794Y-102840335D01*
X165288435Y-102867534D01*
X165219589Y-102855620D01*
X165168113Y-102808376D01*
X165150300Y-102744342D01*
X165150300Y-91470242D01*
X165150895Y-91461666D01*
X165152401Y-91450864D01*
X165152403Y-91450859D01*
X165150366Y-91406800D01*
X165150300Y-91403937D01*
X165150300Y-91386049D01*
X165150300Y-91386047D01*
X165149903Y-91383928D01*
X165148913Y-91375390D01*
X165147604Y-91347073D01*
X165145452Y-91342201D01*
X165137000Y-91314904D01*
X165136023Y-91309672D01*
X165121088Y-91285552D01*
X165117094Y-91277976D01*
X165105638Y-91252028D01*
X165101874Y-91248264D01*
X165084128Y-91225860D01*
X165081328Y-91221337D01*
X165058698Y-91204248D01*
X165052216Y-91198606D01*
X164112373Y-90258763D01*
X164078888Y-90197440D01*
X164083872Y-90127748D01*
X164125744Y-90071815D01*
X164149615Y-90057804D01*
X164196500Y-90036930D01*
X164350579Y-89924986D01*
X164451395Y-89813018D01*
X164478011Y-89783458D01*
X164478016Y-89783451D01*
X164486457Y-89768831D01*
X164573241Y-89618517D01*
X164632093Y-89437388D01*
X164647010Y-89295465D01*
X164647010Y-87691735D01*
X164632093Y-87549812D01*
X164573241Y-87368683D01*
X164506721Y-87253467D01*
X164478016Y-87203748D01*
X164478011Y-87203741D01*
X164350579Y-87062214D01*
X164350577Y-87062212D01*
X164196502Y-86950270D01*
X164196501Y-86950269D01*
X164054568Y-86887078D01*
X164022515Y-86872807D01*
X164022513Y-86872806D01*
X163836226Y-86833210D01*
X163645774Y-86833210D01*
X163459485Y-86872806D01*
X163285502Y-86950268D01*
X163131421Y-87062213D01*
X163003988Y-87203741D01*
X163003983Y-87203748D01*
X162908758Y-87368684D01*
X162852331Y-87542352D01*
X162812894Y-87600027D01*
X162748535Y-87627226D01*
X162679689Y-87615312D01*
X162628213Y-87568068D01*
X162610400Y-87504034D01*
X162610400Y-87414043D01*
X162610995Y-87405467D01*
X162612501Y-87394664D01*
X162612503Y-87394659D01*
X162610466Y-87350593D01*
X162610400Y-87347730D01*
X162610400Y-87329849D01*
X162610400Y-87329847D01*
X162610004Y-87327733D01*
X162609014Y-87319195D01*
X162608894Y-87316606D01*
X162607705Y-87290873D01*
X162605554Y-87286003D01*
X162597101Y-87258703D01*
X162596868Y-87257460D01*
X162596123Y-87253472D01*
X162596120Y-87253467D01*
X162581196Y-87229363D01*
X162577188Y-87221759D01*
X162565739Y-87195829D01*
X162561976Y-87192066D01*
X162544229Y-87169660D01*
X162541429Y-87165138D01*
X162518801Y-87148050D01*
X162512316Y-87142406D01*
X162161991Y-86792081D01*
X162128506Y-86730758D01*
X162133490Y-86661066D01*
X162175362Y-86605133D01*
X162240826Y-86580716D01*
X162249672Y-86580400D01*
X165710229Y-86580400D01*
X165777268Y-86600085D01*
X165797910Y-86616719D01*
X165909627Y-86728436D01*
X165943112Y-86789759D01*
X165938128Y-86859451D01*
X165896256Y-86915384D01*
X165872381Y-86929397D01*
X165825502Y-86950268D01*
X165671421Y-87062213D01*
X165543988Y-87203741D01*
X165543983Y-87203748D01*
X165448758Y-87368684D01*
X165389907Y-87549810D01*
X165389907Y-87549812D01*
X165374990Y-87691735D01*
X165374990Y-89295465D01*
X165384735Y-89388180D01*
X165389907Y-89437389D01*
X165444359Y-89604977D01*
X165448759Y-89618517D01*
X165451100Y-89622571D01*
X165543983Y-89783451D01*
X165543988Y-89783458D01*
X165671420Y-89924985D01*
X165671422Y-89924987D01*
X165825497Y-90036929D01*
X165825498Y-90036930D01*
X165859192Y-90051931D01*
X165999485Y-90114393D01*
X166185774Y-90153990D01*
X166376226Y-90153990D01*
X166562515Y-90114393D01*
X166736500Y-90036930D01*
X166890579Y-89924986D01*
X166991395Y-89813018D01*
X167018011Y-89783458D01*
X167018016Y-89783451D01*
X167026457Y-89768831D01*
X167113241Y-89618517D01*
X167172093Y-89437388D01*
X167187010Y-89295465D01*
X167187010Y-87691735D01*
X167172093Y-87549812D01*
X167113241Y-87368683D01*
X167046721Y-87253467D01*
X167018016Y-87203748D01*
X167018011Y-87203741D01*
X166890579Y-87062214D01*
X166890577Y-87062212D01*
X166736502Y-86950270D01*
X166736501Y-86950269D01*
X166632465Y-86903950D01*
X166579228Y-86858700D01*
X166558906Y-86791851D01*
X166558900Y-86790670D01*
X166558900Y-86765243D01*
X166559495Y-86756667D01*
X166561001Y-86745864D01*
X166561003Y-86745859D01*
X166558966Y-86701793D01*
X166558900Y-86698930D01*
X166558900Y-86681049D01*
X166558900Y-86681047D01*
X166558504Y-86678933D01*
X166557514Y-86670395D01*
X166557083Y-86661066D01*
X166556205Y-86642073D01*
X166554054Y-86637203D01*
X166545601Y-86609903D01*
X166544709Y-86605133D01*
X166544623Y-86604672D01*
X166541783Y-86600085D01*
X166529696Y-86580563D01*
X166525688Y-86572959D01*
X166525687Y-86572956D01*
X166514239Y-86547029D01*
X166510476Y-86543266D01*
X166492729Y-86520860D01*
X166489929Y-86516338D01*
X166489926Y-86516336D01*
X166467298Y-86499248D01*
X166460816Y-86493606D01*
X166354991Y-86387781D01*
X166321506Y-86326458D01*
X166326490Y-86256766D01*
X166368362Y-86200833D01*
X166433826Y-86176416D01*
X166442672Y-86176100D01*
X175465929Y-86176100D01*
X175532968Y-86195785D01*
X175553610Y-86212419D01*
X176069627Y-86728436D01*
X176103112Y-86789759D01*
X176098128Y-86859451D01*
X176056256Y-86915384D01*
X176032381Y-86929397D01*
X175985502Y-86950268D01*
X175831421Y-87062213D01*
X175703988Y-87203741D01*
X175703983Y-87203748D01*
X175608758Y-87368684D01*
X175549907Y-87549810D01*
X175549907Y-87549812D01*
X175534990Y-87691735D01*
X175534990Y-89295465D01*
X175544735Y-89388180D01*
X175549907Y-89437389D01*
X175604359Y-89604977D01*
X175608759Y-89618517D01*
X175611100Y-89622571D01*
X175703983Y-89783451D01*
X175703988Y-89783458D01*
X175831420Y-89924985D01*
X175831422Y-89924987D01*
X175985497Y-90036929D01*
X175985498Y-90036930D01*
X176019192Y-90051931D01*
X176159485Y-90114393D01*
X176345774Y-90153990D01*
X176536226Y-90153990D01*
X176722515Y-90114393D01*
X176896500Y-90036930D01*
X177050579Y-89924986D01*
X177151395Y-89813018D01*
X177178011Y-89783458D01*
X177178016Y-89783451D01*
X177186457Y-89768831D01*
X177273241Y-89618517D01*
X177332093Y-89437388D01*
X177347010Y-89295465D01*
X177347010Y-87691735D01*
X177332093Y-87549812D01*
X177273241Y-87368683D01*
X177206721Y-87253467D01*
X177178016Y-87203748D01*
X177178011Y-87203741D01*
X177050579Y-87062214D01*
X177050577Y-87062212D01*
X176896502Y-86950270D01*
X176896501Y-86950269D01*
X176792465Y-86903950D01*
X176739228Y-86858700D01*
X176718906Y-86791851D01*
X176718900Y-86790670D01*
X176718900Y-86765242D01*
X176719495Y-86756666D01*
X176721001Y-86745864D01*
X176721003Y-86745859D01*
X176718966Y-86701800D01*
X176718900Y-86698937D01*
X176718900Y-86681049D01*
X176718900Y-86681047D01*
X176718503Y-86678928D01*
X176717513Y-86670390D01*
X176717082Y-86661066D01*
X176716204Y-86642073D01*
X176714052Y-86637201D01*
X176705601Y-86609903D01*
X176704623Y-86604672D01*
X176689688Y-86580552D01*
X176685694Y-86572976D01*
X176674238Y-86547028D01*
X176670474Y-86543264D01*
X176652728Y-86520860D01*
X176649928Y-86516337D01*
X176627298Y-86499248D01*
X176620816Y-86493606D01*
X175870231Y-85743021D01*
X175864587Y-85736535D01*
X175858010Y-85727826D01*
X175825418Y-85698114D01*
X175823346Y-85696136D01*
X175810693Y-85683483D01*
X175808912Y-85682263D01*
X175802177Y-85676927D01*
X175781230Y-85657832D01*
X175776262Y-85655907D01*
X175750988Y-85642585D01*
X175746594Y-85639575D01*
X175746593Y-85639574D01*
X175746592Y-85639574D01*
X175718991Y-85633081D01*
X175710783Y-85630539D01*
X175684350Y-85620300D01*
X175684349Y-85620300D01*
X175679026Y-85620300D01*
X175650636Y-85617006D01*
X175645457Y-85615788D01*
X175617375Y-85619705D01*
X175608802Y-85620300D01*
X138681743Y-85620300D01*
X138673167Y-85619705D01*
X138662359Y-85618197D01*
X138618294Y-85620234D01*
X138615431Y-85620300D01*
X138597537Y-85620300D01*
X138595418Y-85620696D01*
X138586895Y-85621684D01*
X138558577Y-85622994D01*
X138558572Y-85622995D01*
X138553696Y-85625148D01*
X138526412Y-85633597D01*
X138521172Y-85634576D01*
X138521171Y-85634577D01*
X138497062Y-85649503D01*
X138489464Y-85653508D01*
X138463529Y-85664960D01*
X138459763Y-85668727D01*
X138437366Y-85686467D01*
X138432836Y-85689271D01*
X138415745Y-85711902D01*
X138410104Y-85718385D01*
X136793835Y-87334653D01*
X136732512Y-87368138D01*
X136662820Y-87363154D01*
X136606887Y-87321282D01*
X136598767Y-87308972D01*
X136538016Y-87203748D01*
X136538011Y-87203741D01*
X136410579Y-87062214D01*
X136410577Y-87062212D01*
X136256502Y-86950270D01*
X136256501Y-86950269D01*
X136114568Y-86887078D01*
X136082515Y-86872807D01*
X136082513Y-86872806D01*
X135896226Y-86833210D01*
X135705774Y-86833210D01*
X135519485Y-86872806D01*
X135345502Y-86950268D01*
X135191421Y-87062213D01*
X135063988Y-87203741D01*
X135063983Y-87203748D01*
X134968758Y-87368684D01*
X134909907Y-87549810D01*
X134909907Y-87549812D01*
X134894990Y-87691735D01*
X134894990Y-89295465D01*
X134904735Y-89388180D01*
X134909907Y-89437389D01*
X134964359Y-89604977D01*
X134968759Y-89618517D01*
X134971100Y-89622571D01*
X135063983Y-89783451D01*
X135063988Y-89783458D01*
X135191420Y-89924985D01*
X135191422Y-89924987D01*
X135345497Y-90036929D01*
X135345498Y-90036930D01*
X135379192Y-90051931D01*
X135519485Y-90114393D01*
X135519487Y-90114393D01*
X135519488Y-90114394D01*
X135578905Y-90127023D01*
X135705774Y-90153990D01*
X135705778Y-90153990D01*
X135708704Y-90154612D01*
X135770186Y-90187804D01*
X135803963Y-90248967D01*
X135799311Y-90318681D01*
X135770605Y-90363583D01*
X133204821Y-92929368D01*
X133198341Y-92935007D01*
X133189628Y-92941587D01*
X133159904Y-92974191D01*
X133157930Y-92976258D01*
X133145282Y-92988908D01*
X133145279Y-92988910D01*
X133144055Y-92990698D01*
X133138729Y-92997419D01*
X133119631Y-93018370D01*
X133117705Y-93023342D01*
X133104391Y-93048602D01*
X133101376Y-93053004D01*
X133101374Y-93053008D01*
X133094882Y-93080606D01*
X133092341Y-93088813D01*
X133082100Y-93115250D01*
X133082100Y-93120572D01*
X133078807Y-93148957D01*
X133077588Y-93154137D01*
X133077588Y-93154143D01*
X133081505Y-93182221D01*
X133082100Y-93190797D01*
X133082100Y-93251070D01*
X133062415Y-93318109D01*
X133009611Y-93363864D01*
X133008536Y-93364350D01*
X132904500Y-93410669D01*
X132750421Y-93522613D01*
X132622988Y-93664141D01*
X132622983Y-93664148D01*
X132527758Y-93829084D01*
X132468907Y-94010210D01*
X132468907Y-94010212D01*
X132453990Y-94152135D01*
X132453990Y-95755865D01*
X132463597Y-95847264D01*
X132468907Y-95897789D01*
X132527758Y-96078915D01*
X132622983Y-96243851D01*
X132622988Y-96243858D01*
X132750420Y-96385385D01*
X132750422Y-96385387D01*
X132904497Y-96497329D01*
X132904498Y-96497330D01*
X132970061Y-96526520D01*
X133023298Y-96571770D01*
X133043620Y-96638619D01*
X133024575Y-96705843D01*
X133007307Y-96727481D01*
X128025821Y-101708968D01*
X128019341Y-101714607D01*
X128010628Y-101721187D01*
X127980904Y-101753791D01*
X127978930Y-101755858D01*
X127966282Y-101768508D01*
X127966279Y-101768510D01*
X127965055Y-101770298D01*
X127959729Y-101777019D01*
X127940631Y-101797970D01*
X127938705Y-101802942D01*
X127925391Y-101828202D01*
X127922376Y-101832604D01*
X127922374Y-101832608D01*
X127915882Y-101860206D01*
X127913341Y-101868413D01*
X127903100Y-101894850D01*
X127903100Y-101900172D01*
X127899807Y-101928557D01*
X127898588Y-101933737D01*
X127898588Y-101933743D01*
X127902505Y-101961821D01*
X127903100Y-101970397D01*
X127903100Y-102030670D01*
X127883415Y-102097709D01*
X127830611Y-102143464D01*
X127829536Y-102143950D01*
X127725500Y-102190269D01*
X127571421Y-102302213D01*
X127443988Y-102443741D01*
X127443983Y-102443748D01*
X127348758Y-102608684D01*
X127289907Y-102789810D01*
X127289907Y-102789812D01*
X127274990Y-102931735D01*
X127274990Y-104535465D01*
X126547010Y-104535465D01*
X126547010Y-102931735D01*
X126532093Y-102789812D01*
X126473241Y-102608683D01*
X126411294Y-102501387D01*
X126378016Y-102443748D01*
X126378011Y-102443741D01*
X126250579Y-102302214D01*
X126250577Y-102302212D01*
X126096502Y-102190270D01*
X126096501Y-102190269D01*
X125966238Y-102132273D01*
X125922515Y-102112807D01*
X125922513Y-102112806D01*
X125736226Y-102073210D01*
X125545774Y-102073210D01*
X125359485Y-102112806D01*
X125185502Y-102190268D01*
X125031421Y-102302213D01*
X124903988Y-102443741D01*
X124903983Y-102443748D01*
X124808758Y-102608684D01*
X124749907Y-102789810D01*
X124749907Y-102789812D01*
X124734990Y-102931735D01*
X124734990Y-104535465D01*
X124007010Y-104535465D01*
X124007010Y-102931735D01*
X123992093Y-102789812D01*
X123933241Y-102608683D01*
X123871294Y-102501387D01*
X123838016Y-102443748D01*
X123838011Y-102443741D01*
X123710579Y-102302214D01*
X123710577Y-102302212D01*
X123556502Y-102190270D01*
X123556501Y-102190269D01*
X123426238Y-102132273D01*
X123382515Y-102112807D01*
X123382513Y-102112806D01*
X123196226Y-102073210D01*
X123005774Y-102073210D01*
X122819485Y-102112806D01*
X122645502Y-102190268D01*
X122491421Y-102302213D01*
X122363988Y-102443741D01*
X122363983Y-102443748D01*
X122268758Y-102608684D01*
X122209907Y-102789810D01*
X122209907Y-102789812D01*
X122194990Y-102931735D01*
X122194990Y-104535465D01*
X121467010Y-104535465D01*
X121467010Y-102931735D01*
X121452093Y-102789812D01*
X121393241Y-102608683D01*
X121331294Y-102501387D01*
X121298016Y-102443748D01*
X121298011Y-102443741D01*
X121170579Y-102302214D01*
X121170577Y-102302212D01*
X121016502Y-102190270D01*
X121016501Y-102190269D01*
X120886238Y-102132273D01*
X120842515Y-102112807D01*
X120842513Y-102112806D01*
X120656226Y-102073210D01*
X120465774Y-102073210D01*
X120279485Y-102112806D01*
X120105502Y-102190268D01*
X119951421Y-102302213D01*
X119823988Y-102443741D01*
X119823983Y-102443748D01*
X119728758Y-102608684D01*
X119669907Y-102789810D01*
X119669907Y-102789812D01*
X119654990Y-102931735D01*
X119654990Y-104535465D01*
X118927010Y-104535465D01*
X118927010Y-102931735D01*
X118912093Y-102789812D01*
X118853241Y-102608683D01*
X118791294Y-102501387D01*
X118758016Y-102443748D01*
X118758011Y-102443741D01*
X118630579Y-102302214D01*
X118630577Y-102302212D01*
X118476502Y-102190270D01*
X118476501Y-102190269D01*
X118346238Y-102132273D01*
X118302515Y-102112807D01*
X118302513Y-102112806D01*
X118116226Y-102073210D01*
X117925774Y-102073210D01*
X117739485Y-102112806D01*
X117565502Y-102190268D01*
X117411421Y-102302213D01*
X117283988Y-102443741D01*
X117283983Y-102443748D01*
X117188758Y-102608684D01*
X117129907Y-102789810D01*
X117129907Y-102789812D01*
X117114990Y-102931735D01*
X117114990Y-104535465D01*
X107390500Y-104535465D01*
X107390500Y-89295465D01*
X117114990Y-89295465D01*
X117124735Y-89388180D01*
X117129907Y-89437389D01*
X117184359Y-89604977D01*
X117188759Y-89618517D01*
X117191100Y-89622571D01*
X117283983Y-89783451D01*
X117283988Y-89783458D01*
X117411420Y-89924985D01*
X117411422Y-89924987D01*
X117565497Y-90036929D01*
X117565498Y-90036930D01*
X117599192Y-90051931D01*
X117739485Y-90114393D01*
X117925774Y-90153990D01*
X118116226Y-90153990D01*
X118302515Y-90114393D01*
X118476500Y-90036930D01*
X118630579Y-89924986D01*
X118731395Y-89813018D01*
X118758011Y-89783458D01*
X118758016Y-89783451D01*
X118766457Y-89768831D01*
X118853241Y-89618517D01*
X118912093Y-89437388D01*
X118927010Y-89295465D01*
X119654990Y-89295465D01*
X119664735Y-89388180D01*
X119669907Y-89437389D01*
X119724359Y-89604977D01*
X119728759Y-89618517D01*
X119731100Y-89622571D01*
X119823983Y-89783451D01*
X119823988Y-89783458D01*
X119951420Y-89924985D01*
X119951422Y-89924987D01*
X120105497Y-90036929D01*
X120105498Y-90036930D01*
X120139192Y-90051931D01*
X120279485Y-90114393D01*
X120465774Y-90153990D01*
X120656226Y-90153990D01*
X120842515Y-90114393D01*
X121016500Y-90036930D01*
X121170579Y-89924986D01*
X121271395Y-89813018D01*
X121298011Y-89783458D01*
X121298016Y-89783451D01*
X121306457Y-89768831D01*
X121393241Y-89618517D01*
X121452093Y-89437388D01*
X121467010Y-89295465D01*
X122194990Y-89295465D01*
X122204735Y-89388180D01*
X122209907Y-89437389D01*
X122264359Y-89604977D01*
X122268759Y-89618517D01*
X122271100Y-89622571D01*
X122363983Y-89783451D01*
X122363988Y-89783458D01*
X122491420Y-89924985D01*
X122491422Y-89924987D01*
X122645497Y-90036929D01*
X122645498Y-90036930D01*
X122679192Y-90051931D01*
X122819485Y-90114393D01*
X123005774Y-90153990D01*
X123196226Y-90153990D01*
X123382515Y-90114393D01*
X123556500Y-90036930D01*
X123710579Y-89924986D01*
X123811395Y-89813018D01*
X123838011Y-89783458D01*
X123838016Y-89783451D01*
X123846457Y-89768831D01*
X123933241Y-89618517D01*
X123992093Y-89437388D01*
X124007010Y-89295465D01*
X124734990Y-89295465D01*
X124744735Y-89388180D01*
X124749907Y-89437389D01*
X124804359Y-89604977D01*
X124808759Y-89618517D01*
X124811100Y-89622571D01*
X124903983Y-89783451D01*
X124903988Y-89783458D01*
X125031420Y-89924985D01*
X125031422Y-89924987D01*
X125185497Y-90036929D01*
X125185498Y-90036930D01*
X125219192Y-90051931D01*
X125359485Y-90114393D01*
X125545774Y-90153990D01*
X125736226Y-90153990D01*
X125922515Y-90114393D01*
X126096500Y-90036930D01*
X126250579Y-89924986D01*
X126351395Y-89813018D01*
X126378011Y-89783458D01*
X126378016Y-89783451D01*
X126386457Y-89768831D01*
X126473241Y-89618517D01*
X126532093Y-89437388D01*
X126547010Y-89295465D01*
X127274990Y-89295465D01*
X127284735Y-89388180D01*
X127289907Y-89437389D01*
X127344359Y-89604977D01*
X127348759Y-89618517D01*
X127351100Y-89622571D01*
X127443983Y-89783451D01*
X127443988Y-89783458D01*
X127571420Y-89924985D01*
X127571422Y-89924987D01*
X127725497Y-90036929D01*
X127725498Y-90036930D01*
X127759192Y-90051931D01*
X127899485Y-90114393D01*
X128085774Y-90153990D01*
X128276226Y-90153990D01*
X128462515Y-90114393D01*
X128636500Y-90036930D01*
X128790579Y-89924986D01*
X128891395Y-89813018D01*
X128918011Y-89783458D01*
X128918016Y-89783451D01*
X128926457Y-89768831D01*
X129013241Y-89618517D01*
X129072093Y-89437388D01*
X129087010Y-89295465D01*
X129814990Y-89295465D01*
X129824735Y-89388180D01*
X129829907Y-89437389D01*
X129884359Y-89604977D01*
X129888759Y-89618517D01*
X129891100Y-89622571D01*
X129983983Y-89783451D01*
X129983988Y-89783458D01*
X130111420Y-89924985D01*
X130111422Y-89924987D01*
X130265497Y-90036929D01*
X130265498Y-90036930D01*
X130299192Y-90051931D01*
X130439485Y-90114393D01*
X130625774Y-90153990D01*
X130816226Y-90153990D01*
X131002515Y-90114393D01*
X131176500Y-90036930D01*
X131330579Y-89924986D01*
X131431395Y-89813018D01*
X131458011Y-89783458D01*
X131458016Y-89783451D01*
X131466457Y-89768831D01*
X131553241Y-89618517D01*
X131612093Y-89437388D01*
X131627010Y-89295465D01*
X132354990Y-89295465D01*
X132364735Y-89388180D01*
X132369907Y-89437389D01*
X132424359Y-89604977D01*
X132428759Y-89618517D01*
X132431100Y-89622571D01*
X132523983Y-89783451D01*
X132523988Y-89783458D01*
X132651420Y-89924985D01*
X132651422Y-89924987D01*
X132805497Y-90036929D01*
X132805498Y-90036930D01*
X132839192Y-90051931D01*
X132979485Y-90114393D01*
X133165774Y-90153990D01*
X133356226Y-90153990D01*
X133542515Y-90114393D01*
X133716500Y-90036930D01*
X133870579Y-89924986D01*
X133971395Y-89813018D01*
X133998011Y-89783458D01*
X133998016Y-89783451D01*
X134006457Y-89768831D01*
X134093241Y-89618517D01*
X134152093Y-89437388D01*
X134167010Y-89295465D01*
X134167010Y-87691735D01*
X134152093Y-87549812D01*
X134093241Y-87368683D01*
X134026721Y-87253467D01*
X133998016Y-87203748D01*
X133998011Y-87203741D01*
X133870579Y-87062214D01*
X133870577Y-87062212D01*
X133716502Y-86950270D01*
X133716501Y-86950269D01*
X133574568Y-86887078D01*
X133542515Y-86872807D01*
X133542513Y-86872806D01*
X133356226Y-86833210D01*
X133165774Y-86833210D01*
X132979485Y-86872806D01*
X132805502Y-86950268D01*
X132651421Y-87062213D01*
X132523988Y-87203741D01*
X132523983Y-87203748D01*
X132428758Y-87368684D01*
X132369907Y-87549810D01*
X132369907Y-87549812D01*
X132354990Y-87691735D01*
X132354990Y-89295465D01*
X131627010Y-89295465D01*
X131627010Y-87691735D01*
X131612093Y-87549812D01*
X131553241Y-87368683D01*
X131486721Y-87253467D01*
X131458016Y-87203748D01*
X131458011Y-87203741D01*
X131330579Y-87062214D01*
X131330577Y-87062212D01*
X131176502Y-86950270D01*
X131176501Y-86950269D01*
X131034568Y-86887078D01*
X131002515Y-86872807D01*
X131002513Y-86872806D01*
X130816226Y-86833210D01*
X130625774Y-86833210D01*
X130439485Y-86872806D01*
X130265502Y-86950268D01*
X130111421Y-87062213D01*
X129983988Y-87203741D01*
X129983983Y-87203748D01*
X129888758Y-87368684D01*
X129829907Y-87549810D01*
X129829907Y-87549812D01*
X129814990Y-87691735D01*
X129814990Y-89295465D01*
X129087010Y-89295465D01*
X129087010Y-87691735D01*
X129072093Y-87549812D01*
X129013241Y-87368683D01*
X128946721Y-87253467D01*
X128918016Y-87203748D01*
X128918011Y-87203741D01*
X128790579Y-87062214D01*
X128790577Y-87062212D01*
X128636502Y-86950270D01*
X128636501Y-86950269D01*
X128494568Y-86887078D01*
X128462515Y-86872807D01*
X128462513Y-86872806D01*
X128276226Y-86833210D01*
X128085774Y-86833210D01*
X127899485Y-86872806D01*
X127725502Y-86950268D01*
X127571421Y-87062213D01*
X127443988Y-87203741D01*
X127443983Y-87203748D01*
X127348758Y-87368684D01*
X127289907Y-87549810D01*
X127289907Y-87549812D01*
X127274990Y-87691735D01*
X127274990Y-89295465D01*
X126547010Y-89295465D01*
X126547010Y-87691735D01*
X126532093Y-87549812D01*
X126473241Y-87368683D01*
X126406721Y-87253467D01*
X126378016Y-87203748D01*
X126378011Y-87203741D01*
X126250579Y-87062214D01*
X126250577Y-87062212D01*
X126096502Y-86950270D01*
X126096501Y-86950269D01*
X125954568Y-86887078D01*
X125922515Y-86872807D01*
X125922513Y-86872806D01*
X125736226Y-86833210D01*
X125545774Y-86833210D01*
X125359485Y-86872806D01*
X125185502Y-86950268D01*
X125031421Y-87062213D01*
X124903988Y-87203741D01*
X124903983Y-87203748D01*
X124808758Y-87368684D01*
X124749907Y-87549810D01*
X124749907Y-87549812D01*
X124734990Y-87691735D01*
X124734990Y-89295465D01*
X124007010Y-89295465D01*
X124007010Y-87691735D01*
X123992093Y-87549812D01*
X123933241Y-87368683D01*
X123866721Y-87253467D01*
X123838016Y-87203748D01*
X123838011Y-87203741D01*
X123710579Y-87062214D01*
X123710577Y-87062212D01*
X123556502Y-86950270D01*
X123556501Y-86950269D01*
X123414568Y-86887078D01*
X123382515Y-86872807D01*
X123382513Y-86872806D01*
X123196226Y-86833210D01*
X123005774Y-86833210D01*
X122819485Y-86872806D01*
X122645502Y-86950268D01*
X122491421Y-87062213D01*
X122363988Y-87203741D01*
X122363983Y-87203748D01*
X122268758Y-87368684D01*
X122209907Y-87549810D01*
X122209907Y-87549812D01*
X122194990Y-87691735D01*
X122194990Y-89295465D01*
X121467010Y-89295465D01*
X121467010Y-87691735D01*
X121452093Y-87549812D01*
X121393241Y-87368683D01*
X121326721Y-87253467D01*
X121298016Y-87203748D01*
X121298011Y-87203741D01*
X121170579Y-87062214D01*
X121170577Y-87062212D01*
X121016502Y-86950270D01*
X121016501Y-86950269D01*
X120874568Y-86887078D01*
X120842515Y-86872807D01*
X120842513Y-86872806D01*
X120656226Y-86833210D01*
X120465774Y-86833210D01*
X120279485Y-86872806D01*
X120105502Y-86950268D01*
X119951421Y-87062213D01*
X119823988Y-87203741D01*
X119823983Y-87203748D01*
X119728758Y-87368684D01*
X119669907Y-87549810D01*
X119669907Y-87549812D01*
X119654990Y-87691735D01*
X119654990Y-89295465D01*
X118927010Y-89295465D01*
X118927010Y-87691735D01*
X118912093Y-87549812D01*
X118853241Y-87368683D01*
X118786721Y-87253467D01*
X118758016Y-87203748D01*
X118758011Y-87203741D01*
X118630579Y-87062214D01*
X118630577Y-87062212D01*
X118476502Y-86950270D01*
X118476501Y-86950269D01*
X118334568Y-86887078D01*
X118302515Y-86872807D01*
X118302513Y-86872806D01*
X118116226Y-86833210D01*
X117925774Y-86833210D01*
X117739485Y-86872806D01*
X117565502Y-86950268D01*
X117411421Y-87062213D01*
X117283988Y-87203741D01*
X117283983Y-87203748D01*
X117188758Y-87368684D01*
X117129907Y-87549810D01*
X117129907Y-87549812D01*
X117114990Y-87691735D01*
X117114990Y-89295465D01*
X107390500Y-89295465D01*
X107390500Y-84711440D01*
X107390691Y-84706574D01*
X107404440Y-84531867D01*
X107407482Y-84512655D01*
X107446687Y-84349357D01*
X107452693Y-84330872D01*
X107516960Y-84175719D01*
X107525793Y-84158385D01*
X107613529Y-84015213D01*
X107624965Y-83999472D01*
X107734027Y-83871776D01*
X107747776Y-83858027D01*
X107875475Y-83748962D01*
X107891213Y-83737529D01*
X108034388Y-83649791D01*
X108051719Y-83640960D01*
X108206872Y-83576693D01*
X108225357Y-83570687D01*
X108388655Y-83531482D01*
X108407861Y-83528440D01*
X108555766Y-83516800D01*
X108582574Y-83514691D01*
X108587440Y-83514500D01*
X108609531Y-83514500D01*
X188443469Y-83514500D01*
X188465560Y-83514500D01*
X188470426Y-83514691D01*
G37*
%TD.AperFunction*%
%TD*%
M02*
