G04 #@! TF.GenerationSoftware,KiCad,Pcbnew,(5.0.0)*
G04 #@! TF.CreationDate,2018-09-19T20:24:58-05:00*
G04 #@! TF.ProjectId,27C160_Adapter,3237433136305F416461707465722E6B,1.0*
G04 #@! TF.SameCoordinates,Original*
G04 #@! TF.FileFunction,Copper,L1,Top,Signal*
G04 #@! TF.FilePolarity,Positive*
%FSLAX46Y46*%
G04 Gerber Fmt 4.6, Leading zero omitted, Abs format (unit mm)*
G04 Created by KiCad (PCBNEW (5.0.0)) date 09/19/18 20:24:58*
%MOMM*%
%LPD*%
G01*
G04 APERTURE LIST*
G04 #@! TA.AperFunction,Conductor*
%ADD10C,0.100000*%
G04 #@! TD*
G04 #@! TA.AperFunction,SMDPad,CuDef*
%ADD11C,1.250000*%
G04 #@! TD*
G04 #@! TA.AperFunction,SMDPad,CuDef*
%ADD12R,1.399540X0.998220*%
G04 #@! TD*
G04 #@! TA.AperFunction,ComponentPad*
%ADD13O,1.500000X3.000000*%
G04 #@! TD*
G04 #@! TA.AperFunction,ComponentPad*
%ADD14O,1.219200X2.438400*%
G04 #@! TD*
G04 #@! TA.AperFunction,ComponentPad*
%ADD15C,1.676400*%
G04 #@! TD*
G04 #@! TA.AperFunction,ViaPad*
%ADD16C,0.600000*%
G04 #@! TD*
G04 #@! TA.AperFunction,Conductor*
%ADD17C,0.250000*%
G04 #@! TD*
G04 #@! TA.AperFunction,Conductor*
%ADD18C,0.254000*%
G04 #@! TD*
G04 APERTURE END LIST*
D10*
G04 #@! TO.N,VCC*
G04 #@! TO.C,R1*
G36*
X182805504Y-119750204D02*
X182829773Y-119753804D01*
X182853571Y-119759765D01*
X182876671Y-119768030D01*
X182898849Y-119778520D01*
X182919893Y-119791133D01*
X182939598Y-119805747D01*
X182957777Y-119822223D01*
X182974253Y-119840402D01*
X182988867Y-119860107D01*
X183001480Y-119881151D01*
X183011970Y-119903329D01*
X183020235Y-119926429D01*
X183026196Y-119950227D01*
X183029796Y-119974496D01*
X183031000Y-119999000D01*
X183031000Y-120749000D01*
X183029796Y-120773504D01*
X183026196Y-120797773D01*
X183020235Y-120821571D01*
X183011970Y-120844671D01*
X183001480Y-120866849D01*
X182988867Y-120887893D01*
X182974253Y-120907598D01*
X182957777Y-120925777D01*
X182939598Y-120942253D01*
X182919893Y-120956867D01*
X182898849Y-120969480D01*
X182876671Y-120979970D01*
X182853571Y-120988235D01*
X182829773Y-120994196D01*
X182805504Y-120997796D01*
X182781000Y-120999000D01*
X181531000Y-120999000D01*
X181506496Y-120997796D01*
X181482227Y-120994196D01*
X181458429Y-120988235D01*
X181435329Y-120979970D01*
X181413151Y-120969480D01*
X181392107Y-120956867D01*
X181372402Y-120942253D01*
X181354223Y-120925777D01*
X181337747Y-120907598D01*
X181323133Y-120887893D01*
X181310520Y-120866849D01*
X181300030Y-120844671D01*
X181291765Y-120821571D01*
X181285804Y-120797773D01*
X181282204Y-120773504D01*
X181281000Y-120749000D01*
X181281000Y-119999000D01*
X181282204Y-119974496D01*
X181285804Y-119950227D01*
X181291765Y-119926429D01*
X181300030Y-119903329D01*
X181310520Y-119881151D01*
X181323133Y-119860107D01*
X181337747Y-119840402D01*
X181354223Y-119822223D01*
X181372402Y-119805747D01*
X181392107Y-119791133D01*
X181413151Y-119778520D01*
X181435329Y-119768030D01*
X181458429Y-119759765D01*
X181482227Y-119753804D01*
X181506496Y-119750204D01*
X181531000Y-119749000D01*
X182781000Y-119749000D01*
X182805504Y-119750204D01*
X182805504Y-119750204D01*
G37*
D11*
G04 #@! TD*
G04 #@! TO.P,R1,2*
G04 #@! TO.N,VCC*
X182156000Y-120374000D03*
D10*
G04 #@! TO.N,/A20*
G04 #@! TO.C,R1*
G36*
X182805504Y-116950204D02*
X182829773Y-116953804D01*
X182853571Y-116959765D01*
X182876671Y-116968030D01*
X182898849Y-116978520D01*
X182919893Y-116991133D01*
X182939598Y-117005747D01*
X182957777Y-117022223D01*
X182974253Y-117040402D01*
X182988867Y-117060107D01*
X183001480Y-117081151D01*
X183011970Y-117103329D01*
X183020235Y-117126429D01*
X183026196Y-117150227D01*
X183029796Y-117174496D01*
X183031000Y-117199000D01*
X183031000Y-117949000D01*
X183029796Y-117973504D01*
X183026196Y-117997773D01*
X183020235Y-118021571D01*
X183011970Y-118044671D01*
X183001480Y-118066849D01*
X182988867Y-118087893D01*
X182974253Y-118107598D01*
X182957777Y-118125777D01*
X182939598Y-118142253D01*
X182919893Y-118156867D01*
X182898849Y-118169480D01*
X182876671Y-118179970D01*
X182853571Y-118188235D01*
X182829773Y-118194196D01*
X182805504Y-118197796D01*
X182781000Y-118199000D01*
X181531000Y-118199000D01*
X181506496Y-118197796D01*
X181482227Y-118194196D01*
X181458429Y-118188235D01*
X181435329Y-118179970D01*
X181413151Y-118169480D01*
X181392107Y-118156867D01*
X181372402Y-118142253D01*
X181354223Y-118125777D01*
X181337747Y-118107598D01*
X181323133Y-118087893D01*
X181310520Y-118066849D01*
X181300030Y-118044671D01*
X181291765Y-118021571D01*
X181285804Y-117997773D01*
X181282204Y-117973504D01*
X181281000Y-117949000D01*
X181281000Y-117199000D01*
X181282204Y-117174496D01*
X181285804Y-117150227D01*
X181291765Y-117126429D01*
X181300030Y-117103329D01*
X181310520Y-117081151D01*
X181323133Y-117060107D01*
X181337747Y-117040402D01*
X181354223Y-117022223D01*
X181372402Y-117005747D01*
X181392107Y-116991133D01*
X181413151Y-116978520D01*
X181435329Y-116968030D01*
X181458429Y-116959765D01*
X181482227Y-116953804D01*
X181506496Y-116950204D01*
X181531000Y-116949000D01*
X182781000Y-116949000D01*
X182805504Y-116950204D01*
X182805504Y-116950204D01*
G37*
D11*
G04 #@! TD*
G04 #@! TO.P,R1,1*
G04 #@! TO.N,/A20*
X182156000Y-117574000D03*
D10*
G04 #@! TO.N,VCC*
G04 #@! TO.C,R2*
G36*
X178995504Y-119750204D02*
X179019773Y-119753804D01*
X179043571Y-119759765D01*
X179066671Y-119768030D01*
X179088849Y-119778520D01*
X179109893Y-119791133D01*
X179129598Y-119805747D01*
X179147777Y-119822223D01*
X179164253Y-119840402D01*
X179178867Y-119860107D01*
X179191480Y-119881151D01*
X179201970Y-119903329D01*
X179210235Y-119926429D01*
X179216196Y-119950227D01*
X179219796Y-119974496D01*
X179221000Y-119999000D01*
X179221000Y-120749000D01*
X179219796Y-120773504D01*
X179216196Y-120797773D01*
X179210235Y-120821571D01*
X179201970Y-120844671D01*
X179191480Y-120866849D01*
X179178867Y-120887893D01*
X179164253Y-120907598D01*
X179147777Y-120925777D01*
X179129598Y-120942253D01*
X179109893Y-120956867D01*
X179088849Y-120969480D01*
X179066671Y-120979970D01*
X179043571Y-120988235D01*
X179019773Y-120994196D01*
X178995504Y-120997796D01*
X178971000Y-120999000D01*
X177721000Y-120999000D01*
X177696496Y-120997796D01*
X177672227Y-120994196D01*
X177648429Y-120988235D01*
X177625329Y-120979970D01*
X177603151Y-120969480D01*
X177582107Y-120956867D01*
X177562402Y-120942253D01*
X177544223Y-120925777D01*
X177527747Y-120907598D01*
X177513133Y-120887893D01*
X177500520Y-120866849D01*
X177490030Y-120844671D01*
X177481765Y-120821571D01*
X177475804Y-120797773D01*
X177472204Y-120773504D01*
X177471000Y-120749000D01*
X177471000Y-119999000D01*
X177472204Y-119974496D01*
X177475804Y-119950227D01*
X177481765Y-119926429D01*
X177490030Y-119903329D01*
X177500520Y-119881151D01*
X177513133Y-119860107D01*
X177527747Y-119840402D01*
X177544223Y-119822223D01*
X177562402Y-119805747D01*
X177582107Y-119791133D01*
X177603151Y-119778520D01*
X177625329Y-119768030D01*
X177648429Y-119759765D01*
X177672227Y-119753804D01*
X177696496Y-119750204D01*
X177721000Y-119749000D01*
X178971000Y-119749000D01*
X178995504Y-119750204D01*
X178995504Y-119750204D01*
G37*
D11*
G04 #@! TD*
G04 #@! TO.P,R2,2*
G04 #@! TO.N,VCC*
X178346000Y-120374000D03*
D10*
G04 #@! TO.N,/A19*
G04 #@! TO.C,R2*
G36*
X178995504Y-116950204D02*
X179019773Y-116953804D01*
X179043571Y-116959765D01*
X179066671Y-116968030D01*
X179088849Y-116978520D01*
X179109893Y-116991133D01*
X179129598Y-117005747D01*
X179147777Y-117022223D01*
X179164253Y-117040402D01*
X179178867Y-117060107D01*
X179191480Y-117081151D01*
X179201970Y-117103329D01*
X179210235Y-117126429D01*
X179216196Y-117150227D01*
X179219796Y-117174496D01*
X179221000Y-117199000D01*
X179221000Y-117949000D01*
X179219796Y-117973504D01*
X179216196Y-117997773D01*
X179210235Y-118021571D01*
X179201970Y-118044671D01*
X179191480Y-118066849D01*
X179178867Y-118087893D01*
X179164253Y-118107598D01*
X179147777Y-118125777D01*
X179129598Y-118142253D01*
X179109893Y-118156867D01*
X179088849Y-118169480D01*
X179066671Y-118179970D01*
X179043571Y-118188235D01*
X179019773Y-118194196D01*
X178995504Y-118197796D01*
X178971000Y-118199000D01*
X177721000Y-118199000D01*
X177696496Y-118197796D01*
X177672227Y-118194196D01*
X177648429Y-118188235D01*
X177625329Y-118179970D01*
X177603151Y-118169480D01*
X177582107Y-118156867D01*
X177562402Y-118142253D01*
X177544223Y-118125777D01*
X177527747Y-118107598D01*
X177513133Y-118087893D01*
X177500520Y-118066849D01*
X177490030Y-118044671D01*
X177481765Y-118021571D01*
X177475804Y-117997773D01*
X177472204Y-117973504D01*
X177471000Y-117949000D01*
X177471000Y-117199000D01*
X177472204Y-117174496D01*
X177475804Y-117150227D01*
X177481765Y-117126429D01*
X177490030Y-117103329D01*
X177500520Y-117081151D01*
X177513133Y-117060107D01*
X177527747Y-117040402D01*
X177544223Y-117022223D01*
X177562402Y-117005747D01*
X177582107Y-116991133D01*
X177603151Y-116978520D01*
X177625329Y-116968030D01*
X177648429Y-116959765D01*
X177672227Y-116953804D01*
X177696496Y-116950204D01*
X177721000Y-116949000D01*
X178971000Y-116949000D01*
X178995504Y-116950204D01*
X178995504Y-116950204D01*
G37*
D11*
G04 #@! TD*
G04 #@! TO.P,R2,1*
G04 #@! TO.N,/A19*
X178346000Y-117574000D03*
D10*
G04 #@! TO.N,VCC*
G04 #@! TO.C,R3*
G36*
X175185504Y-119750204D02*
X175209773Y-119753804D01*
X175233571Y-119759765D01*
X175256671Y-119768030D01*
X175278849Y-119778520D01*
X175299893Y-119791133D01*
X175319598Y-119805747D01*
X175337777Y-119822223D01*
X175354253Y-119840402D01*
X175368867Y-119860107D01*
X175381480Y-119881151D01*
X175391970Y-119903329D01*
X175400235Y-119926429D01*
X175406196Y-119950227D01*
X175409796Y-119974496D01*
X175411000Y-119999000D01*
X175411000Y-120749000D01*
X175409796Y-120773504D01*
X175406196Y-120797773D01*
X175400235Y-120821571D01*
X175391970Y-120844671D01*
X175381480Y-120866849D01*
X175368867Y-120887893D01*
X175354253Y-120907598D01*
X175337777Y-120925777D01*
X175319598Y-120942253D01*
X175299893Y-120956867D01*
X175278849Y-120969480D01*
X175256671Y-120979970D01*
X175233571Y-120988235D01*
X175209773Y-120994196D01*
X175185504Y-120997796D01*
X175161000Y-120999000D01*
X173911000Y-120999000D01*
X173886496Y-120997796D01*
X173862227Y-120994196D01*
X173838429Y-120988235D01*
X173815329Y-120979970D01*
X173793151Y-120969480D01*
X173772107Y-120956867D01*
X173752402Y-120942253D01*
X173734223Y-120925777D01*
X173717747Y-120907598D01*
X173703133Y-120887893D01*
X173690520Y-120866849D01*
X173680030Y-120844671D01*
X173671765Y-120821571D01*
X173665804Y-120797773D01*
X173662204Y-120773504D01*
X173661000Y-120749000D01*
X173661000Y-119999000D01*
X173662204Y-119974496D01*
X173665804Y-119950227D01*
X173671765Y-119926429D01*
X173680030Y-119903329D01*
X173690520Y-119881151D01*
X173703133Y-119860107D01*
X173717747Y-119840402D01*
X173734223Y-119822223D01*
X173752402Y-119805747D01*
X173772107Y-119791133D01*
X173793151Y-119778520D01*
X173815329Y-119768030D01*
X173838429Y-119759765D01*
X173862227Y-119753804D01*
X173886496Y-119750204D01*
X173911000Y-119749000D01*
X175161000Y-119749000D01*
X175185504Y-119750204D01*
X175185504Y-119750204D01*
G37*
D11*
G04 #@! TD*
G04 #@! TO.P,R3,2*
G04 #@! TO.N,VCC*
X174536000Y-120374000D03*
D10*
G04 #@! TO.N,/A18*
G04 #@! TO.C,R3*
G36*
X175185504Y-116950204D02*
X175209773Y-116953804D01*
X175233571Y-116959765D01*
X175256671Y-116968030D01*
X175278849Y-116978520D01*
X175299893Y-116991133D01*
X175319598Y-117005747D01*
X175337777Y-117022223D01*
X175354253Y-117040402D01*
X175368867Y-117060107D01*
X175381480Y-117081151D01*
X175391970Y-117103329D01*
X175400235Y-117126429D01*
X175406196Y-117150227D01*
X175409796Y-117174496D01*
X175411000Y-117199000D01*
X175411000Y-117949000D01*
X175409796Y-117973504D01*
X175406196Y-117997773D01*
X175400235Y-118021571D01*
X175391970Y-118044671D01*
X175381480Y-118066849D01*
X175368867Y-118087893D01*
X175354253Y-118107598D01*
X175337777Y-118125777D01*
X175319598Y-118142253D01*
X175299893Y-118156867D01*
X175278849Y-118169480D01*
X175256671Y-118179970D01*
X175233571Y-118188235D01*
X175209773Y-118194196D01*
X175185504Y-118197796D01*
X175161000Y-118199000D01*
X173911000Y-118199000D01*
X173886496Y-118197796D01*
X173862227Y-118194196D01*
X173838429Y-118188235D01*
X173815329Y-118179970D01*
X173793151Y-118169480D01*
X173772107Y-118156867D01*
X173752402Y-118142253D01*
X173734223Y-118125777D01*
X173717747Y-118107598D01*
X173703133Y-118087893D01*
X173690520Y-118066849D01*
X173680030Y-118044671D01*
X173671765Y-118021571D01*
X173665804Y-117997773D01*
X173662204Y-117973504D01*
X173661000Y-117949000D01*
X173661000Y-117199000D01*
X173662204Y-117174496D01*
X173665804Y-117150227D01*
X173671765Y-117126429D01*
X173680030Y-117103329D01*
X173690520Y-117081151D01*
X173703133Y-117060107D01*
X173717747Y-117040402D01*
X173734223Y-117022223D01*
X173752402Y-117005747D01*
X173772107Y-116991133D01*
X173793151Y-116978520D01*
X173815329Y-116968030D01*
X173838429Y-116959765D01*
X173862227Y-116953804D01*
X173886496Y-116950204D01*
X173911000Y-116949000D01*
X175161000Y-116949000D01*
X175185504Y-116950204D01*
X175185504Y-116950204D01*
G37*
D11*
G04 #@! TD*
G04 #@! TO.P,R3,1*
G04 #@! TO.N,/A18*
X174536000Y-117574000D03*
D10*
G04 #@! TO.N,/N$4*
G04 #@! TO.C,R4*
G36*
X171375504Y-119750204D02*
X171399773Y-119753804D01*
X171423571Y-119759765D01*
X171446671Y-119768030D01*
X171468849Y-119778520D01*
X171489893Y-119791133D01*
X171509598Y-119805747D01*
X171527777Y-119822223D01*
X171544253Y-119840402D01*
X171558867Y-119860107D01*
X171571480Y-119881151D01*
X171581970Y-119903329D01*
X171590235Y-119926429D01*
X171596196Y-119950227D01*
X171599796Y-119974496D01*
X171601000Y-119999000D01*
X171601000Y-120749000D01*
X171599796Y-120773504D01*
X171596196Y-120797773D01*
X171590235Y-120821571D01*
X171581970Y-120844671D01*
X171571480Y-120866849D01*
X171558867Y-120887893D01*
X171544253Y-120907598D01*
X171527777Y-120925777D01*
X171509598Y-120942253D01*
X171489893Y-120956867D01*
X171468849Y-120969480D01*
X171446671Y-120979970D01*
X171423571Y-120988235D01*
X171399773Y-120994196D01*
X171375504Y-120997796D01*
X171351000Y-120999000D01*
X170101000Y-120999000D01*
X170076496Y-120997796D01*
X170052227Y-120994196D01*
X170028429Y-120988235D01*
X170005329Y-120979970D01*
X169983151Y-120969480D01*
X169962107Y-120956867D01*
X169942402Y-120942253D01*
X169924223Y-120925777D01*
X169907747Y-120907598D01*
X169893133Y-120887893D01*
X169880520Y-120866849D01*
X169870030Y-120844671D01*
X169861765Y-120821571D01*
X169855804Y-120797773D01*
X169852204Y-120773504D01*
X169851000Y-120749000D01*
X169851000Y-119999000D01*
X169852204Y-119974496D01*
X169855804Y-119950227D01*
X169861765Y-119926429D01*
X169870030Y-119903329D01*
X169880520Y-119881151D01*
X169893133Y-119860107D01*
X169907747Y-119840402D01*
X169924223Y-119822223D01*
X169942402Y-119805747D01*
X169962107Y-119791133D01*
X169983151Y-119778520D01*
X170005329Y-119768030D01*
X170028429Y-119759765D01*
X170052227Y-119753804D01*
X170076496Y-119750204D01*
X170101000Y-119749000D01*
X171351000Y-119749000D01*
X171375504Y-119750204D01*
X171375504Y-119750204D01*
G37*
D11*
G04 #@! TD*
G04 #@! TO.P,R4,2*
G04 #@! TO.N,/N$4*
X170726000Y-120374000D03*
D10*
G04 #@! TO.N,GND*
G04 #@! TO.C,R4*
G36*
X171375504Y-116950204D02*
X171399773Y-116953804D01*
X171423571Y-116959765D01*
X171446671Y-116968030D01*
X171468849Y-116978520D01*
X171489893Y-116991133D01*
X171509598Y-117005747D01*
X171527777Y-117022223D01*
X171544253Y-117040402D01*
X171558867Y-117060107D01*
X171571480Y-117081151D01*
X171581970Y-117103329D01*
X171590235Y-117126429D01*
X171596196Y-117150227D01*
X171599796Y-117174496D01*
X171601000Y-117199000D01*
X171601000Y-117949000D01*
X171599796Y-117973504D01*
X171596196Y-117997773D01*
X171590235Y-118021571D01*
X171581970Y-118044671D01*
X171571480Y-118066849D01*
X171558867Y-118087893D01*
X171544253Y-118107598D01*
X171527777Y-118125777D01*
X171509598Y-118142253D01*
X171489893Y-118156867D01*
X171468849Y-118169480D01*
X171446671Y-118179970D01*
X171423571Y-118188235D01*
X171399773Y-118194196D01*
X171375504Y-118197796D01*
X171351000Y-118199000D01*
X170101000Y-118199000D01*
X170076496Y-118197796D01*
X170052227Y-118194196D01*
X170028429Y-118188235D01*
X170005329Y-118179970D01*
X169983151Y-118169480D01*
X169962107Y-118156867D01*
X169942402Y-118142253D01*
X169924223Y-118125777D01*
X169907747Y-118107598D01*
X169893133Y-118087893D01*
X169880520Y-118066849D01*
X169870030Y-118044671D01*
X169861765Y-118021571D01*
X169855804Y-117997773D01*
X169852204Y-117973504D01*
X169851000Y-117949000D01*
X169851000Y-117199000D01*
X169852204Y-117174496D01*
X169855804Y-117150227D01*
X169861765Y-117126429D01*
X169870030Y-117103329D01*
X169880520Y-117081151D01*
X169893133Y-117060107D01*
X169907747Y-117040402D01*
X169924223Y-117022223D01*
X169942402Y-117005747D01*
X169962107Y-116991133D01*
X169983151Y-116978520D01*
X170005329Y-116968030D01*
X170028429Y-116959765D01*
X170052227Y-116953804D01*
X170076496Y-116950204D01*
X170101000Y-116949000D01*
X171351000Y-116949000D01*
X171375504Y-116950204D01*
X171375504Y-116950204D01*
G37*
D11*
G04 #@! TD*
G04 #@! TO.P,R4,1*
G04 #@! TO.N,GND*
X170726000Y-117574000D03*
D10*
G04 #@! TO.N,/N$1*
G04 #@! TO.C,R5*
G36*
X167565504Y-116950204D02*
X167589773Y-116953804D01*
X167613571Y-116959765D01*
X167636671Y-116968030D01*
X167658849Y-116978520D01*
X167679893Y-116991133D01*
X167699598Y-117005747D01*
X167717777Y-117022223D01*
X167734253Y-117040402D01*
X167748867Y-117060107D01*
X167761480Y-117081151D01*
X167771970Y-117103329D01*
X167780235Y-117126429D01*
X167786196Y-117150227D01*
X167789796Y-117174496D01*
X167791000Y-117199000D01*
X167791000Y-117949000D01*
X167789796Y-117973504D01*
X167786196Y-117997773D01*
X167780235Y-118021571D01*
X167771970Y-118044671D01*
X167761480Y-118066849D01*
X167748867Y-118087893D01*
X167734253Y-118107598D01*
X167717777Y-118125777D01*
X167699598Y-118142253D01*
X167679893Y-118156867D01*
X167658849Y-118169480D01*
X167636671Y-118179970D01*
X167613571Y-118188235D01*
X167589773Y-118194196D01*
X167565504Y-118197796D01*
X167541000Y-118199000D01*
X166291000Y-118199000D01*
X166266496Y-118197796D01*
X166242227Y-118194196D01*
X166218429Y-118188235D01*
X166195329Y-118179970D01*
X166173151Y-118169480D01*
X166152107Y-118156867D01*
X166132402Y-118142253D01*
X166114223Y-118125777D01*
X166097747Y-118107598D01*
X166083133Y-118087893D01*
X166070520Y-118066849D01*
X166060030Y-118044671D01*
X166051765Y-118021571D01*
X166045804Y-117997773D01*
X166042204Y-117973504D01*
X166041000Y-117949000D01*
X166041000Y-117199000D01*
X166042204Y-117174496D01*
X166045804Y-117150227D01*
X166051765Y-117126429D01*
X166060030Y-117103329D01*
X166070520Y-117081151D01*
X166083133Y-117060107D01*
X166097747Y-117040402D01*
X166114223Y-117022223D01*
X166132402Y-117005747D01*
X166152107Y-116991133D01*
X166173151Y-116978520D01*
X166195329Y-116968030D01*
X166218429Y-116959765D01*
X166242227Y-116953804D01*
X166266496Y-116950204D01*
X166291000Y-116949000D01*
X167541000Y-116949000D01*
X167565504Y-116950204D01*
X167565504Y-116950204D01*
G37*
D11*
G04 #@! TD*
G04 #@! TO.P,R5,2*
G04 #@! TO.N,/N$1*
X166916000Y-117574000D03*
D10*
G04 #@! TO.N,VCC*
G04 #@! TO.C,R5*
G36*
X167565504Y-119750204D02*
X167589773Y-119753804D01*
X167613571Y-119759765D01*
X167636671Y-119768030D01*
X167658849Y-119778520D01*
X167679893Y-119791133D01*
X167699598Y-119805747D01*
X167717777Y-119822223D01*
X167734253Y-119840402D01*
X167748867Y-119860107D01*
X167761480Y-119881151D01*
X167771970Y-119903329D01*
X167780235Y-119926429D01*
X167786196Y-119950227D01*
X167789796Y-119974496D01*
X167791000Y-119999000D01*
X167791000Y-120749000D01*
X167789796Y-120773504D01*
X167786196Y-120797773D01*
X167780235Y-120821571D01*
X167771970Y-120844671D01*
X167761480Y-120866849D01*
X167748867Y-120887893D01*
X167734253Y-120907598D01*
X167717777Y-120925777D01*
X167699598Y-120942253D01*
X167679893Y-120956867D01*
X167658849Y-120969480D01*
X167636671Y-120979970D01*
X167613571Y-120988235D01*
X167589773Y-120994196D01*
X167565504Y-120997796D01*
X167541000Y-120999000D01*
X166291000Y-120999000D01*
X166266496Y-120997796D01*
X166242227Y-120994196D01*
X166218429Y-120988235D01*
X166195329Y-120979970D01*
X166173151Y-120969480D01*
X166152107Y-120956867D01*
X166132402Y-120942253D01*
X166114223Y-120925777D01*
X166097747Y-120907598D01*
X166083133Y-120887893D01*
X166070520Y-120866849D01*
X166060030Y-120844671D01*
X166051765Y-120821571D01*
X166045804Y-120797773D01*
X166042204Y-120773504D01*
X166041000Y-120749000D01*
X166041000Y-119999000D01*
X166042204Y-119974496D01*
X166045804Y-119950227D01*
X166051765Y-119926429D01*
X166060030Y-119903329D01*
X166070520Y-119881151D01*
X166083133Y-119860107D01*
X166097747Y-119840402D01*
X166114223Y-119822223D01*
X166132402Y-119805747D01*
X166152107Y-119791133D01*
X166173151Y-119778520D01*
X166195329Y-119768030D01*
X166218429Y-119759765D01*
X166242227Y-119753804D01*
X166266496Y-119750204D01*
X166291000Y-119749000D01*
X167541000Y-119749000D01*
X167565504Y-119750204D01*
X167565504Y-119750204D01*
G37*
D11*
G04 #@! TD*
G04 #@! TO.P,R5,1*
G04 #@! TO.N,VCC*
X166916000Y-120374000D03*
D12*
G04 #@! TO.P,Q1,E*
G04 #@! TO.N,/VPP*
X161665820Y-118026580D03*
G04 #@! TO.P,Q1,C*
G04 #@! TO.N,/N$4*
X159466180Y-118974000D03*
G04 #@! TO.P,Q1,B*
G04 #@! TO.N,/N$1*
X161665820Y-119923960D03*
G04 #@! TD*
D13*
G04 #@! TO.P,U1,1*
G04 #@! TO.N,/VPP*
X130086000Y-109959000D03*
G04 #@! TO.P,U1,2*
G04 #@! TO.N,/E*
X132626000Y-109959000D03*
G04 #@! TO.P,U1,3*
G04 #@! TO.N,/D15*
X135166000Y-109959000D03*
G04 #@! TO.P,U1,4*
G04 #@! TO.N,/D14*
X137706000Y-109959000D03*
G04 #@! TO.P,U1,5*
G04 #@! TO.N,/D13*
X140246000Y-109959000D03*
G04 #@! TO.P,U1,6*
G04 #@! TO.N,/D12*
X142786000Y-109959000D03*
G04 #@! TO.P,U1,7*
G04 #@! TO.N,/D11*
X145326000Y-109959000D03*
G04 #@! TO.P,U1,8*
G04 #@! TO.N,/D10*
X147866000Y-109959000D03*
G04 #@! TO.P,U1,9*
G04 #@! TO.N,/D9*
X150406000Y-109959000D03*
G04 #@! TO.P,U1,10*
G04 #@! TO.N,/D8*
X152946000Y-109959000D03*
G04 #@! TO.P,U1,11*
G04 #@! TO.N,GND*
X155486000Y-109959000D03*
G04 #@! TO.P,U1,12*
G04 #@! TO.N,/D7*
X158026000Y-109959000D03*
G04 #@! TO.P,U1,13*
G04 #@! TO.N,/D6*
X160566000Y-109959000D03*
G04 #@! TO.P,U1,14*
G04 #@! TO.N,/D5*
X163106000Y-109959000D03*
G04 #@! TO.P,U1,15*
G04 #@! TO.N,/D4*
X165646000Y-109959000D03*
G04 #@! TO.P,U1,16*
G04 #@! TO.N,/D3*
X168186000Y-109959000D03*
G04 #@! TO.P,U1,17*
G04 #@! TO.N,/D2*
X170726000Y-109959000D03*
G04 #@! TO.P,U1,18*
G04 #@! TO.N,/D1*
X173266000Y-109959000D03*
G04 #@! TO.P,U1,19*
G04 #@! TO.N,/D0*
X175806000Y-109959000D03*
G04 #@! TO.P,U1,20*
G04 #@! TO.N,/N$5*
X178346000Y-109959000D03*
G04 #@! TO.P,U1,21*
G04 #@! TO.N,/A0*
X178346000Y-94969000D03*
G04 #@! TO.P,U1,22*
G04 #@! TO.N,/A1*
X175806000Y-94969000D03*
G04 #@! TO.P,U1,23*
G04 #@! TO.N,/A2*
X173266000Y-94969000D03*
G04 #@! TO.P,U1,24*
G04 #@! TO.N,/A3*
X170726000Y-94969000D03*
G04 #@! TO.P,U1,25*
G04 #@! TO.N,/A4*
X168186000Y-94969000D03*
G04 #@! TO.P,U1,26*
G04 #@! TO.N,/A5*
X165646000Y-94969000D03*
G04 #@! TO.P,U1,27*
G04 #@! TO.N,/A6*
X163106000Y-94969000D03*
G04 #@! TO.P,U1,28*
G04 #@! TO.N,/A7*
X160566000Y-94969000D03*
G04 #@! TO.P,U1,29*
G04 #@! TO.N,/A8*
X158026000Y-94969000D03*
G04 #@! TO.P,U1,30*
G04 #@! TO.N,GND*
X155486000Y-94969000D03*
G04 #@! TO.P,U1,31*
G04 #@! TO.N,/A9*
X152946000Y-94969000D03*
G04 #@! TO.P,U1,32*
G04 #@! TO.N,/A10*
X150406000Y-94969000D03*
G04 #@! TO.P,U1,33*
G04 #@! TO.N,/A11*
X147866000Y-94969000D03*
G04 #@! TO.P,U1,34*
G04 #@! TO.N,/A12*
X145326000Y-94969000D03*
G04 #@! TO.P,U1,35*
G04 #@! TO.N,/A13*
X142786000Y-94969000D03*
G04 #@! TO.P,U1,36*
G04 #@! TO.N,/A14*
X140246000Y-94969000D03*
G04 #@! TO.P,U1,37*
G04 #@! TO.N,/A15*
X137706000Y-94969000D03*
G04 #@! TO.P,U1,38*
G04 #@! TO.N,/A16*
X135166000Y-94969000D03*
G04 #@! TO.P,U1,39*
G04 #@! TO.N,/A17*
X132626000Y-94969000D03*
G04 #@! TO.P,U1,40*
G04 #@! TO.N,VCC*
X130086000Y-94969000D03*
G04 #@! TD*
D14*
G04 #@! TO.P,SW2,1*
G04 #@! TO.N,/A18*
X149136000Y-122784000D03*
G04 #@! TO.P,SW2,2*
G04 #@! TO.N,/A19*
X151676000Y-122784000D03*
G04 #@! TO.P,SW2,3*
G04 #@! TO.N,/A20*
X154216000Y-122784000D03*
G04 #@! TO.P,SW2,4*
G04 #@! TO.N,GND*
X154216000Y-115164000D03*
G04 #@! TO.P,SW2,6*
X149136000Y-115164000D03*
G04 #@! TO.P,SW2,5*
X151676000Y-115164000D03*
G04 #@! TD*
D15*
G04 #@! TO.P,SW1,2*
G04 #@! TO.N,/N$2*
X131086000Y-118974000D03*
G04 #@! TO.P,SW1,5*
G04 #@! TO.N,/N$6*
X133626000Y-118974000D03*
G04 #@! TO.P,SW1,1*
G04 #@! TO.N,/VPP*
X131086000Y-121514000D03*
G04 #@! TO.P,SW1,3*
G04 #@! TO.N,/A20*
X131086000Y-116434000D03*
G04 #@! TO.P,SW1,4*
G04 #@! TO.N,/N$5*
X133626000Y-121514000D03*
G04 #@! TO.P,SW1,6*
G04 #@! TO.N,/N$4*
X133626000Y-116434000D03*
G04 #@! TD*
D13*
G04 #@! TO.P,ZX1,1*
G04 #@! TO.N,N/C*
X118021000Y-103733600D03*
G04 #@! TO.P,ZX1,2*
X120561000Y-103733600D03*
G04 #@! TO.P,ZX1,3*
X123101000Y-103733600D03*
G04 #@! TO.P,ZX1,4*
G04 #@! TO.N,/A18*
X125641000Y-103733600D03*
G04 #@! TO.P,ZX1,5*
G04 #@! TO.N,/A17*
X128181000Y-103733600D03*
G04 #@! TO.P,ZX1,6*
G04 #@! TO.N,/A7*
X130721000Y-103733600D03*
G04 #@! TO.P,ZX1,7*
G04 #@! TO.N,/A6*
X133261000Y-103733600D03*
G04 #@! TO.P,ZX1,8*
G04 #@! TO.N,/A5*
X135801000Y-103733600D03*
G04 #@! TO.P,ZX1,9*
G04 #@! TO.N,/A4*
X138341000Y-103733600D03*
G04 #@! TO.P,ZX1,10*
G04 #@! TO.N,/A3*
X140881000Y-103733600D03*
G04 #@! TO.P,ZX1,11*
G04 #@! TO.N,/A2*
X143421000Y-103733600D03*
G04 #@! TO.P,ZX1,12*
G04 #@! TO.N,/A1*
X145961000Y-103733600D03*
G04 #@! TO.P,ZX1,13*
G04 #@! TO.N,/A0*
X148501000Y-103733600D03*
G04 #@! TO.P,ZX1,14*
G04 #@! TO.N,/E*
X151041000Y-103733600D03*
G04 #@! TO.P,ZX1,15*
G04 #@! TO.N,GND*
X153581000Y-103733600D03*
G04 #@! TO.P,ZX1,16*
G04 #@! TO.N,/N$6*
X156121000Y-103733600D03*
G04 #@! TO.P,ZX1,17*
G04 #@! TO.N,/D0*
X158661000Y-103733600D03*
G04 #@! TO.P,ZX1,18*
G04 #@! TO.N,/D8*
X161201000Y-103733600D03*
G04 #@! TO.P,ZX1,19*
G04 #@! TO.N,/D1*
X163741000Y-103733600D03*
G04 #@! TO.P,ZX1,20*
G04 #@! TO.N,/D9*
X166281000Y-103733600D03*
G04 #@! TO.P,ZX1,21*
G04 #@! TO.N,/D2*
X168821000Y-103733600D03*
G04 #@! TO.P,ZX1,22*
G04 #@! TO.N,/D10*
X171361000Y-103733600D03*
G04 #@! TO.P,ZX1,23*
G04 #@! TO.N,/D3*
X173901000Y-103733600D03*
G04 #@! TO.P,ZX1,24*
G04 #@! TO.N,/D11*
X176441000Y-103733600D03*
G04 #@! TO.P,ZX1,25*
G04 #@! TO.N,VCC*
X176441000Y-88493600D03*
G04 #@! TO.P,ZX1,26*
G04 #@! TO.N,/D4*
X173901000Y-88493600D03*
G04 #@! TO.P,ZX1,27*
G04 #@! TO.N,/D12*
X171361000Y-88493600D03*
G04 #@! TO.P,ZX1,28*
G04 #@! TO.N,/D5*
X168821000Y-88493600D03*
G04 #@! TO.P,ZX1,29*
G04 #@! TO.N,/D13*
X166281000Y-88493600D03*
G04 #@! TO.P,ZX1,30*
G04 #@! TO.N,/D6*
X163741000Y-88493600D03*
G04 #@! TO.P,ZX1,31*
G04 #@! TO.N,/D14*
X161201000Y-88493600D03*
G04 #@! TO.P,ZX1,32*
G04 #@! TO.N,/D7*
X158661000Y-88493600D03*
G04 #@! TO.P,ZX1,33*
G04 #@! TO.N,/D15*
X156121000Y-88493600D03*
G04 #@! TO.P,ZX1,34*
G04 #@! TO.N,GND*
X153581000Y-88493600D03*
G04 #@! TO.P,ZX1,35*
G04 #@! TO.N,/N$2*
X151041000Y-88493600D03*
G04 #@! TO.P,ZX1,36*
G04 #@! TO.N,/A16*
X148501000Y-88493600D03*
G04 #@! TO.P,ZX1,37*
G04 #@! TO.N,/A15*
X145961000Y-88493600D03*
G04 #@! TO.P,ZX1,38*
G04 #@! TO.N,/A14*
X143421000Y-88493600D03*
G04 #@! TO.P,ZX1,39*
G04 #@! TO.N,/A13*
X140881000Y-88493600D03*
G04 #@! TO.P,ZX1,40*
G04 #@! TO.N,/A12*
X138341000Y-88493600D03*
G04 #@! TO.P,ZX1,41*
G04 #@! TO.N,/A11*
X135801000Y-88493600D03*
G04 #@! TO.P,ZX1,42*
G04 #@! TO.N,/A10*
X133261000Y-88493600D03*
G04 #@! TO.P,ZX1,43*
G04 #@! TO.N,/A9*
X130721000Y-88493600D03*
G04 #@! TO.P,ZX1,44*
G04 #@! TO.N,/A8*
X128181000Y-88493600D03*
G04 #@! TO.P,ZX1,45*
G04 #@! TO.N,/A19*
X125641000Y-88493600D03*
G04 #@! TO.P,ZX1,46*
G04 #@! TO.N,N/C*
X123101000Y-88493600D03*
G04 #@! TO.P,ZX1,47*
X120561000Y-88493600D03*
G04 #@! TO.P,ZX1,48*
X118021000Y-88493600D03*
G04 #@! TD*
D16*
G04 #@! TO.N,/A19*
X161056800Y-120902300D03*
G04 #@! TO.N,/A18*
X152478900Y-116670200D03*
G04 #@! TD*
D17*
G04 #@! TO.N,GND*
X155486000Y-94969000D02*
X155486000Y-93191300D01*
X153581000Y-88493600D02*
X153581000Y-91286300D01*
X153581000Y-91286300D02*
X155486000Y-93191300D01*
X149136000Y-115164000D02*
X149136000Y-113667100D01*
X151676000Y-113837000D02*
X151676000Y-113667100D01*
X151676000Y-115164000D02*
X151676000Y-113837000D01*
X149136000Y-113667100D02*
X151506100Y-113667100D01*
X151506100Y-113667100D02*
X151676000Y-113837000D01*
X151676000Y-113667100D02*
X154216000Y-113667100D01*
X155486000Y-112397100D02*
X154216000Y-113667100D01*
X155486000Y-111636000D02*
X155486000Y-112397100D01*
X155486000Y-112397100D02*
X165549100Y-112397100D01*
X165549100Y-112397100D02*
X170726000Y-117574000D01*
X154216000Y-115164000D02*
X154216000Y-113667100D01*
X155486000Y-109959000D02*
X155486000Y-111636000D01*
G04 #@! TO.N,VCC*
X130086000Y-96746700D02*
X130900600Y-97561300D01*
X130900600Y-97561300D02*
X157645000Y-97561300D01*
X157645000Y-97561300D02*
X159296000Y-95910300D01*
X159296000Y-95910300D02*
X159296000Y-93972700D01*
X159296000Y-93972700D02*
X162461400Y-90807300D01*
X162461400Y-90807300D02*
X176441000Y-90807300D01*
X179528600Y-119191400D02*
X179528600Y-93894900D01*
X179528600Y-93894900D02*
X176441000Y-90807300D01*
X176441000Y-90271300D02*
X176441000Y-90807300D01*
X130086000Y-94969000D02*
X130086000Y-96746700D01*
X179528600Y-119191400D02*
X178346000Y-120374000D01*
X182156000Y-120374000D02*
X180973400Y-119191400D01*
X180973400Y-119191400D02*
X179528600Y-119191400D01*
X176441000Y-88493600D02*
X176441000Y-90271300D01*
X174536000Y-120374000D02*
X178346000Y-120374000D01*
X166916000Y-120374000D02*
X167819800Y-119470200D01*
X167819800Y-119470200D02*
X173632200Y-119470200D01*
X173632200Y-119470200D02*
X174536000Y-120374000D01*
G04 #@! TO.N,/N$4*
X159466200Y-118974000D02*
X158488700Y-118974000D01*
X133626000Y-116434000D02*
X136166000Y-118974000D01*
X136166000Y-118974000D02*
X158488700Y-118974000D01*
X159466200Y-119750800D02*
X159466200Y-120132200D01*
X159466200Y-120132200D02*
X160879300Y-121545300D01*
X160879300Y-121545300D02*
X169554700Y-121545300D01*
X169554700Y-121545300D02*
X170726000Y-120374000D01*
X159466200Y-118974000D02*
X159466200Y-119750800D01*
G04 #@! TO.N,/VPP*
X161665800Y-118026600D02*
X149146200Y-118026600D01*
X149146200Y-118026600D02*
X146412200Y-115292600D01*
X146412200Y-115292600D02*
X130086000Y-115292600D01*
X131086000Y-121514000D02*
X129922600Y-120350600D01*
X129922600Y-120350600D02*
X129922600Y-115456000D01*
X129922600Y-115456000D02*
X130086000Y-115292600D01*
X130086000Y-115292600D02*
X130086000Y-111736700D01*
X130086000Y-109959000D02*
X130086000Y-111736700D01*
G04 #@! TO.N,/N$1*
X166916000Y-117574000D02*
X164566000Y-119924000D01*
X164566000Y-119924000D02*
X161665800Y-119924000D01*
G04 #@! TO.N,/A20*
X131086000Y-116434000D02*
X132213500Y-117561500D01*
X132213500Y-117561500D02*
X134183800Y-117561500D01*
X134183800Y-117561500D02*
X136373200Y-119750900D01*
X136373200Y-119750900D02*
X151809000Y-119750900D01*
X151809000Y-119750900D02*
X154216000Y-122157900D01*
X154216000Y-122157900D02*
X182127100Y-122157900D01*
X182127100Y-122157900D02*
X183341100Y-120943900D01*
X183341100Y-120943900D02*
X183341100Y-118759100D01*
X183341100Y-118759100D02*
X182156000Y-117574000D01*
X154216000Y-122784000D02*
X154216000Y-122157900D01*
G04 #@! TO.N,/A19*
X161056800Y-120902300D02*
X164641500Y-120902300D01*
X164641500Y-120902300D02*
X166569800Y-118974000D01*
X166569800Y-118974000D02*
X176946000Y-118974000D01*
X176946000Y-118974000D02*
X178346000Y-117574000D01*
G04 #@! TO.N,/A18*
X125641000Y-103733600D02*
X125641000Y-105511300D01*
X125641000Y-105511300D02*
X127948300Y-105511300D01*
X127948300Y-105511300D02*
X131356000Y-108919000D01*
X131356000Y-108919000D02*
X131356000Y-110975100D01*
X131356000Y-110975100D02*
X132520400Y-112139500D01*
X132520400Y-112139500D02*
X143836400Y-112139500D01*
X143836400Y-112139500D02*
X148367100Y-116670200D01*
X148367100Y-116670200D02*
X152478900Y-116670200D01*
X152478900Y-116670200D02*
X167779800Y-116670200D01*
X167779800Y-116670200D02*
X169618500Y-118508900D01*
X169618500Y-118508900D02*
X173601100Y-118508900D01*
X173601100Y-118508900D02*
X174536000Y-117574000D01*
G04 #@! TO.N,/E*
X132626000Y-109959000D02*
X132626000Y-108181300D01*
X151041000Y-103733600D02*
X151041000Y-105511300D01*
X151041000Y-105511300D02*
X135296000Y-105511300D01*
X135296000Y-105511300D02*
X132626000Y-108181300D01*
G04 #@! TO.N,/D11*
X145326000Y-108181300D02*
X146131300Y-107376000D01*
X146131300Y-107376000D02*
X152165800Y-107376000D01*
X152165800Y-107376000D02*
X154851000Y-104690800D01*
X154851000Y-104690800D02*
X154851000Y-102790700D01*
X154851000Y-102790700D02*
X156121600Y-101520100D01*
X156121600Y-101520100D02*
X159257000Y-101520100D01*
X159257000Y-101520100D02*
X159659700Y-101117400D01*
X159659700Y-101117400D02*
X175602500Y-101117400D01*
X175602500Y-101117400D02*
X176441000Y-101955900D01*
X176441000Y-103733600D02*
X176441000Y-101955900D01*
X145326000Y-109959000D02*
X145326000Y-108181300D01*
G04 #@! TO.N,/D10*
X147866000Y-108181300D02*
X158986900Y-108181300D01*
X158986900Y-108181300D02*
X162471000Y-104697200D01*
X162471000Y-104697200D02*
X162471000Y-102734200D01*
X162471000Y-102734200D02*
X163249300Y-101955900D01*
X163249300Y-101955900D02*
X171361000Y-101955900D01*
X147866000Y-109959000D02*
X147866000Y-108181300D01*
X171361000Y-103733600D02*
X171361000Y-101955900D01*
G04 #@! TO.N,/D2*
X170726000Y-109959000D02*
X170726000Y-108181300D01*
X168821000Y-103733600D02*
X168821000Y-106276300D01*
X168821000Y-106276300D02*
X170726000Y-108181300D01*
G04 #@! TO.N,/D1*
X173266000Y-109959000D02*
X173266000Y-111736700D01*
X163741000Y-103733600D02*
X163741000Y-105511300D01*
X163741000Y-105511300D02*
X165985300Y-105511300D01*
X165985300Y-105511300D02*
X169456000Y-108982000D01*
X169456000Y-108982000D02*
X169456000Y-110921200D01*
X169456000Y-110921200D02*
X170271500Y-111736700D01*
X170271500Y-111736700D02*
X173266000Y-111736700D01*
G04 #@! TO.N,/D0*
X158661000Y-101955900D02*
X159390800Y-101955900D01*
X159390800Y-101955900D02*
X159798400Y-101548300D01*
X159798400Y-101548300D02*
X171524300Y-101548300D01*
X171524300Y-101548300D02*
X172631000Y-102655000D01*
X172631000Y-102655000D02*
X172631000Y-105006300D01*
X172631000Y-105006300D02*
X175806000Y-108181300D01*
X175806000Y-109959000D02*
X175806000Y-108181300D01*
X158661000Y-103733600D02*
X158661000Y-101955900D01*
G04 #@! TO.N,/A0*
X148501000Y-101955900D02*
X149339500Y-101117400D01*
X149339500Y-101117400D02*
X159090100Y-101117400D01*
X159090100Y-101117400D02*
X159492800Y-100714700D01*
X159492800Y-100714700D02*
X174378000Y-100714700D01*
X174378000Y-100714700D02*
X178346000Y-96746700D01*
X178346000Y-94969000D02*
X178346000Y-96746700D01*
X148501000Y-103733600D02*
X148501000Y-101955900D01*
G04 #@! TO.N,/A1*
X145961000Y-101955900D02*
X147202200Y-100714700D01*
X147202200Y-100714700D02*
X158923200Y-100714700D01*
X158923200Y-100714700D02*
X159325900Y-100312000D01*
X159325900Y-100312000D02*
X172240700Y-100312000D01*
X172240700Y-100312000D02*
X175806000Y-96746700D01*
X175806000Y-94969000D02*
X175806000Y-96746700D01*
X145961000Y-103733600D02*
X145961000Y-101955900D01*
G04 #@! TO.N,/A2*
X143421000Y-101955900D02*
X145064900Y-100312000D01*
X145064900Y-100312000D02*
X158756300Y-100312000D01*
X158756300Y-100312000D02*
X159159000Y-99909300D01*
X159159000Y-99909300D02*
X170103400Y-99909300D01*
X170103400Y-99909300D02*
X173266000Y-96746700D01*
X143421000Y-103733600D02*
X143421000Y-101955900D01*
X173266000Y-94969000D02*
X173266000Y-96746700D01*
G04 #@! TO.N,/A3*
X140881000Y-101955900D02*
X142927600Y-99909300D01*
X142927600Y-99909300D02*
X158589400Y-99909300D01*
X158589400Y-99909300D02*
X158992100Y-99506600D01*
X158992100Y-99506600D02*
X167966100Y-99506600D01*
X167966100Y-99506600D02*
X170726000Y-96746700D01*
X140881000Y-103733600D02*
X140881000Y-101955900D01*
X170726000Y-94969000D02*
X170726000Y-96746700D01*
G04 #@! TO.N,/A4*
X138341000Y-101955900D02*
X140790300Y-99506600D01*
X140790300Y-99506600D02*
X158422500Y-99506600D01*
X158422500Y-99506600D02*
X158825200Y-99103900D01*
X158825200Y-99103900D02*
X165828800Y-99103900D01*
X165828800Y-99103900D02*
X168186000Y-96746700D01*
X168186000Y-94969000D02*
X168186000Y-96746700D01*
X138341000Y-103733600D02*
X138341000Y-101955900D01*
G04 #@! TO.N,/A5*
X135801000Y-101955900D02*
X138653000Y-99103900D01*
X138653000Y-99103900D02*
X158255600Y-99103900D01*
X158255600Y-99103900D02*
X158658300Y-98701200D01*
X158658300Y-98701200D02*
X163691500Y-98701200D01*
X163691500Y-98701200D02*
X165646000Y-96746700D01*
X165646000Y-94969000D02*
X165646000Y-96746700D01*
X135801000Y-103733600D02*
X135801000Y-101955900D01*
G04 #@! TO.N,/A6*
X133261000Y-101955900D02*
X136515700Y-98701200D01*
X136515700Y-98701200D02*
X158088700Y-98701200D01*
X158088700Y-98701200D02*
X160043200Y-96746700D01*
X160043200Y-96746700D02*
X163106000Y-96746700D01*
X163106000Y-94969000D02*
X163106000Y-96746700D01*
X133261000Y-103733600D02*
X133261000Y-101955900D01*
G04 #@! TO.N,/A7*
X130721000Y-103733600D02*
X130721000Y-101955900D01*
X130721000Y-101955900D02*
X134579700Y-98097200D01*
X134579700Y-98097200D02*
X157679700Y-98097200D01*
X157679700Y-98097200D02*
X160566000Y-95210900D01*
X160566000Y-95210900D02*
X160566000Y-94969000D01*
G04 #@! TO.N,/A8*
X128181000Y-88493600D02*
X128181000Y-90271300D01*
X128181000Y-90271300D02*
X130758600Y-92848900D01*
X130758600Y-92848900D02*
X135273000Y-92848900D01*
X135273000Y-92848900D02*
X136436000Y-94011900D01*
X136436000Y-94011900D02*
X136436000Y-95911900D01*
X136436000Y-95911900D02*
X137682600Y-97158500D01*
X137682600Y-97158500D02*
X155836500Y-97158500D01*
X155836500Y-97158500D02*
X158026000Y-94969000D01*
G04 #@! TO.N,/A9*
X152946000Y-93191300D02*
X150933100Y-93191300D01*
X150933100Y-93191300D02*
X147088500Y-89346700D01*
X147088500Y-89346700D02*
X147088500Y-87329700D01*
X147088500Y-87329700D02*
X146072000Y-86313200D01*
X146072000Y-86313200D02*
X131123700Y-86313200D01*
X131123700Y-86313200D02*
X130721000Y-86715900D01*
X130721000Y-88493600D02*
X130721000Y-86715900D01*
X152946000Y-94969000D02*
X152946000Y-93191300D01*
G04 #@! TO.N,/A10*
X133261000Y-90271300D02*
X134066400Y-91076700D01*
X134066400Y-91076700D02*
X141164200Y-91076700D01*
X141164200Y-91076700D02*
X144056000Y-93968500D01*
X144056000Y-93968500D02*
X144056000Y-95923400D01*
X144056000Y-95923400D02*
X144879300Y-96746700D01*
X144879300Y-96746700D02*
X150406000Y-96746700D01*
X150406000Y-94969000D02*
X150406000Y-96746700D01*
X133261000Y-88493600D02*
X133261000Y-90271300D01*
G04 #@! TO.N,/A11*
X135801000Y-88493600D02*
X135801000Y-86715900D01*
X147866000Y-94969000D02*
X147866000Y-93191300D01*
X135801000Y-86715900D02*
X138792600Y-86715900D01*
X138792600Y-86715900D02*
X139611000Y-87534300D01*
X139611000Y-87534300D02*
X139611000Y-89479600D01*
X139611000Y-89479600D02*
X140402700Y-90271300D01*
X140402700Y-90271300D02*
X144946000Y-90271300D01*
X144946000Y-90271300D02*
X147866000Y-93191300D01*
G04 #@! TO.N,/A12*
X138341000Y-90271300D02*
X138743700Y-90674000D01*
X138743700Y-90674000D02*
X142808700Y-90674000D01*
X142808700Y-90674000D02*
X145326000Y-93191300D01*
X145326000Y-94969000D02*
X145326000Y-93191300D01*
X138341000Y-88493600D02*
X138341000Y-90271300D01*
G04 #@! TD*
D18*
G04 #@! TO.N,VCC*
G36*
X188823390Y-83732572D02*
X189135916Y-83913011D01*
X189367879Y-84189453D01*
X189494780Y-84538109D01*
X189510600Y-84718932D01*
X189510601Y-125327999D01*
X189445564Y-125677205D01*
X189270384Y-125961401D01*
X189004639Y-126163477D01*
X188668850Y-126260716D01*
X188589433Y-126264600D01*
X128798995Y-126264600D01*
X128449795Y-126199564D01*
X128165599Y-126024384D01*
X127963523Y-125758639D01*
X127866284Y-125422850D01*
X127862400Y-125343433D01*
X127862400Y-109959603D01*
X127861309Y-109954116D01*
X127856674Y-109859355D01*
X127855675Y-109855146D01*
X127856097Y-109850842D01*
X127847971Y-109807211D01*
X127731549Y-109405176D01*
X127722691Y-109387564D01*
X127717422Y-109368564D01*
X127694245Y-109330964D01*
X127695959Y-108786059D01*
X127686445Y-108737428D01*
X127659045Y-108696140D01*
X127617930Y-108668481D01*
X127568610Y-108658660D01*
X126777397Y-108660843D01*
X126534999Y-108615698D01*
X126514397Y-108611600D01*
X108478995Y-108611600D01*
X108129795Y-108546564D01*
X107845599Y-108371384D01*
X107643523Y-108105639D01*
X107546284Y-107769850D01*
X107542400Y-107690433D01*
X107542400Y-102882215D01*
X116991600Y-102882215D01*
X116991601Y-104584986D01*
X117051328Y-104885252D01*
X117278845Y-105225756D01*
X117619349Y-105453273D01*
X118021000Y-105533167D01*
X118422652Y-105453273D01*
X118763156Y-105225756D01*
X118990673Y-104885252D01*
X119050400Y-104584986D01*
X119050400Y-102882215D01*
X119531600Y-102882215D01*
X119531601Y-104584986D01*
X119591328Y-104885252D01*
X119818845Y-105225756D01*
X120159349Y-105453273D01*
X120561000Y-105533167D01*
X120962652Y-105453273D01*
X121303156Y-105225756D01*
X121530673Y-104885252D01*
X121590400Y-104584986D01*
X121590400Y-102882215D01*
X122071600Y-102882215D01*
X122071601Y-104584986D01*
X122131328Y-104885252D01*
X122358845Y-105225756D01*
X122699349Y-105453273D01*
X123101000Y-105533167D01*
X123502652Y-105453273D01*
X123843156Y-105225756D01*
X124070673Y-104885252D01*
X124130400Y-104584986D01*
X124130400Y-102882215D01*
X124611600Y-102882215D01*
X124611601Y-104584986D01*
X124671328Y-104885252D01*
X124898845Y-105225756D01*
X125236601Y-105451437D01*
X125236601Y-105471468D01*
X125228678Y-105511300D01*
X125260064Y-105669089D01*
X125349444Y-105802856D01*
X125483211Y-105892236D01*
X125601173Y-105915700D01*
X125641000Y-105923622D01*
X125680827Y-105915700D01*
X127780793Y-105915700D01*
X130034725Y-108169632D01*
X129684348Y-108239327D01*
X129343844Y-108466844D01*
X129116327Y-108807349D01*
X129056600Y-109107615D01*
X129056601Y-110810386D01*
X129116328Y-111110652D01*
X129343845Y-111451156D01*
X129681601Y-111676837D01*
X129681601Y-111696873D01*
X129681600Y-115125093D01*
X129664810Y-115141883D01*
X129631045Y-115164444D01*
X129608485Y-115198208D01*
X129541664Y-115298212D01*
X129510278Y-115456000D01*
X129518201Y-115495832D01*
X129518200Y-120310773D01*
X129510278Y-120350600D01*
X129518200Y-120390426D01*
X129541664Y-120508388D01*
X129631044Y-120642156D01*
X129664812Y-120664719D01*
X130063118Y-121063026D01*
X129968400Y-121291696D01*
X129968400Y-121736304D01*
X130138545Y-122147070D01*
X130452930Y-122461455D01*
X130863696Y-122631600D01*
X131308304Y-122631600D01*
X131719070Y-122461455D01*
X132033455Y-122147070D01*
X132203600Y-121736304D01*
X132203600Y-121291696D01*
X132508400Y-121291696D01*
X132508400Y-121736304D01*
X132678545Y-122147070D01*
X132992930Y-122461455D01*
X133403696Y-122631600D01*
X133848304Y-122631600D01*
X134259070Y-122461455D01*
X134573455Y-122147070D01*
X134598401Y-122086845D01*
X148247000Y-122086845D01*
X148247001Y-123481156D01*
X148298582Y-123740470D01*
X148495068Y-124034533D01*
X148789131Y-124231019D01*
X149136000Y-124300016D01*
X149482870Y-124231019D01*
X149776933Y-124034533D01*
X149973419Y-123740470D01*
X150025000Y-123481156D01*
X150025000Y-122086845D01*
X150787000Y-122086845D01*
X150787001Y-123481156D01*
X150838582Y-123740470D01*
X151035068Y-124034533D01*
X151329131Y-124231019D01*
X151676000Y-124300016D01*
X152022870Y-124231019D01*
X152316933Y-124034533D01*
X152513419Y-123740470D01*
X152565000Y-123481156D01*
X152565000Y-122086844D01*
X152513419Y-121827530D01*
X152316933Y-121533467D01*
X152022869Y-121336981D01*
X151676000Y-121267984D01*
X151329130Y-121336981D01*
X151035067Y-121533467D01*
X150838581Y-121827531D01*
X150787000Y-122086845D01*
X150025000Y-122086845D01*
X150025000Y-122086844D01*
X149973419Y-121827530D01*
X149776933Y-121533467D01*
X149482869Y-121336981D01*
X149136000Y-121267984D01*
X148789130Y-121336981D01*
X148495067Y-121533467D01*
X148298581Y-121827531D01*
X148247000Y-122086845D01*
X134598401Y-122086845D01*
X134743600Y-121736304D01*
X134743600Y-121291696D01*
X134573455Y-120880930D01*
X134259070Y-120566545D01*
X133848304Y-120396400D01*
X133403696Y-120396400D01*
X132992930Y-120566545D01*
X132678545Y-120880930D01*
X132508400Y-121291696D01*
X132203600Y-121291696D01*
X132033455Y-120880930D01*
X131719070Y-120566545D01*
X131308304Y-120396400D01*
X130863696Y-120396400D01*
X130635026Y-120491118D01*
X130327000Y-120183093D01*
X130327000Y-119795525D01*
X130452930Y-119921455D01*
X130863696Y-120091600D01*
X131308304Y-120091600D01*
X131719070Y-119921455D01*
X132033455Y-119607070D01*
X132203600Y-119196304D01*
X132203600Y-118751696D01*
X132033455Y-118340930D01*
X131719070Y-118026545D01*
X131308304Y-117856400D01*
X130863696Y-117856400D01*
X130452930Y-118026545D01*
X130327000Y-118152475D01*
X130327000Y-117255525D01*
X130452930Y-117381455D01*
X130863696Y-117551600D01*
X131308304Y-117551600D01*
X131536974Y-117456882D01*
X131899383Y-117819291D01*
X131921944Y-117853056D01*
X131955708Y-117875616D01*
X132055711Y-117942436D01*
X132213500Y-117973822D01*
X132253327Y-117965900D01*
X133139340Y-117965900D01*
X132992930Y-118026545D01*
X132678545Y-118340930D01*
X132508400Y-118751696D01*
X132508400Y-119196304D01*
X132678545Y-119607070D01*
X132992930Y-119921455D01*
X133403696Y-120091600D01*
X133848304Y-120091600D01*
X134259070Y-119921455D01*
X134573455Y-119607070D01*
X134743600Y-119196304D01*
X134743600Y-118751696D01*
X134702242Y-118651850D01*
X136059083Y-120008691D01*
X136081644Y-120042456D01*
X136215411Y-120131836D01*
X136333373Y-120155300D01*
X136333374Y-120155300D01*
X136373199Y-120163222D01*
X136413025Y-120155300D01*
X151641493Y-120155300D01*
X153367820Y-121881628D01*
X153327000Y-122086845D01*
X153327001Y-123481156D01*
X153378582Y-123740470D01*
X153575068Y-124034533D01*
X153869131Y-124231019D01*
X154216000Y-124300016D01*
X154562870Y-124231019D01*
X154856933Y-124034533D01*
X155053419Y-123740470D01*
X155105000Y-123481156D01*
X155105000Y-122562300D01*
X182087273Y-122562300D01*
X182127100Y-122570222D01*
X182166927Y-122562300D01*
X182284889Y-122538836D01*
X182418656Y-122449456D01*
X182441219Y-122415688D01*
X183269292Y-121587615D01*
X183390699Y-121537327D01*
X183569327Y-121358698D01*
X183615676Y-121246801D01*
X183632656Y-121235456D01*
X183722036Y-121101689D01*
X183745500Y-120983727D01*
X183745500Y-120983726D01*
X183753422Y-120943901D01*
X183745500Y-120904075D01*
X183745500Y-118798925D01*
X183753422Y-118759099D01*
X183733687Y-118659885D01*
X183722036Y-118601311D01*
X183632656Y-118467544D01*
X183598891Y-118444983D01*
X183280540Y-118126632D01*
X183315873Y-117949000D01*
X183315873Y-117199000D01*
X183275158Y-116994313D01*
X183159212Y-116820788D01*
X182985687Y-116704842D01*
X182781000Y-116664127D01*
X181531000Y-116664127D01*
X181326313Y-116704842D01*
X181152788Y-116820788D01*
X181036842Y-116994313D01*
X180996127Y-117199000D01*
X180996127Y-117949000D01*
X181036842Y-118153687D01*
X181152788Y-118327212D01*
X181326313Y-118443158D01*
X181531000Y-118483873D01*
X182493965Y-118483873D01*
X182936701Y-118926609D01*
X182936701Y-119114000D01*
X182441750Y-119114000D01*
X182283000Y-119272750D01*
X182283000Y-120247000D01*
X182303000Y-120247000D01*
X182303000Y-120501000D01*
X182283000Y-120501000D01*
X182283000Y-120521000D01*
X182029000Y-120521000D01*
X182029000Y-120501000D01*
X180804750Y-120501000D01*
X180646000Y-120659750D01*
X180646000Y-121125309D01*
X180742673Y-121358698D01*
X180921301Y-121537327D01*
X181154690Y-121634000D01*
X181870250Y-121634000D01*
X182028998Y-121475252D01*
X182028998Y-121634000D01*
X182079093Y-121634000D01*
X181959593Y-121753500D01*
X169918407Y-121753500D01*
X170388034Y-121283873D01*
X171351000Y-121283873D01*
X171555687Y-121243158D01*
X171729212Y-121127212D01*
X171845158Y-120953687D01*
X171885873Y-120749000D01*
X171885873Y-120659750D01*
X173026000Y-120659750D01*
X173026000Y-121125309D01*
X173122673Y-121358698D01*
X173301301Y-121537327D01*
X173534690Y-121634000D01*
X174250250Y-121634000D01*
X174409000Y-121475250D01*
X174409000Y-120501000D01*
X174663000Y-120501000D01*
X174663000Y-121475250D01*
X174821750Y-121634000D01*
X175537310Y-121634000D01*
X175770699Y-121537327D01*
X175949327Y-121358698D01*
X176046000Y-121125309D01*
X176046000Y-120659750D01*
X176836000Y-120659750D01*
X176836000Y-121125309D01*
X176932673Y-121358698D01*
X177111301Y-121537327D01*
X177344690Y-121634000D01*
X178060250Y-121634000D01*
X178219000Y-121475250D01*
X178219000Y-120501000D01*
X178473000Y-120501000D01*
X178473000Y-121475250D01*
X178631750Y-121634000D01*
X179347310Y-121634000D01*
X179580699Y-121537327D01*
X179759327Y-121358698D01*
X179856000Y-121125309D01*
X179856000Y-120659750D01*
X179697250Y-120501000D01*
X178473000Y-120501000D01*
X178219000Y-120501000D01*
X176994750Y-120501000D01*
X176836000Y-120659750D01*
X176046000Y-120659750D01*
X175887250Y-120501000D01*
X174663000Y-120501000D01*
X174409000Y-120501000D01*
X173184750Y-120501000D01*
X173026000Y-120659750D01*
X171885873Y-120659750D01*
X171885873Y-119999000D01*
X171845158Y-119794313D01*
X171729212Y-119620788D01*
X171555687Y-119504842D01*
X171351000Y-119464127D01*
X170101000Y-119464127D01*
X169896313Y-119504842D01*
X169722788Y-119620788D01*
X169606842Y-119794313D01*
X169566127Y-119999000D01*
X169566127Y-120749000D01*
X169601460Y-120926632D01*
X169387193Y-121140900D01*
X168419542Y-121140900D01*
X168426000Y-121125309D01*
X168426000Y-120659750D01*
X168267250Y-120501000D01*
X167043000Y-120501000D01*
X167043000Y-120521000D01*
X166789000Y-120521000D01*
X166789000Y-120501000D01*
X166769000Y-120501000D01*
X166769000Y-120247000D01*
X166789000Y-120247000D01*
X166789000Y-120227000D01*
X167043000Y-120227000D01*
X167043000Y-120247000D01*
X168267250Y-120247000D01*
X168426000Y-120088250D01*
X168426000Y-119622691D01*
X168329327Y-119389302D01*
X168318425Y-119378400D01*
X173133575Y-119378400D01*
X173122673Y-119389302D01*
X173026000Y-119622691D01*
X173026000Y-120088250D01*
X173184750Y-120247000D01*
X174409000Y-120247000D01*
X174409000Y-120227000D01*
X174663000Y-120227000D01*
X174663000Y-120247000D01*
X175887250Y-120247000D01*
X176046000Y-120088250D01*
X176046000Y-119622691D01*
X175949327Y-119389302D01*
X175938425Y-119378400D01*
X176906173Y-119378400D01*
X176937370Y-119384605D01*
X176932673Y-119389302D01*
X176836000Y-119622691D01*
X176836000Y-120088250D01*
X176994750Y-120247000D01*
X178219000Y-120247000D01*
X178219000Y-119272750D01*
X178473000Y-119272750D01*
X178473000Y-120247000D01*
X179697250Y-120247000D01*
X179856000Y-120088250D01*
X179856000Y-119622691D01*
X180646000Y-119622691D01*
X180646000Y-120088250D01*
X180804750Y-120247000D01*
X182029000Y-120247000D01*
X182029000Y-119272750D01*
X181870250Y-119114000D01*
X181154690Y-119114000D01*
X180921301Y-119210673D01*
X180742673Y-119389302D01*
X180646000Y-119622691D01*
X179856000Y-119622691D01*
X179759327Y-119389302D01*
X179580699Y-119210673D01*
X179347310Y-119114000D01*
X178631750Y-119114000D01*
X178473000Y-119272750D01*
X178219000Y-119272750D01*
X178060250Y-119114000D01*
X177377907Y-119114000D01*
X178008035Y-118483873D01*
X178971000Y-118483873D01*
X179175687Y-118443158D01*
X179349212Y-118327212D01*
X179465158Y-118153687D01*
X179505873Y-117949000D01*
X179505873Y-117199000D01*
X179465158Y-116994313D01*
X179349212Y-116820788D01*
X179175687Y-116704842D01*
X178971000Y-116664127D01*
X177721000Y-116664127D01*
X177516313Y-116704842D01*
X177342788Y-116820788D01*
X177226842Y-116994313D01*
X177186127Y-117199000D01*
X177186127Y-117949000D01*
X177221460Y-118126632D01*
X176778493Y-118569600D01*
X174112307Y-118569600D01*
X174198034Y-118483873D01*
X175161000Y-118483873D01*
X175365687Y-118443158D01*
X175539212Y-118327212D01*
X175655158Y-118153687D01*
X175695873Y-117949000D01*
X175695873Y-117199000D01*
X175655158Y-116994313D01*
X175539212Y-116820788D01*
X175365687Y-116704842D01*
X175161000Y-116664127D01*
X173911000Y-116664127D01*
X173706313Y-116704842D01*
X173532788Y-116820788D01*
X173416842Y-116994313D01*
X173376127Y-117199000D01*
X173376127Y-117949000D01*
X173407058Y-118104500D01*
X171854942Y-118104500D01*
X171885873Y-117949000D01*
X171885873Y-117199000D01*
X171845158Y-116994313D01*
X171729212Y-116820788D01*
X171555687Y-116704842D01*
X171351000Y-116664127D01*
X170388035Y-116664127D01*
X165863219Y-112139312D01*
X165840656Y-112105544D01*
X165706889Y-112016164D01*
X165588927Y-111992700D01*
X165549100Y-111984778D01*
X165509273Y-111992700D01*
X155890400Y-111992700D01*
X155890400Y-111676837D01*
X156228156Y-111451156D01*
X156455673Y-111110652D01*
X156515400Y-110810386D01*
X156515400Y-109107614D01*
X156455673Y-108807348D01*
X156307573Y-108585700D01*
X157204427Y-108585700D01*
X157056327Y-108807349D01*
X156996600Y-109107615D01*
X156996601Y-110810386D01*
X157056328Y-111110652D01*
X157283845Y-111451156D01*
X157624349Y-111678673D01*
X158026000Y-111758567D01*
X158427652Y-111678673D01*
X158768156Y-111451156D01*
X158995673Y-111110652D01*
X159055400Y-110810386D01*
X159055400Y-109107615D01*
X159536600Y-109107615D01*
X159536601Y-110810386D01*
X159596328Y-111110652D01*
X159823845Y-111451156D01*
X160164349Y-111678673D01*
X160566000Y-111758567D01*
X160967652Y-111678673D01*
X161308156Y-111451156D01*
X161535673Y-111110652D01*
X161595400Y-110810386D01*
X161595400Y-109107615D01*
X162076600Y-109107615D01*
X162076601Y-110810386D01*
X162136328Y-111110652D01*
X162363845Y-111451156D01*
X162704349Y-111678673D01*
X163106000Y-111758567D01*
X163507652Y-111678673D01*
X163848156Y-111451156D01*
X164075673Y-111110652D01*
X164135400Y-110810386D01*
X164135400Y-109107615D01*
X164616600Y-109107615D01*
X164616601Y-110810386D01*
X164676328Y-111110652D01*
X164903845Y-111451156D01*
X165244349Y-111678673D01*
X165646000Y-111758567D01*
X166047652Y-111678673D01*
X166388156Y-111451156D01*
X166615673Y-111110652D01*
X166675400Y-110810386D01*
X166675400Y-109107614D01*
X166615673Y-108807348D01*
X166388156Y-108466844D01*
X166047651Y-108239327D01*
X165646000Y-108159433D01*
X165244348Y-108239327D01*
X164903844Y-108466844D01*
X164676327Y-108807349D01*
X164616600Y-109107615D01*
X164135400Y-109107615D01*
X164135400Y-109107614D01*
X164075673Y-108807348D01*
X163848156Y-108466844D01*
X163507651Y-108239327D01*
X163106000Y-108159433D01*
X162704348Y-108239327D01*
X162363844Y-108466844D01*
X162136327Y-108807349D01*
X162076600Y-109107615D01*
X161595400Y-109107615D01*
X161595400Y-109107614D01*
X161535673Y-108807348D01*
X161308156Y-108466844D01*
X160967651Y-108239327D01*
X160566000Y-108159433D01*
X160164348Y-108239327D01*
X159823844Y-108466844D01*
X159596327Y-108807349D01*
X159536600Y-109107615D01*
X159055400Y-109107615D01*
X159055400Y-109107614D01*
X158995673Y-108807348D01*
X158847573Y-108585700D01*
X158947073Y-108585700D01*
X158986900Y-108593622D01*
X159026727Y-108585700D01*
X159144689Y-108562236D01*
X159278456Y-108472856D01*
X159301019Y-108439088D01*
X162728791Y-105011316D01*
X162762556Y-104988756D01*
X162801521Y-104930440D01*
X162998845Y-105225756D01*
X163336601Y-105451437D01*
X163336601Y-105471468D01*
X163328678Y-105511300D01*
X163360064Y-105669089D01*
X163449444Y-105802856D01*
X163583211Y-105892236D01*
X163701173Y-105915700D01*
X163741000Y-105923622D01*
X163780827Y-105915700D01*
X165817793Y-105915700D01*
X168082177Y-108180085D01*
X167784348Y-108239327D01*
X167443844Y-108466844D01*
X167216327Y-108807349D01*
X167156600Y-109107615D01*
X167156601Y-110810386D01*
X167216328Y-111110652D01*
X167443845Y-111451156D01*
X167784349Y-111678673D01*
X168186000Y-111758567D01*
X168587652Y-111678673D01*
X168928156Y-111451156D01*
X169125947Y-111155140D01*
X169164445Y-111212756D01*
X169198210Y-111235317D01*
X169957383Y-111994491D01*
X169979944Y-112028256D01*
X170113711Y-112117636D01*
X170231673Y-112141100D01*
X170231674Y-112141100D01*
X170271499Y-112149022D01*
X170311325Y-112141100D01*
X173226173Y-112141100D01*
X173266000Y-112149022D01*
X173423789Y-112117636D01*
X173557556Y-112028256D01*
X173646936Y-111894489D01*
X173670400Y-111776527D01*
X173678322Y-111736700D01*
X173670400Y-111696873D01*
X173670400Y-111676837D01*
X174008156Y-111451156D01*
X174235673Y-111110652D01*
X174295400Y-110810386D01*
X174295400Y-109107614D01*
X174235673Y-108807348D01*
X174008156Y-108466844D01*
X173667651Y-108239327D01*
X173266000Y-108159433D01*
X172864348Y-108239327D01*
X172523844Y-108466844D01*
X172296327Y-108807349D01*
X172236600Y-109107615D01*
X172236601Y-110810386D01*
X172296328Y-111110652D01*
X172444428Y-111332300D01*
X171547573Y-111332300D01*
X171695673Y-111110652D01*
X171755400Y-110810386D01*
X171755400Y-109107614D01*
X171695673Y-108807348D01*
X171468156Y-108466844D01*
X171130400Y-108241164D01*
X171130400Y-108221127D01*
X171138322Y-108181300D01*
X171106936Y-108023511D01*
X171080039Y-107983257D01*
X171017556Y-107889744D01*
X170983791Y-107867183D01*
X169225400Y-106108793D01*
X169225400Y-105451437D01*
X169563156Y-105225756D01*
X169790673Y-104885252D01*
X169850400Y-104584986D01*
X169850400Y-102882214D01*
X169790673Y-102581948D01*
X169642573Y-102360300D01*
X170539427Y-102360300D01*
X170391327Y-102581949D01*
X170331600Y-102882215D01*
X170331601Y-104584986D01*
X170391328Y-104885252D01*
X170618845Y-105225756D01*
X170959349Y-105453273D01*
X171361000Y-105533167D01*
X171762652Y-105453273D01*
X172103156Y-105225756D01*
X172225816Y-105042183D01*
X172250064Y-105164088D01*
X172250065Y-105164089D01*
X172339445Y-105297856D01*
X172373210Y-105320417D01*
X175337072Y-108284280D01*
X175063844Y-108466844D01*
X174836327Y-108807349D01*
X174776600Y-109107615D01*
X174776601Y-110810386D01*
X174836328Y-111110652D01*
X175063845Y-111451156D01*
X175404349Y-111678673D01*
X175806000Y-111758567D01*
X176207652Y-111678673D01*
X176548156Y-111451156D01*
X176775673Y-111110652D01*
X176835400Y-110810386D01*
X176835400Y-109107615D01*
X177316600Y-109107615D01*
X177316601Y-110810386D01*
X177376328Y-111110652D01*
X177603845Y-111451156D01*
X177944349Y-111678673D01*
X178346000Y-111758567D01*
X178747652Y-111678673D01*
X179088156Y-111451156D01*
X179315673Y-111110652D01*
X179375400Y-110810386D01*
X179375400Y-109107614D01*
X179315673Y-108807348D01*
X179088156Y-108466844D01*
X178747651Y-108239327D01*
X178346000Y-108159433D01*
X177944348Y-108239327D01*
X177603844Y-108466844D01*
X177376327Y-108807349D01*
X177316600Y-109107615D01*
X176835400Y-109107615D01*
X176835400Y-109107614D01*
X176775673Y-108807348D01*
X176548156Y-108466844D01*
X176210400Y-108241164D01*
X176210400Y-108221126D01*
X176218322Y-108181299D01*
X176186936Y-108023511D01*
X176181542Y-108015438D01*
X176097556Y-107889744D01*
X176063791Y-107867183D01*
X173687258Y-105490651D01*
X173901000Y-105533167D01*
X174302652Y-105453273D01*
X174643156Y-105225756D01*
X174870673Y-104885252D01*
X174930400Y-104584986D01*
X174930400Y-102882214D01*
X174870673Y-102581948D01*
X174643156Y-102241444D01*
X174302651Y-102013927D01*
X173901000Y-101934033D01*
X173499348Y-102013927D01*
X173158844Y-102241444D01*
X172999941Y-102479260D01*
X172922556Y-102363444D01*
X172888791Y-102340883D01*
X172069707Y-101521800D01*
X175434993Y-101521800D01*
X175972072Y-102058879D01*
X175698844Y-102241444D01*
X175471327Y-102581949D01*
X175411600Y-102882215D01*
X175411601Y-104584986D01*
X175471328Y-104885252D01*
X175698845Y-105225756D01*
X176039349Y-105453273D01*
X176441000Y-105533167D01*
X176842652Y-105453273D01*
X177183156Y-105225756D01*
X177410673Y-104885252D01*
X177470400Y-104584986D01*
X177470400Y-102882214D01*
X177410673Y-102581948D01*
X177183156Y-102241444D01*
X176845400Y-102015764D01*
X176845400Y-101995726D01*
X176853322Y-101955899D01*
X176821936Y-101798111D01*
X176808426Y-101777892D01*
X176732556Y-101664344D01*
X176698791Y-101641783D01*
X175916619Y-100859612D01*
X175894056Y-100825844D01*
X175760289Y-100736464D01*
X175642327Y-100713000D01*
X175602500Y-100705078D01*
X175562673Y-100713000D01*
X174951607Y-100713000D01*
X178603791Y-97060817D01*
X178637556Y-97038256D01*
X178726936Y-96904489D01*
X178750400Y-96786527D01*
X178758322Y-96746701D01*
X178750400Y-96706875D01*
X178750400Y-96686837D01*
X179088156Y-96461156D01*
X179315673Y-96120652D01*
X179375400Y-95820386D01*
X179375400Y-94117614D01*
X179315673Y-93817348D01*
X179088156Y-93476844D01*
X178747651Y-93249327D01*
X178346000Y-93169433D01*
X177944348Y-93249327D01*
X177603844Y-93476844D01*
X177376327Y-93817349D01*
X177316600Y-94117615D01*
X177316601Y-95820386D01*
X177376328Y-96120652D01*
X177603845Y-96461156D01*
X177877072Y-96643720D01*
X174210493Y-100310300D01*
X172814307Y-100310300D01*
X176063791Y-97060817D01*
X176097556Y-97038256D01*
X176186936Y-96904489D01*
X176210400Y-96786527D01*
X176218322Y-96746700D01*
X176210400Y-96706873D01*
X176210400Y-96686836D01*
X176548156Y-96461156D01*
X176775673Y-96120652D01*
X176835400Y-95820386D01*
X176835400Y-94117614D01*
X176775673Y-93817348D01*
X176548156Y-93476844D01*
X176207652Y-93249327D01*
X175806000Y-93169433D01*
X175404349Y-93249327D01*
X175063845Y-93476844D01*
X174836328Y-93817348D01*
X174776601Y-94117614D01*
X174776600Y-95820385D01*
X174836327Y-96120651D01*
X175063844Y-96461156D01*
X175337072Y-96643720D01*
X172073193Y-99907600D01*
X170677007Y-99907600D01*
X173523791Y-97060817D01*
X173557556Y-97038256D01*
X173646936Y-96904489D01*
X173670400Y-96786527D01*
X173678322Y-96746700D01*
X173670400Y-96706873D01*
X173670400Y-96686836D01*
X174008156Y-96461156D01*
X174235673Y-96120652D01*
X174295400Y-95820386D01*
X174295400Y-94117614D01*
X174235673Y-93817348D01*
X174008156Y-93476844D01*
X173667652Y-93249327D01*
X173266000Y-93169433D01*
X172864349Y-93249327D01*
X172523845Y-93476844D01*
X172296328Y-93817348D01*
X172236601Y-94117614D01*
X172236600Y-95820385D01*
X172296327Y-96120651D01*
X172523844Y-96461156D01*
X172797072Y-96643720D01*
X169935893Y-99504900D01*
X168539707Y-99504900D01*
X170983791Y-97060817D01*
X171017556Y-97038256D01*
X171106936Y-96904489D01*
X171130400Y-96786527D01*
X171138322Y-96746701D01*
X171130400Y-96706874D01*
X171130400Y-96686836D01*
X171468156Y-96461156D01*
X171695673Y-96120652D01*
X171755400Y-95820386D01*
X171755400Y-94117614D01*
X171695673Y-93817348D01*
X171468156Y-93476844D01*
X171127652Y-93249327D01*
X170726000Y-93169433D01*
X170324349Y-93249327D01*
X169983845Y-93476844D01*
X169756328Y-93817348D01*
X169696601Y-94117614D01*
X169696600Y-95820385D01*
X169756327Y-96120651D01*
X169983844Y-96461156D01*
X170257072Y-96643720D01*
X167798593Y-99102200D01*
X166402407Y-99102200D01*
X168443791Y-97060817D01*
X168477556Y-97038256D01*
X168566936Y-96904489D01*
X168590400Y-96786527D01*
X168590400Y-96786526D01*
X168598322Y-96746701D01*
X168590400Y-96706875D01*
X168590400Y-96686836D01*
X168928156Y-96461156D01*
X169155673Y-96120652D01*
X169215400Y-95820386D01*
X169215400Y-94117614D01*
X169155673Y-93817348D01*
X168928156Y-93476844D01*
X168587652Y-93249327D01*
X168186000Y-93169433D01*
X167784349Y-93249327D01*
X167443845Y-93476844D01*
X167216328Y-93817348D01*
X167156601Y-94117614D01*
X167156600Y-95820385D01*
X167216327Y-96120651D01*
X167443844Y-96461156D01*
X167717072Y-96643720D01*
X165661293Y-98699500D01*
X164265107Y-98699500D01*
X165903791Y-97060817D01*
X165937556Y-97038256D01*
X166026936Y-96904489D01*
X166050400Y-96786527D01*
X166058322Y-96746701D01*
X166050400Y-96706875D01*
X166050400Y-96686836D01*
X166388156Y-96461156D01*
X166615673Y-96120652D01*
X166675400Y-95820386D01*
X166675400Y-94117614D01*
X166615673Y-93817348D01*
X166388156Y-93476844D01*
X166047652Y-93249327D01*
X165646000Y-93169433D01*
X165244349Y-93249327D01*
X164903845Y-93476844D01*
X164676328Y-93817348D01*
X164616601Y-94117614D01*
X164616600Y-95820385D01*
X164676327Y-96120651D01*
X164903844Y-96461156D01*
X165177072Y-96643720D01*
X163523993Y-98296800D01*
X159065007Y-98296800D01*
X160210708Y-97151100D01*
X163066173Y-97151100D01*
X163106000Y-97159022D01*
X163263789Y-97127636D01*
X163397556Y-97038256D01*
X163486936Y-96904489D01*
X163510400Y-96786527D01*
X163518322Y-96746700D01*
X163510400Y-96706873D01*
X163510400Y-96686836D01*
X163848156Y-96461156D01*
X164075673Y-96120652D01*
X164135400Y-95820386D01*
X164135400Y-94117614D01*
X164075673Y-93817348D01*
X163848156Y-93476844D01*
X163507652Y-93249327D01*
X163106000Y-93169433D01*
X162704349Y-93249327D01*
X162363845Y-93476844D01*
X162136328Y-93817348D01*
X162076601Y-94117614D01*
X162076600Y-95820385D01*
X162136327Y-96120651D01*
X162284427Y-96342300D01*
X161387573Y-96342300D01*
X161535673Y-96120652D01*
X161595400Y-95820386D01*
X161595400Y-94117614D01*
X161535673Y-93817348D01*
X161308156Y-93476844D01*
X160967652Y-93249327D01*
X160566000Y-93169433D01*
X160164349Y-93249327D01*
X159823845Y-93476844D01*
X159596328Y-93817348D01*
X159536601Y-94117614D01*
X159536600Y-95668392D01*
X158817127Y-96387865D01*
X158995673Y-96120652D01*
X159055400Y-95820386D01*
X159055400Y-94117614D01*
X158995673Y-93817348D01*
X158768156Y-93476844D01*
X158427652Y-93249327D01*
X158026000Y-93169433D01*
X157624349Y-93249327D01*
X157283845Y-93476844D01*
X157056328Y-93817348D01*
X156996601Y-94117614D01*
X156996600Y-95426492D01*
X156493721Y-95929371D01*
X156515400Y-95820386D01*
X156515400Y-94117614D01*
X156455673Y-93817348D01*
X156228156Y-93476844D01*
X155890400Y-93251163D01*
X155890400Y-93231127D01*
X155898322Y-93191300D01*
X155866936Y-93033511D01*
X155800116Y-92933508D01*
X155777556Y-92899744D01*
X155743791Y-92877183D01*
X153985400Y-91118793D01*
X153985400Y-90211437D01*
X154323156Y-89985756D01*
X154550673Y-89645252D01*
X154610400Y-89344986D01*
X154610400Y-87642215D01*
X155091600Y-87642215D01*
X155091601Y-89344986D01*
X155151328Y-89645252D01*
X155378845Y-89985756D01*
X155719349Y-90213273D01*
X156121000Y-90293167D01*
X156522652Y-90213273D01*
X156863156Y-89985756D01*
X157090673Y-89645252D01*
X157150400Y-89344986D01*
X157150400Y-87642215D01*
X157631600Y-87642215D01*
X157631601Y-89344986D01*
X157691328Y-89645252D01*
X157918845Y-89985756D01*
X158259349Y-90213273D01*
X158661000Y-90293167D01*
X159062652Y-90213273D01*
X159403156Y-89985756D01*
X159630673Y-89645252D01*
X159690400Y-89344986D01*
X159690400Y-87642215D01*
X160171600Y-87642215D01*
X160171601Y-89344986D01*
X160231328Y-89645252D01*
X160458845Y-89985756D01*
X160799349Y-90213273D01*
X161201000Y-90293167D01*
X161602652Y-90213273D01*
X161943156Y-89985756D01*
X162170673Y-89645252D01*
X162230400Y-89344986D01*
X162230400Y-87642215D01*
X162711600Y-87642215D01*
X162711601Y-89344986D01*
X162771328Y-89645252D01*
X162998845Y-89985756D01*
X163339349Y-90213273D01*
X163741000Y-90293167D01*
X164142652Y-90213273D01*
X164483156Y-89985756D01*
X164710673Y-89645252D01*
X164770400Y-89344986D01*
X164770400Y-87642215D01*
X165251600Y-87642215D01*
X165251601Y-89344986D01*
X165311328Y-89645252D01*
X165538845Y-89985756D01*
X165879349Y-90213273D01*
X166281000Y-90293167D01*
X166682652Y-90213273D01*
X167023156Y-89985756D01*
X167250673Y-89645252D01*
X167310400Y-89344986D01*
X167310400Y-87642215D01*
X167791600Y-87642215D01*
X167791601Y-89344986D01*
X167851328Y-89645252D01*
X168078845Y-89985756D01*
X168419349Y-90213273D01*
X168821000Y-90293167D01*
X169222652Y-90213273D01*
X169563156Y-89985756D01*
X169790673Y-89645252D01*
X169850400Y-89344986D01*
X169850400Y-87642215D01*
X170331600Y-87642215D01*
X170331601Y-89344986D01*
X170391328Y-89645252D01*
X170618845Y-89985756D01*
X170959349Y-90213273D01*
X171361000Y-90293167D01*
X171762652Y-90213273D01*
X172103156Y-89985756D01*
X172330673Y-89645252D01*
X172390400Y-89344986D01*
X172390400Y-87642215D01*
X172871600Y-87642215D01*
X172871601Y-89344986D01*
X172931328Y-89645252D01*
X173158845Y-89985756D01*
X173499349Y-90213273D01*
X173901000Y-90293167D01*
X174302652Y-90213273D01*
X174643156Y-89985756D01*
X174870673Y-89645252D01*
X174930400Y-89344986D01*
X174930400Y-88620600D01*
X175056000Y-88620600D01*
X175056000Y-89370600D01*
X175210028Y-89890949D01*
X175551460Y-90312745D01*
X176028316Y-90571773D01*
X176099815Y-90585918D01*
X176314000Y-90463256D01*
X176314000Y-88620600D01*
X176568000Y-88620600D01*
X176568000Y-90463256D01*
X176782185Y-90585918D01*
X176853684Y-90571773D01*
X177330540Y-90312745D01*
X177671972Y-89890949D01*
X177826000Y-89370600D01*
X177826000Y-88620600D01*
X176568000Y-88620600D01*
X176314000Y-88620600D01*
X175056000Y-88620600D01*
X174930400Y-88620600D01*
X174930400Y-87642214D01*
X174925306Y-87616600D01*
X175056000Y-87616600D01*
X175056000Y-88366600D01*
X176314000Y-88366600D01*
X176314000Y-86523944D01*
X176568000Y-86523944D01*
X176568000Y-88366600D01*
X177826000Y-88366600D01*
X177826000Y-87616600D01*
X177671972Y-87096251D01*
X177330540Y-86674455D01*
X176853684Y-86415427D01*
X176782185Y-86401282D01*
X176568000Y-86523944D01*
X176314000Y-86523944D01*
X176099815Y-86401282D01*
X176028316Y-86415427D01*
X175551460Y-86674455D01*
X175210028Y-87096251D01*
X175056000Y-87616600D01*
X174925306Y-87616600D01*
X174870673Y-87341948D01*
X174643156Y-87001444D01*
X174302651Y-86773927D01*
X173901000Y-86694033D01*
X173499348Y-86773927D01*
X173158844Y-87001444D01*
X172931327Y-87341949D01*
X172871600Y-87642215D01*
X172390400Y-87642215D01*
X172390400Y-87642214D01*
X172330673Y-87341948D01*
X172103156Y-87001444D01*
X171762651Y-86773927D01*
X171361000Y-86694033D01*
X170959348Y-86773927D01*
X170618844Y-87001444D01*
X170391327Y-87341949D01*
X170331600Y-87642215D01*
X169850400Y-87642215D01*
X169850400Y-87642214D01*
X169790673Y-87341948D01*
X169563156Y-87001444D01*
X169222651Y-86773927D01*
X168821000Y-86694033D01*
X168419348Y-86773927D01*
X168078844Y-87001444D01*
X167851327Y-87341949D01*
X167791600Y-87642215D01*
X167310400Y-87642215D01*
X167310400Y-87642214D01*
X167250673Y-87341948D01*
X167023156Y-87001444D01*
X166682651Y-86773927D01*
X166281000Y-86694033D01*
X165879348Y-86773927D01*
X165538844Y-87001444D01*
X165311327Y-87341949D01*
X165251600Y-87642215D01*
X164770400Y-87642215D01*
X164770400Y-87642214D01*
X164710673Y-87341948D01*
X164483156Y-87001444D01*
X164142651Y-86773927D01*
X163741000Y-86694033D01*
X163339348Y-86773927D01*
X162998844Y-87001444D01*
X162771327Y-87341949D01*
X162711600Y-87642215D01*
X162230400Y-87642215D01*
X162230400Y-87642214D01*
X162170673Y-87341948D01*
X161943156Y-87001444D01*
X161602651Y-86773927D01*
X161201000Y-86694033D01*
X160799348Y-86773927D01*
X160458844Y-87001444D01*
X160231327Y-87341949D01*
X160171600Y-87642215D01*
X159690400Y-87642215D01*
X159690400Y-87642214D01*
X159630673Y-87341948D01*
X159403156Y-87001444D01*
X159062651Y-86773927D01*
X158661000Y-86694033D01*
X158259348Y-86773927D01*
X157918844Y-87001444D01*
X157691327Y-87341949D01*
X157631600Y-87642215D01*
X157150400Y-87642215D01*
X157150400Y-87642214D01*
X157090673Y-87341948D01*
X156863156Y-87001444D01*
X156522651Y-86773927D01*
X156121000Y-86694033D01*
X155719348Y-86773927D01*
X155378844Y-87001444D01*
X155151327Y-87341949D01*
X155091600Y-87642215D01*
X154610400Y-87642215D01*
X154610400Y-87642214D01*
X154550673Y-87341948D01*
X154323156Y-87001444D01*
X153982651Y-86773927D01*
X153581000Y-86694033D01*
X153179348Y-86773927D01*
X152838844Y-87001444D01*
X152611327Y-87341949D01*
X152551600Y-87642215D01*
X152551601Y-89344986D01*
X152611328Y-89645252D01*
X152838845Y-89985756D01*
X153176601Y-90211437D01*
X153176601Y-91246469D01*
X153168678Y-91286300D01*
X153200064Y-91444088D01*
X153200065Y-91444089D01*
X153289445Y-91577856D01*
X153323210Y-91600417D01*
X155017072Y-93294280D01*
X154743845Y-93476844D01*
X154516328Y-93817348D01*
X154456601Y-94117614D01*
X154456600Y-95820385D01*
X154516327Y-96120651D01*
X154743844Y-96461156D01*
X155084348Y-96688673D01*
X155413270Y-96754100D01*
X153018730Y-96754100D01*
X153347651Y-96688673D01*
X153688156Y-96461156D01*
X153915673Y-96120652D01*
X153975400Y-95820386D01*
X153975400Y-94117614D01*
X153915673Y-93817348D01*
X153688156Y-93476844D01*
X153350400Y-93251163D01*
X153350400Y-93231127D01*
X153358322Y-93191300D01*
X153326936Y-93033511D01*
X153237556Y-92899744D01*
X153103789Y-92810364D01*
X152985827Y-92786900D01*
X152946000Y-92778978D01*
X152906173Y-92786900D01*
X151100608Y-92786900D01*
X148589309Y-90275601D01*
X148902652Y-90213273D01*
X149243156Y-89985756D01*
X149470673Y-89645252D01*
X149530400Y-89344986D01*
X149530400Y-87642215D01*
X150011600Y-87642215D01*
X150011601Y-89344986D01*
X150071328Y-89645252D01*
X150298845Y-89985756D01*
X150639349Y-90213273D01*
X151041000Y-90293167D01*
X151442652Y-90213273D01*
X151783156Y-89985756D01*
X152010673Y-89645252D01*
X152070400Y-89344986D01*
X152070400Y-87642214D01*
X152010673Y-87341948D01*
X151783156Y-87001444D01*
X151442651Y-86773927D01*
X151041000Y-86694033D01*
X150639348Y-86773927D01*
X150298844Y-87001444D01*
X150071327Y-87341949D01*
X150011600Y-87642215D01*
X149530400Y-87642215D01*
X149530400Y-87642214D01*
X149470673Y-87341948D01*
X149243156Y-87001444D01*
X148902651Y-86773927D01*
X148501000Y-86694033D01*
X148099348Y-86773927D01*
X147758844Y-87001444D01*
X147531327Y-87341949D01*
X147492900Y-87535133D01*
X147492900Y-87369526D01*
X147500822Y-87329699D01*
X147469436Y-87171911D01*
X147436072Y-87121978D01*
X147380056Y-87038144D01*
X147346291Y-87015583D01*
X146386119Y-86055412D01*
X146363556Y-86021644D01*
X146229789Y-85932264D01*
X146111827Y-85908800D01*
X146072000Y-85900878D01*
X146032173Y-85908800D01*
X131163527Y-85908800D01*
X131123700Y-85900878D01*
X131083873Y-85908800D01*
X130965911Y-85932264D01*
X130832144Y-86021644D01*
X130809583Y-86055409D01*
X130463210Y-86401783D01*
X130429445Y-86424344D01*
X130406885Y-86458108D01*
X130340064Y-86558112D01*
X130308678Y-86715900D01*
X130316601Y-86755731D01*
X130316601Y-86775763D01*
X129978844Y-87001444D01*
X129751327Y-87341949D01*
X129691600Y-87642215D01*
X129691601Y-89344986D01*
X129751328Y-89645252D01*
X129978845Y-89985756D01*
X130319349Y-90213273D01*
X130721000Y-90293167D01*
X131122652Y-90213273D01*
X131463156Y-89985756D01*
X131690673Y-89645252D01*
X131750400Y-89344986D01*
X131750400Y-87642214D01*
X131690673Y-87341948D01*
X131463156Y-87001444D01*
X131189928Y-86818880D01*
X131291208Y-86717600D01*
X133142521Y-86717600D01*
X132859348Y-86773927D01*
X132518844Y-87001444D01*
X132291327Y-87341949D01*
X132231600Y-87642215D01*
X132231601Y-89344986D01*
X132291328Y-89645252D01*
X132518845Y-89985756D01*
X132856601Y-90211437D01*
X132856601Y-90231469D01*
X132848678Y-90271300D01*
X132880064Y-90429088D01*
X132914083Y-90480000D01*
X132969445Y-90562856D01*
X133003209Y-90585416D01*
X133752283Y-91334491D01*
X133774844Y-91368256D01*
X133908611Y-91457636D01*
X134066400Y-91489022D01*
X134106227Y-91481100D01*
X140996693Y-91481100D01*
X142701778Y-93186186D01*
X142384349Y-93249327D01*
X142043845Y-93476844D01*
X141816328Y-93817348D01*
X141756601Y-94117614D01*
X141756600Y-95820385D01*
X141816327Y-96120651D01*
X142043844Y-96461156D01*
X142384348Y-96688673D01*
X142713270Y-96754100D01*
X140318730Y-96754100D01*
X140647652Y-96688673D01*
X140988156Y-96461156D01*
X141215673Y-96120652D01*
X141275400Y-95820386D01*
X141275400Y-94117614D01*
X141215673Y-93817348D01*
X140988156Y-93476844D01*
X140647651Y-93249327D01*
X140246000Y-93169433D01*
X139844348Y-93249327D01*
X139503844Y-93476844D01*
X139276327Y-93817349D01*
X139216600Y-94117615D01*
X139216601Y-95820386D01*
X139276328Y-96120652D01*
X139503845Y-96461156D01*
X139844349Y-96688673D01*
X140173270Y-96754100D01*
X137850108Y-96754100D01*
X137838265Y-96742258D01*
X138107651Y-96688673D01*
X138448156Y-96461156D01*
X138675673Y-96120652D01*
X138735400Y-95820386D01*
X138735400Y-94117614D01*
X138675673Y-93817348D01*
X138448156Y-93476844D01*
X138107652Y-93249327D01*
X137706000Y-93169433D01*
X137304349Y-93249327D01*
X136963845Y-93476844D01*
X136764350Y-93775410D01*
X136727556Y-93720344D01*
X136693791Y-93697783D01*
X135587119Y-92591112D01*
X135564556Y-92557344D01*
X135430789Y-92467964D01*
X135312827Y-92444500D01*
X135273000Y-92436578D01*
X135233173Y-92444500D01*
X130926108Y-92444500D01*
X128649928Y-90168321D01*
X128923156Y-89985756D01*
X129150673Y-89645252D01*
X129210400Y-89344986D01*
X129210400Y-87642214D01*
X129150673Y-87341948D01*
X128923156Y-87001444D01*
X128582651Y-86773927D01*
X128181000Y-86694033D01*
X127779348Y-86773927D01*
X127438844Y-87001444D01*
X127211327Y-87341949D01*
X127151600Y-87642215D01*
X127151601Y-89344986D01*
X127211328Y-89645252D01*
X127438845Y-89985756D01*
X127776601Y-90211437D01*
X127776601Y-90231469D01*
X127768678Y-90271300D01*
X127800064Y-90429088D01*
X127834083Y-90480000D01*
X127889445Y-90562856D01*
X127923209Y-90585416D01*
X130291932Y-92954140D01*
X130213000Y-92999344D01*
X130213000Y-94842000D01*
X131471000Y-94842000D01*
X131471000Y-94092000D01*
X131316972Y-93571651D01*
X131059276Y-93253300D01*
X132218403Y-93253300D01*
X131883845Y-93476844D01*
X131656328Y-93817348D01*
X131596601Y-94117614D01*
X131596600Y-95820385D01*
X131656327Y-96120651D01*
X131883844Y-96461156D01*
X132224348Y-96688673D01*
X132626000Y-96768567D01*
X133027651Y-96688673D01*
X133368156Y-96461156D01*
X133595673Y-96120652D01*
X133655400Y-95820386D01*
X133655400Y-94117614D01*
X133595673Y-93817348D01*
X133368156Y-93476844D01*
X133033598Y-93253300D01*
X134758403Y-93253300D01*
X134423845Y-93476844D01*
X134196328Y-93817348D01*
X134136601Y-94117614D01*
X134136600Y-95820385D01*
X134196327Y-96120651D01*
X134423844Y-96461156D01*
X134764348Y-96688673D01*
X135166000Y-96768567D01*
X135567651Y-96688673D01*
X135908156Y-96461156D01*
X136112395Y-96155490D01*
X136144445Y-96203456D01*
X136178210Y-96226017D01*
X137368483Y-97416291D01*
X137391044Y-97450056D01*
X137424808Y-97472616D01*
X137524811Y-97539436D01*
X137682600Y-97570822D01*
X137722427Y-97562900D01*
X155796673Y-97562900D01*
X155836500Y-97570822D01*
X155876327Y-97562900D01*
X155994289Y-97539436D01*
X156128056Y-97450056D01*
X156150619Y-97416288D01*
X157212510Y-96354397D01*
X157283844Y-96461156D01*
X157624348Y-96688673D01*
X158026000Y-96768567D01*
X158427651Y-96688673D01*
X158694866Y-96510127D01*
X157512193Y-97692800D01*
X134619527Y-97692800D01*
X134579700Y-97684878D01*
X134539873Y-97692800D01*
X134421911Y-97716264D01*
X134288144Y-97805644D01*
X134265584Y-97839408D01*
X130463210Y-101641783D01*
X130429445Y-101664344D01*
X130374083Y-101747200D01*
X130340064Y-101798112D01*
X130308678Y-101955900D01*
X130316601Y-101995731D01*
X130316601Y-102015763D01*
X129978844Y-102241444D01*
X129751327Y-102581949D01*
X129691600Y-102882215D01*
X129691601Y-104584986D01*
X129751328Y-104885252D01*
X129978845Y-105225756D01*
X130319349Y-105453273D01*
X130721000Y-105533167D01*
X131122652Y-105453273D01*
X131463156Y-105225756D01*
X131690673Y-104885252D01*
X131750400Y-104584986D01*
X131750400Y-102882214D01*
X131690673Y-102581948D01*
X131463156Y-102241444D01*
X131189928Y-102058880D01*
X134747208Y-98501600D01*
X136143392Y-98501600D01*
X133003210Y-101641783D01*
X132969445Y-101664344D01*
X132914083Y-101747200D01*
X132880064Y-101798112D01*
X132848678Y-101955900D01*
X132856601Y-101995731D01*
X132856601Y-102015763D01*
X132518844Y-102241444D01*
X132291327Y-102581949D01*
X132231600Y-102882215D01*
X132231601Y-104584986D01*
X132291328Y-104885252D01*
X132518845Y-105225756D01*
X132859349Y-105453273D01*
X133261000Y-105533167D01*
X133662652Y-105453273D01*
X134003156Y-105225756D01*
X134230673Y-104885252D01*
X134290400Y-104584986D01*
X134290400Y-102882214D01*
X134230673Y-102581948D01*
X134003156Y-102241444D01*
X133729928Y-102058880D01*
X136683208Y-99105600D01*
X138079392Y-99105600D01*
X135543210Y-101641783D01*
X135509445Y-101664344D01*
X135454083Y-101747200D01*
X135420064Y-101798112D01*
X135388678Y-101955900D01*
X135396601Y-101995731D01*
X135396601Y-102015763D01*
X135058844Y-102241444D01*
X134831327Y-102581949D01*
X134771600Y-102882215D01*
X134771601Y-104584986D01*
X134831328Y-104885252D01*
X135039277Y-105196470D01*
X135004444Y-105219744D01*
X134981883Y-105253509D01*
X132368210Y-107867183D01*
X132334445Y-107889744D01*
X132311885Y-107923508D01*
X132245064Y-108023512D01*
X132213678Y-108181300D01*
X132221601Y-108221131D01*
X132221601Y-108241163D01*
X131883844Y-108466844D01*
X131712046Y-108723960D01*
X131702354Y-108709455D01*
X131647556Y-108627444D01*
X131613791Y-108604884D01*
X128482168Y-105473261D01*
X128582652Y-105453273D01*
X128923156Y-105225756D01*
X129150673Y-104885252D01*
X129210400Y-104584986D01*
X129210400Y-102882214D01*
X129150673Y-102581948D01*
X128923156Y-102241444D01*
X128582651Y-102013927D01*
X128181000Y-101934033D01*
X127779348Y-102013927D01*
X127438844Y-102241444D01*
X127211327Y-102581949D01*
X127151600Y-102882215D01*
X127151601Y-104584986D01*
X127211328Y-104885252D01*
X127359428Y-105106900D01*
X126462573Y-105106900D01*
X126610673Y-104885252D01*
X126670400Y-104584986D01*
X126670400Y-102882214D01*
X126610673Y-102581948D01*
X126383156Y-102241444D01*
X126042651Y-102013927D01*
X125641000Y-101934033D01*
X125239348Y-102013927D01*
X124898844Y-102241444D01*
X124671327Y-102581949D01*
X124611600Y-102882215D01*
X124130400Y-102882215D01*
X124130400Y-102882214D01*
X124070673Y-102581948D01*
X123843156Y-102241444D01*
X123502651Y-102013927D01*
X123101000Y-101934033D01*
X122699348Y-102013927D01*
X122358844Y-102241444D01*
X122131327Y-102581949D01*
X122071600Y-102882215D01*
X121590400Y-102882215D01*
X121590400Y-102882214D01*
X121530673Y-102581948D01*
X121303156Y-102241444D01*
X120962651Y-102013927D01*
X120561000Y-101934033D01*
X120159348Y-102013927D01*
X119818844Y-102241444D01*
X119591327Y-102581949D01*
X119531600Y-102882215D01*
X119050400Y-102882215D01*
X119050400Y-102882214D01*
X118990673Y-102581948D01*
X118763156Y-102241444D01*
X118422651Y-102013927D01*
X118021000Y-101934033D01*
X117619348Y-102013927D01*
X117278844Y-102241444D01*
X117051327Y-102581949D01*
X116991600Y-102882215D01*
X107542400Y-102882215D01*
X107542400Y-95096000D01*
X128701000Y-95096000D01*
X128701000Y-95846000D01*
X128855028Y-96366349D01*
X129196460Y-96788145D01*
X129673316Y-97047173D01*
X129744815Y-97061318D01*
X129959000Y-96938656D01*
X129959000Y-95096000D01*
X130213000Y-95096000D01*
X130213000Y-96938656D01*
X130427185Y-97061318D01*
X130498684Y-97047173D01*
X130975540Y-96788145D01*
X131316972Y-96366349D01*
X131471000Y-95846000D01*
X131471000Y-95096000D01*
X130213000Y-95096000D01*
X129959000Y-95096000D01*
X128701000Y-95096000D01*
X107542400Y-95096000D01*
X107542400Y-94092000D01*
X128701000Y-94092000D01*
X128701000Y-94842000D01*
X129959000Y-94842000D01*
X129959000Y-92999344D01*
X129744815Y-92876682D01*
X129673316Y-92890827D01*
X129196460Y-93149855D01*
X128855028Y-93571651D01*
X128701000Y-94092000D01*
X107542400Y-94092000D01*
X107542400Y-87642215D01*
X116991600Y-87642215D01*
X116991601Y-89344986D01*
X117051328Y-89645252D01*
X117278845Y-89985756D01*
X117619349Y-90213273D01*
X118021000Y-90293167D01*
X118422652Y-90213273D01*
X118763156Y-89985756D01*
X118990673Y-89645252D01*
X119050400Y-89344986D01*
X119050400Y-87642215D01*
X119531600Y-87642215D01*
X119531601Y-89344986D01*
X119591328Y-89645252D01*
X119818845Y-89985756D01*
X120159349Y-90213273D01*
X120561000Y-90293167D01*
X120962652Y-90213273D01*
X121303156Y-89985756D01*
X121530673Y-89645252D01*
X121590400Y-89344986D01*
X121590400Y-87642215D01*
X122071600Y-87642215D01*
X122071601Y-89344986D01*
X122131328Y-89645252D01*
X122358845Y-89985756D01*
X122699349Y-90213273D01*
X123101000Y-90293167D01*
X123502652Y-90213273D01*
X123843156Y-89985756D01*
X124070673Y-89645252D01*
X124130400Y-89344986D01*
X124130400Y-87642215D01*
X124611600Y-87642215D01*
X124611601Y-89344986D01*
X124671328Y-89645252D01*
X124898845Y-89985756D01*
X125239349Y-90213273D01*
X125641000Y-90293167D01*
X126042652Y-90213273D01*
X126383156Y-89985756D01*
X126610673Y-89645252D01*
X126670400Y-89344986D01*
X126670400Y-87642214D01*
X126610673Y-87341948D01*
X126383156Y-87001444D01*
X126042651Y-86773927D01*
X125641000Y-86694033D01*
X125239348Y-86773927D01*
X124898844Y-87001444D01*
X124671327Y-87341949D01*
X124611600Y-87642215D01*
X124130400Y-87642215D01*
X124130400Y-87642214D01*
X124070673Y-87341948D01*
X123843156Y-87001444D01*
X123502651Y-86773927D01*
X123101000Y-86694033D01*
X122699348Y-86773927D01*
X122358844Y-87001444D01*
X122131327Y-87341949D01*
X122071600Y-87642215D01*
X121590400Y-87642215D01*
X121590400Y-87642214D01*
X121530673Y-87341948D01*
X121303156Y-87001444D01*
X120962651Y-86773927D01*
X120561000Y-86694033D01*
X120159348Y-86773927D01*
X119818844Y-87001444D01*
X119591327Y-87341949D01*
X119531600Y-87642215D01*
X119050400Y-87642215D01*
X119050400Y-87642214D01*
X118990673Y-87341948D01*
X118763156Y-87001444D01*
X118422651Y-86773927D01*
X118021000Y-86694033D01*
X117619348Y-86773927D01*
X117278844Y-87001444D01*
X117051327Y-87341949D01*
X116991600Y-87642215D01*
X107542400Y-87642215D01*
X107542400Y-84728893D01*
X107608572Y-84353610D01*
X107789011Y-84041084D01*
X108065453Y-83809121D01*
X108414109Y-83682220D01*
X108594932Y-83666400D01*
X188448107Y-83666400D01*
X188823390Y-83732572D01*
X188823390Y-83732572D01*
G37*
X188823390Y-83732572D02*
X189135916Y-83913011D01*
X189367879Y-84189453D01*
X189494780Y-84538109D01*
X189510600Y-84718932D01*
X189510601Y-125327999D01*
X189445564Y-125677205D01*
X189270384Y-125961401D01*
X189004639Y-126163477D01*
X188668850Y-126260716D01*
X188589433Y-126264600D01*
X128798995Y-126264600D01*
X128449795Y-126199564D01*
X128165599Y-126024384D01*
X127963523Y-125758639D01*
X127866284Y-125422850D01*
X127862400Y-125343433D01*
X127862400Y-109959603D01*
X127861309Y-109954116D01*
X127856674Y-109859355D01*
X127855675Y-109855146D01*
X127856097Y-109850842D01*
X127847971Y-109807211D01*
X127731549Y-109405176D01*
X127722691Y-109387564D01*
X127717422Y-109368564D01*
X127694245Y-109330964D01*
X127695959Y-108786059D01*
X127686445Y-108737428D01*
X127659045Y-108696140D01*
X127617930Y-108668481D01*
X127568610Y-108658660D01*
X126777397Y-108660843D01*
X126534999Y-108615698D01*
X126514397Y-108611600D01*
X108478995Y-108611600D01*
X108129795Y-108546564D01*
X107845599Y-108371384D01*
X107643523Y-108105639D01*
X107546284Y-107769850D01*
X107542400Y-107690433D01*
X107542400Y-102882215D01*
X116991600Y-102882215D01*
X116991601Y-104584986D01*
X117051328Y-104885252D01*
X117278845Y-105225756D01*
X117619349Y-105453273D01*
X118021000Y-105533167D01*
X118422652Y-105453273D01*
X118763156Y-105225756D01*
X118990673Y-104885252D01*
X119050400Y-104584986D01*
X119050400Y-102882215D01*
X119531600Y-102882215D01*
X119531601Y-104584986D01*
X119591328Y-104885252D01*
X119818845Y-105225756D01*
X120159349Y-105453273D01*
X120561000Y-105533167D01*
X120962652Y-105453273D01*
X121303156Y-105225756D01*
X121530673Y-104885252D01*
X121590400Y-104584986D01*
X121590400Y-102882215D01*
X122071600Y-102882215D01*
X122071601Y-104584986D01*
X122131328Y-104885252D01*
X122358845Y-105225756D01*
X122699349Y-105453273D01*
X123101000Y-105533167D01*
X123502652Y-105453273D01*
X123843156Y-105225756D01*
X124070673Y-104885252D01*
X124130400Y-104584986D01*
X124130400Y-102882215D01*
X124611600Y-102882215D01*
X124611601Y-104584986D01*
X124671328Y-104885252D01*
X124898845Y-105225756D01*
X125236601Y-105451437D01*
X125236601Y-105471468D01*
X125228678Y-105511300D01*
X125260064Y-105669089D01*
X125349444Y-105802856D01*
X125483211Y-105892236D01*
X125601173Y-105915700D01*
X125641000Y-105923622D01*
X125680827Y-105915700D01*
X127780793Y-105915700D01*
X130034725Y-108169632D01*
X129684348Y-108239327D01*
X129343844Y-108466844D01*
X129116327Y-108807349D01*
X129056600Y-109107615D01*
X129056601Y-110810386D01*
X129116328Y-111110652D01*
X129343845Y-111451156D01*
X129681601Y-111676837D01*
X129681601Y-111696873D01*
X129681600Y-115125093D01*
X129664810Y-115141883D01*
X129631045Y-115164444D01*
X129608485Y-115198208D01*
X129541664Y-115298212D01*
X129510278Y-115456000D01*
X129518201Y-115495832D01*
X129518200Y-120310773D01*
X129510278Y-120350600D01*
X129518200Y-120390426D01*
X129541664Y-120508388D01*
X129631044Y-120642156D01*
X129664812Y-120664719D01*
X130063118Y-121063026D01*
X129968400Y-121291696D01*
X129968400Y-121736304D01*
X130138545Y-122147070D01*
X130452930Y-122461455D01*
X130863696Y-122631600D01*
X131308304Y-122631600D01*
X131719070Y-122461455D01*
X132033455Y-122147070D01*
X132203600Y-121736304D01*
X132203600Y-121291696D01*
X132508400Y-121291696D01*
X132508400Y-121736304D01*
X132678545Y-122147070D01*
X132992930Y-122461455D01*
X133403696Y-122631600D01*
X133848304Y-122631600D01*
X134259070Y-122461455D01*
X134573455Y-122147070D01*
X134598401Y-122086845D01*
X148247000Y-122086845D01*
X148247001Y-123481156D01*
X148298582Y-123740470D01*
X148495068Y-124034533D01*
X148789131Y-124231019D01*
X149136000Y-124300016D01*
X149482870Y-124231019D01*
X149776933Y-124034533D01*
X149973419Y-123740470D01*
X150025000Y-123481156D01*
X150025000Y-122086845D01*
X150787000Y-122086845D01*
X150787001Y-123481156D01*
X150838582Y-123740470D01*
X151035068Y-124034533D01*
X151329131Y-124231019D01*
X151676000Y-124300016D01*
X152022870Y-124231019D01*
X152316933Y-124034533D01*
X152513419Y-123740470D01*
X152565000Y-123481156D01*
X152565000Y-122086844D01*
X152513419Y-121827530D01*
X152316933Y-121533467D01*
X152022869Y-121336981D01*
X151676000Y-121267984D01*
X151329130Y-121336981D01*
X151035067Y-121533467D01*
X150838581Y-121827531D01*
X150787000Y-122086845D01*
X150025000Y-122086845D01*
X150025000Y-122086844D01*
X149973419Y-121827530D01*
X149776933Y-121533467D01*
X149482869Y-121336981D01*
X149136000Y-121267984D01*
X148789130Y-121336981D01*
X148495067Y-121533467D01*
X148298581Y-121827531D01*
X148247000Y-122086845D01*
X134598401Y-122086845D01*
X134743600Y-121736304D01*
X134743600Y-121291696D01*
X134573455Y-120880930D01*
X134259070Y-120566545D01*
X133848304Y-120396400D01*
X133403696Y-120396400D01*
X132992930Y-120566545D01*
X132678545Y-120880930D01*
X132508400Y-121291696D01*
X132203600Y-121291696D01*
X132033455Y-120880930D01*
X131719070Y-120566545D01*
X131308304Y-120396400D01*
X130863696Y-120396400D01*
X130635026Y-120491118D01*
X130327000Y-120183093D01*
X130327000Y-119795525D01*
X130452930Y-119921455D01*
X130863696Y-120091600D01*
X131308304Y-120091600D01*
X131719070Y-119921455D01*
X132033455Y-119607070D01*
X132203600Y-119196304D01*
X132203600Y-118751696D01*
X132033455Y-118340930D01*
X131719070Y-118026545D01*
X131308304Y-117856400D01*
X130863696Y-117856400D01*
X130452930Y-118026545D01*
X130327000Y-118152475D01*
X130327000Y-117255525D01*
X130452930Y-117381455D01*
X130863696Y-117551600D01*
X131308304Y-117551600D01*
X131536974Y-117456882D01*
X131899383Y-117819291D01*
X131921944Y-117853056D01*
X131955708Y-117875616D01*
X132055711Y-117942436D01*
X132213500Y-117973822D01*
X132253327Y-117965900D01*
X133139340Y-117965900D01*
X132992930Y-118026545D01*
X132678545Y-118340930D01*
X132508400Y-118751696D01*
X132508400Y-119196304D01*
X132678545Y-119607070D01*
X132992930Y-119921455D01*
X133403696Y-120091600D01*
X133848304Y-120091600D01*
X134259070Y-119921455D01*
X134573455Y-119607070D01*
X134743600Y-119196304D01*
X134743600Y-118751696D01*
X134702242Y-118651850D01*
X136059083Y-120008691D01*
X136081644Y-120042456D01*
X136215411Y-120131836D01*
X136333373Y-120155300D01*
X136333374Y-120155300D01*
X136373199Y-120163222D01*
X136413025Y-120155300D01*
X151641493Y-120155300D01*
X153367820Y-121881628D01*
X153327000Y-122086845D01*
X153327001Y-123481156D01*
X153378582Y-123740470D01*
X153575068Y-124034533D01*
X153869131Y-124231019D01*
X154216000Y-124300016D01*
X154562870Y-124231019D01*
X154856933Y-124034533D01*
X155053419Y-123740470D01*
X155105000Y-123481156D01*
X155105000Y-122562300D01*
X182087273Y-122562300D01*
X182127100Y-122570222D01*
X182166927Y-122562300D01*
X182284889Y-122538836D01*
X182418656Y-122449456D01*
X182441219Y-122415688D01*
X183269292Y-121587615D01*
X183390699Y-121537327D01*
X183569327Y-121358698D01*
X183615676Y-121246801D01*
X183632656Y-121235456D01*
X183722036Y-121101689D01*
X183745500Y-120983727D01*
X183745500Y-120983726D01*
X183753422Y-120943901D01*
X183745500Y-120904075D01*
X183745500Y-118798925D01*
X183753422Y-118759099D01*
X183733687Y-118659885D01*
X183722036Y-118601311D01*
X183632656Y-118467544D01*
X183598891Y-118444983D01*
X183280540Y-118126632D01*
X183315873Y-117949000D01*
X183315873Y-117199000D01*
X183275158Y-116994313D01*
X183159212Y-116820788D01*
X182985687Y-116704842D01*
X182781000Y-116664127D01*
X181531000Y-116664127D01*
X181326313Y-116704842D01*
X181152788Y-116820788D01*
X181036842Y-116994313D01*
X180996127Y-117199000D01*
X180996127Y-117949000D01*
X181036842Y-118153687D01*
X181152788Y-118327212D01*
X181326313Y-118443158D01*
X181531000Y-118483873D01*
X182493965Y-118483873D01*
X182936701Y-118926609D01*
X182936701Y-119114000D01*
X182441750Y-119114000D01*
X182283000Y-119272750D01*
X182283000Y-120247000D01*
X182303000Y-120247000D01*
X182303000Y-120501000D01*
X182283000Y-120501000D01*
X182283000Y-120521000D01*
X182029000Y-120521000D01*
X182029000Y-120501000D01*
X180804750Y-120501000D01*
X180646000Y-120659750D01*
X180646000Y-121125309D01*
X180742673Y-121358698D01*
X180921301Y-121537327D01*
X181154690Y-121634000D01*
X181870250Y-121634000D01*
X182028998Y-121475252D01*
X182028998Y-121634000D01*
X182079093Y-121634000D01*
X181959593Y-121753500D01*
X169918407Y-121753500D01*
X170388034Y-121283873D01*
X171351000Y-121283873D01*
X171555687Y-121243158D01*
X171729212Y-121127212D01*
X171845158Y-120953687D01*
X171885873Y-120749000D01*
X171885873Y-120659750D01*
X173026000Y-120659750D01*
X173026000Y-121125309D01*
X173122673Y-121358698D01*
X173301301Y-121537327D01*
X173534690Y-121634000D01*
X174250250Y-121634000D01*
X174409000Y-121475250D01*
X174409000Y-120501000D01*
X174663000Y-120501000D01*
X174663000Y-121475250D01*
X174821750Y-121634000D01*
X175537310Y-121634000D01*
X175770699Y-121537327D01*
X175949327Y-121358698D01*
X176046000Y-121125309D01*
X176046000Y-120659750D01*
X176836000Y-120659750D01*
X176836000Y-121125309D01*
X176932673Y-121358698D01*
X177111301Y-121537327D01*
X177344690Y-121634000D01*
X178060250Y-121634000D01*
X178219000Y-121475250D01*
X178219000Y-120501000D01*
X178473000Y-120501000D01*
X178473000Y-121475250D01*
X178631750Y-121634000D01*
X179347310Y-121634000D01*
X179580699Y-121537327D01*
X179759327Y-121358698D01*
X179856000Y-121125309D01*
X179856000Y-120659750D01*
X179697250Y-120501000D01*
X178473000Y-120501000D01*
X178219000Y-120501000D01*
X176994750Y-120501000D01*
X176836000Y-120659750D01*
X176046000Y-120659750D01*
X175887250Y-120501000D01*
X174663000Y-120501000D01*
X174409000Y-120501000D01*
X173184750Y-120501000D01*
X173026000Y-120659750D01*
X171885873Y-120659750D01*
X171885873Y-119999000D01*
X171845158Y-119794313D01*
X171729212Y-119620788D01*
X171555687Y-119504842D01*
X171351000Y-119464127D01*
X170101000Y-119464127D01*
X169896313Y-119504842D01*
X169722788Y-119620788D01*
X169606842Y-119794313D01*
X169566127Y-119999000D01*
X169566127Y-120749000D01*
X169601460Y-120926632D01*
X169387193Y-121140900D01*
X168419542Y-121140900D01*
X168426000Y-121125309D01*
X168426000Y-120659750D01*
X168267250Y-120501000D01*
X167043000Y-120501000D01*
X167043000Y-120521000D01*
X166789000Y-120521000D01*
X166789000Y-120501000D01*
X166769000Y-120501000D01*
X166769000Y-120247000D01*
X166789000Y-120247000D01*
X166789000Y-120227000D01*
X167043000Y-120227000D01*
X167043000Y-120247000D01*
X168267250Y-120247000D01*
X168426000Y-120088250D01*
X168426000Y-119622691D01*
X168329327Y-119389302D01*
X168318425Y-119378400D01*
X173133575Y-119378400D01*
X173122673Y-119389302D01*
X173026000Y-119622691D01*
X173026000Y-120088250D01*
X173184750Y-120247000D01*
X174409000Y-120247000D01*
X174409000Y-120227000D01*
X174663000Y-120227000D01*
X174663000Y-120247000D01*
X175887250Y-120247000D01*
X176046000Y-120088250D01*
X176046000Y-119622691D01*
X175949327Y-119389302D01*
X175938425Y-119378400D01*
X176906173Y-119378400D01*
X176937370Y-119384605D01*
X176932673Y-119389302D01*
X176836000Y-119622691D01*
X176836000Y-120088250D01*
X176994750Y-120247000D01*
X178219000Y-120247000D01*
X178219000Y-119272750D01*
X178473000Y-119272750D01*
X178473000Y-120247000D01*
X179697250Y-120247000D01*
X179856000Y-120088250D01*
X179856000Y-119622691D01*
X180646000Y-119622691D01*
X180646000Y-120088250D01*
X180804750Y-120247000D01*
X182029000Y-120247000D01*
X182029000Y-119272750D01*
X181870250Y-119114000D01*
X181154690Y-119114000D01*
X180921301Y-119210673D01*
X180742673Y-119389302D01*
X180646000Y-119622691D01*
X179856000Y-119622691D01*
X179759327Y-119389302D01*
X179580699Y-119210673D01*
X179347310Y-119114000D01*
X178631750Y-119114000D01*
X178473000Y-119272750D01*
X178219000Y-119272750D01*
X178060250Y-119114000D01*
X177377907Y-119114000D01*
X178008035Y-118483873D01*
X178971000Y-118483873D01*
X179175687Y-118443158D01*
X179349212Y-118327212D01*
X179465158Y-118153687D01*
X179505873Y-117949000D01*
X179505873Y-117199000D01*
X179465158Y-116994313D01*
X179349212Y-116820788D01*
X179175687Y-116704842D01*
X178971000Y-116664127D01*
X177721000Y-116664127D01*
X177516313Y-116704842D01*
X177342788Y-116820788D01*
X177226842Y-116994313D01*
X177186127Y-117199000D01*
X177186127Y-117949000D01*
X177221460Y-118126632D01*
X176778493Y-118569600D01*
X174112307Y-118569600D01*
X174198034Y-118483873D01*
X175161000Y-118483873D01*
X175365687Y-118443158D01*
X175539212Y-118327212D01*
X175655158Y-118153687D01*
X175695873Y-117949000D01*
X175695873Y-117199000D01*
X175655158Y-116994313D01*
X175539212Y-116820788D01*
X175365687Y-116704842D01*
X175161000Y-116664127D01*
X173911000Y-116664127D01*
X173706313Y-116704842D01*
X173532788Y-116820788D01*
X173416842Y-116994313D01*
X173376127Y-117199000D01*
X173376127Y-117949000D01*
X173407058Y-118104500D01*
X171854942Y-118104500D01*
X171885873Y-117949000D01*
X171885873Y-117199000D01*
X171845158Y-116994313D01*
X171729212Y-116820788D01*
X171555687Y-116704842D01*
X171351000Y-116664127D01*
X170388035Y-116664127D01*
X165863219Y-112139312D01*
X165840656Y-112105544D01*
X165706889Y-112016164D01*
X165588927Y-111992700D01*
X165549100Y-111984778D01*
X165509273Y-111992700D01*
X155890400Y-111992700D01*
X155890400Y-111676837D01*
X156228156Y-111451156D01*
X156455673Y-111110652D01*
X156515400Y-110810386D01*
X156515400Y-109107614D01*
X156455673Y-108807348D01*
X156307573Y-108585700D01*
X157204427Y-108585700D01*
X157056327Y-108807349D01*
X156996600Y-109107615D01*
X156996601Y-110810386D01*
X157056328Y-111110652D01*
X157283845Y-111451156D01*
X157624349Y-111678673D01*
X158026000Y-111758567D01*
X158427652Y-111678673D01*
X158768156Y-111451156D01*
X158995673Y-111110652D01*
X159055400Y-110810386D01*
X159055400Y-109107615D01*
X159536600Y-109107615D01*
X159536601Y-110810386D01*
X159596328Y-111110652D01*
X159823845Y-111451156D01*
X160164349Y-111678673D01*
X160566000Y-111758567D01*
X160967652Y-111678673D01*
X161308156Y-111451156D01*
X161535673Y-111110652D01*
X161595400Y-110810386D01*
X161595400Y-109107615D01*
X162076600Y-109107615D01*
X162076601Y-110810386D01*
X162136328Y-111110652D01*
X162363845Y-111451156D01*
X162704349Y-111678673D01*
X163106000Y-111758567D01*
X163507652Y-111678673D01*
X163848156Y-111451156D01*
X164075673Y-111110652D01*
X164135400Y-110810386D01*
X164135400Y-109107615D01*
X164616600Y-109107615D01*
X164616601Y-110810386D01*
X164676328Y-111110652D01*
X164903845Y-111451156D01*
X165244349Y-111678673D01*
X165646000Y-111758567D01*
X166047652Y-111678673D01*
X166388156Y-111451156D01*
X166615673Y-111110652D01*
X166675400Y-110810386D01*
X166675400Y-109107614D01*
X166615673Y-108807348D01*
X166388156Y-108466844D01*
X166047651Y-108239327D01*
X165646000Y-108159433D01*
X165244348Y-108239327D01*
X164903844Y-108466844D01*
X164676327Y-108807349D01*
X164616600Y-109107615D01*
X164135400Y-109107615D01*
X164135400Y-109107614D01*
X164075673Y-108807348D01*
X163848156Y-108466844D01*
X163507651Y-108239327D01*
X163106000Y-108159433D01*
X162704348Y-108239327D01*
X162363844Y-108466844D01*
X162136327Y-108807349D01*
X162076600Y-109107615D01*
X161595400Y-109107615D01*
X161595400Y-109107614D01*
X161535673Y-108807348D01*
X161308156Y-108466844D01*
X160967651Y-108239327D01*
X160566000Y-108159433D01*
X160164348Y-108239327D01*
X159823844Y-108466844D01*
X159596327Y-108807349D01*
X159536600Y-109107615D01*
X159055400Y-109107615D01*
X159055400Y-109107614D01*
X158995673Y-108807348D01*
X158847573Y-108585700D01*
X158947073Y-108585700D01*
X158986900Y-108593622D01*
X159026727Y-108585700D01*
X159144689Y-108562236D01*
X159278456Y-108472856D01*
X159301019Y-108439088D01*
X162728791Y-105011316D01*
X162762556Y-104988756D01*
X162801521Y-104930440D01*
X162998845Y-105225756D01*
X163336601Y-105451437D01*
X163336601Y-105471468D01*
X163328678Y-105511300D01*
X163360064Y-105669089D01*
X163449444Y-105802856D01*
X163583211Y-105892236D01*
X163701173Y-105915700D01*
X163741000Y-105923622D01*
X163780827Y-105915700D01*
X165817793Y-105915700D01*
X168082177Y-108180085D01*
X167784348Y-108239327D01*
X167443844Y-108466844D01*
X167216327Y-108807349D01*
X167156600Y-109107615D01*
X167156601Y-110810386D01*
X167216328Y-111110652D01*
X167443845Y-111451156D01*
X167784349Y-111678673D01*
X168186000Y-111758567D01*
X168587652Y-111678673D01*
X168928156Y-111451156D01*
X169125947Y-111155140D01*
X169164445Y-111212756D01*
X169198210Y-111235317D01*
X169957383Y-111994491D01*
X169979944Y-112028256D01*
X170113711Y-112117636D01*
X170231673Y-112141100D01*
X170231674Y-112141100D01*
X170271499Y-112149022D01*
X170311325Y-112141100D01*
X173226173Y-112141100D01*
X173266000Y-112149022D01*
X173423789Y-112117636D01*
X173557556Y-112028256D01*
X173646936Y-111894489D01*
X173670400Y-111776527D01*
X173678322Y-111736700D01*
X173670400Y-111696873D01*
X173670400Y-111676837D01*
X174008156Y-111451156D01*
X174235673Y-111110652D01*
X174295400Y-110810386D01*
X174295400Y-109107614D01*
X174235673Y-108807348D01*
X174008156Y-108466844D01*
X173667651Y-108239327D01*
X173266000Y-108159433D01*
X172864348Y-108239327D01*
X172523844Y-108466844D01*
X172296327Y-108807349D01*
X172236600Y-109107615D01*
X172236601Y-110810386D01*
X172296328Y-111110652D01*
X172444428Y-111332300D01*
X171547573Y-111332300D01*
X171695673Y-111110652D01*
X171755400Y-110810386D01*
X171755400Y-109107614D01*
X171695673Y-108807348D01*
X171468156Y-108466844D01*
X171130400Y-108241164D01*
X171130400Y-108221127D01*
X171138322Y-108181300D01*
X171106936Y-108023511D01*
X171080039Y-107983257D01*
X171017556Y-107889744D01*
X170983791Y-107867183D01*
X169225400Y-106108793D01*
X169225400Y-105451437D01*
X169563156Y-105225756D01*
X169790673Y-104885252D01*
X169850400Y-104584986D01*
X169850400Y-102882214D01*
X169790673Y-102581948D01*
X169642573Y-102360300D01*
X170539427Y-102360300D01*
X170391327Y-102581949D01*
X170331600Y-102882215D01*
X170331601Y-104584986D01*
X170391328Y-104885252D01*
X170618845Y-105225756D01*
X170959349Y-105453273D01*
X171361000Y-105533167D01*
X171762652Y-105453273D01*
X172103156Y-105225756D01*
X172225816Y-105042183D01*
X172250064Y-105164088D01*
X172250065Y-105164089D01*
X172339445Y-105297856D01*
X172373210Y-105320417D01*
X175337072Y-108284280D01*
X175063844Y-108466844D01*
X174836327Y-108807349D01*
X174776600Y-109107615D01*
X174776601Y-110810386D01*
X174836328Y-111110652D01*
X175063845Y-111451156D01*
X175404349Y-111678673D01*
X175806000Y-111758567D01*
X176207652Y-111678673D01*
X176548156Y-111451156D01*
X176775673Y-111110652D01*
X176835400Y-110810386D01*
X176835400Y-109107615D01*
X177316600Y-109107615D01*
X177316601Y-110810386D01*
X177376328Y-111110652D01*
X177603845Y-111451156D01*
X177944349Y-111678673D01*
X178346000Y-111758567D01*
X178747652Y-111678673D01*
X179088156Y-111451156D01*
X179315673Y-111110652D01*
X179375400Y-110810386D01*
X179375400Y-109107614D01*
X179315673Y-108807348D01*
X179088156Y-108466844D01*
X178747651Y-108239327D01*
X178346000Y-108159433D01*
X177944348Y-108239327D01*
X177603844Y-108466844D01*
X177376327Y-108807349D01*
X177316600Y-109107615D01*
X176835400Y-109107615D01*
X176835400Y-109107614D01*
X176775673Y-108807348D01*
X176548156Y-108466844D01*
X176210400Y-108241164D01*
X176210400Y-108221126D01*
X176218322Y-108181299D01*
X176186936Y-108023511D01*
X176181542Y-108015438D01*
X176097556Y-107889744D01*
X176063791Y-107867183D01*
X173687258Y-105490651D01*
X173901000Y-105533167D01*
X174302652Y-105453273D01*
X174643156Y-105225756D01*
X174870673Y-104885252D01*
X174930400Y-104584986D01*
X174930400Y-102882214D01*
X174870673Y-102581948D01*
X174643156Y-102241444D01*
X174302651Y-102013927D01*
X173901000Y-101934033D01*
X173499348Y-102013927D01*
X173158844Y-102241444D01*
X172999941Y-102479260D01*
X172922556Y-102363444D01*
X172888791Y-102340883D01*
X172069707Y-101521800D01*
X175434993Y-101521800D01*
X175972072Y-102058879D01*
X175698844Y-102241444D01*
X175471327Y-102581949D01*
X175411600Y-102882215D01*
X175411601Y-104584986D01*
X175471328Y-104885252D01*
X175698845Y-105225756D01*
X176039349Y-105453273D01*
X176441000Y-105533167D01*
X176842652Y-105453273D01*
X177183156Y-105225756D01*
X177410673Y-104885252D01*
X177470400Y-104584986D01*
X177470400Y-102882214D01*
X177410673Y-102581948D01*
X177183156Y-102241444D01*
X176845400Y-102015764D01*
X176845400Y-101995726D01*
X176853322Y-101955899D01*
X176821936Y-101798111D01*
X176808426Y-101777892D01*
X176732556Y-101664344D01*
X176698791Y-101641783D01*
X175916619Y-100859612D01*
X175894056Y-100825844D01*
X175760289Y-100736464D01*
X175642327Y-100713000D01*
X175602500Y-100705078D01*
X175562673Y-100713000D01*
X174951607Y-100713000D01*
X178603791Y-97060817D01*
X178637556Y-97038256D01*
X178726936Y-96904489D01*
X178750400Y-96786527D01*
X178758322Y-96746701D01*
X178750400Y-96706875D01*
X178750400Y-96686837D01*
X179088156Y-96461156D01*
X179315673Y-96120652D01*
X179375400Y-95820386D01*
X179375400Y-94117614D01*
X179315673Y-93817348D01*
X179088156Y-93476844D01*
X178747651Y-93249327D01*
X178346000Y-93169433D01*
X177944348Y-93249327D01*
X177603844Y-93476844D01*
X177376327Y-93817349D01*
X177316600Y-94117615D01*
X177316601Y-95820386D01*
X177376328Y-96120652D01*
X177603845Y-96461156D01*
X177877072Y-96643720D01*
X174210493Y-100310300D01*
X172814307Y-100310300D01*
X176063791Y-97060817D01*
X176097556Y-97038256D01*
X176186936Y-96904489D01*
X176210400Y-96786527D01*
X176218322Y-96746700D01*
X176210400Y-96706873D01*
X176210400Y-96686836D01*
X176548156Y-96461156D01*
X176775673Y-96120652D01*
X176835400Y-95820386D01*
X176835400Y-94117614D01*
X176775673Y-93817348D01*
X176548156Y-93476844D01*
X176207652Y-93249327D01*
X175806000Y-93169433D01*
X175404349Y-93249327D01*
X175063845Y-93476844D01*
X174836328Y-93817348D01*
X174776601Y-94117614D01*
X174776600Y-95820385D01*
X174836327Y-96120651D01*
X175063844Y-96461156D01*
X175337072Y-96643720D01*
X172073193Y-99907600D01*
X170677007Y-99907600D01*
X173523791Y-97060817D01*
X173557556Y-97038256D01*
X173646936Y-96904489D01*
X173670400Y-96786527D01*
X173678322Y-96746700D01*
X173670400Y-96706873D01*
X173670400Y-96686836D01*
X174008156Y-96461156D01*
X174235673Y-96120652D01*
X174295400Y-95820386D01*
X174295400Y-94117614D01*
X174235673Y-93817348D01*
X174008156Y-93476844D01*
X173667652Y-93249327D01*
X173266000Y-93169433D01*
X172864349Y-93249327D01*
X172523845Y-93476844D01*
X172296328Y-93817348D01*
X172236601Y-94117614D01*
X172236600Y-95820385D01*
X172296327Y-96120651D01*
X172523844Y-96461156D01*
X172797072Y-96643720D01*
X169935893Y-99504900D01*
X168539707Y-99504900D01*
X170983791Y-97060817D01*
X171017556Y-97038256D01*
X171106936Y-96904489D01*
X171130400Y-96786527D01*
X171138322Y-96746701D01*
X171130400Y-96706874D01*
X171130400Y-96686836D01*
X171468156Y-96461156D01*
X171695673Y-96120652D01*
X171755400Y-95820386D01*
X171755400Y-94117614D01*
X171695673Y-93817348D01*
X171468156Y-93476844D01*
X171127652Y-93249327D01*
X170726000Y-93169433D01*
X170324349Y-93249327D01*
X169983845Y-93476844D01*
X169756328Y-93817348D01*
X169696601Y-94117614D01*
X169696600Y-95820385D01*
X169756327Y-96120651D01*
X169983844Y-96461156D01*
X170257072Y-96643720D01*
X167798593Y-99102200D01*
X166402407Y-99102200D01*
X168443791Y-97060817D01*
X168477556Y-97038256D01*
X168566936Y-96904489D01*
X168590400Y-96786527D01*
X168590400Y-96786526D01*
X168598322Y-96746701D01*
X168590400Y-96706875D01*
X168590400Y-96686836D01*
X168928156Y-96461156D01*
X169155673Y-96120652D01*
X169215400Y-95820386D01*
X169215400Y-94117614D01*
X169155673Y-93817348D01*
X168928156Y-93476844D01*
X168587652Y-93249327D01*
X168186000Y-93169433D01*
X167784349Y-93249327D01*
X167443845Y-93476844D01*
X167216328Y-93817348D01*
X167156601Y-94117614D01*
X167156600Y-95820385D01*
X167216327Y-96120651D01*
X167443844Y-96461156D01*
X167717072Y-96643720D01*
X165661293Y-98699500D01*
X164265107Y-98699500D01*
X165903791Y-97060817D01*
X165937556Y-97038256D01*
X166026936Y-96904489D01*
X166050400Y-96786527D01*
X166058322Y-96746701D01*
X166050400Y-96706875D01*
X166050400Y-96686836D01*
X166388156Y-96461156D01*
X166615673Y-96120652D01*
X166675400Y-95820386D01*
X166675400Y-94117614D01*
X166615673Y-93817348D01*
X166388156Y-93476844D01*
X166047652Y-93249327D01*
X165646000Y-93169433D01*
X165244349Y-93249327D01*
X164903845Y-93476844D01*
X164676328Y-93817348D01*
X164616601Y-94117614D01*
X164616600Y-95820385D01*
X164676327Y-96120651D01*
X164903844Y-96461156D01*
X165177072Y-96643720D01*
X163523993Y-98296800D01*
X159065007Y-98296800D01*
X160210708Y-97151100D01*
X163066173Y-97151100D01*
X163106000Y-97159022D01*
X163263789Y-97127636D01*
X163397556Y-97038256D01*
X163486936Y-96904489D01*
X163510400Y-96786527D01*
X163518322Y-96746700D01*
X163510400Y-96706873D01*
X163510400Y-96686836D01*
X163848156Y-96461156D01*
X164075673Y-96120652D01*
X164135400Y-95820386D01*
X164135400Y-94117614D01*
X164075673Y-93817348D01*
X163848156Y-93476844D01*
X163507652Y-93249327D01*
X163106000Y-93169433D01*
X162704349Y-93249327D01*
X162363845Y-93476844D01*
X162136328Y-93817348D01*
X162076601Y-94117614D01*
X162076600Y-95820385D01*
X162136327Y-96120651D01*
X162284427Y-96342300D01*
X161387573Y-96342300D01*
X161535673Y-96120652D01*
X161595400Y-95820386D01*
X161595400Y-94117614D01*
X161535673Y-93817348D01*
X161308156Y-93476844D01*
X160967652Y-93249327D01*
X160566000Y-93169433D01*
X160164349Y-93249327D01*
X159823845Y-93476844D01*
X159596328Y-93817348D01*
X159536601Y-94117614D01*
X159536600Y-95668392D01*
X158817127Y-96387865D01*
X158995673Y-96120652D01*
X159055400Y-95820386D01*
X159055400Y-94117614D01*
X158995673Y-93817348D01*
X158768156Y-93476844D01*
X158427652Y-93249327D01*
X158026000Y-93169433D01*
X157624349Y-93249327D01*
X157283845Y-93476844D01*
X157056328Y-93817348D01*
X156996601Y-94117614D01*
X156996600Y-95426492D01*
X156493721Y-95929371D01*
X156515400Y-95820386D01*
X156515400Y-94117614D01*
X156455673Y-93817348D01*
X156228156Y-93476844D01*
X155890400Y-93251163D01*
X155890400Y-93231127D01*
X155898322Y-93191300D01*
X155866936Y-93033511D01*
X155800116Y-92933508D01*
X155777556Y-92899744D01*
X155743791Y-92877183D01*
X153985400Y-91118793D01*
X153985400Y-90211437D01*
X154323156Y-89985756D01*
X154550673Y-89645252D01*
X154610400Y-89344986D01*
X154610400Y-87642215D01*
X155091600Y-87642215D01*
X155091601Y-89344986D01*
X155151328Y-89645252D01*
X155378845Y-89985756D01*
X155719349Y-90213273D01*
X156121000Y-90293167D01*
X156522652Y-90213273D01*
X156863156Y-89985756D01*
X157090673Y-89645252D01*
X157150400Y-89344986D01*
X157150400Y-87642215D01*
X157631600Y-87642215D01*
X157631601Y-89344986D01*
X157691328Y-89645252D01*
X157918845Y-89985756D01*
X158259349Y-90213273D01*
X158661000Y-90293167D01*
X159062652Y-90213273D01*
X159403156Y-89985756D01*
X159630673Y-89645252D01*
X159690400Y-89344986D01*
X159690400Y-87642215D01*
X160171600Y-87642215D01*
X160171601Y-89344986D01*
X160231328Y-89645252D01*
X160458845Y-89985756D01*
X160799349Y-90213273D01*
X161201000Y-90293167D01*
X161602652Y-90213273D01*
X161943156Y-89985756D01*
X162170673Y-89645252D01*
X162230400Y-89344986D01*
X162230400Y-87642215D01*
X162711600Y-87642215D01*
X162711601Y-89344986D01*
X162771328Y-89645252D01*
X162998845Y-89985756D01*
X163339349Y-90213273D01*
X163741000Y-90293167D01*
X164142652Y-90213273D01*
X164483156Y-89985756D01*
X164710673Y-89645252D01*
X164770400Y-89344986D01*
X164770400Y-87642215D01*
X165251600Y-87642215D01*
X165251601Y-89344986D01*
X165311328Y-89645252D01*
X165538845Y-89985756D01*
X165879349Y-90213273D01*
X166281000Y-90293167D01*
X166682652Y-90213273D01*
X167023156Y-89985756D01*
X167250673Y-89645252D01*
X167310400Y-89344986D01*
X167310400Y-87642215D01*
X167791600Y-87642215D01*
X167791601Y-89344986D01*
X167851328Y-89645252D01*
X168078845Y-89985756D01*
X168419349Y-90213273D01*
X168821000Y-90293167D01*
X169222652Y-90213273D01*
X169563156Y-89985756D01*
X169790673Y-89645252D01*
X169850400Y-89344986D01*
X169850400Y-87642215D01*
X170331600Y-87642215D01*
X170331601Y-89344986D01*
X170391328Y-89645252D01*
X170618845Y-89985756D01*
X170959349Y-90213273D01*
X171361000Y-90293167D01*
X171762652Y-90213273D01*
X172103156Y-89985756D01*
X172330673Y-89645252D01*
X172390400Y-89344986D01*
X172390400Y-87642215D01*
X172871600Y-87642215D01*
X172871601Y-89344986D01*
X172931328Y-89645252D01*
X173158845Y-89985756D01*
X173499349Y-90213273D01*
X173901000Y-90293167D01*
X174302652Y-90213273D01*
X174643156Y-89985756D01*
X174870673Y-89645252D01*
X174930400Y-89344986D01*
X174930400Y-88620600D01*
X175056000Y-88620600D01*
X175056000Y-89370600D01*
X175210028Y-89890949D01*
X175551460Y-90312745D01*
X176028316Y-90571773D01*
X176099815Y-90585918D01*
X176314000Y-90463256D01*
X176314000Y-88620600D01*
X176568000Y-88620600D01*
X176568000Y-90463256D01*
X176782185Y-90585918D01*
X176853684Y-90571773D01*
X177330540Y-90312745D01*
X177671972Y-89890949D01*
X177826000Y-89370600D01*
X177826000Y-88620600D01*
X176568000Y-88620600D01*
X176314000Y-88620600D01*
X175056000Y-88620600D01*
X174930400Y-88620600D01*
X174930400Y-87642214D01*
X174925306Y-87616600D01*
X175056000Y-87616600D01*
X175056000Y-88366600D01*
X176314000Y-88366600D01*
X176314000Y-86523944D01*
X176568000Y-86523944D01*
X176568000Y-88366600D01*
X177826000Y-88366600D01*
X177826000Y-87616600D01*
X177671972Y-87096251D01*
X177330540Y-86674455D01*
X176853684Y-86415427D01*
X176782185Y-86401282D01*
X176568000Y-86523944D01*
X176314000Y-86523944D01*
X176099815Y-86401282D01*
X176028316Y-86415427D01*
X175551460Y-86674455D01*
X175210028Y-87096251D01*
X175056000Y-87616600D01*
X174925306Y-87616600D01*
X174870673Y-87341948D01*
X174643156Y-87001444D01*
X174302651Y-86773927D01*
X173901000Y-86694033D01*
X173499348Y-86773927D01*
X173158844Y-87001444D01*
X172931327Y-87341949D01*
X172871600Y-87642215D01*
X172390400Y-87642215D01*
X172390400Y-87642214D01*
X172330673Y-87341948D01*
X172103156Y-87001444D01*
X171762651Y-86773927D01*
X171361000Y-86694033D01*
X170959348Y-86773927D01*
X170618844Y-87001444D01*
X170391327Y-87341949D01*
X170331600Y-87642215D01*
X169850400Y-87642215D01*
X169850400Y-87642214D01*
X169790673Y-87341948D01*
X169563156Y-87001444D01*
X169222651Y-86773927D01*
X168821000Y-86694033D01*
X168419348Y-86773927D01*
X168078844Y-87001444D01*
X167851327Y-87341949D01*
X167791600Y-87642215D01*
X167310400Y-87642215D01*
X167310400Y-87642214D01*
X167250673Y-87341948D01*
X167023156Y-87001444D01*
X166682651Y-86773927D01*
X166281000Y-86694033D01*
X165879348Y-86773927D01*
X165538844Y-87001444D01*
X165311327Y-87341949D01*
X165251600Y-87642215D01*
X164770400Y-87642215D01*
X164770400Y-87642214D01*
X164710673Y-87341948D01*
X164483156Y-87001444D01*
X164142651Y-86773927D01*
X163741000Y-86694033D01*
X163339348Y-86773927D01*
X162998844Y-87001444D01*
X162771327Y-87341949D01*
X162711600Y-87642215D01*
X162230400Y-87642215D01*
X162230400Y-87642214D01*
X162170673Y-87341948D01*
X161943156Y-87001444D01*
X161602651Y-86773927D01*
X161201000Y-86694033D01*
X160799348Y-86773927D01*
X160458844Y-87001444D01*
X160231327Y-87341949D01*
X160171600Y-87642215D01*
X159690400Y-87642215D01*
X159690400Y-87642214D01*
X159630673Y-87341948D01*
X159403156Y-87001444D01*
X159062651Y-86773927D01*
X158661000Y-86694033D01*
X158259348Y-86773927D01*
X157918844Y-87001444D01*
X157691327Y-87341949D01*
X157631600Y-87642215D01*
X157150400Y-87642215D01*
X157150400Y-87642214D01*
X157090673Y-87341948D01*
X156863156Y-87001444D01*
X156522651Y-86773927D01*
X156121000Y-86694033D01*
X155719348Y-86773927D01*
X155378844Y-87001444D01*
X155151327Y-87341949D01*
X155091600Y-87642215D01*
X154610400Y-87642215D01*
X154610400Y-87642214D01*
X154550673Y-87341948D01*
X154323156Y-87001444D01*
X153982651Y-86773927D01*
X153581000Y-86694033D01*
X153179348Y-86773927D01*
X152838844Y-87001444D01*
X152611327Y-87341949D01*
X152551600Y-87642215D01*
X152551601Y-89344986D01*
X152611328Y-89645252D01*
X152838845Y-89985756D01*
X153176601Y-90211437D01*
X153176601Y-91246469D01*
X153168678Y-91286300D01*
X153200064Y-91444088D01*
X153200065Y-91444089D01*
X153289445Y-91577856D01*
X153323210Y-91600417D01*
X155017072Y-93294280D01*
X154743845Y-93476844D01*
X154516328Y-93817348D01*
X154456601Y-94117614D01*
X154456600Y-95820385D01*
X154516327Y-96120651D01*
X154743844Y-96461156D01*
X155084348Y-96688673D01*
X155413270Y-96754100D01*
X153018730Y-96754100D01*
X153347651Y-96688673D01*
X153688156Y-96461156D01*
X153915673Y-96120652D01*
X153975400Y-95820386D01*
X153975400Y-94117614D01*
X153915673Y-93817348D01*
X153688156Y-93476844D01*
X153350400Y-93251163D01*
X153350400Y-93231127D01*
X153358322Y-93191300D01*
X153326936Y-93033511D01*
X153237556Y-92899744D01*
X153103789Y-92810364D01*
X152985827Y-92786900D01*
X152946000Y-92778978D01*
X152906173Y-92786900D01*
X151100608Y-92786900D01*
X148589309Y-90275601D01*
X148902652Y-90213273D01*
X149243156Y-89985756D01*
X149470673Y-89645252D01*
X149530400Y-89344986D01*
X149530400Y-87642215D01*
X150011600Y-87642215D01*
X150011601Y-89344986D01*
X150071328Y-89645252D01*
X150298845Y-89985756D01*
X150639349Y-90213273D01*
X151041000Y-90293167D01*
X151442652Y-90213273D01*
X151783156Y-89985756D01*
X152010673Y-89645252D01*
X152070400Y-89344986D01*
X152070400Y-87642214D01*
X152010673Y-87341948D01*
X151783156Y-87001444D01*
X151442651Y-86773927D01*
X151041000Y-86694033D01*
X150639348Y-86773927D01*
X150298844Y-87001444D01*
X150071327Y-87341949D01*
X150011600Y-87642215D01*
X149530400Y-87642215D01*
X149530400Y-87642214D01*
X149470673Y-87341948D01*
X149243156Y-87001444D01*
X148902651Y-86773927D01*
X148501000Y-86694033D01*
X148099348Y-86773927D01*
X147758844Y-87001444D01*
X147531327Y-87341949D01*
X147492900Y-87535133D01*
X147492900Y-87369526D01*
X147500822Y-87329699D01*
X147469436Y-87171911D01*
X147436072Y-87121978D01*
X147380056Y-87038144D01*
X147346291Y-87015583D01*
X146386119Y-86055412D01*
X146363556Y-86021644D01*
X146229789Y-85932264D01*
X146111827Y-85908800D01*
X146072000Y-85900878D01*
X146032173Y-85908800D01*
X131163527Y-85908800D01*
X131123700Y-85900878D01*
X131083873Y-85908800D01*
X130965911Y-85932264D01*
X130832144Y-86021644D01*
X130809583Y-86055409D01*
X130463210Y-86401783D01*
X130429445Y-86424344D01*
X130406885Y-86458108D01*
X130340064Y-86558112D01*
X130308678Y-86715900D01*
X130316601Y-86755731D01*
X130316601Y-86775763D01*
X129978844Y-87001444D01*
X129751327Y-87341949D01*
X129691600Y-87642215D01*
X129691601Y-89344986D01*
X129751328Y-89645252D01*
X129978845Y-89985756D01*
X130319349Y-90213273D01*
X130721000Y-90293167D01*
X131122652Y-90213273D01*
X131463156Y-89985756D01*
X131690673Y-89645252D01*
X131750400Y-89344986D01*
X131750400Y-87642214D01*
X131690673Y-87341948D01*
X131463156Y-87001444D01*
X131189928Y-86818880D01*
X131291208Y-86717600D01*
X133142521Y-86717600D01*
X132859348Y-86773927D01*
X132518844Y-87001444D01*
X132291327Y-87341949D01*
X132231600Y-87642215D01*
X132231601Y-89344986D01*
X132291328Y-89645252D01*
X132518845Y-89985756D01*
X132856601Y-90211437D01*
X132856601Y-90231469D01*
X132848678Y-90271300D01*
X132880064Y-90429088D01*
X132914083Y-90480000D01*
X132969445Y-90562856D01*
X133003209Y-90585416D01*
X133752283Y-91334491D01*
X133774844Y-91368256D01*
X133908611Y-91457636D01*
X134066400Y-91489022D01*
X134106227Y-91481100D01*
X140996693Y-91481100D01*
X142701778Y-93186186D01*
X142384349Y-93249327D01*
X142043845Y-93476844D01*
X141816328Y-93817348D01*
X141756601Y-94117614D01*
X141756600Y-95820385D01*
X141816327Y-96120651D01*
X142043844Y-96461156D01*
X142384348Y-96688673D01*
X142713270Y-96754100D01*
X140318730Y-96754100D01*
X140647652Y-96688673D01*
X140988156Y-96461156D01*
X141215673Y-96120652D01*
X141275400Y-95820386D01*
X141275400Y-94117614D01*
X141215673Y-93817348D01*
X140988156Y-93476844D01*
X140647651Y-93249327D01*
X140246000Y-93169433D01*
X139844348Y-93249327D01*
X139503844Y-93476844D01*
X139276327Y-93817349D01*
X139216600Y-94117615D01*
X139216601Y-95820386D01*
X139276328Y-96120652D01*
X139503845Y-96461156D01*
X139844349Y-96688673D01*
X140173270Y-96754100D01*
X137850108Y-96754100D01*
X137838265Y-96742258D01*
X138107651Y-96688673D01*
X138448156Y-96461156D01*
X138675673Y-96120652D01*
X138735400Y-95820386D01*
X138735400Y-94117614D01*
X138675673Y-93817348D01*
X138448156Y-93476844D01*
X138107652Y-93249327D01*
X137706000Y-93169433D01*
X137304349Y-93249327D01*
X136963845Y-93476844D01*
X136764350Y-93775410D01*
X136727556Y-93720344D01*
X136693791Y-93697783D01*
X135587119Y-92591112D01*
X135564556Y-92557344D01*
X135430789Y-92467964D01*
X135312827Y-92444500D01*
X135273000Y-92436578D01*
X135233173Y-92444500D01*
X130926108Y-92444500D01*
X128649928Y-90168321D01*
X128923156Y-89985756D01*
X129150673Y-89645252D01*
X129210400Y-89344986D01*
X129210400Y-87642214D01*
X129150673Y-87341948D01*
X128923156Y-87001444D01*
X128582651Y-86773927D01*
X128181000Y-86694033D01*
X127779348Y-86773927D01*
X127438844Y-87001444D01*
X127211327Y-87341949D01*
X127151600Y-87642215D01*
X127151601Y-89344986D01*
X127211328Y-89645252D01*
X127438845Y-89985756D01*
X127776601Y-90211437D01*
X127776601Y-90231469D01*
X127768678Y-90271300D01*
X127800064Y-90429088D01*
X127834083Y-90480000D01*
X127889445Y-90562856D01*
X127923209Y-90585416D01*
X130291932Y-92954140D01*
X130213000Y-92999344D01*
X130213000Y-94842000D01*
X131471000Y-94842000D01*
X131471000Y-94092000D01*
X131316972Y-93571651D01*
X131059276Y-93253300D01*
X132218403Y-93253300D01*
X131883845Y-93476844D01*
X131656328Y-93817348D01*
X131596601Y-94117614D01*
X131596600Y-95820385D01*
X131656327Y-96120651D01*
X131883844Y-96461156D01*
X132224348Y-96688673D01*
X132626000Y-96768567D01*
X133027651Y-96688673D01*
X133368156Y-96461156D01*
X133595673Y-96120652D01*
X133655400Y-95820386D01*
X133655400Y-94117614D01*
X133595673Y-93817348D01*
X133368156Y-93476844D01*
X133033598Y-93253300D01*
X134758403Y-93253300D01*
X134423845Y-93476844D01*
X134196328Y-93817348D01*
X134136601Y-94117614D01*
X134136600Y-95820385D01*
X134196327Y-96120651D01*
X134423844Y-96461156D01*
X134764348Y-96688673D01*
X135166000Y-96768567D01*
X135567651Y-96688673D01*
X135908156Y-96461156D01*
X136112395Y-96155490D01*
X136144445Y-96203456D01*
X136178210Y-96226017D01*
X137368483Y-97416291D01*
X137391044Y-97450056D01*
X137424808Y-97472616D01*
X137524811Y-97539436D01*
X137682600Y-97570822D01*
X137722427Y-97562900D01*
X155796673Y-97562900D01*
X155836500Y-97570822D01*
X155876327Y-97562900D01*
X155994289Y-97539436D01*
X156128056Y-97450056D01*
X156150619Y-97416288D01*
X157212510Y-96354397D01*
X157283844Y-96461156D01*
X157624348Y-96688673D01*
X158026000Y-96768567D01*
X158427651Y-96688673D01*
X158694866Y-96510127D01*
X157512193Y-97692800D01*
X134619527Y-97692800D01*
X134579700Y-97684878D01*
X134539873Y-97692800D01*
X134421911Y-97716264D01*
X134288144Y-97805644D01*
X134265584Y-97839408D01*
X130463210Y-101641783D01*
X130429445Y-101664344D01*
X130374083Y-101747200D01*
X130340064Y-101798112D01*
X130308678Y-101955900D01*
X130316601Y-101995731D01*
X130316601Y-102015763D01*
X129978844Y-102241444D01*
X129751327Y-102581949D01*
X129691600Y-102882215D01*
X129691601Y-104584986D01*
X129751328Y-104885252D01*
X129978845Y-105225756D01*
X130319349Y-105453273D01*
X130721000Y-105533167D01*
X131122652Y-105453273D01*
X131463156Y-105225756D01*
X131690673Y-104885252D01*
X131750400Y-104584986D01*
X131750400Y-102882214D01*
X131690673Y-102581948D01*
X131463156Y-102241444D01*
X131189928Y-102058880D01*
X134747208Y-98501600D01*
X136143392Y-98501600D01*
X133003210Y-101641783D01*
X132969445Y-101664344D01*
X132914083Y-101747200D01*
X132880064Y-101798112D01*
X132848678Y-101955900D01*
X132856601Y-101995731D01*
X132856601Y-102015763D01*
X132518844Y-102241444D01*
X132291327Y-102581949D01*
X132231600Y-102882215D01*
X132231601Y-104584986D01*
X132291328Y-104885252D01*
X132518845Y-105225756D01*
X132859349Y-105453273D01*
X133261000Y-105533167D01*
X133662652Y-105453273D01*
X134003156Y-105225756D01*
X134230673Y-104885252D01*
X134290400Y-104584986D01*
X134290400Y-102882214D01*
X134230673Y-102581948D01*
X134003156Y-102241444D01*
X133729928Y-102058880D01*
X136683208Y-99105600D01*
X138079392Y-99105600D01*
X135543210Y-101641783D01*
X135509445Y-101664344D01*
X135454083Y-101747200D01*
X135420064Y-101798112D01*
X135388678Y-101955900D01*
X135396601Y-101995731D01*
X135396601Y-102015763D01*
X135058844Y-102241444D01*
X134831327Y-102581949D01*
X134771600Y-102882215D01*
X134771601Y-104584986D01*
X134831328Y-104885252D01*
X135039277Y-105196470D01*
X135004444Y-105219744D01*
X134981883Y-105253509D01*
X132368210Y-107867183D01*
X132334445Y-107889744D01*
X132311885Y-107923508D01*
X132245064Y-108023512D01*
X132213678Y-108181300D01*
X132221601Y-108221131D01*
X132221601Y-108241163D01*
X131883844Y-108466844D01*
X131712046Y-108723960D01*
X131702354Y-108709455D01*
X131647556Y-108627444D01*
X131613791Y-108604884D01*
X128482168Y-105473261D01*
X128582652Y-105453273D01*
X128923156Y-105225756D01*
X129150673Y-104885252D01*
X129210400Y-104584986D01*
X129210400Y-102882214D01*
X129150673Y-102581948D01*
X128923156Y-102241444D01*
X128582651Y-102013927D01*
X128181000Y-101934033D01*
X127779348Y-102013927D01*
X127438844Y-102241444D01*
X127211327Y-102581949D01*
X127151600Y-102882215D01*
X127151601Y-104584986D01*
X127211328Y-104885252D01*
X127359428Y-105106900D01*
X126462573Y-105106900D01*
X126610673Y-104885252D01*
X126670400Y-104584986D01*
X126670400Y-102882214D01*
X126610673Y-102581948D01*
X126383156Y-102241444D01*
X126042651Y-102013927D01*
X125641000Y-101934033D01*
X125239348Y-102013927D01*
X124898844Y-102241444D01*
X124671327Y-102581949D01*
X124611600Y-102882215D01*
X124130400Y-102882215D01*
X124130400Y-102882214D01*
X124070673Y-102581948D01*
X123843156Y-102241444D01*
X123502651Y-102013927D01*
X123101000Y-101934033D01*
X122699348Y-102013927D01*
X122358844Y-102241444D01*
X122131327Y-102581949D01*
X122071600Y-102882215D01*
X121590400Y-102882215D01*
X121590400Y-102882214D01*
X121530673Y-102581948D01*
X121303156Y-102241444D01*
X120962651Y-102013927D01*
X120561000Y-101934033D01*
X120159348Y-102013927D01*
X119818844Y-102241444D01*
X119591327Y-102581949D01*
X119531600Y-102882215D01*
X119050400Y-102882215D01*
X119050400Y-102882214D01*
X118990673Y-102581948D01*
X118763156Y-102241444D01*
X118422651Y-102013927D01*
X118021000Y-101934033D01*
X117619348Y-102013927D01*
X117278844Y-102241444D01*
X117051327Y-102581949D01*
X116991600Y-102882215D01*
X107542400Y-102882215D01*
X107542400Y-95096000D01*
X128701000Y-95096000D01*
X128701000Y-95846000D01*
X128855028Y-96366349D01*
X129196460Y-96788145D01*
X129673316Y-97047173D01*
X129744815Y-97061318D01*
X129959000Y-96938656D01*
X129959000Y-95096000D01*
X130213000Y-95096000D01*
X130213000Y-96938656D01*
X130427185Y-97061318D01*
X130498684Y-97047173D01*
X130975540Y-96788145D01*
X131316972Y-96366349D01*
X131471000Y-95846000D01*
X131471000Y-95096000D01*
X130213000Y-95096000D01*
X129959000Y-95096000D01*
X128701000Y-95096000D01*
X107542400Y-95096000D01*
X107542400Y-94092000D01*
X128701000Y-94092000D01*
X128701000Y-94842000D01*
X129959000Y-94842000D01*
X129959000Y-92999344D01*
X129744815Y-92876682D01*
X129673316Y-92890827D01*
X129196460Y-93149855D01*
X128855028Y-93571651D01*
X128701000Y-94092000D01*
X107542400Y-94092000D01*
X107542400Y-87642215D01*
X116991600Y-87642215D01*
X116991601Y-89344986D01*
X117051328Y-89645252D01*
X117278845Y-89985756D01*
X117619349Y-90213273D01*
X118021000Y-90293167D01*
X118422652Y-90213273D01*
X118763156Y-89985756D01*
X118990673Y-89645252D01*
X119050400Y-89344986D01*
X119050400Y-87642215D01*
X119531600Y-87642215D01*
X119531601Y-89344986D01*
X119591328Y-89645252D01*
X119818845Y-89985756D01*
X120159349Y-90213273D01*
X120561000Y-90293167D01*
X120962652Y-90213273D01*
X121303156Y-89985756D01*
X121530673Y-89645252D01*
X121590400Y-89344986D01*
X121590400Y-87642215D01*
X122071600Y-87642215D01*
X122071601Y-89344986D01*
X122131328Y-89645252D01*
X122358845Y-89985756D01*
X122699349Y-90213273D01*
X123101000Y-90293167D01*
X123502652Y-90213273D01*
X123843156Y-89985756D01*
X124070673Y-89645252D01*
X124130400Y-89344986D01*
X124130400Y-87642215D01*
X124611600Y-87642215D01*
X124611601Y-89344986D01*
X124671328Y-89645252D01*
X124898845Y-89985756D01*
X125239349Y-90213273D01*
X125641000Y-90293167D01*
X126042652Y-90213273D01*
X126383156Y-89985756D01*
X126610673Y-89645252D01*
X126670400Y-89344986D01*
X126670400Y-87642214D01*
X126610673Y-87341948D01*
X126383156Y-87001444D01*
X126042651Y-86773927D01*
X125641000Y-86694033D01*
X125239348Y-86773927D01*
X124898844Y-87001444D01*
X124671327Y-87341949D01*
X124611600Y-87642215D01*
X124130400Y-87642215D01*
X124130400Y-87642214D01*
X124070673Y-87341948D01*
X123843156Y-87001444D01*
X123502651Y-86773927D01*
X123101000Y-86694033D01*
X122699348Y-86773927D01*
X122358844Y-87001444D01*
X122131327Y-87341949D01*
X122071600Y-87642215D01*
X121590400Y-87642215D01*
X121590400Y-87642214D01*
X121530673Y-87341948D01*
X121303156Y-87001444D01*
X120962651Y-86773927D01*
X120561000Y-86694033D01*
X120159348Y-86773927D01*
X119818844Y-87001444D01*
X119591327Y-87341949D01*
X119531600Y-87642215D01*
X119050400Y-87642215D01*
X119050400Y-87642214D01*
X118990673Y-87341948D01*
X118763156Y-87001444D01*
X118422651Y-86773927D01*
X118021000Y-86694033D01*
X117619348Y-86773927D01*
X117278844Y-87001444D01*
X117051327Y-87341949D01*
X116991600Y-87642215D01*
X107542400Y-87642215D01*
X107542400Y-84728893D01*
X107608572Y-84353610D01*
X107789011Y-84041084D01*
X108065453Y-83809121D01*
X108414109Y-83682220D01*
X108594932Y-83666400D01*
X188448107Y-83666400D01*
X188823390Y-83732572D01*
G04 #@! TD*
M02*
