G04 #@! TF.GenerationSoftware,KiCad,Pcbnew,(5.0.0)*
G04 #@! TF.CreationDate,2018-09-19T20:24:58-05:00*
G04 #@! TF.ProjectId,27C160_Adapter,3237433136305F416461707465722E6B,1.0*
G04 #@! TF.SameCoordinates,Original*
G04 #@! TF.FileFunction,Copper,L2,Bot,Signal*
G04 #@! TF.FilePolarity,Positive*
%FSLAX46Y46*%
G04 Gerber Fmt 4.6, Leading zero omitted, Abs format (unit mm)*
G04 Created by KiCad (PCBNEW (5.0.0)) date 09/19/18 20:24:58*
%MOMM*%
%LPD*%
G01*
G04 APERTURE LIST*
G04 #@! TA.AperFunction,ComponentPad*
%ADD10O,1.500000X3.000000*%
G04 #@! TD*
G04 #@! TA.AperFunction,ComponentPad*
%ADD11O,1.219200X2.438400*%
G04 #@! TD*
G04 #@! TA.AperFunction,ComponentPad*
%ADD12C,1.676400*%
G04 #@! TD*
G04 #@! TA.AperFunction,ViaPad*
%ADD13C,0.600000*%
G04 #@! TD*
G04 #@! TA.AperFunction,Conductor*
%ADD14C,0.250000*%
G04 #@! TD*
G04 #@! TA.AperFunction,Conductor*
%ADD15C,0.254000*%
G04 #@! TD*
G04 APERTURE END LIST*
D10*
G04 #@! TO.P,U1,1*
G04 #@! TO.N,/VPP*
X130086000Y-109959000D03*
G04 #@! TO.P,U1,2*
G04 #@! TO.N,/E*
X132626000Y-109959000D03*
G04 #@! TO.P,U1,3*
G04 #@! TO.N,/D15*
X135166000Y-109959000D03*
G04 #@! TO.P,U1,4*
G04 #@! TO.N,/D14*
X137706000Y-109959000D03*
G04 #@! TO.P,U1,5*
G04 #@! TO.N,/D13*
X140246000Y-109959000D03*
G04 #@! TO.P,U1,6*
G04 #@! TO.N,/D12*
X142786000Y-109959000D03*
G04 #@! TO.P,U1,7*
G04 #@! TO.N,/D11*
X145326000Y-109959000D03*
G04 #@! TO.P,U1,8*
G04 #@! TO.N,/D10*
X147866000Y-109959000D03*
G04 #@! TO.P,U1,9*
G04 #@! TO.N,/D9*
X150406000Y-109959000D03*
G04 #@! TO.P,U1,10*
G04 #@! TO.N,/D8*
X152946000Y-109959000D03*
G04 #@! TO.P,U1,11*
G04 #@! TO.N,GND*
X155486000Y-109959000D03*
G04 #@! TO.P,U1,12*
G04 #@! TO.N,/D7*
X158026000Y-109959000D03*
G04 #@! TO.P,U1,13*
G04 #@! TO.N,/D6*
X160566000Y-109959000D03*
G04 #@! TO.P,U1,14*
G04 #@! TO.N,/D5*
X163106000Y-109959000D03*
G04 #@! TO.P,U1,15*
G04 #@! TO.N,/D4*
X165646000Y-109959000D03*
G04 #@! TO.P,U1,16*
G04 #@! TO.N,/D3*
X168186000Y-109959000D03*
G04 #@! TO.P,U1,17*
G04 #@! TO.N,/D2*
X170726000Y-109959000D03*
G04 #@! TO.P,U1,18*
G04 #@! TO.N,/D1*
X173266000Y-109959000D03*
G04 #@! TO.P,U1,19*
G04 #@! TO.N,/D0*
X175806000Y-109959000D03*
G04 #@! TO.P,U1,20*
G04 #@! TO.N,/N$5*
X178346000Y-109959000D03*
G04 #@! TO.P,U1,21*
G04 #@! TO.N,/A0*
X178346000Y-94969000D03*
G04 #@! TO.P,U1,22*
G04 #@! TO.N,/A1*
X175806000Y-94969000D03*
G04 #@! TO.P,U1,23*
G04 #@! TO.N,/A2*
X173266000Y-94969000D03*
G04 #@! TO.P,U1,24*
G04 #@! TO.N,/A3*
X170726000Y-94969000D03*
G04 #@! TO.P,U1,25*
G04 #@! TO.N,/A4*
X168186000Y-94969000D03*
G04 #@! TO.P,U1,26*
G04 #@! TO.N,/A5*
X165646000Y-94969000D03*
G04 #@! TO.P,U1,27*
G04 #@! TO.N,/A6*
X163106000Y-94969000D03*
G04 #@! TO.P,U1,28*
G04 #@! TO.N,/A7*
X160566000Y-94969000D03*
G04 #@! TO.P,U1,29*
G04 #@! TO.N,/A8*
X158026000Y-94969000D03*
G04 #@! TO.P,U1,30*
G04 #@! TO.N,GND*
X155486000Y-94969000D03*
G04 #@! TO.P,U1,31*
G04 #@! TO.N,/A9*
X152946000Y-94969000D03*
G04 #@! TO.P,U1,32*
G04 #@! TO.N,/A10*
X150406000Y-94969000D03*
G04 #@! TO.P,U1,33*
G04 #@! TO.N,/A11*
X147866000Y-94969000D03*
G04 #@! TO.P,U1,34*
G04 #@! TO.N,/A12*
X145326000Y-94969000D03*
G04 #@! TO.P,U1,35*
G04 #@! TO.N,/A13*
X142786000Y-94969000D03*
G04 #@! TO.P,U1,36*
G04 #@! TO.N,/A14*
X140246000Y-94969000D03*
G04 #@! TO.P,U1,37*
G04 #@! TO.N,/A15*
X137706000Y-94969000D03*
G04 #@! TO.P,U1,38*
G04 #@! TO.N,/A16*
X135166000Y-94969000D03*
G04 #@! TO.P,U1,39*
G04 #@! TO.N,/A17*
X132626000Y-94969000D03*
G04 #@! TO.P,U1,40*
G04 #@! TO.N,VCC*
X130086000Y-94969000D03*
G04 #@! TD*
D11*
G04 #@! TO.P,SW2,1*
G04 #@! TO.N,/A18*
X149136000Y-122784000D03*
G04 #@! TO.P,SW2,2*
G04 #@! TO.N,/A19*
X151676000Y-122784000D03*
G04 #@! TO.P,SW2,3*
G04 #@! TO.N,/A20*
X154216000Y-122784000D03*
G04 #@! TO.P,SW2,4*
G04 #@! TO.N,GND*
X154216000Y-115164000D03*
G04 #@! TO.P,SW2,6*
X149136000Y-115164000D03*
G04 #@! TO.P,SW2,5*
X151676000Y-115164000D03*
G04 #@! TD*
D12*
G04 #@! TO.P,SW1,2*
G04 #@! TO.N,/N$2*
X131086000Y-118974000D03*
G04 #@! TO.P,SW1,5*
G04 #@! TO.N,/N$6*
X133626000Y-118974000D03*
G04 #@! TO.P,SW1,1*
G04 #@! TO.N,/VPP*
X131086000Y-121514000D03*
G04 #@! TO.P,SW1,3*
G04 #@! TO.N,/A20*
X131086000Y-116434000D03*
G04 #@! TO.P,SW1,4*
G04 #@! TO.N,/N$5*
X133626000Y-121514000D03*
G04 #@! TO.P,SW1,6*
G04 #@! TO.N,/N$4*
X133626000Y-116434000D03*
G04 #@! TD*
D10*
G04 #@! TO.P,ZX1,1*
G04 #@! TO.N,N/C*
X118021000Y-103733600D03*
G04 #@! TO.P,ZX1,2*
X120561000Y-103733600D03*
G04 #@! TO.P,ZX1,3*
X123101000Y-103733600D03*
G04 #@! TO.P,ZX1,4*
G04 #@! TO.N,/A18*
X125641000Y-103733600D03*
G04 #@! TO.P,ZX1,5*
G04 #@! TO.N,/A17*
X128181000Y-103733600D03*
G04 #@! TO.P,ZX1,6*
G04 #@! TO.N,/A7*
X130721000Y-103733600D03*
G04 #@! TO.P,ZX1,7*
G04 #@! TO.N,/A6*
X133261000Y-103733600D03*
G04 #@! TO.P,ZX1,8*
G04 #@! TO.N,/A5*
X135801000Y-103733600D03*
G04 #@! TO.P,ZX1,9*
G04 #@! TO.N,/A4*
X138341000Y-103733600D03*
G04 #@! TO.P,ZX1,10*
G04 #@! TO.N,/A3*
X140881000Y-103733600D03*
G04 #@! TO.P,ZX1,11*
G04 #@! TO.N,/A2*
X143421000Y-103733600D03*
G04 #@! TO.P,ZX1,12*
G04 #@! TO.N,/A1*
X145961000Y-103733600D03*
G04 #@! TO.P,ZX1,13*
G04 #@! TO.N,/A0*
X148501000Y-103733600D03*
G04 #@! TO.P,ZX1,14*
G04 #@! TO.N,/E*
X151041000Y-103733600D03*
G04 #@! TO.P,ZX1,15*
G04 #@! TO.N,GND*
X153581000Y-103733600D03*
G04 #@! TO.P,ZX1,16*
G04 #@! TO.N,/N$6*
X156121000Y-103733600D03*
G04 #@! TO.P,ZX1,17*
G04 #@! TO.N,/D0*
X158661000Y-103733600D03*
G04 #@! TO.P,ZX1,18*
G04 #@! TO.N,/D8*
X161201000Y-103733600D03*
G04 #@! TO.P,ZX1,19*
G04 #@! TO.N,/D1*
X163741000Y-103733600D03*
G04 #@! TO.P,ZX1,20*
G04 #@! TO.N,/D9*
X166281000Y-103733600D03*
G04 #@! TO.P,ZX1,21*
G04 #@! TO.N,/D2*
X168821000Y-103733600D03*
G04 #@! TO.P,ZX1,22*
G04 #@! TO.N,/D10*
X171361000Y-103733600D03*
G04 #@! TO.P,ZX1,23*
G04 #@! TO.N,/D3*
X173901000Y-103733600D03*
G04 #@! TO.P,ZX1,24*
G04 #@! TO.N,/D11*
X176441000Y-103733600D03*
G04 #@! TO.P,ZX1,25*
G04 #@! TO.N,VCC*
X176441000Y-88493600D03*
G04 #@! TO.P,ZX1,26*
G04 #@! TO.N,/D4*
X173901000Y-88493600D03*
G04 #@! TO.P,ZX1,27*
G04 #@! TO.N,/D12*
X171361000Y-88493600D03*
G04 #@! TO.P,ZX1,28*
G04 #@! TO.N,/D5*
X168821000Y-88493600D03*
G04 #@! TO.P,ZX1,29*
G04 #@! TO.N,/D13*
X166281000Y-88493600D03*
G04 #@! TO.P,ZX1,30*
G04 #@! TO.N,/D6*
X163741000Y-88493600D03*
G04 #@! TO.P,ZX1,31*
G04 #@! TO.N,/D14*
X161201000Y-88493600D03*
G04 #@! TO.P,ZX1,32*
G04 #@! TO.N,/D7*
X158661000Y-88493600D03*
G04 #@! TO.P,ZX1,33*
G04 #@! TO.N,/D15*
X156121000Y-88493600D03*
G04 #@! TO.P,ZX1,34*
G04 #@! TO.N,GND*
X153581000Y-88493600D03*
G04 #@! TO.P,ZX1,35*
G04 #@! TO.N,/N$2*
X151041000Y-88493600D03*
G04 #@! TO.P,ZX1,36*
G04 #@! TO.N,/A16*
X148501000Y-88493600D03*
G04 #@! TO.P,ZX1,37*
G04 #@! TO.N,/A15*
X145961000Y-88493600D03*
G04 #@! TO.P,ZX1,38*
G04 #@! TO.N,/A14*
X143421000Y-88493600D03*
G04 #@! TO.P,ZX1,39*
G04 #@! TO.N,/A13*
X140881000Y-88493600D03*
G04 #@! TO.P,ZX1,40*
G04 #@! TO.N,/A12*
X138341000Y-88493600D03*
G04 #@! TO.P,ZX1,41*
G04 #@! TO.N,/A11*
X135801000Y-88493600D03*
G04 #@! TO.P,ZX1,42*
G04 #@! TO.N,/A10*
X133261000Y-88493600D03*
G04 #@! TO.P,ZX1,43*
G04 #@! TO.N,/A9*
X130721000Y-88493600D03*
G04 #@! TO.P,ZX1,44*
G04 #@! TO.N,/A8*
X128181000Y-88493600D03*
G04 #@! TO.P,ZX1,45*
G04 #@! TO.N,/A19*
X125641000Y-88493600D03*
G04 #@! TO.P,ZX1,46*
G04 #@! TO.N,N/C*
X123101000Y-88493600D03*
G04 #@! TO.P,ZX1,47*
X120561000Y-88493600D03*
G04 #@! TO.P,ZX1,48*
X118021000Y-88493600D03*
G04 #@! TD*
D13*
G04 #@! TO.N,/A19*
X161056800Y-120902300D03*
G04 #@! TO.N,/A18*
X152478900Y-116670200D03*
G04 #@! TD*
D14*
G04 #@! TO.N,GND*
X155069300Y-100467600D02*
X155486000Y-100050900D01*
X155486000Y-100050900D02*
X155486000Y-94969000D01*
X153581000Y-101955900D02*
X155069300Y-100467600D01*
X155069300Y-100467600D02*
X157186200Y-102584500D01*
X157186200Y-102584500D02*
X157186200Y-106481100D01*
X157186200Y-106481100D02*
X155486000Y-108181300D01*
X155486000Y-109959000D02*
X155486000Y-108181300D01*
X153581000Y-103733600D02*
X153581000Y-101955900D01*
G04 #@! TO.N,/A19*
X151676000Y-122784000D02*
X151676000Y-124280900D01*
X125641000Y-88493600D02*
X125641000Y-90271300D01*
X125641000Y-90271300D02*
X126668700Y-91299000D01*
X126668700Y-91299000D02*
X126668700Y-104437000D01*
X126668700Y-104437000D02*
X128058900Y-105827200D01*
X128058900Y-105827200D02*
X128177900Y-105827200D01*
X128177900Y-105827200D02*
X131132400Y-108781700D01*
X131132400Y-108781700D02*
X131132400Y-114558600D01*
X131132400Y-114558600D02*
X129958000Y-115733000D01*
X129958000Y-115733000D02*
X129958000Y-119485800D01*
X129958000Y-119485800D02*
X130787300Y-120315100D01*
X130787300Y-120315100D02*
X144018100Y-120315100D01*
X144018100Y-120315100D02*
X147983900Y-124280900D01*
X147983900Y-124280900D02*
X151676000Y-124280900D01*
X151676000Y-122784000D02*
X151676000Y-121287100D01*
X151676000Y-121287100D02*
X160672000Y-121287100D01*
X160672000Y-121287100D02*
X161056800Y-120902300D01*
G04 #@! TO.N,/A18*
X152478900Y-116670200D02*
X149136000Y-120013100D01*
X149136000Y-120013100D02*
X149136000Y-121287100D01*
X149136000Y-122784000D02*
X149136000Y-121287100D01*
G04 #@! TO.N,/N$2*
X151041000Y-88493600D02*
X151041000Y-90271300D01*
X151041000Y-90271300D02*
X150328000Y-90271300D01*
X150328000Y-90271300D02*
X146831000Y-93768300D01*
X146831000Y-93768300D02*
X146831000Y-95717100D01*
X146831000Y-95717100D02*
X141665500Y-100882600D01*
X141665500Y-100882600D02*
X138987100Y-100882600D01*
X138987100Y-100882600D02*
X137071000Y-102798700D01*
X137071000Y-102798700D02*
X137071000Y-104670500D01*
X137071000Y-104670500D02*
X133896000Y-107845500D01*
X133896000Y-107845500D02*
X133896000Y-113095500D01*
X133896000Y-113095500D02*
X132356000Y-114635500D01*
X132356000Y-114635500D02*
X132356000Y-117704000D01*
X132356000Y-117704000D02*
X131086000Y-118974000D01*
G04 #@! TO.N,/N$6*
X133626000Y-118974000D02*
X141696200Y-110903800D01*
X141696200Y-110903800D02*
X141696200Y-108842900D01*
X141696200Y-108842900D02*
X142604500Y-107934600D01*
X142604500Y-107934600D02*
X153697700Y-107934600D01*
X153697700Y-107934600D02*
X156121000Y-105511300D01*
X156121000Y-103733600D02*
X156121000Y-105511300D01*
G04 #@! TO.N,/N$5*
X178346000Y-109959000D02*
X178346000Y-111736700D01*
X133626000Y-121514000D02*
X136802500Y-124690500D01*
X136802500Y-124690500D02*
X165392200Y-124690500D01*
X165392200Y-124690500D02*
X178346000Y-111736700D01*
G04 #@! TO.N,/D15*
X135166000Y-108181300D02*
X136184600Y-108181300D01*
X136184600Y-108181300D02*
X139611000Y-104754900D01*
X139611000Y-104754900D02*
X139611000Y-102758000D01*
X139611000Y-102758000D02*
X140413200Y-101955800D01*
X140413200Y-101955800D02*
X145646800Y-101955800D01*
X145646800Y-101955800D02*
X151533500Y-96069100D01*
X151533500Y-96069100D02*
X151533500Y-94132000D01*
X151533500Y-94132000D02*
X155394200Y-90271300D01*
X155394200Y-90271300D02*
X156121000Y-90271300D01*
X156121000Y-88493600D02*
X156121000Y-90271300D01*
X135166000Y-109959000D02*
X135166000Y-108181300D01*
G04 #@! TO.N,/D14*
X161201000Y-86715900D02*
X160798300Y-86313200D01*
X160798300Y-86313200D02*
X158055300Y-86313200D01*
X158055300Y-86313200D02*
X157230400Y-87138100D01*
X157230400Y-87138100D02*
X157230400Y-89813600D01*
X157230400Y-89813600D02*
X154055400Y-92988600D01*
X154055400Y-92988600D02*
X154055400Y-96066200D01*
X154055400Y-96066200D02*
X148452500Y-101669100D01*
X148452500Y-101669100D02*
X148299700Y-101669100D01*
X148299700Y-101669100D02*
X147231000Y-102737800D01*
X147231000Y-102737800D02*
X147231000Y-104691600D01*
X147231000Y-104691600D02*
X144913300Y-107009300D01*
X144913300Y-107009300D02*
X138877900Y-107009300D01*
X138877900Y-107009300D02*
X138877900Y-107009400D01*
X138877900Y-107009400D02*
X137706000Y-108181300D01*
X137706000Y-109959000D02*
X137706000Y-108181300D01*
X161201000Y-88493600D02*
X161201000Y-86715900D01*
G04 #@! TO.N,/D13*
X140246000Y-109959000D02*
X140246000Y-108181300D01*
X166281000Y-88493600D02*
X166281000Y-86715900D01*
X166281000Y-86715900D02*
X163289500Y-86715900D01*
X163289500Y-86715900D02*
X162541500Y-87463900D01*
X162541500Y-87463900D02*
X162541500Y-89388800D01*
X162541500Y-89388800D02*
X161654200Y-90276100D01*
X161654200Y-90276100D02*
X160780000Y-90276100D01*
X160780000Y-90276100D02*
X159931000Y-89427100D01*
X159931000Y-89427100D02*
X159931000Y-87526500D01*
X159931000Y-87526500D02*
X159120400Y-86715900D01*
X159120400Y-86715900D02*
X158222200Y-86715900D01*
X158222200Y-86715900D02*
X157633200Y-87304900D01*
X157633200Y-87304900D02*
X157633200Y-90097800D01*
X157633200Y-90097800D02*
X154458200Y-93272800D01*
X154458200Y-93272800D02*
X154458200Y-96971400D01*
X154458200Y-96971400D02*
X149771000Y-101658600D01*
X149771000Y-101658600D02*
X149771000Y-104670500D01*
X149771000Y-104670500D02*
X146980600Y-107460900D01*
X146980600Y-107460900D02*
X140966400Y-107460900D01*
X140966400Y-107460900D02*
X140246000Y-108181300D01*
G04 #@! TO.N,/D12*
X171361000Y-88493600D02*
X171361000Y-90271300D01*
X142786000Y-109959000D02*
X142786000Y-111736700D01*
X142786000Y-111736700D02*
X143625300Y-112576000D01*
X143625300Y-112576000D02*
X162725300Y-112576000D01*
X162725300Y-112576000D02*
X164376000Y-110925300D01*
X164376000Y-110925300D02*
X164376000Y-109011500D01*
X164376000Y-109011500D02*
X165693200Y-107694300D01*
X165693200Y-107694300D02*
X167135000Y-107694300D01*
X167135000Y-107694300D02*
X169848800Y-104980500D01*
X169848800Y-104980500D02*
X169848800Y-99628100D01*
X169848800Y-99628100D02*
X169677000Y-99456300D01*
X169677000Y-99456300D02*
X169677000Y-91955300D01*
X169677000Y-91955300D02*
X171361000Y-90271300D01*
G04 #@! TO.N,/D9*
X150406000Y-109959000D02*
X150406000Y-111736700D01*
X166281000Y-103733600D02*
X161836000Y-108178600D01*
X161836000Y-108178600D02*
X161836000Y-110910300D01*
X161836000Y-110910300D02*
X160577100Y-112169200D01*
X160577100Y-112169200D02*
X150838500Y-112169200D01*
X150838500Y-112169200D02*
X150406000Y-111736700D01*
G04 #@! TO.N,/D8*
X152946000Y-109959000D02*
X152946000Y-111736700D01*
X161201000Y-103733600D02*
X161201000Y-105511300D01*
X161201000Y-105511300D02*
X159296000Y-107416300D01*
X159296000Y-107416300D02*
X159296000Y-110902000D01*
X159296000Y-110902000D02*
X158461300Y-111736700D01*
X158461300Y-111736700D02*
X152946000Y-111736700D01*
G04 #@! TO.N,/D7*
X158026000Y-109959000D02*
X158026000Y-108181300D01*
X158661000Y-88493600D02*
X158661000Y-90271300D01*
X158661000Y-90271300D02*
X159057900Y-90668200D01*
X159057900Y-90668200D02*
X159057900Y-99591800D01*
X159057900Y-99591800D02*
X157626400Y-101023300D01*
X157626400Y-101023300D02*
X157626400Y-107781700D01*
X157626400Y-107781700D02*
X158026000Y-108181300D01*
G04 #@! TO.N,/D6*
X163741000Y-90271300D02*
X164137900Y-90668200D01*
X164137900Y-90668200D02*
X164137900Y-99591700D01*
X164137900Y-99591700D02*
X162482500Y-101247100D01*
X162482500Y-101247100D02*
X162482500Y-106264800D01*
X162482500Y-106264800D02*
X160566000Y-108181300D01*
X160566000Y-109959000D02*
X160566000Y-108181300D01*
X163741000Y-88493600D02*
X163741000Y-90271300D01*
G04 #@! TO.N,/D5*
X163106000Y-109959000D02*
X163106000Y-108181300D01*
X168821000Y-88493600D02*
X168821000Y-90271300D01*
X168821000Y-90271300D02*
X169216900Y-90667200D01*
X169216900Y-90667200D02*
X169216900Y-99592800D01*
X169216900Y-99592800D02*
X167551000Y-101258700D01*
X167551000Y-101258700D02*
X167551000Y-104669000D01*
X167551000Y-104669000D02*
X164038700Y-108181300D01*
X164038700Y-108181300D02*
X163106000Y-108181300D01*
G04 #@! TO.N,/D4*
X173901000Y-88493600D02*
X173901000Y-90271300D01*
X173901000Y-90271300D02*
X171996000Y-92176300D01*
X171996000Y-92176300D02*
X171996000Y-99353700D01*
X171996000Y-99353700D02*
X170333200Y-101016500D01*
X170333200Y-101016500D02*
X170333200Y-105271800D01*
X170333200Y-105271800D02*
X165646000Y-109959000D01*
G04 #@! TO.N,/D3*
X168186000Y-109959000D02*
X168186000Y-108181300D01*
X173901000Y-103733600D02*
X173901000Y-105511300D01*
X173901000Y-105511300D02*
X170856000Y-105511300D01*
X170856000Y-105511300D02*
X168186000Y-108181300D01*
G04 #@! TO.N,/A13*
X142786000Y-94969000D02*
X142786000Y-93191300D01*
X140881000Y-88493600D02*
X140881000Y-91286300D01*
X140881000Y-91286300D02*
X142786000Y-93191300D01*
G04 #@! TO.N,/A14*
X140246000Y-94969000D02*
X140246000Y-93191300D01*
X143421000Y-88493600D02*
X143421000Y-86715900D01*
X143421000Y-86715900D02*
X140433300Y-86715900D01*
X140433300Y-86715900D02*
X139851200Y-87298000D01*
X139851200Y-87298000D02*
X139851200Y-92796500D01*
X139851200Y-92796500D02*
X140246000Y-93191300D01*
G04 #@! TO.N,/A15*
X137706000Y-94969000D02*
X137706000Y-96746700D01*
X145961000Y-88493600D02*
X145961000Y-90271300D01*
X145961000Y-90271300D02*
X144056000Y-92176300D01*
X144056000Y-92176300D02*
X144056000Y-95904500D01*
X144056000Y-95904500D02*
X143213800Y-96746700D01*
X143213800Y-96746700D02*
X137706000Y-96746700D01*
G04 #@! TO.N,/A16*
X135166000Y-94969000D02*
X135166000Y-93191300D01*
X148501000Y-88493600D02*
X148501000Y-86715900D01*
X148501000Y-86715900D02*
X148063600Y-86278500D01*
X148063600Y-86278500D02*
X140270900Y-86278500D01*
X140270900Y-86278500D02*
X139448400Y-87101000D01*
X139448400Y-87101000D02*
X139448400Y-89635700D01*
X139448400Y-89635700D02*
X135892800Y-93191300D01*
X135892800Y-93191300D02*
X135166000Y-93191300D01*
G04 #@! TO.N,/A17*
X128181000Y-103733600D02*
X128181000Y-101955900D01*
X128181000Y-101955900D02*
X132626000Y-97510900D01*
X132626000Y-97510900D02*
X132626000Y-94969000D01*
G04 #@! TD*
D15*
G04 #@! TO.N,/VPP*
G36*
X188823390Y-83732572D02*
X189135916Y-83913011D01*
X189367879Y-84189453D01*
X189494780Y-84538109D01*
X189510600Y-84718932D01*
X189510601Y-125327999D01*
X189445564Y-125677205D01*
X189270384Y-125961401D01*
X189004639Y-126163477D01*
X188668850Y-126260716D01*
X188589433Y-126264600D01*
X128798995Y-126264600D01*
X128449795Y-126199564D01*
X128165599Y-126024384D01*
X127963523Y-125758639D01*
X127866284Y-125422850D01*
X127862400Y-125343433D01*
X127862400Y-122549413D01*
X130230192Y-122549413D01*
X130309017Y-122799490D01*
X130860097Y-122998977D01*
X131445569Y-122972389D01*
X131862983Y-122799490D01*
X131941808Y-122549413D01*
X131086000Y-121693605D01*
X130230192Y-122549413D01*
X127862400Y-122549413D01*
X127862400Y-121288097D01*
X129601023Y-121288097D01*
X129627611Y-121873569D01*
X129800510Y-122290983D01*
X130050587Y-122369808D01*
X130906395Y-121514000D01*
X130050587Y-120658192D01*
X129800510Y-120737017D01*
X129601023Y-121288097D01*
X127862400Y-121288097D01*
X127862400Y-110086000D01*
X128701000Y-110086000D01*
X128701000Y-110836000D01*
X128855028Y-111356349D01*
X129196460Y-111778145D01*
X129673316Y-112037173D01*
X129744815Y-112051318D01*
X129959000Y-111928656D01*
X129959000Y-110086000D01*
X128701000Y-110086000D01*
X127862400Y-110086000D01*
X127862400Y-109959603D01*
X127861309Y-109954116D01*
X127856674Y-109859355D01*
X127855675Y-109855146D01*
X127856097Y-109850842D01*
X127847971Y-109807211D01*
X127731549Y-109405176D01*
X127722691Y-109387564D01*
X127717422Y-109368564D01*
X127694134Y-109330784D01*
X127572762Y-109171172D01*
X127571498Y-108957628D01*
X127561543Y-108909085D01*
X127533769Y-108868047D01*
X127492405Y-108840762D01*
X127445137Y-108831382D01*
X127198152Y-108830144D01*
X127022799Y-108722055D01*
X127004403Y-108714956D01*
X126987740Y-108704423D01*
X126945115Y-108692079D01*
X126945112Y-108692078D01*
X126945111Y-108692078D01*
X126534999Y-108615698D01*
X126514397Y-108611600D01*
X108478995Y-108611600D01*
X108129795Y-108546564D01*
X107845599Y-108371384D01*
X107643523Y-108105639D01*
X107546284Y-107769850D01*
X107542400Y-107690433D01*
X107542400Y-102882215D01*
X116991600Y-102882215D01*
X116991601Y-104584986D01*
X117051328Y-104885252D01*
X117278845Y-105225756D01*
X117619349Y-105453273D01*
X118021000Y-105533167D01*
X118422652Y-105453273D01*
X118763156Y-105225756D01*
X118990673Y-104885252D01*
X119050400Y-104584986D01*
X119050400Y-102882215D01*
X119531600Y-102882215D01*
X119531601Y-104584986D01*
X119591328Y-104885252D01*
X119818845Y-105225756D01*
X120159349Y-105453273D01*
X120561000Y-105533167D01*
X120962652Y-105453273D01*
X121303156Y-105225756D01*
X121530673Y-104885252D01*
X121590400Y-104584986D01*
X121590400Y-102882215D01*
X122071600Y-102882215D01*
X122071601Y-104584986D01*
X122131328Y-104885252D01*
X122358845Y-105225756D01*
X122699349Y-105453273D01*
X123101000Y-105533167D01*
X123502652Y-105453273D01*
X123843156Y-105225756D01*
X124070673Y-104885252D01*
X124130400Y-104584986D01*
X124130400Y-102882214D01*
X124070673Y-102581948D01*
X123843156Y-102241444D01*
X123502651Y-102013927D01*
X123101000Y-101934033D01*
X122699348Y-102013927D01*
X122358844Y-102241444D01*
X122131327Y-102581949D01*
X122071600Y-102882215D01*
X121590400Y-102882215D01*
X121590400Y-102882214D01*
X121530673Y-102581948D01*
X121303156Y-102241444D01*
X120962651Y-102013927D01*
X120561000Y-101934033D01*
X120159348Y-102013927D01*
X119818844Y-102241444D01*
X119591327Y-102581949D01*
X119531600Y-102882215D01*
X119050400Y-102882215D01*
X119050400Y-102882214D01*
X118990673Y-102581948D01*
X118763156Y-102241444D01*
X118422651Y-102013927D01*
X118021000Y-101934033D01*
X117619348Y-102013927D01*
X117278844Y-102241444D01*
X117051327Y-102581949D01*
X116991600Y-102882215D01*
X107542400Y-102882215D01*
X107542400Y-87642215D01*
X116991600Y-87642215D01*
X116991601Y-89344986D01*
X117051328Y-89645252D01*
X117278845Y-89985756D01*
X117619349Y-90213273D01*
X118021000Y-90293167D01*
X118422652Y-90213273D01*
X118763156Y-89985756D01*
X118990673Y-89645252D01*
X119050400Y-89344986D01*
X119050400Y-87642215D01*
X119531600Y-87642215D01*
X119531601Y-89344986D01*
X119591328Y-89645252D01*
X119818845Y-89985756D01*
X120159349Y-90213273D01*
X120561000Y-90293167D01*
X120962652Y-90213273D01*
X121303156Y-89985756D01*
X121530673Y-89645252D01*
X121590400Y-89344986D01*
X121590400Y-87642215D01*
X122071600Y-87642215D01*
X122071601Y-89344986D01*
X122131328Y-89645252D01*
X122358845Y-89985756D01*
X122699349Y-90213273D01*
X123101000Y-90293167D01*
X123502652Y-90213273D01*
X123843156Y-89985756D01*
X124070673Y-89645252D01*
X124130400Y-89344986D01*
X124130400Y-87642215D01*
X124611600Y-87642215D01*
X124611601Y-89344986D01*
X124671328Y-89645252D01*
X124898845Y-89985756D01*
X125236601Y-90211437D01*
X125236601Y-90231469D01*
X125228678Y-90271300D01*
X125260064Y-90429088D01*
X125263272Y-90433889D01*
X125349445Y-90562856D01*
X125383210Y-90585417D01*
X126264300Y-91466508D01*
X126264301Y-102162028D01*
X126042651Y-102013927D01*
X125641000Y-101934033D01*
X125239348Y-102013927D01*
X124898844Y-102241444D01*
X124671327Y-102581949D01*
X124611600Y-102882215D01*
X124611601Y-104584986D01*
X124671328Y-104885252D01*
X124898845Y-105225756D01*
X125239349Y-105453273D01*
X125641000Y-105533167D01*
X126042652Y-105453273D01*
X126383156Y-105225756D01*
X126584386Y-104924593D01*
X127744783Y-106084991D01*
X127767344Y-106118756D01*
X127801108Y-106141316D01*
X127901111Y-106208136D01*
X128008238Y-106229445D01*
X129664441Y-107885648D01*
X129196460Y-108139855D01*
X128855028Y-108561651D01*
X128701000Y-109082000D01*
X128701000Y-109832000D01*
X129959000Y-109832000D01*
X129959000Y-109812000D01*
X130213000Y-109812000D01*
X130213000Y-109832000D01*
X130233000Y-109832000D01*
X130233000Y-110086000D01*
X130213000Y-110086000D01*
X130213000Y-111928656D01*
X130427185Y-112051318D01*
X130498684Y-112037173D01*
X130728001Y-111912608D01*
X130728001Y-114391091D01*
X129700212Y-115418881D01*
X129666444Y-115441444D01*
X129577065Y-115575211D01*
X129577064Y-115575212D01*
X129545678Y-115733000D01*
X129553600Y-115772827D01*
X129553601Y-119445969D01*
X129545678Y-119485800D01*
X129577064Y-119643588D01*
X129577065Y-119643589D01*
X129666445Y-119777356D01*
X129700210Y-119799917D01*
X130265827Y-120365534D01*
X130230192Y-120478587D01*
X131086000Y-121334395D01*
X131100143Y-121320253D01*
X131279748Y-121499858D01*
X131265605Y-121514000D01*
X132121413Y-122369808D01*
X132371490Y-122290983D01*
X132542489Y-121818601D01*
X132678545Y-122147070D01*
X132992930Y-122461455D01*
X133403696Y-122631600D01*
X133848304Y-122631600D01*
X134076974Y-122536882D01*
X136488383Y-124948291D01*
X136510944Y-124982056D01*
X136644711Y-125071436D01*
X136762673Y-125094900D01*
X136802499Y-125102822D01*
X136842325Y-125094900D01*
X165352373Y-125094900D01*
X165392200Y-125102822D01*
X165432027Y-125094900D01*
X165549989Y-125071436D01*
X165683756Y-124982056D01*
X165706319Y-124948288D01*
X178603791Y-112050817D01*
X178637556Y-112028256D01*
X178726936Y-111894489D01*
X178750400Y-111776527D01*
X178758322Y-111736700D01*
X178750400Y-111696873D01*
X178750400Y-111676837D01*
X179088156Y-111451156D01*
X179315673Y-111110652D01*
X179375400Y-110810386D01*
X179375400Y-109107614D01*
X179315673Y-108807348D01*
X179088156Y-108466844D01*
X178747651Y-108239327D01*
X178346000Y-108159433D01*
X177944348Y-108239327D01*
X177603844Y-108466844D01*
X177376327Y-108807349D01*
X177316600Y-109107615D01*
X177316601Y-110810386D01*
X177376328Y-111110652D01*
X177603845Y-111451156D01*
X177877072Y-111633720D01*
X165224693Y-124286100D01*
X154285960Y-124286100D01*
X154562870Y-124231019D01*
X154856933Y-124034533D01*
X155053419Y-123740470D01*
X155105000Y-123481156D01*
X155105000Y-122086844D01*
X155053419Y-121827530D01*
X154962527Y-121691500D01*
X160632173Y-121691500D01*
X160672000Y-121699422D01*
X160711827Y-121691500D01*
X160829789Y-121668036D01*
X160963556Y-121578656D01*
X160986119Y-121544888D01*
X161049307Y-121481700D01*
X161172050Y-121481700D01*
X161385004Y-121393492D01*
X161547992Y-121230504D01*
X161636200Y-121017550D01*
X161636200Y-120787050D01*
X161547992Y-120574096D01*
X161385004Y-120411108D01*
X161172050Y-120322900D01*
X160941550Y-120322900D01*
X160728596Y-120411108D01*
X160565608Y-120574096D01*
X160477400Y-120787050D01*
X160477400Y-120882700D01*
X151715827Y-120882700D01*
X151676000Y-120874778D01*
X151636173Y-120882700D01*
X151518211Y-120906164D01*
X151384444Y-120995544D01*
X151295064Y-121129311D01*
X151263678Y-121287100D01*
X151271601Y-121326932D01*
X151271601Y-121375421D01*
X151035067Y-121533467D01*
X150838581Y-121827531D01*
X150787000Y-122086845D01*
X150787001Y-123481156D01*
X150838582Y-123740470D01*
X150929474Y-123876500D01*
X149882527Y-123876500D01*
X149973419Y-123740470D01*
X150025000Y-123481156D01*
X150025000Y-122086844D01*
X149973419Y-121827530D01*
X149776933Y-121533467D01*
X149540400Y-121375422D01*
X149540400Y-120180607D01*
X152471408Y-117249600D01*
X152594150Y-117249600D01*
X152807104Y-117161392D01*
X152970092Y-116998404D01*
X153058300Y-116785450D01*
X153058300Y-116554950D01*
X152970092Y-116341996D01*
X152807104Y-116179008D01*
X152594150Y-116090800D01*
X152519321Y-116090800D01*
X152565000Y-115861156D01*
X152565000Y-114466845D01*
X153327000Y-114466845D01*
X153327001Y-115861156D01*
X153378582Y-116120470D01*
X153575068Y-116414533D01*
X153869131Y-116611019D01*
X154216000Y-116680016D01*
X154562870Y-116611019D01*
X154856933Y-116414533D01*
X155053419Y-116120470D01*
X155105000Y-115861156D01*
X155105000Y-114466844D01*
X155053419Y-114207530D01*
X154856933Y-113913467D01*
X154562869Y-113716981D01*
X154216000Y-113647984D01*
X153869130Y-113716981D01*
X153575067Y-113913467D01*
X153378581Y-114207531D01*
X153327000Y-114466845D01*
X152565000Y-114466845D01*
X152565000Y-114466844D01*
X152513419Y-114207530D01*
X152316933Y-113913467D01*
X152022869Y-113716981D01*
X151676000Y-113647984D01*
X151329130Y-113716981D01*
X151035067Y-113913467D01*
X150838581Y-114207531D01*
X150787000Y-114466845D01*
X150787001Y-115861156D01*
X150838582Y-116120470D01*
X151035068Y-116414533D01*
X151329131Y-116611019D01*
X151676000Y-116680016D01*
X151899500Y-116635559D01*
X151899500Y-116677692D01*
X148878212Y-119698981D01*
X148844444Y-119721544D01*
X148755065Y-119855311D01*
X148755064Y-119855312D01*
X148723678Y-120013100D01*
X148731600Y-120052927D01*
X148731601Y-121247273D01*
X148731601Y-121375421D01*
X148495067Y-121533467D01*
X148298581Y-121827531D01*
X148247000Y-122086845D01*
X148247001Y-123481156D01*
X148298582Y-123740470D01*
X148389474Y-123876500D01*
X148151408Y-123876500D01*
X144332219Y-120057312D01*
X144309656Y-120023544D01*
X144175889Y-119934164D01*
X144057927Y-119910700D01*
X144018100Y-119902778D01*
X143978273Y-119910700D01*
X134269825Y-119910700D01*
X134573455Y-119607070D01*
X134743600Y-119196304D01*
X134743600Y-118751696D01*
X134648882Y-118523026D01*
X138705063Y-114466845D01*
X148247000Y-114466845D01*
X148247001Y-115861156D01*
X148298582Y-116120470D01*
X148495068Y-116414533D01*
X148789131Y-116611019D01*
X149136000Y-116680016D01*
X149482870Y-116611019D01*
X149776933Y-116414533D01*
X149973419Y-116120470D01*
X150025000Y-115861156D01*
X150025000Y-114466844D01*
X149973419Y-114207530D01*
X149776933Y-113913467D01*
X149482869Y-113716981D01*
X149136000Y-113647984D01*
X148789130Y-113716981D01*
X148495067Y-113913467D01*
X148298581Y-114207531D01*
X148247000Y-114466845D01*
X138705063Y-114466845D01*
X141914432Y-111257476D01*
X142043845Y-111451156D01*
X142381601Y-111676837D01*
X142381601Y-111696869D01*
X142373678Y-111736700D01*
X142405064Y-111894488D01*
X142439083Y-111945400D01*
X142494445Y-112028256D01*
X142528210Y-112050817D01*
X143311183Y-112833791D01*
X143333744Y-112867556D01*
X143467511Y-112956936D01*
X143585473Y-112980400D01*
X143625299Y-112988322D01*
X143665125Y-112980400D01*
X162685473Y-112980400D01*
X162725300Y-112988322D01*
X162765127Y-112980400D01*
X162883089Y-112956936D01*
X163016856Y-112867556D01*
X163039419Y-112833788D01*
X164633791Y-111239417D01*
X164667556Y-111216856D01*
X164707424Y-111157190D01*
X164903845Y-111451156D01*
X165244349Y-111678673D01*
X165646000Y-111758567D01*
X166047652Y-111678673D01*
X166388156Y-111451156D01*
X166615673Y-111110652D01*
X166675400Y-110810386D01*
X166675400Y-109501507D01*
X167178279Y-108998628D01*
X167156600Y-109107615D01*
X167156601Y-110810386D01*
X167216328Y-111110652D01*
X167443845Y-111451156D01*
X167784349Y-111678673D01*
X168186000Y-111758567D01*
X168587652Y-111678673D01*
X168928156Y-111451156D01*
X169155673Y-111110652D01*
X169215400Y-110810386D01*
X169215400Y-109107615D01*
X169696600Y-109107615D01*
X169696601Y-110810386D01*
X169756328Y-111110652D01*
X169983845Y-111451156D01*
X170324349Y-111678673D01*
X170726000Y-111758567D01*
X171127652Y-111678673D01*
X171468156Y-111451156D01*
X171695673Y-111110652D01*
X171755400Y-110810386D01*
X171755400Y-109107615D01*
X172236600Y-109107615D01*
X172236601Y-110810386D01*
X172296328Y-111110652D01*
X172523845Y-111451156D01*
X172864349Y-111678673D01*
X173266000Y-111758567D01*
X173667652Y-111678673D01*
X174008156Y-111451156D01*
X174235673Y-111110652D01*
X174295400Y-110810386D01*
X174295400Y-109107615D01*
X174776600Y-109107615D01*
X174776601Y-110810386D01*
X174836328Y-111110652D01*
X175063845Y-111451156D01*
X175404349Y-111678673D01*
X175806000Y-111758567D01*
X176207652Y-111678673D01*
X176548156Y-111451156D01*
X176775673Y-111110652D01*
X176835400Y-110810386D01*
X176835400Y-109107614D01*
X176775673Y-108807348D01*
X176548156Y-108466844D01*
X176207651Y-108239327D01*
X175806000Y-108159433D01*
X175404348Y-108239327D01*
X175063844Y-108466844D01*
X174836327Y-108807349D01*
X174776600Y-109107615D01*
X174295400Y-109107615D01*
X174295400Y-109107614D01*
X174235673Y-108807348D01*
X174008156Y-108466844D01*
X173667651Y-108239327D01*
X173266000Y-108159433D01*
X172864348Y-108239327D01*
X172523844Y-108466844D01*
X172296327Y-108807349D01*
X172236600Y-109107615D01*
X171755400Y-109107615D01*
X171755400Y-109107614D01*
X171695673Y-108807348D01*
X171468156Y-108466844D01*
X171127651Y-108239327D01*
X170726000Y-108159433D01*
X170324348Y-108239327D01*
X169983844Y-108466844D01*
X169756327Y-108807349D01*
X169696600Y-109107615D01*
X169215400Y-109107615D01*
X169215400Y-109107614D01*
X169155673Y-108807348D01*
X168928156Y-108466844D01*
X168654928Y-108284280D01*
X171023508Y-105915700D01*
X173861173Y-105915700D01*
X173901000Y-105923622D01*
X174058789Y-105892236D01*
X174192556Y-105802856D01*
X174281936Y-105669089D01*
X174305400Y-105551127D01*
X174313322Y-105511300D01*
X174305400Y-105471473D01*
X174305400Y-105451437D01*
X174643156Y-105225756D01*
X174870673Y-104885252D01*
X174930400Y-104584986D01*
X174930400Y-102882215D01*
X175411600Y-102882215D01*
X175411601Y-104584986D01*
X175471328Y-104885252D01*
X175698845Y-105225756D01*
X176039349Y-105453273D01*
X176441000Y-105533167D01*
X176842652Y-105453273D01*
X177183156Y-105225756D01*
X177410673Y-104885252D01*
X177470400Y-104584986D01*
X177470400Y-102882214D01*
X177410673Y-102581948D01*
X177183156Y-102241444D01*
X176842651Y-102013927D01*
X176441000Y-101934033D01*
X176039348Y-102013927D01*
X175698844Y-102241444D01*
X175471327Y-102581949D01*
X175411600Y-102882215D01*
X174930400Y-102882215D01*
X174930400Y-102882214D01*
X174870673Y-102581948D01*
X174643156Y-102241444D01*
X174302651Y-102013927D01*
X173901000Y-101934033D01*
X173499348Y-102013927D01*
X173158844Y-102241444D01*
X172931327Y-102581949D01*
X172871600Y-102882215D01*
X172871601Y-104584986D01*
X172931328Y-104885252D01*
X173079428Y-105106900D01*
X172182573Y-105106900D01*
X172330673Y-104885252D01*
X172390400Y-104584986D01*
X172390400Y-102882214D01*
X172330673Y-102581948D01*
X172103156Y-102241444D01*
X171762651Y-102013927D01*
X171361000Y-101934033D01*
X170959348Y-102013927D01*
X170737600Y-102162094D01*
X170737600Y-101184007D01*
X172253791Y-99667817D01*
X172287556Y-99645256D01*
X172376936Y-99511489D01*
X172400400Y-99393527D01*
X172400400Y-99393526D01*
X172408322Y-99353701D01*
X172400400Y-99313875D01*
X172400400Y-96276408D01*
X172523844Y-96461156D01*
X172864348Y-96688673D01*
X173266000Y-96768567D01*
X173667651Y-96688673D01*
X174008156Y-96461156D01*
X174235673Y-96120652D01*
X174295400Y-95820386D01*
X174295400Y-95820385D01*
X174776600Y-95820385D01*
X174836327Y-96120651D01*
X175063844Y-96461156D01*
X175404348Y-96688673D01*
X175806000Y-96768567D01*
X176207651Y-96688673D01*
X176548156Y-96461156D01*
X176775673Y-96120652D01*
X176835400Y-95820386D01*
X176835400Y-94117615D01*
X177316600Y-94117615D01*
X177316601Y-95820386D01*
X177376328Y-96120652D01*
X177603845Y-96461156D01*
X177944349Y-96688673D01*
X178346000Y-96768567D01*
X178747652Y-96688673D01*
X179088156Y-96461156D01*
X179315673Y-96120652D01*
X179375400Y-95820386D01*
X179375400Y-94117614D01*
X179315673Y-93817348D01*
X179088156Y-93476844D01*
X178747651Y-93249327D01*
X178346000Y-93169433D01*
X177944348Y-93249327D01*
X177603844Y-93476844D01*
X177376327Y-93817349D01*
X177316600Y-94117615D01*
X176835400Y-94117615D01*
X176835400Y-94117614D01*
X176775673Y-93817348D01*
X176548156Y-93476844D01*
X176207652Y-93249327D01*
X175806000Y-93169433D01*
X175404349Y-93249327D01*
X175063845Y-93476844D01*
X174836328Y-93817348D01*
X174776601Y-94117614D01*
X174776600Y-95820385D01*
X174295400Y-95820385D01*
X174295400Y-94117614D01*
X174235673Y-93817348D01*
X174008156Y-93476844D01*
X173667652Y-93249327D01*
X173266000Y-93169433D01*
X172864349Y-93249327D01*
X172523845Y-93476844D01*
X172400400Y-93661593D01*
X172400400Y-92343807D01*
X174158791Y-90585417D01*
X174192556Y-90562856D01*
X174281936Y-90429089D01*
X174305400Y-90311127D01*
X174313322Y-90271300D01*
X174305400Y-90231473D01*
X174305400Y-90211437D01*
X174643156Y-89985756D01*
X174870673Y-89645252D01*
X174930400Y-89344986D01*
X174930400Y-87642215D01*
X175411600Y-87642215D01*
X175411601Y-89344986D01*
X175471328Y-89645252D01*
X175698845Y-89985756D01*
X176039349Y-90213273D01*
X176441000Y-90293167D01*
X176842652Y-90213273D01*
X177183156Y-89985756D01*
X177410673Y-89645252D01*
X177470400Y-89344986D01*
X177470400Y-87642214D01*
X177410673Y-87341948D01*
X177183156Y-87001444D01*
X176842651Y-86773927D01*
X176441000Y-86694033D01*
X176039348Y-86773927D01*
X175698844Y-87001444D01*
X175471327Y-87341949D01*
X175411600Y-87642215D01*
X174930400Y-87642215D01*
X174930400Y-87642214D01*
X174870673Y-87341948D01*
X174643156Y-87001444D01*
X174302651Y-86773927D01*
X173901000Y-86694033D01*
X173499348Y-86773927D01*
X173158844Y-87001444D01*
X172931327Y-87341949D01*
X172871600Y-87642215D01*
X172871601Y-89344986D01*
X172931328Y-89645252D01*
X173158845Y-89985756D01*
X173432072Y-90168320D01*
X171738212Y-91862181D01*
X171704444Y-91884744D01*
X171615065Y-92018511D01*
X171615064Y-92018512D01*
X171583678Y-92176300D01*
X171591600Y-92216127D01*
X171591600Y-93661592D01*
X171468156Y-93476844D01*
X171127652Y-93249327D01*
X170726000Y-93169433D01*
X170324349Y-93249327D01*
X170081400Y-93411660D01*
X170081400Y-92122807D01*
X171618791Y-90585417D01*
X171652556Y-90562856D01*
X171741936Y-90429089D01*
X171765400Y-90311127D01*
X171773322Y-90271300D01*
X171765400Y-90231473D01*
X171765400Y-90211437D01*
X172103156Y-89985756D01*
X172330673Y-89645252D01*
X172390400Y-89344986D01*
X172390400Y-87642214D01*
X172330673Y-87341948D01*
X172103156Y-87001444D01*
X171762651Y-86773927D01*
X171361000Y-86694033D01*
X170959348Y-86773927D01*
X170618844Y-87001444D01*
X170391327Y-87341949D01*
X170331600Y-87642215D01*
X170331601Y-89344986D01*
X170391328Y-89645252D01*
X170618845Y-89985756D01*
X170892072Y-90168320D01*
X169621300Y-91439093D01*
X169621300Y-90707025D01*
X169629222Y-90667199D01*
X169621300Y-90627373D01*
X169597836Y-90509411D01*
X169508456Y-90375644D01*
X169474691Y-90353083D01*
X169289928Y-90168321D01*
X169563156Y-89985756D01*
X169790673Y-89645252D01*
X169850400Y-89344986D01*
X169850400Y-87642214D01*
X169790673Y-87341948D01*
X169563156Y-87001444D01*
X169222651Y-86773927D01*
X168821000Y-86694033D01*
X168419348Y-86773927D01*
X168078844Y-87001444D01*
X167851327Y-87341949D01*
X167791600Y-87642215D01*
X167791601Y-89344986D01*
X167851328Y-89645252D01*
X168078845Y-89985756D01*
X168416601Y-90211437D01*
X168416601Y-90231469D01*
X168408678Y-90271300D01*
X168440064Y-90429088D01*
X168443272Y-90433889D01*
X168529445Y-90562856D01*
X168563210Y-90585417D01*
X168812500Y-90834708D01*
X168812500Y-93399566D01*
X168587652Y-93249327D01*
X168186000Y-93169433D01*
X167784349Y-93249327D01*
X167443845Y-93476844D01*
X167216328Y-93817348D01*
X167156601Y-94117614D01*
X167156600Y-95820385D01*
X167216327Y-96120651D01*
X167443844Y-96461156D01*
X167784348Y-96688673D01*
X168186000Y-96768567D01*
X168587651Y-96688673D01*
X168812501Y-96538434D01*
X168812501Y-99425291D01*
X167293212Y-100944581D01*
X167259444Y-100967144D01*
X167177815Y-101089312D01*
X167170064Y-101100912D01*
X167138678Y-101258700D01*
X167146600Y-101298527D01*
X167146600Y-102426192D01*
X167023156Y-102241444D01*
X166682651Y-102013927D01*
X166281000Y-101934033D01*
X165879348Y-102013927D01*
X165538844Y-102241444D01*
X165311327Y-102581949D01*
X165251600Y-102882215D01*
X165251601Y-104191091D01*
X164748721Y-104693971D01*
X164770400Y-104584986D01*
X164770400Y-102882214D01*
X164710673Y-102581948D01*
X164483156Y-102241444D01*
X164142651Y-102013927D01*
X163741000Y-101934033D01*
X163339348Y-102013927D01*
X162998844Y-102241444D01*
X162886900Y-102408981D01*
X162886900Y-101414607D01*
X164395691Y-99905817D01*
X164429456Y-99883256D01*
X164518836Y-99749489D01*
X164525877Y-99714092D01*
X164550222Y-99591701D01*
X164542300Y-99551874D01*
X164542300Y-95820385D01*
X164616600Y-95820385D01*
X164676327Y-96120651D01*
X164903844Y-96461156D01*
X165244348Y-96688673D01*
X165646000Y-96768567D01*
X166047651Y-96688673D01*
X166388156Y-96461156D01*
X166615673Y-96120652D01*
X166675400Y-95820386D01*
X166675400Y-94117614D01*
X166615673Y-93817348D01*
X166388156Y-93476844D01*
X166047652Y-93249327D01*
X165646000Y-93169433D01*
X165244349Y-93249327D01*
X164903845Y-93476844D01*
X164676328Y-93817348D01*
X164616601Y-94117614D01*
X164616600Y-95820385D01*
X164542300Y-95820385D01*
X164542300Y-90708025D01*
X164550222Y-90668199D01*
X164534710Y-90590215D01*
X164518836Y-90510411D01*
X164429456Y-90376644D01*
X164395691Y-90354083D01*
X164209928Y-90168321D01*
X164483156Y-89985756D01*
X164710673Y-89645252D01*
X164770400Y-89344986D01*
X164770400Y-87642214D01*
X164710673Y-87341948D01*
X164562573Y-87120300D01*
X165459427Y-87120300D01*
X165311327Y-87341949D01*
X165251600Y-87642215D01*
X165251601Y-89344986D01*
X165311328Y-89645252D01*
X165538845Y-89985756D01*
X165879349Y-90213273D01*
X166281000Y-90293167D01*
X166682652Y-90213273D01*
X167023156Y-89985756D01*
X167250673Y-89645252D01*
X167310400Y-89344986D01*
X167310400Y-87642214D01*
X167250673Y-87341948D01*
X167023156Y-87001444D01*
X166685400Y-86775764D01*
X166685400Y-86755727D01*
X166693322Y-86715900D01*
X166661936Y-86558111D01*
X166572556Y-86424344D01*
X166438789Y-86334964D01*
X166320827Y-86311500D01*
X166281000Y-86303578D01*
X166241173Y-86311500D01*
X163329327Y-86311500D01*
X163289500Y-86303578D01*
X163249673Y-86311500D01*
X163131711Y-86334964D01*
X162997944Y-86424344D01*
X162975384Y-86458108D01*
X162283712Y-87149781D01*
X162249944Y-87172344D01*
X162165984Y-87298000D01*
X162160564Y-87306112D01*
X162157390Y-87322069D01*
X161943156Y-87001444D01*
X161605400Y-86775764D01*
X161605400Y-86755727D01*
X161613322Y-86715900D01*
X161581936Y-86558111D01*
X161515116Y-86458108D01*
X161492556Y-86424344D01*
X161458791Y-86401783D01*
X161112419Y-86055412D01*
X161089856Y-86021644D01*
X160956089Y-85932264D01*
X160838127Y-85908800D01*
X160798300Y-85900878D01*
X160758473Y-85908800D01*
X158095127Y-85908800D01*
X158055300Y-85900878D01*
X158015473Y-85908800D01*
X157897511Y-85932264D01*
X157763744Y-86021644D01*
X157741183Y-86055409D01*
X156972612Y-86823981D01*
X156938844Y-86846544D01*
X156853887Y-86973692D01*
X156849464Y-86980312D01*
X156847360Y-86990890D01*
X156522651Y-86773927D01*
X156121000Y-86694033D01*
X155719348Y-86773927D01*
X155378844Y-87001444D01*
X155151327Y-87341949D01*
X155091600Y-87642215D01*
X155091601Y-89344986D01*
X155151328Y-89645252D01*
X155305874Y-89876547D01*
X155236411Y-89890364D01*
X155102644Y-89979744D01*
X155080083Y-90013509D01*
X151335848Y-93757745D01*
X151148156Y-93476844D01*
X150807652Y-93249327D01*
X150406000Y-93169433D01*
X150004349Y-93249327D01*
X149663845Y-93476844D01*
X149436328Y-93817348D01*
X149376601Y-94117614D01*
X149376600Y-95820385D01*
X149436327Y-96120651D01*
X149663844Y-96461156D01*
X150004348Y-96688673D01*
X150285996Y-96744697D01*
X145479293Y-101551400D01*
X140453026Y-101551400D01*
X140413199Y-101543478D01*
X140324029Y-101561215D01*
X140255411Y-101574864D01*
X140121644Y-101664244D01*
X140099084Y-101698008D01*
X139353210Y-102443883D01*
X139319445Y-102466444D01*
X139296885Y-102500208D01*
X139276471Y-102530760D01*
X139083156Y-102241444D01*
X138742651Y-102013927D01*
X138479938Y-101961670D01*
X139154608Y-101287000D01*
X141625673Y-101287000D01*
X141665500Y-101294922D01*
X141705327Y-101287000D01*
X141823289Y-101263536D01*
X141957056Y-101174156D01*
X141979619Y-101140388D01*
X146937595Y-96182413D01*
X147123844Y-96461156D01*
X147464348Y-96688673D01*
X147866000Y-96768567D01*
X148267651Y-96688673D01*
X148608156Y-96461156D01*
X148835673Y-96120652D01*
X148895400Y-95820386D01*
X148895400Y-94117614D01*
X148835673Y-93817348D01*
X148608156Y-93476844D01*
X148267652Y-93249327D01*
X147979248Y-93191960D01*
X150495508Y-90675700D01*
X151001173Y-90675700D01*
X151041000Y-90683622D01*
X151123565Y-90667199D01*
X151198789Y-90652236D01*
X151332556Y-90562856D01*
X151421936Y-90429089D01*
X151453322Y-90271300D01*
X151445400Y-90231473D01*
X151445400Y-90211437D01*
X151783156Y-89985756D01*
X152010673Y-89645252D01*
X152070400Y-89344986D01*
X152070400Y-87642215D01*
X152551600Y-87642215D01*
X152551601Y-89344986D01*
X152611328Y-89645252D01*
X152838845Y-89985756D01*
X153179349Y-90213273D01*
X153581000Y-90293167D01*
X153982652Y-90213273D01*
X154323156Y-89985756D01*
X154550673Y-89645252D01*
X154610400Y-89344986D01*
X154610400Y-87642214D01*
X154550673Y-87341948D01*
X154323156Y-87001444D01*
X153982651Y-86773927D01*
X153581000Y-86694033D01*
X153179348Y-86773927D01*
X152838844Y-87001444D01*
X152611327Y-87341949D01*
X152551600Y-87642215D01*
X152070400Y-87642215D01*
X152070400Y-87642214D01*
X152010673Y-87341948D01*
X151783156Y-87001444D01*
X151442651Y-86773927D01*
X151041000Y-86694033D01*
X150639348Y-86773927D01*
X150298844Y-87001444D01*
X150071327Y-87341949D01*
X150011600Y-87642215D01*
X150011601Y-89344986D01*
X150071328Y-89645252D01*
X150227493Y-89878970D01*
X150170211Y-89890364D01*
X150036444Y-89979744D01*
X150013883Y-90013509D01*
X146573212Y-93454181D01*
X146539444Y-93476744D01*
X146480905Y-93564355D01*
X146450064Y-93610512D01*
X146418678Y-93768300D01*
X146426600Y-93808127D01*
X146426601Y-95549591D01*
X146355400Y-95620792D01*
X146355400Y-94117614D01*
X146295673Y-93817348D01*
X146068156Y-93476844D01*
X145727652Y-93249327D01*
X145326000Y-93169433D01*
X144924349Y-93249327D01*
X144583845Y-93476844D01*
X144460400Y-93661593D01*
X144460400Y-92343807D01*
X146218791Y-90585417D01*
X146252556Y-90562856D01*
X146341936Y-90429089D01*
X146365400Y-90311127D01*
X146373322Y-90271300D01*
X146365400Y-90231473D01*
X146365400Y-90211437D01*
X146703156Y-89985756D01*
X146930673Y-89645252D01*
X146990400Y-89344986D01*
X146990400Y-87642214D01*
X146930673Y-87341948D01*
X146703156Y-87001444D01*
X146362651Y-86773927D01*
X145961000Y-86694033D01*
X145559348Y-86773927D01*
X145218844Y-87001444D01*
X144991327Y-87341949D01*
X144931600Y-87642215D01*
X144931601Y-89344986D01*
X144991328Y-89645252D01*
X145218845Y-89985756D01*
X145492072Y-90168320D01*
X143798212Y-91862181D01*
X143764444Y-91884744D01*
X143675065Y-92018511D01*
X143675064Y-92018512D01*
X143643678Y-92176300D01*
X143651600Y-92216127D01*
X143651600Y-93661592D01*
X143528156Y-93476844D01*
X143190400Y-93251163D01*
X143190400Y-93231127D01*
X143198322Y-93191300D01*
X143189389Y-93146388D01*
X143166936Y-93033511D01*
X143077556Y-92899744D01*
X143043791Y-92877183D01*
X141285400Y-91118793D01*
X141285400Y-90211437D01*
X141623156Y-89985756D01*
X141850673Y-89645252D01*
X141910400Y-89344986D01*
X141910400Y-87642214D01*
X141850673Y-87341948D01*
X141702573Y-87120300D01*
X142599427Y-87120300D01*
X142451327Y-87341949D01*
X142391600Y-87642215D01*
X142391601Y-89344986D01*
X142451328Y-89645252D01*
X142678845Y-89985756D01*
X143019349Y-90213273D01*
X143421000Y-90293167D01*
X143822652Y-90213273D01*
X144163156Y-89985756D01*
X144390673Y-89645252D01*
X144450400Y-89344986D01*
X144450400Y-87642214D01*
X144390673Y-87341948D01*
X144163156Y-87001444D01*
X143825400Y-86775764D01*
X143825400Y-86755727D01*
X143833322Y-86715900D01*
X143826758Y-86682900D01*
X147896093Y-86682900D01*
X148032072Y-86818879D01*
X147758844Y-87001444D01*
X147531327Y-87341949D01*
X147471600Y-87642215D01*
X147471601Y-89344986D01*
X147531328Y-89645252D01*
X147758845Y-89985756D01*
X148099349Y-90213273D01*
X148501000Y-90293167D01*
X148902652Y-90213273D01*
X149243156Y-89985756D01*
X149470673Y-89645252D01*
X149530400Y-89344986D01*
X149530400Y-87642214D01*
X149470673Y-87341948D01*
X149243156Y-87001444D01*
X148905400Y-86775764D01*
X148905400Y-86755726D01*
X148913322Y-86715899D01*
X148881936Y-86558111D01*
X148815116Y-86458108D01*
X148792556Y-86424344D01*
X148758791Y-86401783D01*
X148377719Y-86020712D01*
X148355156Y-85986944D01*
X148221389Y-85897564D01*
X148103427Y-85874100D01*
X148063600Y-85866178D01*
X148023773Y-85874100D01*
X140310727Y-85874100D01*
X140270900Y-85866178D01*
X140231073Y-85874100D01*
X140113111Y-85897564D01*
X139979344Y-85986944D01*
X139956783Y-86020709D01*
X139190612Y-86786881D01*
X139156844Y-86809444D01*
X139080325Y-86923964D01*
X139067464Y-86943212D01*
X139059081Y-86985358D01*
X138742651Y-86773927D01*
X138341000Y-86694033D01*
X137939348Y-86773927D01*
X137598844Y-87001444D01*
X137371327Y-87341949D01*
X137311600Y-87642215D01*
X137311601Y-89344986D01*
X137371328Y-89645252D01*
X137598845Y-89985756D01*
X137939349Y-90213273D01*
X138239262Y-90272930D01*
X135725293Y-92786900D01*
X135205827Y-92786900D01*
X135166000Y-92778978D01*
X135126173Y-92786900D01*
X135008211Y-92810364D01*
X134874444Y-92899744D01*
X134785064Y-93033511D01*
X134753678Y-93191300D01*
X134761601Y-93231132D01*
X134761601Y-93251163D01*
X134423845Y-93476844D01*
X134196328Y-93817348D01*
X134136601Y-94117614D01*
X134136600Y-95820385D01*
X134196327Y-96120651D01*
X134423844Y-96461156D01*
X134764348Y-96688673D01*
X135166000Y-96768567D01*
X135567651Y-96688673D01*
X135908156Y-96461156D01*
X136135673Y-96120652D01*
X136195400Y-95820386D01*
X136195400Y-94117614D01*
X136135673Y-93817348D01*
X135981127Y-93586053D01*
X136050589Y-93572236D01*
X136184356Y-93482856D01*
X136206919Y-93449088D01*
X139446801Y-90209207D01*
X139446801Y-92756668D01*
X139438878Y-92796500D01*
X139470264Y-92954288D01*
X139470265Y-92954289D01*
X139559645Y-93088056D01*
X139593410Y-93110617D01*
X139777072Y-93294279D01*
X139503844Y-93476844D01*
X139276327Y-93817349D01*
X139216600Y-94117615D01*
X139216601Y-95820386D01*
X139276328Y-96120652D01*
X139424428Y-96342300D01*
X138527573Y-96342300D01*
X138675673Y-96120652D01*
X138735400Y-95820386D01*
X138735400Y-94117614D01*
X138675673Y-93817348D01*
X138448156Y-93476844D01*
X138107652Y-93249327D01*
X137706000Y-93169433D01*
X137304349Y-93249327D01*
X136963845Y-93476844D01*
X136736328Y-93817348D01*
X136676601Y-94117614D01*
X136676600Y-95820385D01*
X136736327Y-96120651D01*
X136963844Y-96461156D01*
X137301601Y-96686837D01*
X137301601Y-96706868D01*
X137293678Y-96746700D01*
X137325064Y-96904489D01*
X137414444Y-97038256D01*
X137548211Y-97127636D01*
X137666173Y-97151100D01*
X137706000Y-97159022D01*
X137745827Y-97151100D01*
X143173973Y-97151100D01*
X143213800Y-97159022D01*
X143253627Y-97151100D01*
X143371589Y-97127636D01*
X143505356Y-97038256D01*
X143527919Y-97004488D01*
X144313791Y-96218617D01*
X144347556Y-96196056D01*
X144377133Y-96151790D01*
X144583844Y-96461156D01*
X144924348Y-96688673D01*
X145227265Y-96748927D01*
X141497993Y-100478200D01*
X139026927Y-100478200D01*
X138987100Y-100470278D01*
X138947273Y-100478200D01*
X138829311Y-100501664D01*
X138695544Y-100591044D01*
X138672984Y-100624808D01*
X136813212Y-102484581D01*
X136779444Y-102507144D01*
X136750067Y-102551110D01*
X136543156Y-102241444D01*
X136202651Y-102013927D01*
X135801000Y-101934033D01*
X135399348Y-102013927D01*
X135058844Y-102241444D01*
X134831327Y-102581949D01*
X134771600Y-102882215D01*
X134771601Y-104584986D01*
X134831328Y-104885252D01*
X135058845Y-105225756D01*
X135399349Y-105453273D01*
X135663730Y-105505862D01*
X133638212Y-107531381D01*
X133604444Y-107553944D01*
X133531723Y-107662780D01*
X133515064Y-107687712D01*
X133483678Y-107845500D01*
X133491600Y-107885327D01*
X133491600Y-108651592D01*
X133368156Y-108466844D01*
X133027651Y-108239327D01*
X132626000Y-108159433D01*
X132224348Y-108239327D01*
X131883844Y-108466844D01*
X131656327Y-108807349D01*
X131596600Y-109107615D01*
X131596601Y-110810386D01*
X131656328Y-111110652D01*
X131883845Y-111451156D01*
X132224349Y-111678673D01*
X132626000Y-111758567D01*
X133027652Y-111678673D01*
X133368156Y-111451156D01*
X133491601Y-111266408D01*
X133491601Y-112927991D01*
X132098212Y-114321381D01*
X132064444Y-114343944D01*
X131982326Y-114466844D01*
X131975064Y-114477712D01*
X131943678Y-114635500D01*
X131951600Y-114675327D01*
X131951600Y-115719075D01*
X131719070Y-115486545D01*
X131308304Y-115316400D01*
X130946508Y-115316400D01*
X131390191Y-114872717D01*
X131423956Y-114850156D01*
X131513336Y-114716389D01*
X131536800Y-114598427D01*
X131544722Y-114558601D01*
X131536800Y-114518775D01*
X131536800Y-108821527D01*
X131544722Y-108781700D01*
X131513336Y-108623911D01*
X131423956Y-108490144D01*
X131390191Y-108467584D01*
X128492019Y-105569412D01*
X128469456Y-105535644D01*
X128400427Y-105489520D01*
X128582652Y-105453273D01*
X128923156Y-105225756D01*
X129150673Y-104885252D01*
X129210400Y-104584986D01*
X129210400Y-102882215D01*
X129691600Y-102882215D01*
X129691601Y-104584986D01*
X129751328Y-104885252D01*
X129978845Y-105225756D01*
X130319349Y-105453273D01*
X130721000Y-105533167D01*
X131122652Y-105453273D01*
X131463156Y-105225756D01*
X131690673Y-104885252D01*
X131750400Y-104584986D01*
X131750400Y-102882215D01*
X132231600Y-102882215D01*
X132231601Y-104584986D01*
X132291328Y-104885252D01*
X132518845Y-105225756D01*
X132859349Y-105453273D01*
X133261000Y-105533167D01*
X133662652Y-105453273D01*
X134003156Y-105225756D01*
X134230673Y-104885252D01*
X134290400Y-104584986D01*
X134290400Y-102882214D01*
X134230673Y-102581948D01*
X134003156Y-102241444D01*
X133662651Y-102013927D01*
X133261000Y-101934033D01*
X132859348Y-102013927D01*
X132518844Y-102241444D01*
X132291327Y-102581949D01*
X132231600Y-102882215D01*
X131750400Y-102882215D01*
X131750400Y-102882214D01*
X131690673Y-102581948D01*
X131463156Y-102241444D01*
X131122651Y-102013927D01*
X130721000Y-101934033D01*
X130319348Y-102013927D01*
X129978844Y-102241444D01*
X129751327Y-102581949D01*
X129691600Y-102882215D01*
X129210400Y-102882215D01*
X129210400Y-102882214D01*
X129150673Y-102581948D01*
X128923156Y-102241444D01*
X128649928Y-102058880D01*
X132883792Y-97825016D01*
X132917556Y-97802456D01*
X133006936Y-97668689D01*
X133030400Y-97550727D01*
X133030400Y-97550726D01*
X133038322Y-97510901D01*
X133030400Y-97471075D01*
X133030400Y-96686836D01*
X133368156Y-96461156D01*
X133595673Y-96120652D01*
X133655400Y-95820386D01*
X133655400Y-94117614D01*
X133595673Y-93817348D01*
X133368156Y-93476844D01*
X133027652Y-93249327D01*
X132626000Y-93169433D01*
X132224349Y-93249327D01*
X131883845Y-93476844D01*
X131656328Y-93817348D01*
X131596601Y-94117614D01*
X131596600Y-95820385D01*
X131656327Y-96120651D01*
X131883844Y-96461156D01*
X132221600Y-96686837D01*
X132221600Y-97343392D01*
X127923210Y-101641783D01*
X127889445Y-101664344D01*
X127866885Y-101698108D01*
X127800064Y-101798112D01*
X127768678Y-101955900D01*
X127776601Y-101995731D01*
X127776601Y-102015763D01*
X127438844Y-102241444D01*
X127211327Y-102581949D01*
X127151600Y-102882215D01*
X127151601Y-104347994D01*
X127073100Y-104269493D01*
X127073100Y-95820385D01*
X129056600Y-95820385D01*
X129116327Y-96120651D01*
X129343844Y-96461156D01*
X129684348Y-96688673D01*
X130086000Y-96768567D01*
X130487651Y-96688673D01*
X130828156Y-96461156D01*
X131055673Y-96120652D01*
X131115400Y-95820386D01*
X131115400Y-94117614D01*
X131055673Y-93817348D01*
X130828156Y-93476844D01*
X130487652Y-93249327D01*
X130086000Y-93169433D01*
X129684349Y-93249327D01*
X129343845Y-93476844D01*
X129116328Y-93817348D01*
X129056601Y-94117614D01*
X129056600Y-95820385D01*
X127073100Y-95820385D01*
X127073100Y-91338825D01*
X127081022Y-91298999D01*
X127073100Y-91259173D01*
X127049636Y-91141211D01*
X126960256Y-91007444D01*
X126926491Y-90984883D01*
X126109928Y-90168321D01*
X126383156Y-89985756D01*
X126610673Y-89645252D01*
X126670400Y-89344986D01*
X126670400Y-87642215D01*
X127151600Y-87642215D01*
X127151601Y-89344986D01*
X127211328Y-89645252D01*
X127438845Y-89985756D01*
X127779349Y-90213273D01*
X128181000Y-90293167D01*
X128582652Y-90213273D01*
X128923156Y-89985756D01*
X129150673Y-89645252D01*
X129210400Y-89344986D01*
X129210400Y-87642215D01*
X129691600Y-87642215D01*
X129691601Y-89344986D01*
X129751328Y-89645252D01*
X129978845Y-89985756D01*
X130319349Y-90213273D01*
X130721000Y-90293167D01*
X131122652Y-90213273D01*
X131463156Y-89985756D01*
X131690673Y-89645252D01*
X131750400Y-89344986D01*
X131750400Y-87642215D01*
X132231600Y-87642215D01*
X132231601Y-89344986D01*
X132291328Y-89645252D01*
X132518845Y-89985756D01*
X132859349Y-90213273D01*
X133261000Y-90293167D01*
X133662652Y-90213273D01*
X134003156Y-89985756D01*
X134230673Y-89645252D01*
X134290400Y-89344986D01*
X134290400Y-87642215D01*
X134771600Y-87642215D01*
X134771601Y-89344986D01*
X134831328Y-89645252D01*
X135058845Y-89985756D01*
X135399349Y-90213273D01*
X135801000Y-90293167D01*
X136202652Y-90213273D01*
X136543156Y-89985756D01*
X136770673Y-89645252D01*
X136830400Y-89344986D01*
X136830400Y-87642214D01*
X136770673Y-87341948D01*
X136543156Y-87001444D01*
X136202651Y-86773927D01*
X135801000Y-86694033D01*
X135399348Y-86773927D01*
X135058844Y-87001444D01*
X134831327Y-87341949D01*
X134771600Y-87642215D01*
X134290400Y-87642215D01*
X134290400Y-87642214D01*
X134230673Y-87341948D01*
X134003156Y-87001444D01*
X133662651Y-86773927D01*
X133261000Y-86694033D01*
X132859348Y-86773927D01*
X132518844Y-87001444D01*
X132291327Y-87341949D01*
X132231600Y-87642215D01*
X131750400Y-87642215D01*
X131750400Y-87642214D01*
X131690673Y-87341948D01*
X131463156Y-87001444D01*
X131122651Y-86773927D01*
X130721000Y-86694033D01*
X130319348Y-86773927D01*
X129978844Y-87001444D01*
X129751327Y-87341949D01*
X129691600Y-87642215D01*
X129210400Y-87642215D01*
X129210400Y-87642214D01*
X129150673Y-87341948D01*
X128923156Y-87001444D01*
X128582651Y-86773927D01*
X128181000Y-86694033D01*
X127779348Y-86773927D01*
X127438844Y-87001444D01*
X127211327Y-87341949D01*
X127151600Y-87642215D01*
X126670400Y-87642215D01*
X126670400Y-87642214D01*
X126610673Y-87341948D01*
X126383156Y-87001444D01*
X126042651Y-86773927D01*
X125641000Y-86694033D01*
X125239348Y-86773927D01*
X124898844Y-87001444D01*
X124671327Y-87341949D01*
X124611600Y-87642215D01*
X124130400Y-87642215D01*
X124130400Y-87642214D01*
X124070673Y-87341948D01*
X123843156Y-87001444D01*
X123502651Y-86773927D01*
X123101000Y-86694033D01*
X122699348Y-86773927D01*
X122358844Y-87001444D01*
X122131327Y-87341949D01*
X122071600Y-87642215D01*
X121590400Y-87642215D01*
X121590400Y-87642214D01*
X121530673Y-87341948D01*
X121303156Y-87001444D01*
X120962651Y-86773927D01*
X120561000Y-86694033D01*
X120159348Y-86773927D01*
X119818844Y-87001444D01*
X119591327Y-87341949D01*
X119531600Y-87642215D01*
X119050400Y-87642215D01*
X119050400Y-87642214D01*
X118990673Y-87341948D01*
X118763156Y-87001444D01*
X118422651Y-86773927D01*
X118021000Y-86694033D01*
X117619348Y-86773927D01*
X117278844Y-87001444D01*
X117051327Y-87341949D01*
X116991600Y-87642215D01*
X107542400Y-87642215D01*
X107542400Y-84728893D01*
X107608572Y-84353610D01*
X107789011Y-84041084D01*
X108065453Y-83809121D01*
X108414109Y-83682220D01*
X108594932Y-83666400D01*
X188448107Y-83666400D01*
X188823390Y-83732572D01*
X188823390Y-83732572D01*
G37*
X188823390Y-83732572D02*
X189135916Y-83913011D01*
X189367879Y-84189453D01*
X189494780Y-84538109D01*
X189510600Y-84718932D01*
X189510601Y-125327999D01*
X189445564Y-125677205D01*
X189270384Y-125961401D01*
X189004639Y-126163477D01*
X188668850Y-126260716D01*
X188589433Y-126264600D01*
X128798995Y-126264600D01*
X128449795Y-126199564D01*
X128165599Y-126024384D01*
X127963523Y-125758639D01*
X127866284Y-125422850D01*
X127862400Y-125343433D01*
X127862400Y-122549413D01*
X130230192Y-122549413D01*
X130309017Y-122799490D01*
X130860097Y-122998977D01*
X131445569Y-122972389D01*
X131862983Y-122799490D01*
X131941808Y-122549413D01*
X131086000Y-121693605D01*
X130230192Y-122549413D01*
X127862400Y-122549413D01*
X127862400Y-121288097D01*
X129601023Y-121288097D01*
X129627611Y-121873569D01*
X129800510Y-122290983D01*
X130050587Y-122369808D01*
X130906395Y-121514000D01*
X130050587Y-120658192D01*
X129800510Y-120737017D01*
X129601023Y-121288097D01*
X127862400Y-121288097D01*
X127862400Y-110086000D01*
X128701000Y-110086000D01*
X128701000Y-110836000D01*
X128855028Y-111356349D01*
X129196460Y-111778145D01*
X129673316Y-112037173D01*
X129744815Y-112051318D01*
X129959000Y-111928656D01*
X129959000Y-110086000D01*
X128701000Y-110086000D01*
X127862400Y-110086000D01*
X127862400Y-109959603D01*
X127861309Y-109954116D01*
X127856674Y-109859355D01*
X127855675Y-109855146D01*
X127856097Y-109850842D01*
X127847971Y-109807211D01*
X127731549Y-109405176D01*
X127722691Y-109387564D01*
X127717422Y-109368564D01*
X127694134Y-109330784D01*
X127572762Y-109171172D01*
X127571498Y-108957628D01*
X127561543Y-108909085D01*
X127533769Y-108868047D01*
X127492405Y-108840762D01*
X127445137Y-108831382D01*
X127198152Y-108830144D01*
X127022799Y-108722055D01*
X127004403Y-108714956D01*
X126987740Y-108704423D01*
X126945115Y-108692079D01*
X126945112Y-108692078D01*
X126945111Y-108692078D01*
X126534999Y-108615698D01*
X126514397Y-108611600D01*
X108478995Y-108611600D01*
X108129795Y-108546564D01*
X107845599Y-108371384D01*
X107643523Y-108105639D01*
X107546284Y-107769850D01*
X107542400Y-107690433D01*
X107542400Y-102882215D01*
X116991600Y-102882215D01*
X116991601Y-104584986D01*
X117051328Y-104885252D01*
X117278845Y-105225756D01*
X117619349Y-105453273D01*
X118021000Y-105533167D01*
X118422652Y-105453273D01*
X118763156Y-105225756D01*
X118990673Y-104885252D01*
X119050400Y-104584986D01*
X119050400Y-102882215D01*
X119531600Y-102882215D01*
X119531601Y-104584986D01*
X119591328Y-104885252D01*
X119818845Y-105225756D01*
X120159349Y-105453273D01*
X120561000Y-105533167D01*
X120962652Y-105453273D01*
X121303156Y-105225756D01*
X121530673Y-104885252D01*
X121590400Y-104584986D01*
X121590400Y-102882215D01*
X122071600Y-102882215D01*
X122071601Y-104584986D01*
X122131328Y-104885252D01*
X122358845Y-105225756D01*
X122699349Y-105453273D01*
X123101000Y-105533167D01*
X123502652Y-105453273D01*
X123843156Y-105225756D01*
X124070673Y-104885252D01*
X124130400Y-104584986D01*
X124130400Y-102882214D01*
X124070673Y-102581948D01*
X123843156Y-102241444D01*
X123502651Y-102013927D01*
X123101000Y-101934033D01*
X122699348Y-102013927D01*
X122358844Y-102241444D01*
X122131327Y-102581949D01*
X122071600Y-102882215D01*
X121590400Y-102882215D01*
X121590400Y-102882214D01*
X121530673Y-102581948D01*
X121303156Y-102241444D01*
X120962651Y-102013927D01*
X120561000Y-101934033D01*
X120159348Y-102013927D01*
X119818844Y-102241444D01*
X119591327Y-102581949D01*
X119531600Y-102882215D01*
X119050400Y-102882215D01*
X119050400Y-102882214D01*
X118990673Y-102581948D01*
X118763156Y-102241444D01*
X118422651Y-102013927D01*
X118021000Y-101934033D01*
X117619348Y-102013927D01*
X117278844Y-102241444D01*
X117051327Y-102581949D01*
X116991600Y-102882215D01*
X107542400Y-102882215D01*
X107542400Y-87642215D01*
X116991600Y-87642215D01*
X116991601Y-89344986D01*
X117051328Y-89645252D01*
X117278845Y-89985756D01*
X117619349Y-90213273D01*
X118021000Y-90293167D01*
X118422652Y-90213273D01*
X118763156Y-89985756D01*
X118990673Y-89645252D01*
X119050400Y-89344986D01*
X119050400Y-87642215D01*
X119531600Y-87642215D01*
X119531601Y-89344986D01*
X119591328Y-89645252D01*
X119818845Y-89985756D01*
X120159349Y-90213273D01*
X120561000Y-90293167D01*
X120962652Y-90213273D01*
X121303156Y-89985756D01*
X121530673Y-89645252D01*
X121590400Y-89344986D01*
X121590400Y-87642215D01*
X122071600Y-87642215D01*
X122071601Y-89344986D01*
X122131328Y-89645252D01*
X122358845Y-89985756D01*
X122699349Y-90213273D01*
X123101000Y-90293167D01*
X123502652Y-90213273D01*
X123843156Y-89985756D01*
X124070673Y-89645252D01*
X124130400Y-89344986D01*
X124130400Y-87642215D01*
X124611600Y-87642215D01*
X124611601Y-89344986D01*
X124671328Y-89645252D01*
X124898845Y-89985756D01*
X125236601Y-90211437D01*
X125236601Y-90231469D01*
X125228678Y-90271300D01*
X125260064Y-90429088D01*
X125263272Y-90433889D01*
X125349445Y-90562856D01*
X125383210Y-90585417D01*
X126264300Y-91466508D01*
X126264301Y-102162028D01*
X126042651Y-102013927D01*
X125641000Y-101934033D01*
X125239348Y-102013927D01*
X124898844Y-102241444D01*
X124671327Y-102581949D01*
X124611600Y-102882215D01*
X124611601Y-104584986D01*
X124671328Y-104885252D01*
X124898845Y-105225756D01*
X125239349Y-105453273D01*
X125641000Y-105533167D01*
X126042652Y-105453273D01*
X126383156Y-105225756D01*
X126584386Y-104924593D01*
X127744783Y-106084991D01*
X127767344Y-106118756D01*
X127801108Y-106141316D01*
X127901111Y-106208136D01*
X128008238Y-106229445D01*
X129664441Y-107885648D01*
X129196460Y-108139855D01*
X128855028Y-108561651D01*
X128701000Y-109082000D01*
X128701000Y-109832000D01*
X129959000Y-109832000D01*
X129959000Y-109812000D01*
X130213000Y-109812000D01*
X130213000Y-109832000D01*
X130233000Y-109832000D01*
X130233000Y-110086000D01*
X130213000Y-110086000D01*
X130213000Y-111928656D01*
X130427185Y-112051318D01*
X130498684Y-112037173D01*
X130728001Y-111912608D01*
X130728001Y-114391091D01*
X129700212Y-115418881D01*
X129666444Y-115441444D01*
X129577065Y-115575211D01*
X129577064Y-115575212D01*
X129545678Y-115733000D01*
X129553600Y-115772827D01*
X129553601Y-119445969D01*
X129545678Y-119485800D01*
X129577064Y-119643588D01*
X129577065Y-119643589D01*
X129666445Y-119777356D01*
X129700210Y-119799917D01*
X130265827Y-120365534D01*
X130230192Y-120478587D01*
X131086000Y-121334395D01*
X131100143Y-121320253D01*
X131279748Y-121499858D01*
X131265605Y-121514000D01*
X132121413Y-122369808D01*
X132371490Y-122290983D01*
X132542489Y-121818601D01*
X132678545Y-122147070D01*
X132992930Y-122461455D01*
X133403696Y-122631600D01*
X133848304Y-122631600D01*
X134076974Y-122536882D01*
X136488383Y-124948291D01*
X136510944Y-124982056D01*
X136644711Y-125071436D01*
X136762673Y-125094900D01*
X136802499Y-125102822D01*
X136842325Y-125094900D01*
X165352373Y-125094900D01*
X165392200Y-125102822D01*
X165432027Y-125094900D01*
X165549989Y-125071436D01*
X165683756Y-124982056D01*
X165706319Y-124948288D01*
X178603791Y-112050817D01*
X178637556Y-112028256D01*
X178726936Y-111894489D01*
X178750400Y-111776527D01*
X178758322Y-111736700D01*
X178750400Y-111696873D01*
X178750400Y-111676837D01*
X179088156Y-111451156D01*
X179315673Y-111110652D01*
X179375400Y-110810386D01*
X179375400Y-109107614D01*
X179315673Y-108807348D01*
X179088156Y-108466844D01*
X178747651Y-108239327D01*
X178346000Y-108159433D01*
X177944348Y-108239327D01*
X177603844Y-108466844D01*
X177376327Y-108807349D01*
X177316600Y-109107615D01*
X177316601Y-110810386D01*
X177376328Y-111110652D01*
X177603845Y-111451156D01*
X177877072Y-111633720D01*
X165224693Y-124286100D01*
X154285960Y-124286100D01*
X154562870Y-124231019D01*
X154856933Y-124034533D01*
X155053419Y-123740470D01*
X155105000Y-123481156D01*
X155105000Y-122086844D01*
X155053419Y-121827530D01*
X154962527Y-121691500D01*
X160632173Y-121691500D01*
X160672000Y-121699422D01*
X160711827Y-121691500D01*
X160829789Y-121668036D01*
X160963556Y-121578656D01*
X160986119Y-121544888D01*
X161049307Y-121481700D01*
X161172050Y-121481700D01*
X161385004Y-121393492D01*
X161547992Y-121230504D01*
X161636200Y-121017550D01*
X161636200Y-120787050D01*
X161547992Y-120574096D01*
X161385004Y-120411108D01*
X161172050Y-120322900D01*
X160941550Y-120322900D01*
X160728596Y-120411108D01*
X160565608Y-120574096D01*
X160477400Y-120787050D01*
X160477400Y-120882700D01*
X151715827Y-120882700D01*
X151676000Y-120874778D01*
X151636173Y-120882700D01*
X151518211Y-120906164D01*
X151384444Y-120995544D01*
X151295064Y-121129311D01*
X151263678Y-121287100D01*
X151271601Y-121326932D01*
X151271601Y-121375421D01*
X151035067Y-121533467D01*
X150838581Y-121827531D01*
X150787000Y-122086845D01*
X150787001Y-123481156D01*
X150838582Y-123740470D01*
X150929474Y-123876500D01*
X149882527Y-123876500D01*
X149973419Y-123740470D01*
X150025000Y-123481156D01*
X150025000Y-122086844D01*
X149973419Y-121827530D01*
X149776933Y-121533467D01*
X149540400Y-121375422D01*
X149540400Y-120180607D01*
X152471408Y-117249600D01*
X152594150Y-117249600D01*
X152807104Y-117161392D01*
X152970092Y-116998404D01*
X153058300Y-116785450D01*
X153058300Y-116554950D01*
X152970092Y-116341996D01*
X152807104Y-116179008D01*
X152594150Y-116090800D01*
X152519321Y-116090800D01*
X152565000Y-115861156D01*
X152565000Y-114466845D01*
X153327000Y-114466845D01*
X153327001Y-115861156D01*
X153378582Y-116120470D01*
X153575068Y-116414533D01*
X153869131Y-116611019D01*
X154216000Y-116680016D01*
X154562870Y-116611019D01*
X154856933Y-116414533D01*
X155053419Y-116120470D01*
X155105000Y-115861156D01*
X155105000Y-114466844D01*
X155053419Y-114207530D01*
X154856933Y-113913467D01*
X154562869Y-113716981D01*
X154216000Y-113647984D01*
X153869130Y-113716981D01*
X153575067Y-113913467D01*
X153378581Y-114207531D01*
X153327000Y-114466845D01*
X152565000Y-114466845D01*
X152565000Y-114466844D01*
X152513419Y-114207530D01*
X152316933Y-113913467D01*
X152022869Y-113716981D01*
X151676000Y-113647984D01*
X151329130Y-113716981D01*
X151035067Y-113913467D01*
X150838581Y-114207531D01*
X150787000Y-114466845D01*
X150787001Y-115861156D01*
X150838582Y-116120470D01*
X151035068Y-116414533D01*
X151329131Y-116611019D01*
X151676000Y-116680016D01*
X151899500Y-116635559D01*
X151899500Y-116677692D01*
X148878212Y-119698981D01*
X148844444Y-119721544D01*
X148755065Y-119855311D01*
X148755064Y-119855312D01*
X148723678Y-120013100D01*
X148731600Y-120052927D01*
X148731601Y-121247273D01*
X148731601Y-121375421D01*
X148495067Y-121533467D01*
X148298581Y-121827531D01*
X148247000Y-122086845D01*
X148247001Y-123481156D01*
X148298582Y-123740470D01*
X148389474Y-123876500D01*
X148151408Y-123876500D01*
X144332219Y-120057312D01*
X144309656Y-120023544D01*
X144175889Y-119934164D01*
X144057927Y-119910700D01*
X144018100Y-119902778D01*
X143978273Y-119910700D01*
X134269825Y-119910700D01*
X134573455Y-119607070D01*
X134743600Y-119196304D01*
X134743600Y-118751696D01*
X134648882Y-118523026D01*
X138705063Y-114466845D01*
X148247000Y-114466845D01*
X148247001Y-115861156D01*
X148298582Y-116120470D01*
X148495068Y-116414533D01*
X148789131Y-116611019D01*
X149136000Y-116680016D01*
X149482870Y-116611019D01*
X149776933Y-116414533D01*
X149973419Y-116120470D01*
X150025000Y-115861156D01*
X150025000Y-114466844D01*
X149973419Y-114207530D01*
X149776933Y-113913467D01*
X149482869Y-113716981D01*
X149136000Y-113647984D01*
X148789130Y-113716981D01*
X148495067Y-113913467D01*
X148298581Y-114207531D01*
X148247000Y-114466845D01*
X138705063Y-114466845D01*
X141914432Y-111257476D01*
X142043845Y-111451156D01*
X142381601Y-111676837D01*
X142381601Y-111696869D01*
X142373678Y-111736700D01*
X142405064Y-111894488D01*
X142439083Y-111945400D01*
X142494445Y-112028256D01*
X142528210Y-112050817D01*
X143311183Y-112833791D01*
X143333744Y-112867556D01*
X143467511Y-112956936D01*
X143585473Y-112980400D01*
X143625299Y-112988322D01*
X143665125Y-112980400D01*
X162685473Y-112980400D01*
X162725300Y-112988322D01*
X162765127Y-112980400D01*
X162883089Y-112956936D01*
X163016856Y-112867556D01*
X163039419Y-112833788D01*
X164633791Y-111239417D01*
X164667556Y-111216856D01*
X164707424Y-111157190D01*
X164903845Y-111451156D01*
X165244349Y-111678673D01*
X165646000Y-111758567D01*
X166047652Y-111678673D01*
X166388156Y-111451156D01*
X166615673Y-111110652D01*
X166675400Y-110810386D01*
X166675400Y-109501507D01*
X167178279Y-108998628D01*
X167156600Y-109107615D01*
X167156601Y-110810386D01*
X167216328Y-111110652D01*
X167443845Y-111451156D01*
X167784349Y-111678673D01*
X168186000Y-111758567D01*
X168587652Y-111678673D01*
X168928156Y-111451156D01*
X169155673Y-111110652D01*
X169215400Y-110810386D01*
X169215400Y-109107615D01*
X169696600Y-109107615D01*
X169696601Y-110810386D01*
X169756328Y-111110652D01*
X169983845Y-111451156D01*
X170324349Y-111678673D01*
X170726000Y-111758567D01*
X171127652Y-111678673D01*
X171468156Y-111451156D01*
X171695673Y-111110652D01*
X171755400Y-110810386D01*
X171755400Y-109107615D01*
X172236600Y-109107615D01*
X172236601Y-110810386D01*
X172296328Y-111110652D01*
X172523845Y-111451156D01*
X172864349Y-111678673D01*
X173266000Y-111758567D01*
X173667652Y-111678673D01*
X174008156Y-111451156D01*
X174235673Y-111110652D01*
X174295400Y-110810386D01*
X174295400Y-109107615D01*
X174776600Y-109107615D01*
X174776601Y-110810386D01*
X174836328Y-111110652D01*
X175063845Y-111451156D01*
X175404349Y-111678673D01*
X175806000Y-111758567D01*
X176207652Y-111678673D01*
X176548156Y-111451156D01*
X176775673Y-111110652D01*
X176835400Y-110810386D01*
X176835400Y-109107614D01*
X176775673Y-108807348D01*
X176548156Y-108466844D01*
X176207651Y-108239327D01*
X175806000Y-108159433D01*
X175404348Y-108239327D01*
X175063844Y-108466844D01*
X174836327Y-108807349D01*
X174776600Y-109107615D01*
X174295400Y-109107615D01*
X174295400Y-109107614D01*
X174235673Y-108807348D01*
X174008156Y-108466844D01*
X173667651Y-108239327D01*
X173266000Y-108159433D01*
X172864348Y-108239327D01*
X172523844Y-108466844D01*
X172296327Y-108807349D01*
X172236600Y-109107615D01*
X171755400Y-109107615D01*
X171755400Y-109107614D01*
X171695673Y-108807348D01*
X171468156Y-108466844D01*
X171127651Y-108239327D01*
X170726000Y-108159433D01*
X170324348Y-108239327D01*
X169983844Y-108466844D01*
X169756327Y-108807349D01*
X169696600Y-109107615D01*
X169215400Y-109107615D01*
X169215400Y-109107614D01*
X169155673Y-108807348D01*
X168928156Y-108466844D01*
X168654928Y-108284280D01*
X171023508Y-105915700D01*
X173861173Y-105915700D01*
X173901000Y-105923622D01*
X174058789Y-105892236D01*
X174192556Y-105802856D01*
X174281936Y-105669089D01*
X174305400Y-105551127D01*
X174313322Y-105511300D01*
X174305400Y-105471473D01*
X174305400Y-105451437D01*
X174643156Y-105225756D01*
X174870673Y-104885252D01*
X174930400Y-104584986D01*
X174930400Y-102882215D01*
X175411600Y-102882215D01*
X175411601Y-104584986D01*
X175471328Y-104885252D01*
X175698845Y-105225756D01*
X176039349Y-105453273D01*
X176441000Y-105533167D01*
X176842652Y-105453273D01*
X177183156Y-105225756D01*
X177410673Y-104885252D01*
X177470400Y-104584986D01*
X177470400Y-102882214D01*
X177410673Y-102581948D01*
X177183156Y-102241444D01*
X176842651Y-102013927D01*
X176441000Y-101934033D01*
X176039348Y-102013927D01*
X175698844Y-102241444D01*
X175471327Y-102581949D01*
X175411600Y-102882215D01*
X174930400Y-102882215D01*
X174930400Y-102882214D01*
X174870673Y-102581948D01*
X174643156Y-102241444D01*
X174302651Y-102013927D01*
X173901000Y-101934033D01*
X173499348Y-102013927D01*
X173158844Y-102241444D01*
X172931327Y-102581949D01*
X172871600Y-102882215D01*
X172871601Y-104584986D01*
X172931328Y-104885252D01*
X173079428Y-105106900D01*
X172182573Y-105106900D01*
X172330673Y-104885252D01*
X172390400Y-104584986D01*
X172390400Y-102882214D01*
X172330673Y-102581948D01*
X172103156Y-102241444D01*
X171762651Y-102013927D01*
X171361000Y-101934033D01*
X170959348Y-102013927D01*
X170737600Y-102162094D01*
X170737600Y-101184007D01*
X172253791Y-99667817D01*
X172287556Y-99645256D01*
X172376936Y-99511489D01*
X172400400Y-99393527D01*
X172400400Y-99393526D01*
X172408322Y-99353701D01*
X172400400Y-99313875D01*
X172400400Y-96276408D01*
X172523844Y-96461156D01*
X172864348Y-96688673D01*
X173266000Y-96768567D01*
X173667651Y-96688673D01*
X174008156Y-96461156D01*
X174235673Y-96120652D01*
X174295400Y-95820386D01*
X174295400Y-95820385D01*
X174776600Y-95820385D01*
X174836327Y-96120651D01*
X175063844Y-96461156D01*
X175404348Y-96688673D01*
X175806000Y-96768567D01*
X176207651Y-96688673D01*
X176548156Y-96461156D01*
X176775673Y-96120652D01*
X176835400Y-95820386D01*
X176835400Y-94117615D01*
X177316600Y-94117615D01*
X177316601Y-95820386D01*
X177376328Y-96120652D01*
X177603845Y-96461156D01*
X177944349Y-96688673D01*
X178346000Y-96768567D01*
X178747652Y-96688673D01*
X179088156Y-96461156D01*
X179315673Y-96120652D01*
X179375400Y-95820386D01*
X179375400Y-94117614D01*
X179315673Y-93817348D01*
X179088156Y-93476844D01*
X178747651Y-93249327D01*
X178346000Y-93169433D01*
X177944348Y-93249327D01*
X177603844Y-93476844D01*
X177376327Y-93817349D01*
X177316600Y-94117615D01*
X176835400Y-94117615D01*
X176835400Y-94117614D01*
X176775673Y-93817348D01*
X176548156Y-93476844D01*
X176207652Y-93249327D01*
X175806000Y-93169433D01*
X175404349Y-93249327D01*
X175063845Y-93476844D01*
X174836328Y-93817348D01*
X174776601Y-94117614D01*
X174776600Y-95820385D01*
X174295400Y-95820385D01*
X174295400Y-94117614D01*
X174235673Y-93817348D01*
X174008156Y-93476844D01*
X173667652Y-93249327D01*
X173266000Y-93169433D01*
X172864349Y-93249327D01*
X172523845Y-93476844D01*
X172400400Y-93661593D01*
X172400400Y-92343807D01*
X174158791Y-90585417D01*
X174192556Y-90562856D01*
X174281936Y-90429089D01*
X174305400Y-90311127D01*
X174313322Y-90271300D01*
X174305400Y-90231473D01*
X174305400Y-90211437D01*
X174643156Y-89985756D01*
X174870673Y-89645252D01*
X174930400Y-89344986D01*
X174930400Y-87642215D01*
X175411600Y-87642215D01*
X175411601Y-89344986D01*
X175471328Y-89645252D01*
X175698845Y-89985756D01*
X176039349Y-90213273D01*
X176441000Y-90293167D01*
X176842652Y-90213273D01*
X177183156Y-89985756D01*
X177410673Y-89645252D01*
X177470400Y-89344986D01*
X177470400Y-87642214D01*
X177410673Y-87341948D01*
X177183156Y-87001444D01*
X176842651Y-86773927D01*
X176441000Y-86694033D01*
X176039348Y-86773927D01*
X175698844Y-87001444D01*
X175471327Y-87341949D01*
X175411600Y-87642215D01*
X174930400Y-87642215D01*
X174930400Y-87642214D01*
X174870673Y-87341948D01*
X174643156Y-87001444D01*
X174302651Y-86773927D01*
X173901000Y-86694033D01*
X173499348Y-86773927D01*
X173158844Y-87001444D01*
X172931327Y-87341949D01*
X172871600Y-87642215D01*
X172871601Y-89344986D01*
X172931328Y-89645252D01*
X173158845Y-89985756D01*
X173432072Y-90168320D01*
X171738212Y-91862181D01*
X171704444Y-91884744D01*
X171615065Y-92018511D01*
X171615064Y-92018512D01*
X171583678Y-92176300D01*
X171591600Y-92216127D01*
X171591600Y-93661592D01*
X171468156Y-93476844D01*
X171127652Y-93249327D01*
X170726000Y-93169433D01*
X170324349Y-93249327D01*
X170081400Y-93411660D01*
X170081400Y-92122807D01*
X171618791Y-90585417D01*
X171652556Y-90562856D01*
X171741936Y-90429089D01*
X171765400Y-90311127D01*
X171773322Y-90271300D01*
X171765400Y-90231473D01*
X171765400Y-90211437D01*
X172103156Y-89985756D01*
X172330673Y-89645252D01*
X172390400Y-89344986D01*
X172390400Y-87642214D01*
X172330673Y-87341948D01*
X172103156Y-87001444D01*
X171762651Y-86773927D01*
X171361000Y-86694033D01*
X170959348Y-86773927D01*
X170618844Y-87001444D01*
X170391327Y-87341949D01*
X170331600Y-87642215D01*
X170331601Y-89344986D01*
X170391328Y-89645252D01*
X170618845Y-89985756D01*
X170892072Y-90168320D01*
X169621300Y-91439093D01*
X169621300Y-90707025D01*
X169629222Y-90667199D01*
X169621300Y-90627373D01*
X169597836Y-90509411D01*
X169508456Y-90375644D01*
X169474691Y-90353083D01*
X169289928Y-90168321D01*
X169563156Y-89985756D01*
X169790673Y-89645252D01*
X169850400Y-89344986D01*
X169850400Y-87642214D01*
X169790673Y-87341948D01*
X169563156Y-87001444D01*
X169222651Y-86773927D01*
X168821000Y-86694033D01*
X168419348Y-86773927D01*
X168078844Y-87001444D01*
X167851327Y-87341949D01*
X167791600Y-87642215D01*
X167791601Y-89344986D01*
X167851328Y-89645252D01*
X168078845Y-89985756D01*
X168416601Y-90211437D01*
X168416601Y-90231469D01*
X168408678Y-90271300D01*
X168440064Y-90429088D01*
X168443272Y-90433889D01*
X168529445Y-90562856D01*
X168563210Y-90585417D01*
X168812500Y-90834708D01*
X168812500Y-93399566D01*
X168587652Y-93249327D01*
X168186000Y-93169433D01*
X167784349Y-93249327D01*
X167443845Y-93476844D01*
X167216328Y-93817348D01*
X167156601Y-94117614D01*
X167156600Y-95820385D01*
X167216327Y-96120651D01*
X167443844Y-96461156D01*
X167784348Y-96688673D01*
X168186000Y-96768567D01*
X168587651Y-96688673D01*
X168812501Y-96538434D01*
X168812501Y-99425291D01*
X167293212Y-100944581D01*
X167259444Y-100967144D01*
X167177815Y-101089312D01*
X167170064Y-101100912D01*
X167138678Y-101258700D01*
X167146600Y-101298527D01*
X167146600Y-102426192D01*
X167023156Y-102241444D01*
X166682651Y-102013927D01*
X166281000Y-101934033D01*
X165879348Y-102013927D01*
X165538844Y-102241444D01*
X165311327Y-102581949D01*
X165251600Y-102882215D01*
X165251601Y-104191091D01*
X164748721Y-104693971D01*
X164770400Y-104584986D01*
X164770400Y-102882214D01*
X164710673Y-102581948D01*
X164483156Y-102241444D01*
X164142651Y-102013927D01*
X163741000Y-101934033D01*
X163339348Y-102013927D01*
X162998844Y-102241444D01*
X162886900Y-102408981D01*
X162886900Y-101414607D01*
X164395691Y-99905817D01*
X164429456Y-99883256D01*
X164518836Y-99749489D01*
X164525877Y-99714092D01*
X164550222Y-99591701D01*
X164542300Y-99551874D01*
X164542300Y-95820385D01*
X164616600Y-95820385D01*
X164676327Y-96120651D01*
X164903844Y-96461156D01*
X165244348Y-96688673D01*
X165646000Y-96768567D01*
X166047651Y-96688673D01*
X166388156Y-96461156D01*
X166615673Y-96120652D01*
X166675400Y-95820386D01*
X166675400Y-94117614D01*
X166615673Y-93817348D01*
X166388156Y-93476844D01*
X166047652Y-93249327D01*
X165646000Y-93169433D01*
X165244349Y-93249327D01*
X164903845Y-93476844D01*
X164676328Y-93817348D01*
X164616601Y-94117614D01*
X164616600Y-95820385D01*
X164542300Y-95820385D01*
X164542300Y-90708025D01*
X164550222Y-90668199D01*
X164534710Y-90590215D01*
X164518836Y-90510411D01*
X164429456Y-90376644D01*
X164395691Y-90354083D01*
X164209928Y-90168321D01*
X164483156Y-89985756D01*
X164710673Y-89645252D01*
X164770400Y-89344986D01*
X164770400Y-87642214D01*
X164710673Y-87341948D01*
X164562573Y-87120300D01*
X165459427Y-87120300D01*
X165311327Y-87341949D01*
X165251600Y-87642215D01*
X165251601Y-89344986D01*
X165311328Y-89645252D01*
X165538845Y-89985756D01*
X165879349Y-90213273D01*
X166281000Y-90293167D01*
X166682652Y-90213273D01*
X167023156Y-89985756D01*
X167250673Y-89645252D01*
X167310400Y-89344986D01*
X167310400Y-87642214D01*
X167250673Y-87341948D01*
X167023156Y-87001444D01*
X166685400Y-86775764D01*
X166685400Y-86755727D01*
X166693322Y-86715900D01*
X166661936Y-86558111D01*
X166572556Y-86424344D01*
X166438789Y-86334964D01*
X166320827Y-86311500D01*
X166281000Y-86303578D01*
X166241173Y-86311500D01*
X163329327Y-86311500D01*
X163289500Y-86303578D01*
X163249673Y-86311500D01*
X163131711Y-86334964D01*
X162997944Y-86424344D01*
X162975384Y-86458108D01*
X162283712Y-87149781D01*
X162249944Y-87172344D01*
X162165984Y-87298000D01*
X162160564Y-87306112D01*
X162157390Y-87322069D01*
X161943156Y-87001444D01*
X161605400Y-86775764D01*
X161605400Y-86755727D01*
X161613322Y-86715900D01*
X161581936Y-86558111D01*
X161515116Y-86458108D01*
X161492556Y-86424344D01*
X161458791Y-86401783D01*
X161112419Y-86055412D01*
X161089856Y-86021644D01*
X160956089Y-85932264D01*
X160838127Y-85908800D01*
X160798300Y-85900878D01*
X160758473Y-85908800D01*
X158095127Y-85908800D01*
X158055300Y-85900878D01*
X158015473Y-85908800D01*
X157897511Y-85932264D01*
X157763744Y-86021644D01*
X157741183Y-86055409D01*
X156972612Y-86823981D01*
X156938844Y-86846544D01*
X156853887Y-86973692D01*
X156849464Y-86980312D01*
X156847360Y-86990890D01*
X156522651Y-86773927D01*
X156121000Y-86694033D01*
X155719348Y-86773927D01*
X155378844Y-87001444D01*
X155151327Y-87341949D01*
X155091600Y-87642215D01*
X155091601Y-89344986D01*
X155151328Y-89645252D01*
X155305874Y-89876547D01*
X155236411Y-89890364D01*
X155102644Y-89979744D01*
X155080083Y-90013509D01*
X151335848Y-93757745D01*
X151148156Y-93476844D01*
X150807652Y-93249327D01*
X150406000Y-93169433D01*
X150004349Y-93249327D01*
X149663845Y-93476844D01*
X149436328Y-93817348D01*
X149376601Y-94117614D01*
X149376600Y-95820385D01*
X149436327Y-96120651D01*
X149663844Y-96461156D01*
X150004348Y-96688673D01*
X150285996Y-96744697D01*
X145479293Y-101551400D01*
X140453026Y-101551400D01*
X140413199Y-101543478D01*
X140324029Y-101561215D01*
X140255411Y-101574864D01*
X140121644Y-101664244D01*
X140099084Y-101698008D01*
X139353210Y-102443883D01*
X139319445Y-102466444D01*
X139296885Y-102500208D01*
X139276471Y-102530760D01*
X139083156Y-102241444D01*
X138742651Y-102013927D01*
X138479938Y-101961670D01*
X139154608Y-101287000D01*
X141625673Y-101287000D01*
X141665500Y-101294922D01*
X141705327Y-101287000D01*
X141823289Y-101263536D01*
X141957056Y-101174156D01*
X141979619Y-101140388D01*
X146937595Y-96182413D01*
X147123844Y-96461156D01*
X147464348Y-96688673D01*
X147866000Y-96768567D01*
X148267651Y-96688673D01*
X148608156Y-96461156D01*
X148835673Y-96120652D01*
X148895400Y-95820386D01*
X148895400Y-94117614D01*
X148835673Y-93817348D01*
X148608156Y-93476844D01*
X148267652Y-93249327D01*
X147979248Y-93191960D01*
X150495508Y-90675700D01*
X151001173Y-90675700D01*
X151041000Y-90683622D01*
X151123565Y-90667199D01*
X151198789Y-90652236D01*
X151332556Y-90562856D01*
X151421936Y-90429089D01*
X151453322Y-90271300D01*
X151445400Y-90231473D01*
X151445400Y-90211437D01*
X151783156Y-89985756D01*
X152010673Y-89645252D01*
X152070400Y-89344986D01*
X152070400Y-87642215D01*
X152551600Y-87642215D01*
X152551601Y-89344986D01*
X152611328Y-89645252D01*
X152838845Y-89985756D01*
X153179349Y-90213273D01*
X153581000Y-90293167D01*
X153982652Y-90213273D01*
X154323156Y-89985756D01*
X154550673Y-89645252D01*
X154610400Y-89344986D01*
X154610400Y-87642214D01*
X154550673Y-87341948D01*
X154323156Y-87001444D01*
X153982651Y-86773927D01*
X153581000Y-86694033D01*
X153179348Y-86773927D01*
X152838844Y-87001444D01*
X152611327Y-87341949D01*
X152551600Y-87642215D01*
X152070400Y-87642215D01*
X152070400Y-87642214D01*
X152010673Y-87341948D01*
X151783156Y-87001444D01*
X151442651Y-86773927D01*
X151041000Y-86694033D01*
X150639348Y-86773927D01*
X150298844Y-87001444D01*
X150071327Y-87341949D01*
X150011600Y-87642215D01*
X150011601Y-89344986D01*
X150071328Y-89645252D01*
X150227493Y-89878970D01*
X150170211Y-89890364D01*
X150036444Y-89979744D01*
X150013883Y-90013509D01*
X146573212Y-93454181D01*
X146539444Y-93476744D01*
X146480905Y-93564355D01*
X146450064Y-93610512D01*
X146418678Y-93768300D01*
X146426600Y-93808127D01*
X146426601Y-95549591D01*
X146355400Y-95620792D01*
X146355400Y-94117614D01*
X146295673Y-93817348D01*
X146068156Y-93476844D01*
X145727652Y-93249327D01*
X145326000Y-93169433D01*
X144924349Y-93249327D01*
X144583845Y-93476844D01*
X144460400Y-93661593D01*
X144460400Y-92343807D01*
X146218791Y-90585417D01*
X146252556Y-90562856D01*
X146341936Y-90429089D01*
X146365400Y-90311127D01*
X146373322Y-90271300D01*
X146365400Y-90231473D01*
X146365400Y-90211437D01*
X146703156Y-89985756D01*
X146930673Y-89645252D01*
X146990400Y-89344986D01*
X146990400Y-87642214D01*
X146930673Y-87341948D01*
X146703156Y-87001444D01*
X146362651Y-86773927D01*
X145961000Y-86694033D01*
X145559348Y-86773927D01*
X145218844Y-87001444D01*
X144991327Y-87341949D01*
X144931600Y-87642215D01*
X144931601Y-89344986D01*
X144991328Y-89645252D01*
X145218845Y-89985756D01*
X145492072Y-90168320D01*
X143798212Y-91862181D01*
X143764444Y-91884744D01*
X143675065Y-92018511D01*
X143675064Y-92018512D01*
X143643678Y-92176300D01*
X143651600Y-92216127D01*
X143651600Y-93661592D01*
X143528156Y-93476844D01*
X143190400Y-93251163D01*
X143190400Y-93231127D01*
X143198322Y-93191300D01*
X143189389Y-93146388D01*
X143166936Y-93033511D01*
X143077556Y-92899744D01*
X143043791Y-92877183D01*
X141285400Y-91118793D01*
X141285400Y-90211437D01*
X141623156Y-89985756D01*
X141850673Y-89645252D01*
X141910400Y-89344986D01*
X141910400Y-87642214D01*
X141850673Y-87341948D01*
X141702573Y-87120300D01*
X142599427Y-87120300D01*
X142451327Y-87341949D01*
X142391600Y-87642215D01*
X142391601Y-89344986D01*
X142451328Y-89645252D01*
X142678845Y-89985756D01*
X143019349Y-90213273D01*
X143421000Y-90293167D01*
X143822652Y-90213273D01*
X144163156Y-89985756D01*
X144390673Y-89645252D01*
X144450400Y-89344986D01*
X144450400Y-87642214D01*
X144390673Y-87341948D01*
X144163156Y-87001444D01*
X143825400Y-86775764D01*
X143825400Y-86755727D01*
X143833322Y-86715900D01*
X143826758Y-86682900D01*
X147896093Y-86682900D01*
X148032072Y-86818879D01*
X147758844Y-87001444D01*
X147531327Y-87341949D01*
X147471600Y-87642215D01*
X147471601Y-89344986D01*
X147531328Y-89645252D01*
X147758845Y-89985756D01*
X148099349Y-90213273D01*
X148501000Y-90293167D01*
X148902652Y-90213273D01*
X149243156Y-89985756D01*
X149470673Y-89645252D01*
X149530400Y-89344986D01*
X149530400Y-87642214D01*
X149470673Y-87341948D01*
X149243156Y-87001444D01*
X148905400Y-86775764D01*
X148905400Y-86755726D01*
X148913322Y-86715899D01*
X148881936Y-86558111D01*
X148815116Y-86458108D01*
X148792556Y-86424344D01*
X148758791Y-86401783D01*
X148377719Y-86020712D01*
X148355156Y-85986944D01*
X148221389Y-85897564D01*
X148103427Y-85874100D01*
X148063600Y-85866178D01*
X148023773Y-85874100D01*
X140310727Y-85874100D01*
X140270900Y-85866178D01*
X140231073Y-85874100D01*
X140113111Y-85897564D01*
X139979344Y-85986944D01*
X139956783Y-86020709D01*
X139190612Y-86786881D01*
X139156844Y-86809444D01*
X139080325Y-86923964D01*
X139067464Y-86943212D01*
X139059081Y-86985358D01*
X138742651Y-86773927D01*
X138341000Y-86694033D01*
X137939348Y-86773927D01*
X137598844Y-87001444D01*
X137371327Y-87341949D01*
X137311600Y-87642215D01*
X137311601Y-89344986D01*
X137371328Y-89645252D01*
X137598845Y-89985756D01*
X137939349Y-90213273D01*
X138239262Y-90272930D01*
X135725293Y-92786900D01*
X135205827Y-92786900D01*
X135166000Y-92778978D01*
X135126173Y-92786900D01*
X135008211Y-92810364D01*
X134874444Y-92899744D01*
X134785064Y-93033511D01*
X134753678Y-93191300D01*
X134761601Y-93231132D01*
X134761601Y-93251163D01*
X134423845Y-93476844D01*
X134196328Y-93817348D01*
X134136601Y-94117614D01*
X134136600Y-95820385D01*
X134196327Y-96120651D01*
X134423844Y-96461156D01*
X134764348Y-96688673D01*
X135166000Y-96768567D01*
X135567651Y-96688673D01*
X135908156Y-96461156D01*
X136135673Y-96120652D01*
X136195400Y-95820386D01*
X136195400Y-94117614D01*
X136135673Y-93817348D01*
X135981127Y-93586053D01*
X136050589Y-93572236D01*
X136184356Y-93482856D01*
X136206919Y-93449088D01*
X139446801Y-90209207D01*
X139446801Y-92756668D01*
X139438878Y-92796500D01*
X139470264Y-92954288D01*
X139470265Y-92954289D01*
X139559645Y-93088056D01*
X139593410Y-93110617D01*
X139777072Y-93294279D01*
X139503844Y-93476844D01*
X139276327Y-93817349D01*
X139216600Y-94117615D01*
X139216601Y-95820386D01*
X139276328Y-96120652D01*
X139424428Y-96342300D01*
X138527573Y-96342300D01*
X138675673Y-96120652D01*
X138735400Y-95820386D01*
X138735400Y-94117614D01*
X138675673Y-93817348D01*
X138448156Y-93476844D01*
X138107652Y-93249327D01*
X137706000Y-93169433D01*
X137304349Y-93249327D01*
X136963845Y-93476844D01*
X136736328Y-93817348D01*
X136676601Y-94117614D01*
X136676600Y-95820385D01*
X136736327Y-96120651D01*
X136963844Y-96461156D01*
X137301601Y-96686837D01*
X137301601Y-96706868D01*
X137293678Y-96746700D01*
X137325064Y-96904489D01*
X137414444Y-97038256D01*
X137548211Y-97127636D01*
X137666173Y-97151100D01*
X137706000Y-97159022D01*
X137745827Y-97151100D01*
X143173973Y-97151100D01*
X143213800Y-97159022D01*
X143253627Y-97151100D01*
X143371589Y-97127636D01*
X143505356Y-97038256D01*
X143527919Y-97004488D01*
X144313791Y-96218617D01*
X144347556Y-96196056D01*
X144377133Y-96151790D01*
X144583844Y-96461156D01*
X144924348Y-96688673D01*
X145227265Y-96748927D01*
X141497993Y-100478200D01*
X139026927Y-100478200D01*
X138987100Y-100470278D01*
X138947273Y-100478200D01*
X138829311Y-100501664D01*
X138695544Y-100591044D01*
X138672984Y-100624808D01*
X136813212Y-102484581D01*
X136779444Y-102507144D01*
X136750067Y-102551110D01*
X136543156Y-102241444D01*
X136202651Y-102013927D01*
X135801000Y-101934033D01*
X135399348Y-102013927D01*
X135058844Y-102241444D01*
X134831327Y-102581949D01*
X134771600Y-102882215D01*
X134771601Y-104584986D01*
X134831328Y-104885252D01*
X135058845Y-105225756D01*
X135399349Y-105453273D01*
X135663730Y-105505862D01*
X133638212Y-107531381D01*
X133604444Y-107553944D01*
X133531723Y-107662780D01*
X133515064Y-107687712D01*
X133483678Y-107845500D01*
X133491600Y-107885327D01*
X133491600Y-108651592D01*
X133368156Y-108466844D01*
X133027651Y-108239327D01*
X132626000Y-108159433D01*
X132224348Y-108239327D01*
X131883844Y-108466844D01*
X131656327Y-108807349D01*
X131596600Y-109107615D01*
X131596601Y-110810386D01*
X131656328Y-111110652D01*
X131883845Y-111451156D01*
X132224349Y-111678673D01*
X132626000Y-111758567D01*
X133027652Y-111678673D01*
X133368156Y-111451156D01*
X133491601Y-111266408D01*
X133491601Y-112927991D01*
X132098212Y-114321381D01*
X132064444Y-114343944D01*
X131982326Y-114466844D01*
X131975064Y-114477712D01*
X131943678Y-114635500D01*
X131951600Y-114675327D01*
X131951600Y-115719075D01*
X131719070Y-115486545D01*
X131308304Y-115316400D01*
X130946508Y-115316400D01*
X131390191Y-114872717D01*
X131423956Y-114850156D01*
X131513336Y-114716389D01*
X131536800Y-114598427D01*
X131544722Y-114558601D01*
X131536800Y-114518775D01*
X131536800Y-108821527D01*
X131544722Y-108781700D01*
X131513336Y-108623911D01*
X131423956Y-108490144D01*
X131390191Y-108467584D01*
X128492019Y-105569412D01*
X128469456Y-105535644D01*
X128400427Y-105489520D01*
X128582652Y-105453273D01*
X128923156Y-105225756D01*
X129150673Y-104885252D01*
X129210400Y-104584986D01*
X129210400Y-102882215D01*
X129691600Y-102882215D01*
X129691601Y-104584986D01*
X129751328Y-104885252D01*
X129978845Y-105225756D01*
X130319349Y-105453273D01*
X130721000Y-105533167D01*
X131122652Y-105453273D01*
X131463156Y-105225756D01*
X131690673Y-104885252D01*
X131750400Y-104584986D01*
X131750400Y-102882215D01*
X132231600Y-102882215D01*
X132231601Y-104584986D01*
X132291328Y-104885252D01*
X132518845Y-105225756D01*
X132859349Y-105453273D01*
X133261000Y-105533167D01*
X133662652Y-105453273D01*
X134003156Y-105225756D01*
X134230673Y-104885252D01*
X134290400Y-104584986D01*
X134290400Y-102882214D01*
X134230673Y-102581948D01*
X134003156Y-102241444D01*
X133662651Y-102013927D01*
X133261000Y-101934033D01*
X132859348Y-102013927D01*
X132518844Y-102241444D01*
X132291327Y-102581949D01*
X132231600Y-102882215D01*
X131750400Y-102882215D01*
X131750400Y-102882214D01*
X131690673Y-102581948D01*
X131463156Y-102241444D01*
X131122651Y-102013927D01*
X130721000Y-101934033D01*
X130319348Y-102013927D01*
X129978844Y-102241444D01*
X129751327Y-102581949D01*
X129691600Y-102882215D01*
X129210400Y-102882215D01*
X129210400Y-102882214D01*
X129150673Y-102581948D01*
X128923156Y-102241444D01*
X128649928Y-102058880D01*
X132883792Y-97825016D01*
X132917556Y-97802456D01*
X133006936Y-97668689D01*
X133030400Y-97550727D01*
X133030400Y-97550726D01*
X133038322Y-97510901D01*
X133030400Y-97471075D01*
X133030400Y-96686836D01*
X133368156Y-96461156D01*
X133595673Y-96120652D01*
X133655400Y-95820386D01*
X133655400Y-94117614D01*
X133595673Y-93817348D01*
X133368156Y-93476844D01*
X133027652Y-93249327D01*
X132626000Y-93169433D01*
X132224349Y-93249327D01*
X131883845Y-93476844D01*
X131656328Y-93817348D01*
X131596601Y-94117614D01*
X131596600Y-95820385D01*
X131656327Y-96120651D01*
X131883844Y-96461156D01*
X132221600Y-96686837D01*
X132221600Y-97343392D01*
X127923210Y-101641783D01*
X127889445Y-101664344D01*
X127866885Y-101698108D01*
X127800064Y-101798112D01*
X127768678Y-101955900D01*
X127776601Y-101995731D01*
X127776601Y-102015763D01*
X127438844Y-102241444D01*
X127211327Y-102581949D01*
X127151600Y-102882215D01*
X127151601Y-104347994D01*
X127073100Y-104269493D01*
X127073100Y-95820385D01*
X129056600Y-95820385D01*
X129116327Y-96120651D01*
X129343844Y-96461156D01*
X129684348Y-96688673D01*
X130086000Y-96768567D01*
X130487651Y-96688673D01*
X130828156Y-96461156D01*
X131055673Y-96120652D01*
X131115400Y-95820386D01*
X131115400Y-94117614D01*
X131055673Y-93817348D01*
X130828156Y-93476844D01*
X130487652Y-93249327D01*
X130086000Y-93169433D01*
X129684349Y-93249327D01*
X129343845Y-93476844D01*
X129116328Y-93817348D01*
X129056601Y-94117614D01*
X129056600Y-95820385D01*
X127073100Y-95820385D01*
X127073100Y-91338825D01*
X127081022Y-91298999D01*
X127073100Y-91259173D01*
X127049636Y-91141211D01*
X126960256Y-91007444D01*
X126926491Y-90984883D01*
X126109928Y-90168321D01*
X126383156Y-89985756D01*
X126610673Y-89645252D01*
X126670400Y-89344986D01*
X126670400Y-87642215D01*
X127151600Y-87642215D01*
X127151601Y-89344986D01*
X127211328Y-89645252D01*
X127438845Y-89985756D01*
X127779349Y-90213273D01*
X128181000Y-90293167D01*
X128582652Y-90213273D01*
X128923156Y-89985756D01*
X129150673Y-89645252D01*
X129210400Y-89344986D01*
X129210400Y-87642215D01*
X129691600Y-87642215D01*
X129691601Y-89344986D01*
X129751328Y-89645252D01*
X129978845Y-89985756D01*
X130319349Y-90213273D01*
X130721000Y-90293167D01*
X131122652Y-90213273D01*
X131463156Y-89985756D01*
X131690673Y-89645252D01*
X131750400Y-89344986D01*
X131750400Y-87642215D01*
X132231600Y-87642215D01*
X132231601Y-89344986D01*
X132291328Y-89645252D01*
X132518845Y-89985756D01*
X132859349Y-90213273D01*
X133261000Y-90293167D01*
X133662652Y-90213273D01*
X134003156Y-89985756D01*
X134230673Y-89645252D01*
X134290400Y-89344986D01*
X134290400Y-87642215D01*
X134771600Y-87642215D01*
X134771601Y-89344986D01*
X134831328Y-89645252D01*
X135058845Y-89985756D01*
X135399349Y-90213273D01*
X135801000Y-90293167D01*
X136202652Y-90213273D01*
X136543156Y-89985756D01*
X136770673Y-89645252D01*
X136830400Y-89344986D01*
X136830400Y-87642214D01*
X136770673Y-87341948D01*
X136543156Y-87001444D01*
X136202651Y-86773927D01*
X135801000Y-86694033D01*
X135399348Y-86773927D01*
X135058844Y-87001444D01*
X134831327Y-87341949D01*
X134771600Y-87642215D01*
X134290400Y-87642215D01*
X134290400Y-87642214D01*
X134230673Y-87341948D01*
X134003156Y-87001444D01*
X133662651Y-86773927D01*
X133261000Y-86694033D01*
X132859348Y-86773927D01*
X132518844Y-87001444D01*
X132291327Y-87341949D01*
X132231600Y-87642215D01*
X131750400Y-87642215D01*
X131750400Y-87642214D01*
X131690673Y-87341948D01*
X131463156Y-87001444D01*
X131122651Y-86773927D01*
X130721000Y-86694033D01*
X130319348Y-86773927D01*
X129978844Y-87001444D01*
X129751327Y-87341949D01*
X129691600Y-87642215D01*
X129210400Y-87642215D01*
X129210400Y-87642214D01*
X129150673Y-87341948D01*
X128923156Y-87001444D01*
X128582651Y-86773927D01*
X128181000Y-86694033D01*
X127779348Y-86773927D01*
X127438844Y-87001444D01*
X127211327Y-87341949D01*
X127151600Y-87642215D01*
X126670400Y-87642215D01*
X126670400Y-87642214D01*
X126610673Y-87341948D01*
X126383156Y-87001444D01*
X126042651Y-86773927D01*
X125641000Y-86694033D01*
X125239348Y-86773927D01*
X124898844Y-87001444D01*
X124671327Y-87341949D01*
X124611600Y-87642215D01*
X124130400Y-87642215D01*
X124130400Y-87642214D01*
X124070673Y-87341948D01*
X123843156Y-87001444D01*
X123502651Y-86773927D01*
X123101000Y-86694033D01*
X122699348Y-86773927D01*
X122358844Y-87001444D01*
X122131327Y-87341949D01*
X122071600Y-87642215D01*
X121590400Y-87642215D01*
X121590400Y-87642214D01*
X121530673Y-87341948D01*
X121303156Y-87001444D01*
X120962651Y-86773927D01*
X120561000Y-86694033D01*
X120159348Y-86773927D01*
X119818844Y-87001444D01*
X119591327Y-87341949D01*
X119531600Y-87642215D01*
X119050400Y-87642215D01*
X119050400Y-87642214D01*
X118990673Y-87341948D01*
X118763156Y-87001444D01*
X118422651Y-86773927D01*
X118021000Y-86694033D01*
X117619348Y-86773927D01*
X117278844Y-87001444D01*
X117051327Y-87341949D01*
X116991600Y-87642215D01*
X107542400Y-87642215D01*
X107542400Y-84728893D01*
X107608572Y-84353610D01*
X107789011Y-84041084D01*
X108065453Y-83809121D01*
X108414109Y-83682220D01*
X108594932Y-83666400D01*
X188448107Y-83666400D01*
X188823390Y-83732572D01*
G04 #@! TD*
M02*
