%TF.GenerationSoftware,KiCad,Pcbnew,7.0.8*%
%TF.CreationDate,2023-11-23T12:29:14-06:00*%
%TF.ProjectId,27C160_Adapter,32374331-3630-45f4-9164-61707465722e,1.1*%
%TF.SameCoordinates,Original*%
%TF.FileFunction,Copper,L1,Top*%
%TF.FilePolarity,Positive*%
%FSLAX46Y46*%
G04 Gerber Fmt 4.6, Leading zero omitted, Abs format (unit mm)*
G04 Created by KiCad (PCBNEW 7.0.8) date 2023-11-23 12:29:14*
%MOMM*%
%LPD*%
G01*
G04 APERTURE LIST*
G04 Aperture macros list*
%AMRoundRect*
0 Rectangle with rounded corners*
0 $1 Rounding radius*
0 $2 $3 $4 $5 $6 $7 $8 $9 X,Y pos of 4 corners*
0 Add a 4 corners polygon primitive as box body*
4,1,4,$2,$3,$4,$5,$6,$7,$8,$9,$2,$3,0*
0 Add four circle primitives for the rounded corners*
1,1,$1+$1,$2,$3*
1,1,$1+$1,$4,$5*
1,1,$1+$1,$6,$7*
1,1,$1+$1,$8,$9*
0 Add four rect primitives between the rounded corners*
20,1,$1+$1,$2,$3,$4,$5,0*
20,1,$1+$1,$4,$5,$6,$7,0*
20,1,$1+$1,$6,$7,$8,$9,0*
20,1,$1+$1,$8,$9,$2,$3,0*%
G04 Aperture macros list end*
%TA.AperFunction,ComponentPad*%
%ADD10O,1.506220X3.014980*%
%TD*%
%TA.AperFunction,ComponentPad*%
%ADD11O,1.320800X2.641600*%
%TD*%
%TA.AperFunction,ComponentPad*%
%ADD12C,1.676400*%
%TD*%
%TA.AperFunction,SMDPad,CuDef*%
%ADD13RoundRect,0.250000X-0.625000X0.375000X-0.625000X-0.375000X0.625000X-0.375000X0.625000X0.375000X0*%
%TD*%
%TA.AperFunction,SMDPad,CuDef*%
%ADD14RoundRect,0.250000X0.625000X-0.375000X0.625000X0.375000X-0.625000X0.375000X-0.625000X-0.375000X0*%
%TD*%
%TA.AperFunction,SMDPad,CuDef*%
%ADD15R,1.399540X0.998220*%
%TD*%
%TA.AperFunction,ViaPad*%
%ADD16C,0.600000*%
%TD*%
%TA.AperFunction,Conductor*%
%ADD17C,0.250000*%
%TD*%
G04 APERTURE END LIST*
D10*
%TO.P,ZX1,1,1*%
%TO.N,unconnected-(ZX1-Pad1)*%
X118021000Y-103733600D03*
%TO.P,ZX1,2,2*%
%TO.N,unconnected-(ZX1-Pad2)*%
X120561000Y-103733600D03*
%TO.P,ZX1,3,3*%
%TO.N,unconnected-(ZX1-Pad3)*%
X123101000Y-103733600D03*
%TO.P,ZX1,4,4*%
%TO.N,/A18*%
X125641000Y-103733600D03*
%TO.P,ZX1,5,5*%
%TO.N,/A17*%
X128181000Y-103733600D03*
%TO.P,ZX1,6,6*%
%TO.N,/A7*%
X130721000Y-103733600D03*
%TO.P,ZX1,7,7*%
%TO.N,/A6*%
X133261000Y-103733600D03*
%TO.P,ZX1,8,8*%
%TO.N,/A5*%
X135801000Y-103733600D03*
%TO.P,ZX1,9,9*%
%TO.N,/A4*%
X138341000Y-103733600D03*
%TO.P,ZX1,10,10*%
%TO.N,/A3*%
X140881000Y-103733600D03*
%TO.P,ZX1,11,11*%
%TO.N,/A2*%
X143421000Y-103733600D03*
%TO.P,ZX1,12,12*%
%TO.N,/A1*%
X145961000Y-103733600D03*
%TO.P,ZX1,13,13*%
%TO.N,/A0*%
X148501000Y-103733600D03*
%TO.P,ZX1,14,14*%
%TO.N,/E*%
X151041000Y-103733600D03*
%TO.P,ZX1,15,15*%
%TO.N,GND*%
X153581000Y-103733600D03*
%TO.P,ZX1,16,16*%
%TO.N,/N$6*%
X156121000Y-103733600D03*
%TO.P,ZX1,17,17*%
%TO.N,/D0*%
X158661000Y-103733600D03*
%TO.P,ZX1,18,18*%
%TO.N,/D8*%
X161201000Y-103733600D03*
%TO.P,ZX1,19,19*%
%TO.N,/D1*%
X163741000Y-103733600D03*
%TO.P,ZX1,20,20*%
%TO.N,/D9*%
X166281000Y-103733600D03*
%TO.P,ZX1,21,21*%
%TO.N,/D2*%
X168821000Y-103733600D03*
%TO.P,ZX1,22,22*%
%TO.N,/D10*%
X171361000Y-103733600D03*
%TO.P,ZX1,23,23*%
%TO.N,/D3*%
X173901000Y-103733600D03*
%TO.P,ZX1,24,24*%
%TO.N,/D11*%
X176441000Y-103733600D03*
%TO.P,ZX1,25,25*%
%TO.N,VCC*%
X176441000Y-88493600D03*
%TO.P,ZX1,26,26*%
%TO.N,/D4*%
X173901000Y-88493600D03*
%TO.P,ZX1,27,27*%
%TO.N,/D12*%
X171361000Y-88493600D03*
%TO.P,ZX1,28,28*%
%TO.N,/D5*%
X168821000Y-88493600D03*
%TO.P,ZX1,29,29*%
%TO.N,/D13*%
X166281000Y-88493600D03*
%TO.P,ZX1,30,30*%
%TO.N,/D6*%
X163741000Y-88493600D03*
%TO.P,ZX1,31,31*%
%TO.N,/D14*%
X161201000Y-88493600D03*
%TO.P,ZX1,32,32*%
%TO.N,/D7*%
X158661000Y-88493600D03*
%TO.P,ZX1,33,33*%
%TO.N,/D15*%
X156121000Y-88493600D03*
%TO.P,ZX1,34,34*%
%TO.N,GND*%
X153581000Y-88493600D03*
%TO.P,ZX1,35,35*%
%TO.N,/N$2*%
X151041000Y-88493600D03*
%TO.P,ZX1,36,36*%
%TO.N,/A16*%
X148501000Y-88493600D03*
%TO.P,ZX1,37,37*%
%TO.N,/A15*%
X145961000Y-88493600D03*
%TO.P,ZX1,38,38*%
%TO.N,/A14*%
X143421000Y-88493600D03*
%TO.P,ZX1,39,39*%
%TO.N,/A13*%
X140881000Y-88493600D03*
%TO.P,ZX1,40,40*%
%TO.N,/A12*%
X138341000Y-88493600D03*
%TO.P,ZX1,41,41*%
%TO.N,/A11*%
X135801000Y-88493600D03*
%TO.P,ZX1,42,42*%
%TO.N,/A10*%
X133261000Y-88493600D03*
%TO.P,ZX1,43,43*%
%TO.N,/A9*%
X130721000Y-88493600D03*
%TO.P,ZX1,44,44*%
%TO.N,/A8*%
X128181000Y-88493600D03*
%TO.P,ZX1,45,45*%
%TO.N,/A19*%
X125641000Y-88493600D03*
%TO.P,ZX1,46,46*%
%TO.N,unconnected-(ZX1-Pad46)*%
X123101000Y-88493600D03*
%TO.P,ZX1,47,47*%
%TO.N,unconnected-(ZX1-Pad47)*%
X120561000Y-88493600D03*
%TO.P,ZX1,48,48*%
%TO.N,unconnected-(ZX1-Pad48)*%
X118021000Y-88493600D03*
%TD*%
%TO.P,U1,40,VCC*%
%TO.N,VCC*%
X133360000Y-94954000D03*
%TO.P,U1,39,A17*%
%TO.N,/A17*%
X135900000Y-94954000D03*
%TO.P,U1,38,A16*%
%TO.N,/A16*%
X138440000Y-94954000D03*
%TO.P,U1,37,A15*%
%TO.N,/A15*%
X140980000Y-94954000D03*
%TO.P,U1,36,A14*%
%TO.N,/A14*%
X143520000Y-94954000D03*
%TO.P,U1,35,A13*%
%TO.N,/A13*%
X146060000Y-94954000D03*
%TO.P,U1,34,A12*%
%TO.N,/A12*%
X148600000Y-94954000D03*
%TO.P,U1,33,A11*%
%TO.N,/A11*%
X151140000Y-94954000D03*
%TO.P,U1,32,A10*%
%TO.N,/A10*%
X153680000Y-94954000D03*
%TO.P,U1,31,A9*%
%TO.N,/A9*%
X156220000Y-94954000D03*
%TO.P,U1,30,GND*%
%TO.N,GND*%
X158760000Y-94954000D03*
%TO.P,U1,29,A8*%
%TO.N,/A8*%
X161300000Y-94954000D03*
%TO.P,U1,28,A7*%
%TO.N,/A7*%
X163840000Y-94954000D03*
%TO.P,U1,27,A6*%
%TO.N,/A6*%
X166380000Y-94954000D03*
%TO.P,U1,26,A5*%
%TO.N,/A5*%
X168920000Y-94954000D03*
%TO.P,U1,25,A4*%
%TO.N,/A4*%
X171460000Y-94954000D03*
%TO.P,U1,24,A3*%
%TO.N,/A3*%
X174000000Y-94954000D03*
%TO.P,U1,23,A2*%
%TO.N,/A2*%
X176540000Y-94954000D03*
%TO.P,U1,22,A1*%
%TO.N,/A1*%
X179080000Y-94954000D03*
%TO.P,U1,21,A0*%
%TO.N,/A0*%
X181620000Y-94954000D03*
%TO.P,U1,20,/G*%
%TO.N,/N$5*%
X181620000Y-109940000D03*
%TO.P,U1,19,D0*%
%TO.N,/D0*%
X179080000Y-109940000D03*
%TO.P,U1,18,D1*%
%TO.N,/D1*%
X176540000Y-109940000D03*
%TO.P,U1,17,D2*%
%TO.N,/D2*%
X174000000Y-109940000D03*
%TO.P,U1,16,D3*%
%TO.N,/D3*%
X171460000Y-109940000D03*
%TO.P,U1,15,D4*%
%TO.N,/D4*%
X168920000Y-109940000D03*
%TO.P,U1,14,D5*%
%TO.N,/D5*%
X166380000Y-109940000D03*
%TO.P,U1,13,D6*%
%TO.N,/D6*%
X163840000Y-109940000D03*
%TO.P,U1,12,D7*%
%TO.N,/D7*%
X161300000Y-109940000D03*
%TO.P,U1,11,GND*%
%TO.N,GND*%
X158760000Y-109940000D03*
%TO.P,U1,10,D8*%
%TO.N,/D8*%
X156220000Y-109940000D03*
%TO.P,U1,9,D9*%
%TO.N,/D9*%
X153680000Y-109940000D03*
%TO.P,U1,8,D10*%
%TO.N,/D10*%
X151140000Y-109940000D03*
%TO.P,U1,7,D11*%
%TO.N,/D11*%
X148600000Y-109940000D03*
%TO.P,U1,6,D12*%
%TO.N,/D12*%
X146060000Y-109940000D03*
%TO.P,U1,5,D13*%
%TO.N,/D13*%
X143520000Y-109940000D03*
%TO.P,U1,4,D14*%
%TO.N,/D14*%
X140980000Y-109940000D03*
%TO.P,U1,3,D15*%
%TO.N,/D15*%
X138440000Y-109940000D03*
%TO.P,U1,2,/CE*%
%TO.N,/E*%
X135900000Y-109940000D03*
%TO.P,U1,1,VPP*%
%TO.N,/VPP*%
X133360000Y-109940000D03*
%TD*%
D11*
%TO.P,SW2,6,6*%
%TO.N,/A18*%
X149136000Y-115164000D03*
%TO.P,SW2,5,5*%
%TO.N,/A19*%
X151676000Y-115164000D03*
%TO.P,SW2,4,4*%
%TO.N,/A20*%
X154216000Y-115164000D03*
%TO.P,SW2,3,3*%
%TO.N,GND*%
X154216000Y-122784000D03*
%TO.P,SW2,2,2*%
X151676000Y-122784000D03*
%TO.P,SW2,1,1*%
X149136000Y-122784000D03*
%TD*%
D12*
%TO.P,SW1,1,O*%
%TO.N,/VPP*%
X131086000Y-121514000D03*
%TO.P,SW1,2,P*%
%TO.N,/N$2*%
X131086000Y-118974000D03*
%TO.P,SW1,3,S*%
%TO.N,/A20*%
X131086000Y-116434000D03*
%TO.P,SW1,4,O1*%
%TO.N,/N$5*%
X133626000Y-121514000D03*
%TO.P,SW1,5,P1*%
%TO.N,/N$6*%
X133626000Y-118974000D03*
%TO.P,SW1,6,S1*%
%TO.N,/N$4*%
X133626000Y-116434000D03*
%TD*%
D13*
%TO.P,R1,2,2*%
%TO.N,VCC*%
X182156000Y-120374000D03*
%TO.P,R1,1,1*%
%TO.N,/A20*%
X182156000Y-117574000D03*
%TD*%
%TO.P,R2,2,2*%
%TO.N,VCC*%
X178346000Y-120374000D03*
%TO.P,R2,1,1*%
%TO.N,/A19*%
X178346000Y-117574000D03*
%TD*%
%TO.P,R3,2,2*%
%TO.N,VCC*%
X174536000Y-120374000D03*
%TO.P,R3,1,1*%
%TO.N,/A18*%
X174536000Y-117574000D03*
%TD*%
%TO.P,R4,2,2*%
%TO.N,/N$4*%
X170726000Y-120374000D03*
%TO.P,R4,1,1*%
%TO.N,GND*%
X170726000Y-117574000D03*
%TD*%
D14*
%TO.P,R5,2,2*%
%TO.N,/N$1*%
X166916000Y-117574000D03*
%TO.P,R5,1,1*%
%TO.N,VCC*%
X166916000Y-120374000D03*
%TD*%
D15*
%TO.P,Q1,E,E*%
%TO.N,/VPP*%
X161665820Y-118026580D03*
%TO.P,Q1,C,C*%
%TO.N,/N$4*%
X159466180Y-118974000D03*
%TO.P,Q1,B,B*%
%TO.N,/N$1*%
X161665820Y-119923960D03*
%TD*%
D16*
%TO.N,/D12*%
X155639000Y-96859000D03*
%TD*%
D17*
%TO.N,/A16*%
X148501000Y-88493600D02*
X148501000Y-90280400D01*
X140226800Y-96740800D02*
X138440000Y-94954000D01*
X141435400Y-96740800D02*
X140226800Y-96740800D01*
X142107500Y-96068700D02*
X141435400Y-96740800D01*
X142107500Y-94133900D02*
X142107500Y-96068700D01*
X143326200Y-92915200D02*
X142107500Y-94133900D01*
X145866200Y-92915200D02*
X143326200Y-92915200D01*
X148501000Y-90280400D02*
X145866200Y-92915200D01*
%TO.N,/A15*%
X140980000Y-94954000D02*
X140980000Y-93167200D01*
X145961000Y-88493600D02*
X145961000Y-90280400D01*
X143866800Y-90280400D02*
X140980000Y-93167200D01*
X145961000Y-90280400D02*
X143866800Y-90280400D01*
%TO.N,/A11*%
X148945200Y-86706800D02*
X135801000Y-86706800D01*
X149771000Y-87532600D02*
X148945200Y-86706800D01*
X149771000Y-91798200D02*
X149771000Y-87532600D01*
X151140000Y-93167200D02*
X149771000Y-91798200D01*
X151140000Y-94954000D02*
X151140000Y-93167200D01*
X135801000Y-88493600D02*
X135801000Y-86706800D01*
%TO.N,/A10*%
X153275000Y-97145800D02*
X153680000Y-96740800D01*
X138416400Y-97145800D02*
X153275000Y-97145800D01*
X137170000Y-95899400D02*
X138416400Y-97145800D01*
X137170000Y-93984800D02*
X137170000Y-95899400D01*
X133465600Y-90280400D02*
X137170000Y-93984800D01*
X133261000Y-90280400D02*
X133465600Y-90280400D01*
X133261000Y-88493600D02*
X133261000Y-90280400D01*
X153680000Y-94954000D02*
X153680000Y-96740800D01*
%TO.N,/A9*%
X130721000Y-88493600D02*
X130721000Y-86706800D01*
X156220000Y-94954000D02*
X156220000Y-93167200D01*
X131150200Y-86277600D02*
X130721000Y-86706800D01*
X151040700Y-86277600D02*
X131150200Y-86277600D01*
X152311000Y-87547900D02*
X151040700Y-86277600D01*
X152311000Y-89472200D02*
X152311000Y-87547900D01*
X156006000Y-93167200D02*
X152311000Y-89472200D01*
X156220000Y-93167200D02*
X156006000Y-93167200D01*
%TO.N,/A8*%
X161300000Y-94954000D02*
X161300000Y-93167200D01*
X128181000Y-88493600D02*
X128181000Y-86706800D01*
X129032000Y-85855800D02*
X128181000Y-86706800D01*
X153212300Y-85855800D02*
X129032000Y-85855800D01*
X154851000Y-87494500D02*
X153212300Y-85855800D01*
X154851000Y-89487700D02*
X154851000Y-87494500D01*
X157122500Y-91759200D02*
X154851000Y-89487700D01*
X159892000Y-91759200D02*
X157122500Y-91759200D01*
X161300000Y-93167200D02*
X159892000Y-91759200D01*
%TO.N,/A7*%
X130721000Y-103733600D02*
X130721000Y-101946800D01*
X163840000Y-94954000D02*
X163840000Y-96740800D01*
X133906200Y-98761600D02*
X130721000Y-101946800D01*
X154819300Y-98761600D02*
X133906200Y-98761600D01*
X156435800Y-97145100D02*
X154819300Y-98761600D01*
X163435700Y-97145100D02*
X156435800Y-97145100D01*
X163840000Y-96740800D02*
X163435700Y-97145100D01*
%TO.N,/A6*%
X166380000Y-94954000D02*
X166380000Y-96740800D01*
X133261000Y-103733600D02*
X133261000Y-101946800D01*
X136041900Y-99165900D02*
X133261000Y-101946800D01*
X154986800Y-99165900D02*
X136041900Y-99165900D01*
X156402600Y-97750100D02*
X154986800Y-99165900D01*
X165370700Y-97750100D02*
X156402600Y-97750100D01*
X166380000Y-96740800D02*
X165370700Y-97750100D01*
%TO.N,/A5*%
X168920000Y-94954000D02*
X168920000Y-96740800D01*
X135801000Y-103733600D02*
X135801000Y-101946800D01*
X138039100Y-99708700D02*
X135801000Y-101946800D01*
X155539500Y-99708700D02*
X138039100Y-99708700D01*
X157093800Y-98154400D02*
X155539500Y-99708700D01*
X167506400Y-98154400D02*
X157093800Y-98154400D01*
X168920000Y-96740800D02*
X167506400Y-98154400D01*
%TO.N,/A4*%
X171460000Y-94954000D02*
X171460000Y-96740800D01*
X138341000Y-103733600D02*
X138341000Y-101946800D01*
X140173300Y-100114500D02*
X138341000Y-101946800D01*
X155705500Y-100114500D02*
X140173300Y-100114500D01*
X157259800Y-98560200D02*
X155705500Y-100114500D01*
X169640600Y-98560200D02*
X157259800Y-98560200D01*
X171460000Y-96740800D02*
X169640600Y-98560200D01*
%TO.N,/A3*%
X174000000Y-94954000D02*
X174000000Y-96740800D01*
X140881000Y-103733600D02*
X140881000Y-101946800D01*
X142295000Y-100532800D02*
X140881000Y-101946800D01*
X155906900Y-100532800D02*
X142295000Y-100532800D01*
X157119100Y-99320600D02*
X155906900Y-100532800D01*
X171420200Y-99320600D02*
X157119100Y-99320600D01*
X174000000Y-96740800D02*
X171420200Y-99320600D01*
%TO.N,/A2*%
X144410300Y-100957500D02*
X143421000Y-101946800D01*
X157466200Y-100957500D02*
X144410300Y-100957500D01*
X158650900Y-99772800D02*
X157466200Y-100957500D01*
X173508000Y-99772800D02*
X158650900Y-99772800D01*
X176540000Y-96740800D02*
X173508000Y-99772800D01*
X176540000Y-94954000D02*
X176540000Y-96740800D01*
X143421000Y-103733600D02*
X143421000Y-101946800D01*
%TO.N,/A1*%
X179080000Y-94954000D02*
X179080000Y-96740800D01*
X145961000Y-103733600D02*
X145961000Y-101946800D01*
X175310400Y-100510400D02*
X179080000Y-96740800D01*
X158485100Y-100510400D02*
X175310400Y-100510400D01*
X157613000Y-101382500D02*
X158485100Y-100510400D01*
X146525300Y-101382500D02*
X157613000Y-101382500D01*
X145961000Y-101946800D02*
X146525300Y-101382500D01*
%TO.N,/A0*%
X181620000Y-94954000D02*
X181620000Y-96740800D01*
X148501000Y-103733600D02*
X148501000Y-101946800D01*
X177244800Y-101116000D02*
X181620000Y-96740800D01*
X158451300Y-101116000D02*
X177244800Y-101116000D01*
X157620500Y-101946800D02*
X158451300Y-101116000D01*
X148501000Y-101946800D02*
X157620500Y-101946800D01*
%TO.N,/D0*%
X160447800Y-101946800D02*
X158661000Y-103733600D01*
X171857500Y-101946800D02*
X160447800Y-101946800D01*
X172631000Y-102720300D02*
X171857500Y-101946800D01*
X172631000Y-104693200D02*
X172631000Y-102720300D01*
X176091000Y-108153200D02*
X172631000Y-104693200D01*
X179080000Y-108153200D02*
X176091000Y-108153200D01*
X179080000Y-109940000D02*
X179080000Y-108153200D01*
%TO.N,/D9*%
X153680000Y-109940000D02*
X153680000Y-108153200D01*
X166281000Y-103733600D02*
X166281000Y-105520400D01*
X154084300Y-107748900D02*
X153680000Y-108153200D01*
X157188900Y-107748900D02*
X154084300Y-107748900D01*
X157814200Y-107123600D02*
X157188900Y-107748900D01*
X164677800Y-107123600D02*
X157814200Y-107123600D01*
X166281000Y-105520400D02*
X164677800Y-107123600D01*
%TO.N,/D10*%
X171361000Y-103733600D02*
X171361000Y-105520400D01*
X151140000Y-109940000D02*
X151140000Y-111726800D01*
X154118900Y-111726800D02*
X151140000Y-111726800D01*
X154950000Y-110895700D02*
X154118900Y-111726800D01*
X154950000Y-108990900D02*
X154950000Y-110895700D01*
X155787700Y-108153200D02*
X154950000Y-108990900D01*
X157602400Y-108153200D02*
X155787700Y-108153200D01*
X158174800Y-107580800D02*
X157602400Y-108153200D01*
X169300600Y-107580800D02*
X158174800Y-107580800D01*
X171361000Y-105520400D02*
X169300600Y-107580800D01*
%TO.N,/D11*%
X176441000Y-103733600D02*
X176441000Y-101946800D01*
X148600000Y-109940000D02*
X148600000Y-108153200D01*
X176032500Y-101538300D02*
X176441000Y-101946800D01*
X158600800Y-101538300D02*
X176032500Y-101538300D01*
X157391000Y-102748100D02*
X158600800Y-101538300D01*
X157391000Y-104692700D02*
X157391000Y-102748100D01*
X155343700Y-106740000D02*
X157391000Y-104692700D01*
X150013200Y-106740000D02*
X155343700Y-106740000D01*
X148600000Y-108153200D02*
X150013200Y-106740000D01*
%TO.N,/D12*%
X171361000Y-88493600D02*
X171361000Y-90280400D01*
X155757200Y-96740800D02*
X155639000Y-96859000D01*
X161777400Y-96740800D02*
X155757200Y-96740800D01*
X162570000Y-95948200D02*
X161777400Y-96740800D01*
X162570000Y-93950400D02*
X162570000Y-95948200D01*
X166240000Y-90280400D02*
X162570000Y-93950400D01*
X171361000Y-90280400D02*
X166240000Y-90280400D01*
%TO.N,/E*%
X138532800Y-105520400D02*
X151041000Y-105520400D01*
X135900000Y-108153200D02*
X138532800Y-105520400D01*
X135900000Y-109940000D02*
X135900000Y-108153200D01*
X151041000Y-103733600D02*
X151041000Y-105520400D01*
%TO.N,/A18*%
X149136000Y-115164000D02*
X149136000Y-115964000D01*
X125641000Y-103733600D02*
X125641000Y-105520400D01*
X136084600Y-115964000D02*
X125641000Y-105520400D01*
X149136000Y-115964000D02*
X136084600Y-115964000D01*
X173216000Y-118894000D02*
X174536000Y-117574000D01*
X169628400Y-118894000D02*
X173216000Y-118894000D01*
X169118100Y-118383700D02*
X169628400Y-118894000D01*
X169118100Y-118026300D02*
X169118100Y-118383700D01*
X167733900Y-116642100D02*
X169118100Y-118026300D01*
X163433100Y-116642100D02*
X167733900Y-116642100D01*
X162860900Y-117214300D02*
X163433100Y-116642100D01*
X150386300Y-117214300D02*
X162860900Y-117214300D01*
X149136000Y-115964000D02*
X150386300Y-117214300D01*
%TO.N,/A19*%
X151676000Y-115164000D02*
X151676000Y-113563900D01*
X129451000Y-94090400D02*
X125641000Y-90280400D01*
X129451000Y-104678200D02*
X129451000Y-94090400D01*
X131179400Y-106406600D02*
X129451000Y-104678200D01*
X132084900Y-106406600D02*
X131179400Y-106406600D01*
X134701100Y-109022800D02*
X132084900Y-106406600D01*
X134701100Y-110994000D02*
X134701100Y-109022800D01*
X137271000Y-113563900D02*
X134701100Y-110994000D01*
X151676000Y-113563900D02*
X137271000Y-113563900D01*
X125641000Y-88493600D02*
X125641000Y-90280400D01*
X155328000Y-116764100D02*
X151676000Y-116764100D01*
X155875100Y-116217000D02*
X155328000Y-116764100D01*
X167948600Y-116217000D02*
X155875100Y-116217000D01*
X169522400Y-117790800D02*
X167948600Y-116217000D01*
X169522400Y-118145900D02*
X169522400Y-117790800D01*
X169866200Y-118489700D02*
X169522400Y-118145900D01*
X171837500Y-118489700D02*
X169866200Y-118489700D01*
X173685500Y-116641700D02*
X171837500Y-118489700D01*
X177413700Y-116641700D02*
X173685500Y-116641700D01*
X178346000Y-117574000D02*
X177413700Y-116641700D01*
X151676000Y-115164000D02*
X151676000Y-116764100D01*
%TO.N,/A20*%
X176308800Y-111726800D02*
X182156000Y-117574000D01*
X165952300Y-111726800D02*
X176308800Y-111726800D01*
X165110000Y-110884500D02*
X165952300Y-111726800D01*
X165110000Y-108922500D02*
X165110000Y-110884500D01*
X164310600Y-108123100D02*
X165110000Y-108922500D01*
X158283900Y-108123100D02*
X164310600Y-108123100D01*
X157347500Y-109059500D02*
X158283900Y-108123100D01*
X157347500Y-111084400D02*
X157347500Y-109059500D01*
X154868000Y-113563900D02*
X157347500Y-111084400D01*
X154216000Y-113563900D02*
X154868000Y-113563900D01*
X154216000Y-115164000D02*
X154216000Y-113563900D01*
%TO.N,/N$1*%
X164566000Y-119924000D02*
X166916000Y-117574000D01*
X161665800Y-119924000D02*
X164566000Y-119924000D01*
%TO.N,/VPP*%
X132356000Y-120244000D02*
X131086000Y-121514000D01*
X132356000Y-116095200D02*
X132356000Y-120244000D01*
X133134700Y-115316500D02*
X132356000Y-116095200D01*
X134088900Y-115316500D02*
X133134700Y-115316500D01*
X136799000Y-118026600D02*
X134088900Y-115316500D01*
X161665800Y-118026600D02*
X136799000Y-118026600D01*
%TO.N,/N$4*%
X136166000Y-118974000D02*
X159466200Y-118974000D01*
X133626000Y-116434000D02*
X136166000Y-118974000D01*
X169812600Y-121287400D02*
X170726000Y-120374000D01*
X161001200Y-121287400D02*
X169812600Y-121287400D01*
X159466200Y-119752400D02*
X161001200Y-121287400D01*
X159466200Y-118974000D02*
X159466200Y-119752400D01*
%TO.N,VCC*%
X176441000Y-88493600D02*
X176441000Y-90280400D01*
X179168500Y-90280400D02*
X176441000Y-90280400D01*
X183325000Y-94436900D02*
X179168500Y-90280400D01*
X183325000Y-119205000D02*
X183325000Y-94436900D01*
X182156000Y-120374000D02*
X183325000Y-119205000D01*
X173621700Y-119459700D02*
X174536000Y-120374000D01*
X167830300Y-119459700D02*
X173621700Y-119459700D01*
X166916000Y-120374000D02*
X167830300Y-119459700D01*
X182156000Y-120374000D02*
X178346000Y-120374000D01*
X178346000Y-120374000D02*
X174536000Y-120374000D01*
%TO.N,GND*%
X149136000Y-124384100D02*
X151676000Y-124384100D01*
X149136000Y-122784000D02*
X149136000Y-124384100D01*
X151676000Y-122784000D02*
X151676000Y-123584000D01*
X151676000Y-123584000D02*
X151676000Y-124384100D01*
X152476100Y-124384100D02*
X154216000Y-124384100D01*
X151676000Y-123584000D02*
X152476100Y-124384100D01*
X154216000Y-122784000D02*
X154216000Y-124384100D01*
X164878800Y-111726800D02*
X158760000Y-111726800D01*
X170726000Y-117574000D02*
X164878800Y-111726800D01*
X158760000Y-109940000D02*
X158760000Y-111726800D01*
X158760000Y-94954000D02*
X158760000Y-93167200D01*
X153581000Y-88847300D02*
X153581000Y-88493600D01*
X157900900Y-93167200D02*
X153581000Y-88847300D01*
X158760000Y-93167200D02*
X157900900Y-93167200D01*
%TD*%
%TA.AperFunction,Conductor*%
%TO.N,GND*%
G36*
X160575848Y-108420685D02*
G01*
X160621603Y-108473489D01*
X160631547Y-108542647D01*
X160602522Y-108606203D01*
X160600990Y-108607937D01*
X160595298Y-108614260D01*
X160562984Y-108650147D01*
X160562983Y-108650148D01*
X160467758Y-108815084D01*
X160408907Y-108996210D01*
X160406788Y-109016369D01*
X160393990Y-109138135D01*
X160393990Y-110741865D01*
X160406420Y-110860134D01*
X160408907Y-110883789D01*
X160467757Y-111064913D01*
X160467759Y-111064917D01*
X160473559Y-111074963D01*
X160562983Y-111229851D01*
X160562988Y-111229858D01*
X160690420Y-111371385D01*
X160690422Y-111371387D01*
X160844497Y-111483329D01*
X160844498Y-111483330D01*
X160902494Y-111509151D01*
X161018485Y-111560793D01*
X161204774Y-111600390D01*
X161395226Y-111600390D01*
X161581515Y-111560793D01*
X161755500Y-111483330D01*
X161909579Y-111371386D01*
X162026142Y-111241929D01*
X162037011Y-111229858D01*
X162037016Y-111229851D01*
X162065835Y-111179935D01*
X162132241Y-111064917D01*
X162191093Y-110883788D01*
X162206010Y-110741865D01*
X162206010Y-109138135D01*
X162191093Y-108996212D01*
X162132241Y-108815083D01*
X162071171Y-108709306D01*
X162037016Y-108650148D01*
X162037015Y-108650147D01*
X162037010Y-108650141D01*
X161999040Y-108607971D01*
X161968811Y-108544981D01*
X161977436Y-108475646D01*
X162022177Y-108421980D01*
X162088830Y-108401022D01*
X162091191Y-108401000D01*
X163048809Y-108401000D01*
X163115848Y-108420685D01*
X163161603Y-108473489D01*
X163171547Y-108542647D01*
X163142522Y-108606203D01*
X163140990Y-108607937D01*
X163135298Y-108614260D01*
X163102984Y-108650147D01*
X163102983Y-108650148D01*
X163007758Y-108815084D01*
X162948907Y-108996210D01*
X162946788Y-109016369D01*
X162933990Y-109138135D01*
X162933990Y-110741865D01*
X162946420Y-110860134D01*
X162948907Y-110883789D01*
X163007757Y-111064913D01*
X163007759Y-111064917D01*
X163013559Y-111074963D01*
X163102983Y-111229851D01*
X163102988Y-111229858D01*
X163230420Y-111371385D01*
X163230422Y-111371387D01*
X163384497Y-111483329D01*
X163384498Y-111483330D01*
X163442494Y-111509151D01*
X163558485Y-111560793D01*
X163744774Y-111600390D01*
X163935226Y-111600390D01*
X164121515Y-111560793D01*
X164295500Y-111483330D01*
X164449579Y-111371386D01*
X164566142Y-111241929D01*
X164577011Y-111229858D01*
X164577014Y-111229854D01*
X164591856Y-111204147D01*
X164672241Y-111064917D01*
X164672243Y-111064910D01*
X164673856Y-111062117D01*
X164724423Y-111013901D01*
X164793030Y-111000677D01*
X164857895Y-111026645D01*
X164868925Y-111036435D01*
X164880522Y-111048032D01*
X164898266Y-111070432D01*
X164901071Y-111074962D01*
X164901072Y-111074963D01*
X164923704Y-111092054D01*
X164930184Y-111097694D01*
X165714475Y-111881985D01*
X165720112Y-111888464D01*
X165726689Y-111897173D01*
X165759291Y-111926894D01*
X165761352Y-111928862D01*
X165774005Y-111941515D01*
X165774008Y-111941517D01*
X165775783Y-111942733D01*
X165782521Y-111948071D01*
X165786049Y-111951287D01*
X165803470Y-111967168D01*
X165803473Y-111967169D01*
X165808430Y-111969090D01*
X165833711Y-111982414D01*
X165838106Y-111985425D01*
X165865716Y-111991918D01*
X165873903Y-111994454D01*
X165900351Y-112004700D01*
X165905674Y-112004700D01*
X165934063Y-112007993D01*
X165939243Y-112009212D01*
X165967324Y-112005294D01*
X165975898Y-112004700D01*
X176142329Y-112004700D01*
X176209368Y-112024385D01*
X176230010Y-112041019D01*
X181119469Y-116930479D01*
X181152954Y-116991802D01*
X181147970Y-117061494D01*
X181143340Y-117072027D01*
X181143042Y-117072945D01*
X181128100Y-117167286D01*
X181128100Y-117980713D01*
X181143041Y-118075050D01*
X181143042Y-118075053D01*
X181143043Y-118075055D01*
X181197421Y-118181778D01*
X181200985Y-118188772D01*
X181200988Y-118188776D01*
X181291223Y-118279011D01*
X181291227Y-118279014D01*
X181291229Y-118279016D01*
X181404945Y-118336957D01*
X181404947Y-118336957D01*
X181404949Y-118336958D01*
X181499287Y-118351900D01*
X181499292Y-118351900D01*
X182812712Y-118351900D01*
X182881036Y-118341078D01*
X182903701Y-118337488D01*
X182972995Y-118346442D01*
X183026447Y-118391438D01*
X183047087Y-118458189D01*
X183047100Y-118459961D01*
X183047100Y-119038528D01*
X183027415Y-119105567D01*
X183010781Y-119126209D01*
X182577209Y-119559781D01*
X182515886Y-119593266D01*
X182489528Y-119596100D01*
X181499287Y-119596100D01*
X181404949Y-119611041D01*
X181404945Y-119611042D01*
X181404945Y-119611043D01*
X181375571Y-119626010D01*
X181291227Y-119668985D01*
X181291223Y-119668988D01*
X181200988Y-119759223D01*
X181200985Y-119759227D01*
X181143041Y-119872949D01*
X181128100Y-119967286D01*
X181128100Y-119972100D01*
X181108415Y-120039139D01*
X181055611Y-120084894D01*
X181004100Y-120096100D01*
X179497900Y-120096100D01*
X179430861Y-120076415D01*
X179385106Y-120023611D01*
X179373900Y-119972100D01*
X179373900Y-119967286D01*
X179358958Y-119872949D01*
X179358957Y-119872947D01*
X179358957Y-119872945D01*
X179301016Y-119759229D01*
X179301014Y-119759227D01*
X179301011Y-119759223D01*
X179210776Y-119668988D01*
X179210772Y-119668985D01*
X179210771Y-119668984D01*
X179097055Y-119611043D01*
X179097053Y-119611042D01*
X179097050Y-119611041D01*
X179002713Y-119596100D01*
X179002708Y-119596100D01*
X177689292Y-119596100D01*
X177689287Y-119596100D01*
X177594949Y-119611041D01*
X177594945Y-119611042D01*
X177594945Y-119611043D01*
X177565571Y-119626010D01*
X177481227Y-119668985D01*
X177481223Y-119668988D01*
X177390988Y-119759223D01*
X177390985Y-119759227D01*
X177333041Y-119872949D01*
X177318100Y-119967286D01*
X177318100Y-119972100D01*
X177298415Y-120039139D01*
X177245611Y-120084894D01*
X177194100Y-120096100D01*
X175687900Y-120096100D01*
X175620861Y-120076415D01*
X175575106Y-120023611D01*
X175563900Y-119972100D01*
X175563900Y-119967286D01*
X175548958Y-119872949D01*
X175548957Y-119872947D01*
X175548957Y-119872945D01*
X175491016Y-119759229D01*
X175491014Y-119759227D01*
X175491011Y-119759223D01*
X175400776Y-119668988D01*
X175400772Y-119668985D01*
X175400771Y-119668984D01*
X175287055Y-119611043D01*
X175287053Y-119611042D01*
X175287050Y-119611041D01*
X175192713Y-119596100D01*
X175192708Y-119596100D01*
X174202472Y-119596100D01*
X174135433Y-119576415D01*
X174114791Y-119559781D01*
X173859531Y-119304521D01*
X173853887Y-119298035D01*
X173847310Y-119289326D01*
X173814718Y-119259614D01*
X173812646Y-119257636D01*
X173799993Y-119244983D01*
X173798212Y-119243763D01*
X173791477Y-119238427D01*
X173770530Y-119219332D01*
X173765562Y-119217407D01*
X173740288Y-119204085D01*
X173735894Y-119201075D01*
X173735893Y-119201074D01*
X173735892Y-119201074D01*
X173708291Y-119194581D01*
X173700083Y-119192039D01*
X173673650Y-119181800D01*
X173673649Y-119181800D01*
X173668326Y-119181800D01*
X173639936Y-119178506D01*
X173637877Y-119178021D01*
X173634758Y-119177288D01*
X173623281Y-119176758D01*
X173623430Y-119173519D01*
X173572906Y-119166030D01*
X173520302Y-119120046D01*
X173500909Y-119052921D01*
X173520885Y-118985968D01*
X173537221Y-118965786D01*
X174114791Y-118388219D01*
X174176114Y-118354734D01*
X174202472Y-118351900D01*
X175192713Y-118351900D01*
X175287050Y-118336958D01*
X175287050Y-118336957D01*
X175287055Y-118336957D01*
X175400771Y-118279016D01*
X175491016Y-118188771D01*
X175548957Y-118075055D01*
X175561282Y-117997239D01*
X175563900Y-117980713D01*
X175563900Y-117167286D01*
X175547431Y-117063306D01*
X175551320Y-117062689D01*
X175549885Y-117012050D01*
X175585979Y-116952226D01*
X175648686Y-116921411D01*
X175669804Y-116919600D01*
X177212196Y-116919600D01*
X177279235Y-116939285D01*
X177324990Y-116992089D01*
X177334934Y-117061247D01*
X177334459Y-117063288D01*
X177334569Y-117063306D01*
X177318100Y-117167286D01*
X177318100Y-117980713D01*
X177333041Y-118075050D01*
X177333042Y-118075053D01*
X177333043Y-118075055D01*
X177387421Y-118181778D01*
X177390985Y-118188772D01*
X177390988Y-118188776D01*
X177481223Y-118279011D01*
X177481227Y-118279014D01*
X177481229Y-118279016D01*
X177594945Y-118336957D01*
X177594947Y-118336957D01*
X177594949Y-118336958D01*
X177689287Y-118351900D01*
X177689292Y-118351900D01*
X179002713Y-118351900D01*
X179097050Y-118336958D01*
X179097050Y-118336957D01*
X179097055Y-118336957D01*
X179210771Y-118279016D01*
X179301016Y-118188771D01*
X179358957Y-118075055D01*
X179371282Y-117997239D01*
X179373900Y-117980713D01*
X179373900Y-117167286D01*
X179358958Y-117072949D01*
X179358957Y-117072947D01*
X179358957Y-117072945D01*
X179301016Y-116959229D01*
X179301014Y-116959227D01*
X179301011Y-116959223D01*
X179210776Y-116868988D01*
X179210772Y-116868985D01*
X179210771Y-116868984D01*
X179097055Y-116811043D01*
X179097053Y-116811042D01*
X179097050Y-116811041D01*
X179002713Y-116796100D01*
X179002708Y-116796100D01*
X178012472Y-116796100D01*
X177945433Y-116776415D01*
X177924791Y-116759781D01*
X177651531Y-116486521D01*
X177645887Y-116480035D01*
X177639310Y-116471326D01*
X177606718Y-116441614D01*
X177604646Y-116439636D01*
X177591993Y-116426983D01*
X177590212Y-116425763D01*
X177583477Y-116420427D01*
X177562530Y-116401332D01*
X177557562Y-116399407D01*
X177532288Y-116386085D01*
X177527894Y-116383075D01*
X177527893Y-116383074D01*
X177527892Y-116383074D01*
X177500291Y-116376581D01*
X177492083Y-116374039D01*
X177465650Y-116363800D01*
X177465649Y-116363800D01*
X177460326Y-116363800D01*
X177431936Y-116360506D01*
X177426757Y-116359288D01*
X177398675Y-116363205D01*
X177390102Y-116363800D01*
X173743946Y-116363800D01*
X173735371Y-116363205D01*
X173724561Y-116361697D01*
X173724559Y-116361697D01*
X173705592Y-116362573D01*
X173680494Y-116363734D01*
X173677631Y-116363800D01*
X173659737Y-116363800D01*
X173657618Y-116364196D01*
X173649095Y-116365184D01*
X173620777Y-116366494D01*
X173620772Y-116366495D01*
X173615896Y-116368648D01*
X173588612Y-116377097D01*
X173583372Y-116378076D01*
X173583371Y-116378077D01*
X173559262Y-116393003D01*
X173551664Y-116397008D01*
X173525729Y-116408460D01*
X173521963Y-116412227D01*
X173499566Y-116429967D01*
X173495036Y-116432771D01*
X173477946Y-116455401D01*
X173472305Y-116461884D01*
X172146507Y-117787681D01*
X172085184Y-117821166D01*
X172058826Y-117824000D01*
X170600000Y-117824000D01*
X170532961Y-117804315D01*
X170487206Y-117751511D01*
X170476000Y-117700000D01*
X170476000Y-116449000D01*
X170976000Y-116449000D01*
X170976000Y-117324000D01*
X172100999Y-117324000D01*
X172100999Y-117149028D01*
X172100998Y-117149013D01*
X172090505Y-117046302D01*
X172035358Y-116879880D01*
X172035356Y-116879875D01*
X171943315Y-116730654D01*
X171819345Y-116606684D01*
X171670124Y-116514643D01*
X171670119Y-116514641D01*
X171503697Y-116459494D01*
X171503690Y-116459493D01*
X171400986Y-116449000D01*
X170976000Y-116449000D01*
X170476000Y-116449000D01*
X170051028Y-116449000D01*
X170051012Y-116449001D01*
X169948302Y-116459494D01*
X169781880Y-116514641D01*
X169781875Y-116514643D01*
X169632654Y-116606684D01*
X169508684Y-116730654D01*
X169416643Y-116879875D01*
X169416642Y-116879878D01*
X169377294Y-116998621D01*
X169337521Y-117056066D01*
X169273005Y-117082888D01*
X169204229Y-117070573D01*
X169171907Y-117047297D01*
X168186431Y-116061821D01*
X168180787Y-116055335D01*
X168174211Y-116046627D01*
X168141615Y-116016912D01*
X168139544Y-116014934D01*
X168126893Y-116002283D01*
X168125112Y-116001063D01*
X168118377Y-115995727D01*
X168097430Y-115976632D01*
X168092462Y-115974707D01*
X168067188Y-115961385D01*
X168062794Y-115958375D01*
X168062793Y-115958374D01*
X168062792Y-115958374D01*
X168035191Y-115951881D01*
X168026983Y-115949339D01*
X168000550Y-115939100D01*
X168000549Y-115939100D01*
X167995226Y-115939100D01*
X167966836Y-115935806D01*
X167961657Y-115934588D01*
X167933575Y-115938505D01*
X167925002Y-115939100D01*
X155933543Y-115939100D01*
X155924968Y-115938505D01*
X155914160Y-115936997D01*
X155914159Y-115936997D01*
X155905945Y-115937376D01*
X155870101Y-115939034D01*
X155867238Y-115939100D01*
X155849347Y-115939100D01*
X155847220Y-115939497D01*
X155838697Y-115940485D01*
X155810377Y-115941794D01*
X155810370Y-115941796D01*
X155805500Y-115943947D01*
X155778206Y-115952398D01*
X155772973Y-115953376D01*
X155772971Y-115953376D01*
X155748861Y-115968304D01*
X155741261Y-115972310D01*
X155715329Y-115983761D01*
X155715327Y-115983762D01*
X155711563Y-115987527D01*
X155689166Y-116005267D01*
X155684636Y-116008071D01*
X155667545Y-116030702D01*
X155661903Y-116037185D01*
X155440436Y-116258654D01*
X155249209Y-116449881D01*
X155187886Y-116483366D01*
X155161528Y-116486200D01*
X154985050Y-116486200D01*
X154918011Y-116466515D01*
X154872256Y-116413711D01*
X154862312Y-116344553D01*
X154880056Y-116296229D01*
X154953392Y-116179513D01*
X154953391Y-116179513D01*
X154953394Y-116179510D01*
X155013926Y-116006521D01*
X155014068Y-116005267D01*
X155024023Y-115916905D01*
X155029300Y-115870072D01*
X155029300Y-114457928D01*
X155013926Y-114321479D01*
X154953394Y-114148490D01*
X154873046Y-114020616D01*
X154854047Y-113953381D01*
X154874415Y-113886546D01*
X154927683Y-113841332D01*
X154927950Y-113841214D01*
X154932725Y-113839105D01*
X154932727Y-113839105D01*
X154937594Y-113836955D01*
X154964903Y-113828499D01*
X154970128Y-113827523D01*
X154994236Y-113812594D01*
X155001828Y-113808592D01*
X155027771Y-113797138D01*
X155031531Y-113793377D01*
X155053939Y-113775628D01*
X155058463Y-113772828D01*
X155075560Y-113750186D01*
X155081182Y-113743725D01*
X157495326Y-111329582D01*
X157556647Y-111296099D01*
X157626339Y-111301083D01*
X157682272Y-111342955D01*
X157683323Y-111344380D01*
X157812499Y-111522176D01*
X157812500Y-111522178D01*
X157975542Y-111678062D01*
X158163791Y-111802324D01*
X158371195Y-111890972D01*
X158371212Y-111890978D01*
X158591110Y-111941167D01*
X158816443Y-111951287D01*
X159039973Y-111921008D01*
X159254495Y-111851306D01*
X159453122Y-111744420D01*
X159453125Y-111744418D01*
X159629475Y-111603784D01*
X159777885Y-111433916D01*
X159823692Y-111357245D01*
X158891746Y-110425299D01*
X158902061Y-110423817D01*
X159032614Y-110364195D01*
X159141081Y-110270208D01*
X159218675Y-110149470D01*
X159242359Y-110068807D01*
X160008132Y-110834580D01*
X160008134Y-110834580D01*
X160013110Y-110807164D01*
X160013110Y-109129347D01*
X160005768Y-109047783D01*
X159242359Y-109811192D01*
X159218675Y-109730530D01*
X159141081Y-109609792D01*
X159032614Y-109515805D01*
X158902061Y-109456183D01*
X158891746Y-109454700D01*
X159825797Y-108520648D01*
X159826221Y-108515270D01*
X159851106Y-108449981D01*
X159907338Y-108408511D01*
X159949839Y-108401000D01*
X160508809Y-108401000D01*
X160575848Y-108420685D01*
G37*
%TD.AperFunction*%
%TA.AperFunction,Conductor*%
G36*
X152463408Y-102244385D02*
G01*
X152509163Y-102297189D01*
X152513515Y-102312562D01*
X153449253Y-103248300D01*
X153438939Y-103249783D01*
X153308386Y-103309405D01*
X153199919Y-103403392D01*
X153122325Y-103524130D01*
X153098640Y-103604793D01*
X152332864Y-102839017D01*
X152327890Y-102866435D01*
X152327890Y-104544256D01*
X152335230Y-104625816D01*
X153098640Y-103862406D01*
X153122325Y-103943070D01*
X153199919Y-104063808D01*
X153308386Y-104157795D01*
X153438939Y-104217417D01*
X153449252Y-104218899D01*
X152515201Y-105152950D01*
X152515201Y-105152952D01*
X152633499Y-105315776D01*
X152633500Y-105315778D01*
X152796542Y-105471662D01*
X152984791Y-105595924D01*
X153192195Y-105684572D01*
X153192212Y-105684578D01*
X153412110Y-105734767D01*
X153637443Y-105744887D01*
X153860973Y-105714608D01*
X154075495Y-105644906D01*
X154274122Y-105538020D01*
X154274125Y-105538018D01*
X154450475Y-105397384D01*
X154598885Y-105227516D01*
X154644692Y-105150845D01*
X153712746Y-104218899D01*
X153723061Y-104217417D01*
X153853614Y-104157795D01*
X153962081Y-104063808D01*
X154039675Y-103943070D01*
X154063359Y-103862407D01*
X154829132Y-104628180D01*
X154829134Y-104628180D01*
X154834110Y-104600764D01*
X154834110Y-102922947D01*
X154826768Y-102841383D01*
X154063359Y-103604792D01*
X154039675Y-103524130D01*
X153962081Y-103403392D01*
X153853614Y-103309405D01*
X153723061Y-103249783D01*
X153712747Y-103248300D01*
X154658880Y-102302165D01*
X154669738Y-102273680D01*
X154725970Y-102232211D01*
X154768470Y-102224700D01*
X155302706Y-102224700D01*
X155369745Y-102244385D01*
X155415500Y-102297189D01*
X155425444Y-102366347D01*
X155396419Y-102429903D01*
X155394857Y-102431671D01*
X155383988Y-102443741D01*
X155383983Y-102443748D01*
X155288758Y-102608684D01*
X155229907Y-102789810D01*
X155229907Y-102789812D01*
X155214990Y-102931735D01*
X155214990Y-104535465D01*
X155225887Y-104639141D01*
X155229907Y-104677389D01*
X155288758Y-104858515D01*
X155383983Y-105023451D01*
X155383988Y-105023458D01*
X155511420Y-105164985D01*
X155511422Y-105164987D01*
X155665497Y-105276929D01*
X155665498Y-105276930D01*
X155712376Y-105297801D01*
X155839485Y-105354393D01*
X156025774Y-105393990D01*
X156025776Y-105393990D01*
X156025818Y-105393999D01*
X156087300Y-105427191D01*
X156121076Y-105488354D01*
X156116424Y-105558069D01*
X156087718Y-105602970D01*
X155264909Y-106425781D01*
X155203586Y-106459266D01*
X155177228Y-106462100D01*
X150071646Y-106462100D01*
X150063071Y-106461505D01*
X150052261Y-106459997D01*
X150052259Y-106459997D01*
X150033292Y-106460873D01*
X150008194Y-106462034D01*
X150005331Y-106462100D01*
X149987437Y-106462100D01*
X149985318Y-106462496D01*
X149976795Y-106463484D01*
X149948477Y-106464794D01*
X149948472Y-106464795D01*
X149943596Y-106466948D01*
X149916312Y-106475397D01*
X149911072Y-106476376D01*
X149911071Y-106476377D01*
X149886962Y-106491303D01*
X149879364Y-106495308D01*
X149853429Y-106506760D01*
X149849663Y-106510527D01*
X149827266Y-106528267D01*
X149822736Y-106531071D01*
X149805645Y-106553702D01*
X149800004Y-106560185D01*
X148444821Y-107915368D01*
X148438341Y-107921007D01*
X148429628Y-107927587D01*
X148399904Y-107960191D01*
X148397930Y-107962258D01*
X148385282Y-107974908D01*
X148385279Y-107974910D01*
X148384055Y-107976698D01*
X148378729Y-107983419D01*
X148359631Y-108004370D01*
X148357705Y-108009342D01*
X148344391Y-108034602D01*
X148341376Y-108039004D01*
X148341374Y-108039008D01*
X148334882Y-108066606D01*
X148332341Y-108074813D01*
X148322100Y-108101250D01*
X148322100Y-108106572D01*
X148318807Y-108134957D01*
X148317588Y-108140137D01*
X148317588Y-108140143D01*
X148321505Y-108168221D01*
X148322100Y-108176797D01*
X148322100Y-108237070D01*
X148302415Y-108304109D01*
X148249611Y-108349864D01*
X148248536Y-108350350D01*
X148144500Y-108396669D01*
X147990421Y-108508613D01*
X147862988Y-108650141D01*
X147862983Y-108650148D01*
X147767758Y-108815084D01*
X147708907Y-108996210D01*
X147706788Y-109016369D01*
X147693990Y-109138135D01*
X147693990Y-110741865D01*
X147706420Y-110860134D01*
X147708907Y-110883789D01*
X147767757Y-111064913D01*
X147767759Y-111064917D01*
X147773559Y-111074963D01*
X147862983Y-111229851D01*
X147862988Y-111229858D01*
X147990420Y-111371385D01*
X147990422Y-111371387D01*
X148144497Y-111483329D01*
X148144498Y-111483330D01*
X148202494Y-111509151D01*
X148318485Y-111560793D01*
X148504774Y-111600390D01*
X148695226Y-111600390D01*
X148881515Y-111560793D01*
X149055500Y-111483330D01*
X149209579Y-111371386D01*
X149326142Y-111241929D01*
X149337011Y-111229858D01*
X149337016Y-111229851D01*
X149365835Y-111179935D01*
X149432241Y-111064917D01*
X149491093Y-110883788D01*
X149506010Y-110741865D01*
X149506010Y-109138135D01*
X149491093Y-108996212D01*
X149432241Y-108815083D01*
X149371171Y-108709306D01*
X149337016Y-108650148D01*
X149337011Y-108650141D01*
X149209579Y-108508614D01*
X149209577Y-108508612D01*
X149055502Y-108396670D01*
X149055496Y-108396667D01*
X149008618Y-108375795D01*
X148955381Y-108330545D01*
X148935060Y-108263696D01*
X148954106Y-108196472D01*
X148971368Y-108174840D01*
X150091991Y-107054219D01*
X150153314Y-107020734D01*
X150179672Y-107017900D01*
X155285257Y-107017900D01*
X155293833Y-107018495D01*
X155304636Y-107020001D01*
X155304641Y-107020003D01*
X155344092Y-107018179D01*
X155348706Y-107017966D01*
X155351569Y-107017900D01*
X155369445Y-107017900D01*
X155369453Y-107017900D01*
X155371564Y-107017505D01*
X155380089Y-107016514D01*
X155408427Y-107015205D01*
X155413287Y-107013058D01*
X155440603Y-107004599D01*
X155445828Y-107003623D01*
X155469936Y-106988694D01*
X155477528Y-106984692D01*
X155503471Y-106973238D01*
X155507231Y-106969477D01*
X155529639Y-106951728D01*
X155534163Y-106948928D01*
X155551260Y-106926286D01*
X155556882Y-106919825D01*
X157546184Y-104930524D01*
X157552666Y-104924884D01*
X157561369Y-104918312D01*
X157561373Y-104918311D01*
X157591115Y-104885684D01*
X157593022Y-104883686D01*
X157605715Y-104870995D01*
X157606933Y-104869215D01*
X157612258Y-104862490D01*
X157631368Y-104841530D01*
X157631368Y-104841528D01*
X157631978Y-104840860D01*
X157691690Y-104804579D01*
X157761537Y-104806340D01*
X157819344Y-104845585D01*
X157830996Y-104862392D01*
X157853141Y-104900748D01*
X157923983Y-105023451D01*
X157923988Y-105023458D01*
X158051420Y-105164985D01*
X158051422Y-105164987D01*
X158205497Y-105276929D01*
X158205498Y-105276930D01*
X158252376Y-105297801D01*
X158379485Y-105354393D01*
X158565774Y-105393990D01*
X158756226Y-105393990D01*
X158942515Y-105354393D01*
X159116500Y-105276930D01*
X159270579Y-105164986D01*
X159387142Y-105035529D01*
X159398011Y-105023458D01*
X159398016Y-105023451D01*
X159493241Y-104858517D01*
X159552093Y-104677388D01*
X159567010Y-104535465D01*
X159567010Y-103271961D01*
X159586695Y-103204922D01*
X159603329Y-103184280D01*
X160052566Y-102735043D01*
X160098961Y-102688648D01*
X160160283Y-102655164D01*
X160229975Y-102660148D01*
X160285908Y-102702020D01*
X160310325Y-102767484D01*
X160309962Y-102789292D01*
X160309907Y-102789810D01*
X160309907Y-102789812D01*
X160294990Y-102931735D01*
X160294990Y-104535465D01*
X160305887Y-104639141D01*
X160309907Y-104677389D01*
X160368758Y-104858515D01*
X160463983Y-105023451D01*
X160463988Y-105023458D01*
X160591420Y-105164985D01*
X160591422Y-105164987D01*
X160745497Y-105276929D01*
X160745498Y-105276930D01*
X160792376Y-105297801D01*
X160919485Y-105354393D01*
X161105774Y-105393990D01*
X161296226Y-105393990D01*
X161482515Y-105354393D01*
X161656500Y-105276930D01*
X161810579Y-105164986D01*
X161927142Y-105035529D01*
X161938011Y-105023458D01*
X161938016Y-105023451D01*
X162033241Y-104858517D01*
X162092093Y-104677388D01*
X162107010Y-104535465D01*
X162107010Y-102931735D01*
X162092093Y-102789812D01*
X162033241Y-102608683D01*
X161952558Y-102468936D01*
X161938016Y-102443748D01*
X161938011Y-102443741D01*
X161927143Y-102431671D01*
X161896914Y-102368679D01*
X161905540Y-102299344D01*
X161950282Y-102245679D01*
X162016935Y-102224722D01*
X162019294Y-102224700D01*
X162922706Y-102224700D01*
X162989745Y-102244385D01*
X163035500Y-102297189D01*
X163045444Y-102366347D01*
X163016419Y-102429903D01*
X163014857Y-102431671D01*
X163003988Y-102443741D01*
X163003983Y-102443748D01*
X162908758Y-102608684D01*
X162849907Y-102789810D01*
X162849907Y-102789812D01*
X162834990Y-102931735D01*
X162834990Y-104535465D01*
X162845887Y-104639141D01*
X162849907Y-104677389D01*
X162908758Y-104858515D01*
X163003983Y-105023451D01*
X163003988Y-105023458D01*
X163131420Y-105164985D01*
X163131422Y-105164987D01*
X163285497Y-105276929D01*
X163285498Y-105276930D01*
X163332376Y-105297801D01*
X163459485Y-105354393D01*
X163645774Y-105393990D01*
X163836226Y-105393990D01*
X164022515Y-105354393D01*
X164196500Y-105276930D01*
X164350579Y-105164986D01*
X164467142Y-105035529D01*
X164478011Y-105023458D01*
X164478016Y-105023451D01*
X164573241Y-104858517D01*
X164632093Y-104677388D01*
X164647010Y-104535465D01*
X164647010Y-102931735D01*
X164632093Y-102789812D01*
X164573241Y-102608683D01*
X164492558Y-102468936D01*
X164478016Y-102443748D01*
X164478011Y-102443741D01*
X164467143Y-102431671D01*
X164436914Y-102368679D01*
X164445540Y-102299344D01*
X164490282Y-102245679D01*
X164556935Y-102224722D01*
X164559294Y-102224700D01*
X165462706Y-102224700D01*
X165529745Y-102244385D01*
X165575500Y-102297189D01*
X165585444Y-102366347D01*
X165556419Y-102429903D01*
X165554857Y-102431671D01*
X165543988Y-102443741D01*
X165543983Y-102443748D01*
X165448758Y-102608684D01*
X165389907Y-102789810D01*
X165389907Y-102789812D01*
X165374990Y-102931735D01*
X165374990Y-104535465D01*
X165385887Y-104639141D01*
X165389907Y-104677389D01*
X165448758Y-104858515D01*
X165543983Y-105023451D01*
X165543988Y-105023458D01*
X165671420Y-105164985D01*
X165671422Y-105164987D01*
X165825497Y-105276929D01*
X165825498Y-105276929D01*
X165825499Y-105276930D01*
X165872379Y-105297802D01*
X165925616Y-105343051D01*
X165945939Y-105409899D01*
X165926895Y-105477124D01*
X165909626Y-105498763D01*
X164599009Y-106809381D01*
X164537686Y-106842866D01*
X164511328Y-106845700D01*
X157872646Y-106845700D01*
X157864071Y-106845105D01*
X157853261Y-106843597D01*
X157853259Y-106843597D01*
X157834292Y-106844473D01*
X157809194Y-106845634D01*
X157806331Y-106845700D01*
X157788437Y-106845700D01*
X157786318Y-106846096D01*
X157777795Y-106847084D01*
X157749477Y-106848394D01*
X157749472Y-106848395D01*
X157744596Y-106850548D01*
X157717312Y-106858997D01*
X157712072Y-106859976D01*
X157712071Y-106859977D01*
X157687962Y-106874903D01*
X157680364Y-106878908D01*
X157654429Y-106890360D01*
X157650663Y-106894127D01*
X157628266Y-106911867D01*
X157623736Y-106914671D01*
X157606645Y-106937302D01*
X157601004Y-106943785D01*
X157110109Y-107434681D01*
X157048786Y-107468166D01*
X157022428Y-107471000D01*
X154142746Y-107471000D01*
X154134171Y-107470405D01*
X154123361Y-107468897D01*
X154123359Y-107468897D01*
X154104392Y-107469773D01*
X154079294Y-107470934D01*
X154076431Y-107471000D01*
X154058537Y-107471000D01*
X154056418Y-107471396D01*
X154047895Y-107472384D01*
X154019577Y-107473694D01*
X154019572Y-107473695D01*
X154014696Y-107475848D01*
X153987412Y-107484297D01*
X153982172Y-107485276D01*
X153982171Y-107485277D01*
X153958062Y-107500203D01*
X153950464Y-107504208D01*
X153924529Y-107515660D01*
X153920763Y-107519427D01*
X153898366Y-107537167D01*
X153893836Y-107539971D01*
X153876745Y-107562602D01*
X153871104Y-107569085D01*
X153524821Y-107915368D01*
X153518341Y-107921007D01*
X153509628Y-107927587D01*
X153479904Y-107960191D01*
X153477930Y-107962258D01*
X153465282Y-107974908D01*
X153465279Y-107974910D01*
X153464055Y-107976698D01*
X153458729Y-107983419D01*
X153439631Y-108004370D01*
X153437705Y-108009342D01*
X153424391Y-108034602D01*
X153421376Y-108039004D01*
X153421374Y-108039008D01*
X153414882Y-108066606D01*
X153412341Y-108074813D01*
X153402100Y-108101250D01*
X153402100Y-108106572D01*
X153398807Y-108134957D01*
X153397588Y-108140137D01*
X153397588Y-108140143D01*
X153401505Y-108168221D01*
X153402100Y-108176797D01*
X153402100Y-108237070D01*
X153382415Y-108304109D01*
X153329611Y-108349864D01*
X153328536Y-108350350D01*
X153224500Y-108396669D01*
X153070421Y-108508613D01*
X152942988Y-108650141D01*
X152942983Y-108650148D01*
X152847758Y-108815084D01*
X152788907Y-108996210D01*
X152786788Y-109016369D01*
X152773990Y-109138135D01*
X152773990Y-110741865D01*
X152786420Y-110860134D01*
X152788907Y-110883789D01*
X152847757Y-111064913D01*
X152847759Y-111064917D01*
X152853559Y-111074963D01*
X152942983Y-111229851D01*
X152942988Y-111229858D01*
X152953857Y-111241929D01*
X152984086Y-111304921D01*
X152975460Y-111374256D01*
X152930718Y-111427921D01*
X152864065Y-111448878D01*
X152861706Y-111448900D01*
X151958294Y-111448900D01*
X151891255Y-111429215D01*
X151845500Y-111376411D01*
X151835556Y-111307253D01*
X151864581Y-111243697D01*
X151866143Y-111241929D01*
X151877011Y-111229858D01*
X151877016Y-111229851D01*
X151905835Y-111179935D01*
X151972241Y-111064917D01*
X152031093Y-110883788D01*
X152046010Y-110741865D01*
X152046010Y-109138135D01*
X152031093Y-108996212D01*
X151972241Y-108815083D01*
X151911171Y-108709306D01*
X151877016Y-108650148D01*
X151877011Y-108650141D01*
X151749579Y-108508614D01*
X151749577Y-108508612D01*
X151595502Y-108396670D01*
X151595501Y-108396669D01*
X151465238Y-108338673D01*
X151421515Y-108319207D01*
X151421513Y-108319206D01*
X151235226Y-108279610D01*
X151044774Y-108279610D01*
X150858485Y-108319206D01*
X150684502Y-108396668D01*
X150530421Y-108508613D01*
X150402988Y-108650141D01*
X150402983Y-108650148D01*
X150307758Y-108815084D01*
X150248907Y-108996210D01*
X150246788Y-109016369D01*
X150233990Y-109138135D01*
X150233990Y-110741865D01*
X150246420Y-110860134D01*
X150248907Y-110883789D01*
X150307757Y-111064913D01*
X150307759Y-111064917D01*
X150313559Y-111074963D01*
X150402983Y-111229851D01*
X150402988Y-111229858D01*
X150530420Y-111371385D01*
X150530422Y-111371387D01*
X150684497Y-111483329D01*
X150684501Y-111483331D01*
X150788534Y-111529649D01*
X150841772Y-111574899D01*
X150862094Y-111641747D01*
X150862100Y-111642929D01*
X150862100Y-111670735D01*
X150859515Y-111689268D01*
X150859552Y-111689272D01*
X150858491Y-111700713D01*
X150861835Y-111736795D01*
X150862100Y-111742518D01*
X150862100Y-111752557D01*
X150863943Y-111762415D01*
X150864735Y-111768089D01*
X150868077Y-111804165D01*
X150871222Y-111815217D01*
X150871186Y-111815226D01*
X150872193Y-111818229D01*
X150872227Y-111818216D01*
X150876378Y-111828931D01*
X150895450Y-111859734D01*
X150898238Y-111864739D01*
X150914387Y-111897171D01*
X150921313Y-111906342D01*
X150921283Y-111906363D01*
X150923302Y-111908794D01*
X150923330Y-111908770D01*
X150931070Y-111917259D01*
X150931072Y-111917263D01*
X150959993Y-111939103D01*
X150964389Y-111942754D01*
X150991170Y-111967168D01*
X150991172Y-111967169D01*
X151000940Y-111973217D01*
X151000919Y-111973249D01*
X151003681Y-111974788D01*
X151003699Y-111974754D01*
X151013981Y-111979874D01*
X151013983Y-111979874D01*
X151013984Y-111979875D01*
X151048845Y-111989793D01*
X151054259Y-111991608D01*
X151088051Y-112004700D01*
X151088052Y-112004700D01*
X151099347Y-112006812D01*
X151099340Y-112006848D01*
X151102468Y-112007284D01*
X151102472Y-112007248D01*
X151113913Y-112008308D01*
X151113913Y-112008307D01*
X151113914Y-112008308D01*
X151121255Y-112007627D01*
X151149996Y-112004965D01*
X151155719Y-112004700D01*
X154060457Y-112004700D01*
X154069033Y-112005295D01*
X154079836Y-112006801D01*
X154079841Y-112006803D01*
X154119599Y-112004965D01*
X154123906Y-112004766D01*
X154126769Y-112004700D01*
X154144645Y-112004700D01*
X154144653Y-112004700D01*
X154146764Y-112004305D01*
X154155289Y-112003314D01*
X154183627Y-112002005D01*
X154188487Y-111999858D01*
X154215803Y-111991399D01*
X154221028Y-111990423D01*
X154245136Y-111975494D01*
X154252728Y-111971492D01*
X154278671Y-111960038D01*
X154282431Y-111956277D01*
X154304839Y-111938528D01*
X154309363Y-111935728D01*
X154326458Y-111913090D01*
X154332085Y-111906623D01*
X155105184Y-111133524D01*
X155111666Y-111127884D01*
X155120369Y-111121312D01*
X155120373Y-111121311D01*
X155150115Y-111088684D01*
X155152022Y-111086686D01*
X155164715Y-111073995D01*
X155165927Y-111072224D01*
X155171260Y-111065489D01*
X155189779Y-111045175D01*
X155249490Y-111008897D01*
X155319337Y-111010660D01*
X155377143Y-111049905D01*
X155388797Y-111066716D01*
X155393559Y-111074963D01*
X155482983Y-111229851D01*
X155482988Y-111229858D01*
X155610420Y-111371385D01*
X155610422Y-111371387D01*
X155764497Y-111483329D01*
X155764498Y-111483330D01*
X155822494Y-111509151D01*
X155938485Y-111560793D01*
X156124774Y-111600390D01*
X156139137Y-111600390D01*
X156206176Y-111620075D01*
X156251931Y-111672879D01*
X156261875Y-111742037D01*
X156232850Y-111805593D01*
X156226818Y-111812071D01*
X154789209Y-113249681D01*
X154727886Y-113283166D01*
X154701528Y-113286000D01*
X154272065Y-113286000D01*
X154253531Y-113283415D01*
X154253528Y-113283452D01*
X154242086Y-113282391D01*
X154206004Y-113285735D01*
X154200281Y-113286000D01*
X154190241Y-113286000D01*
X154180384Y-113287843D01*
X154174714Y-113288634D01*
X154138631Y-113291978D01*
X154127584Y-113295121D01*
X154127574Y-113295088D01*
X154124569Y-113296095D01*
X154124582Y-113296128D01*
X154113870Y-113300277D01*
X154083069Y-113319348D01*
X154078066Y-113322135D01*
X154045628Y-113338287D01*
X154036462Y-113345210D01*
X154036440Y-113345181D01*
X154034002Y-113347206D01*
X154034026Y-113347233D01*
X154025534Y-113354974D01*
X154003706Y-113383879D01*
X154000048Y-113388284D01*
X153975633Y-113415067D01*
X153969586Y-113424835D01*
X153969555Y-113424816D01*
X153968014Y-113427582D01*
X153968047Y-113427599D01*
X153962924Y-113437885D01*
X153953005Y-113472742D01*
X153951186Y-113478170D01*
X153938099Y-113511951D01*
X153935989Y-113523244D01*
X153935951Y-113523237D01*
X153935515Y-113526368D01*
X153935552Y-113526372D01*
X153934491Y-113537813D01*
X153937835Y-113573895D01*
X153938100Y-113579618D01*
X153938100Y-113651206D01*
X153918415Y-113718245D01*
X153866978Y-113762815D01*
X153867158Y-113763188D01*
X153865785Y-113763848D01*
X153865611Y-113764000D01*
X153864757Y-113764343D01*
X153860887Y-113766207D01*
X153705706Y-113863713D01*
X153576113Y-113993306D01*
X153478605Y-114148491D01*
X153478604Y-114148493D01*
X153418072Y-114321484D01*
X153402700Y-114457921D01*
X153402700Y-115870078D01*
X153418072Y-116006515D01*
X153478604Y-116179506D01*
X153478607Y-116179513D01*
X153551944Y-116296229D01*
X153570944Y-116363466D01*
X153550576Y-116430301D01*
X153497308Y-116475514D01*
X153446950Y-116486200D01*
X152445050Y-116486200D01*
X152378011Y-116466515D01*
X152332256Y-116413711D01*
X152322312Y-116344553D01*
X152340056Y-116296229D01*
X152413392Y-116179513D01*
X152413391Y-116179513D01*
X152413394Y-116179510D01*
X152473926Y-116006521D01*
X152474068Y-116005267D01*
X152484023Y-115916905D01*
X152489300Y-115870072D01*
X152489300Y-114457928D01*
X152473926Y-114321479D01*
X152413394Y-114148490D01*
X152315887Y-113993307D01*
X152186293Y-113863713D01*
X152151418Y-113841800D01*
X152031112Y-113766207D01*
X152024842Y-113763188D01*
X152026129Y-113760514D01*
X151980099Y-113727436D01*
X151954412Y-113662460D01*
X151953900Y-113651206D01*
X151953900Y-113619965D01*
X151956485Y-113601434D01*
X151956448Y-113601431D01*
X151957508Y-113589987D01*
X151954165Y-113553903D01*
X151953900Y-113548180D01*
X151953900Y-113538152D01*
X151953900Y-113538147D01*
X151952050Y-113528254D01*
X151951267Y-113522641D01*
X151947922Y-113486532D01*
X151947920Y-113486527D01*
X151944777Y-113475477D01*
X151944813Y-113475466D01*
X151943808Y-113472468D01*
X151943772Y-113472482D01*
X151939624Y-113461773D01*
X151924832Y-113437885D01*
X151920542Y-113430956D01*
X151917772Y-113425984D01*
X151901611Y-113393527D01*
X151901607Y-113393524D01*
X151894687Y-113384359D01*
X151894716Y-113384336D01*
X151892696Y-113381903D01*
X151892669Y-113381929D01*
X151884928Y-113373437D01*
X151860476Y-113354972D01*
X151856006Y-113351596D01*
X151851604Y-113347940D01*
X151850828Y-113347233D01*
X151841016Y-113338287D01*
X151824830Y-113323531D01*
X151815061Y-113317483D01*
X151815080Y-113317450D01*
X151812319Y-113315912D01*
X151812303Y-113315947D01*
X151802020Y-113310826D01*
X151767164Y-113300908D01*
X151761738Y-113299089D01*
X151743034Y-113291844D01*
X151727947Y-113285999D01*
X151716652Y-113283888D01*
X151716658Y-113283851D01*
X151713531Y-113283415D01*
X151713528Y-113283452D01*
X151702086Y-113282391D01*
X151666004Y-113285735D01*
X151660281Y-113286000D01*
X137437472Y-113286000D01*
X137370433Y-113266315D01*
X137349791Y-113249681D01*
X135912181Y-111812071D01*
X135878696Y-111750748D01*
X135883680Y-111681056D01*
X135925552Y-111625123D01*
X135988807Y-111601529D01*
X135988759Y-111601070D01*
X135990542Y-111600882D01*
X135991016Y-111600706D01*
X135992841Y-111600640D01*
X135995225Y-111600390D01*
X135995226Y-111600390D01*
X136181515Y-111560793D01*
X136355500Y-111483330D01*
X136509579Y-111371386D01*
X136626142Y-111241929D01*
X136637011Y-111229858D01*
X136637016Y-111229851D01*
X136665835Y-111179935D01*
X136732241Y-111064917D01*
X136791093Y-110883788D01*
X136806010Y-110741865D01*
X137533990Y-110741865D01*
X137546420Y-110860134D01*
X137548907Y-110883789D01*
X137607757Y-111064913D01*
X137607759Y-111064917D01*
X137613559Y-111074963D01*
X137702983Y-111229851D01*
X137702988Y-111229858D01*
X137830420Y-111371385D01*
X137830422Y-111371387D01*
X137984497Y-111483329D01*
X137984498Y-111483330D01*
X138042494Y-111509151D01*
X138158485Y-111560793D01*
X138344774Y-111600390D01*
X138535226Y-111600390D01*
X138721515Y-111560793D01*
X138895500Y-111483330D01*
X139049579Y-111371386D01*
X139166142Y-111241929D01*
X139177011Y-111229858D01*
X139177016Y-111229851D01*
X139205835Y-111179935D01*
X139272241Y-111064917D01*
X139331093Y-110883788D01*
X139346010Y-110741865D01*
X140073990Y-110741865D01*
X140086420Y-110860134D01*
X140088907Y-110883789D01*
X140147757Y-111064913D01*
X140147759Y-111064917D01*
X140153559Y-111074963D01*
X140242983Y-111229851D01*
X140242988Y-111229858D01*
X140370420Y-111371385D01*
X140370422Y-111371387D01*
X140524497Y-111483329D01*
X140524498Y-111483330D01*
X140582494Y-111509151D01*
X140698485Y-111560793D01*
X140884774Y-111600390D01*
X141075226Y-111600390D01*
X141261515Y-111560793D01*
X141435500Y-111483330D01*
X141589579Y-111371386D01*
X141706142Y-111241929D01*
X141717011Y-111229858D01*
X141717016Y-111229851D01*
X141745835Y-111179935D01*
X141812241Y-111064917D01*
X141871093Y-110883788D01*
X141886010Y-110741865D01*
X142613990Y-110741865D01*
X142626420Y-110860134D01*
X142628907Y-110883789D01*
X142687757Y-111064913D01*
X142687759Y-111064917D01*
X142693559Y-111074963D01*
X142782983Y-111229851D01*
X142782988Y-111229858D01*
X142910420Y-111371385D01*
X142910422Y-111371387D01*
X143064497Y-111483329D01*
X143064498Y-111483330D01*
X143122494Y-111509151D01*
X143238485Y-111560793D01*
X143424774Y-111600390D01*
X143615226Y-111600390D01*
X143801515Y-111560793D01*
X143975500Y-111483330D01*
X144129579Y-111371386D01*
X144246142Y-111241929D01*
X144257011Y-111229858D01*
X144257016Y-111229851D01*
X144285835Y-111179935D01*
X144352241Y-111064917D01*
X144411093Y-110883788D01*
X144426010Y-110741865D01*
X145153990Y-110741865D01*
X145166420Y-110860134D01*
X145168907Y-110883789D01*
X145227757Y-111064913D01*
X145227759Y-111064917D01*
X145233559Y-111074963D01*
X145322983Y-111229851D01*
X145322988Y-111229858D01*
X145450420Y-111371385D01*
X145450422Y-111371387D01*
X145604497Y-111483329D01*
X145604498Y-111483330D01*
X145662494Y-111509151D01*
X145778485Y-111560793D01*
X145964774Y-111600390D01*
X146155226Y-111600390D01*
X146341515Y-111560793D01*
X146515500Y-111483330D01*
X146669579Y-111371386D01*
X146786142Y-111241929D01*
X146797011Y-111229858D01*
X146797016Y-111229851D01*
X146825835Y-111179935D01*
X146892241Y-111064917D01*
X146951093Y-110883788D01*
X146966010Y-110741865D01*
X146966010Y-109138135D01*
X146951093Y-108996212D01*
X146892241Y-108815083D01*
X146831171Y-108709306D01*
X146797016Y-108650148D01*
X146797011Y-108650141D01*
X146669579Y-108508614D01*
X146669577Y-108508612D01*
X146515502Y-108396670D01*
X146515501Y-108396669D01*
X146385238Y-108338673D01*
X146341515Y-108319207D01*
X146341513Y-108319206D01*
X146155226Y-108279610D01*
X145964774Y-108279610D01*
X145778485Y-108319206D01*
X145604502Y-108396668D01*
X145450421Y-108508613D01*
X145322988Y-108650141D01*
X145322983Y-108650148D01*
X145227758Y-108815084D01*
X145168907Y-108996210D01*
X145166788Y-109016369D01*
X145153990Y-109138135D01*
X145153990Y-110741865D01*
X144426010Y-110741865D01*
X144426010Y-109138135D01*
X144411093Y-108996212D01*
X144352241Y-108815083D01*
X144291171Y-108709306D01*
X144257016Y-108650148D01*
X144257011Y-108650141D01*
X144129579Y-108508614D01*
X144129577Y-108508612D01*
X143975502Y-108396670D01*
X143975501Y-108396669D01*
X143845238Y-108338673D01*
X143801515Y-108319207D01*
X143801513Y-108319206D01*
X143615226Y-108279610D01*
X143424774Y-108279610D01*
X143238485Y-108319206D01*
X143064502Y-108396668D01*
X142910421Y-108508613D01*
X142782988Y-108650141D01*
X142782983Y-108650148D01*
X142687758Y-108815084D01*
X142628907Y-108996210D01*
X142626788Y-109016369D01*
X142613990Y-109138135D01*
X142613990Y-110741865D01*
X141886010Y-110741865D01*
X141886010Y-109138135D01*
X141871093Y-108996212D01*
X141812241Y-108815083D01*
X141751171Y-108709306D01*
X141717016Y-108650148D01*
X141717011Y-108650141D01*
X141589579Y-108508614D01*
X141589577Y-108508612D01*
X141435502Y-108396670D01*
X141435501Y-108396669D01*
X141305238Y-108338673D01*
X141261515Y-108319207D01*
X141261513Y-108319206D01*
X141075226Y-108279610D01*
X140884774Y-108279610D01*
X140698485Y-108319206D01*
X140524502Y-108396668D01*
X140370421Y-108508613D01*
X140242988Y-108650141D01*
X140242983Y-108650148D01*
X140147758Y-108815084D01*
X140088907Y-108996210D01*
X140086788Y-109016369D01*
X140073990Y-109138135D01*
X140073990Y-110741865D01*
X139346010Y-110741865D01*
X139346010Y-109138135D01*
X139331093Y-108996212D01*
X139272241Y-108815083D01*
X139211171Y-108709306D01*
X139177016Y-108650148D01*
X139177011Y-108650141D01*
X139049579Y-108508614D01*
X139049577Y-108508612D01*
X138895502Y-108396670D01*
X138895501Y-108396669D01*
X138765238Y-108338673D01*
X138721515Y-108319207D01*
X138721513Y-108319206D01*
X138535226Y-108279610D01*
X138344774Y-108279610D01*
X138158485Y-108319206D01*
X137984502Y-108396668D01*
X137830421Y-108508613D01*
X137702988Y-108650141D01*
X137702983Y-108650148D01*
X137607758Y-108815084D01*
X137548907Y-108996210D01*
X137546788Y-109016369D01*
X137533990Y-109138135D01*
X137533990Y-110741865D01*
X136806010Y-110741865D01*
X136806010Y-109138135D01*
X136791093Y-108996212D01*
X136732241Y-108815083D01*
X136671171Y-108709306D01*
X136637016Y-108650148D01*
X136637011Y-108650141D01*
X136509579Y-108508614D01*
X136509577Y-108508612D01*
X136355502Y-108396670D01*
X136355496Y-108396667D01*
X136308618Y-108375795D01*
X136255381Y-108330545D01*
X136235060Y-108263696D01*
X136254106Y-108196472D01*
X136271368Y-108174840D01*
X138611591Y-105834619D01*
X138672914Y-105801134D01*
X138699272Y-105798300D01*
X150984935Y-105798300D01*
X151003468Y-105800884D01*
X151003472Y-105800848D01*
X151014913Y-105801908D01*
X151014913Y-105801907D01*
X151014914Y-105801908D01*
X151023267Y-105801134D01*
X151050996Y-105798565D01*
X151056719Y-105798300D01*
X151066750Y-105798300D01*
X151066753Y-105798300D01*
X151076633Y-105796452D01*
X151082266Y-105795666D01*
X151118368Y-105792322D01*
X151118370Y-105792320D01*
X151129424Y-105789177D01*
X151129434Y-105789214D01*
X151132425Y-105788211D01*
X151132411Y-105788175D01*
X151143122Y-105784024D01*
X151143128Y-105784023D01*
X151173942Y-105764942D01*
X151178932Y-105762163D01*
X151211373Y-105746011D01*
X151211374Y-105746010D01*
X151220543Y-105739086D01*
X151220566Y-105739117D01*
X151222997Y-105737098D01*
X151222971Y-105737069D01*
X151231459Y-105729330D01*
X151231463Y-105729328D01*
X151248826Y-105706335D01*
X151253296Y-105700416D01*
X151256950Y-105696013D01*
X151281368Y-105669230D01*
X151281369Y-105669227D01*
X151287417Y-105659459D01*
X151287451Y-105659480D01*
X151288988Y-105656720D01*
X151288953Y-105656703D01*
X151294074Y-105646418D01*
X151294505Y-105644906D01*
X151303992Y-105611559D01*
X151305812Y-105606131D01*
X151307102Y-105602802D01*
X151318900Y-105572349D01*
X151318900Y-105572347D01*
X151318901Y-105572345D01*
X151321012Y-105561054D01*
X151321049Y-105561060D01*
X151321485Y-105557934D01*
X151321448Y-105557931D01*
X151322508Y-105546487D01*
X151319165Y-105510403D01*
X151318900Y-105504680D01*
X151318900Y-105436529D01*
X151338585Y-105369490D01*
X151391389Y-105323735D01*
X151392418Y-105323269D01*
X151496500Y-105276930D01*
X151650579Y-105164986D01*
X151767142Y-105035529D01*
X151778011Y-105023458D01*
X151778016Y-105023451D01*
X151873241Y-104858517D01*
X151932093Y-104677388D01*
X151947010Y-104535465D01*
X151947010Y-102931735D01*
X151932093Y-102789812D01*
X151873241Y-102608683D01*
X151792558Y-102468936D01*
X151778016Y-102443748D01*
X151778011Y-102443741D01*
X151767143Y-102431671D01*
X151736914Y-102368679D01*
X151745540Y-102299344D01*
X151790282Y-102245679D01*
X151856935Y-102224722D01*
X151859294Y-102224700D01*
X152396369Y-102224700D01*
X152463408Y-102244385D01*
G37*
%TD.AperFunction*%
%TA.AperFunction,Conductor*%
G36*
X154836061Y-89866717D02*
G01*
X154845640Y-89875349D01*
X156884675Y-91914385D01*
X156890312Y-91920864D01*
X156896889Y-91929573D01*
X156929491Y-91959294D01*
X156931552Y-91961262D01*
X156944205Y-91973915D01*
X156944208Y-91973917D01*
X156945983Y-91975133D01*
X156952721Y-91980471D01*
X156961709Y-91988664D01*
X156973670Y-91999568D01*
X156973673Y-91999569D01*
X156978630Y-92001490D01*
X157003911Y-92014814D01*
X157008306Y-92017825D01*
X157035916Y-92024318D01*
X157044103Y-92026854D01*
X157070551Y-92037100D01*
X157075874Y-92037100D01*
X157104263Y-92040393D01*
X157109443Y-92041612D01*
X157137524Y-92037694D01*
X157146098Y-92037100D01*
X159725529Y-92037100D01*
X159792568Y-92056785D01*
X159813210Y-92073419D01*
X160928627Y-93188836D01*
X160962112Y-93250159D01*
X160957128Y-93319851D01*
X160915256Y-93375784D01*
X160891381Y-93389797D01*
X160844502Y-93410668D01*
X160690421Y-93522613D01*
X160562988Y-93664141D01*
X160562983Y-93664148D01*
X160467758Y-93829084D01*
X160408907Y-94010210D01*
X160407282Y-94025672D01*
X160393990Y-94152135D01*
X160393990Y-95755865D01*
X160403735Y-95848580D01*
X160408907Y-95897789D01*
X160459026Y-96052041D01*
X160467759Y-96078917D01*
X160472388Y-96086935D01*
X160562983Y-96243851D01*
X160562988Y-96243858D01*
X160573857Y-96255929D01*
X160604086Y-96318921D01*
X160595460Y-96388256D01*
X160550718Y-96441921D01*
X160484065Y-96462878D01*
X160481706Y-96462900D01*
X159944631Y-96462900D01*
X159877592Y-96443215D01*
X159831837Y-96390411D01*
X159827483Y-96375036D01*
X158891746Y-95439299D01*
X158902061Y-95437817D01*
X159032614Y-95378195D01*
X159141081Y-95284208D01*
X159218675Y-95163470D01*
X159242359Y-95082807D01*
X160008132Y-95848580D01*
X160008134Y-95848580D01*
X160013110Y-95821164D01*
X160013110Y-94143347D01*
X160005768Y-94061783D01*
X159242359Y-94825192D01*
X159218675Y-94744530D01*
X159141081Y-94623792D01*
X159032614Y-94529805D01*
X158902061Y-94470183D01*
X158891747Y-94468700D01*
X159825797Y-93534648D01*
X159825797Y-93534646D01*
X159707497Y-93371820D01*
X159707498Y-93371820D01*
X159544457Y-93215937D01*
X159356208Y-93091675D01*
X159148804Y-93003027D01*
X159148787Y-93003021D01*
X158928889Y-92952832D01*
X158703556Y-92942712D01*
X158480026Y-92972991D01*
X158265504Y-93042693D01*
X158066877Y-93149579D01*
X158066874Y-93149581D01*
X157890524Y-93290215D01*
X157742112Y-93460085D01*
X157696306Y-93536751D01*
X157696306Y-93536753D01*
X158628253Y-94468700D01*
X158617939Y-94470183D01*
X158487386Y-94529805D01*
X158378919Y-94623792D01*
X158301325Y-94744530D01*
X158277640Y-94825192D01*
X157511864Y-94059417D01*
X157506890Y-94086835D01*
X157506890Y-95764656D01*
X157514230Y-95846216D01*
X158277640Y-95082806D01*
X158301325Y-95163470D01*
X158378919Y-95284208D01*
X158487386Y-95378195D01*
X158617939Y-95437817D01*
X158628252Y-95439299D01*
X157682120Y-96385430D01*
X157671265Y-96413915D01*
X157615035Y-96455387D01*
X157572529Y-96462900D01*
X157038294Y-96462900D01*
X156971255Y-96443215D01*
X156925500Y-96390411D01*
X156915556Y-96321253D01*
X156944581Y-96257697D01*
X156946143Y-96255929D01*
X156957011Y-96243858D01*
X156957016Y-96243852D01*
X157052241Y-96078917D01*
X157111093Y-95897788D01*
X157126010Y-95755865D01*
X157126010Y-94152135D01*
X157111093Y-94010212D01*
X157052241Y-93829083D01*
X156984971Y-93712568D01*
X156957016Y-93664148D01*
X156957011Y-93664141D01*
X156829579Y-93522614D01*
X156829577Y-93522612D01*
X156675502Y-93410670D01*
X156675501Y-93410669D01*
X156571465Y-93364350D01*
X156518228Y-93319100D01*
X156497906Y-93252251D01*
X156497900Y-93251070D01*
X156497900Y-93223265D01*
X156500485Y-93204734D01*
X156500448Y-93204731D01*
X156501508Y-93193287D01*
X156498165Y-93157203D01*
X156497900Y-93151480D01*
X156497900Y-93141452D01*
X156497900Y-93141447D01*
X156496050Y-93131554D01*
X156495267Y-93125941D01*
X156491922Y-93089832D01*
X156491920Y-93089827D01*
X156488777Y-93078777D01*
X156488813Y-93078766D01*
X156487808Y-93075768D01*
X156487772Y-93075782D01*
X156483624Y-93065073D01*
X156468696Y-93040965D01*
X156464542Y-93034256D01*
X156461772Y-93029284D01*
X156445611Y-92996827D01*
X156445607Y-92996824D01*
X156438687Y-92987659D01*
X156438716Y-92987636D01*
X156436696Y-92985203D01*
X156436669Y-92985229D01*
X156428928Y-92976737D01*
X156426943Y-92975238D01*
X156400006Y-92954896D01*
X156395604Y-92951240D01*
X156368830Y-92926831D01*
X156359061Y-92920783D01*
X156359080Y-92920750D01*
X156356319Y-92919212D01*
X156356303Y-92919247D01*
X156346020Y-92914126D01*
X156311164Y-92904208D01*
X156305738Y-92902389D01*
X156287034Y-92895144D01*
X156271947Y-92889299D01*
X156260652Y-92887188D01*
X156260658Y-92887151D01*
X156257531Y-92886715D01*
X156257528Y-92886752D01*
X156246086Y-92885691D01*
X156210004Y-92889035D01*
X156204281Y-92889300D01*
X156172472Y-92889300D01*
X156105433Y-92869615D01*
X156084791Y-92852981D01*
X153887404Y-90655594D01*
X153853919Y-90594271D01*
X153858903Y-90524579D01*
X153900775Y-90468646D01*
X153936767Y-90449982D01*
X154075495Y-90404906D01*
X154274122Y-90298020D01*
X154274125Y-90298018D01*
X154450475Y-90157384D01*
X154598883Y-89987518D01*
X154651512Y-89899432D01*
X154702794Y-89851978D01*
X154771591Y-89839783D01*
X154836061Y-89866717D01*
G37*
%TD.AperFunction*%
%TA.AperFunction,Conductor*%
G36*
X188470426Y-83514691D02*
G01*
X188502521Y-83517216D01*
X188645136Y-83528440D01*
X188664346Y-83531483D01*
X188827638Y-83570686D01*
X188846130Y-83576694D01*
X188969090Y-83627626D01*
X189001277Y-83640959D01*
X189018614Y-83649793D01*
X189161786Y-83737529D01*
X189177527Y-83748965D01*
X189305217Y-83858022D01*
X189318977Y-83871782D01*
X189428034Y-83999472D01*
X189439470Y-84015213D01*
X189527206Y-84158385D01*
X189536040Y-84175722D01*
X189600302Y-84330862D01*
X189606315Y-84349368D01*
X189645515Y-84512648D01*
X189648559Y-84531866D01*
X189662309Y-84706573D01*
X189662500Y-84711440D01*
X189662500Y-125346292D01*
X189662264Y-125351698D01*
X189647227Y-125523561D01*
X189643474Y-125544846D01*
X189600929Y-125703627D01*
X189593536Y-125723939D01*
X189524067Y-125872915D01*
X189513260Y-125891633D01*
X189418971Y-126026292D01*
X189405077Y-126042850D01*
X189288850Y-126159077D01*
X189272292Y-126172971D01*
X189137633Y-126267260D01*
X189118915Y-126278067D01*
X188969939Y-126347536D01*
X188949627Y-126354929D01*
X188790846Y-126397474D01*
X188769561Y-126401227D01*
X188629729Y-126413461D01*
X188597695Y-126416264D01*
X188592293Y-126416500D01*
X128780707Y-126416500D01*
X128775304Y-126416264D01*
X128738923Y-126413081D01*
X128603438Y-126401227D01*
X128582153Y-126397474D01*
X128423372Y-126354929D01*
X128403060Y-126347536D01*
X128254084Y-126278067D01*
X128235366Y-126267260D01*
X128100707Y-126172971D01*
X128084149Y-126159077D01*
X127967922Y-126042850D01*
X127954028Y-126026292D01*
X127859739Y-125891633D01*
X127848932Y-125872915D01*
X127779463Y-125723939D01*
X127772070Y-125703627D01*
X127729525Y-125544846D01*
X127725772Y-125523560D01*
X127710736Y-125351698D01*
X127710500Y-125346292D01*
X127710500Y-123498042D01*
X147975600Y-123498042D01*
X147983469Y-123582975D01*
X148732452Y-122833994D01*
X148744673Y-122911150D01*
X148803117Y-123025854D01*
X148894146Y-123116883D01*
X149008850Y-123175327D01*
X149086005Y-123187547D01*
X148175507Y-124098044D01*
X148274781Y-124229507D01*
X148433706Y-124374385D01*
X148433708Y-124374387D01*
X148616545Y-124487595D01*
X148616551Y-124487597D01*
X148817083Y-124565283D01*
X149028475Y-124604800D01*
X149243525Y-124604800D01*
X149454916Y-124565283D01*
X149454917Y-124565283D01*
X149655448Y-124487597D01*
X149655454Y-124487595D01*
X149838291Y-124374387D01*
X149838293Y-124374385D01*
X149997220Y-124229505D01*
X149997220Y-124229504D01*
X150096491Y-124098044D01*
X149185994Y-123187547D01*
X149263150Y-123175327D01*
X149377854Y-123116883D01*
X149468883Y-123025854D01*
X149527327Y-122911150D01*
X149539547Y-122833995D01*
X150288527Y-123582975D01*
X150327905Y-123568758D01*
X150365114Y-123542104D01*
X150434895Y-123538584D01*
X150493282Y-123572076D01*
X150523469Y-123582976D01*
X151272452Y-122833994D01*
X151284673Y-122911150D01*
X151343117Y-123025854D01*
X151434146Y-123116883D01*
X151548850Y-123175327D01*
X151626005Y-123187547D01*
X150715507Y-124098044D01*
X150814781Y-124229507D01*
X150973706Y-124374385D01*
X150973708Y-124374387D01*
X151156545Y-124487595D01*
X151156551Y-124487597D01*
X151357083Y-124565283D01*
X151568475Y-124604800D01*
X151783525Y-124604800D01*
X151994916Y-124565283D01*
X151994917Y-124565283D01*
X152195448Y-124487597D01*
X152195454Y-124487595D01*
X152378291Y-124374387D01*
X152378293Y-124374385D01*
X152537220Y-124229505D01*
X152537220Y-124229504D01*
X152636491Y-124098044D01*
X151725994Y-123187547D01*
X151803150Y-123175327D01*
X151917854Y-123116883D01*
X152008883Y-123025854D01*
X152067327Y-122911150D01*
X152079547Y-122833995D01*
X152828527Y-123582975D01*
X152867905Y-123568758D01*
X152905114Y-123542104D01*
X152974895Y-123538584D01*
X153033282Y-123572076D01*
X153063469Y-123582976D01*
X153812452Y-122833994D01*
X153824673Y-122911150D01*
X153883117Y-123025854D01*
X153974146Y-123116883D01*
X154088850Y-123175327D01*
X154166005Y-123187547D01*
X153255507Y-124098044D01*
X153354781Y-124229507D01*
X153513706Y-124374385D01*
X153513708Y-124374387D01*
X153696545Y-124487595D01*
X153696551Y-124487597D01*
X153897083Y-124565283D01*
X154108475Y-124604800D01*
X154323525Y-124604800D01*
X154534916Y-124565283D01*
X154534917Y-124565283D01*
X154735448Y-124487597D01*
X154735454Y-124487595D01*
X154918291Y-124374387D01*
X154918293Y-124374385D01*
X155077220Y-124229505D01*
X155077220Y-124229504D01*
X155176491Y-124098044D01*
X154265994Y-123187547D01*
X154343150Y-123175327D01*
X154457854Y-123116883D01*
X154548883Y-123025854D01*
X154607327Y-122911150D01*
X154619547Y-122833994D01*
X155368527Y-123582975D01*
X155368529Y-123582975D01*
X155376400Y-123498041D01*
X155376400Y-122069958D01*
X155368528Y-121985023D01*
X155368527Y-121985023D01*
X154619547Y-122734004D01*
X154607327Y-122656850D01*
X154548883Y-122542146D01*
X154457854Y-122451117D01*
X154343150Y-122392673D01*
X154265995Y-122380452D01*
X155176491Y-121469954D01*
X155077218Y-121338492D01*
X154918293Y-121193614D01*
X154918291Y-121193612D01*
X154735454Y-121080404D01*
X154735448Y-121080402D01*
X154534916Y-121002716D01*
X154323525Y-120963200D01*
X154108475Y-120963200D01*
X153897083Y-121002716D01*
X153897082Y-121002716D01*
X153696551Y-121080402D01*
X153696545Y-121080404D01*
X153513708Y-121193612D01*
X153513706Y-121193614D01*
X153354780Y-121338493D01*
X153354778Y-121338496D01*
X153255506Y-121469954D01*
X154166005Y-122380452D01*
X154088850Y-122392673D01*
X153974146Y-122451117D01*
X153883117Y-122542146D01*
X153824673Y-122656850D01*
X153812452Y-122734005D01*
X153063469Y-121985022D01*
X153024090Y-121999241D01*
X152986883Y-122025894D01*
X152917102Y-122029414D01*
X152858720Y-121995924D01*
X152828527Y-121985023D01*
X152079547Y-122734004D01*
X152067327Y-122656850D01*
X152008883Y-122542146D01*
X151917854Y-122451117D01*
X151803150Y-122392673D01*
X151725995Y-122380452D01*
X152636491Y-121469954D01*
X152537218Y-121338492D01*
X152378293Y-121193614D01*
X152378291Y-121193612D01*
X152195454Y-121080404D01*
X152195448Y-121080402D01*
X151994916Y-121002716D01*
X151783525Y-120963200D01*
X151568475Y-120963200D01*
X151357083Y-121002716D01*
X151357082Y-121002716D01*
X151156551Y-121080402D01*
X151156545Y-121080404D01*
X150973708Y-121193612D01*
X150973706Y-121193614D01*
X150814780Y-121338493D01*
X150814778Y-121338496D01*
X150715506Y-121469954D01*
X151626005Y-122380452D01*
X151548850Y-122392673D01*
X151434146Y-122451117D01*
X151343117Y-122542146D01*
X151284673Y-122656850D01*
X151272452Y-122734005D01*
X150523469Y-121985022D01*
X150484090Y-121999241D01*
X150446883Y-122025894D01*
X150377102Y-122029414D01*
X150318720Y-121995924D01*
X150288527Y-121985023D01*
X149539547Y-122734004D01*
X149527327Y-122656850D01*
X149468883Y-122542146D01*
X149377854Y-122451117D01*
X149263150Y-122392673D01*
X149185995Y-122380452D01*
X150096491Y-121469954D01*
X149997218Y-121338492D01*
X149838293Y-121193614D01*
X149838291Y-121193612D01*
X149655454Y-121080404D01*
X149655448Y-121080402D01*
X149454916Y-121002716D01*
X149243525Y-120963200D01*
X149028475Y-120963200D01*
X148817083Y-121002716D01*
X148817082Y-121002716D01*
X148616551Y-121080402D01*
X148616545Y-121080404D01*
X148433708Y-121193612D01*
X148433706Y-121193614D01*
X148274780Y-121338493D01*
X148274778Y-121338496D01*
X148175506Y-121469954D01*
X149086005Y-122380452D01*
X149008850Y-122392673D01*
X148894146Y-122451117D01*
X148803117Y-122542146D01*
X148744673Y-122656850D01*
X148732452Y-122734005D01*
X147983470Y-121985023D01*
X147975600Y-122069958D01*
X147975600Y-123498042D01*
X127710500Y-123498042D01*
X127710500Y-109886096D01*
X127680497Y-109696670D01*
X127680497Y-109696667D01*
X127621228Y-109514258D01*
X127534155Y-109343367D01*
X127534153Y-109343364D01*
X127533515Y-109342112D01*
X127520000Y-109285817D01*
X127520000Y-109011362D01*
X127539685Y-108944323D01*
X127556319Y-108923681D01*
X127600000Y-108880000D01*
X127510000Y-108790000D01*
X126764972Y-108790000D01*
X126745574Y-108788473D01*
X126587903Y-108763500D01*
X126587898Y-108763500D01*
X126519480Y-108763500D01*
X108460707Y-108763500D01*
X108455304Y-108763264D01*
X108418923Y-108760081D01*
X108283438Y-108748227D01*
X108262153Y-108744474D01*
X108103372Y-108701929D01*
X108083060Y-108694536D01*
X107934084Y-108625067D01*
X107915366Y-108614260D01*
X107780707Y-108519971D01*
X107764149Y-108506077D01*
X107647922Y-108389850D01*
X107634028Y-108373292D01*
X107539739Y-108238633D01*
X107528932Y-108219915D01*
X107459463Y-108070939D01*
X107452070Y-108050627D01*
X107431781Y-107974908D01*
X107409524Y-107891843D01*
X107405772Y-107870560D01*
X107404918Y-107860803D01*
X107390735Y-107698696D01*
X107390500Y-107693292D01*
X107390500Y-104535465D01*
X117114990Y-104535465D01*
X117125887Y-104639141D01*
X117129907Y-104677389D01*
X117188758Y-104858515D01*
X117283983Y-105023451D01*
X117283988Y-105023458D01*
X117411420Y-105164985D01*
X117411422Y-105164987D01*
X117565497Y-105276929D01*
X117565498Y-105276930D01*
X117612376Y-105297801D01*
X117739485Y-105354393D01*
X117925774Y-105393990D01*
X118116226Y-105393990D01*
X118302515Y-105354393D01*
X118476500Y-105276930D01*
X118630579Y-105164986D01*
X118747142Y-105035529D01*
X118758011Y-105023458D01*
X118758016Y-105023451D01*
X118853241Y-104858517D01*
X118912093Y-104677388D01*
X118927010Y-104535465D01*
X119654990Y-104535465D01*
X119665887Y-104639141D01*
X119669907Y-104677389D01*
X119728758Y-104858515D01*
X119823983Y-105023451D01*
X119823988Y-105023458D01*
X119951420Y-105164985D01*
X119951422Y-105164987D01*
X120105497Y-105276929D01*
X120105498Y-105276930D01*
X120152376Y-105297801D01*
X120279485Y-105354393D01*
X120465774Y-105393990D01*
X120656226Y-105393990D01*
X120842515Y-105354393D01*
X121016500Y-105276930D01*
X121170579Y-105164986D01*
X121287142Y-105035529D01*
X121298011Y-105023458D01*
X121298016Y-105023451D01*
X121393241Y-104858517D01*
X121452093Y-104677388D01*
X121467010Y-104535465D01*
X122194990Y-104535465D01*
X122205887Y-104639141D01*
X122209907Y-104677389D01*
X122268758Y-104858515D01*
X122363983Y-105023451D01*
X122363988Y-105023458D01*
X122491420Y-105164985D01*
X122491422Y-105164987D01*
X122645497Y-105276929D01*
X122645498Y-105276930D01*
X122692376Y-105297801D01*
X122819485Y-105354393D01*
X123005774Y-105393990D01*
X123196226Y-105393990D01*
X123382515Y-105354393D01*
X123556500Y-105276930D01*
X123710579Y-105164986D01*
X123827142Y-105035529D01*
X123838011Y-105023458D01*
X123838016Y-105023451D01*
X123933241Y-104858517D01*
X123992093Y-104677388D01*
X124007010Y-104535465D01*
X124734990Y-104535465D01*
X124745887Y-104639141D01*
X124749907Y-104677389D01*
X124808758Y-104858515D01*
X124903983Y-105023451D01*
X124903988Y-105023458D01*
X125031420Y-105164985D01*
X125031422Y-105164987D01*
X125185497Y-105276929D01*
X125185501Y-105276931D01*
X125289534Y-105323249D01*
X125342772Y-105368499D01*
X125363094Y-105435347D01*
X125363100Y-105436529D01*
X125363100Y-105461954D01*
X125362505Y-105470529D01*
X125360997Y-105481338D01*
X125363034Y-105525406D01*
X125363100Y-105528269D01*
X125363100Y-105546155D01*
X125363495Y-105548271D01*
X125364484Y-105556799D01*
X125365794Y-105585127D01*
X125367944Y-105589995D01*
X125376398Y-105617294D01*
X125377376Y-105622526D01*
X125377376Y-105622527D01*
X125377377Y-105622528D01*
X125392169Y-105646418D01*
X125392304Y-105646635D01*
X125396312Y-105654240D01*
X125407760Y-105680168D01*
X125407761Y-105680169D01*
X125407762Y-105680171D01*
X125411523Y-105683932D01*
X125429265Y-105706331D01*
X125432072Y-105710863D01*
X125432073Y-105710864D01*
X125435455Y-105713418D01*
X125454701Y-105727951D01*
X125461182Y-105733591D01*
X135846775Y-116119185D01*
X135852412Y-116125664D01*
X135858989Y-116134373D01*
X135891591Y-116164094D01*
X135893652Y-116166062D01*
X135906305Y-116178715D01*
X135906308Y-116178717D01*
X135908083Y-116179933D01*
X135914821Y-116185271D01*
X135928304Y-116197562D01*
X135935770Y-116204368D01*
X135935773Y-116204369D01*
X135940730Y-116206290D01*
X135966011Y-116219614D01*
X135970406Y-116222625D01*
X135998016Y-116229118D01*
X136006203Y-116231654D01*
X136032651Y-116241900D01*
X136037974Y-116241900D01*
X136066363Y-116245193D01*
X136071543Y-116246412D01*
X136099624Y-116242494D01*
X136108198Y-116241900D01*
X148369275Y-116241900D01*
X148436314Y-116261585D01*
X148474268Y-116299927D01*
X148496113Y-116334693D01*
X148625707Y-116464287D01*
X148780890Y-116561794D01*
X148953879Y-116622326D01*
X148953882Y-116622326D01*
X148953884Y-116622327D01*
X149135996Y-116642846D01*
X149136000Y-116642846D01*
X149136004Y-116642846D01*
X149318107Y-116622328D01*
X149318110Y-116622327D01*
X149318121Y-116622326D01*
X149318130Y-116622322D01*
X149319024Y-116622119D01*
X149319634Y-116622156D01*
X149325042Y-116621547D01*
X149325148Y-116622493D01*
X149388763Y-116626382D01*
X149434315Y-116655324D01*
X150148475Y-117369485D01*
X150154112Y-117375964D01*
X150160689Y-117384673D01*
X150193291Y-117414394D01*
X150195352Y-117416362D01*
X150208005Y-117429015D01*
X150208008Y-117429017D01*
X150209783Y-117430233D01*
X150216521Y-117435571D01*
X150229649Y-117447538D01*
X150237470Y-117454668D01*
X150237473Y-117454669D01*
X150242430Y-117456590D01*
X150267711Y-117469914D01*
X150272106Y-117472925D01*
X150299716Y-117479418D01*
X150307903Y-117481954D01*
X150334351Y-117492200D01*
X150339674Y-117492200D01*
X150368063Y-117495493D01*
X150373243Y-117496712D01*
X150401324Y-117492794D01*
X150409898Y-117492200D01*
X160689150Y-117492200D01*
X160756189Y-117511885D01*
X160801944Y-117564689D01*
X160813150Y-117616200D01*
X160813150Y-117624700D01*
X160793465Y-117691739D01*
X160740661Y-117737494D01*
X160689150Y-117748700D01*
X136965472Y-117748700D01*
X136898433Y-117729015D01*
X136877791Y-117712381D01*
X134326731Y-115161321D01*
X134321087Y-115154835D01*
X134314510Y-115146126D01*
X134281918Y-115116414D01*
X134279846Y-115114436D01*
X134267193Y-115101783D01*
X134265412Y-115100563D01*
X134258677Y-115095227D01*
X134237730Y-115076132D01*
X134232762Y-115074207D01*
X134207488Y-115060885D01*
X134203094Y-115057875D01*
X134203093Y-115057874D01*
X134203092Y-115057874D01*
X134175491Y-115051381D01*
X134167283Y-115048839D01*
X134140850Y-115038600D01*
X134140849Y-115038600D01*
X134135526Y-115038600D01*
X134107136Y-115035306D01*
X134101957Y-115034088D01*
X134073875Y-115038005D01*
X134065302Y-115038600D01*
X133193143Y-115038600D01*
X133184568Y-115038005D01*
X133173760Y-115036497D01*
X133173759Y-115036497D01*
X133165545Y-115036876D01*
X133129701Y-115038534D01*
X133126838Y-115038600D01*
X133108947Y-115038600D01*
X133106820Y-115038997D01*
X133098297Y-115039985D01*
X133069977Y-115041294D01*
X133069970Y-115041296D01*
X133065100Y-115043447D01*
X133037806Y-115051898D01*
X133032573Y-115052876D01*
X133032571Y-115052876D01*
X133008461Y-115067804D01*
X133000861Y-115071810D01*
X132974929Y-115083261D01*
X132974927Y-115083262D01*
X132971163Y-115087027D01*
X132948766Y-115104767D01*
X132944236Y-115107571D01*
X132927145Y-115130202D01*
X132921504Y-115136685D01*
X132200821Y-115857368D01*
X132194341Y-115863007D01*
X132185628Y-115869587D01*
X132155904Y-115902191D01*
X132153930Y-115904258D01*
X132141282Y-115916908D01*
X132141278Y-115916912D01*
X132140054Y-115918699D01*
X132134726Y-115925423D01*
X132128937Y-115931773D01*
X132069226Y-115968054D01*
X131999378Y-115966293D01*
X131941571Y-115927049D01*
X131927943Y-115906687D01*
X131914061Y-115880715D01*
X131914056Y-115880709D01*
X131905331Y-115870078D01*
X131891846Y-115853646D01*
X131790205Y-115729794D01*
X131639290Y-115605943D01*
X131639284Y-115605938D01*
X131467117Y-115513913D01*
X131373701Y-115485576D01*
X131280290Y-115457240D01*
X131280288Y-115457239D01*
X131280290Y-115457239D01*
X131086000Y-115438104D01*
X130891711Y-115457239D01*
X130704882Y-115513913D01*
X130532715Y-115605938D01*
X130532709Y-115605943D01*
X130381794Y-115729794D01*
X130257943Y-115880709D01*
X130257938Y-115880715D01*
X130165913Y-116052882D01*
X130109239Y-116239711D01*
X130090104Y-116434000D01*
X130109239Y-116628288D01*
X130165913Y-116815117D01*
X130257938Y-116987284D01*
X130257943Y-116987290D01*
X130381794Y-117138205D01*
X130532709Y-117262056D01*
X130532715Y-117262061D01*
X130704882Y-117354086D01*
X130704884Y-117354086D01*
X130704887Y-117354088D01*
X130891710Y-117410760D01*
X130891709Y-117410760D01*
X130909129Y-117412475D01*
X131086000Y-117429896D01*
X131280290Y-117410760D01*
X131467113Y-117354088D01*
X131481126Y-117346598D01*
X131639284Y-117262061D01*
X131639286Y-117262058D01*
X131639290Y-117262057D01*
X131790205Y-117138205D01*
X131858246Y-117055295D01*
X131915992Y-117015961D01*
X131985836Y-117014090D01*
X132045605Y-117050277D01*
X132076321Y-117113033D01*
X132078100Y-117133960D01*
X132078100Y-118274039D01*
X132058415Y-118341078D01*
X132005611Y-118386833D01*
X131936453Y-118396777D01*
X131872897Y-118367752D01*
X131858247Y-118352704D01*
X131790205Y-118269795D01*
X131639290Y-118145943D01*
X131639284Y-118145938D01*
X131467117Y-118053913D01*
X131373701Y-118025576D01*
X131280290Y-117997240D01*
X131280288Y-117997239D01*
X131280290Y-117997239D01*
X131086000Y-117978104D01*
X130891711Y-117997239D01*
X130704882Y-118053913D01*
X130532715Y-118145938D01*
X130532709Y-118145943D01*
X130381794Y-118269794D01*
X130257943Y-118420709D01*
X130257938Y-118420715D01*
X130165913Y-118592882D01*
X130109239Y-118779711D01*
X130090104Y-118974000D01*
X130109239Y-119168288D01*
X130165913Y-119355117D01*
X130257938Y-119527284D01*
X130257943Y-119527290D01*
X130381794Y-119678205D01*
X130501406Y-119776367D01*
X130523115Y-119794183D01*
X130532709Y-119802056D01*
X130532715Y-119802061D01*
X130704882Y-119894086D01*
X130704884Y-119894086D01*
X130704887Y-119894088D01*
X130891710Y-119950760D01*
X130891709Y-119950760D01*
X130909129Y-119952475D01*
X131086000Y-119969896D01*
X131280290Y-119950760D01*
X131467113Y-119894088D01*
X131467117Y-119894086D01*
X131639284Y-119802061D01*
X131639286Y-119802058D01*
X131639290Y-119802057D01*
X131790205Y-119678205D01*
X131858246Y-119595295D01*
X131915992Y-119555961D01*
X131985836Y-119554090D01*
X132045605Y-119590277D01*
X132076321Y-119653033D01*
X132078100Y-119673960D01*
X132078100Y-120077527D01*
X132058415Y-120144566D01*
X132041781Y-120165208D01*
X131627262Y-120579726D01*
X131565939Y-120613211D01*
X131496247Y-120608227D01*
X131481126Y-120601402D01*
X131467116Y-120593913D01*
X131407966Y-120575970D01*
X131280290Y-120537240D01*
X131280288Y-120537239D01*
X131280290Y-120537239D01*
X131086000Y-120518104D01*
X130891711Y-120537239D01*
X130704882Y-120593913D01*
X130532715Y-120685938D01*
X130532709Y-120685943D01*
X130381794Y-120809794D01*
X130257943Y-120960709D01*
X130257938Y-120960715D01*
X130165913Y-121132882D01*
X130109239Y-121319711D01*
X130090104Y-121514000D01*
X130109239Y-121708288D01*
X130165913Y-121895117D01*
X130257938Y-122067284D01*
X130257943Y-122067290D01*
X130381794Y-122218205D01*
X130532709Y-122342056D01*
X130532715Y-122342061D01*
X130704882Y-122434086D01*
X130704884Y-122434086D01*
X130704887Y-122434088D01*
X130891710Y-122490760D01*
X130891709Y-122490760D01*
X130909129Y-122492475D01*
X131086000Y-122509896D01*
X131280290Y-122490760D01*
X131467113Y-122434088D01*
X131544595Y-122392673D01*
X131639284Y-122342061D01*
X131639286Y-122342058D01*
X131639290Y-122342057D01*
X131790205Y-122218205D01*
X131914057Y-122067290D01*
X131914058Y-122067286D01*
X131914061Y-122067284D01*
X132006086Y-121895117D01*
X132006086Y-121895116D01*
X132006088Y-121895113D01*
X132062760Y-121708290D01*
X132081896Y-121514000D01*
X132630104Y-121514000D01*
X132649239Y-121708288D01*
X132705913Y-121895117D01*
X132797938Y-122067284D01*
X132797943Y-122067290D01*
X132921794Y-122218205D01*
X133072709Y-122342056D01*
X133072715Y-122342061D01*
X133244882Y-122434086D01*
X133244884Y-122434086D01*
X133244887Y-122434088D01*
X133431710Y-122490760D01*
X133431709Y-122490760D01*
X133449129Y-122492475D01*
X133626000Y-122509896D01*
X133820290Y-122490760D01*
X134007113Y-122434088D01*
X134084595Y-122392673D01*
X134179284Y-122342061D01*
X134179286Y-122342058D01*
X134179290Y-122342057D01*
X134330205Y-122218205D01*
X134454057Y-122067290D01*
X134454058Y-122067286D01*
X134454061Y-122067284D01*
X134546086Y-121895117D01*
X134546086Y-121895116D01*
X134546088Y-121895113D01*
X134602760Y-121708290D01*
X134621896Y-121514000D01*
X134602760Y-121319710D01*
X134546088Y-121132887D01*
X134546086Y-121132884D01*
X134546086Y-121132882D01*
X134454061Y-120960715D01*
X134454056Y-120960709D01*
X134330205Y-120809794D01*
X134179290Y-120685943D01*
X134179284Y-120685938D01*
X134007117Y-120593913D01*
X133913701Y-120565576D01*
X133820290Y-120537240D01*
X133820288Y-120537239D01*
X133820290Y-120537239D01*
X133626000Y-120518104D01*
X133431711Y-120537239D01*
X133244882Y-120593913D01*
X133072715Y-120685938D01*
X133072709Y-120685943D01*
X132921794Y-120809794D01*
X132797943Y-120960709D01*
X132797938Y-120960715D01*
X132705913Y-121132882D01*
X132649239Y-121319711D01*
X132630104Y-121514000D01*
X132081896Y-121514000D01*
X132062760Y-121319710D01*
X132006088Y-121132887D01*
X131998595Y-121118868D01*
X131984354Y-121050466D01*
X132009355Y-120985222D01*
X132020266Y-120972742D01*
X132511184Y-120481824D01*
X132517666Y-120476184D01*
X132526369Y-120469612D01*
X132526373Y-120469611D01*
X132556115Y-120436984D01*
X132558022Y-120434986D01*
X132570715Y-120422295D01*
X132571927Y-120420524D01*
X132577271Y-120413777D01*
X132596368Y-120392830D01*
X132598290Y-120387867D01*
X132611616Y-120362585D01*
X132614625Y-120358194D01*
X132621118Y-120330583D01*
X132623654Y-120322395D01*
X132633900Y-120295949D01*
X132633900Y-120290626D01*
X132637194Y-120262235D01*
X132638412Y-120257057D01*
X132634494Y-120228975D01*
X132633900Y-120220402D01*
X132633900Y-119673960D01*
X132653585Y-119606921D01*
X132706389Y-119561166D01*
X132775547Y-119551222D01*
X132839103Y-119580247D01*
X132853754Y-119595296D01*
X132921794Y-119678205D01*
X133041406Y-119776367D01*
X133063115Y-119794183D01*
X133072709Y-119802056D01*
X133072715Y-119802061D01*
X133244882Y-119894086D01*
X133244884Y-119894086D01*
X133244887Y-119894088D01*
X133431710Y-119950760D01*
X133431709Y-119950760D01*
X133449129Y-119952475D01*
X133626000Y-119969896D01*
X133820290Y-119950760D01*
X134007113Y-119894088D01*
X134007117Y-119894086D01*
X134179284Y-119802061D01*
X134179286Y-119802058D01*
X134179290Y-119802057D01*
X134330205Y-119678205D01*
X134454057Y-119527290D01*
X134454058Y-119527286D01*
X134454061Y-119527284D01*
X134546086Y-119355117D01*
X134546086Y-119355116D01*
X134546088Y-119355113D01*
X134602760Y-119168290D01*
X134621896Y-118974000D01*
X134602760Y-118779710D01*
X134546088Y-118592887D01*
X134546086Y-118592884D01*
X134546086Y-118592882D01*
X134454061Y-118420715D01*
X134454056Y-118420709D01*
X134453555Y-118420099D01*
X134427792Y-118388706D01*
X134330205Y-118269794D01*
X134179290Y-118145943D01*
X134179284Y-118145938D01*
X134007117Y-118053913D01*
X133913701Y-118025576D01*
X133820290Y-117997240D01*
X133820288Y-117997239D01*
X133820290Y-117997239D01*
X133626000Y-117978104D01*
X133431711Y-117997239D01*
X133244882Y-118053913D01*
X133072715Y-118145938D01*
X133072709Y-118145943D01*
X132921794Y-118269795D01*
X132853753Y-118352704D01*
X132796008Y-118392038D01*
X132726163Y-118393909D01*
X132666395Y-118357722D01*
X132635679Y-118294966D01*
X132633900Y-118274039D01*
X132633900Y-117133960D01*
X132653585Y-117066921D01*
X132706389Y-117021166D01*
X132775547Y-117011222D01*
X132839103Y-117040247D01*
X132853754Y-117055296D01*
X132921794Y-117138205D01*
X133072709Y-117262056D01*
X133072715Y-117262061D01*
X133244882Y-117354086D01*
X133244884Y-117354086D01*
X133244887Y-117354088D01*
X133431710Y-117410760D01*
X133431709Y-117410760D01*
X133449129Y-117412475D01*
X133626000Y-117429896D01*
X133820290Y-117410760D01*
X134007113Y-117354088D01*
X134021125Y-117346597D01*
X134089527Y-117332353D01*
X134154772Y-117357351D01*
X134167263Y-117368273D01*
X135928175Y-119129185D01*
X135933812Y-119135664D01*
X135940389Y-119144373D01*
X135972991Y-119174094D01*
X135975052Y-119176062D01*
X135987705Y-119188715D01*
X135987708Y-119188717D01*
X135989483Y-119189933D01*
X135996221Y-119195271D01*
X136002587Y-119201074D01*
X136017170Y-119214368D01*
X136017173Y-119214369D01*
X136022128Y-119216289D01*
X136047412Y-119229616D01*
X136049991Y-119231382D01*
X136051805Y-119232625D01*
X136079412Y-119239117D01*
X136087604Y-119241654D01*
X136114051Y-119251900D01*
X136119374Y-119251900D01*
X136147764Y-119255194D01*
X136152943Y-119256412D01*
X136181021Y-119252495D01*
X136189597Y-119251900D01*
X158489511Y-119251900D01*
X158556550Y-119271585D01*
X158602305Y-119324389D01*
X158613511Y-119375900D01*
X158613511Y-119488166D01*
X158622381Y-119532764D01*
X158622382Y-119532768D01*
X158622383Y-119532771D01*
X158656175Y-119583343D01*
X158656176Y-119583344D01*
X158706752Y-119617138D01*
X158706753Y-119617138D01*
X158706755Y-119617139D01*
X158729052Y-119621574D01*
X158751353Y-119626010D01*
X159063759Y-119626009D01*
X159130798Y-119645693D01*
X159176553Y-119698497D01*
X159187626Y-119744278D01*
X159188234Y-119757401D01*
X159188300Y-119760268D01*
X159188300Y-119778155D01*
X159188695Y-119780271D01*
X159189684Y-119788799D01*
X159190994Y-119817127D01*
X159193144Y-119821995D01*
X159201598Y-119849294D01*
X159202576Y-119854526D01*
X159202576Y-119854527D01*
X159202577Y-119854528D01*
X159213980Y-119872945D01*
X159217504Y-119878635D01*
X159221512Y-119886240D01*
X159232960Y-119912168D01*
X159232961Y-119912169D01*
X159232962Y-119912171D01*
X159236723Y-119915932D01*
X159254465Y-119938331D01*
X159257272Y-119942863D01*
X159279901Y-119959951D01*
X159286382Y-119965591D01*
X160763375Y-121442585D01*
X160769012Y-121449064D01*
X160775589Y-121457773D01*
X160808191Y-121487494D01*
X160810252Y-121489462D01*
X160822905Y-121502115D01*
X160822908Y-121502117D01*
X160824683Y-121503333D01*
X160831421Y-121508671D01*
X160837267Y-121514000D01*
X160852370Y-121527768D01*
X160852373Y-121527769D01*
X160857330Y-121529690D01*
X160882611Y-121543014D01*
X160887006Y-121546025D01*
X160914616Y-121552518D01*
X160922803Y-121555054D01*
X160949251Y-121565300D01*
X160954574Y-121565300D01*
X160982963Y-121568593D01*
X160988143Y-121569812D01*
X161016224Y-121565894D01*
X161024798Y-121565300D01*
X169754157Y-121565300D01*
X169762733Y-121565895D01*
X169773536Y-121567401D01*
X169773541Y-121567403D01*
X169812992Y-121565579D01*
X169817606Y-121565366D01*
X169820469Y-121565300D01*
X169838345Y-121565300D01*
X169838353Y-121565300D01*
X169840464Y-121564905D01*
X169848989Y-121563914D01*
X169877327Y-121562605D01*
X169882187Y-121560458D01*
X169909503Y-121551999D01*
X169914728Y-121551023D01*
X169938836Y-121536094D01*
X169946428Y-121532092D01*
X169972371Y-121520638D01*
X169976131Y-121516877D01*
X169998539Y-121499128D01*
X170003063Y-121496328D01*
X170020160Y-121473686D01*
X170025782Y-121467225D01*
X170304791Y-121188216D01*
X170366113Y-121154734D01*
X170392471Y-121151900D01*
X171382713Y-121151900D01*
X171477050Y-121136958D01*
X171477050Y-121136957D01*
X171477055Y-121136957D01*
X171590771Y-121079016D01*
X171681016Y-120988771D01*
X171738957Y-120875055D01*
X171740375Y-120866102D01*
X171753900Y-120780713D01*
X171753900Y-119967286D01*
X171740233Y-119880998D01*
X171749187Y-119811705D01*
X171794184Y-119758253D01*
X171860935Y-119737613D01*
X171862706Y-119737600D01*
X173399294Y-119737600D01*
X173466333Y-119757285D01*
X173512088Y-119810089D01*
X173522032Y-119879247D01*
X173521767Y-119880998D01*
X173508100Y-119967286D01*
X173508100Y-120780713D01*
X173523041Y-120875050D01*
X173523042Y-120875053D01*
X173523043Y-120875055D01*
X173573041Y-120973181D01*
X173580985Y-120988772D01*
X173580988Y-120988776D01*
X173671223Y-121079011D01*
X173671227Y-121079014D01*
X173671229Y-121079016D01*
X173784945Y-121136957D01*
X173784947Y-121136957D01*
X173784949Y-121136958D01*
X173879287Y-121151900D01*
X173879292Y-121151900D01*
X175192713Y-121151900D01*
X175287050Y-121136958D01*
X175287050Y-121136957D01*
X175287055Y-121136957D01*
X175400771Y-121079016D01*
X175491016Y-120988771D01*
X175548957Y-120875055D01*
X175550375Y-120866102D01*
X175563900Y-120780713D01*
X175563900Y-120775900D01*
X175583585Y-120708861D01*
X175636389Y-120663106D01*
X175687900Y-120651900D01*
X177194100Y-120651900D01*
X177261139Y-120671585D01*
X177306894Y-120724389D01*
X177318100Y-120775900D01*
X177318100Y-120780713D01*
X177333041Y-120875050D01*
X177333042Y-120875053D01*
X177333043Y-120875055D01*
X177383041Y-120973181D01*
X177390985Y-120988772D01*
X177390988Y-120988776D01*
X177481223Y-121079011D01*
X177481227Y-121079014D01*
X177481229Y-121079016D01*
X177594945Y-121136957D01*
X177594947Y-121136957D01*
X177594949Y-121136958D01*
X177689287Y-121151900D01*
X177689292Y-121151900D01*
X179002713Y-121151900D01*
X179097050Y-121136958D01*
X179097050Y-121136957D01*
X179097055Y-121136957D01*
X179210771Y-121079016D01*
X179301016Y-120988771D01*
X179358957Y-120875055D01*
X179360375Y-120866102D01*
X179373900Y-120780713D01*
X179373900Y-120775900D01*
X179393585Y-120708861D01*
X179446389Y-120663106D01*
X179497900Y-120651900D01*
X181004100Y-120651900D01*
X181071139Y-120671585D01*
X181116894Y-120724389D01*
X181128100Y-120775900D01*
X181128100Y-120780713D01*
X181143041Y-120875050D01*
X181143042Y-120875053D01*
X181143043Y-120875055D01*
X181193041Y-120973181D01*
X181200985Y-120988772D01*
X181200988Y-120988776D01*
X181291223Y-121079011D01*
X181291227Y-121079014D01*
X181291229Y-121079016D01*
X181404945Y-121136957D01*
X181404947Y-121136957D01*
X181404949Y-121136958D01*
X181499287Y-121151900D01*
X181499292Y-121151900D01*
X182812713Y-121151900D01*
X182907050Y-121136958D01*
X182907050Y-121136957D01*
X182907055Y-121136957D01*
X183020771Y-121079016D01*
X183111016Y-120988771D01*
X183168957Y-120875055D01*
X183170375Y-120866102D01*
X183183900Y-120780713D01*
X183183900Y-119967286D01*
X183169858Y-119878635D01*
X183168957Y-119872945D01*
X183168956Y-119872943D01*
X183165943Y-119863669D01*
X183167600Y-119863130D01*
X183156828Y-119805793D01*
X183183101Y-119741051D01*
X183192520Y-119730488D01*
X183480184Y-119442824D01*
X183486666Y-119437184D01*
X183495369Y-119430612D01*
X183495373Y-119430611D01*
X183525115Y-119397984D01*
X183527022Y-119395986D01*
X183539715Y-119383295D01*
X183540927Y-119381524D01*
X183546271Y-119374777D01*
X183565368Y-119353830D01*
X183567290Y-119348867D01*
X183580616Y-119323585D01*
X183583625Y-119319194D01*
X183590118Y-119291583D01*
X183592654Y-119283395D01*
X183602900Y-119256949D01*
X183602900Y-119251625D01*
X183606194Y-119223234D01*
X183606605Y-119221486D01*
X183607412Y-119218056D01*
X183603494Y-119189974D01*
X183602900Y-119181401D01*
X183602900Y-94495343D01*
X183603495Y-94486767D01*
X183605001Y-94475964D01*
X183605003Y-94475959D01*
X183602966Y-94431893D01*
X183602900Y-94429030D01*
X183602900Y-94411149D01*
X183602900Y-94411147D01*
X183602504Y-94409033D01*
X183601514Y-94400495D01*
X183600205Y-94372173D01*
X183598054Y-94367303D01*
X183589601Y-94340003D01*
X183589368Y-94338760D01*
X183588623Y-94334772D01*
X183585842Y-94330281D01*
X183573696Y-94310663D01*
X183569688Y-94303059D01*
X183558239Y-94277129D01*
X183554476Y-94273366D01*
X183536729Y-94250960D01*
X183533929Y-94246438D01*
X183511301Y-94229350D01*
X183504816Y-94223706D01*
X179406331Y-90125221D01*
X179400687Y-90118735D01*
X179394110Y-90110026D01*
X179361518Y-90080314D01*
X179359446Y-90078336D01*
X179346793Y-90065683D01*
X179345012Y-90064463D01*
X179338277Y-90059127D01*
X179317330Y-90040032D01*
X179312362Y-90038107D01*
X179287088Y-90024785D01*
X179282694Y-90021775D01*
X179282693Y-90021774D01*
X179282692Y-90021774D01*
X179255091Y-90015281D01*
X179246883Y-90012739D01*
X179220450Y-90002500D01*
X179220449Y-90002500D01*
X179215126Y-90002500D01*
X179186736Y-89999206D01*
X179181557Y-89997988D01*
X179153475Y-90001905D01*
X179144902Y-90002500D01*
X177259294Y-90002500D01*
X177192255Y-89982815D01*
X177146500Y-89930011D01*
X177136556Y-89860853D01*
X177165581Y-89797297D01*
X177167143Y-89795529D01*
X177178011Y-89783458D01*
X177178016Y-89783451D01*
X177222192Y-89706936D01*
X177273241Y-89618517D01*
X177332093Y-89437388D01*
X177347010Y-89295465D01*
X177347010Y-87691735D01*
X177332093Y-87549812D01*
X177273241Y-87368683D01*
X177218262Y-87273458D01*
X177178016Y-87203748D01*
X177178011Y-87203741D01*
X177050579Y-87062214D01*
X177050577Y-87062212D01*
X176896502Y-86950270D01*
X176896501Y-86950269D01*
X176766238Y-86892273D01*
X176722515Y-86872807D01*
X176722513Y-86872806D01*
X176536226Y-86833210D01*
X176345774Y-86833210D01*
X176159485Y-86872806D01*
X175985502Y-86950268D01*
X175831421Y-87062213D01*
X175703988Y-87203741D01*
X175703983Y-87203748D01*
X175608758Y-87368684D01*
X175549907Y-87549810D01*
X175549907Y-87549812D01*
X175534990Y-87691735D01*
X175534990Y-89295465D01*
X175547420Y-89413734D01*
X175549907Y-89437389D01*
X175598218Y-89586077D01*
X175608759Y-89618517D01*
X175616523Y-89631965D01*
X175703983Y-89783451D01*
X175703988Y-89783458D01*
X175831420Y-89924985D01*
X175831422Y-89924987D01*
X175985497Y-90036929D01*
X175985501Y-90036931D01*
X176089534Y-90083249D01*
X176142772Y-90128499D01*
X176163094Y-90195347D01*
X176163100Y-90196529D01*
X176163100Y-90224335D01*
X176160515Y-90242868D01*
X176160552Y-90242872D01*
X176159491Y-90254313D01*
X176162835Y-90290395D01*
X176163100Y-90296118D01*
X176163100Y-90306157D01*
X176164943Y-90316015D01*
X176165735Y-90321689D01*
X176169077Y-90357765D01*
X176172222Y-90368817D01*
X176172186Y-90368826D01*
X176173193Y-90371829D01*
X176173227Y-90371816D01*
X176177378Y-90382531D01*
X176196450Y-90413334D01*
X176199238Y-90418339D01*
X176215387Y-90450771D01*
X176222313Y-90459942D01*
X176222283Y-90459963D01*
X176224302Y-90462394D01*
X176224330Y-90462370D01*
X176232070Y-90470859D01*
X176232072Y-90470863D01*
X176260993Y-90492703D01*
X176265389Y-90496354D01*
X176292170Y-90520768D01*
X176292172Y-90520769D01*
X176301940Y-90526817D01*
X176301919Y-90526849D01*
X176304681Y-90528388D01*
X176304699Y-90528354D01*
X176314981Y-90533474D01*
X176314983Y-90533474D01*
X176314984Y-90533475D01*
X176349845Y-90543393D01*
X176355259Y-90545208D01*
X176389051Y-90558300D01*
X176389052Y-90558300D01*
X176400347Y-90560412D01*
X176400340Y-90560448D01*
X176403468Y-90560884D01*
X176403472Y-90560848D01*
X176414913Y-90561908D01*
X176414913Y-90561907D01*
X176414914Y-90561908D01*
X176423267Y-90561134D01*
X176450996Y-90558565D01*
X176456719Y-90558300D01*
X179002029Y-90558300D01*
X179069068Y-90577985D01*
X179089710Y-90594619D01*
X181580946Y-93085856D01*
X181614431Y-93147179D01*
X181609447Y-93216871D01*
X181567575Y-93272804D01*
X181519046Y-93294827D01*
X181338485Y-93333206D01*
X181164502Y-93410668D01*
X181010421Y-93522613D01*
X180882988Y-93664141D01*
X180882983Y-93664148D01*
X180787758Y-93829084D01*
X180728907Y-94010210D01*
X180727282Y-94025672D01*
X180713990Y-94152135D01*
X180713990Y-95755865D01*
X180723735Y-95848580D01*
X180728907Y-95897789D01*
X180779026Y-96052041D01*
X180787759Y-96078917D01*
X180792388Y-96086935D01*
X180882983Y-96243851D01*
X180882988Y-96243858D01*
X181010420Y-96385385D01*
X181010422Y-96385387D01*
X181164497Y-96497329D01*
X181164498Y-96497329D01*
X181164499Y-96497330D01*
X181211379Y-96518202D01*
X181264616Y-96563451D01*
X181284939Y-96630299D01*
X181265895Y-96697524D01*
X181248626Y-96719163D01*
X177166009Y-100801781D01*
X177104686Y-100835266D01*
X177078328Y-100838100D01*
X175675070Y-100838100D01*
X175608031Y-100818415D01*
X175562276Y-100765611D01*
X175552332Y-100696453D01*
X175581357Y-100632897D01*
X175587389Y-100626419D01*
X177378403Y-98835405D01*
X179235184Y-96978624D01*
X179241666Y-96972984D01*
X179250369Y-96966412D01*
X179250373Y-96966411D01*
X179280115Y-96933784D01*
X179282022Y-96931786D01*
X179294715Y-96919095D01*
X179295932Y-96917317D01*
X179301271Y-96910577D01*
X179301273Y-96910575D01*
X179320368Y-96889630D01*
X179322290Y-96884666D01*
X179335617Y-96859385D01*
X179338625Y-96854995D01*
X179345117Y-96827385D01*
X179347655Y-96819190D01*
X179357900Y-96792749D01*
X179357900Y-96787425D01*
X179361194Y-96759035D01*
X179361194Y-96759034D01*
X179362412Y-96753857D01*
X179358494Y-96725775D01*
X179357900Y-96717202D01*
X179357900Y-96656929D01*
X179377585Y-96589890D01*
X179430389Y-96544135D01*
X179431418Y-96543669D01*
X179535500Y-96497330D01*
X179689579Y-96385386D01*
X179774420Y-96291158D01*
X179817011Y-96243858D01*
X179817016Y-96243852D01*
X179912241Y-96078917D01*
X179971093Y-95897788D01*
X179986010Y-95755865D01*
X179986010Y-94152135D01*
X179971093Y-94010212D01*
X179912241Y-93829083D01*
X179844971Y-93712568D01*
X179817016Y-93664148D01*
X179817011Y-93664141D01*
X179689579Y-93522614D01*
X179689577Y-93522612D01*
X179535502Y-93410670D01*
X179535501Y-93410669D01*
X179405238Y-93352673D01*
X179361515Y-93333207D01*
X179361513Y-93333206D01*
X179175226Y-93293610D01*
X178984774Y-93293610D01*
X178798485Y-93333206D01*
X178624502Y-93410668D01*
X178470421Y-93522613D01*
X178342988Y-93664141D01*
X178342983Y-93664148D01*
X178247758Y-93829084D01*
X178188907Y-94010210D01*
X178187282Y-94025672D01*
X178173990Y-94152135D01*
X178173990Y-95755865D01*
X178183735Y-95848580D01*
X178188907Y-95897789D01*
X178239026Y-96052041D01*
X178247759Y-96078917D01*
X178252388Y-96086935D01*
X178342983Y-96243851D01*
X178342988Y-96243858D01*
X178470420Y-96385385D01*
X178470422Y-96385387D01*
X178624497Y-96497329D01*
X178624498Y-96497329D01*
X178624499Y-96497330D01*
X178671379Y-96518202D01*
X178724616Y-96563451D01*
X178744939Y-96630299D01*
X178725895Y-96697524D01*
X178708626Y-96719163D01*
X175231609Y-100196181D01*
X175170286Y-100229666D01*
X175143928Y-100232500D01*
X173737611Y-100232500D01*
X173670572Y-100212815D01*
X173624817Y-100160011D01*
X173614873Y-100090853D01*
X173643898Y-100027297D01*
X173667532Y-100006202D01*
X173667765Y-100006041D01*
X173667765Y-100006040D01*
X173667771Y-100006038D01*
X173671531Y-100002277D01*
X173693939Y-99984528D01*
X173698463Y-99981728D01*
X173715560Y-99959086D01*
X173721182Y-99952625D01*
X176695184Y-96978624D01*
X176701666Y-96972984D01*
X176710369Y-96966412D01*
X176710373Y-96966411D01*
X176740115Y-96933784D01*
X176742022Y-96931786D01*
X176754715Y-96919095D01*
X176755927Y-96917324D01*
X176761271Y-96910577D01*
X176761273Y-96910575D01*
X176780368Y-96889630D01*
X176782290Y-96884667D01*
X176795616Y-96859385D01*
X176798625Y-96854994D01*
X176805118Y-96827383D01*
X176807654Y-96819195D01*
X176817900Y-96792749D01*
X176817900Y-96787425D01*
X176821194Y-96759034D01*
X176822412Y-96753856D01*
X176818494Y-96725774D01*
X176817900Y-96717201D01*
X176817900Y-96656929D01*
X176837585Y-96589890D01*
X176890389Y-96544135D01*
X176891418Y-96543669D01*
X176995500Y-96497330D01*
X177149579Y-96385386D01*
X177234420Y-96291158D01*
X177277011Y-96243858D01*
X177277016Y-96243852D01*
X177372241Y-96078917D01*
X177431093Y-95897788D01*
X177446010Y-95755865D01*
X177446010Y-94152135D01*
X177431093Y-94010212D01*
X177372241Y-93829083D01*
X177304971Y-93712568D01*
X177277016Y-93664148D01*
X177277011Y-93664141D01*
X177149579Y-93522614D01*
X177149577Y-93522612D01*
X176995502Y-93410670D01*
X176995501Y-93410669D01*
X176865238Y-93352673D01*
X176821515Y-93333207D01*
X176821513Y-93333206D01*
X176635226Y-93293610D01*
X176444774Y-93293610D01*
X176258485Y-93333206D01*
X176084502Y-93410668D01*
X175930421Y-93522613D01*
X175802988Y-93664141D01*
X175802983Y-93664148D01*
X175707758Y-93829084D01*
X175648907Y-94010210D01*
X175647282Y-94025672D01*
X175633990Y-94152135D01*
X175633990Y-95755865D01*
X175643735Y-95848580D01*
X175648907Y-95897789D01*
X175699026Y-96052041D01*
X175707759Y-96078917D01*
X175712388Y-96086935D01*
X175802983Y-96243851D01*
X175802988Y-96243858D01*
X175930420Y-96385385D01*
X175930422Y-96385387D01*
X176084497Y-96497329D01*
X176084498Y-96497329D01*
X176084499Y-96497330D01*
X176131379Y-96518202D01*
X176184616Y-96563451D01*
X176204939Y-96630299D01*
X176185895Y-96697524D01*
X176168626Y-96719163D01*
X173429209Y-99458581D01*
X173367886Y-99492066D01*
X173341528Y-99494900D01*
X171938271Y-99494900D01*
X171871232Y-99475215D01*
X171825477Y-99422411D01*
X171815533Y-99353253D01*
X171844558Y-99289697D01*
X171850590Y-99283219D01*
X172993156Y-98140653D01*
X174155184Y-96978624D01*
X174161666Y-96972984D01*
X174170369Y-96966412D01*
X174170373Y-96966411D01*
X174200115Y-96933784D01*
X174202022Y-96931786D01*
X174214715Y-96919095D01*
X174215927Y-96917324D01*
X174221271Y-96910577D01*
X174221273Y-96910575D01*
X174240368Y-96889630D01*
X174242290Y-96884667D01*
X174255616Y-96859385D01*
X174258625Y-96854994D01*
X174265118Y-96827383D01*
X174267654Y-96819195D01*
X174277900Y-96792749D01*
X174277900Y-96787425D01*
X174281194Y-96759035D01*
X174281194Y-96759034D01*
X174282412Y-96753857D01*
X174278494Y-96725775D01*
X174277900Y-96717202D01*
X174277900Y-96656929D01*
X174297585Y-96589890D01*
X174350389Y-96544135D01*
X174351418Y-96543669D01*
X174455500Y-96497330D01*
X174609579Y-96385386D01*
X174694420Y-96291158D01*
X174737011Y-96243858D01*
X174737016Y-96243852D01*
X174832241Y-96078917D01*
X174891093Y-95897788D01*
X174906010Y-95755865D01*
X174906010Y-94152135D01*
X174891093Y-94010212D01*
X174832241Y-93829083D01*
X174764971Y-93712568D01*
X174737016Y-93664148D01*
X174737011Y-93664141D01*
X174609579Y-93522614D01*
X174609577Y-93522612D01*
X174455502Y-93410670D01*
X174455501Y-93410669D01*
X174325238Y-93352673D01*
X174281515Y-93333207D01*
X174281513Y-93333206D01*
X174095226Y-93293610D01*
X173904774Y-93293610D01*
X173718485Y-93333206D01*
X173544502Y-93410668D01*
X173390421Y-93522613D01*
X173262988Y-93664141D01*
X173262983Y-93664148D01*
X173167758Y-93829084D01*
X173108907Y-94010210D01*
X173107282Y-94025672D01*
X173093990Y-94152135D01*
X173093990Y-95755865D01*
X173103735Y-95848580D01*
X173108907Y-95897789D01*
X173159026Y-96052041D01*
X173167759Y-96078917D01*
X173172388Y-96086935D01*
X173262983Y-96243851D01*
X173262988Y-96243858D01*
X173390420Y-96385385D01*
X173390422Y-96385387D01*
X173544497Y-96497329D01*
X173544498Y-96497329D01*
X173544499Y-96497330D01*
X173591379Y-96518202D01*
X173644616Y-96563451D01*
X173664939Y-96630299D01*
X173645895Y-96697524D01*
X173628626Y-96719163D01*
X171341409Y-99006381D01*
X171280086Y-99039866D01*
X171253728Y-99042700D01*
X169825043Y-99042700D01*
X169758004Y-99023015D01*
X169712249Y-98970211D01*
X169702305Y-98901053D01*
X169731330Y-98837497D01*
X169759745Y-98813286D01*
X169760499Y-98812818D01*
X169766839Y-98808892D01*
X169774427Y-98804892D01*
X169800371Y-98793438D01*
X169804131Y-98789677D01*
X169826539Y-98771928D01*
X169831063Y-98769128D01*
X169848160Y-98746486D01*
X169853782Y-98740025D01*
X171615184Y-96978624D01*
X171621666Y-96972984D01*
X171630369Y-96966412D01*
X171630373Y-96966411D01*
X171660115Y-96933784D01*
X171662022Y-96931786D01*
X171674715Y-96919095D01*
X171675927Y-96917324D01*
X171681271Y-96910577D01*
X171681273Y-96910575D01*
X171700368Y-96889630D01*
X171702290Y-96884667D01*
X171715616Y-96859385D01*
X171718625Y-96854994D01*
X171725118Y-96827383D01*
X171727654Y-96819195D01*
X171737900Y-96792749D01*
X171737900Y-96787425D01*
X171741194Y-96759035D01*
X171741194Y-96759034D01*
X171742412Y-96753857D01*
X171738494Y-96725775D01*
X171737900Y-96717202D01*
X171737900Y-96656929D01*
X171757585Y-96589890D01*
X171810389Y-96544135D01*
X171811418Y-96543669D01*
X171915500Y-96497330D01*
X172069579Y-96385386D01*
X172154420Y-96291158D01*
X172197011Y-96243858D01*
X172197016Y-96243852D01*
X172292241Y-96078917D01*
X172351093Y-95897788D01*
X172366010Y-95755865D01*
X172366010Y-94152135D01*
X172351093Y-94010212D01*
X172292241Y-93829083D01*
X172224971Y-93712568D01*
X172197016Y-93664148D01*
X172197011Y-93664141D01*
X172069579Y-93522614D01*
X172069577Y-93522612D01*
X171915502Y-93410670D01*
X171915501Y-93410669D01*
X171785238Y-93352673D01*
X171741515Y-93333207D01*
X171741513Y-93333206D01*
X171555226Y-93293610D01*
X171364774Y-93293610D01*
X171178485Y-93333206D01*
X171004502Y-93410668D01*
X170850421Y-93522613D01*
X170722988Y-93664141D01*
X170722983Y-93664148D01*
X170627758Y-93829084D01*
X170568907Y-94010210D01*
X170567282Y-94025672D01*
X170553990Y-94152135D01*
X170553990Y-95755865D01*
X170563735Y-95848580D01*
X170568907Y-95897789D01*
X170619026Y-96052041D01*
X170627759Y-96078917D01*
X170632388Y-96086935D01*
X170722983Y-96243851D01*
X170722988Y-96243858D01*
X170850420Y-96385385D01*
X170850422Y-96385387D01*
X171004497Y-96497329D01*
X171004498Y-96497329D01*
X171004499Y-96497330D01*
X171051379Y-96518202D01*
X171104616Y-96563451D01*
X171124939Y-96630299D01*
X171105895Y-96697524D01*
X171088626Y-96719163D01*
X169561809Y-98245981D01*
X169500486Y-98279466D01*
X169474128Y-98282300D01*
X168070871Y-98282300D01*
X168003832Y-98262615D01*
X167958077Y-98209811D01*
X167948133Y-98140653D01*
X167977158Y-98077097D01*
X167983190Y-98070619D01*
X168388990Y-97664819D01*
X169075184Y-96978624D01*
X169081666Y-96972984D01*
X169090369Y-96966412D01*
X169090373Y-96966411D01*
X169120115Y-96933784D01*
X169122022Y-96931786D01*
X169134715Y-96919095D01*
X169135927Y-96917324D01*
X169141271Y-96910577D01*
X169141273Y-96910575D01*
X169160368Y-96889630D01*
X169162290Y-96884667D01*
X169175616Y-96859385D01*
X169178625Y-96854994D01*
X169185118Y-96827383D01*
X169187654Y-96819195D01*
X169197900Y-96792749D01*
X169197900Y-96787425D01*
X169201194Y-96759035D01*
X169201194Y-96759034D01*
X169202412Y-96753857D01*
X169198494Y-96725775D01*
X169197900Y-96717202D01*
X169197900Y-96656929D01*
X169217585Y-96589890D01*
X169270389Y-96544135D01*
X169271418Y-96543669D01*
X169375500Y-96497330D01*
X169529579Y-96385386D01*
X169614420Y-96291158D01*
X169657011Y-96243858D01*
X169657016Y-96243852D01*
X169752241Y-96078917D01*
X169811093Y-95897788D01*
X169826010Y-95755865D01*
X169826010Y-94152135D01*
X169811093Y-94010212D01*
X169752241Y-93829083D01*
X169684971Y-93712568D01*
X169657016Y-93664148D01*
X169657011Y-93664141D01*
X169529579Y-93522614D01*
X169529577Y-93522612D01*
X169375502Y-93410670D01*
X169375501Y-93410669D01*
X169245238Y-93352673D01*
X169201515Y-93333207D01*
X169201513Y-93333206D01*
X169015226Y-93293610D01*
X168824774Y-93293610D01*
X168638485Y-93333206D01*
X168464502Y-93410668D01*
X168310421Y-93522613D01*
X168182988Y-93664141D01*
X168182983Y-93664148D01*
X168087758Y-93829084D01*
X168028907Y-94010210D01*
X168027282Y-94025672D01*
X168013990Y-94152135D01*
X168013990Y-95755865D01*
X168023735Y-95848580D01*
X168028907Y-95897789D01*
X168079026Y-96052041D01*
X168087759Y-96078917D01*
X168092388Y-96086935D01*
X168182983Y-96243851D01*
X168182988Y-96243858D01*
X168310420Y-96385385D01*
X168310422Y-96385387D01*
X168464497Y-96497329D01*
X168464498Y-96497329D01*
X168464499Y-96497330D01*
X168511379Y-96518202D01*
X168564616Y-96563451D01*
X168584939Y-96630299D01*
X168565895Y-96697524D01*
X168548626Y-96719163D01*
X167427609Y-97840181D01*
X167366286Y-97873666D01*
X167339928Y-97876500D01*
X165936671Y-97876500D01*
X165869632Y-97856815D01*
X165823877Y-97804011D01*
X165813933Y-97734853D01*
X165842958Y-97671297D01*
X165848990Y-97664819D01*
X166188196Y-97325613D01*
X166535184Y-96978624D01*
X166541666Y-96972984D01*
X166550369Y-96966412D01*
X166550373Y-96966411D01*
X166580115Y-96933784D01*
X166582022Y-96931786D01*
X166594715Y-96919095D01*
X166595927Y-96917324D01*
X166601271Y-96910577D01*
X166601273Y-96910575D01*
X166620368Y-96889630D01*
X166622290Y-96884667D01*
X166635616Y-96859385D01*
X166638625Y-96854994D01*
X166645118Y-96827383D01*
X166647654Y-96819195D01*
X166657900Y-96792749D01*
X166657900Y-96787425D01*
X166661194Y-96759035D01*
X166661194Y-96759034D01*
X166662412Y-96753857D01*
X166658494Y-96725775D01*
X166657900Y-96717202D01*
X166657900Y-96656929D01*
X166677585Y-96589890D01*
X166730389Y-96544135D01*
X166731418Y-96543669D01*
X166835500Y-96497330D01*
X166989579Y-96385386D01*
X167074420Y-96291158D01*
X167117011Y-96243858D01*
X167117016Y-96243852D01*
X167212241Y-96078917D01*
X167271093Y-95897788D01*
X167286010Y-95755865D01*
X167286010Y-94152135D01*
X167271093Y-94010212D01*
X167212241Y-93829083D01*
X167144971Y-93712568D01*
X167117016Y-93664148D01*
X167117011Y-93664141D01*
X166989579Y-93522614D01*
X166989577Y-93522612D01*
X166835502Y-93410670D01*
X166835501Y-93410669D01*
X166705238Y-93352673D01*
X166661515Y-93333207D01*
X166661513Y-93333206D01*
X166475226Y-93293610D01*
X166284774Y-93293610D01*
X166098485Y-93333206D01*
X165924502Y-93410668D01*
X165770421Y-93522613D01*
X165642988Y-93664141D01*
X165642983Y-93664148D01*
X165547758Y-93829084D01*
X165488907Y-94010210D01*
X165487282Y-94025672D01*
X165473990Y-94152135D01*
X165473990Y-95755865D01*
X165483735Y-95848580D01*
X165488907Y-95897789D01*
X165539026Y-96052041D01*
X165547759Y-96078917D01*
X165552388Y-96086935D01*
X165642983Y-96243851D01*
X165642988Y-96243858D01*
X165770420Y-96385385D01*
X165770422Y-96385387D01*
X165924497Y-96497329D01*
X165924498Y-96497329D01*
X165924499Y-96497330D01*
X165971379Y-96518202D01*
X166024616Y-96563451D01*
X166044939Y-96630299D01*
X166025895Y-96697524D01*
X166008626Y-96719163D01*
X165291909Y-97435881D01*
X165230586Y-97469366D01*
X165204228Y-97472200D01*
X163800970Y-97472200D01*
X163733931Y-97452515D01*
X163688176Y-97399711D01*
X163678232Y-97330553D01*
X163707257Y-97266997D01*
X163713289Y-97260519D01*
X163769009Y-97204799D01*
X163995189Y-96978619D01*
X164001662Y-96972988D01*
X164010369Y-96966412D01*
X164010373Y-96966411D01*
X164040104Y-96933795D01*
X164042033Y-96931774D01*
X164054715Y-96919095D01*
X164055933Y-96917316D01*
X164061260Y-96910589D01*
X164080368Y-96889630D01*
X164082290Y-96884667D01*
X164095616Y-96859385D01*
X164098625Y-96854994D01*
X164105118Y-96827383D01*
X164107654Y-96819195D01*
X164117900Y-96792749D01*
X164117900Y-96787425D01*
X164121194Y-96759034D01*
X164122412Y-96753856D01*
X164118494Y-96725774D01*
X164117900Y-96717201D01*
X164117900Y-96656929D01*
X164137585Y-96589890D01*
X164190389Y-96544135D01*
X164191418Y-96543669D01*
X164295500Y-96497330D01*
X164449579Y-96385386D01*
X164534420Y-96291158D01*
X164577011Y-96243858D01*
X164577016Y-96243852D01*
X164672241Y-96078917D01*
X164731093Y-95897788D01*
X164746010Y-95755865D01*
X164746010Y-94152135D01*
X164731093Y-94010212D01*
X164672241Y-93829083D01*
X164604971Y-93712568D01*
X164577016Y-93664148D01*
X164577011Y-93664141D01*
X164449579Y-93522614D01*
X164449577Y-93522612D01*
X164295502Y-93410670D01*
X164295501Y-93410669D01*
X164165238Y-93352673D01*
X164121515Y-93333207D01*
X164121513Y-93333206D01*
X163935226Y-93293610D01*
X163919160Y-93293610D01*
X163852121Y-93273925D01*
X163806366Y-93221121D01*
X163796422Y-93151963D01*
X163825447Y-93088407D01*
X163831479Y-93081929D01*
X164278943Y-92634466D01*
X166318791Y-90594619D01*
X166380114Y-90561134D01*
X166406472Y-90558300D01*
X171304935Y-90558300D01*
X171323468Y-90560884D01*
X171323472Y-90560848D01*
X171334913Y-90561908D01*
X171334913Y-90561907D01*
X171334914Y-90561908D01*
X171343267Y-90561134D01*
X171370996Y-90558565D01*
X171376719Y-90558300D01*
X171386750Y-90558300D01*
X171386753Y-90558300D01*
X171396633Y-90556452D01*
X171402266Y-90555666D01*
X171438368Y-90552322D01*
X171438370Y-90552320D01*
X171449424Y-90549177D01*
X171449434Y-90549214D01*
X171452425Y-90548211D01*
X171452411Y-90548175D01*
X171463122Y-90544024D01*
X171463128Y-90544023D01*
X171493942Y-90524942D01*
X171498932Y-90522163D01*
X171531373Y-90506011D01*
X171531374Y-90506010D01*
X171540543Y-90499086D01*
X171540566Y-90499117D01*
X171542997Y-90497098D01*
X171542971Y-90497069D01*
X171551459Y-90489330D01*
X171551463Y-90489328D01*
X171571820Y-90462370D01*
X171573296Y-90460416D01*
X171576950Y-90456013D01*
X171601368Y-90429230D01*
X171601369Y-90429227D01*
X171607417Y-90419459D01*
X171607451Y-90419480D01*
X171608988Y-90416720D01*
X171608953Y-90416703D01*
X171614074Y-90406418D01*
X171614505Y-90404906D01*
X171623992Y-90371559D01*
X171625812Y-90366131D01*
X171629053Y-90357765D01*
X171638900Y-90332349D01*
X171638900Y-90332347D01*
X171638901Y-90332345D01*
X171641012Y-90321054D01*
X171641049Y-90321060D01*
X171641485Y-90317934D01*
X171641448Y-90317931D01*
X171642508Y-90306487D01*
X171642477Y-90306157D01*
X171639165Y-90270403D01*
X171638900Y-90264680D01*
X171638900Y-90196529D01*
X171658585Y-90129490D01*
X171711389Y-90083735D01*
X171712418Y-90083269D01*
X171816500Y-90036930D01*
X171970579Y-89924986D01*
X172087142Y-89795529D01*
X172098011Y-89783458D01*
X172098016Y-89783451D01*
X172142192Y-89706936D01*
X172193241Y-89618517D01*
X172252093Y-89437388D01*
X172267010Y-89295465D01*
X172994990Y-89295465D01*
X173007420Y-89413734D01*
X173009907Y-89437389D01*
X173058218Y-89586077D01*
X173068759Y-89618517D01*
X173076523Y-89631965D01*
X173163983Y-89783451D01*
X173163988Y-89783458D01*
X173291420Y-89924985D01*
X173291422Y-89924987D01*
X173445497Y-90036929D01*
X173445498Y-90036930D01*
X173501882Y-90062033D01*
X173619485Y-90114393D01*
X173805774Y-90153990D01*
X173996226Y-90153990D01*
X174182515Y-90114393D01*
X174356500Y-90036930D01*
X174510579Y-89924986D01*
X174627142Y-89795529D01*
X174638011Y-89783458D01*
X174638016Y-89783451D01*
X174682192Y-89706936D01*
X174733241Y-89618517D01*
X174792093Y-89437388D01*
X174807010Y-89295465D01*
X174807010Y-87691735D01*
X174792093Y-87549812D01*
X174733241Y-87368683D01*
X174678262Y-87273458D01*
X174638016Y-87203748D01*
X174638011Y-87203741D01*
X174510579Y-87062214D01*
X174510577Y-87062212D01*
X174356502Y-86950270D01*
X174356501Y-86950269D01*
X174226238Y-86892273D01*
X174182515Y-86872807D01*
X174182513Y-86872806D01*
X173996226Y-86833210D01*
X173805774Y-86833210D01*
X173619485Y-86872806D01*
X173445502Y-86950268D01*
X173291421Y-87062213D01*
X173163988Y-87203741D01*
X173163983Y-87203748D01*
X173068758Y-87368684D01*
X173009907Y-87549810D01*
X173009907Y-87549812D01*
X172994990Y-87691735D01*
X172994990Y-89295465D01*
X172267010Y-89295465D01*
X172267010Y-87691735D01*
X172252093Y-87549812D01*
X172193241Y-87368683D01*
X172138262Y-87273458D01*
X172098016Y-87203748D01*
X172098011Y-87203741D01*
X171970579Y-87062214D01*
X171970577Y-87062212D01*
X171816502Y-86950270D01*
X171816501Y-86950269D01*
X171686238Y-86892273D01*
X171642515Y-86872807D01*
X171642513Y-86872806D01*
X171456226Y-86833210D01*
X171265774Y-86833210D01*
X171079485Y-86872806D01*
X170905502Y-86950268D01*
X170751421Y-87062213D01*
X170623988Y-87203741D01*
X170623983Y-87203748D01*
X170528758Y-87368684D01*
X170469907Y-87549810D01*
X170469907Y-87549812D01*
X170454990Y-87691735D01*
X170454990Y-89295465D01*
X170467420Y-89413734D01*
X170469907Y-89437389D01*
X170518218Y-89586077D01*
X170528759Y-89618517D01*
X170536523Y-89631965D01*
X170623983Y-89783451D01*
X170623988Y-89783458D01*
X170634857Y-89795529D01*
X170665086Y-89858521D01*
X170656460Y-89927856D01*
X170611718Y-89981521D01*
X170545065Y-90002478D01*
X170542706Y-90002500D01*
X169639294Y-90002500D01*
X169572255Y-89982815D01*
X169526500Y-89930011D01*
X169516556Y-89860853D01*
X169545581Y-89797297D01*
X169547143Y-89795529D01*
X169558011Y-89783458D01*
X169558016Y-89783451D01*
X169602192Y-89706936D01*
X169653241Y-89618517D01*
X169712093Y-89437388D01*
X169727010Y-89295465D01*
X169727010Y-87691735D01*
X169712093Y-87549812D01*
X169653241Y-87368683D01*
X169598262Y-87273458D01*
X169558016Y-87203748D01*
X169558011Y-87203741D01*
X169430579Y-87062214D01*
X169430577Y-87062212D01*
X169276502Y-86950270D01*
X169276501Y-86950269D01*
X169146238Y-86892273D01*
X169102515Y-86872807D01*
X169102513Y-86872806D01*
X168916226Y-86833210D01*
X168725774Y-86833210D01*
X168539485Y-86872806D01*
X168365502Y-86950268D01*
X168211421Y-87062213D01*
X168083988Y-87203741D01*
X168083983Y-87203748D01*
X167988758Y-87368684D01*
X167929907Y-87549810D01*
X167929907Y-87549812D01*
X167914990Y-87691735D01*
X167914990Y-89295465D01*
X167927420Y-89413734D01*
X167929907Y-89437389D01*
X167978218Y-89586077D01*
X167988759Y-89618517D01*
X167996523Y-89631965D01*
X168083983Y-89783451D01*
X168083988Y-89783458D01*
X168094857Y-89795529D01*
X168125086Y-89858521D01*
X168116460Y-89927856D01*
X168071718Y-89981521D01*
X168005065Y-90002478D01*
X168002706Y-90002500D01*
X167099294Y-90002500D01*
X167032255Y-89982815D01*
X166986500Y-89930011D01*
X166976556Y-89860853D01*
X167005581Y-89797297D01*
X167007143Y-89795529D01*
X167018011Y-89783458D01*
X167018016Y-89783451D01*
X167062192Y-89706936D01*
X167113241Y-89618517D01*
X167172093Y-89437388D01*
X167187010Y-89295465D01*
X167187010Y-87691735D01*
X167172093Y-87549812D01*
X167113241Y-87368683D01*
X167058262Y-87273458D01*
X167018016Y-87203748D01*
X167018011Y-87203741D01*
X166890579Y-87062214D01*
X166890577Y-87062212D01*
X166736502Y-86950270D01*
X166736501Y-86950269D01*
X166606238Y-86892273D01*
X166562515Y-86872807D01*
X166562513Y-86872806D01*
X166376226Y-86833210D01*
X166185774Y-86833210D01*
X165999485Y-86872806D01*
X165825502Y-86950268D01*
X165671421Y-87062213D01*
X165543988Y-87203741D01*
X165543983Y-87203748D01*
X165448758Y-87368684D01*
X165389907Y-87549810D01*
X165389907Y-87549812D01*
X165374990Y-87691735D01*
X165374990Y-89295465D01*
X165387420Y-89413734D01*
X165389907Y-89437389D01*
X165438218Y-89586077D01*
X165448759Y-89618517D01*
X165456523Y-89631965D01*
X165543983Y-89783451D01*
X165543988Y-89783458D01*
X165671420Y-89924985D01*
X165671422Y-89924987D01*
X165825497Y-90036929D01*
X165825499Y-90036930D01*
X165844007Y-90045170D01*
X165897245Y-90090418D01*
X165917569Y-90157267D01*
X165898526Y-90224491D01*
X165881256Y-90246132D01*
X162414821Y-93712568D01*
X162408341Y-93718207D01*
X162399628Y-93724787D01*
X162369904Y-93757391D01*
X162367930Y-93759458D01*
X162355282Y-93772108D01*
X162355279Y-93772110D01*
X162354055Y-93773898D01*
X162348729Y-93780619D01*
X162329630Y-93801572D01*
X162328405Y-93803550D01*
X162325250Y-93806377D01*
X162321895Y-93810058D01*
X162321522Y-93809718D01*
X162276371Y-93850179D01*
X162207388Y-93861274D01*
X162143357Y-93833313D01*
X162115599Y-93800259D01*
X162114791Y-93798860D01*
X162064971Y-93712568D01*
X162037016Y-93664148D01*
X162037011Y-93664141D01*
X161909579Y-93522614D01*
X161909577Y-93522612D01*
X161755502Y-93410670D01*
X161755501Y-93410669D01*
X161651465Y-93364350D01*
X161598228Y-93319100D01*
X161577906Y-93252251D01*
X161577900Y-93251070D01*
X161577900Y-93225643D01*
X161578495Y-93217067D01*
X161580001Y-93206264D01*
X161580003Y-93206259D01*
X161577966Y-93162193D01*
X161577900Y-93159330D01*
X161577900Y-93141449D01*
X161577900Y-93141447D01*
X161577504Y-93139333D01*
X161576514Y-93130795D01*
X161576206Y-93124128D01*
X161575205Y-93102473D01*
X161573054Y-93097603D01*
X161564601Y-93070303D01*
X161564368Y-93069060D01*
X161563623Y-93065072D01*
X161563620Y-93065067D01*
X161548696Y-93040963D01*
X161544688Y-93033359D01*
X161540265Y-93023342D01*
X161533239Y-93007429D01*
X161529476Y-93003666D01*
X161511729Y-92981260D01*
X161508929Y-92976738D01*
X161508926Y-92976736D01*
X161486298Y-92959648D01*
X161479816Y-92954006D01*
X160129831Y-91604021D01*
X160124187Y-91597535D01*
X160117610Y-91588826D01*
X160085018Y-91559114D01*
X160082946Y-91557136D01*
X160070293Y-91544483D01*
X160068512Y-91543263D01*
X160061777Y-91537927D01*
X160040830Y-91518832D01*
X160035862Y-91516907D01*
X160010588Y-91503585D01*
X160006194Y-91500575D01*
X160006193Y-91500574D01*
X160006192Y-91500574D01*
X159978591Y-91494081D01*
X159970383Y-91491539D01*
X159943950Y-91481300D01*
X159943949Y-91481300D01*
X159938626Y-91481300D01*
X159910236Y-91478006D01*
X159905057Y-91476788D01*
X159876975Y-91480705D01*
X159868402Y-91481300D01*
X157288972Y-91481300D01*
X157221933Y-91461615D01*
X157201291Y-91444981D01*
X156121981Y-90365671D01*
X156088496Y-90304348D01*
X156093480Y-90234656D01*
X156135352Y-90178723D01*
X156200816Y-90154306D01*
X156209662Y-90153990D01*
X156216226Y-90153990D01*
X156402515Y-90114393D01*
X156576500Y-90036930D01*
X156730579Y-89924986D01*
X156847142Y-89795529D01*
X156858011Y-89783458D01*
X156858016Y-89783451D01*
X156902192Y-89706936D01*
X156953241Y-89618517D01*
X157012093Y-89437388D01*
X157027010Y-89295465D01*
X157754990Y-89295465D01*
X157767420Y-89413734D01*
X157769907Y-89437389D01*
X157818218Y-89586077D01*
X157828759Y-89618517D01*
X157836523Y-89631965D01*
X157923983Y-89783451D01*
X157923988Y-89783458D01*
X158051420Y-89924985D01*
X158051422Y-89924987D01*
X158205497Y-90036929D01*
X158205498Y-90036930D01*
X158261882Y-90062033D01*
X158379485Y-90114393D01*
X158565774Y-90153990D01*
X158756226Y-90153990D01*
X158942515Y-90114393D01*
X159116500Y-90036930D01*
X159270579Y-89924986D01*
X159387142Y-89795529D01*
X159398011Y-89783458D01*
X159398016Y-89783451D01*
X159442192Y-89706936D01*
X159493241Y-89618517D01*
X159552093Y-89437388D01*
X159567010Y-89295465D01*
X160294990Y-89295465D01*
X160307420Y-89413734D01*
X160309907Y-89437389D01*
X160358218Y-89586077D01*
X160368759Y-89618517D01*
X160376523Y-89631965D01*
X160463983Y-89783451D01*
X160463988Y-89783458D01*
X160591420Y-89924985D01*
X160591422Y-89924987D01*
X160745497Y-90036929D01*
X160745498Y-90036930D01*
X160801882Y-90062033D01*
X160919485Y-90114393D01*
X161105774Y-90153990D01*
X161296226Y-90153990D01*
X161482515Y-90114393D01*
X161656500Y-90036930D01*
X161810579Y-89924986D01*
X161927142Y-89795529D01*
X161938011Y-89783458D01*
X161938016Y-89783451D01*
X161982192Y-89706936D01*
X162033241Y-89618517D01*
X162092093Y-89437388D01*
X162107010Y-89295465D01*
X162834990Y-89295465D01*
X162847420Y-89413734D01*
X162849907Y-89437389D01*
X162898218Y-89586077D01*
X162908759Y-89618517D01*
X162916523Y-89631965D01*
X163003983Y-89783451D01*
X163003988Y-89783458D01*
X163131420Y-89924985D01*
X163131422Y-89924987D01*
X163285497Y-90036929D01*
X163285498Y-90036930D01*
X163341882Y-90062033D01*
X163459485Y-90114393D01*
X163645774Y-90153990D01*
X163836226Y-90153990D01*
X164022515Y-90114393D01*
X164196500Y-90036930D01*
X164350579Y-89924986D01*
X164467142Y-89795529D01*
X164478011Y-89783458D01*
X164478016Y-89783451D01*
X164522192Y-89706936D01*
X164573241Y-89618517D01*
X164632093Y-89437388D01*
X164647010Y-89295465D01*
X164647010Y-87691735D01*
X164632093Y-87549812D01*
X164573241Y-87368683D01*
X164518262Y-87273458D01*
X164478016Y-87203748D01*
X164478011Y-87203741D01*
X164350579Y-87062214D01*
X164350577Y-87062212D01*
X164196502Y-86950270D01*
X164196501Y-86950269D01*
X164066238Y-86892273D01*
X164022515Y-86872807D01*
X164022513Y-86872806D01*
X163836226Y-86833210D01*
X163645774Y-86833210D01*
X163459485Y-86872806D01*
X163285502Y-86950268D01*
X163131421Y-87062213D01*
X163003988Y-87203741D01*
X163003983Y-87203748D01*
X162908758Y-87368684D01*
X162849907Y-87549810D01*
X162849907Y-87549812D01*
X162834990Y-87691735D01*
X162834990Y-89295465D01*
X162107010Y-89295465D01*
X162107010Y-87691735D01*
X162092093Y-87549812D01*
X162033241Y-87368683D01*
X161978262Y-87273458D01*
X161938016Y-87203748D01*
X161938011Y-87203741D01*
X161810579Y-87062214D01*
X161810577Y-87062212D01*
X161656502Y-86950270D01*
X161656501Y-86950269D01*
X161526238Y-86892273D01*
X161482515Y-86872807D01*
X161482513Y-86872806D01*
X161296226Y-86833210D01*
X161105774Y-86833210D01*
X160919485Y-86872806D01*
X160745502Y-86950268D01*
X160591421Y-87062213D01*
X160463988Y-87203741D01*
X160463983Y-87203748D01*
X160368758Y-87368684D01*
X160309907Y-87549810D01*
X160309907Y-87549812D01*
X160294990Y-87691735D01*
X160294990Y-89295465D01*
X159567010Y-89295465D01*
X159567010Y-87691735D01*
X159552093Y-87549812D01*
X159493241Y-87368683D01*
X159438262Y-87273458D01*
X159398016Y-87203748D01*
X159398011Y-87203741D01*
X159270579Y-87062214D01*
X159270577Y-87062212D01*
X159116502Y-86950270D01*
X159116501Y-86950269D01*
X158986238Y-86892273D01*
X158942515Y-86872807D01*
X158942513Y-86872806D01*
X158756226Y-86833210D01*
X158565774Y-86833210D01*
X158379485Y-86872806D01*
X158205502Y-86950268D01*
X158051421Y-87062213D01*
X157923988Y-87203741D01*
X157923983Y-87203748D01*
X157828758Y-87368684D01*
X157769907Y-87549810D01*
X157769907Y-87549812D01*
X157754990Y-87691735D01*
X157754990Y-89295465D01*
X157027010Y-89295465D01*
X157027010Y-87691735D01*
X157012093Y-87549812D01*
X156953241Y-87368683D01*
X156898262Y-87273458D01*
X156858016Y-87203748D01*
X156858011Y-87203741D01*
X156730579Y-87062214D01*
X156730577Y-87062212D01*
X156576502Y-86950270D01*
X156576501Y-86950269D01*
X156446238Y-86892273D01*
X156402515Y-86872807D01*
X156402513Y-86872806D01*
X156216226Y-86833210D01*
X156025774Y-86833210D01*
X155839485Y-86872806D01*
X155665502Y-86950268D01*
X155511421Y-87062213D01*
X155383988Y-87203741D01*
X155383983Y-87203748D01*
X155303510Y-87343133D01*
X155252943Y-87391349D01*
X155184336Y-87404572D01*
X155119471Y-87378604D01*
X155092063Y-87343295D01*
X155090732Y-87344208D01*
X155084238Y-87334728D01*
X155080476Y-87330966D01*
X155062729Y-87308560D01*
X155059929Y-87304038D01*
X155037301Y-87286950D01*
X155030816Y-87281306D01*
X153450131Y-85700621D01*
X153444487Y-85694135D01*
X153437910Y-85685426D01*
X153405318Y-85655714D01*
X153403246Y-85653736D01*
X153390593Y-85641083D01*
X153388812Y-85639863D01*
X153382077Y-85634527D01*
X153361130Y-85615432D01*
X153356162Y-85613507D01*
X153330888Y-85600185D01*
X153326494Y-85597175D01*
X153326493Y-85597174D01*
X153326492Y-85597174D01*
X153298891Y-85590681D01*
X153290683Y-85588139D01*
X153264250Y-85577900D01*
X153264249Y-85577900D01*
X153258926Y-85577900D01*
X153230536Y-85574606D01*
X153225357Y-85573388D01*
X153197275Y-85577305D01*
X153188702Y-85577900D01*
X129090446Y-85577900D01*
X129081871Y-85577305D01*
X129071061Y-85575797D01*
X129071059Y-85575797D01*
X129052092Y-85576673D01*
X129026994Y-85577834D01*
X129024131Y-85577900D01*
X129006237Y-85577900D01*
X129004118Y-85578296D01*
X128995595Y-85579284D01*
X128967277Y-85580594D01*
X128967272Y-85580595D01*
X128962396Y-85582748D01*
X128935112Y-85591197D01*
X128929872Y-85592176D01*
X128929871Y-85592177D01*
X128905762Y-85607103D01*
X128898164Y-85611108D01*
X128872229Y-85622560D01*
X128868463Y-85626327D01*
X128846066Y-85644067D01*
X128841536Y-85646871D01*
X128824445Y-85669502D01*
X128818804Y-85675985D01*
X128025821Y-86468968D01*
X128019341Y-86474607D01*
X128010628Y-86481187D01*
X127980904Y-86513791D01*
X127978930Y-86515858D01*
X127966282Y-86528508D01*
X127966279Y-86528510D01*
X127965055Y-86530298D01*
X127959729Y-86537019D01*
X127940631Y-86557970D01*
X127938705Y-86562942D01*
X127925391Y-86588202D01*
X127922376Y-86592604D01*
X127922374Y-86592608D01*
X127915882Y-86620206D01*
X127913341Y-86628413D01*
X127903100Y-86654850D01*
X127903100Y-86660172D01*
X127899807Y-86688557D01*
X127898588Y-86693737D01*
X127898588Y-86693743D01*
X127902505Y-86721821D01*
X127903100Y-86730397D01*
X127903100Y-86790670D01*
X127883415Y-86857709D01*
X127830611Y-86903464D01*
X127829536Y-86903950D01*
X127725500Y-86950269D01*
X127571421Y-87062213D01*
X127443988Y-87203741D01*
X127443983Y-87203748D01*
X127348758Y-87368684D01*
X127289907Y-87549810D01*
X127289907Y-87549812D01*
X127274990Y-87691735D01*
X127274990Y-89295465D01*
X127287420Y-89413734D01*
X127289907Y-89437389D01*
X127338218Y-89586077D01*
X127348759Y-89618517D01*
X127356523Y-89631965D01*
X127443983Y-89783451D01*
X127443988Y-89783458D01*
X127571420Y-89924985D01*
X127571422Y-89924987D01*
X127725497Y-90036929D01*
X127725498Y-90036930D01*
X127781882Y-90062033D01*
X127899485Y-90114393D01*
X128085774Y-90153990D01*
X128276226Y-90153990D01*
X128462515Y-90114393D01*
X128636500Y-90036930D01*
X128790579Y-89924986D01*
X128907142Y-89795529D01*
X128918011Y-89783458D01*
X128918016Y-89783451D01*
X128962192Y-89706936D01*
X129013241Y-89618517D01*
X129072093Y-89437388D01*
X129087010Y-89295465D01*
X129087010Y-87691735D01*
X129072093Y-87549812D01*
X129013241Y-87368683D01*
X128958262Y-87273458D01*
X128918016Y-87203748D01*
X128918011Y-87203741D01*
X128790579Y-87062214D01*
X128790577Y-87062212D01*
X128636502Y-86950270D01*
X128636496Y-86950267D01*
X128589618Y-86929395D01*
X128536381Y-86884145D01*
X128516060Y-86817296D01*
X128535106Y-86750072D01*
X128552368Y-86728440D01*
X129110791Y-86170019D01*
X129172114Y-86136534D01*
X129198472Y-86133700D01*
X130601727Y-86133700D01*
X130668766Y-86153385D01*
X130714521Y-86206189D01*
X130724465Y-86275347D01*
X130695440Y-86338903D01*
X130689416Y-86345373D01*
X130577196Y-86457593D01*
X130565821Y-86468968D01*
X130559340Y-86474607D01*
X130550630Y-86481186D01*
X130520904Y-86513791D01*
X130518930Y-86515858D01*
X130506282Y-86528508D01*
X130506279Y-86528510D01*
X130505055Y-86530298D01*
X130499729Y-86537019D01*
X130480631Y-86557970D01*
X130478705Y-86562942D01*
X130465391Y-86588202D01*
X130462376Y-86592604D01*
X130462374Y-86592608D01*
X130455882Y-86620206D01*
X130453341Y-86628413D01*
X130443100Y-86654850D01*
X130443100Y-86660172D01*
X130439807Y-86688557D01*
X130438588Y-86693737D01*
X130438588Y-86693743D01*
X130442505Y-86721821D01*
X130443100Y-86730397D01*
X130443100Y-86790670D01*
X130423415Y-86857709D01*
X130370611Y-86903464D01*
X130369536Y-86903950D01*
X130265500Y-86950269D01*
X130111421Y-87062213D01*
X129983988Y-87203741D01*
X129983983Y-87203748D01*
X129888758Y-87368684D01*
X129829907Y-87549810D01*
X129829907Y-87549812D01*
X129814990Y-87691735D01*
X129814990Y-89295465D01*
X129827420Y-89413734D01*
X129829907Y-89437389D01*
X129878218Y-89586077D01*
X129888759Y-89618517D01*
X129896523Y-89631965D01*
X129983983Y-89783451D01*
X129983988Y-89783458D01*
X130111420Y-89924985D01*
X130111422Y-89924987D01*
X130265497Y-90036929D01*
X130265498Y-90036930D01*
X130321882Y-90062033D01*
X130439485Y-90114393D01*
X130625774Y-90153990D01*
X130816226Y-90153990D01*
X131002515Y-90114393D01*
X131176500Y-90036930D01*
X131330579Y-89924986D01*
X131447142Y-89795529D01*
X131458011Y-89783458D01*
X131458016Y-89783451D01*
X131502192Y-89706936D01*
X131553241Y-89618517D01*
X131612093Y-89437388D01*
X131627010Y-89295465D01*
X131627010Y-87691735D01*
X131612093Y-87549812D01*
X131553241Y-87368683D01*
X131498262Y-87273458D01*
X131458016Y-87203748D01*
X131458011Y-87203741D01*
X131330579Y-87062214D01*
X131330577Y-87062212D01*
X131176502Y-86950270D01*
X131176496Y-86950267D01*
X131129618Y-86929395D01*
X131076381Y-86884145D01*
X131056060Y-86817296D01*
X131075106Y-86750072D01*
X131092363Y-86728445D01*
X131228992Y-86591816D01*
X131290315Y-86558334D01*
X131316672Y-86555500D01*
X135395073Y-86555500D01*
X135462112Y-86575185D01*
X135507867Y-86627989D01*
X135514932Y-86669597D01*
X135518432Y-86669273D01*
X135522835Y-86716795D01*
X135523100Y-86722518D01*
X135523100Y-86790670D01*
X135503415Y-86857709D01*
X135450611Y-86903464D01*
X135449536Y-86903950D01*
X135345500Y-86950269D01*
X135191421Y-87062213D01*
X135063988Y-87203741D01*
X135063983Y-87203748D01*
X134968758Y-87368684D01*
X134909907Y-87549810D01*
X134909907Y-87549812D01*
X134894990Y-87691735D01*
X134894990Y-89295465D01*
X134907420Y-89413734D01*
X134909907Y-89437389D01*
X134958218Y-89586077D01*
X134968759Y-89618517D01*
X134976523Y-89631965D01*
X135063983Y-89783451D01*
X135063988Y-89783458D01*
X135191420Y-89924985D01*
X135191422Y-89924987D01*
X135345497Y-90036929D01*
X135345498Y-90036930D01*
X135401882Y-90062033D01*
X135519485Y-90114393D01*
X135705774Y-90153990D01*
X135896226Y-90153990D01*
X136082515Y-90114393D01*
X136256500Y-90036930D01*
X136410579Y-89924986D01*
X136527142Y-89795529D01*
X136538011Y-89783458D01*
X136538016Y-89783451D01*
X136582192Y-89706936D01*
X136633241Y-89618517D01*
X136692093Y-89437388D01*
X136707010Y-89295465D01*
X136707010Y-87691735D01*
X136692093Y-87549812D01*
X136633241Y-87368683D01*
X136578262Y-87273458D01*
X136538016Y-87203748D01*
X136538011Y-87203741D01*
X136527143Y-87191671D01*
X136496914Y-87128679D01*
X136505540Y-87059344D01*
X136550282Y-87005679D01*
X136616935Y-86984722D01*
X136619294Y-86984700D01*
X137522706Y-86984700D01*
X137589745Y-87004385D01*
X137635500Y-87057189D01*
X137645444Y-87126347D01*
X137616419Y-87189903D01*
X137614857Y-87191671D01*
X137603988Y-87203741D01*
X137603983Y-87203748D01*
X137508758Y-87368684D01*
X137449907Y-87549810D01*
X137449907Y-87549812D01*
X137434990Y-87691735D01*
X137434990Y-89295465D01*
X137447420Y-89413734D01*
X137449907Y-89437389D01*
X137498218Y-89586077D01*
X137508759Y-89618517D01*
X137516523Y-89631965D01*
X137603983Y-89783451D01*
X137603988Y-89783458D01*
X137731420Y-89924985D01*
X137731422Y-89924987D01*
X137885497Y-90036929D01*
X137885498Y-90036930D01*
X137941882Y-90062033D01*
X138059485Y-90114393D01*
X138245774Y-90153990D01*
X138436226Y-90153990D01*
X138622515Y-90114393D01*
X138796500Y-90036930D01*
X138950579Y-89924986D01*
X139067142Y-89795529D01*
X139078011Y-89783458D01*
X139078016Y-89783451D01*
X139122192Y-89706936D01*
X139173241Y-89618517D01*
X139232093Y-89437388D01*
X139247010Y-89295465D01*
X139247010Y-87691735D01*
X139232093Y-87549812D01*
X139173241Y-87368683D01*
X139118262Y-87273458D01*
X139078016Y-87203748D01*
X139078011Y-87203741D01*
X139067143Y-87191671D01*
X139036914Y-87128679D01*
X139045540Y-87059344D01*
X139090282Y-87005679D01*
X139156935Y-86984722D01*
X139159294Y-86984700D01*
X140062706Y-86984700D01*
X140129745Y-87004385D01*
X140175500Y-87057189D01*
X140185444Y-87126347D01*
X140156419Y-87189903D01*
X140154857Y-87191671D01*
X140143988Y-87203741D01*
X140143983Y-87203748D01*
X140048758Y-87368684D01*
X139989907Y-87549810D01*
X139989907Y-87549812D01*
X139974990Y-87691735D01*
X139974990Y-89295465D01*
X139987420Y-89413734D01*
X139989907Y-89437389D01*
X140038218Y-89586077D01*
X140048759Y-89618517D01*
X140056523Y-89631965D01*
X140143983Y-89783451D01*
X140143988Y-89783458D01*
X140271420Y-89924985D01*
X140271422Y-89924987D01*
X140425497Y-90036929D01*
X140425498Y-90036930D01*
X140481882Y-90062033D01*
X140599485Y-90114393D01*
X140785774Y-90153990D01*
X140976226Y-90153990D01*
X141162515Y-90114393D01*
X141336500Y-90036930D01*
X141490579Y-89924986D01*
X141607142Y-89795529D01*
X141618011Y-89783458D01*
X141618016Y-89783451D01*
X141662192Y-89706936D01*
X141713241Y-89618517D01*
X141772093Y-89437388D01*
X141787010Y-89295465D01*
X141787010Y-87691735D01*
X141772093Y-87549812D01*
X141713241Y-87368683D01*
X141658262Y-87273458D01*
X141618016Y-87203748D01*
X141618011Y-87203741D01*
X141607143Y-87191671D01*
X141576914Y-87128679D01*
X141585540Y-87059344D01*
X141630282Y-87005679D01*
X141696935Y-86984722D01*
X141699294Y-86984700D01*
X142602706Y-86984700D01*
X142669745Y-87004385D01*
X142715500Y-87057189D01*
X142725444Y-87126347D01*
X142696419Y-87189903D01*
X142694857Y-87191671D01*
X142683988Y-87203741D01*
X142683983Y-87203748D01*
X142588758Y-87368684D01*
X142529907Y-87549810D01*
X142529907Y-87549812D01*
X142514990Y-87691735D01*
X142514990Y-89295465D01*
X142527420Y-89413734D01*
X142529907Y-89437389D01*
X142578218Y-89586077D01*
X142588759Y-89618517D01*
X142596523Y-89631965D01*
X142683983Y-89783451D01*
X142683988Y-89783458D01*
X142811420Y-89924985D01*
X142811422Y-89924987D01*
X142965497Y-90036929D01*
X142965498Y-90036930D01*
X143021882Y-90062033D01*
X143139485Y-90114393D01*
X143139487Y-90114393D01*
X143139488Y-90114394D01*
X143198905Y-90127023D01*
X143325774Y-90153990D01*
X143325778Y-90153990D01*
X143328704Y-90154612D01*
X143390186Y-90187804D01*
X143423963Y-90248967D01*
X143419311Y-90318681D01*
X143390605Y-90363583D01*
X140824821Y-92929368D01*
X140818341Y-92935007D01*
X140809628Y-92941587D01*
X140779904Y-92974191D01*
X140777930Y-92976258D01*
X140765282Y-92988908D01*
X140765279Y-92988910D01*
X140764055Y-92990698D01*
X140758729Y-92997419D01*
X140739631Y-93018370D01*
X140737705Y-93023342D01*
X140724391Y-93048602D01*
X140721376Y-93053004D01*
X140721374Y-93053008D01*
X140714882Y-93080606D01*
X140712341Y-93088813D01*
X140702100Y-93115250D01*
X140702100Y-93120572D01*
X140698807Y-93148957D01*
X140697588Y-93154137D01*
X140697588Y-93154143D01*
X140701505Y-93182221D01*
X140702100Y-93190797D01*
X140702100Y-93251070D01*
X140682415Y-93318109D01*
X140629611Y-93363864D01*
X140628536Y-93364350D01*
X140524500Y-93410669D01*
X140370421Y-93522613D01*
X140242988Y-93664141D01*
X140242983Y-93664148D01*
X140147758Y-93829084D01*
X140088907Y-94010210D01*
X140087282Y-94025672D01*
X140073990Y-94152135D01*
X140073990Y-95755865D01*
X140088907Y-95897788D01*
X140088907Y-95897790D01*
X140088962Y-95898307D01*
X140076393Y-95967037D01*
X140028661Y-96018061D01*
X139960920Y-96035179D01*
X139894679Y-96012957D01*
X139877960Y-95998950D01*
X139382329Y-95503319D01*
X139348844Y-95441996D01*
X139346010Y-95415638D01*
X139346010Y-94152139D01*
X139345086Y-94143347D01*
X139331093Y-94010212D01*
X139272241Y-93829083D01*
X139204971Y-93712568D01*
X139177016Y-93664148D01*
X139177011Y-93664141D01*
X139049579Y-93522614D01*
X139049577Y-93522612D01*
X138895502Y-93410670D01*
X138895501Y-93410669D01*
X138765238Y-93352673D01*
X138721515Y-93333207D01*
X138721513Y-93333206D01*
X138535226Y-93293610D01*
X138344774Y-93293610D01*
X138158485Y-93333206D01*
X137984502Y-93410668D01*
X137830421Y-93522613D01*
X137702988Y-93664141D01*
X137702983Y-93664149D01*
X137613922Y-93818407D01*
X137563355Y-93866623D01*
X137494748Y-93879845D01*
X137429883Y-93853877D01*
X137404235Y-93826484D01*
X137403240Y-93825032D01*
X137403239Y-93825029D01*
X137399476Y-93821266D01*
X137381729Y-93798860D01*
X137378929Y-93794338D01*
X137360762Y-93780619D01*
X137356298Y-93777248D01*
X137349816Y-93771606D01*
X133760454Y-90182244D01*
X133726969Y-90120921D01*
X133731953Y-90051229D01*
X133773825Y-89995296D01*
X133775138Y-89994327D01*
X133866629Y-89927856D01*
X133870577Y-89924988D01*
X133998011Y-89783458D01*
X133998016Y-89783451D01*
X134042192Y-89706936D01*
X134093241Y-89618517D01*
X134152093Y-89437388D01*
X134167010Y-89295465D01*
X134167010Y-87691735D01*
X134152093Y-87549812D01*
X134093241Y-87368683D01*
X134038262Y-87273458D01*
X133998016Y-87203748D01*
X133998011Y-87203741D01*
X133870579Y-87062214D01*
X133870577Y-87062212D01*
X133716502Y-86950270D01*
X133716501Y-86950269D01*
X133586238Y-86892273D01*
X133542515Y-86872807D01*
X133542513Y-86872806D01*
X133356226Y-86833210D01*
X133165774Y-86833210D01*
X132979485Y-86872806D01*
X132805502Y-86950268D01*
X132651421Y-87062213D01*
X132523988Y-87203741D01*
X132523983Y-87203748D01*
X132428758Y-87368684D01*
X132369907Y-87549810D01*
X132369907Y-87549812D01*
X132354990Y-87691735D01*
X132354990Y-89295465D01*
X132367420Y-89413734D01*
X132369907Y-89437389D01*
X132418218Y-89586077D01*
X132428759Y-89618517D01*
X132436523Y-89631965D01*
X132523983Y-89783451D01*
X132523988Y-89783458D01*
X132651420Y-89924985D01*
X132651422Y-89924987D01*
X132805497Y-90036929D01*
X132805501Y-90036931D01*
X132909534Y-90083249D01*
X132962772Y-90128499D01*
X132983094Y-90195347D01*
X132983100Y-90196529D01*
X132983100Y-90224335D01*
X132980515Y-90242868D01*
X132980552Y-90242872D01*
X132979491Y-90254313D01*
X132982835Y-90290395D01*
X132983100Y-90296118D01*
X132983100Y-90306157D01*
X132984943Y-90316015D01*
X132985735Y-90321689D01*
X132989077Y-90357765D01*
X132992222Y-90368817D01*
X132992186Y-90368826D01*
X132993193Y-90371829D01*
X132993227Y-90371816D01*
X132997378Y-90382531D01*
X133016450Y-90413334D01*
X133019238Y-90418339D01*
X133035387Y-90450771D01*
X133042313Y-90459942D01*
X133042283Y-90459963D01*
X133044302Y-90462394D01*
X133044330Y-90462370D01*
X133052070Y-90470859D01*
X133052072Y-90470863D01*
X133080993Y-90492703D01*
X133085389Y-90496354D01*
X133112170Y-90520768D01*
X133112172Y-90520769D01*
X133121940Y-90526817D01*
X133121919Y-90526849D01*
X133124681Y-90528388D01*
X133124699Y-90528354D01*
X133134981Y-90533474D01*
X133134983Y-90533474D01*
X133134984Y-90533475D01*
X133169845Y-90543393D01*
X133175259Y-90545208D01*
X133209051Y-90558300D01*
X133209052Y-90558300D01*
X133220347Y-90560412D01*
X133220340Y-90560448D01*
X133223468Y-90560884D01*
X133223472Y-90560848D01*
X133234913Y-90561908D01*
X133234913Y-90561907D01*
X133234914Y-90561908D01*
X133243267Y-90561134D01*
X133270996Y-90558565D01*
X133276719Y-90558300D01*
X133299129Y-90558300D01*
X133366168Y-90577985D01*
X133386810Y-90594619D01*
X135875246Y-93083055D01*
X135908731Y-93144378D01*
X135903747Y-93214070D01*
X135861875Y-93270003D01*
X135810667Y-93290081D01*
X135811130Y-93292259D01*
X135618485Y-93333206D01*
X135444502Y-93410668D01*
X135290421Y-93522613D01*
X135162988Y-93664141D01*
X135162983Y-93664148D01*
X135067758Y-93829084D01*
X135008907Y-94010210D01*
X135007282Y-94025672D01*
X134993990Y-94152135D01*
X134993990Y-95755865D01*
X135003735Y-95848580D01*
X135008907Y-95897789D01*
X135059026Y-96052041D01*
X135067759Y-96078917D01*
X135072388Y-96086935D01*
X135162983Y-96243851D01*
X135162988Y-96243858D01*
X135290420Y-96385385D01*
X135290422Y-96385387D01*
X135444497Y-96497329D01*
X135444498Y-96497330D01*
X135480146Y-96513201D01*
X135618485Y-96574793D01*
X135804774Y-96614390D01*
X135995226Y-96614390D01*
X136181515Y-96574793D01*
X136355500Y-96497330D01*
X136509579Y-96385386D01*
X136594420Y-96291158D01*
X136637011Y-96243858D01*
X136637016Y-96243852D01*
X136732241Y-96078917D01*
X136732242Y-96078913D01*
X136733534Y-96076676D01*
X136784100Y-96028461D01*
X136852707Y-96015237D01*
X136917572Y-96041205D01*
X136927635Y-96052041D01*
X136928634Y-96051043D01*
X136936761Y-96059169D01*
X136936762Y-96059171D01*
X136940523Y-96062932D01*
X136958265Y-96085331D01*
X136960251Y-96088537D01*
X136961073Y-96089864D01*
X136968565Y-96095521D01*
X136983701Y-96106951D01*
X136990182Y-96112591D01*
X138178575Y-97300985D01*
X138184212Y-97307464D01*
X138190789Y-97316173D01*
X138223391Y-97345894D01*
X138225452Y-97347862D01*
X138238105Y-97360515D01*
X138238108Y-97360517D01*
X138239883Y-97361733D01*
X138246621Y-97367071D01*
X138258981Y-97378338D01*
X138267570Y-97386168D01*
X138267573Y-97386169D01*
X138272530Y-97388090D01*
X138297811Y-97401414D01*
X138302206Y-97404425D01*
X138329816Y-97410918D01*
X138338003Y-97413454D01*
X138364451Y-97423700D01*
X138369774Y-97423700D01*
X138398163Y-97426993D01*
X138403343Y-97428212D01*
X138431424Y-97424294D01*
X138439998Y-97423700D01*
X153216557Y-97423700D01*
X153225133Y-97424295D01*
X153235936Y-97425801D01*
X153235941Y-97425803D01*
X153275392Y-97423979D01*
X153280006Y-97423766D01*
X153282869Y-97423700D01*
X153300745Y-97423700D01*
X153300753Y-97423700D01*
X153302864Y-97423305D01*
X153311389Y-97422314D01*
X153339727Y-97421005D01*
X153344587Y-97418858D01*
X153371903Y-97410399D01*
X153377128Y-97409423D01*
X153401236Y-97394494D01*
X153408828Y-97390492D01*
X153434771Y-97379038D01*
X153438532Y-97375276D01*
X153460931Y-97357533D01*
X153465463Y-97354728D01*
X153482556Y-97332091D01*
X153488179Y-97325628D01*
X153835189Y-96978619D01*
X153841662Y-96972988D01*
X153850369Y-96966412D01*
X153850373Y-96966411D01*
X153880104Y-96933795D01*
X153882033Y-96931774D01*
X153894715Y-96919095D01*
X153895926Y-96917326D01*
X153901263Y-96910585D01*
X153920368Y-96889630D01*
X153922290Y-96884666D01*
X153935617Y-96859385D01*
X153938625Y-96854995D01*
X153945117Y-96827385D01*
X153947655Y-96819190D01*
X153957900Y-96792749D01*
X153957900Y-96787425D01*
X153961194Y-96759034D01*
X153962412Y-96753857D01*
X153958495Y-96725776D01*
X153957900Y-96717202D01*
X153957900Y-96656929D01*
X153977585Y-96589890D01*
X154030389Y-96544135D01*
X154031418Y-96543669D01*
X154135500Y-96497330D01*
X154289579Y-96385386D01*
X154374420Y-96291158D01*
X154417011Y-96243858D01*
X154417016Y-96243852D01*
X154512241Y-96078917D01*
X154571093Y-95897788D01*
X154586010Y-95755865D01*
X154586010Y-94152135D01*
X154571093Y-94010212D01*
X154512241Y-93829083D01*
X154444971Y-93712568D01*
X154417016Y-93664148D01*
X154417011Y-93664141D01*
X154289579Y-93522614D01*
X154289577Y-93522612D01*
X154135502Y-93410670D01*
X154135501Y-93410669D01*
X154005238Y-93352673D01*
X153961515Y-93333207D01*
X153961513Y-93333206D01*
X153775226Y-93293610D01*
X153584774Y-93293610D01*
X153398485Y-93333206D01*
X153224502Y-93410668D01*
X153070421Y-93522613D01*
X152942988Y-93664141D01*
X152942983Y-93664148D01*
X152847758Y-93829084D01*
X152788907Y-94010210D01*
X152787282Y-94025672D01*
X152773990Y-94152135D01*
X152773990Y-95755865D01*
X152783735Y-95848580D01*
X152788907Y-95897789D01*
X152839026Y-96052041D01*
X152847759Y-96078917D01*
X152852388Y-96086935D01*
X152942983Y-96243851D01*
X152942988Y-96243858D01*
X153070420Y-96385385D01*
X153070422Y-96385387D01*
X153224497Y-96497329D01*
X153224498Y-96497329D01*
X153224499Y-96497330D01*
X153271379Y-96518202D01*
X153324616Y-96563451D01*
X153344939Y-96630299D01*
X153325895Y-96697524D01*
X153308627Y-96719163D01*
X153196207Y-96831582D01*
X153134887Y-96865066D01*
X153108528Y-96867900D01*
X142000671Y-96867900D01*
X141933632Y-96848215D01*
X141887877Y-96795411D01*
X141877933Y-96726253D01*
X141906958Y-96662697D01*
X141912990Y-96656219D01*
X142071880Y-96497329D01*
X142262684Y-96306524D01*
X142269166Y-96300884D01*
X142277869Y-96294312D01*
X142277873Y-96294311D01*
X142307615Y-96261684D01*
X142309522Y-96259686D01*
X142322215Y-96246995D01*
X142323427Y-96245224D01*
X142328771Y-96238477D01*
X142347868Y-96217530D01*
X142349790Y-96212567D01*
X142363116Y-96187285D01*
X142366125Y-96182894D01*
X142372618Y-96155283D01*
X142375154Y-96147095D01*
X142385400Y-96120649D01*
X142385400Y-96115326D01*
X142388694Y-96086935D01*
X142389070Y-96085335D01*
X142389912Y-96081757D01*
X142385994Y-96053675D01*
X142385400Y-96045102D01*
X142385400Y-95931254D01*
X142405085Y-95864215D01*
X142457889Y-95818460D01*
X142527047Y-95808516D01*
X142590603Y-95837541D01*
X142627331Y-95892936D01*
X142628906Y-95897785D01*
X142628907Y-95897788D01*
X142649529Y-95961256D01*
X142679026Y-96052041D01*
X142687759Y-96078917D01*
X142692388Y-96086935D01*
X142782983Y-96243851D01*
X142782988Y-96243858D01*
X142910420Y-96385385D01*
X142910422Y-96385387D01*
X143064497Y-96497329D01*
X143064498Y-96497330D01*
X143100146Y-96513201D01*
X143238485Y-96574793D01*
X143424774Y-96614390D01*
X143615226Y-96614390D01*
X143801515Y-96574793D01*
X143975500Y-96497330D01*
X144129579Y-96385386D01*
X144214420Y-96291158D01*
X144257011Y-96243858D01*
X144257016Y-96243852D01*
X144352241Y-96078917D01*
X144411093Y-95897788D01*
X144426010Y-95755865D01*
X144426010Y-94152135D01*
X144411093Y-94010212D01*
X144352241Y-93829083D01*
X144284971Y-93712568D01*
X144257016Y-93664148D01*
X144257011Y-93664141D01*
X144129580Y-93522615D01*
X144129577Y-93522613D01*
X143984789Y-93417418D01*
X143942124Y-93362088D01*
X143936145Y-93292475D01*
X143968751Y-93230680D01*
X144029590Y-93196322D01*
X144057675Y-93193100D01*
X145522326Y-93193100D01*
X145589365Y-93212785D01*
X145635120Y-93265589D01*
X145645064Y-93334747D01*
X145616039Y-93398303D01*
X145595211Y-93417419D01*
X145450421Y-93522613D01*
X145322988Y-93664141D01*
X145322983Y-93664148D01*
X145227758Y-93829084D01*
X145168907Y-94010210D01*
X145167282Y-94025672D01*
X145153990Y-94152135D01*
X145153990Y-95755865D01*
X145163735Y-95848580D01*
X145168907Y-95897789D01*
X145219026Y-96052041D01*
X145227759Y-96078917D01*
X145232388Y-96086935D01*
X145322983Y-96243851D01*
X145322988Y-96243858D01*
X145450420Y-96385385D01*
X145450422Y-96385387D01*
X145604497Y-96497329D01*
X145604498Y-96497330D01*
X145640146Y-96513201D01*
X145778485Y-96574793D01*
X145964774Y-96614390D01*
X146155226Y-96614390D01*
X146341515Y-96574793D01*
X146515500Y-96497330D01*
X146669579Y-96385386D01*
X146754420Y-96291158D01*
X146797011Y-96243858D01*
X146797016Y-96243852D01*
X146892241Y-96078917D01*
X146951093Y-95897788D01*
X146966010Y-95755865D01*
X147693990Y-95755865D01*
X147703735Y-95848580D01*
X147708907Y-95897789D01*
X147759026Y-96052041D01*
X147767759Y-96078917D01*
X147772388Y-96086935D01*
X147862983Y-96243851D01*
X147862988Y-96243858D01*
X147990420Y-96385385D01*
X147990422Y-96385387D01*
X148144497Y-96497329D01*
X148144498Y-96497330D01*
X148180146Y-96513201D01*
X148318485Y-96574793D01*
X148504774Y-96614390D01*
X148695226Y-96614390D01*
X148881515Y-96574793D01*
X149055500Y-96497330D01*
X149209579Y-96385386D01*
X149294420Y-96291158D01*
X149337011Y-96243858D01*
X149337016Y-96243852D01*
X149432241Y-96078917D01*
X149491093Y-95897788D01*
X149506010Y-95755865D01*
X149506010Y-94152135D01*
X149491093Y-94010212D01*
X149432241Y-93829083D01*
X149364971Y-93712568D01*
X149337016Y-93664148D01*
X149337011Y-93664141D01*
X149209579Y-93522614D01*
X149209577Y-93522612D01*
X149055502Y-93410670D01*
X149055501Y-93410669D01*
X148925238Y-93352673D01*
X148881515Y-93333207D01*
X148881513Y-93333206D01*
X148695226Y-93293610D01*
X148504774Y-93293610D01*
X148318485Y-93333206D01*
X148144502Y-93410668D01*
X147990421Y-93522613D01*
X147862988Y-93664141D01*
X147862983Y-93664148D01*
X147767758Y-93829084D01*
X147708907Y-94010210D01*
X147707282Y-94025672D01*
X147693990Y-94152135D01*
X147693990Y-95755865D01*
X146966010Y-95755865D01*
X146966010Y-94152135D01*
X146951093Y-94010212D01*
X146892241Y-93829083D01*
X146824971Y-93712568D01*
X146797016Y-93664148D01*
X146797011Y-93664141D01*
X146669579Y-93522614D01*
X146669577Y-93522612D01*
X146515502Y-93410670D01*
X146515501Y-93410669D01*
X146385238Y-93352673D01*
X146341515Y-93333207D01*
X146341513Y-93333206D01*
X146341512Y-93333206D01*
X146152292Y-93292986D01*
X146090810Y-93259794D01*
X146057034Y-93198630D01*
X146061686Y-93128916D01*
X146090390Y-93084017D01*
X148656184Y-90518224D01*
X148662666Y-90512584D01*
X148671369Y-90506012D01*
X148671373Y-90506011D01*
X148701115Y-90473384D01*
X148703022Y-90471386D01*
X148715715Y-90458695D01*
X148716927Y-90456924D01*
X148722271Y-90450177D01*
X148727968Y-90443928D01*
X148741368Y-90429230D01*
X148743290Y-90424267D01*
X148756616Y-90398985D01*
X148759625Y-90394594D01*
X148766118Y-90366983D01*
X148768654Y-90358795D01*
X148778900Y-90332349D01*
X148778900Y-90327026D01*
X148782194Y-90298635D01*
X148782786Y-90296118D01*
X148783412Y-90293457D01*
X148779494Y-90265375D01*
X148778900Y-90256802D01*
X148778900Y-90196529D01*
X148798585Y-90129490D01*
X148851389Y-90083735D01*
X148852418Y-90083269D01*
X148956500Y-90036930D01*
X149110579Y-89924986D01*
X149227142Y-89795529D01*
X149238011Y-89783458D01*
X149238016Y-89783451D01*
X149261713Y-89742407D01*
X149312279Y-89694192D01*
X149380886Y-89680968D01*
X149445751Y-89706936D01*
X149486280Y-89763850D01*
X149493100Y-89804407D01*
X149493100Y-91739754D01*
X149492505Y-91748329D01*
X149490997Y-91759138D01*
X149493034Y-91803206D01*
X149493100Y-91806069D01*
X149493100Y-91823955D01*
X149493495Y-91826071D01*
X149494484Y-91834599D01*
X149495794Y-91862927D01*
X149497944Y-91867795D01*
X149506398Y-91895094D01*
X149507376Y-91900326D01*
X149507376Y-91900327D01*
X149507377Y-91900328D01*
X149520092Y-91920864D01*
X149522304Y-91924435D01*
X149526312Y-91932040D01*
X149537760Y-91957968D01*
X149537761Y-91957969D01*
X149537762Y-91957971D01*
X149541523Y-91961732D01*
X149559265Y-91984131D01*
X149562072Y-91988663D01*
X149584701Y-92005751D01*
X149591183Y-92011392D01*
X150768627Y-93188836D01*
X150802112Y-93250159D01*
X150797128Y-93319851D01*
X150755256Y-93375784D01*
X150731381Y-93389797D01*
X150684502Y-93410668D01*
X150530421Y-93522613D01*
X150402988Y-93664141D01*
X150402983Y-93664148D01*
X150307758Y-93829084D01*
X150248907Y-94010210D01*
X150247282Y-94025672D01*
X150233990Y-94152135D01*
X150233990Y-95755865D01*
X150243735Y-95848580D01*
X150248907Y-95897789D01*
X150299026Y-96052041D01*
X150307759Y-96078917D01*
X150312388Y-96086935D01*
X150402983Y-96243851D01*
X150402988Y-96243858D01*
X150530420Y-96385385D01*
X150530422Y-96385387D01*
X150684497Y-96497329D01*
X150684498Y-96497330D01*
X150720146Y-96513201D01*
X150858485Y-96574793D01*
X151044774Y-96614390D01*
X151235226Y-96614390D01*
X151421515Y-96574793D01*
X151595500Y-96497330D01*
X151749579Y-96385386D01*
X151834420Y-96291158D01*
X151877011Y-96243858D01*
X151877016Y-96243852D01*
X151972241Y-96078917D01*
X152031093Y-95897788D01*
X152046010Y-95755865D01*
X152046010Y-94152135D01*
X152031093Y-94010212D01*
X151972241Y-93829083D01*
X151904971Y-93712568D01*
X151877016Y-93664148D01*
X151877011Y-93664141D01*
X151749579Y-93522614D01*
X151749577Y-93522612D01*
X151595502Y-93410670D01*
X151595501Y-93410669D01*
X151491465Y-93364350D01*
X151438228Y-93319100D01*
X151417906Y-93252251D01*
X151417900Y-93251070D01*
X151417900Y-93225642D01*
X151418495Y-93217066D01*
X151420001Y-93206264D01*
X151420003Y-93206259D01*
X151417966Y-93162200D01*
X151417900Y-93159337D01*
X151417900Y-93141449D01*
X151417900Y-93141447D01*
X151417503Y-93139328D01*
X151416513Y-93130790D01*
X151416426Y-93128916D01*
X151415204Y-93102473D01*
X151413052Y-93097601D01*
X151404601Y-93070303D01*
X151403623Y-93065072D01*
X151388688Y-93040952D01*
X151384694Y-93033376D01*
X151373238Y-93007428D01*
X151369474Y-93003664D01*
X151351728Y-92981260D01*
X151348928Y-92976737D01*
X151326298Y-92959648D01*
X151319816Y-92954006D01*
X150085219Y-91719409D01*
X150051734Y-91658086D01*
X150048900Y-91631728D01*
X150048900Y-89804407D01*
X150068585Y-89737368D01*
X150121389Y-89691613D01*
X150190547Y-89681669D01*
X150254103Y-89710694D01*
X150280287Y-89742407D01*
X150303983Y-89783451D01*
X150303988Y-89783458D01*
X150431420Y-89924985D01*
X150431422Y-89924987D01*
X150585497Y-90036929D01*
X150585498Y-90036930D01*
X150641882Y-90062033D01*
X150759485Y-90114393D01*
X150945774Y-90153990D01*
X151136226Y-90153990D01*
X151322515Y-90114393D01*
X151496500Y-90036930D01*
X151650579Y-89924986D01*
X151767142Y-89795529D01*
X151778011Y-89783458D01*
X151778014Y-89783454D01*
X151778016Y-89783451D01*
X151864134Y-89634289D01*
X151914698Y-89586077D01*
X151983305Y-89572853D01*
X152048170Y-89598821D01*
X152073818Y-89626215D01*
X152077757Y-89631965D01*
X152077761Y-89631969D01*
X152077762Y-89631971D01*
X152081523Y-89635732D01*
X152099265Y-89658131D01*
X152102072Y-89662663D01*
X152124701Y-89679751D01*
X152131183Y-89685392D01*
X155715100Y-93269310D01*
X155748585Y-93330633D01*
X155743601Y-93400325D01*
X155701729Y-93456258D01*
X155700304Y-93457309D01*
X155610423Y-93522610D01*
X155482988Y-93664141D01*
X155482983Y-93664148D01*
X155387758Y-93829084D01*
X155328907Y-94010210D01*
X155327282Y-94025672D01*
X155313990Y-94152135D01*
X155313990Y-95755865D01*
X155323735Y-95848580D01*
X155328907Y-95897789D01*
X155379026Y-96052041D01*
X155387759Y-96078917D01*
X155392388Y-96086935D01*
X155482983Y-96243851D01*
X155482984Y-96243852D01*
X155486926Y-96248230D01*
X155517155Y-96311222D01*
X155508529Y-96380557D01*
X155463788Y-96434223D01*
X155452105Y-96440747D01*
X155339366Y-96513198D01*
X155339366Y-96513199D01*
X155254079Y-96611625D01*
X155254078Y-96611627D01*
X155199976Y-96730091D01*
X155181443Y-96859000D01*
X155199976Y-96987908D01*
X155214039Y-97018700D01*
X155254079Y-97106374D01*
X155339364Y-97204799D01*
X155339366Y-97204800D01*
X155339366Y-97204801D01*
X155383188Y-97232962D01*
X155448924Y-97275208D01*
X155536687Y-97300978D01*
X155573882Y-97311900D01*
X155576628Y-97311900D01*
X155579263Y-97312673D01*
X155582659Y-97313162D01*
X155582588Y-97313650D01*
X155643667Y-97331585D01*
X155689422Y-97384389D01*
X155699366Y-97453547D01*
X155670341Y-97517103D01*
X155664309Y-97523581D01*
X154740509Y-98447381D01*
X154679186Y-98480866D01*
X154652828Y-98483700D01*
X133964643Y-98483700D01*
X133956067Y-98483105D01*
X133945259Y-98481597D01*
X133901194Y-98483634D01*
X133898331Y-98483700D01*
X133880437Y-98483700D01*
X133878318Y-98484096D01*
X133869795Y-98485084D01*
X133841477Y-98486394D01*
X133841472Y-98486395D01*
X133836596Y-98488548D01*
X133809310Y-98496997D01*
X133804074Y-98497976D01*
X133804070Y-98497977D01*
X133779968Y-98512900D01*
X133772368Y-98516906D01*
X133746429Y-98528361D01*
X133746427Y-98528362D01*
X133742663Y-98532127D01*
X133720266Y-98549867D01*
X133715736Y-98552671D01*
X133698645Y-98575302D01*
X133693004Y-98581785D01*
X130565821Y-101708968D01*
X130559341Y-101714607D01*
X130550628Y-101721187D01*
X130520904Y-101753791D01*
X130518930Y-101755858D01*
X130506282Y-101768508D01*
X130506279Y-101768510D01*
X130505055Y-101770298D01*
X130499729Y-101777019D01*
X130480631Y-101797970D01*
X130478705Y-101802942D01*
X130465391Y-101828202D01*
X130462376Y-101832604D01*
X130462374Y-101832608D01*
X130455882Y-101860206D01*
X130453341Y-101868413D01*
X130443100Y-101894850D01*
X130443100Y-101900172D01*
X130439807Y-101928557D01*
X130438588Y-101933737D01*
X130438588Y-101933743D01*
X130441950Y-101957847D01*
X130442505Y-101961821D01*
X130443100Y-101970397D01*
X130443100Y-102030670D01*
X130423415Y-102097709D01*
X130370611Y-102143464D01*
X130369536Y-102143950D01*
X130265500Y-102190269D01*
X130111421Y-102302213D01*
X129983988Y-102443741D01*
X129983986Y-102443745D01*
X129960287Y-102484793D01*
X129909720Y-102533008D01*
X129841112Y-102546230D01*
X129776248Y-102520262D01*
X129735720Y-102463348D01*
X129728900Y-102422792D01*
X129728900Y-95755865D01*
X132453990Y-95755865D01*
X132463735Y-95848580D01*
X132468907Y-95897789D01*
X132519026Y-96052041D01*
X132527759Y-96078917D01*
X132532388Y-96086935D01*
X132622983Y-96243851D01*
X132622988Y-96243858D01*
X132750420Y-96385385D01*
X132750422Y-96385387D01*
X132904497Y-96497329D01*
X132904498Y-96497330D01*
X132940146Y-96513201D01*
X133078485Y-96574793D01*
X133264774Y-96614390D01*
X133455226Y-96614390D01*
X133641515Y-96574793D01*
X133815500Y-96497330D01*
X133969579Y-96385386D01*
X134054420Y-96291158D01*
X134097011Y-96243858D01*
X134097016Y-96243852D01*
X134192241Y-96078917D01*
X134251093Y-95897788D01*
X134266010Y-95755865D01*
X134266010Y-94152135D01*
X134251093Y-94010212D01*
X134192241Y-93829083D01*
X134124971Y-93712568D01*
X134097016Y-93664148D01*
X134097011Y-93664141D01*
X133969579Y-93522614D01*
X133969577Y-93522612D01*
X133815502Y-93410670D01*
X133815501Y-93410669D01*
X133685238Y-93352673D01*
X133641515Y-93333207D01*
X133641513Y-93333206D01*
X133455226Y-93293610D01*
X133264774Y-93293610D01*
X133078485Y-93333206D01*
X132904502Y-93410668D01*
X132750421Y-93522613D01*
X132622988Y-93664141D01*
X132622983Y-93664148D01*
X132527758Y-93829084D01*
X132468907Y-94010210D01*
X132467282Y-94025672D01*
X132453990Y-94152135D01*
X132453990Y-95755865D01*
X129728900Y-95755865D01*
X129728900Y-94148843D01*
X129729495Y-94140267D01*
X129731001Y-94129464D01*
X129731003Y-94129459D01*
X129728966Y-94085393D01*
X129728900Y-94082530D01*
X129728900Y-94064649D01*
X129728900Y-94064647D01*
X129728504Y-94062533D01*
X129727514Y-94053995D01*
X129726205Y-94025673D01*
X129724054Y-94020803D01*
X129715601Y-93993503D01*
X129715368Y-93992260D01*
X129714623Y-93988272D01*
X129714620Y-93988267D01*
X129699696Y-93964163D01*
X129695688Y-93956559D01*
X129693983Y-93952698D01*
X129684239Y-93930629D01*
X129680476Y-93926866D01*
X129662729Y-93904460D01*
X129659929Y-93899938D01*
X129637301Y-93882850D01*
X129630816Y-93877206D01*
X126012373Y-90258763D01*
X125978888Y-90197440D01*
X125983872Y-90127748D01*
X126025744Y-90071815D01*
X126049615Y-90057804D01*
X126096500Y-90036930D01*
X126250579Y-89924986D01*
X126367142Y-89795529D01*
X126378011Y-89783458D01*
X126378016Y-89783451D01*
X126422192Y-89706936D01*
X126473241Y-89618517D01*
X126532093Y-89437388D01*
X126547010Y-89295465D01*
X126547010Y-87691735D01*
X126532093Y-87549812D01*
X126473241Y-87368683D01*
X126418262Y-87273458D01*
X126378016Y-87203748D01*
X126378011Y-87203741D01*
X126250579Y-87062214D01*
X126250577Y-87062212D01*
X126096502Y-86950270D01*
X126096501Y-86950269D01*
X125966238Y-86892273D01*
X125922515Y-86872807D01*
X125922513Y-86872806D01*
X125736226Y-86833210D01*
X125545774Y-86833210D01*
X125359485Y-86872806D01*
X125185502Y-86950268D01*
X125031421Y-87062213D01*
X124903988Y-87203741D01*
X124903983Y-87203748D01*
X124808758Y-87368684D01*
X124749907Y-87549810D01*
X124749907Y-87549812D01*
X124734990Y-87691735D01*
X124734990Y-89295465D01*
X124747420Y-89413734D01*
X124749907Y-89437389D01*
X124798218Y-89586077D01*
X124808759Y-89618517D01*
X124816523Y-89631965D01*
X124903983Y-89783451D01*
X124903988Y-89783458D01*
X125031420Y-89924985D01*
X125031422Y-89924987D01*
X125185497Y-90036929D01*
X125185501Y-90036931D01*
X125289534Y-90083249D01*
X125342772Y-90128499D01*
X125363094Y-90195347D01*
X125363100Y-90196529D01*
X125363100Y-90221954D01*
X125362505Y-90230529D01*
X125360997Y-90241338D01*
X125360997Y-90241340D01*
X125360997Y-90241341D01*
X125361350Y-90248967D01*
X125363034Y-90285406D01*
X125363100Y-90288269D01*
X125363100Y-90306155D01*
X125363495Y-90308271D01*
X125364484Y-90316799D01*
X125365794Y-90345127D01*
X125367944Y-90349995D01*
X125376398Y-90377294D01*
X125377376Y-90382526D01*
X125377376Y-90382527D01*
X125377377Y-90382528D01*
X125392169Y-90406418D01*
X125392304Y-90406635D01*
X125396312Y-90414240D01*
X125407760Y-90440168D01*
X125407761Y-90440169D01*
X125407762Y-90440171D01*
X125411523Y-90443932D01*
X125429265Y-90466331D01*
X125432072Y-90470863D01*
X125432073Y-90470864D01*
X125435455Y-90473418D01*
X125454701Y-90487951D01*
X125461183Y-90493592D01*
X129136781Y-94169190D01*
X129170266Y-94230513D01*
X129173100Y-94256871D01*
X129173100Y-102422792D01*
X129153415Y-102489831D01*
X129100611Y-102535586D01*
X129031453Y-102545530D01*
X128967897Y-102516505D01*
X128941713Y-102484793D01*
X128929680Y-102463952D01*
X128918015Y-102443747D01*
X128918012Y-102443744D01*
X128918011Y-102443741D01*
X128790579Y-102302214D01*
X128790577Y-102302212D01*
X128636502Y-102190270D01*
X128636501Y-102190269D01*
X128506238Y-102132273D01*
X128462515Y-102112807D01*
X128462513Y-102112806D01*
X128276226Y-102073210D01*
X128085774Y-102073210D01*
X127899485Y-102112806D01*
X127725502Y-102190268D01*
X127571421Y-102302213D01*
X127443988Y-102443741D01*
X127443983Y-102443748D01*
X127348758Y-102608684D01*
X127289907Y-102789810D01*
X127289907Y-102789812D01*
X127274990Y-102931735D01*
X127274990Y-104535465D01*
X127285887Y-104639141D01*
X127289907Y-104677389D01*
X127348758Y-104858515D01*
X127443983Y-105023451D01*
X127443988Y-105023458D01*
X127571420Y-105164985D01*
X127571422Y-105164987D01*
X127725497Y-105276929D01*
X127725498Y-105276930D01*
X127772376Y-105297801D01*
X127899485Y-105354393D01*
X128085774Y-105393990D01*
X128276226Y-105393990D01*
X128462515Y-105354393D01*
X128636500Y-105276930D01*
X128790579Y-105164986D01*
X128907142Y-105035529D01*
X128918011Y-105023458D01*
X128918014Y-105023454D01*
X128918016Y-105023451D01*
X129013241Y-104858517D01*
X129013243Y-104858508D01*
X129014819Y-104855780D01*
X129065386Y-104807564D01*
X129133993Y-104794340D01*
X129198858Y-104820308D01*
X129209884Y-104830094D01*
X129221519Y-104841728D01*
X129239265Y-104864131D01*
X129240983Y-104866904D01*
X129242073Y-104868664D01*
X129245160Y-104870995D01*
X129264701Y-104885751D01*
X129271182Y-104891391D01*
X130941575Y-106561785D01*
X130947212Y-106568264D01*
X130953789Y-106576973D01*
X130986391Y-106606694D01*
X130988452Y-106608662D01*
X131001105Y-106621315D01*
X131001108Y-106621317D01*
X131002883Y-106622533D01*
X131009621Y-106627871D01*
X131027765Y-106644411D01*
X131030570Y-106646968D01*
X131030573Y-106646969D01*
X131035530Y-106648890D01*
X131060811Y-106662214D01*
X131065206Y-106665225D01*
X131092816Y-106671718D01*
X131101003Y-106674254D01*
X131127451Y-106684500D01*
X131132774Y-106684500D01*
X131161163Y-106687793D01*
X131166343Y-106689012D01*
X131194424Y-106685094D01*
X131202998Y-106684500D01*
X131918429Y-106684500D01*
X131985468Y-106704185D01*
X132006110Y-106720819D01*
X133353220Y-108067929D01*
X133386705Y-108129252D01*
X133381721Y-108198944D01*
X133339849Y-108254877D01*
X133274385Y-108279294D01*
X133265539Y-108279610D01*
X133264774Y-108279610D01*
X133078485Y-108319206D01*
X132904502Y-108396668D01*
X132750421Y-108508613D01*
X132622988Y-108650141D01*
X132622983Y-108650148D01*
X132527758Y-108815084D01*
X132468907Y-108996210D01*
X132466788Y-109016369D01*
X132453990Y-109138135D01*
X132453990Y-110741865D01*
X132466420Y-110860134D01*
X132468907Y-110883789D01*
X132527757Y-111064913D01*
X132527759Y-111064917D01*
X132533559Y-111074963D01*
X132622983Y-111229851D01*
X132622988Y-111229858D01*
X132750420Y-111371385D01*
X132750422Y-111371387D01*
X132904497Y-111483329D01*
X132904498Y-111483330D01*
X132962494Y-111509151D01*
X133078485Y-111560793D01*
X133264774Y-111600390D01*
X133455226Y-111600390D01*
X133641515Y-111560793D01*
X133815500Y-111483330D01*
X133969579Y-111371386D01*
X134086142Y-111241929D01*
X134097011Y-111229858D01*
X134097016Y-111229851D01*
X134123220Y-111184464D01*
X134192241Y-111064917D01*
X134192243Y-111064910D01*
X134194886Y-111058977D01*
X134196037Y-111059489D01*
X134231590Y-111007480D01*
X134295945Y-110980273D01*
X134364793Y-110992178D01*
X134416275Y-111039415D01*
X134423528Y-111053369D01*
X134428041Y-111063588D01*
X134436498Y-111090894D01*
X134437476Y-111096126D01*
X134437476Y-111096127D01*
X134437477Y-111096128D01*
X134438299Y-111097456D01*
X134452404Y-111120235D01*
X134456412Y-111127840D01*
X134467860Y-111153768D01*
X134467861Y-111153769D01*
X134467862Y-111153771D01*
X134471623Y-111157532D01*
X134489365Y-111179931D01*
X134492172Y-111184463D01*
X134514801Y-111201551D01*
X134521282Y-111207191D01*
X137033175Y-113719085D01*
X137038812Y-113725564D01*
X137045389Y-113734273D01*
X137077991Y-113763994D01*
X137080052Y-113765962D01*
X137092705Y-113778615D01*
X137092708Y-113778617D01*
X137094483Y-113779833D01*
X137101221Y-113785171D01*
X137110231Y-113793384D01*
X137122170Y-113804268D01*
X137122173Y-113804269D01*
X137127128Y-113806189D01*
X137152412Y-113819516D01*
X137154991Y-113821282D01*
X137156805Y-113822525D01*
X137184412Y-113829017D01*
X137192604Y-113831554D01*
X137219051Y-113841800D01*
X137224374Y-113841800D01*
X137252763Y-113845093D01*
X137257943Y-113846312D01*
X137286024Y-113842394D01*
X137294598Y-113841800D01*
X148366950Y-113841800D01*
X148433989Y-113861485D01*
X148479744Y-113914289D01*
X148489688Y-113983447D01*
X148471944Y-114031771D01*
X148398607Y-114148486D01*
X148398604Y-114148493D01*
X148338072Y-114321484D01*
X148322700Y-114457921D01*
X148322700Y-115562100D01*
X148303015Y-115629139D01*
X148250211Y-115674894D01*
X148198700Y-115686100D01*
X136251072Y-115686100D01*
X136184033Y-115666415D01*
X136163391Y-115649781D01*
X126012373Y-105498763D01*
X125978888Y-105437440D01*
X125983872Y-105367748D01*
X126025744Y-105311815D01*
X126049615Y-105297804D01*
X126096500Y-105276930D01*
X126250579Y-105164986D01*
X126367142Y-105035529D01*
X126378011Y-105023458D01*
X126378016Y-105023451D01*
X126473241Y-104858517D01*
X126532093Y-104677388D01*
X126547010Y-104535465D01*
X126547010Y-102931735D01*
X126532093Y-102789812D01*
X126473241Y-102608683D01*
X126392558Y-102468936D01*
X126378016Y-102443748D01*
X126378011Y-102443741D01*
X126250579Y-102302214D01*
X126250577Y-102302212D01*
X126096502Y-102190270D01*
X126096501Y-102190269D01*
X125966238Y-102132273D01*
X125922515Y-102112807D01*
X125922513Y-102112806D01*
X125736226Y-102073210D01*
X125545774Y-102073210D01*
X125359485Y-102112806D01*
X125185502Y-102190268D01*
X125031421Y-102302213D01*
X124903988Y-102443741D01*
X124903983Y-102443748D01*
X124808758Y-102608684D01*
X124749907Y-102789810D01*
X124749907Y-102789812D01*
X124734990Y-102931735D01*
X124734990Y-104535465D01*
X124007010Y-104535465D01*
X124007010Y-102931735D01*
X123992093Y-102789812D01*
X123933241Y-102608683D01*
X123852558Y-102468936D01*
X123838016Y-102443748D01*
X123838011Y-102443741D01*
X123710579Y-102302214D01*
X123710577Y-102302212D01*
X123556502Y-102190270D01*
X123556501Y-102190269D01*
X123426238Y-102132273D01*
X123382515Y-102112807D01*
X123382513Y-102112806D01*
X123196226Y-102073210D01*
X123005774Y-102073210D01*
X122819485Y-102112806D01*
X122645502Y-102190268D01*
X122491421Y-102302213D01*
X122363988Y-102443741D01*
X122363983Y-102443748D01*
X122268758Y-102608684D01*
X122209907Y-102789810D01*
X122209907Y-102789812D01*
X122194990Y-102931735D01*
X122194990Y-104535465D01*
X121467010Y-104535465D01*
X121467010Y-102931735D01*
X121452093Y-102789812D01*
X121393241Y-102608683D01*
X121312558Y-102468936D01*
X121298016Y-102443748D01*
X121298011Y-102443741D01*
X121170579Y-102302214D01*
X121170577Y-102302212D01*
X121016502Y-102190270D01*
X121016501Y-102190269D01*
X120886238Y-102132273D01*
X120842515Y-102112807D01*
X120842513Y-102112806D01*
X120656226Y-102073210D01*
X120465774Y-102073210D01*
X120279485Y-102112806D01*
X120105502Y-102190268D01*
X119951421Y-102302213D01*
X119823988Y-102443741D01*
X119823983Y-102443748D01*
X119728758Y-102608684D01*
X119669907Y-102789810D01*
X119669907Y-102789812D01*
X119654990Y-102931735D01*
X119654990Y-104535465D01*
X118927010Y-104535465D01*
X118927010Y-102931735D01*
X118912093Y-102789812D01*
X118853241Y-102608683D01*
X118772558Y-102468936D01*
X118758016Y-102443748D01*
X118758011Y-102443741D01*
X118630579Y-102302214D01*
X118630577Y-102302212D01*
X118476502Y-102190270D01*
X118476501Y-102190269D01*
X118346238Y-102132273D01*
X118302515Y-102112807D01*
X118302513Y-102112806D01*
X118116226Y-102073210D01*
X117925774Y-102073210D01*
X117739485Y-102112806D01*
X117565502Y-102190268D01*
X117411421Y-102302213D01*
X117283988Y-102443741D01*
X117283983Y-102443748D01*
X117188758Y-102608684D01*
X117129907Y-102789810D01*
X117129907Y-102789812D01*
X117114990Y-102931735D01*
X117114990Y-104535465D01*
X107390500Y-104535465D01*
X107390500Y-89295465D01*
X117114990Y-89295465D01*
X117127420Y-89413734D01*
X117129907Y-89437389D01*
X117178218Y-89586077D01*
X117188759Y-89618517D01*
X117196523Y-89631965D01*
X117283983Y-89783451D01*
X117283988Y-89783458D01*
X117411420Y-89924985D01*
X117411422Y-89924987D01*
X117565497Y-90036929D01*
X117565498Y-90036930D01*
X117621882Y-90062033D01*
X117739485Y-90114393D01*
X117925774Y-90153990D01*
X118116226Y-90153990D01*
X118302515Y-90114393D01*
X118476500Y-90036930D01*
X118630579Y-89924986D01*
X118747142Y-89795529D01*
X118758011Y-89783458D01*
X118758016Y-89783451D01*
X118802192Y-89706936D01*
X118853241Y-89618517D01*
X118912093Y-89437388D01*
X118927010Y-89295465D01*
X119654990Y-89295465D01*
X119667420Y-89413734D01*
X119669907Y-89437389D01*
X119718218Y-89586077D01*
X119728759Y-89618517D01*
X119736523Y-89631965D01*
X119823983Y-89783451D01*
X119823988Y-89783458D01*
X119951420Y-89924985D01*
X119951422Y-89924987D01*
X120105497Y-90036929D01*
X120105498Y-90036930D01*
X120161882Y-90062033D01*
X120279485Y-90114393D01*
X120465774Y-90153990D01*
X120656226Y-90153990D01*
X120842515Y-90114393D01*
X121016500Y-90036930D01*
X121170579Y-89924986D01*
X121287142Y-89795529D01*
X121298011Y-89783458D01*
X121298016Y-89783451D01*
X121342192Y-89706936D01*
X121393241Y-89618517D01*
X121452093Y-89437388D01*
X121467010Y-89295465D01*
X122194990Y-89295465D01*
X122207420Y-89413734D01*
X122209907Y-89437389D01*
X122258218Y-89586077D01*
X122268759Y-89618517D01*
X122276523Y-89631965D01*
X122363983Y-89783451D01*
X122363988Y-89783458D01*
X122491420Y-89924985D01*
X122491422Y-89924987D01*
X122645497Y-90036929D01*
X122645498Y-90036930D01*
X122701882Y-90062033D01*
X122819485Y-90114393D01*
X123005774Y-90153990D01*
X123196226Y-90153990D01*
X123382515Y-90114393D01*
X123556500Y-90036930D01*
X123710579Y-89924986D01*
X123827142Y-89795529D01*
X123838011Y-89783458D01*
X123838016Y-89783451D01*
X123882192Y-89706936D01*
X123933241Y-89618517D01*
X123992093Y-89437388D01*
X124007010Y-89295465D01*
X124007010Y-87691735D01*
X123992093Y-87549812D01*
X123933241Y-87368683D01*
X123878262Y-87273458D01*
X123838016Y-87203748D01*
X123838011Y-87203741D01*
X123710579Y-87062214D01*
X123710577Y-87062212D01*
X123556502Y-86950270D01*
X123556501Y-86950269D01*
X123426238Y-86892273D01*
X123382515Y-86872807D01*
X123382513Y-86872806D01*
X123196226Y-86833210D01*
X123005774Y-86833210D01*
X122819485Y-86872806D01*
X122645502Y-86950268D01*
X122491421Y-87062213D01*
X122363988Y-87203741D01*
X122363983Y-87203748D01*
X122268758Y-87368684D01*
X122209907Y-87549810D01*
X122209907Y-87549812D01*
X122194990Y-87691735D01*
X122194990Y-89295465D01*
X121467010Y-89295465D01*
X121467010Y-87691735D01*
X121452093Y-87549812D01*
X121393241Y-87368683D01*
X121338262Y-87273458D01*
X121298016Y-87203748D01*
X121298011Y-87203741D01*
X121170579Y-87062214D01*
X121170577Y-87062212D01*
X121016502Y-86950270D01*
X121016501Y-86950269D01*
X120886238Y-86892273D01*
X120842515Y-86872807D01*
X120842513Y-86872806D01*
X120656226Y-86833210D01*
X120465774Y-86833210D01*
X120279485Y-86872806D01*
X120105502Y-86950268D01*
X119951421Y-87062213D01*
X119823988Y-87203741D01*
X119823983Y-87203748D01*
X119728758Y-87368684D01*
X119669907Y-87549810D01*
X119669907Y-87549812D01*
X119654990Y-87691735D01*
X119654990Y-89295465D01*
X118927010Y-89295465D01*
X118927010Y-87691735D01*
X118912093Y-87549812D01*
X118853241Y-87368683D01*
X118798262Y-87273458D01*
X118758016Y-87203748D01*
X118758011Y-87203741D01*
X118630579Y-87062214D01*
X118630577Y-87062212D01*
X118476502Y-86950270D01*
X118476501Y-86950269D01*
X118346238Y-86892273D01*
X118302515Y-86872807D01*
X118302513Y-86872806D01*
X118116226Y-86833210D01*
X117925774Y-86833210D01*
X117739485Y-86872806D01*
X117565502Y-86950268D01*
X117411421Y-87062213D01*
X117283988Y-87203741D01*
X117283983Y-87203748D01*
X117188758Y-87368684D01*
X117129907Y-87549810D01*
X117129907Y-87549812D01*
X117114990Y-87691735D01*
X117114990Y-89295465D01*
X107390500Y-89295465D01*
X107390500Y-84711440D01*
X107390691Y-84706574D01*
X107404440Y-84531867D01*
X107407482Y-84512655D01*
X107446687Y-84349357D01*
X107452693Y-84330872D01*
X107516960Y-84175719D01*
X107525793Y-84158385D01*
X107613529Y-84015213D01*
X107624965Y-83999472D01*
X107734027Y-83871776D01*
X107747776Y-83858027D01*
X107875475Y-83748962D01*
X107891213Y-83737529D01*
X108034388Y-83649791D01*
X108051719Y-83640960D01*
X108206872Y-83576693D01*
X108225357Y-83570687D01*
X108388655Y-83531482D01*
X108407861Y-83528440D01*
X108555766Y-83516800D01*
X108582574Y-83514691D01*
X108587440Y-83514500D01*
X108609531Y-83514500D01*
X188443469Y-83514500D01*
X188465560Y-83514500D01*
X188470426Y-83514691D01*
G37*
%TD.AperFunction*%
%TD*%
M02*
