%TF.GenerationSoftware,KiCad,Pcbnew,7.0.8*%
%TF.CreationDate,2023-11-23T12:29:14-06:00*%
%TF.ProjectId,27C160_Adapter,32374331-3630-45f4-9164-61707465722e,1.1*%
%TF.SameCoordinates,Original*%
%TF.FileFunction,Legend,Top*%
%TF.FilePolarity,Positive*%
%FSLAX46Y46*%
G04 Gerber Fmt 4.6, Leading zero omitted, Abs format (unit mm)*
G04 Created by KiCad (PCBNEW 7.0.8) date 2023-11-23 12:29:14*
%MOMM*%
%LPD*%
G01*
G04 APERTURE LIST*
%ADD10C,0.113792*%
%ADD11C,0.134112*%
%ADD12C,0.081280*%
%ADD13C,0.150000*%
%ADD14C,0.101600*%
%ADD15C,0.203200*%
%ADD16C,0.152400*%
%ADD17C,0.066040*%
%ADD18C,0.127000*%
%ADD19C,0.120000*%
G04 APERTURE END LIST*
D10*
X171874536Y-125020231D02*
X171424109Y-124376765D01*
X171102376Y-125020231D02*
X171102376Y-123668951D01*
X171102376Y-123668951D02*
X171617149Y-123668951D01*
X171617149Y-123668951D02*
X171745843Y-123733298D01*
X171745843Y-123733298D02*
X171810189Y-123797645D01*
X171810189Y-123797645D02*
X171874536Y-123926338D01*
X171874536Y-123926338D02*
X171874536Y-124119378D01*
X171874536Y-124119378D02*
X171810189Y-124248071D01*
X171810189Y-124248071D02*
X171745843Y-124312418D01*
X171745843Y-124312418D02*
X171617149Y-124376765D01*
X171617149Y-124376765D02*
X171102376Y-124376765D01*
X172131923Y-125148925D02*
X173161469Y-125148925D01*
X173418856Y-123797645D02*
X173483203Y-123733298D01*
X173483203Y-123733298D02*
X173611896Y-123668951D01*
X173611896Y-123668951D02*
X173933630Y-123668951D01*
X173933630Y-123668951D02*
X174062323Y-123733298D01*
X174062323Y-123733298D02*
X174126670Y-123797645D01*
X174126670Y-123797645D02*
X174191016Y-123926338D01*
X174191016Y-123926338D02*
X174191016Y-124055031D01*
X174191016Y-124055031D02*
X174126670Y-124248071D01*
X174126670Y-124248071D02*
X173354510Y-125020231D01*
X173354510Y-125020231D02*
X174191016Y-125020231D01*
X175027523Y-123668951D02*
X175156216Y-123668951D01*
X175156216Y-123668951D02*
X175284909Y-123733298D01*
X175284909Y-123733298D02*
X175349256Y-123797645D01*
X175349256Y-123797645D02*
X175413603Y-123926338D01*
X175413603Y-123926338D02*
X175477949Y-124183725D01*
X175477949Y-124183725D02*
X175477949Y-124505458D01*
X175477949Y-124505458D02*
X175413603Y-124762845D01*
X175413603Y-124762845D02*
X175349256Y-124891538D01*
X175349256Y-124891538D02*
X175284909Y-124955885D01*
X175284909Y-124955885D02*
X175156216Y-125020231D01*
X175156216Y-125020231D02*
X175027523Y-125020231D01*
X175027523Y-125020231D02*
X174898829Y-124955885D01*
X174898829Y-124955885D02*
X174834483Y-124891538D01*
X174834483Y-124891538D02*
X174770136Y-124762845D01*
X174770136Y-124762845D02*
X174705789Y-124505458D01*
X174705789Y-124505458D02*
X174705789Y-124183725D01*
X174705789Y-124183725D02*
X174770136Y-123926338D01*
X174770136Y-123926338D02*
X174834483Y-123797645D01*
X174834483Y-123797645D02*
X174898829Y-123733298D01*
X174898829Y-123733298D02*
X175027523Y-123668951D01*
X175992722Y-123797645D02*
X176057069Y-123733298D01*
X176057069Y-123733298D02*
X176185762Y-123668951D01*
X176185762Y-123668951D02*
X176507496Y-123668951D01*
X176507496Y-123668951D02*
X176636189Y-123733298D01*
X176636189Y-123733298D02*
X176700536Y-123797645D01*
X176700536Y-123797645D02*
X176764882Y-123926338D01*
X176764882Y-123926338D02*
X176764882Y-124055031D01*
X176764882Y-124055031D02*
X176700536Y-124248071D01*
X176700536Y-124248071D02*
X175928376Y-125020231D01*
X175928376Y-125020231D02*
X176764882Y-125020231D01*
X177215309Y-123668951D02*
X178051815Y-123668951D01*
X178051815Y-123668951D02*
X177601389Y-124183725D01*
X177601389Y-124183725D02*
X177794429Y-124183725D01*
X177794429Y-124183725D02*
X177923122Y-124248071D01*
X177923122Y-124248071D02*
X177987469Y-124312418D01*
X177987469Y-124312418D02*
X178051815Y-124441111D01*
X178051815Y-124441111D02*
X178051815Y-124762845D01*
X178051815Y-124762845D02*
X177987469Y-124891538D01*
X177987469Y-124891538D02*
X177923122Y-124955885D01*
X177923122Y-124955885D02*
X177794429Y-125020231D01*
X177794429Y-125020231D02*
X177408349Y-125020231D01*
X177408349Y-125020231D02*
X177279655Y-124955885D01*
X177279655Y-124955885D02*
X177215309Y-124891538D01*
X179338748Y-125020231D02*
X178566588Y-125020231D01*
X178952668Y-125020231D02*
X178952668Y-123668951D01*
X178952668Y-123668951D02*
X178823975Y-123861991D01*
X178823975Y-123861991D02*
X178695282Y-123990685D01*
X178695282Y-123990685D02*
X178566588Y-124055031D01*
X180625681Y-125020231D02*
X179853521Y-125020231D01*
X180239601Y-125020231D02*
X180239601Y-123668951D01*
X180239601Y-123668951D02*
X180110908Y-123861991D01*
X180110908Y-123861991D02*
X179982215Y-123990685D01*
X179982215Y-123990685D02*
X179853521Y-124055031D01*
X181140454Y-123797645D02*
X181204801Y-123733298D01*
X181204801Y-123733298D02*
X181333494Y-123668951D01*
X181333494Y-123668951D02*
X181655228Y-123668951D01*
X181655228Y-123668951D02*
X181783921Y-123733298D01*
X181783921Y-123733298D02*
X181848268Y-123797645D01*
X181848268Y-123797645D02*
X181912614Y-123926338D01*
X181912614Y-123926338D02*
X181912614Y-124055031D01*
X181912614Y-124055031D02*
X181848268Y-124248071D01*
X181848268Y-124248071D02*
X181076108Y-125020231D01*
X181076108Y-125020231D02*
X181912614Y-125020231D01*
X182363041Y-123668951D02*
X183199547Y-123668951D01*
X183199547Y-123668951D02*
X182749121Y-124183725D01*
X182749121Y-124183725D02*
X182942161Y-124183725D01*
X182942161Y-124183725D02*
X183070854Y-124248071D01*
X183070854Y-124248071D02*
X183135201Y-124312418D01*
X183135201Y-124312418D02*
X183199547Y-124441111D01*
X183199547Y-124441111D02*
X183199547Y-124762845D01*
X183199547Y-124762845D02*
X183135201Y-124891538D01*
X183135201Y-124891538D02*
X183070854Y-124955885D01*
X183070854Y-124955885D02*
X182942161Y-125020231D01*
X182942161Y-125020231D02*
X182556081Y-125020231D01*
X182556081Y-125020231D02*
X182427387Y-124955885D01*
X182427387Y-124955885D02*
X182363041Y-124891538D01*
D11*
X186317219Y-124068420D02*
X186241382Y-123992583D01*
X186241382Y-123992583D02*
X186165545Y-123840909D01*
X186165545Y-123840909D02*
X186165545Y-123461723D01*
X186165545Y-123461723D02*
X186241382Y-123310049D01*
X186241382Y-123310049D02*
X186317219Y-123234211D01*
X186317219Y-123234211D02*
X186468893Y-123158374D01*
X186468893Y-123158374D02*
X186620568Y-123158374D01*
X186620568Y-123158374D02*
X186848079Y-123234211D01*
X186848079Y-123234211D02*
X187758125Y-124144257D01*
X187758125Y-124144257D02*
X187758125Y-123158374D01*
X186165545Y-122627514D02*
X186165545Y-121565794D01*
X186165545Y-121565794D02*
X187758125Y-122248328D01*
X187682288Y-120276563D02*
X187758125Y-120428237D01*
X187758125Y-120428237D02*
X187758125Y-120731585D01*
X187758125Y-120731585D02*
X187682288Y-120883260D01*
X187682288Y-120883260D02*
X187606450Y-120959097D01*
X187606450Y-120959097D02*
X187454776Y-121034934D01*
X187454776Y-121034934D02*
X186999753Y-121034934D01*
X186999753Y-121034934D02*
X186848079Y-120959097D01*
X186848079Y-120959097D02*
X186772242Y-120883260D01*
X186772242Y-120883260D02*
X186696405Y-120731585D01*
X186696405Y-120731585D02*
X186696405Y-120428237D01*
X186696405Y-120428237D02*
X186772242Y-120276563D01*
X187758125Y-118759819D02*
X187758125Y-119669865D01*
X187758125Y-119214842D02*
X186165545Y-119214842D01*
X186165545Y-119214842D02*
X186393056Y-119366516D01*
X186393056Y-119366516D02*
X186544730Y-119518191D01*
X186544730Y-119518191D02*
X186620568Y-119669865D01*
X186165545Y-117394751D02*
X186165545Y-117698099D01*
X186165545Y-117698099D02*
X186241382Y-117849773D01*
X186241382Y-117849773D02*
X186317219Y-117925611D01*
X186317219Y-117925611D02*
X186544730Y-118077285D01*
X186544730Y-118077285D02*
X186848079Y-118153122D01*
X186848079Y-118153122D02*
X187454776Y-118153122D01*
X187454776Y-118153122D02*
X187606450Y-118077285D01*
X187606450Y-118077285D02*
X187682288Y-118001448D01*
X187682288Y-118001448D02*
X187758125Y-117849773D01*
X187758125Y-117849773D02*
X187758125Y-117546425D01*
X187758125Y-117546425D02*
X187682288Y-117394751D01*
X187682288Y-117394751D02*
X187606450Y-117318913D01*
X187606450Y-117318913D02*
X187454776Y-117243076D01*
X187454776Y-117243076D02*
X187075590Y-117243076D01*
X187075590Y-117243076D02*
X186923916Y-117318913D01*
X186923916Y-117318913D02*
X186848079Y-117394751D01*
X186848079Y-117394751D02*
X186772242Y-117546425D01*
X186772242Y-117546425D02*
X186772242Y-117849773D01*
X186772242Y-117849773D02*
X186848079Y-118001448D01*
X186848079Y-118001448D02*
X186923916Y-118077285D01*
X186923916Y-118077285D02*
X187075590Y-118153122D01*
X186165545Y-116257193D02*
X186165545Y-116105519D01*
X186165545Y-116105519D02*
X186241382Y-115953845D01*
X186241382Y-115953845D02*
X186317219Y-115878008D01*
X186317219Y-115878008D02*
X186468893Y-115802170D01*
X186468893Y-115802170D02*
X186772242Y-115726333D01*
X186772242Y-115726333D02*
X187151428Y-115726333D01*
X187151428Y-115726333D02*
X187454776Y-115802170D01*
X187454776Y-115802170D02*
X187606450Y-115878008D01*
X187606450Y-115878008D02*
X187682288Y-115953845D01*
X187682288Y-115953845D02*
X187758125Y-116105519D01*
X187758125Y-116105519D02*
X187758125Y-116257193D01*
X187758125Y-116257193D02*
X187682288Y-116408868D01*
X187682288Y-116408868D02*
X187606450Y-116484705D01*
X187606450Y-116484705D02*
X187454776Y-116560542D01*
X187454776Y-116560542D02*
X187151428Y-116636379D01*
X187151428Y-116636379D02*
X186772242Y-116636379D01*
X186772242Y-116636379D02*
X186468893Y-116560542D01*
X186468893Y-116560542D02*
X186317219Y-116484705D01*
X186317219Y-116484705D02*
X186241382Y-116408868D01*
X186241382Y-116408868D02*
X186165545Y-116257193D01*
X186089708Y-113906242D02*
X188137310Y-115271310D01*
X186165545Y-113527056D02*
X186165545Y-112541173D01*
X186165545Y-112541173D02*
X186772242Y-113072033D01*
X186772242Y-113072033D02*
X186772242Y-112844522D01*
X186772242Y-112844522D02*
X186848079Y-112692848D01*
X186848079Y-112692848D02*
X186923916Y-112617010D01*
X186923916Y-112617010D02*
X187075590Y-112541173D01*
X187075590Y-112541173D02*
X187454776Y-112541173D01*
X187454776Y-112541173D02*
X187606450Y-112617010D01*
X187606450Y-112617010D02*
X187682288Y-112692848D01*
X187682288Y-112692848D02*
X187758125Y-112844522D01*
X187758125Y-112844522D02*
X187758125Y-113299545D01*
X187758125Y-113299545D02*
X187682288Y-113451219D01*
X187682288Y-113451219D02*
X187606450Y-113527056D01*
X186317219Y-111934476D02*
X186241382Y-111858639D01*
X186241382Y-111858639D02*
X186165545Y-111706965D01*
X186165545Y-111706965D02*
X186165545Y-111327779D01*
X186165545Y-111327779D02*
X186241382Y-111176105D01*
X186241382Y-111176105D02*
X186317219Y-111100267D01*
X186317219Y-111100267D02*
X186468893Y-111024430D01*
X186468893Y-111024430D02*
X186620568Y-111024430D01*
X186620568Y-111024430D02*
X186848079Y-111100267D01*
X186848079Y-111100267D02*
X187758125Y-112010313D01*
X187758125Y-112010313D02*
X187758125Y-111024430D01*
X186317219Y-110417733D02*
X186241382Y-110341896D01*
X186241382Y-110341896D02*
X186165545Y-110190222D01*
X186165545Y-110190222D02*
X186165545Y-109811036D01*
X186165545Y-109811036D02*
X186241382Y-109659362D01*
X186241382Y-109659362D02*
X186317219Y-109583524D01*
X186317219Y-109583524D02*
X186468893Y-109507687D01*
X186468893Y-109507687D02*
X186620568Y-109507687D01*
X186620568Y-109507687D02*
X186848079Y-109583524D01*
X186848079Y-109583524D02*
X187758125Y-110493570D01*
X187758125Y-110493570D02*
X187758125Y-109507687D01*
X186089708Y-107687596D02*
X188137310Y-109052664D01*
X186696405Y-106474202D02*
X187758125Y-106474202D01*
X186089708Y-106853387D02*
X187227265Y-107232573D01*
X187227265Y-107232573D02*
X187227265Y-106246690D01*
X186165545Y-105336644D02*
X186165545Y-105184970D01*
X186165545Y-105184970D02*
X186241382Y-105033296D01*
X186241382Y-105033296D02*
X186317219Y-104957459D01*
X186317219Y-104957459D02*
X186468893Y-104881621D01*
X186468893Y-104881621D02*
X186772242Y-104805784D01*
X186772242Y-104805784D02*
X187151428Y-104805784D01*
X187151428Y-104805784D02*
X187454776Y-104881621D01*
X187454776Y-104881621D02*
X187606450Y-104957459D01*
X187606450Y-104957459D02*
X187682288Y-105033296D01*
X187682288Y-105033296D02*
X187758125Y-105184970D01*
X187758125Y-105184970D02*
X187758125Y-105336644D01*
X187758125Y-105336644D02*
X187682288Y-105488319D01*
X187682288Y-105488319D02*
X187606450Y-105564156D01*
X187606450Y-105564156D02*
X187454776Y-105639993D01*
X187454776Y-105639993D02*
X187151428Y-105715830D01*
X187151428Y-105715830D02*
X186772242Y-105715830D01*
X186772242Y-105715830D02*
X186468893Y-105639993D01*
X186468893Y-105639993D02*
X186317219Y-105564156D01*
X186317219Y-105564156D02*
X186241382Y-105488319D01*
X186241382Y-105488319D02*
X186165545Y-105336644D01*
X186165545Y-103819901D02*
X186165545Y-103668227D01*
X186165545Y-103668227D02*
X186241382Y-103516553D01*
X186241382Y-103516553D02*
X186317219Y-103440716D01*
X186317219Y-103440716D02*
X186468893Y-103364878D01*
X186468893Y-103364878D02*
X186772242Y-103289041D01*
X186772242Y-103289041D02*
X187151428Y-103289041D01*
X187151428Y-103289041D02*
X187454776Y-103364878D01*
X187454776Y-103364878D02*
X187606450Y-103440716D01*
X187606450Y-103440716D02*
X187682288Y-103516553D01*
X187682288Y-103516553D02*
X187758125Y-103668227D01*
X187758125Y-103668227D02*
X187758125Y-103819901D01*
X187758125Y-103819901D02*
X187682288Y-103971576D01*
X187682288Y-103971576D02*
X187606450Y-104047413D01*
X187606450Y-104047413D02*
X187454776Y-104123250D01*
X187454776Y-104123250D02*
X187151428Y-104199087D01*
X187151428Y-104199087D02*
X186772242Y-104199087D01*
X186772242Y-104199087D02*
X186468893Y-104123250D01*
X186468893Y-104123250D02*
X186317219Y-104047413D01*
X186317219Y-104047413D02*
X186241382Y-103971576D01*
X186241382Y-103971576D02*
X186165545Y-103819901D01*
X186089708Y-101468950D02*
X188137310Y-102834018D01*
X186848079Y-100710578D02*
X186772242Y-100862253D01*
X186772242Y-100862253D02*
X186696405Y-100938090D01*
X186696405Y-100938090D02*
X186544730Y-101013927D01*
X186544730Y-101013927D02*
X186468893Y-101013927D01*
X186468893Y-101013927D02*
X186317219Y-100938090D01*
X186317219Y-100938090D02*
X186241382Y-100862253D01*
X186241382Y-100862253D02*
X186165545Y-100710578D01*
X186165545Y-100710578D02*
X186165545Y-100407230D01*
X186165545Y-100407230D02*
X186241382Y-100255556D01*
X186241382Y-100255556D02*
X186317219Y-100179718D01*
X186317219Y-100179718D02*
X186468893Y-100103881D01*
X186468893Y-100103881D02*
X186544730Y-100103881D01*
X186544730Y-100103881D02*
X186696405Y-100179718D01*
X186696405Y-100179718D02*
X186772242Y-100255556D01*
X186772242Y-100255556D02*
X186848079Y-100407230D01*
X186848079Y-100407230D02*
X186848079Y-100710578D01*
X186848079Y-100710578D02*
X186923916Y-100862253D01*
X186923916Y-100862253D02*
X186999753Y-100938090D01*
X186999753Y-100938090D02*
X187151428Y-101013927D01*
X187151428Y-101013927D02*
X187454776Y-101013927D01*
X187454776Y-101013927D02*
X187606450Y-100938090D01*
X187606450Y-100938090D02*
X187682288Y-100862253D01*
X187682288Y-100862253D02*
X187758125Y-100710578D01*
X187758125Y-100710578D02*
X187758125Y-100407230D01*
X187758125Y-100407230D02*
X187682288Y-100255556D01*
X187682288Y-100255556D02*
X187606450Y-100179718D01*
X187606450Y-100179718D02*
X187454776Y-100103881D01*
X187454776Y-100103881D02*
X187151428Y-100103881D01*
X187151428Y-100103881D02*
X186999753Y-100179718D01*
X186999753Y-100179718D02*
X186923916Y-100255556D01*
X186923916Y-100255556D02*
X186848079Y-100407230D01*
X186165545Y-99117998D02*
X186165545Y-98966324D01*
X186165545Y-98966324D02*
X186241382Y-98814650D01*
X186241382Y-98814650D02*
X186317219Y-98738813D01*
X186317219Y-98738813D02*
X186468893Y-98662975D01*
X186468893Y-98662975D02*
X186772242Y-98587138D01*
X186772242Y-98587138D02*
X187151428Y-98587138D01*
X187151428Y-98587138D02*
X187454776Y-98662975D01*
X187454776Y-98662975D02*
X187606450Y-98738813D01*
X187606450Y-98738813D02*
X187682288Y-98814650D01*
X187682288Y-98814650D02*
X187758125Y-98966324D01*
X187758125Y-98966324D02*
X187758125Y-99117998D01*
X187758125Y-99117998D02*
X187682288Y-99269673D01*
X187682288Y-99269673D02*
X187606450Y-99345510D01*
X187606450Y-99345510D02*
X187454776Y-99421347D01*
X187454776Y-99421347D02*
X187151428Y-99497184D01*
X187151428Y-99497184D02*
X186772242Y-99497184D01*
X186772242Y-99497184D02*
X186468893Y-99421347D01*
X186468893Y-99421347D02*
X186317219Y-99345510D01*
X186317219Y-99345510D02*
X186241382Y-99269673D01*
X186241382Y-99269673D02*
X186165545Y-99117998D01*
X186165545Y-97601255D02*
X186165545Y-97449581D01*
X186165545Y-97449581D02*
X186241382Y-97297907D01*
X186241382Y-97297907D02*
X186317219Y-97222070D01*
X186317219Y-97222070D02*
X186468893Y-97146232D01*
X186468893Y-97146232D02*
X186772242Y-97070395D01*
X186772242Y-97070395D02*
X187151428Y-97070395D01*
X187151428Y-97070395D02*
X187454776Y-97146232D01*
X187454776Y-97146232D02*
X187606450Y-97222070D01*
X187606450Y-97222070D02*
X187682288Y-97297907D01*
X187682288Y-97297907D02*
X187758125Y-97449581D01*
X187758125Y-97449581D02*
X187758125Y-97601255D01*
X187758125Y-97601255D02*
X187682288Y-97752930D01*
X187682288Y-97752930D02*
X187606450Y-97828767D01*
X187606450Y-97828767D02*
X187454776Y-97904604D01*
X187454776Y-97904604D02*
X187151428Y-97980441D01*
X187151428Y-97980441D02*
X186772242Y-97980441D01*
X186772242Y-97980441D02*
X186468893Y-97904604D01*
X186468893Y-97904604D02*
X186317219Y-97828767D01*
X186317219Y-97828767D02*
X186241382Y-97752930D01*
X186241382Y-97752930D02*
X186165545Y-97601255D01*
X187303102Y-95250304D02*
X187303102Y-94491933D01*
X187758125Y-95401978D02*
X186165545Y-94871118D01*
X186165545Y-94871118D02*
X187758125Y-94340258D01*
X187758125Y-93126864D02*
X186165545Y-93126864D01*
X187682288Y-93126864D02*
X187758125Y-93278538D01*
X187758125Y-93278538D02*
X187758125Y-93581886D01*
X187758125Y-93581886D02*
X187682288Y-93733561D01*
X187682288Y-93733561D02*
X187606450Y-93809398D01*
X187606450Y-93809398D02*
X187454776Y-93885235D01*
X187454776Y-93885235D02*
X186999753Y-93885235D01*
X186999753Y-93885235D02*
X186848079Y-93809398D01*
X186848079Y-93809398D02*
X186772242Y-93733561D01*
X186772242Y-93733561D02*
X186696405Y-93581886D01*
X186696405Y-93581886D02*
X186696405Y-93278538D01*
X186696405Y-93278538D02*
X186772242Y-93126864D01*
X187758125Y-91685958D02*
X186923916Y-91685958D01*
X186923916Y-91685958D02*
X186772242Y-91761795D01*
X186772242Y-91761795D02*
X186696405Y-91913469D01*
X186696405Y-91913469D02*
X186696405Y-92216818D01*
X186696405Y-92216818D02*
X186772242Y-92368492D01*
X187682288Y-91685958D02*
X187758125Y-91837632D01*
X187758125Y-91837632D02*
X187758125Y-92216818D01*
X187758125Y-92216818D02*
X187682288Y-92368492D01*
X187682288Y-92368492D02*
X187530613Y-92444329D01*
X187530613Y-92444329D02*
X187378939Y-92444329D01*
X187378939Y-92444329D02*
X187227265Y-92368492D01*
X187227265Y-92368492D02*
X187151428Y-92216818D01*
X187151428Y-92216818D02*
X187151428Y-91837632D01*
X187151428Y-91837632D02*
X187075590Y-91685958D01*
X186696405Y-90927586D02*
X188288985Y-90927586D01*
X186772242Y-90927586D02*
X186696405Y-90775912D01*
X186696405Y-90775912D02*
X186696405Y-90472563D01*
X186696405Y-90472563D02*
X186772242Y-90320889D01*
X186772242Y-90320889D02*
X186848079Y-90245052D01*
X186848079Y-90245052D02*
X186999753Y-90169214D01*
X186999753Y-90169214D02*
X187454776Y-90169214D01*
X187454776Y-90169214D02*
X187606450Y-90245052D01*
X187606450Y-90245052D02*
X187682288Y-90320889D01*
X187682288Y-90320889D02*
X187758125Y-90472563D01*
X187758125Y-90472563D02*
X187758125Y-90775912D01*
X187758125Y-90775912D02*
X187682288Y-90927586D01*
X186696405Y-89714191D02*
X186696405Y-89107494D01*
X186165545Y-89486680D02*
X187530613Y-89486680D01*
X187530613Y-89486680D02*
X187682288Y-89410843D01*
X187682288Y-89410843D02*
X187758125Y-89259168D01*
X187758125Y-89259168D02*
X187758125Y-89107494D01*
X187682288Y-87969937D02*
X187758125Y-88121611D01*
X187758125Y-88121611D02*
X187758125Y-88424960D01*
X187758125Y-88424960D02*
X187682288Y-88576634D01*
X187682288Y-88576634D02*
X187530613Y-88652471D01*
X187530613Y-88652471D02*
X186923916Y-88652471D01*
X186923916Y-88652471D02*
X186772242Y-88576634D01*
X186772242Y-88576634D02*
X186696405Y-88424960D01*
X186696405Y-88424960D02*
X186696405Y-88121611D01*
X186696405Y-88121611D02*
X186772242Y-87969937D01*
X186772242Y-87969937D02*
X186923916Y-87894100D01*
X186923916Y-87894100D02*
X187075590Y-87894100D01*
X187075590Y-87894100D02*
X187227265Y-88652471D01*
X187758125Y-87211565D02*
X186696405Y-87211565D01*
X186999753Y-87211565D02*
X186848079Y-87135728D01*
X186848079Y-87135728D02*
X186772242Y-87059891D01*
X186772242Y-87059891D02*
X186696405Y-86908216D01*
X186696405Y-86908216D02*
X186696405Y-86756542D01*
D12*
X148830441Y-125695534D02*
X148278898Y-125695534D01*
X148554670Y-125695534D02*
X148554670Y-124730334D01*
X148554670Y-124730334D02*
X148462746Y-124868220D01*
X148462746Y-124868220D02*
X148370822Y-124960144D01*
X148370822Y-124960144D02*
X148278898Y-125006106D01*
X149381984Y-125143992D02*
X149290060Y-125098030D01*
X149290060Y-125098030D02*
X149244098Y-125052068D01*
X149244098Y-125052068D02*
X149198136Y-124960144D01*
X149198136Y-124960144D02*
X149198136Y-124914182D01*
X149198136Y-124914182D02*
X149244098Y-124822258D01*
X149244098Y-124822258D02*
X149290060Y-124776296D01*
X149290060Y-124776296D02*
X149381984Y-124730334D01*
X149381984Y-124730334D02*
X149565831Y-124730334D01*
X149565831Y-124730334D02*
X149657755Y-124776296D01*
X149657755Y-124776296D02*
X149703717Y-124822258D01*
X149703717Y-124822258D02*
X149749679Y-124914182D01*
X149749679Y-124914182D02*
X149749679Y-124960144D01*
X149749679Y-124960144D02*
X149703717Y-125052068D01*
X149703717Y-125052068D02*
X149657755Y-125098030D01*
X149657755Y-125098030D02*
X149565831Y-125143992D01*
X149565831Y-125143992D02*
X149381984Y-125143992D01*
X149381984Y-125143992D02*
X149290060Y-125189953D01*
X149290060Y-125189953D02*
X149244098Y-125235915D01*
X149244098Y-125235915D02*
X149198136Y-125327839D01*
X149198136Y-125327839D02*
X149198136Y-125511687D01*
X149198136Y-125511687D02*
X149244098Y-125603611D01*
X149244098Y-125603611D02*
X149290060Y-125649573D01*
X149290060Y-125649573D02*
X149381984Y-125695534D01*
X149381984Y-125695534D02*
X149565831Y-125695534D01*
X149565831Y-125695534D02*
X149657755Y-125649573D01*
X149657755Y-125649573D02*
X149703717Y-125603611D01*
X149703717Y-125603611D02*
X149749679Y-125511687D01*
X149749679Y-125511687D02*
X149749679Y-125327839D01*
X149749679Y-125327839D02*
X149703717Y-125235915D01*
X149703717Y-125235915D02*
X149657755Y-125189953D01*
X149657755Y-125189953D02*
X149565831Y-125143992D01*
X151370441Y-125695534D02*
X150818898Y-125695534D01*
X151094670Y-125695534D02*
X151094670Y-124730334D01*
X151094670Y-124730334D02*
X151002746Y-124868220D01*
X151002746Y-124868220D02*
X150910822Y-124960144D01*
X150910822Y-124960144D02*
X150818898Y-125006106D01*
X151830060Y-125695534D02*
X152013908Y-125695534D01*
X152013908Y-125695534D02*
X152105831Y-125649573D01*
X152105831Y-125649573D02*
X152151793Y-125603611D01*
X152151793Y-125603611D02*
X152243717Y-125465725D01*
X152243717Y-125465725D02*
X152289679Y-125281877D01*
X152289679Y-125281877D02*
X152289679Y-124914182D01*
X152289679Y-124914182D02*
X152243717Y-124822258D01*
X152243717Y-124822258D02*
X152197755Y-124776296D01*
X152197755Y-124776296D02*
X152105831Y-124730334D01*
X152105831Y-124730334D02*
X151921984Y-124730334D01*
X151921984Y-124730334D02*
X151830060Y-124776296D01*
X151830060Y-124776296D02*
X151784098Y-124822258D01*
X151784098Y-124822258D02*
X151738136Y-124914182D01*
X151738136Y-124914182D02*
X151738136Y-125143992D01*
X151738136Y-125143992D02*
X151784098Y-125235915D01*
X151784098Y-125235915D02*
X151830060Y-125281877D01*
X151830060Y-125281877D02*
X151921984Y-125327839D01*
X151921984Y-125327839D02*
X152105831Y-125327839D01*
X152105831Y-125327839D02*
X152197755Y-125281877D01*
X152197755Y-125281877D02*
X152243717Y-125235915D01*
X152243717Y-125235915D02*
X152289679Y-125143992D01*
X153358898Y-124822258D02*
X153404860Y-124776296D01*
X153404860Y-124776296D02*
X153496784Y-124730334D01*
X153496784Y-124730334D02*
X153726593Y-124730334D01*
X153726593Y-124730334D02*
X153818517Y-124776296D01*
X153818517Y-124776296D02*
X153864479Y-124822258D01*
X153864479Y-124822258D02*
X153910441Y-124914182D01*
X153910441Y-124914182D02*
X153910441Y-125006106D01*
X153910441Y-125006106D02*
X153864479Y-125143992D01*
X153864479Y-125143992D02*
X153312936Y-125695534D01*
X153312936Y-125695534D02*
X153910441Y-125695534D01*
X154507946Y-124730334D02*
X154599869Y-124730334D01*
X154599869Y-124730334D02*
X154691793Y-124776296D01*
X154691793Y-124776296D02*
X154737755Y-124822258D01*
X154737755Y-124822258D02*
X154783717Y-124914182D01*
X154783717Y-124914182D02*
X154829679Y-125098030D01*
X154829679Y-125098030D02*
X154829679Y-125327839D01*
X154829679Y-125327839D02*
X154783717Y-125511687D01*
X154783717Y-125511687D02*
X154737755Y-125603611D01*
X154737755Y-125603611D02*
X154691793Y-125649573D01*
X154691793Y-125649573D02*
X154599869Y-125695534D01*
X154599869Y-125695534D02*
X154507946Y-125695534D01*
X154507946Y-125695534D02*
X154416022Y-125649573D01*
X154416022Y-125649573D02*
X154370060Y-125603611D01*
X154370060Y-125603611D02*
X154324098Y-125511687D01*
X154324098Y-125511687D02*
X154278136Y-125327839D01*
X154278136Y-125327839D02*
X154278136Y-125098030D01*
X154278136Y-125098030D02*
X154324098Y-124914182D01*
X154324098Y-124914182D02*
X154370060Y-124822258D01*
X154370060Y-124822258D02*
X154416022Y-124776296D01*
X154416022Y-124776296D02*
X154507946Y-124730334D01*
D13*
X135166100Y-118973600D02*
X145961100Y-118973600D01*
D10*
X135498349Y-116309725D02*
X135562696Y-116245378D01*
X135562696Y-116245378D02*
X135691389Y-116181031D01*
X135691389Y-116181031D02*
X136013123Y-116181031D01*
X136013123Y-116181031D02*
X136141816Y-116245378D01*
X136141816Y-116245378D02*
X136206163Y-116309725D01*
X136206163Y-116309725D02*
X136270509Y-116438418D01*
X136270509Y-116438418D02*
X136270509Y-116567111D01*
X136270509Y-116567111D02*
X136206163Y-116760151D01*
X136206163Y-116760151D02*
X135434003Y-117532311D01*
X135434003Y-117532311D02*
X136270509Y-117532311D01*
X136720936Y-116181031D02*
X137621789Y-116181031D01*
X137621789Y-116181031D02*
X137042669Y-117532311D01*
X138715682Y-117467965D02*
X138586989Y-117532311D01*
X138586989Y-117532311D02*
X138329602Y-117532311D01*
X138329602Y-117532311D02*
X138200909Y-117467965D01*
X138200909Y-117467965D02*
X138136562Y-117403618D01*
X138136562Y-117403618D02*
X138072215Y-117274925D01*
X138072215Y-117274925D02*
X138072215Y-116888845D01*
X138072215Y-116888845D02*
X138136562Y-116760151D01*
X138136562Y-116760151D02*
X138200909Y-116695805D01*
X138200909Y-116695805D02*
X138329602Y-116631458D01*
X138329602Y-116631458D02*
X138586989Y-116631458D01*
X138586989Y-116631458D02*
X138715682Y-116695805D01*
X139166109Y-116181031D02*
X140002615Y-116181031D01*
X140002615Y-116181031D02*
X139552189Y-116695805D01*
X139552189Y-116695805D02*
X139745229Y-116695805D01*
X139745229Y-116695805D02*
X139873922Y-116760151D01*
X139873922Y-116760151D02*
X139938269Y-116824498D01*
X139938269Y-116824498D02*
X140002615Y-116953191D01*
X140002615Y-116953191D02*
X140002615Y-117274925D01*
X140002615Y-117274925D02*
X139938269Y-117403618D01*
X139938269Y-117403618D02*
X139873922Y-117467965D01*
X139873922Y-117467965D02*
X139745229Y-117532311D01*
X139745229Y-117532311D02*
X139359149Y-117532311D01*
X139359149Y-117532311D02*
X139230455Y-117467965D01*
X139230455Y-117467965D02*
X139166109Y-117403618D01*
X140517388Y-116309725D02*
X140581735Y-116245378D01*
X140581735Y-116245378D02*
X140710428Y-116181031D01*
X140710428Y-116181031D02*
X141032162Y-116181031D01*
X141032162Y-116181031D02*
X141160855Y-116245378D01*
X141160855Y-116245378D02*
X141225202Y-116309725D01*
X141225202Y-116309725D02*
X141289548Y-116438418D01*
X141289548Y-116438418D02*
X141289548Y-116567111D01*
X141289548Y-116567111D02*
X141225202Y-116760151D01*
X141225202Y-116760151D02*
X140453042Y-117532311D01*
X140453042Y-117532311D02*
X141289548Y-117532311D01*
X141804321Y-116309725D02*
X141868668Y-116245378D01*
X141868668Y-116245378D02*
X141997361Y-116181031D01*
X141997361Y-116181031D02*
X142319095Y-116181031D01*
X142319095Y-116181031D02*
X142447788Y-116245378D01*
X142447788Y-116245378D02*
X142512135Y-116309725D01*
X142512135Y-116309725D02*
X142576481Y-116438418D01*
X142576481Y-116438418D02*
X142576481Y-116567111D01*
X142576481Y-116567111D02*
X142512135Y-116760151D01*
X142512135Y-116760151D02*
X141739975Y-117532311D01*
X141739975Y-117532311D02*
X142576481Y-117532311D01*
X135755736Y-121653308D02*
X135627043Y-121588962D01*
X135627043Y-121588962D02*
X135562696Y-121524615D01*
X135562696Y-121524615D02*
X135498349Y-121395922D01*
X135498349Y-121395922D02*
X135498349Y-121009842D01*
X135498349Y-121009842D02*
X135562696Y-120881148D01*
X135562696Y-120881148D02*
X135627043Y-120816802D01*
X135627043Y-120816802D02*
X135755736Y-120752455D01*
X135755736Y-120752455D02*
X135948776Y-120752455D01*
X135948776Y-120752455D02*
X136077469Y-120816802D01*
X136077469Y-120816802D02*
X136141816Y-120881148D01*
X136141816Y-120881148D02*
X136206163Y-121009842D01*
X136206163Y-121009842D02*
X136206163Y-121395922D01*
X136206163Y-121395922D02*
X136141816Y-121524615D01*
X136141816Y-121524615D02*
X136077469Y-121588962D01*
X136077469Y-121588962D02*
X135948776Y-121653308D01*
X135948776Y-121653308D02*
X135755736Y-121653308D01*
X136592243Y-120752455D02*
X137107016Y-120752455D01*
X136785283Y-120302028D02*
X136785283Y-121460268D01*
X136785283Y-121460268D02*
X136849630Y-121588962D01*
X136849630Y-121588962D02*
X136978323Y-121653308D01*
X136978323Y-121653308D02*
X137107016Y-121653308D01*
X137557443Y-121653308D02*
X137557443Y-120302028D01*
X138136563Y-121653308D02*
X138136563Y-120945495D01*
X138136563Y-120945495D02*
X138072216Y-120816802D01*
X138072216Y-120816802D02*
X137943523Y-120752455D01*
X137943523Y-120752455D02*
X137750483Y-120752455D01*
X137750483Y-120752455D02*
X137621790Y-120816802D01*
X137621790Y-120816802D02*
X137557443Y-120881148D01*
X139294803Y-121588962D02*
X139166110Y-121653308D01*
X139166110Y-121653308D02*
X138908723Y-121653308D01*
X138908723Y-121653308D02*
X138780030Y-121588962D01*
X138780030Y-121588962D02*
X138715683Y-121460268D01*
X138715683Y-121460268D02*
X138715683Y-120945495D01*
X138715683Y-120945495D02*
X138780030Y-120816802D01*
X138780030Y-120816802D02*
X138908723Y-120752455D01*
X138908723Y-120752455D02*
X139166110Y-120752455D01*
X139166110Y-120752455D02*
X139294803Y-120816802D01*
X139294803Y-120816802D02*
X139359150Y-120945495D01*
X139359150Y-120945495D02*
X139359150Y-121074188D01*
X139359150Y-121074188D02*
X138715683Y-121202882D01*
X139938270Y-121653308D02*
X139938270Y-120752455D01*
X139938270Y-121009842D02*
X140002617Y-120881148D01*
X140002617Y-120881148D02*
X140066963Y-120816802D01*
X140066963Y-120816802D02*
X140195657Y-120752455D01*
X140195657Y-120752455D02*
X140324350Y-120752455D01*
X146430509Y-117532311D02*
X145658349Y-117532311D01*
X146044429Y-117532311D02*
X146044429Y-116181031D01*
X146044429Y-116181031D02*
X145915736Y-116374071D01*
X145915736Y-116374071D02*
X145787043Y-116502765D01*
X145787043Y-116502765D02*
X145658349Y-116567111D01*
X145980083Y-120302028D02*
X146108776Y-120302028D01*
X146108776Y-120302028D02*
X146237469Y-120366375D01*
X146237469Y-120366375D02*
X146301816Y-120430722D01*
X146301816Y-120430722D02*
X146366163Y-120559415D01*
X146366163Y-120559415D02*
X146430509Y-120816802D01*
X146430509Y-120816802D02*
X146430509Y-121138535D01*
X146430509Y-121138535D02*
X146366163Y-121395922D01*
X146366163Y-121395922D02*
X146301816Y-121524615D01*
X146301816Y-121524615D02*
X146237469Y-121588962D01*
X146237469Y-121588962D02*
X146108776Y-121653308D01*
X146108776Y-121653308D02*
X145980083Y-121653308D01*
X145980083Y-121653308D02*
X145851389Y-121588962D01*
X145851389Y-121588962D02*
X145787043Y-121524615D01*
X145787043Y-121524615D02*
X145722696Y-121395922D01*
X145722696Y-121395922D02*
X145658349Y-121138535D01*
X145658349Y-121138535D02*
X145658349Y-120816802D01*
X145658349Y-120816802D02*
X145722696Y-120559415D01*
X145722696Y-120559415D02*
X145787043Y-120430722D01*
X145787043Y-120430722D02*
X145851389Y-120366375D01*
X145851389Y-120366375D02*
X145980083Y-120302028D01*
D13*
X184430819Y-119140666D02*
X183954628Y-119473999D01*
X184430819Y-119712094D02*
X183430819Y-119712094D01*
X183430819Y-119712094D02*
X183430819Y-119331142D01*
X183430819Y-119331142D02*
X183478438Y-119235904D01*
X183478438Y-119235904D02*
X183526057Y-119188285D01*
X183526057Y-119188285D02*
X183621295Y-119140666D01*
X183621295Y-119140666D02*
X183764152Y-119140666D01*
X183764152Y-119140666D02*
X183859390Y-119188285D01*
X183859390Y-119188285D02*
X183907009Y-119235904D01*
X183907009Y-119235904D02*
X183954628Y-119331142D01*
X183954628Y-119331142D02*
X183954628Y-119712094D01*
X184430819Y-118188285D02*
X184430819Y-118759713D01*
X184430819Y-118473999D02*
X183430819Y-118473999D01*
X183430819Y-118473999D02*
X183573676Y-118569237D01*
X183573676Y-118569237D02*
X183668914Y-118664475D01*
X183668914Y-118664475D02*
X183716533Y-118759713D01*
X180620819Y-119140666D02*
X180144628Y-119473999D01*
X180620819Y-119712094D02*
X179620819Y-119712094D01*
X179620819Y-119712094D02*
X179620819Y-119331142D01*
X179620819Y-119331142D02*
X179668438Y-119235904D01*
X179668438Y-119235904D02*
X179716057Y-119188285D01*
X179716057Y-119188285D02*
X179811295Y-119140666D01*
X179811295Y-119140666D02*
X179954152Y-119140666D01*
X179954152Y-119140666D02*
X180049390Y-119188285D01*
X180049390Y-119188285D02*
X180097009Y-119235904D01*
X180097009Y-119235904D02*
X180144628Y-119331142D01*
X180144628Y-119331142D02*
X180144628Y-119712094D01*
X179716057Y-118759713D02*
X179668438Y-118712094D01*
X179668438Y-118712094D02*
X179620819Y-118616856D01*
X179620819Y-118616856D02*
X179620819Y-118378761D01*
X179620819Y-118378761D02*
X179668438Y-118283523D01*
X179668438Y-118283523D02*
X179716057Y-118235904D01*
X179716057Y-118235904D02*
X179811295Y-118188285D01*
X179811295Y-118188285D02*
X179906533Y-118188285D01*
X179906533Y-118188285D02*
X180049390Y-118235904D01*
X180049390Y-118235904D02*
X180620819Y-118807332D01*
X180620819Y-118807332D02*
X180620819Y-118188285D01*
X176810819Y-119140666D02*
X176334628Y-119473999D01*
X176810819Y-119712094D02*
X175810819Y-119712094D01*
X175810819Y-119712094D02*
X175810819Y-119331142D01*
X175810819Y-119331142D02*
X175858438Y-119235904D01*
X175858438Y-119235904D02*
X175906057Y-119188285D01*
X175906057Y-119188285D02*
X176001295Y-119140666D01*
X176001295Y-119140666D02*
X176144152Y-119140666D01*
X176144152Y-119140666D02*
X176239390Y-119188285D01*
X176239390Y-119188285D02*
X176287009Y-119235904D01*
X176287009Y-119235904D02*
X176334628Y-119331142D01*
X176334628Y-119331142D02*
X176334628Y-119712094D01*
X175810819Y-118807332D02*
X175810819Y-118188285D01*
X175810819Y-118188285D02*
X176191771Y-118521618D01*
X176191771Y-118521618D02*
X176191771Y-118378761D01*
X176191771Y-118378761D02*
X176239390Y-118283523D01*
X176239390Y-118283523D02*
X176287009Y-118235904D01*
X176287009Y-118235904D02*
X176382247Y-118188285D01*
X176382247Y-118188285D02*
X176620342Y-118188285D01*
X176620342Y-118188285D02*
X176715580Y-118235904D01*
X176715580Y-118235904D02*
X176763200Y-118283523D01*
X176763200Y-118283523D02*
X176810819Y-118378761D01*
X176810819Y-118378761D02*
X176810819Y-118664475D01*
X176810819Y-118664475D02*
X176763200Y-118759713D01*
X176763200Y-118759713D02*
X176715580Y-118807332D01*
X173000819Y-119140666D02*
X172524628Y-119473999D01*
X173000819Y-119712094D02*
X172000819Y-119712094D01*
X172000819Y-119712094D02*
X172000819Y-119331142D01*
X172000819Y-119331142D02*
X172048438Y-119235904D01*
X172048438Y-119235904D02*
X172096057Y-119188285D01*
X172096057Y-119188285D02*
X172191295Y-119140666D01*
X172191295Y-119140666D02*
X172334152Y-119140666D01*
X172334152Y-119140666D02*
X172429390Y-119188285D01*
X172429390Y-119188285D02*
X172477009Y-119235904D01*
X172477009Y-119235904D02*
X172524628Y-119331142D01*
X172524628Y-119331142D02*
X172524628Y-119712094D01*
X172334152Y-118283523D02*
X173000819Y-118283523D01*
X171953200Y-118521618D02*
X172667485Y-118759713D01*
X172667485Y-118759713D02*
X172667485Y-118140666D01*
X169235279Y-119163126D02*
X168759088Y-119496459D01*
X169235279Y-119734554D02*
X168235279Y-119734554D01*
X168235279Y-119734554D02*
X168235279Y-119353602D01*
X168235279Y-119353602D02*
X168282898Y-119258364D01*
X168282898Y-119258364D02*
X168330517Y-119210745D01*
X168330517Y-119210745D02*
X168425755Y-119163126D01*
X168425755Y-119163126D02*
X168568612Y-119163126D01*
X168568612Y-119163126D02*
X168663850Y-119210745D01*
X168663850Y-119210745D02*
X168711469Y-119258364D01*
X168711469Y-119258364D02*
X168759088Y-119353602D01*
X168759088Y-119353602D02*
X168759088Y-119734554D01*
X168235279Y-118258364D02*
X168235279Y-118734554D01*
X168235279Y-118734554D02*
X168711469Y-118782173D01*
X168711469Y-118782173D02*
X168663850Y-118734554D01*
X168663850Y-118734554D02*
X168616231Y-118639316D01*
X168616231Y-118639316D02*
X168616231Y-118401221D01*
X168616231Y-118401221D02*
X168663850Y-118305983D01*
X168663850Y-118305983D02*
X168711469Y-118258364D01*
X168711469Y-118258364D02*
X168806707Y-118210745D01*
X168806707Y-118210745D02*
X169044802Y-118210745D01*
X169044802Y-118210745D02*
X169140040Y-118258364D01*
X169140040Y-118258364D02*
X169187660Y-118305983D01*
X169187660Y-118305983D02*
X169235279Y-118401221D01*
X169235279Y-118401221D02*
X169235279Y-118639316D01*
X169235279Y-118639316D02*
X169187660Y-118734554D01*
X169187660Y-118734554D02*
X169140040Y-118782173D01*
D14*
X164144574Y-119086932D02*
X164084098Y-119207884D01*
X164084098Y-119207884D02*
X163963146Y-119328837D01*
X163963146Y-119328837D02*
X163781717Y-119510265D01*
X163781717Y-119510265D02*
X163721241Y-119631218D01*
X163721241Y-119631218D02*
X163721241Y-119752170D01*
X164023622Y-119691694D02*
X163963146Y-119812646D01*
X163963146Y-119812646D02*
X163842193Y-119933599D01*
X163842193Y-119933599D02*
X163600288Y-119994075D01*
X163600288Y-119994075D02*
X163176955Y-119994075D01*
X163176955Y-119994075D02*
X162935050Y-119933599D01*
X162935050Y-119933599D02*
X162814098Y-119812646D01*
X162814098Y-119812646D02*
X162753622Y-119691694D01*
X162753622Y-119691694D02*
X162753622Y-119449789D01*
X162753622Y-119449789D02*
X162814098Y-119328837D01*
X162814098Y-119328837D02*
X162935050Y-119207884D01*
X162935050Y-119207884D02*
X163176955Y-119147408D01*
X163176955Y-119147408D02*
X163600288Y-119147408D01*
X163600288Y-119147408D02*
X163842193Y-119207884D01*
X163842193Y-119207884D02*
X163963146Y-119328837D01*
X163963146Y-119328837D02*
X164023622Y-119449789D01*
X164023622Y-119449789D02*
X164023622Y-119691694D01*
X164023622Y-117937884D02*
X164023622Y-118663599D01*
X164023622Y-118300742D02*
X162753622Y-118300742D01*
X162753622Y-118300742D02*
X162935050Y-118421694D01*
X162935050Y-118421694D02*
X163056003Y-118542646D01*
X163056003Y-118542646D02*
X163116479Y-118663599D01*
D15*
%TO.C,ZX1*%
X109428180Y-84805520D02*
X183024680Y-84805520D01*
X184025440Y-85803740D02*
X184025440Y-106423460D01*
X183024680Y-107421680D02*
X114838380Y-107421680D01*
X114838380Y-107421680D02*
X109428180Y-107421680D01*
X108427420Y-106423460D02*
X108427420Y-85803740D01*
D14*
X110766760Y-95803720D02*
X110766760Y-95265240D01*
X111226500Y-95265240D02*
X111226500Y-95813880D01*
D15*
X108536640Y-103822500D02*
X111787840Y-103822500D01*
X113786820Y-105773220D02*
X113786820Y-106423460D01*
D14*
X110688020Y-96342200D02*
X110147000Y-96342200D01*
X110147000Y-95885000D02*
X110698180Y-95885000D01*
X111226500Y-96423480D02*
X111226500Y-96961960D01*
X110766760Y-96961960D02*
X110766760Y-96413320D01*
X111307780Y-95885000D02*
X111846260Y-95885000D01*
X111846260Y-96342200D02*
X111297620Y-96342200D01*
X182163620Y-95803720D02*
X182163620Y-95265240D01*
X182625900Y-95265240D02*
X182625900Y-95813880D01*
X182084880Y-96342200D02*
X181543860Y-96342200D01*
X181543860Y-95885000D02*
X182095040Y-95885000D01*
X182625900Y-96423480D02*
X182625900Y-96961960D01*
X182163620Y-96961960D02*
X182163620Y-96413320D01*
X182704640Y-95885000D02*
X183245660Y-95885000D01*
X183245660Y-96342200D02*
X182694480Y-96342200D01*
X112526980Y-96113600D02*
G75*
G03*
X112526980Y-96113600I-1529080J0D01*
G01*
D15*
X112257740Y-105923080D02*
G75*
G03*
X112257740Y-105923080I-2070100J0D01*
G01*
D14*
X183923840Y-96113600D02*
G75*
G03*
X183923840Y-96113600I-1529080J0D01*
G01*
D15*
X109428180Y-84802980D02*
G75*
G03*
X108427420Y-85803740I0J-1000760D01*
G01*
X184022900Y-85803740D02*
G75*
G03*
X183024680Y-84805520I-998220J0D01*
G01*
X183024680Y-107424220D02*
G75*
G03*
X184025440Y-106423460I0J1000760D01*
G01*
X108429960Y-106423460D02*
G75*
G03*
X109428180Y-107421680I998220J0D01*
G01*
D14*
X110997900Y-95034100D02*
G75*
G03*
X110766760Y-95265240I0J-231140D01*
G01*
X111229040Y-95265240D02*
G75*
G03*
X110997900Y-95034100I-231140J0D01*
G01*
D15*
X113788674Y-105771626D02*
G75*
G03*
X111787840Y-103822500I-2000834J-52394D01*
G01*
X113788076Y-106427181D02*
G75*
G03*
X114838380Y-107421679I999504J3721D01*
G01*
D14*
X109918400Y-96113600D02*
G75*
G03*
X110147000Y-96342200I228600J0D01*
G01*
X110147000Y-95885000D02*
G75*
G03*
X109918400Y-96113600I0J-228600D01*
G01*
X110698180Y-95882460D02*
G75*
G03*
X110766760Y-95813880I0J68580D01*
G01*
X110759140Y-96413320D02*
G75*
G03*
X110688020Y-96342200I-71120J0D01*
G01*
X110997900Y-97190560D02*
G75*
G03*
X111226500Y-96961960I0J228600D01*
G01*
X110766760Y-96961960D02*
G75*
G03*
X110997900Y-97193100I231140J0D01*
G01*
X112074860Y-96113600D02*
G75*
G03*
X111846260Y-95885000I-228600J0D01*
G01*
X111846260Y-96344740D02*
G75*
G03*
X112077400Y-96113600I0J231140D01*
G01*
X111297620Y-96342200D02*
G75*
G03*
X111226500Y-96413320I0J-71120D01*
G01*
X111226500Y-95813880D02*
G75*
G03*
X111297620Y-95885000I71120J0D01*
G01*
X182394760Y-95034100D02*
G75*
G03*
X182163620Y-95265240I0J-231140D01*
G01*
X182625900Y-95265240D02*
G75*
G03*
X182394760Y-95034100I-231140J0D01*
G01*
X181315260Y-96113600D02*
G75*
G03*
X181543860Y-96342200I228600J0D01*
G01*
X181543860Y-95885000D02*
G75*
G03*
X181315260Y-96113600I0J-228600D01*
G01*
X182095040Y-95882460D02*
G75*
G03*
X182163620Y-95813880I0J68580D01*
G01*
X182156000Y-96413320D02*
G75*
G03*
X182084880Y-96342200I-71120J0D01*
G01*
X182394760Y-97193100D02*
G75*
G03*
X182625900Y-96961960I0J231140D01*
G01*
X182163620Y-96961960D02*
G75*
G03*
X182394760Y-97193100I231140J0D01*
G01*
X183474260Y-96113600D02*
G75*
G03*
X183245660Y-95885000I-228600J0D01*
G01*
X183245660Y-96342200D02*
G75*
G03*
X183474260Y-96113600I0J228600D01*
G01*
X182694480Y-96344740D02*
G75*
G03*
X182625900Y-96413320I0J-68580D01*
G01*
X182623360Y-95813880D02*
G75*
G03*
X182694480Y-95885000I71120J0D01*
G01*
D16*
%TO.C,U1*%
X182255000Y-111207460D02*
X180985000Y-111207460D01*
X180350000Y-110575000D02*
X180985000Y-111207460D01*
X180985000Y-108670000D02*
X180350000Y-109305000D01*
X182890000Y-110575000D02*
X182255000Y-111207460D01*
X182890000Y-109305000D02*
X182890000Y-110575000D01*
X182255000Y-108670000D02*
X182890000Y-109305000D01*
X180985000Y-108670000D02*
X182255000Y-108670000D01*
X133995000Y-111207460D02*
X132725000Y-111207460D01*
X132090000Y-110575000D02*
X132725000Y-111207460D01*
X132725000Y-108670000D02*
X132090000Y-109305000D01*
X132090000Y-109305000D02*
X132090000Y-110575000D01*
X135265000Y-111207460D02*
X134630000Y-110575000D01*
X136535000Y-111207460D02*
X135265000Y-111207460D01*
X137170000Y-110575000D02*
X136535000Y-111207460D01*
X137170000Y-109305000D02*
X137170000Y-110575000D01*
X136535000Y-108670000D02*
X137170000Y-109305000D01*
X135265000Y-108670000D02*
X136535000Y-108670000D01*
X134630000Y-109305000D02*
X135265000Y-108670000D01*
X134630000Y-110575000D02*
X133995000Y-111207460D01*
X134630000Y-109305000D02*
X134630000Y-110575000D01*
X133995000Y-108670000D02*
X134630000Y-109305000D01*
X132725000Y-108670000D02*
X133995000Y-108670000D01*
X141615000Y-111207460D02*
X140345000Y-111207460D01*
X139710000Y-110575000D02*
X140345000Y-111207460D01*
X140345000Y-108670000D02*
X139710000Y-109305000D01*
X137805000Y-111207460D02*
X137170000Y-110575000D01*
X139075000Y-111207460D02*
X137805000Y-111207460D01*
X139710000Y-110575000D02*
X139075000Y-111207460D01*
X139710000Y-109305000D02*
X139710000Y-110575000D01*
X139075000Y-108670000D02*
X139710000Y-109305000D01*
X137805000Y-108670000D02*
X139075000Y-108670000D01*
X137170000Y-109305000D02*
X137805000Y-108670000D01*
X142885000Y-111207460D02*
X142250000Y-110575000D01*
X144155000Y-111207460D02*
X142885000Y-111207460D01*
X144790000Y-110575000D02*
X144155000Y-111207460D01*
X144790000Y-109305000D02*
X144790000Y-110575000D01*
X144155000Y-108670000D02*
X144790000Y-109305000D01*
X142885000Y-108670000D02*
X144155000Y-108670000D01*
X142250000Y-109305000D02*
X142885000Y-108670000D01*
X142250000Y-110575000D02*
X141615000Y-111207460D01*
X142250000Y-109305000D02*
X142250000Y-110575000D01*
X141615000Y-108670000D02*
X142250000Y-109305000D01*
X140345000Y-108670000D02*
X141615000Y-108670000D01*
X149235000Y-111207460D02*
X147965000Y-111207460D01*
X147330000Y-110575000D02*
X147965000Y-111207460D01*
X147965000Y-108670000D02*
X147330000Y-109305000D01*
X145425000Y-111207460D02*
X144790000Y-110575000D01*
X146695000Y-111207460D02*
X145425000Y-111207460D01*
X147330000Y-110575000D02*
X146695000Y-111207460D01*
X147330000Y-109305000D02*
X147330000Y-110575000D01*
X146695000Y-108670000D02*
X147330000Y-109305000D01*
X145425000Y-108670000D02*
X146695000Y-108670000D01*
X144790000Y-109305000D02*
X145425000Y-108670000D01*
X150505000Y-111207460D02*
X149870000Y-110575000D01*
X151775000Y-111207460D02*
X150505000Y-111207460D01*
X152410000Y-110575000D02*
X151775000Y-111207460D01*
X152410000Y-109305000D02*
X152410000Y-110575000D01*
X151775000Y-108670000D02*
X152410000Y-109305000D01*
X150505000Y-108670000D02*
X151775000Y-108670000D01*
X149870000Y-109305000D02*
X150505000Y-108670000D01*
X149870000Y-110575000D02*
X149235000Y-111207460D01*
X149870000Y-109305000D02*
X149870000Y-110575000D01*
X149235000Y-108670000D02*
X149870000Y-109305000D01*
X147965000Y-108670000D02*
X149235000Y-108670000D01*
X156855000Y-111207460D02*
X155585000Y-111207460D01*
X154950000Y-110575000D02*
X155585000Y-111207460D01*
X155585000Y-108670000D02*
X154950000Y-109305000D01*
X153045000Y-111207460D02*
X152410000Y-110575000D01*
X154315000Y-111207460D02*
X153045000Y-111207460D01*
X154950000Y-110575000D02*
X154315000Y-111207460D01*
X154950000Y-109305000D02*
X154950000Y-110575000D01*
X154315000Y-108670000D02*
X154950000Y-109305000D01*
X153045000Y-108670000D02*
X154315000Y-108670000D01*
X152410000Y-109305000D02*
X153045000Y-108670000D01*
X158125000Y-111207460D02*
X157490000Y-110575000D01*
X159395000Y-111207460D02*
X158125000Y-111207460D01*
X160030000Y-110575000D02*
X159395000Y-111207460D01*
X160030000Y-109305000D02*
X160030000Y-110575000D01*
X159395000Y-108670000D02*
X160030000Y-109305000D01*
X158125000Y-108670000D02*
X159395000Y-108670000D01*
X157490000Y-109305000D02*
X158125000Y-108670000D01*
X157490000Y-110575000D02*
X156855000Y-111207460D01*
X157490000Y-109305000D02*
X157490000Y-110575000D01*
X156855000Y-108670000D02*
X157490000Y-109305000D01*
X155585000Y-108670000D02*
X156855000Y-108670000D01*
X164475000Y-111207460D02*
X163205000Y-111207460D01*
X162570000Y-110575000D02*
X163205000Y-111207460D01*
X163205000Y-108670000D02*
X162570000Y-109305000D01*
X160665000Y-111207460D02*
X160030000Y-110575000D01*
X161935000Y-111207460D02*
X160665000Y-111207460D01*
X162570000Y-110575000D02*
X161935000Y-111207460D01*
X162570000Y-109305000D02*
X162570000Y-110575000D01*
X161935000Y-108670000D02*
X162570000Y-109305000D01*
X160665000Y-108670000D02*
X161935000Y-108670000D01*
X160030000Y-109305000D02*
X160665000Y-108670000D01*
X165745000Y-111207460D02*
X165110000Y-110575000D01*
X167015000Y-111207460D02*
X165745000Y-111207460D01*
X167650000Y-110575000D02*
X167015000Y-111207460D01*
X167650000Y-109305000D02*
X167650000Y-110575000D01*
X167015000Y-108670000D02*
X167650000Y-109305000D01*
X165745000Y-108670000D02*
X167015000Y-108670000D01*
X165110000Y-109305000D02*
X165745000Y-108670000D01*
X165110000Y-110575000D02*
X164475000Y-111207460D01*
X165110000Y-109305000D02*
X165110000Y-110575000D01*
X164475000Y-108670000D02*
X165110000Y-109305000D01*
X163205000Y-108670000D02*
X164475000Y-108670000D01*
X172095000Y-111207460D02*
X170825000Y-111207460D01*
X170190000Y-110575000D02*
X170825000Y-111207460D01*
X170825000Y-108670000D02*
X170190000Y-109305000D01*
X168285000Y-111207460D02*
X167650000Y-110575000D01*
X169555000Y-111207460D02*
X168285000Y-111207460D01*
X170190000Y-110575000D02*
X169555000Y-111207460D01*
X170190000Y-109305000D02*
X170190000Y-110575000D01*
X169555000Y-108670000D02*
X170190000Y-109305000D01*
X168285000Y-108670000D02*
X169555000Y-108670000D01*
X167650000Y-109305000D02*
X168285000Y-108670000D01*
X173365000Y-111207460D02*
X172730000Y-110575000D01*
X174635000Y-111207460D02*
X173365000Y-111207460D01*
X175270000Y-110575000D02*
X174635000Y-111207460D01*
X175270000Y-109305000D02*
X175270000Y-110575000D01*
X174635000Y-108670000D02*
X175270000Y-109305000D01*
X173365000Y-108670000D02*
X174635000Y-108670000D01*
X172730000Y-109305000D02*
X173365000Y-108670000D01*
X172730000Y-110575000D02*
X172095000Y-111207460D01*
X172730000Y-109305000D02*
X172730000Y-110575000D01*
X172095000Y-108670000D02*
X172730000Y-109305000D01*
X170825000Y-108670000D02*
X172095000Y-108670000D01*
X179715000Y-111207460D02*
X178445000Y-111207460D01*
X177810000Y-110575000D02*
X178445000Y-111207460D01*
X178445000Y-108670000D02*
X177810000Y-109305000D01*
X175905000Y-111207460D02*
X175270000Y-110575000D01*
X177175000Y-111207460D02*
X175905000Y-111207460D01*
X177810000Y-110575000D02*
X177175000Y-111207460D01*
X177810000Y-109305000D02*
X177810000Y-110575000D01*
X177175000Y-108670000D02*
X177810000Y-109305000D01*
X175905000Y-108670000D02*
X177175000Y-108670000D01*
X175270000Y-109305000D02*
X175905000Y-108670000D01*
X180350000Y-110575000D02*
X179715000Y-111207460D01*
X180350000Y-109305000D02*
X180350000Y-110575000D01*
X179715000Y-108670000D02*
X180350000Y-109305000D01*
X178445000Y-108670000D02*
X179715000Y-108670000D01*
X182255000Y-96224000D02*
X180985000Y-96224000D01*
X180350000Y-95589000D02*
X180985000Y-96224000D01*
X180985000Y-93686540D02*
X180350000Y-94319000D01*
X182890000Y-95589000D02*
X182255000Y-96224000D01*
X182890000Y-94319000D02*
X182890000Y-95589000D01*
X182255000Y-93686540D02*
X182890000Y-94319000D01*
X180985000Y-93686540D02*
X182255000Y-93686540D01*
X133995000Y-96224000D02*
X132725000Y-96224000D01*
X132090000Y-95589000D02*
X132725000Y-96224000D01*
X132725000Y-93686540D02*
X132090000Y-94319000D01*
X132090000Y-94319000D02*
X132090000Y-95589000D01*
X135265000Y-96224000D02*
X134630000Y-95589000D01*
X136535000Y-96224000D02*
X135265000Y-96224000D01*
X137170000Y-95589000D02*
X136535000Y-96224000D01*
X137170000Y-94319000D02*
X137170000Y-95589000D01*
X136535000Y-93686540D02*
X137170000Y-94319000D01*
X135265000Y-93686540D02*
X136535000Y-93686540D01*
X134630000Y-94319000D02*
X135265000Y-93686540D01*
X134630000Y-95589000D02*
X133995000Y-96224000D01*
X134630000Y-94319000D02*
X134630000Y-95589000D01*
X133995000Y-93686540D02*
X134630000Y-94319000D01*
X132725000Y-93686540D02*
X133995000Y-93686540D01*
X141615000Y-96224000D02*
X140345000Y-96224000D01*
X139710000Y-95589000D02*
X140345000Y-96224000D01*
X140345000Y-93686540D02*
X139710000Y-94319000D01*
X137805000Y-96224000D02*
X137170000Y-95589000D01*
X139075000Y-96224000D02*
X137805000Y-96224000D01*
X139710000Y-95589000D02*
X139075000Y-96224000D01*
X139710000Y-94319000D02*
X139710000Y-95589000D01*
X139075000Y-93686540D02*
X139710000Y-94319000D01*
X137805000Y-93686540D02*
X139075000Y-93686540D01*
X137170000Y-94319000D02*
X137805000Y-93686540D01*
X142885000Y-96224000D02*
X142250000Y-95589000D01*
X144155000Y-96224000D02*
X142885000Y-96224000D01*
X144790000Y-95589000D02*
X144155000Y-96224000D01*
X144790000Y-94319000D02*
X144790000Y-95589000D01*
X144155000Y-93686540D02*
X144790000Y-94319000D01*
X142885000Y-93686540D02*
X144155000Y-93686540D01*
X142250000Y-94319000D02*
X142885000Y-93686540D01*
X142250000Y-95589000D02*
X141615000Y-96224000D01*
X142250000Y-94319000D02*
X142250000Y-95589000D01*
X141615000Y-93686540D02*
X142250000Y-94319000D01*
X140345000Y-93686540D02*
X141615000Y-93686540D01*
X149235000Y-96224000D02*
X147965000Y-96224000D01*
X147330000Y-95589000D02*
X147965000Y-96224000D01*
X147965000Y-93686540D02*
X147330000Y-94319000D01*
X145425000Y-96224000D02*
X144790000Y-95589000D01*
X146695000Y-96224000D02*
X145425000Y-96224000D01*
X147330000Y-95589000D02*
X146695000Y-96224000D01*
X147330000Y-94319000D02*
X147330000Y-95589000D01*
X146695000Y-93686540D02*
X147330000Y-94319000D01*
X145425000Y-93686540D02*
X146695000Y-93686540D01*
X144790000Y-94319000D02*
X145425000Y-93686540D01*
X150505000Y-96224000D02*
X149870000Y-95589000D01*
X151775000Y-96224000D02*
X150505000Y-96224000D01*
X152410000Y-95589000D02*
X151775000Y-96224000D01*
X152410000Y-94319000D02*
X152410000Y-95589000D01*
X151775000Y-93686540D02*
X152410000Y-94319000D01*
X150505000Y-93686540D02*
X151775000Y-93686540D01*
X149870000Y-94319000D02*
X150505000Y-93686540D01*
X149870000Y-95589000D02*
X149235000Y-96224000D01*
X149870000Y-94319000D02*
X149870000Y-95589000D01*
X149235000Y-93686540D02*
X149870000Y-94319000D01*
X147965000Y-93686540D02*
X149235000Y-93686540D01*
X156855000Y-96224000D02*
X155585000Y-96224000D01*
X154950000Y-95589000D02*
X155585000Y-96224000D01*
X155585000Y-93686540D02*
X154950000Y-94319000D01*
X153045000Y-96224000D02*
X152410000Y-95589000D01*
X154315000Y-96224000D02*
X153045000Y-96224000D01*
X154950000Y-95589000D02*
X154315000Y-96224000D01*
X154950000Y-94319000D02*
X154950000Y-95589000D01*
X154315000Y-93686540D02*
X154950000Y-94319000D01*
X153045000Y-93686540D02*
X154315000Y-93686540D01*
X152410000Y-94319000D02*
X153045000Y-93686540D01*
X158125000Y-96224000D02*
X157490000Y-95589000D01*
X159395000Y-96224000D02*
X158125000Y-96224000D01*
X160030000Y-95589000D02*
X159395000Y-96224000D01*
X160030000Y-94319000D02*
X160030000Y-95589000D01*
X159395000Y-93686540D02*
X160030000Y-94319000D01*
X158125000Y-93686540D02*
X159395000Y-93686540D01*
X157490000Y-94319000D02*
X158125000Y-93686540D01*
X157490000Y-95589000D02*
X156855000Y-96224000D01*
X157490000Y-94319000D02*
X157490000Y-95589000D01*
X156855000Y-93686540D02*
X157490000Y-94319000D01*
X155585000Y-93686540D02*
X156855000Y-93686540D01*
X164475000Y-96224000D02*
X163205000Y-96224000D01*
X162570000Y-95589000D02*
X163205000Y-96224000D01*
X163205000Y-93686540D02*
X162570000Y-94319000D01*
X160665000Y-96224000D02*
X160030000Y-95589000D01*
X161935000Y-96224000D02*
X160665000Y-96224000D01*
X162570000Y-95589000D02*
X161935000Y-96224000D01*
X162570000Y-94319000D02*
X162570000Y-95589000D01*
X161935000Y-93686540D02*
X162570000Y-94319000D01*
X160665000Y-93686540D02*
X161935000Y-93686540D01*
X160030000Y-94319000D02*
X160665000Y-93686540D01*
X165745000Y-96224000D02*
X165110000Y-95589000D01*
X167015000Y-96224000D02*
X165745000Y-96224000D01*
X167650000Y-95589000D02*
X167015000Y-96224000D01*
X167650000Y-94319000D02*
X167650000Y-95589000D01*
X167015000Y-93686540D02*
X167650000Y-94319000D01*
X165745000Y-93686540D02*
X167015000Y-93686540D01*
X165110000Y-94319000D02*
X165745000Y-93686540D01*
X165110000Y-95589000D02*
X164475000Y-96224000D01*
X165110000Y-94319000D02*
X165110000Y-95589000D01*
X164475000Y-93686540D02*
X165110000Y-94319000D01*
X163205000Y-93686540D02*
X164475000Y-93686540D01*
X172095000Y-96224000D02*
X170825000Y-96224000D01*
X170190000Y-95589000D02*
X170825000Y-96224000D01*
X170825000Y-93686540D02*
X170190000Y-94319000D01*
X168285000Y-96224000D02*
X167650000Y-95589000D01*
X169555000Y-96224000D02*
X168285000Y-96224000D01*
X170190000Y-95589000D02*
X169555000Y-96224000D01*
X170190000Y-94319000D02*
X170190000Y-95589000D01*
X169555000Y-93686540D02*
X170190000Y-94319000D01*
X168285000Y-93686540D02*
X169555000Y-93686540D01*
X167650000Y-94319000D02*
X168285000Y-93686540D01*
X173365000Y-96224000D02*
X172730000Y-95589000D01*
X174635000Y-96224000D02*
X173365000Y-96224000D01*
X175270000Y-95589000D02*
X174635000Y-96224000D01*
X175270000Y-94319000D02*
X175270000Y-95589000D01*
X174635000Y-93686540D02*
X175270000Y-94319000D01*
X173365000Y-93686540D02*
X174635000Y-93686540D01*
X172730000Y-94319000D02*
X173365000Y-93686540D01*
X172730000Y-95589000D02*
X172095000Y-96224000D01*
X172730000Y-94319000D02*
X172730000Y-95589000D01*
X172095000Y-93686540D02*
X172730000Y-94319000D01*
X170825000Y-93686540D02*
X172095000Y-93686540D01*
X179715000Y-96224000D02*
X178445000Y-96224000D01*
X177810000Y-95589000D02*
X178445000Y-96224000D01*
X178445000Y-93686540D02*
X177810000Y-94319000D01*
X175905000Y-96224000D02*
X175270000Y-95589000D01*
X177175000Y-96224000D02*
X175905000Y-96224000D01*
X177810000Y-95589000D02*
X177175000Y-96224000D01*
X177810000Y-94319000D02*
X177810000Y-95589000D01*
X177175000Y-93686540D02*
X177810000Y-94319000D01*
X175905000Y-93686540D02*
X177175000Y-93686540D01*
X175270000Y-94319000D02*
X175905000Y-93686540D01*
X180350000Y-95589000D02*
X179715000Y-96224000D01*
X180350000Y-94319000D02*
X180350000Y-95589000D01*
X179715000Y-93686540D02*
X180350000Y-94319000D01*
X178445000Y-93686540D02*
X179715000Y-93686540D01*
%TO.C,SW2*%
X149898000Y-120879000D02*
X148374000Y-120879000D01*
X149898000Y-120879000D02*
X149898000Y-117069000D01*
X148374000Y-117069000D02*
X149898000Y-117069000D01*
X148374000Y-117069000D02*
X148374000Y-120879000D01*
X152438000Y-120879000D02*
X150914000Y-120879000D01*
X152438000Y-120879000D02*
X152438000Y-117069000D01*
X150914000Y-117069000D02*
X152438000Y-117069000D01*
X150914000Y-117069000D02*
X150914000Y-120879000D01*
X154978000Y-120879000D02*
X153454000Y-120879000D01*
X154978000Y-120879000D02*
X154978000Y-117069000D01*
X153454000Y-117069000D02*
X154978000Y-117069000D01*
X153454000Y-117069000D02*
X153454000Y-120879000D01*
X156248000Y-120625000D02*
X156248000Y-117323000D01*
X156248000Y-117323000D02*
X156248000Y-114021000D01*
X155740000Y-120625000D02*
X156248000Y-120625000D01*
X155740000Y-117323000D02*
X155740000Y-120625000D01*
X156248000Y-117323000D02*
X155740000Y-117323000D01*
X156248000Y-123927000D02*
X156248000Y-120625000D01*
X147104000Y-117323000D02*
X147104000Y-120625000D01*
X147104000Y-120625000D02*
X147104000Y-123927000D01*
X147612000Y-117323000D02*
X147104000Y-117323000D01*
X147612000Y-120625000D02*
X147612000Y-117323000D01*
X147104000Y-120625000D02*
X147612000Y-120625000D01*
X147104000Y-114021000D02*
X147104000Y-117323000D01*
X156248000Y-114021000D02*
X147104000Y-114021000D01*
X147104000Y-123927000D02*
X156248000Y-123927000D01*
D17*
X148628000Y-120625000D02*
X148628000Y-120244000D01*
X148628000Y-120244000D02*
X149644000Y-120244000D01*
X149644000Y-120625000D02*
X149644000Y-120244000D01*
X148628000Y-120625000D02*
X149644000Y-120625000D01*
X148628000Y-119990000D02*
X148628000Y-119609000D01*
X148628000Y-119609000D02*
X149644000Y-119609000D01*
X149644000Y-119990000D02*
X149644000Y-119609000D01*
X148628000Y-119990000D02*
X149644000Y-119990000D01*
X148628000Y-119355000D02*
X148628000Y-118974000D01*
X148628000Y-118974000D02*
X149644000Y-118974000D01*
X149644000Y-119355000D02*
X149644000Y-118974000D01*
X148628000Y-119355000D02*
X149644000Y-119355000D01*
X151168000Y-120625000D02*
X151168000Y-120244000D01*
X151168000Y-120244000D02*
X152184000Y-120244000D01*
X152184000Y-120625000D02*
X152184000Y-120244000D01*
X151168000Y-120625000D02*
X152184000Y-120625000D01*
X151168000Y-119990000D02*
X151168000Y-119609000D01*
X151168000Y-119609000D02*
X152184000Y-119609000D01*
X152184000Y-119990000D02*
X152184000Y-119609000D01*
X151168000Y-119990000D02*
X152184000Y-119990000D01*
X151168000Y-119355000D02*
X151168000Y-118974000D01*
X151168000Y-118974000D02*
X152184000Y-118974000D01*
X152184000Y-119355000D02*
X152184000Y-118974000D01*
X151168000Y-119355000D02*
X152184000Y-119355000D01*
X153708000Y-120625000D02*
X153708000Y-120244000D01*
X153708000Y-120244000D02*
X154724000Y-120244000D01*
X154724000Y-120625000D02*
X154724000Y-120244000D01*
X153708000Y-120625000D02*
X154724000Y-120625000D01*
X153708000Y-119990000D02*
X153708000Y-119609000D01*
X153708000Y-119609000D02*
X154724000Y-119609000D01*
X154724000Y-119990000D02*
X154724000Y-119609000D01*
X153708000Y-119990000D02*
X154724000Y-119990000D01*
X153708000Y-119355000D02*
X153708000Y-118974000D01*
X153708000Y-118974000D02*
X154724000Y-118974000D01*
X154724000Y-119355000D02*
X154724000Y-118974000D01*
X153708000Y-119355000D02*
X154724000Y-119355000D01*
%TO.C,SW1*%
X132546500Y-121069500D02*
X132546500Y-120053500D01*
X132546500Y-120053500D02*
X132165500Y-120053500D01*
X132165500Y-121069500D02*
X132165500Y-120053500D01*
X132546500Y-121069500D02*
X132165500Y-121069500D01*
X132546500Y-120434500D02*
X132546500Y-119418500D01*
X132546500Y-119418500D02*
X132165500Y-119418500D01*
X132165500Y-120434500D02*
X132165500Y-119418500D01*
X132546500Y-120434500D02*
X132165500Y-120434500D01*
X132546500Y-119799500D02*
X132546500Y-118783500D01*
X132546500Y-118783500D02*
X132165500Y-118783500D01*
X132165500Y-119799500D02*
X132165500Y-118783500D01*
X132546500Y-119799500D02*
X132165500Y-119799500D01*
D18*
X134103520Y-123472340D02*
X134103520Y-114475660D01*
X134103520Y-114475660D02*
X130608480Y-114475660D01*
X130608480Y-114475660D02*
X130608480Y-123472340D01*
X130608480Y-123472340D02*
X134103520Y-123472340D01*
X131606700Y-117226480D02*
X131606700Y-120972980D01*
X131606700Y-120972980D02*
X133105300Y-120972980D01*
X133105300Y-120972980D02*
X133105300Y-117226480D01*
X133105300Y-117226480D02*
X131606700Y-117226480D01*
D19*
%TO.C,R1*%
X183066000Y-118371936D02*
X183066000Y-119576064D01*
X181246000Y-118371936D02*
X181246000Y-119576064D01*
%TO.C,R2*%
X179256000Y-118371936D02*
X179256000Y-119576064D01*
X177436000Y-118371936D02*
X177436000Y-119576064D01*
%TO.C,R3*%
X175446000Y-118371936D02*
X175446000Y-119576064D01*
X173626000Y-118371936D02*
X173626000Y-119576064D01*
%TO.C,R4*%
X171636000Y-118371936D02*
X171636000Y-119576064D01*
X169816000Y-118371936D02*
X169816000Y-119576064D01*
%TO.C,R5*%
X166006000Y-119576064D02*
X166006000Y-118371936D01*
X167826000Y-119576064D02*
X167826000Y-118371936D01*
%TD*%
M02*
