G04 #@! TF.GenerationSoftware,KiCad,Pcbnew,(5.0.0)*
G04 #@! TF.CreationDate,2018-09-19T20:24:58-05:00*
G04 #@! TF.ProjectId,27C160_Adapter,3237433136305F416461707465722E6B,1.0*
G04 #@! TF.SameCoordinates,Original*
G04 #@! TF.FileFunction,Legend,Top*
G04 #@! TF.FilePolarity,Positive*
%FSLAX46Y46*%
G04 Gerber Fmt 4.6, Leading zero omitted, Abs format (unit mm)*
G04 Created by KiCad (PCBNEW (5.0.0)) date 09/19/18 20:24:58*
%MOMM*%
%LPD*%
G01*
G04 APERTURE LIST*
%ADD10C,0.113792*%
%ADD11C,0.134112*%
%ADD12C,0.081280*%
%ADD13C,0.150000*%
%ADD14C,0.120000*%
%ADD15C,0.152400*%
%ADD16C,0.100000*%
%ADD17C,0.127000*%
%ADD18C,0.203200*%
%ADD19C,0.101600*%
G04 APERTURE END LIST*
D10*
X170908438Y-123775893D02*
X171358864Y-125127173D01*
X171809291Y-123775893D01*
X171937984Y-125255866D02*
X172967531Y-125255866D01*
X173224918Y-123904586D02*
X173289264Y-123840240D01*
X173417958Y-123775893D01*
X173739691Y-123775893D01*
X173868384Y-123840240D01*
X173932731Y-123904586D01*
X173997078Y-124033280D01*
X173997078Y-124161973D01*
X173932731Y-124355013D01*
X173160571Y-125127173D01*
X173997078Y-125127173D01*
X174833584Y-123775893D02*
X174962278Y-123775893D01*
X175090971Y-123840240D01*
X175155318Y-123904586D01*
X175219664Y-124033280D01*
X175284011Y-124290666D01*
X175284011Y-124612400D01*
X175219664Y-124869786D01*
X175155318Y-124998480D01*
X175090971Y-125062826D01*
X174962278Y-125127173D01*
X174833584Y-125127173D01*
X174704891Y-125062826D01*
X174640544Y-124998480D01*
X174576198Y-124869786D01*
X174511851Y-124612400D01*
X174511851Y-124290666D01*
X174576198Y-124033280D01*
X174640544Y-123904586D01*
X174704891Y-123840240D01*
X174833584Y-123775893D01*
X176570944Y-125127173D02*
X175798784Y-125127173D01*
X176184864Y-125127173D02*
X176184864Y-123775893D01*
X176056171Y-123968933D01*
X175927478Y-124097626D01*
X175798784Y-124161973D01*
X177343104Y-124355013D02*
X177214411Y-124290666D01*
X177150064Y-124226320D01*
X177085718Y-124097626D01*
X177085718Y-124033280D01*
X177150064Y-123904586D01*
X177214411Y-123840240D01*
X177343104Y-123775893D01*
X177600491Y-123775893D01*
X177729184Y-123840240D01*
X177793531Y-123904586D01*
X177857878Y-124033280D01*
X177857878Y-124097626D01*
X177793531Y-124226320D01*
X177729184Y-124290666D01*
X177600491Y-124355013D01*
X177343104Y-124355013D01*
X177214411Y-124419360D01*
X177150064Y-124483706D01*
X177085718Y-124612400D01*
X177085718Y-124869786D01*
X177150064Y-124998480D01*
X177214411Y-125062826D01*
X177343104Y-125127173D01*
X177600491Y-125127173D01*
X177729184Y-125062826D01*
X177793531Y-124998480D01*
X177857878Y-124869786D01*
X177857878Y-124612400D01*
X177793531Y-124483706D01*
X177729184Y-124419360D01*
X177600491Y-124355013D01*
X178694384Y-123775893D02*
X178823078Y-123775893D01*
X178951771Y-123840240D01*
X179016118Y-123904586D01*
X179080464Y-124033280D01*
X179144811Y-124290666D01*
X179144811Y-124612400D01*
X179080464Y-124869786D01*
X179016118Y-124998480D01*
X178951771Y-125062826D01*
X178823078Y-125127173D01*
X178694384Y-125127173D01*
X178565691Y-125062826D01*
X178501344Y-124998480D01*
X178436998Y-124869786D01*
X178372651Y-124612400D01*
X178372651Y-124290666D01*
X178436998Y-124033280D01*
X178501344Y-123904586D01*
X178565691Y-123840240D01*
X178694384Y-123775893D01*
X179788278Y-125127173D02*
X180045664Y-125127173D01*
X180174358Y-125062826D01*
X180238704Y-124998480D01*
X180367398Y-124805440D01*
X180431744Y-124548053D01*
X180431744Y-124033280D01*
X180367398Y-123904586D01*
X180303051Y-123840240D01*
X180174358Y-123775893D01*
X179916971Y-123775893D01*
X179788278Y-123840240D01*
X179723931Y-123904586D01*
X179659584Y-124033280D01*
X179659584Y-124355013D01*
X179723931Y-124483706D01*
X179788278Y-124548053D01*
X179916971Y-124612400D01*
X180174358Y-124612400D01*
X180303051Y-124548053D01*
X180367398Y-124483706D01*
X180431744Y-124355013D01*
X181718678Y-125127173D02*
X180946518Y-125127173D01*
X181332598Y-125127173D02*
X181332598Y-123775893D01*
X181203904Y-123968933D01*
X181075211Y-124097626D01*
X180946518Y-124161973D01*
X182362144Y-125127173D02*
X182619531Y-125127173D01*
X182748224Y-125062826D01*
X182812571Y-124998480D01*
X182941264Y-124805440D01*
X183005611Y-124548053D01*
X183005611Y-124033280D01*
X182941264Y-123904586D01*
X182876918Y-123840240D01*
X182748224Y-123775893D01*
X182490838Y-123775893D01*
X182362144Y-123840240D01*
X182297798Y-123904586D01*
X182233451Y-124033280D01*
X182233451Y-124355013D01*
X182297798Y-124483706D01*
X182362144Y-124548053D01*
X182490838Y-124612400D01*
X182748224Y-124612400D01*
X182876918Y-124548053D01*
X182941264Y-124483706D01*
X183005611Y-124355013D01*
D11*
X186443257Y-124069478D02*
X186367420Y-123993641D01*
X186291582Y-123841967D01*
X186291582Y-123462781D01*
X186367420Y-123311107D01*
X186443257Y-123235270D01*
X186594931Y-123159432D01*
X186746605Y-123159432D01*
X186974117Y-123235270D01*
X187884162Y-124145315D01*
X187884162Y-123159432D01*
X186291582Y-122628572D02*
X186291582Y-121566852D01*
X187884162Y-122249387D01*
X187808325Y-120277621D02*
X187884162Y-120429295D01*
X187884162Y-120732644D01*
X187808325Y-120884318D01*
X187732488Y-120960155D01*
X187580814Y-121035992D01*
X187125791Y-121035992D01*
X186974117Y-120960155D01*
X186898280Y-120884318D01*
X186822442Y-120732644D01*
X186822442Y-120429295D01*
X186898280Y-120277621D01*
X187884162Y-118760878D02*
X187884162Y-119670924D01*
X187884162Y-119215901D02*
X186291582Y-119215901D01*
X186519094Y-119367575D01*
X186670768Y-119519250D01*
X186746605Y-119670924D01*
X186291582Y-117395810D02*
X186291582Y-117699158D01*
X186367420Y-117850832D01*
X186443257Y-117926670D01*
X186670768Y-118078344D01*
X186974117Y-118154181D01*
X187580814Y-118154181D01*
X187732488Y-118078344D01*
X187808325Y-118002507D01*
X187884162Y-117850832D01*
X187884162Y-117547484D01*
X187808325Y-117395810D01*
X187732488Y-117319972D01*
X187580814Y-117244135D01*
X187201628Y-117244135D01*
X187049954Y-117319972D01*
X186974117Y-117395810D01*
X186898280Y-117547484D01*
X186898280Y-117850832D01*
X186974117Y-118002507D01*
X187049954Y-118078344D01*
X187201628Y-118154181D01*
X186291582Y-116258252D02*
X186291582Y-116106578D01*
X186367420Y-115954904D01*
X186443257Y-115879067D01*
X186594931Y-115803230D01*
X186898280Y-115727392D01*
X187277465Y-115727392D01*
X187580814Y-115803230D01*
X187732488Y-115879067D01*
X187808325Y-115954904D01*
X187884162Y-116106578D01*
X187884162Y-116258252D01*
X187808325Y-116409927D01*
X187732488Y-116485764D01*
X187580814Y-116561601D01*
X187277465Y-116637438D01*
X186898280Y-116637438D01*
X186594931Y-116561601D01*
X186443257Y-116485764D01*
X186367420Y-116409927D01*
X186291582Y-116258252D01*
X186215745Y-113907301D02*
X188263348Y-115272370D01*
X186291582Y-113528115D02*
X186291582Y-112542232D01*
X186898280Y-113073092D01*
X186898280Y-112845581D01*
X186974117Y-112693907D01*
X187049954Y-112618070D01*
X187201628Y-112542232D01*
X187580814Y-112542232D01*
X187732488Y-112618070D01*
X187808325Y-112693907D01*
X187884162Y-112845581D01*
X187884162Y-113300604D01*
X187808325Y-113452278D01*
X187732488Y-113528115D01*
X186443257Y-111935535D02*
X186367420Y-111859698D01*
X186291582Y-111708024D01*
X186291582Y-111328838D01*
X186367420Y-111177164D01*
X186443257Y-111101327D01*
X186594931Y-111025490D01*
X186746605Y-111025490D01*
X186974117Y-111101327D01*
X187884162Y-112011372D01*
X187884162Y-111025490D01*
X186443257Y-110418792D02*
X186367420Y-110342955D01*
X186291582Y-110191281D01*
X186291582Y-109812095D01*
X186367420Y-109660421D01*
X186443257Y-109584584D01*
X186594931Y-109508747D01*
X186746605Y-109508747D01*
X186974117Y-109584584D01*
X187884162Y-110494630D01*
X187884162Y-109508747D01*
X186215745Y-107688655D02*
X188263348Y-109053724D01*
X186822442Y-106475261D02*
X187884162Y-106475261D01*
X186215745Y-106854447D02*
X187353302Y-107233632D01*
X187353302Y-106247750D01*
X186291582Y-105337704D02*
X186291582Y-105186030D01*
X186367420Y-105034355D01*
X186443257Y-104958518D01*
X186594931Y-104882681D01*
X186898280Y-104806844D01*
X187277465Y-104806844D01*
X187580814Y-104882681D01*
X187732488Y-104958518D01*
X187808325Y-105034355D01*
X187884162Y-105186030D01*
X187884162Y-105337704D01*
X187808325Y-105489378D01*
X187732488Y-105565215D01*
X187580814Y-105641052D01*
X187277465Y-105716890D01*
X186898280Y-105716890D01*
X186594931Y-105641052D01*
X186443257Y-105565215D01*
X186367420Y-105489378D01*
X186291582Y-105337704D01*
X186291582Y-103820961D02*
X186291582Y-103669287D01*
X186367420Y-103517612D01*
X186443257Y-103441775D01*
X186594931Y-103365938D01*
X186898280Y-103290101D01*
X187277465Y-103290101D01*
X187580814Y-103365938D01*
X187732488Y-103441775D01*
X187808325Y-103517612D01*
X187884162Y-103669287D01*
X187884162Y-103820961D01*
X187808325Y-103972635D01*
X187732488Y-104048472D01*
X187580814Y-104124310D01*
X187277465Y-104200147D01*
X186898280Y-104200147D01*
X186594931Y-104124310D01*
X186443257Y-104048472D01*
X186367420Y-103972635D01*
X186291582Y-103820961D01*
X186215745Y-101470010D02*
X188263348Y-102835078D01*
X186974117Y-100711638D02*
X186898280Y-100863312D01*
X186822442Y-100939150D01*
X186670768Y-101014987D01*
X186594931Y-101014987D01*
X186443257Y-100939150D01*
X186367420Y-100863312D01*
X186291582Y-100711638D01*
X186291582Y-100408290D01*
X186367420Y-100256615D01*
X186443257Y-100180778D01*
X186594931Y-100104941D01*
X186670768Y-100104941D01*
X186822442Y-100180778D01*
X186898280Y-100256615D01*
X186974117Y-100408290D01*
X186974117Y-100711638D01*
X187049954Y-100863312D01*
X187125791Y-100939150D01*
X187277465Y-101014987D01*
X187580814Y-101014987D01*
X187732488Y-100939150D01*
X187808325Y-100863312D01*
X187884162Y-100711638D01*
X187884162Y-100408290D01*
X187808325Y-100256615D01*
X187732488Y-100180778D01*
X187580814Y-100104941D01*
X187277465Y-100104941D01*
X187125791Y-100180778D01*
X187049954Y-100256615D01*
X186974117Y-100408290D01*
X186291582Y-99119058D02*
X186291582Y-98967384D01*
X186367420Y-98815710D01*
X186443257Y-98739872D01*
X186594931Y-98664035D01*
X186898280Y-98588198D01*
X187277465Y-98588198D01*
X187580814Y-98664035D01*
X187732488Y-98739872D01*
X187808325Y-98815710D01*
X187884162Y-98967384D01*
X187884162Y-99119058D01*
X187808325Y-99270732D01*
X187732488Y-99346570D01*
X187580814Y-99422407D01*
X187277465Y-99498244D01*
X186898280Y-99498244D01*
X186594931Y-99422407D01*
X186443257Y-99346570D01*
X186367420Y-99270732D01*
X186291582Y-99119058D01*
X186291582Y-97602315D02*
X186291582Y-97450641D01*
X186367420Y-97298967D01*
X186443257Y-97223130D01*
X186594931Y-97147292D01*
X186898280Y-97071455D01*
X187277465Y-97071455D01*
X187580814Y-97147292D01*
X187732488Y-97223130D01*
X187808325Y-97298967D01*
X187884162Y-97450641D01*
X187884162Y-97602315D01*
X187808325Y-97753990D01*
X187732488Y-97829827D01*
X187580814Y-97905664D01*
X187277465Y-97981501D01*
X186898280Y-97981501D01*
X186594931Y-97905664D01*
X186443257Y-97829827D01*
X186367420Y-97753990D01*
X186291582Y-97602315D01*
X187429140Y-95251364D02*
X187429140Y-94492992D01*
X187884162Y-95403038D02*
X186291582Y-94872178D01*
X187884162Y-94341318D01*
X187884162Y-93127924D02*
X186291582Y-93127924D01*
X187808325Y-93127924D02*
X187884162Y-93279598D01*
X187884162Y-93582947D01*
X187808325Y-93734621D01*
X187732488Y-93810458D01*
X187580814Y-93886295D01*
X187125791Y-93886295D01*
X186974117Y-93810458D01*
X186898280Y-93734621D01*
X186822442Y-93582947D01*
X186822442Y-93279598D01*
X186898280Y-93127924D01*
X187884162Y-91687018D02*
X187049954Y-91687018D01*
X186898280Y-91762855D01*
X186822442Y-91914530D01*
X186822442Y-92217878D01*
X186898280Y-92369552D01*
X187808325Y-91687018D02*
X187884162Y-91838692D01*
X187884162Y-92217878D01*
X187808325Y-92369552D01*
X187656651Y-92445390D01*
X187504977Y-92445390D01*
X187353302Y-92369552D01*
X187277465Y-92217878D01*
X187277465Y-91838692D01*
X187201628Y-91687018D01*
X186822442Y-90928647D02*
X188415022Y-90928647D01*
X186898280Y-90928647D02*
X186822442Y-90776972D01*
X186822442Y-90473624D01*
X186898280Y-90321950D01*
X186974117Y-90246112D01*
X187125791Y-90170275D01*
X187580814Y-90170275D01*
X187732488Y-90246112D01*
X187808325Y-90321950D01*
X187884162Y-90473624D01*
X187884162Y-90776972D01*
X187808325Y-90928647D01*
X186822442Y-89715252D02*
X186822442Y-89108555D01*
X186291582Y-89487741D02*
X187656651Y-89487741D01*
X187808325Y-89411904D01*
X187884162Y-89260230D01*
X187884162Y-89108555D01*
X187808325Y-87970998D02*
X187884162Y-88122672D01*
X187884162Y-88426021D01*
X187808325Y-88577695D01*
X187656651Y-88653532D01*
X187049954Y-88653532D01*
X186898280Y-88577695D01*
X186822442Y-88426021D01*
X186822442Y-88122672D01*
X186898280Y-87970998D01*
X187049954Y-87895161D01*
X187201628Y-87895161D01*
X187353302Y-88653532D01*
X187884162Y-87212627D02*
X186822442Y-87212627D01*
X187125791Y-87212627D02*
X186974117Y-87136790D01*
X186898280Y-87060952D01*
X186822442Y-86909278D01*
X186822442Y-86757604D01*
D12*
X148831082Y-125607838D02*
X148279539Y-125607838D01*
X148555310Y-125607838D02*
X148555310Y-124642638D01*
X148463387Y-124780523D01*
X148371463Y-124872447D01*
X148279539Y-124918409D01*
X149382625Y-125056295D02*
X149290701Y-125010333D01*
X149244739Y-124964371D01*
X149198777Y-124872447D01*
X149198777Y-124826485D01*
X149244739Y-124734561D01*
X149290701Y-124688600D01*
X149382625Y-124642638D01*
X149566472Y-124642638D01*
X149658396Y-124688600D01*
X149704358Y-124734561D01*
X149750320Y-124826485D01*
X149750320Y-124872447D01*
X149704358Y-124964371D01*
X149658396Y-125010333D01*
X149566472Y-125056295D01*
X149382625Y-125056295D01*
X149290701Y-125102257D01*
X149244739Y-125148219D01*
X149198777Y-125240142D01*
X149198777Y-125423990D01*
X149244739Y-125515914D01*
X149290701Y-125561876D01*
X149382625Y-125607838D01*
X149566472Y-125607838D01*
X149658396Y-125561876D01*
X149704358Y-125515914D01*
X149750320Y-125423990D01*
X149750320Y-125240142D01*
X149704358Y-125148219D01*
X149658396Y-125102257D01*
X149566472Y-125056295D01*
X151371082Y-125607838D02*
X150819539Y-125607838D01*
X151095310Y-125607838D02*
X151095310Y-124642638D01*
X151003387Y-124780523D01*
X150911463Y-124872447D01*
X150819539Y-124918409D01*
X151830701Y-125607838D02*
X152014548Y-125607838D01*
X152106472Y-125561876D01*
X152152434Y-125515914D01*
X152244358Y-125378028D01*
X152290320Y-125194180D01*
X152290320Y-124826485D01*
X152244358Y-124734561D01*
X152198396Y-124688600D01*
X152106472Y-124642638D01*
X151922625Y-124642638D01*
X151830701Y-124688600D01*
X151784739Y-124734561D01*
X151738777Y-124826485D01*
X151738777Y-125056295D01*
X151784739Y-125148219D01*
X151830701Y-125194180D01*
X151922625Y-125240142D01*
X152106472Y-125240142D01*
X152198396Y-125194180D01*
X152244358Y-125148219D01*
X152290320Y-125056295D01*
X153359539Y-124734561D02*
X153405501Y-124688600D01*
X153497425Y-124642638D01*
X153727234Y-124642638D01*
X153819158Y-124688600D01*
X153865120Y-124734561D01*
X153911082Y-124826485D01*
X153911082Y-124918409D01*
X153865120Y-125056295D01*
X153313577Y-125607838D01*
X153911082Y-125607838D01*
X154508587Y-124642638D02*
X154600510Y-124642638D01*
X154692434Y-124688600D01*
X154738396Y-124734561D01*
X154784358Y-124826485D01*
X154830320Y-125010333D01*
X154830320Y-125240142D01*
X154784358Y-125423990D01*
X154738396Y-125515914D01*
X154692434Y-125561876D01*
X154600510Y-125607838D01*
X154508587Y-125607838D01*
X154416663Y-125561876D01*
X154370701Y-125515914D01*
X154324739Y-125423990D01*
X154278777Y-125240142D01*
X154278777Y-125010333D01*
X154324739Y-124826485D01*
X154370701Y-124734561D01*
X154416663Y-124688600D01*
X154508587Y-124642638D01*
D13*
X135166100Y-118973600D02*
X145961100Y-118973600D01*
D10*
X135497451Y-116416666D02*
X135561798Y-116352320D01*
X135690491Y-116287973D01*
X136012224Y-116287973D01*
X136140918Y-116352320D01*
X136205264Y-116416666D01*
X136269611Y-116545360D01*
X136269611Y-116674053D01*
X136205264Y-116867093D01*
X135433104Y-117639253D01*
X136269611Y-117639253D01*
X136720038Y-116287973D02*
X137620891Y-116287973D01*
X137041771Y-117639253D01*
X138714784Y-117574906D02*
X138586091Y-117639253D01*
X138328704Y-117639253D01*
X138200011Y-117574906D01*
X138135664Y-117510560D01*
X138071318Y-117381866D01*
X138071318Y-116995786D01*
X138135664Y-116867093D01*
X138200011Y-116802746D01*
X138328704Y-116738400D01*
X138586091Y-116738400D01*
X138714784Y-116802746D01*
X139165211Y-116287973D02*
X140001718Y-116287973D01*
X139551291Y-116802746D01*
X139744331Y-116802746D01*
X139873024Y-116867093D01*
X139937371Y-116931440D01*
X140001718Y-117060133D01*
X140001718Y-117381866D01*
X139937371Y-117510560D01*
X139873024Y-117574906D01*
X139744331Y-117639253D01*
X139358251Y-117639253D01*
X139229558Y-117574906D01*
X139165211Y-117510560D01*
X140516491Y-116416666D02*
X140580838Y-116352320D01*
X140709531Y-116287973D01*
X141031264Y-116287973D01*
X141159958Y-116352320D01*
X141224304Y-116416666D01*
X141288651Y-116545360D01*
X141288651Y-116674053D01*
X141224304Y-116867093D01*
X140452144Y-117639253D01*
X141288651Y-117639253D01*
X141803424Y-116416666D02*
X141867771Y-116352320D01*
X141996464Y-116287973D01*
X142318198Y-116287973D01*
X142446891Y-116352320D01*
X142511238Y-116416666D01*
X142575584Y-116545360D01*
X142575584Y-116674053D01*
X142511238Y-116867093D01*
X141739078Y-117639253D01*
X142575584Y-117639253D01*
X135754838Y-121530533D02*
X135626144Y-121466186D01*
X135561798Y-121401840D01*
X135497451Y-121273146D01*
X135497451Y-120887066D01*
X135561798Y-120758373D01*
X135626144Y-120694026D01*
X135754838Y-120629680D01*
X135947878Y-120629680D01*
X136076571Y-120694026D01*
X136140918Y-120758373D01*
X136205264Y-120887066D01*
X136205264Y-121273146D01*
X136140918Y-121401840D01*
X136076571Y-121466186D01*
X135947878Y-121530533D01*
X135754838Y-121530533D01*
X136591344Y-120629680D02*
X137106118Y-120629680D01*
X136784384Y-120179253D02*
X136784384Y-121337493D01*
X136848731Y-121466186D01*
X136977424Y-121530533D01*
X137106118Y-121530533D01*
X137556544Y-121530533D02*
X137556544Y-120179253D01*
X138135664Y-121530533D02*
X138135664Y-120822720D01*
X138071318Y-120694026D01*
X137942624Y-120629680D01*
X137749584Y-120629680D01*
X137620891Y-120694026D01*
X137556544Y-120758373D01*
X139293904Y-121466186D02*
X139165211Y-121530533D01*
X138907824Y-121530533D01*
X138779131Y-121466186D01*
X138714784Y-121337493D01*
X138714784Y-120822720D01*
X138779131Y-120694026D01*
X138907824Y-120629680D01*
X139165211Y-120629680D01*
X139293904Y-120694026D01*
X139358251Y-120822720D01*
X139358251Y-120951413D01*
X138714784Y-121080106D01*
X139937371Y-121530533D02*
X139937371Y-120629680D01*
X139937371Y-120887066D02*
X140001718Y-120758373D01*
X140066064Y-120694026D01*
X140194758Y-120629680D01*
X140323451Y-120629680D01*
X146429611Y-117639253D02*
X145657451Y-117639253D01*
X146043531Y-117639253D02*
X146043531Y-116287973D01*
X145914838Y-116481013D01*
X145786144Y-116609706D01*
X145657451Y-116674053D01*
X145979184Y-120179253D02*
X146107878Y-120179253D01*
X146236571Y-120243600D01*
X146300918Y-120307946D01*
X146365264Y-120436640D01*
X146429611Y-120694026D01*
X146429611Y-121015760D01*
X146365264Y-121273146D01*
X146300918Y-121401840D01*
X146236571Y-121466186D01*
X146107878Y-121530533D01*
X145979184Y-121530533D01*
X145850491Y-121466186D01*
X145786144Y-121401840D01*
X145721798Y-121273146D01*
X145657451Y-121015760D01*
X145657451Y-120694026D01*
X145721798Y-120436640D01*
X145786144Y-120307946D01*
X145850491Y-120243600D01*
X145979184Y-120179253D01*
D14*
G04 #@! TO.C,R1*
X181246000Y-118371936D02*
X181246000Y-119576064D01*
X183066000Y-118371936D02*
X183066000Y-119576064D01*
G04 #@! TO.C,R2*
X177436000Y-118371936D02*
X177436000Y-119576064D01*
X179256000Y-118371936D02*
X179256000Y-119576064D01*
G04 #@! TO.C,R3*
X173626000Y-118371936D02*
X173626000Y-119576064D01*
X175446000Y-118371936D02*
X175446000Y-119576064D01*
G04 #@! TO.C,R4*
X169816000Y-118371936D02*
X169816000Y-119576064D01*
X171636000Y-118371936D02*
X171636000Y-119576064D01*
G04 #@! TO.C,R5*
X167826000Y-119576064D02*
X167826000Y-118371936D01*
X166006000Y-119576064D02*
X166006000Y-118371936D01*
D15*
G04 #@! TO.C,SW2*
X147104000Y-123927000D02*
X156248000Y-123927000D01*
X156248000Y-114021000D02*
X147104000Y-114021000D01*
X147104000Y-114021000D02*
X147104000Y-117323000D01*
X147104000Y-120625000D02*
X147612000Y-120625000D01*
X147612000Y-120625000D02*
X147612000Y-117323000D01*
X147612000Y-117323000D02*
X147104000Y-117323000D01*
X147104000Y-120625000D02*
X147104000Y-123927000D01*
X147104000Y-117323000D02*
X147104000Y-120625000D01*
X156248000Y-123927000D02*
X156248000Y-120625000D01*
X156248000Y-117323000D02*
X155740000Y-117323000D01*
X155740000Y-117323000D02*
X155740000Y-120625000D01*
X155740000Y-120625000D02*
X156248000Y-120625000D01*
X156248000Y-117323000D02*
X156248000Y-114021000D01*
X156248000Y-120625000D02*
X156248000Y-117323000D01*
X153454000Y-117069000D02*
X153454000Y-120879000D01*
X153454000Y-117069000D02*
X154978000Y-117069000D01*
X154978000Y-120879000D02*
X154978000Y-117069000D01*
X154978000Y-120879000D02*
X153454000Y-120879000D01*
X150914000Y-117069000D02*
X150914000Y-120879000D01*
X150914000Y-117069000D02*
X152438000Y-117069000D01*
X152438000Y-120879000D02*
X152438000Y-117069000D01*
X152438000Y-120879000D02*
X150914000Y-120879000D01*
X148374000Y-117069000D02*
X148374000Y-120879000D01*
X148374000Y-117069000D02*
X149898000Y-117069000D01*
X149898000Y-120879000D02*
X149898000Y-117069000D01*
X149898000Y-120879000D02*
X148374000Y-120879000D01*
D16*
G36*
X153708000Y-119355000D02*
X154724000Y-119355000D01*
X154724000Y-118974000D01*
X153708000Y-118974000D01*
X153708000Y-119355000D01*
G37*
G36*
X153708000Y-119990000D02*
X154724000Y-119990000D01*
X154724000Y-119609000D01*
X153708000Y-119609000D01*
X153708000Y-119990000D01*
G37*
G36*
X153708000Y-120625000D02*
X154724000Y-120625000D01*
X154724000Y-120244000D01*
X153708000Y-120244000D01*
X153708000Y-120625000D01*
G37*
G36*
X151168000Y-119355000D02*
X152184000Y-119355000D01*
X152184000Y-118974000D01*
X151168000Y-118974000D01*
X151168000Y-119355000D01*
G37*
G36*
X151168000Y-119990000D02*
X152184000Y-119990000D01*
X152184000Y-119609000D01*
X151168000Y-119609000D01*
X151168000Y-119990000D01*
G37*
G36*
X151168000Y-120625000D02*
X152184000Y-120625000D01*
X152184000Y-120244000D01*
X151168000Y-120244000D01*
X151168000Y-120625000D01*
G37*
G36*
X148628000Y-119355000D02*
X149644000Y-119355000D01*
X149644000Y-118974000D01*
X148628000Y-118974000D01*
X148628000Y-119355000D01*
G37*
G36*
X148628000Y-119990000D02*
X149644000Y-119990000D01*
X149644000Y-119609000D01*
X148628000Y-119609000D01*
X148628000Y-119990000D01*
G37*
G36*
X148628000Y-120625000D02*
X149644000Y-120625000D01*
X149644000Y-120244000D01*
X148628000Y-120244000D01*
X148628000Y-120625000D01*
G37*
D17*
G04 #@! TO.C,SW1*
X134106000Y-123474000D02*
X134106000Y-114474000D01*
X134106000Y-114474000D02*
X130606000Y-114474000D01*
X130606000Y-114474000D02*
X130606000Y-123474000D01*
X130606000Y-123474000D02*
X134106000Y-123474000D01*
X131606000Y-118724000D02*
X131606000Y-117224000D01*
X131606000Y-117224000D02*
X133106000Y-117224000D01*
X133106000Y-117224000D02*
X133106000Y-118724000D01*
X131606000Y-117224000D02*
X131606000Y-120974000D01*
X131606000Y-120974000D02*
X133106000Y-120974000D01*
X133106000Y-120974000D02*
X133106000Y-117224000D01*
X133106000Y-117224000D02*
X131606000Y-117224000D01*
D16*
G36*
X132546500Y-121069500D02*
X132546500Y-120053500D01*
X132165500Y-120053500D01*
X132165500Y-121069500D01*
X132546500Y-121069500D01*
G37*
G36*
X132546500Y-120434500D02*
X132546500Y-119418500D01*
X132165500Y-119418500D01*
X132165500Y-120434500D01*
X132546500Y-120434500D01*
G37*
G36*
X132546500Y-119799500D02*
X132546500Y-118783500D01*
X132165500Y-118783500D01*
X132165500Y-119799500D01*
X132546500Y-119799500D01*
G37*
D18*
G04 #@! TO.C,ZX1*
X109426000Y-84803600D02*
G75*
G03X108426000Y-85803600I0J-1000000D01*
G01*
X109426000Y-84803600D02*
X183026000Y-84803600D01*
X184026000Y-85803600D02*
G75*
G03X183026000Y-84803600I-1000000J0D01*
G01*
X184026000Y-85803600D02*
X184026000Y-106423600D01*
X183026000Y-107423600D02*
G75*
G03X184026000Y-106423600I0J1000000D01*
G01*
X183026000Y-107423600D02*
X109426000Y-107423600D01*
X108426000Y-106423600D02*
G75*
G03X109426000Y-107423600I1000000J0D01*
G01*
X108426000Y-106423600D02*
X108426000Y-85803600D01*
D19*
X110766000Y-95803600D02*
X110766000Y-95263600D01*
X110996000Y-95033600D02*
G75*
G03X110766000Y-95263600I0J-230000D01*
G01*
X111226000Y-95263600D02*
G75*
G03X110996000Y-95033600I-230000J0D01*
G01*
X111226000Y-95263600D02*
X111226000Y-95813600D01*
D18*
X108536000Y-103823600D02*
X111786000Y-103823600D01*
X113786000Y-105773598D02*
G75*
G03X111786000Y-103823600I-1999959J-50601D01*
G01*
X113786000Y-105773600D02*
X113786000Y-106423600D01*
X114836002Y-107423599D02*
G75*
G02X113786000Y-106423600I-48811J1000000D01*
G01*
D19*
X110686000Y-96343600D02*
X110146000Y-96343600D01*
X109916000Y-96113600D02*
G75*
G03X110146000Y-96343600I230000J0D01*
G01*
X110146000Y-95883600D02*
G75*
G03X109916000Y-96113600I0J-230000D01*
G01*
X110146000Y-95883600D02*
X110696000Y-95883600D01*
X110766000Y-95813600D02*
G75*
G02X110696000Y-95883600I-70000J0D01*
G01*
X110686000Y-96343600D02*
G75*
G02X110756000Y-96413600I0J-70000D01*
G01*
X111226000Y-96423600D02*
X111226000Y-96963600D01*
X110996000Y-97193600D02*
G75*
G03X111226000Y-96963600I0J230000D01*
G01*
X110766000Y-96963600D02*
G75*
G03X110996000Y-97193600I230000J0D01*
G01*
X110766000Y-96963600D02*
X110766000Y-96413600D01*
X111306000Y-95883600D02*
X111846000Y-95883600D01*
X112076000Y-96113600D02*
G75*
G03X111846000Y-95883600I-230000J0D01*
G01*
X111846000Y-96343600D02*
G75*
G03X112076000Y-96113600I0J230000D01*
G01*
X111846000Y-96343600D02*
X111296000Y-96343600D01*
X111226000Y-96413600D02*
G75*
G02X111296000Y-96343600I70000J0D01*
G01*
X111296000Y-95883600D02*
G75*
G02X111226000Y-95813600I0J70000D01*
G01*
X182166000Y-95803600D02*
X182166000Y-95263600D01*
X182396000Y-95033600D02*
G75*
G03X182166000Y-95263600I0J-230000D01*
G01*
X182626000Y-95263600D02*
G75*
G03X182396000Y-95033600I-230000J0D01*
G01*
X182626000Y-95263600D02*
X182626000Y-95813600D01*
X182086000Y-96343600D02*
X181546000Y-96343600D01*
X181316000Y-96113600D02*
G75*
G03X181546000Y-96343600I230000J0D01*
G01*
X181546000Y-95883600D02*
G75*
G03X181316000Y-96113600I0J-230000D01*
G01*
X181546000Y-95883600D02*
X182096000Y-95883600D01*
X182166000Y-95813600D02*
G75*
G02X182096000Y-95883600I-70000J0D01*
G01*
X182086000Y-96343600D02*
G75*
G02X182156000Y-96413600I0J-70000D01*
G01*
X182626000Y-96423600D02*
X182626000Y-96963600D01*
X182396000Y-97193600D02*
G75*
G03X182626000Y-96963600I0J230000D01*
G01*
X182166000Y-96963600D02*
G75*
G03X182396000Y-97193600I230000J0D01*
G01*
X182166000Y-96963600D02*
X182166000Y-96413600D01*
X182706000Y-95883600D02*
X183246000Y-95883600D01*
X183476000Y-96113600D02*
G75*
G03X183246000Y-95883600I-230000J0D01*
G01*
X183246000Y-96343600D02*
G75*
G03X183476000Y-96113600I0J230000D01*
G01*
X183246000Y-96343600D02*
X182696000Y-96343600D01*
X182626000Y-96413600D02*
G75*
G02X182696000Y-96343600I70000J0D01*
G01*
X182696000Y-95883600D02*
G75*
G02X182626000Y-95813600I0J70000D01*
G01*
X112526000Y-96113600D02*
G75*
G03X112526000Y-96113600I-1530000J0D01*
G01*
D18*
X112257800Y-105923600D02*
G75*
G03X112257800Y-105923600I-2071800J0D01*
G01*
D19*
X183926000Y-96113600D02*
G75*
G03X183926000Y-96113600I-1530000J0D01*
G01*
G04 #@! TO.C,R1*
D13*
X184428380Y-119140666D02*
X183952190Y-119474000D01*
X184428380Y-119712095D02*
X183428380Y-119712095D01*
X183428380Y-119331142D01*
X183476000Y-119235904D01*
X183523619Y-119188285D01*
X183618857Y-119140666D01*
X183761714Y-119140666D01*
X183856952Y-119188285D01*
X183904571Y-119235904D01*
X183952190Y-119331142D01*
X183952190Y-119712095D01*
X184428380Y-118188285D02*
X184428380Y-118759714D01*
X184428380Y-118474000D02*
X183428380Y-118474000D01*
X183571238Y-118569238D01*
X183666476Y-118664476D01*
X183714095Y-118759714D01*
G04 #@! TO.C,R2*
X180618380Y-119140666D02*
X180142190Y-119474000D01*
X180618380Y-119712095D02*
X179618380Y-119712095D01*
X179618380Y-119331142D01*
X179666000Y-119235904D01*
X179713619Y-119188285D01*
X179808857Y-119140666D01*
X179951714Y-119140666D01*
X180046952Y-119188285D01*
X180094571Y-119235904D01*
X180142190Y-119331142D01*
X180142190Y-119712095D01*
X179713619Y-118759714D02*
X179666000Y-118712095D01*
X179618380Y-118616857D01*
X179618380Y-118378761D01*
X179666000Y-118283523D01*
X179713619Y-118235904D01*
X179808857Y-118188285D01*
X179904095Y-118188285D01*
X180046952Y-118235904D01*
X180618380Y-118807333D01*
X180618380Y-118188285D01*
G04 #@! TO.C,R3*
X176808380Y-119140666D02*
X176332190Y-119474000D01*
X176808380Y-119712095D02*
X175808380Y-119712095D01*
X175808380Y-119331142D01*
X175856000Y-119235904D01*
X175903619Y-119188285D01*
X175998857Y-119140666D01*
X176141714Y-119140666D01*
X176236952Y-119188285D01*
X176284571Y-119235904D01*
X176332190Y-119331142D01*
X176332190Y-119712095D01*
X175808380Y-118807333D02*
X175808380Y-118188285D01*
X176189333Y-118521619D01*
X176189333Y-118378761D01*
X176236952Y-118283523D01*
X176284571Y-118235904D01*
X176379809Y-118188285D01*
X176617904Y-118188285D01*
X176713142Y-118235904D01*
X176760761Y-118283523D01*
X176808380Y-118378761D01*
X176808380Y-118664476D01*
X176760761Y-118759714D01*
X176713142Y-118807333D01*
G04 #@! TO.C,R4*
X172998380Y-119140666D02*
X172522190Y-119474000D01*
X172998380Y-119712095D02*
X171998380Y-119712095D01*
X171998380Y-119331142D01*
X172046000Y-119235904D01*
X172093619Y-119188285D01*
X172188857Y-119140666D01*
X172331714Y-119140666D01*
X172426952Y-119188285D01*
X172474571Y-119235904D01*
X172522190Y-119331142D01*
X172522190Y-119712095D01*
X172331714Y-118283523D02*
X172998380Y-118283523D01*
X171950761Y-118521619D02*
X172665047Y-118759714D01*
X172665047Y-118140666D01*
G04 #@! TO.C,R5*
X169232840Y-119163126D02*
X168756650Y-119496460D01*
X169232840Y-119734555D02*
X168232840Y-119734555D01*
X168232840Y-119353602D01*
X168280460Y-119258364D01*
X168328079Y-119210745D01*
X168423317Y-119163126D01*
X168566174Y-119163126D01*
X168661412Y-119210745D01*
X168709031Y-119258364D01*
X168756650Y-119353602D01*
X168756650Y-119734555D01*
X168232840Y-118258364D02*
X168232840Y-118734555D01*
X168709031Y-118782174D01*
X168661412Y-118734555D01*
X168613793Y-118639317D01*
X168613793Y-118401221D01*
X168661412Y-118305983D01*
X168709031Y-118258364D01*
X168804269Y-118210745D01*
X169042364Y-118210745D01*
X169137602Y-118258364D01*
X169185221Y-118305983D01*
X169232840Y-118401221D01*
X169232840Y-118639317D01*
X169185221Y-118734555D01*
X169137602Y-118782174D01*
G04 #@! TO.C,Q1*
D19*
X164136856Y-119086932D02*
X164076380Y-119207884D01*
X163955427Y-119328837D01*
X163773999Y-119510265D01*
X163713522Y-119631218D01*
X163713522Y-119752170D01*
X164015903Y-119691694D02*
X163955427Y-119812646D01*
X163834475Y-119933599D01*
X163592570Y-119994075D01*
X163169237Y-119994075D01*
X162927332Y-119933599D01*
X162806380Y-119812646D01*
X162745903Y-119691694D01*
X162745903Y-119449789D01*
X162806380Y-119328837D01*
X162927332Y-119207884D01*
X163169237Y-119147408D01*
X163592570Y-119147408D01*
X163834475Y-119207884D01*
X163955427Y-119328837D01*
X164015903Y-119449789D01*
X164015903Y-119691694D01*
X164015903Y-117937884D02*
X164015903Y-118663599D01*
X164015903Y-118300741D02*
X162745903Y-118300741D01*
X162927332Y-118421694D01*
X163048284Y-118542646D01*
X163108760Y-118663599D01*
G04 #@! TD*
M02*
