%TF.GenerationSoftware,KiCad,Pcbnew,7.0.8*%
%TF.CreationDate,2023-11-23T12:29:14-06:00*%
%TF.ProjectId,27C160_Adapter,32374331-3630-45f4-9164-61707465722e,1.1*%
%TF.SameCoordinates,Original*%
%TF.FileFunction,Legend,Bot*%
%TF.FilePolarity,Positive*%
%FSLAX46Y46*%
G04 Gerber Fmt 4.6, Leading zero omitted, Abs format (unit mm)*
G04 Created by KiCad (PCBNEW 7.0.8) date 2023-11-23 12:29:14*
%MOMM*%
%LPD*%
G01*
G04 APERTURE LIST*
%ADD10C,0.250000*%
%ADD11C,0.134112*%
%ADD12C,0.142240*%
%ADD13C,0.010000*%
G04 APERTURE END LIST*
D10*
X158481139Y-113576063D02*
X157481139Y-113576063D01*
X158481139Y-114052253D02*
X157481139Y-114052253D01*
X157481139Y-114052253D02*
X158481139Y-114623681D01*
X158481139Y-114623681D02*
X157481139Y-114623681D01*
X158433520Y-115052253D02*
X158481139Y-115195110D01*
X158481139Y-115195110D02*
X158481139Y-115433205D01*
X158481139Y-115433205D02*
X158433520Y-115528443D01*
X158433520Y-115528443D02*
X158385900Y-115576062D01*
X158385900Y-115576062D02*
X158290662Y-115623681D01*
X158290662Y-115623681D02*
X158195424Y-115623681D01*
X158195424Y-115623681D02*
X158100186Y-115576062D01*
X158100186Y-115576062D02*
X158052567Y-115528443D01*
X158052567Y-115528443D02*
X158004948Y-115433205D01*
X158004948Y-115433205D02*
X157957329Y-115242729D01*
X157957329Y-115242729D02*
X157909710Y-115147491D01*
X157909710Y-115147491D02*
X157862091Y-115099872D01*
X157862091Y-115099872D02*
X157766853Y-115052253D01*
X157766853Y-115052253D02*
X157671615Y-115052253D01*
X157671615Y-115052253D02*
X157576377Y-115099872D01*
X157576377Y-115099872D02*
X157528758Y-115147491D01*
X157528758Y-115147491D02*
X157481139Y-115242729D01*
X157481139Y-115242729D02*
X157481139Y-115480824D01*
X157481139Y-115480824D02*
X157528758Y-115623681D01*
X157481139Y-115909396D02*
X157481139Y-116480824D01*
X158481139Y-116195110D02*
X157481139Y-116195110D01*
X158481139Y-117385586D02*
X158004948Y-117052253D01*
X158481139Y-116814158D02*
X157481139Y-116814158D01*
X157481139Y-116814158D02*
X157481139Y-117195110D01*
X157481139Y-117195110D02*
X157528758Y-117290348D01*
X157528758Y-117290348D02*
X157576377Y-117337967D01*
X157576377Y-117337967D02*
X157671615Y-117385586D01*
X157671615Y-117385586D02*
X157814472Y-117385586D01*
X157814472Y-117385586D02*
X157909710Y-117337967D01*
X157909710Y-117337967D02*
X157957329Y-117290348D01*
X157957329Y-117290348D02*
X158004948Y-117195110D01*
X158004948Y-117195110D02*
X158004948Y-116814158D01*
X157481139Y-117814158D02*
X158290662Y-117814158D01*
X158290662Y-117814158D02*
X158385900Y-117861777D01*
X158385900Y-117861777D02*
X158433520Y-117909396D01*
X158433520Y-117909396D02*
X158481139Y-118004634D01*
X158481139Y-118004634D02*
X158481139Y-118195110D01*
X158481139Y-118195110D02*
X158433520Y-118290348D01*
X158433520Y-118290348D02*
X158385900Y-118337967D01*
X158385900Y-118337967D02*
X158290662Y-118385586D01*
X158290662Y-118385586D02*
X157481139Y-118385586D01*
X158385900Y-119433205D02*
X158433520Y-119385586D01*
X158433520Y-119385586D02*
X158481139Y-119242729D01*
X158481139Y-119242729D02*
X158481139Y-119147491D01*
X158481139Y-119147491D02*
X158433520Y-119004634D01*
X158433520Y-119004634D02*
X158338281Y-118909396D01*
X158338281Y-118909396D02*
X158243043Y-118861777D01*
X158243043Y-118861777D02*
X158052567Y-118814158D01*
X158052567Y-118814158D02*
X157909710Y-118814158D01*
X157909710Y-118814158D02*
X157719234Y-118861777D01*
X157719234Y-118861777D02*
X157623996Y-118909396D01*
X157623996Y-118909396D02*
X157528758Y-119004634D01*
X157528758Y-119004634D02*
X157481139Y-119147491D01*
X157481139Y-119147491D02*
X157481139Y-119242729D01*
X157481139Y-119242729D02*
X157528758Y-119385586D01*
X157528758Y-119385586D02*
X157576377Y-119433205D01*
X157481139Y-119718920D02*
X157481139Y-120290348D01*
X158481139Y-120004634D02*
X157481139Y-120004634D01*
X158481139Y-120623682D02*
X157481139Y-120623682D01*
X157481139Y-121290348D02*
X157481139Y-121480824D01*
X157481139Y-121480824D02*
X157528758Y-121576062D01*
X157528758Y-121576062D02*
X157623996Y-121671300D01*
X157623996Y-121671300D02*
X157814472Y-121718919D01*
X157814472Y-121718919D02*
X158147805Y-121718919D01*
X158147805Y-121718919D02*
X158338281Y-121671300D01*
X158338281Y-121671300D02*
X158433520Y-121576062D01*
X158433520Y-121576062D02*
X158481139Y-121480824D01*
X158481139Y-121480824D02*
X158481139Y-121290348D01*
X158481139Y-121290348D02*
X158433520Y-121195110D01*
X158433520Y-121195110D02*
X158338281Y-121099872D01*
X158338281Y-121099872D02*
X158147805Y-121052253D01*
X158147805Y-121052253D02*
X157814472Y-121052253D01*
X157814472Y-121052253D02*
X157623996Y-121099872D01*
X157623996Y-121099872D02*
X157528758Y-121195110D01*
X157528758Y-121195110D02*
X157481139Y-121290348D01*
X158481139Y-122147491D02*
X157481139Y-122147491D01*
X157481139Y-122147491D02*
X158481139Y-122718919D01*
X158481139Y-122718919D02*
X157481139Y-122718919D01*
X158433520Y-123147491D02*
X158481139Y-123290348D01*
X158481139Y-123290348D02*
X158481139Y-123528443D01*
X158481139Y-123528443D02*
X158433520Y-123623681D01*
X158433520Y-123623681D02*
X158385900Y-123671300D01*
X158385900Y-123671300D02*
X158290662Y-123718919D01*
X158290662Y-123718919D02*
X158195424Y-123718919D01*
X158195424Y-123718919D02*
X158100186Y-123671300D01*
X158100186Y-123671300D02*
X158052567Y-123623681D01*
X158052567Y-123623681D02*
X158004948Y-123528443D01*
X158004948Y-123528443D02*
X157957329Y-123337967D01*
X157957329Y-123337967D02*
X157909710Y-123242729D01*
X157909710Y-123242729D02*
X157862091Y-123195110D01*
X157862091Y-123195110D02*
X157766853Y-123147491D01*
X157766853Y-123147491D02*
X157671615Y-123147491D01*
X157671615Y-123147491D02*
X157576377Y-123195110D01*
X157576377Y-123195110D02*
X157528758Y-123242729D01*
X157528758Y-123242729D02*
X157481139Y-123337967D01*
X157481139Y-123337967D02*
X157481139Y-123576062D01*
X157481139Y-123576062D02*
X157528758Y-123718919D01*
X158385900Y-124147491D02*
X158433520Y-124195110D01*
X158433520Y-124195110D02*
X158481139Y-124147491D01*
X158481139Y-124147491D02*
X158433520Y-124099872D01*
X158433520Y-124099872D02*
X158385900Y-124147491D01*
X158385900Y-124147491D02*
X158481139Y-124147491D01*
X157862091Y-124147491D02*
X157909710Y-124195110D01*
X157909710Y-124195110D02*
X157957329Y-124147491D01*
X157957329Y-124147491D02*
X157909710Y-124099872D01*
X157909710Y-124099872D02*
X157862091Y-124147491D01*
X157862091Y-124147491D02*
X157957329Y-124147491D01*
X161701139Y-113528443D02*
X161701139Y-112957015D01*
X161701139Y-113242729D02*
X160701139Y-113242729D01*
X160701139Y-113242729D02*
X160843996Y-113147491D01*
X160843996Y-113147491D02*
X160939234Y-113052253D01*
X160939234Y-113052253D02*
X160986853Y-112957015D01*
X161605900Y-113957015D02*
X161653520Y-114004634D01*
X161653520Y-114004634D02*
X161701139Y-113957015D01*
X161701139Y-113957015D02*
X161653520Y-113909396D01*
X161653520Y-113909396D02*
X161605900Y-113957015D01*
X161605900Y-113957015D02*
X161701139Y-113957015D01*
X161701139Y-115195110D02*
X160701139Y-115195110D01*
X160701139Y-115195110D02*
X160701139Y-115576062D01*
X160701139Y-115576062D02*
X160748758Y-115671300D01*
X160748758Y-115671300D02*
X160796377Y-115718919D01*
X160796377Y-115718919D02*
X160891615Y-115766538D01*
X160891615Y-115766538D02*
X161034472Y-115766538D01*
X161034472Y-115766538D02*
X161129710Y-115718919D01*
X161129710Y-115718919D02*
X161177329Y-115671300D01*
X161177329Y-115671300D02*
X161224948Y-115576062D01*
X161224948Y-115576062D02*
X161224948Y-115195110D01*
X161701139Y-116337967D02*
X161653520Y-116242729D01*
X161653520Y-116242729D02*
X161558281Y-116195110D01*
X161558281Y-116195110D02*
X160701139Y-116195110D01*
X161701139Y-117147491D02*
X161177329Y-117147491D01*
X161177329Y-117147491D02*
X161082091Y-117099872D01*
X161082091Y-117099872D02*
X161034472Y-117004634D01*
X161034472Y-117004634D02*
X161034472Y-116814158D01*
X161034472Y-116814158D02*
X161082091Y-116718920D01*
X161653520Y-117147491D02*
X161701139Y-117052253D01*
X161701139Y-117052253D02*
X161701139Y-116814158D01*
X161701139Y-116814158D02*
X161653520Y-116718920D01*
X161653520Y-116718920D02*
X161558281Y-116671301D01*
X161558281Y-116671301D02*
X161463043Y-116671301D01*
X161463043Y-116671301D02*
X161367805Y-116718920D01*
X161367805Y-116718920D02*
X161320186Y-116814158D01*
X161320186Y-116814158D02*
X161320186Y-117052253D01*
X161320186Y-117052253D02*
X161272567Y-117147491D01*
X161653520Y-118052253D02*
X161701139Y-117957015D01*
X161701139Y-117957015D02*
X161701139Y-117766539D01*
X161701139Y-117766539D02*
X161653520Y-117671301D01*
X161653520Y-117671301D02*
X161605900Y-117623682D01*
X161605900Y-117623682D02*
X161510662Y-117576063D01*
X161510662Y-117576063D02*
X161224948Y-117576063D01*
X161224948Y-117576063D02*
X161129710Y-117623682D01*
X161129710Y-117623682D02*
X161082091Y-117671301D01*
X161082091Y-117671301D02*
X161034472Y-117766539D01*
X161034472Y-117766539D02*
X161034472Y-117957015D01*
X161034472Y-117957015D02*
X161082091Y-118052253D01*
X161653520Y-118861777D02*
X161701139Y-118766539D01*
X161701139Y-118766539D02*
X161701139Y-118576063D01*
X161701139Y-118576063D02*
X161653520Y-118480825D01*
X161653520Y-118480825D02*
X161558281Y-118433206D01*
X161558281Y-118433206D02*
X161177329Y-118433206D01*
X161177329Y-118433206D02*
X161082091Y-118480825D01*
X161082091Y-118480825D02*
X161034472Y-118576063D01*
X161034472Y-118576063D02*
X161034472Y-118766539D01*
X161034472Y-118766539D02*
X161082091Y-118861777D01*
X161082091Y-118861777D02*
X161177329Y-118909396D01*
X161177329Y-118909396D02*
X161272567Y-118909396D01*
X161272567Y-118909396D02*
X161367805Y-118433206D01*
X161177329Y-120099873D02*
X161177329Y-120433206D01*
X161701139Y-120576063D02*
X161701139Y-120099873D01*
X161701139Y-120099873D02*
X160701139Y-120099873D01*
X160701139Y-120099873D02*
X160701139Y-120576063D01*
X161701139Y-121004635D02*
X160701139Y-121004635D01*
X160701139Y-121004635D02*
X160701139Y-121385587D01*
X160701139Y-121385587D02*
X160748758Y-121480825D01*
X160748758Y-121480825D02*
X160796377Y-121528444D01*
X160796377Y-121528444D02*
X160891615Y-121576063D01*
X160891615Y-121576063D02*
X161034472Y-121576063D01*
X161034472Y-121576063D02*
X161129710Y-121528444D01*
X161129710Y-121528444D02*
X161177329Y-121480825D01*
X161177329Y-121480825D02*
X161224948Y-121385587D01*
X161224948Y-121385587D02*
X161224948Y-121004635D01*
X161701139Y-122576063D02*
X161224948Y-122242730D01*
X161701139Y-122004635D02*
X160701139Y-122004635D01*
X160701139Y-122004635D02*
X160701139Y-122385587D01*
X160701139Y-122385587D02*
X160748758Y-122480825D01*
X160748758Y-122480825D02*
X160796377Y-122528444D01*
X160796377Y-122528444D02*
X160891615Y-122576063D01*
X160891615Y-122576063D02*
X161034472Y-122576063D01*
X161034472Y-122576063D02*
X161129710Y-122528444D01*
X161129710Y-122528444D02*
X161177329Y-122480825D01*
X161177329Y-122480825D02*
X161224948Y-122385587D01*
X161224948Y-122385587D02*
X161224948Y-122004635D01*
X160701139Y-123195111D02*
X160701139Y-123385587D01*
X160701139Y-123385587D02*
X160748758Y-123480825D01*
X160748758Y-123480825D02*
X160843996Y-123576063D01*
X160843996Y-123576063D02*
X161034472Y-123623682D01*
X161034472Y-123623682D02*
X161367805Y-123623682D01*
X161367805Y-123623682D02*
X161558281Y-123576063D01*
X161558281Y-123576063D02*
X161653520Y-123480825D01*
X161653520Y-123480825D02*
X161701139Y-123385587D01*
X161701139Y-123385587D02*
X161701139Y-123195111D01*
X161701139Y-123195111D02*
X161653520Y-123099873D01*
X161653520Y-123099873D02*
X161558281Y-123004635D01*
X161558281Y-123004635D02*
X161367805Y-122957016D01*
X161367805Y-122957016D02*
X161034472Y-122957016D01*
X161034472Y-122957016D02*
X160843996Y-123004635D01*
X160843996Y-123004635D02*
X160748758Y-123099873D01*
X160748758Y-123099873D02*
X160701139Y-123195111D01*
X161701139Y-124052254D02*
X160701139Y-124052254D01*
X160701139Y-124052254D02*
X161415424Y-124385587D01*
X161415424Y-124385587D02*
X160701139Y-124718920D01*
X160701139Y-124718920D02*
X161701139Y-124718920D01*
X163311139Y-115671300D02*
X162644472Y-115671300D01*
X162311139Y-115671300D02*
X162358758Y-115623681D01*
X162358758Y-115623681D02*
X162406377Y-115671300D01*
X162406377Y-115671300D02*
X162358758Y-115718919D01*
X162358758Y-115718919D02*
X162311139Y-115671300D01*
X162311139Y-115671300D02*
X162406377Y-115671300D01*
X162644472Y-116147490D02*
X163311139Y-116147490D01*
X162739710Y-116147490D02*
X162692091Y-116195109D01*
X162692091Y-116195109D02*
X162644472Y-116290347D01*
X162644472Y-116290347D02*
X162644472Y-116433204D01*
X162644472Y-116433204D02*
X162692091Y-116528442D01*
X162692091Y-116528442D02*
X162787329Y-116576061D01*
X162787329Y-116576061D02*
X163311139Y-116576061D01*
X163311139Y-117957014D02*
X163263520Y-117861776D01*
X163263520Y-117861776D02*
X163168281Y-117814157D01*
X163168281Y-117814157D02*
X162311139Y-117814157D01*
X163311139Y-118480824D02*
X163263520Y-118385586D01*
X163263520Y-118385586D02*
X163215900Y-118337967D01*
X163215900Y-118337967D02*
X163120662Y-118290348D01*
X163120662Y-118290348D02*
X162834948Y-118290348D01*
X162834948Y-118290348D02*
X162739710Y-118337967D01*
X162739710Y-118337967D02*
X162692091Y-118385586D01*
X162692091Y-118385586D02*
X162644472Y-118480824D01*
X162644472Y-118480824D02*
X162644472Y-118623681D01*
X162644472Y-118623681D02*
X162692091Y-118718919D01*
X162692091Y-118718919D02*
X162739710Y-118766538D01*
X162739710Y-118766538D02*
X162834948Y-118814157D01*
X162834948Y-118814157D02*
X163120662Y-118814157D01*
X163120662Y-118814157D02*
X163215900Y-118766538D01*
X163215900Y-118766538D02*
X163263520Y-118718919D01*
X163263520Y-118718919D02*
X163311139Y-118623681D01*
X163311139Y-118623681D02*
X163311139Y-118480824D01*
X162644472Y-119147491D02*
X163311139Y-119337967D01*
X163311139Y-119337967D02*
X162834948Y-119528443D01*
X162834948Y-119528443D02*
X163311139Y-119718919D01*
X163311139Y-119718919D02*
X162644472Y-119909395D01*
X163263520Y-120671300D02*
X163311139Y-120576062D01*
X163311139Y-120576062D02*
X163311139Y-120385586D01*
X163311139Y-120385586D02*
X163263520Y-120290348D01*
X163263520Y-120290348D02*
X163168281Y-120242729D01*
X163168281Y-120242729D02*
X162787329Y-120242729D01*
X162787329Y-120242729D02*
X162692091Y-120290348D01*
X162692091Y-120290348D02*
X162644472Y-120385586D01*
X162644472Y-120385586D02*
X162644472Y-120576062D01*
X162644472Y-120576062D02*
X162692091Y-120671300D01*
X162692091Y-120671300D02*
X162787329Y-120718919D01*
X162787329Y-120718919D02*
X162882567Y-120718919D01*
X162882567Y-120718919D02*
X162977805Y-120242729D01*
X163263520Y-121099872D02*
X163311139Y-121195110D01*
X163311139Y-121195110D02*
X163311139Y-121385586D01*
X163311139Y-121385586D02*
X163263520Y-121480824D01*
X163263520Y-121480824D02*
X163168281Y-121528443D01*
X163168281Y-121528443D02*
X163120662Y-121528443D01*
X163120662Y-121528443D02*
X163025424Y-121480824D01*
X163025424Y-121480824D02*
X162977805Y-121385586D01*
X162977805Y-121385586D02*
X162977805Y-121242729D01*
X162977805Y-121242729D02*
X162930186Y-121147491D01*
X162930186Y-121147491D02*
X162834948Y-121099872D01*
X162834948Y-121099872D02*
X162787329Y-121099872D01*
X162787329Y-121099872D02*
X162692091Y-121147491D01*
X162692091Y-121147491D02*
X162644472Y-121242729D01*
X162644472Y-121242729D02*
X162644472Y-121385586D01*
X162644472Y-121385586D02*
X162692091Y-121480824D01*
X162644472Y-121814158D02*
X162644472Y-122195110D01*
X162311139Y-121957015D02*
X163168281Y-121957015D01*
X163168281Y-121957015D02*
X163263520Y-122004634D01*
X163263520Y-122004634D02*
X163311139Y-122099872D01*
X163311139Y-122099872D02*
X163311139Y-122195110D01*
X164254472Y-113504634D02*
X165254472Y-113504634D01*
X164302091Y-113504634D02*
X164254472Y-113599872D01*
X164254472Y-113599872D02*
X164254472Y-113790348D01*
X164254472Y-113790348D02*
X164302091Y-113885586D01*
X164302091Y-113885586D02*
X164349710Y-113933205D01*
X164349710Y-113933205D02*
X164444948Y-113980824D01*
X164444948Y-113980824D02*
X164730662Y-113980824D01*
X164730662Y-113980824D02*
X164825900Y-113933205D01*
X164825900Y-113933205D02*
X164873520Y-113885586D01*
X164873520Y-113885586D02*
X164921139Y-113790348D01*
X164921139Y-113790348D02*
X164921139Y-113599872D01*
X164921139Y-113599872D02*
X164873520Y-113504634D01*
X164921139Y-114552253D02*
X164873520Y-114457015D01*
X164873520Y-114457015D02*
X164825900Y-114409396D01*
X164825900Y-114409396D02*
X164730662Y-114361777D01*
X164730662Y-114361777D02*
X164444948Y-114361777D01*
X164444948Y-114361777D02*
X164349710Y-114409396D01*
X164349710Y-114409396D02*
X164302091Y-114457015D01*
X164302091Y-114457015D02*
X164254472Y-114552253D01*
X164254472Y-114552253D02*
X164254472Y-114695110D01*
X164254472Y-114695110D02*
X164302091Y-114790348D01*
X164302091Y-114790348D02*
X164349710Y-114837967D01*
X164349710Y-114837967D02*
X164444948Y-114885586D01*
X164444948Y-114885586D02*
X164730662Y-114885586D01*
X164730662Y-114885586D02*
X164825900Y-114837967D01*
X164825900Y-114837967D02*
X164873520Y-114790348D01*
X164873520Y-114790348D02*
X164921139Y-114695110D01*
X164921139Y-114695110D02*
X164921139Y-114552253D01*
X164873520Y-115266539D02*
X164921139Y-115361777D01*
X164921139Y-115361777D02*
X164921139Y-115552253D01*
X164921139Y-115552253D02*
X164873520Y-115647491D01*
X164873520Y-115647491D02*
X164778281Y-115695110D01*
X164778281Y-115695110D02*
X164730662Y-115695110D01*
X164730662Y-115695110D02*
X164635424Y-115647491D01*
X164635424Y-115647491D02*
X164587805Y-115552253D01*
X164587805Y-115552253D02*
X164587805Y-115409396D01*
X164587805Y-115409396D02*
X164540186Y-115314158D01*
X164540186Y-115314158D02*
X164444948Y-115266539D01*
X164444948Y-115266539D02*
X164397329Y-115266539D01*
X164397329Y-115266539D02*
X164302091Y-115314158D01*
X164302091Y-115314158D02*
X164254472Y-115409396D01*
X164254472Y-115409396D02*
X164254472Y-115552253D01*
X164254472Y-115552253D02*
X164302091Y-115647491D01*
X164921139Y-116123682D02*
X164254472Y-116123682D01*
X163921139Y-116123682D02*
X163968758Y-116076063D01*
X163968758Y-116076063D02*
X164016377Y-116123682D01*
X164016377Y-116123682D02*
X163968758Y-116171301D01*
X163968758Y-116171301D02*
X163921139Y-116123682D01*
X163921139Y-116123682D02*
X164016377Y-116123682D01*
X164254472Y-116457015D02*
X164254472Y-116837967D01*
X163921139Y-116599872D02*
X164778281Y-116599872D01*
X164778281Y-116599872D02*
X164873520Y-116647491D01*
X164873520Y-116647491D02*
X164921139Y-116742729D01*
X164921139Y-116742729D02*
X164921139Y-116837967D01*
X164921139Y-117171301D02*
X164254472Y-117171301D01*
X163921139Y-117171301D02*
X163968758Y-117123682D01*
X163968758Y-117123682D02*
X164016377Y-117171301D01*
X164016377Y-117171301D02*
X163968758Y-117218920D01*
X163968758Y-117218920D02*
X163921139Y-117171301D01*
X163921139Y-117171301D02*
X164016377Y-117171301D01*
X164921139Y-117790348D02*
X164873520Y-117695110D01*
X164873520Y-117695110D02*
X164825900Y-117647491D01*
X164825900Y-117647491D02*
X164730662Y-117599872D01*
X164730662Y-117599872D02*
X164444948Y-117599872D01*
X164444948Y-117599872D02*
X164349710Y-117647491D01*
X164349710Y-117647491D02*
X164302091Y-117695110D01*
X164302091Y-117695110D02*
X164254472Y-117790348D01*
X164254472Y-117790348D02*
X164254472Y-117933205D01*
X164254472Y-117933205D02*
X164302091Y-118028443D01*
X164302091Y-118028443D02*
X164349710Y-118076062D01*
X164349710Y-118076062D02*
X164444948Y-118123681D01*
X164444948Y-118123681D02*
X164730662Y-118123681D01*
X164730662Y-118123681D02*
X164825900Y-118076062D01*
X164825900Y-118076062D02*
X164873520Y-118028443D01*
X164873520Y-118028443D02*
X164921139Y-117933205D01*
X164921139Y-117933205D02*
X164921139Y-117790348D01*
X164254472Y-118552253D02*
X164921139Y-118552253D01*
X164349710Y-118552253D02*
X164302091Y-118599872D01*
X164302091Y-118599872D02*
X164254472Y-118695110D01*
X164254472Y-118695110D02*
X164254472Y-118837967D01*
X164254472Y-118837967D02*
X164302091Y-118933205D01*
X164302091Y-118933205D02*
X164397329Y-118980824D01*
X164397329Y-118980824D02*
X164921139Y-118980824D01*
X164921139Y-120218920D02*
X164254472Y-120218920D01*
X163921139Y-120218920D02*
X163968758Y-120171301D01*
X163968758Y-120171301D02*
X164016377Y-120218920D01*
X164016377Y-120218920D02*
X163968758Y-120266539D01*
X163968758Y-120266539D02*
X163921139Y-120218920D01*
X163921139Y-120218920D02*
X164016377Y-120218920D01*
X164254472Y-120695110D02*
X164921139Y-120695110D01*
X164349710Y-120695110D02*
X164302091Y-120742729D01*
X164302091Y-120742729D02*
X164254472Y-120837967D01*
X164254472Y-120837967D02*
X164254472Y-120980824D01*
X164254472Y-120980824D02*
X164302091Y-121076062D01*
X164302091Y-121076062D02*
X164397329Y-121123681D01*
X164397329Y-121123681D02*
X164921139Y-121123681D01*
X164254472Y-122218920D02*
X164254472Y-122599872D01*
X163921139Y-122361777D02*
X164778281Y-122361777D01*
X164778281Y-122361777D02*
X164873520Y-122409396D01*
X164873520Y-122409396D02*
X164921139Y-122504634D01*
X164921139Y-122504634D02*
X164921139Y-122599872D01*
X164921139Y-122933206D02*
X163921139Y-122933206D01*
X164921139Y-123361777D02*
X164397329Y-123361777D01*
X164397329Y-123361777D02*
X164302091Y-123314158D01*
X164302091Y-123314158D02*
X164254472Y-123218920D01*
X164254472Y-123218920D02*
X164254472Y-123076063D01*
X164254472Y-123076063D02*
X164302091Y-122980825D01*
X164302091Y-122980825D02*
X164349710Y-122933206D01*
X164873520Y-124218920D02*
X164921139Y-124123682D01*
X164921139Y-124123682D02*
X164921139Y-123933206D01*
X164921139Y-123933206D02*
X164873520Y-123837968D01*
X164873520Y-123837968D02*
X164778281Y-123790349D01*
X164778281Y-123790349D02*
X164397329Y-123790349D01*
X164397329Y-123790349D02*
X164302091Y-123837968D01*
X164302091Y-123837968D02*
X164254472Y-123933206D01*
X164254472Y-123933206D02*
X164254472Y-124123682D01*
X164254472Y-124123682D02*
X164302091Y-124218920D01*
X164302091Y-124218920D02*
X164397329Y-124266539D01*
X164397329Y-124266539D02*
X164492567Y-124266539D01*
X164492567Y-124266539D02*
X164587805Y-123790349D01*
X165531139Y-114837967D02*
X165531139Y-115504633D01*
X165531139Y-115504633D02*
X166531139Y-114837967D01*
X166531139Y-114837967D02*
X166531139Y-115504633D01*
X166531139Y-115885586D02*
X165531139Y-115885586D01*
X166007329Y-116695109D02*
X166007329Y-116361776D01*
X166531139Y-116361776D02*
X165531139Y-116361776D01*
X165531139Y-116361776D02*
X165531139Y-116837966D01*
X166483520Y-117933205D02*
X166531139Y-118028443D01*
X166531139Y-118028443D02*
X166531139Y-118218919D01*
X166531139Y-118218919D02*
X166483520Y-118314157D01*
X166483520Y-118314157D02*
X166388281Y-118361776D01*
X166388281Y-118361776D02*
X166340662Y-118361776D01*
X166340662Y-118361776D02*
X166245424Y-118314157D01*
X166245424Y-118314157D02*
X166197805Y-118218919D01*
X166197805Y-118218919D02*
X166197805Y-118076062D01*
X166197805Y-118076062D02*
X166150186Y-117980824D01*
X166150186Y-117980824D02*
X166054948Y-117933205D01*
X166054948Y-117933205D02*
X166007329Y-117933205D01*
X166007329Y-117933205D02*
X165912091Y-117980824D01*
X165912091Y-117980824D02*
X165864472Y-118076062D01*
X165864472Y-118076062D02*
X165864472Y-118218919D01*
X165864472Y-118218919D02*
X165912091Y-118314157D01*
X166531139Y-118933205D02*
X166483520Y-118837967D01*
X166483520Y-118837967D02*
X166435900Y-118790348D01*
X166435900Y-118790348D02*
X166340662Y-118742729D01*
X166340662Y-118742729D02*
X166054948Y-118742729D01*
X166054948Y-118742729D02*
X165959710Y-118790348D01*
X165959710Y-118790348D02*
X165912091Y-118837967D01*
X165912091Y-118837967D02*
X165864472Y-118933205D01*
X165864472Y-118933205D02*
X165864472Y-119076062D01*
X165864472Y-119076062D02*
X165912091Y-119171300D01*
X165912091Y-119171300D02*
X165959710Y-119218919D01*
X165959710Y-119218919D02*
X166054948Y-119266538D01*
X166054948Y-119266538D02*
X166340662Y-119266538D01*
X166340662Y-119266538D02*
X166435900Y-119218919D01*
X166435900Y-119218919D02*
X166483520Y-119171300D01*
X166483520Y-119171300D02*
X166531139Y-119076062D01*
X166531139Y-119076062D02*
X166531139Y-118933205D01*
X166483520Y-120123681D02*
X166531139Y-120028443D01*
X166531139Y-120028443D02*
X166531139Y-119837967D01*
X166531139Y-119837967D02*
X166483520Y-119742729D01*
X166483520Y-119742729D02*
X166435900Y-119695110D01*
X166435900Y-119695110D02*
X166340662Y-119647491D01*
X166340662Y-119647491D02*
X166054948Y-119647491D01*
X166054948Y-119647491D02*
X165959710Y-119695110D01*
X165959710Y-119695110D02*
X165912091Y-119742729D01*
X165912091Y-119742729D02*
X165864472Y-119837967D01*
X165864472Y-119837967D02*
X165864472Y-120028443D01*
X165864472Y-120028443D02*
X165912091Y-120123681D01*
X166531139Y-120552253D02*
X165531139Y-120552253D01*
X166150186Y-120647491D02*
X166531139Y-120933205D01*
X165864472Y-120933205D02*
X166245424Y-120552253D01*
X166483520Y-121742729D02*
X166531139Y-121647491D01*
X166531139Y-121647491D02*
X166531139Y-121457015D01*
X166531139Y-121457015D02*
X166483520Y-121361777D01*
X166483520Y-121361777D02*
X166388281Y-121314158D01*
X166388281Y-121314158D02*
X166007329Y-121314158D01*
X166007329Y-121314158D02*
X165912091Y-121361777D01*
X165912091Y-121361777D02*
X165864472Y-121457015D01*
X165864472Y-121457015D02*
X165864472Y-121647491D01*
X165864472Y-121647491D02*
X165912091Y-121742729D01*
X165912091Y-121742729D02*
X166007329Y-121790348D01*
X166007329Y-121790348D02*
X166102567Y-121790348D01*
X166102567Y-121790348D02*
X166197805Y-121314158D01*
X165864472Y-122076063D02*
X165864472Y-122457015D01*
X165531139Y-122218920D02*
X166388281Y-122218920D01*
X166388281Y-122218920D02*
X166483520Y-122266539D01*
X166483520Y-122266539D02*
X166531139Y-122361777D01*
X166531139Y-122361777D02*
X166531139Y-122457015D01*
X166483520Y-122837968D02*
X166531139Y-122837968D01*
X166531139Y-122837968D02*
X166626377Y-122790349D01*
X166626377Y-122790349D02*
X166673996Y-122742730D01*
X167474472Y-114076062D02*
X168474472Y-114076062D01*
X167522091Y-114076062D02*
X167474472Y-114171300D01*
X167474472Y-114171300D02*
X167474472Y-114361776D01*
X167474472Y-114361776D02*
X167522091Y-114457014D01*
X167522091Y-114457014D02*
X167569710Y-114504633D01*
X167569710Y-114504633D02*
X167664948Y-114552252D01*
X167664948Y-114552252D02*
X167950662Y-114552252D01*
X167950662Y-114552252D02*
X168045900Y-114504633D01*
X168045900Y-114504633D02*
X168093520Y-114457014D01*
X168093520Y-114457014D02*
X168141139Y-114361776D01*
X168141139Y-114361776D02*
X168141139Y-114171300D01*
X168141139Y-114171300D02*
X168093520Y-114076062D01*
X168141139Y-114980824D02*
X167474472Y-114980824D01*
X167141139Y-114980824D02*
X167188758Y-114933205D01*
X167188758Y-114933205D02*
X167236377Y-114980824D01*
X167236377Y-114980824D02*
X167188758Y-115028443D01*
X167188758Y-115028443D02*
X167141139Y-114980824D01*
X167141139Y-114980824D02*
X167236377Y-114980824D01*
X167474472Y-115457014D02*
X168141139Y-115457014D01*
X167569710Y-115457014D02*
X167522091Y-115504633D01*
X167522091Y-115504633D02*
X167474472Y-115599871D01*
X167474472Y-115599871D02*
X167474472Y-115742728D01*
X167474472Y-115742728D02*
X167522091Y-115837966D01*
X167522091Y-115837966D02*
X167617329Y-115885585D01*
X167617329Y-115885585D02*
X168141139Y-115885585D01*
X168141139Y-117647490D02*
X168141139Y-117076062D01*
X168141139Y-117361776D02*
X167141139Y-117361776D01*
X167141139Y-117361776D02*
X167283996Y-117266538D01*
X167283996Y-117266538D02*
X167379234Y-117171300D01*
X167379234Y-117171300D02*
X167426853Y-117076062D01*
X167474472Y-119266538D02*
X168141139Y-119266538D01*
X167474472Y-118837967D02*
X167998281Y-118837967D01*
X167998281Y-118837967D02*
X168093520Y-118885586D01*
X168093520Y-118885586D02*
X168141139Y-118980824D01*
X168141139Y-118980824D02*
X168141139Y-119123681D01*
X168141139Y-119123681D02*
X168093520Y-119218919D01*
X168093520Y-119218919D02*
X168045900Y-119266538D01*
X167474472Y-119742729D02*
X168474472Y-119742729D01*
X167522091Y-119742729D02*
X167474472Y-119837967D01*
X167474472Y-119837967D02*
X167474472Y-120028443D01*
X167474472Y-120028443D02*
X167522091Y-120123681D01*
X167522091Y-120123681D02*
X167569710Y-120171300D01*
X167569710Y-120171300D02*
X167664948Y-120218919D01*
X167664948Y-120218919D02*
X167950662Y-120218919D01*
X167950662Y-120218919D02*
X168045900Y-120171300D01*
X168045900Y-120171300D02*
X168093520Y-120123681D01*
X168093520Y-120123681D02*
X168141139Y-120028443D01*
X168141139Y-120028443D02*
X168141139Y-119837967D01*
X168141139Y-119837967D02*
X168093520Y-119742729D01*
X167474472Y-120552253D02*
X168141139Y-120742729D01*
X168141139Y-120742729D02*
X167664948Y-120933205D01*
X167664948Y-120933205D02*
X168141139Y-121123681D01*
X168141139Y-121123681D02*
X167474472Y-121314157D01*
X168141139Y-122123681D02*
X167617329Y-122123681D01*
X167617329Y-122123681D02*
X167522091Y-122076062D01*
X167522091Y-122076062D02*
X167474472Y-121980824D01*
X167474472Y-121980824D02*
X167474472Y-121790348D01*
X167474472Y-121790348D02*
X167522091Y-121695110D01*
X168093520Y-122123681D02*
X168141139Y-122028443D01*
X168141139Y-122028443D02*
X168141139Y-121790348D01*
X168141139Y-121790348D02*
X168093520Y-121695110D01*
X168093520Y-121695110D02*
X167998281Y-121647491D01*
X167998281Y-121647491D02*
X167903043Y-121647491D01*
X167903043Y-121647491D02*
X167807805Y-121695110D01*
X167807805Y-121695110D02*
X167760186Y-121790348D01*
X167760186Y-121790348D02*
X167760186Y-122028443D01*
X167760186Y-122028443D02*
X167712567Y-122123681D01*
X168141139Y-122599872D02*
X167474472Y-122599872D01*
X167664948Y-122599872D02*
X167569710Y-122647491D01*
X167569710Y-122647491D02*
X167522091Y-122695110D01*
X167522091Y-122695110D02*
X167474472Y-122790348D01*
X167474472Y-122790348D02*
X167474472Y-122885586D01*
X168141139Y-123647491D02*
X167141139Y-123647491D01*
X168093520Y-123647491D02*
X168141139Y-123552253D01*
X168141139Y-123552253D02*
X168141139Y-123361777D01*
X168141139Y-123361777D02*
X168093520Y-123266539D01*
X168093520Y-123266539D02*
X168045900Y-123218920D01*
X168045900Y-123218920D02*
X167950662Y-123171301D01*
X167950662Y-123171301D02*
X167664948Y-123171301D01*
X167664948Y-123171301D02*
X167569710Y-123218920D01*
X167569710Y-123218920D02*
X167522091Y-123266539D01*
X167522091Y-123266539D02*
X167474472Y-123361777D01*
X167474472Y-123361777D02*
X167474472Y-123552253D01*
X167474472Y-123552253D02*
X167522091Y-123647491D01*
X170456377Y-114052253D02*
X170408758Y-114099872D01*
X170408758Y-114099872D02*
X170361139Y-114195110D01*
X170361139Y-114195110D02*
X170361139Y-114433205D01*
X170361139Y-114433205D02*
X170408758Y-114528443D01*
X170408758Y-114528443D02*
X170456377Y-114576062D01*
X170456377Y-114576062D02*
X170551615Y-114623681D01*
X170551615Y-114623681D02*
X170646853Y-114623681D01*
X170646853Y-114623681D02*
X170789710Y-114576062D01*
X170789710Y-114576062D02*
X171361139Y-114004634D01*
X171361139Y-114004634D02*
X171361139Y-114623681D01*
X171265900Y-115052253D02*
X171313520Y-115099872D01*
X171313520Y-115099872D02*
X171361139Y-115052253D01*
X171361139Y-115052253D02*
X171313520Y-115004634D01*
X171313520Y-115004634D02*
X171265900Y-115052253D01*
X171265900Y-115052253D02*
X171361139Y-115052253D01*
X171313520Y-116242729D02*
X171361139Y-116385586D01*
X171361139Y-116385586D02*
X171361139Y-116623681D01*
X171361139Y-116623681D02*
X171313520Y-116718919D01*
X171313520Y-116718919D02*
X171265900Y-116766538D01*
X171265900Y-116766538D02*
X171170662Y-116814157D01*
X171170662Y-116814157D02*
X171075424Y-116814157D01*
X171075424Y-116814157D02*
X170980186Y-116766538D01*
X170980186Y-116766538D02*
X170932567Y-116718919D01*
X170932567Y-116718919D02*
X170884948Y-116623681D01*
X170884948Y-116623681D02*
X170837329Y-116433205D01*
X170837329Y-116433205D02*
X170789710Y-116337967D01*
X170789710Y-116337967D02*
X170742091Y-116290348D01*
X170742091Y-116290348D02*
X170646853Y-116242729D01*
X170646853Y-116242729D02*
X170551615Y-116242729D01*
X170551615Y-116242729D02*
X170456377Y-116290348D01*
X170456377Y-116290348D02*
X170408758Y-116337967D01*
X170408758Y-116337967D02*
X170361139Y-116433205D01*
X170361139Y-116433205D02*
X170361139Y-116671300D01*
X170361139Y-116671300D02*
X170408758Y-116814157D01*
X171313520Y-117623681D02*
X171361139Y-117528443D01*
X171361139Y-117528443D02*
X171361139Y-117337967D01*
X171361139Y-117337967D02*
X171313520Y-117242729D01*
X171313520Y-117242729D02*
X171218281Y-117195110D01*
X171218281Y-117195110D02*
X170837329Y-117195110D01*
X170837329Y-117195110D02*
X170742091Y-117242729D01*
X170742091Y-117242729D02*
X170694472Y-117337967D01*
X170694472Y-117337967D02*
X170694472Y-117528443D01*
X170694472Y-117528443D02*
X170742091Y-117623681D01*
X170742091Y-117623681D02*
X170837329Y-117671300D01*
X170837329Y-117671300D02*
X170932567Y-117671300D01*
X170932567Y-117671300D02*
X171027805Y-117195110D01*
X170694472Y-117957015D02*
X170694472Y-118337967D01*
X170361139Y-118099872D02*
X171218281Y-118099872D01*
X171218281Y-118099872D02*
X171313520Y-118147491D01*
X171313520Y-118147491D02*
X171361139Y-118242729D01*
X171361139Y-118242729D02*
X171361139Y-118337967D01*
X171313520Y-119385587D02*
X171361139Y-119480825D01*
X171361139Y-119480825D02*
X171361139Y-119671301D01*
X171361139Y-119671301D02*
X171313520Y-119766539D01*
X171313520Y-119766539D02*
X171218281Y-119814158D01*
X171218281Y-119814158D02*
X171170662Y-119814158D01*
X171170662Y-119814158D02*
X171075424Y-119766539D01*
X171075424Y-119766539D02*
X171027805Y-119671301D01*
X171027805Y-119671301D02*
X171027805Y-119528444D01*
X171027805Y-119528444D02*
X170980186Y-119433206D01*
X170980186Y-119433206D02*
X170884948Y-119385587D01*
X170884948Y-119385587D02*
X170837329Y-119385587D01*
X170837329Y-119385587D02*
X170742091Y-119433206D01*
X170742091Y-119433206D02*
X170694472Y-119528444D01*
X170694472Y-119528444D02*
X170694472Y-119671301D01*
X170694472Y-119671301D02*
X170742091Y-119766539D01*
X170694472Y-120147492D02*
X171361139Y-120337968D01*
X171361139Y-120337968D02*
X170884948Y-120528444D01*
X170884948Y-120528444D02*
X171361139Y-120718920D01*
X171361139Y-120718920D02*
X170694472Y-120909396D01*
X171361139Y-121290349D02*
X170694472Y-121290349D01*
X170361139Y-121290349D02*
X170408758Y-121242730D01*
X170408758Y-121242730D02*
X170456377Y-121290349D01*
X170456377Y-121290349D02*
X170408758Y-121337968D01*
X170408758Y-121337968D02*
X170361139Y-121290349D01*
X170361139Y-121290349D02*
X170456377Y-121290349D01*
X170694472Y-121623682D02*
X170694472Y-122004634D01*
X170361139Y-121766539D02*
X171218281Y-121766539D01*
X171218281Y-121766539D02*
X171313520Y-121814158D01*
X171313520Y-121814158D02*
X171361139Y-121909396D01*
X171361139Y-121909396D02*
X171361139Y-122004634D01*
X171313520Y-122766539D02*
X171361139Y-122671301D01*
X171361139Y-122671301D02*
X171361139Y-122480825D01*
X171361139Y-122480825D02*
X171313520Y-122385587D01*
X171313520Y-122385587D02*
X171265900Y-122337968D01*
X171265900Y-122337968D02*
X171170662Y-122290349D01*
X171170662Y-122290349D02*
X170884948Y-122290349D01*
X170884948Y-122290349D02*
X170789710Y-122337968D01*
X170789710Y-122337968D02*
X170742091Y-122385587D01*
X170742091Y-122385587D02*
X170694472Y-122480825D01*
X170694472Y-122480825D02*
X170694472Y-122671301D01*
X170694472Y-122671301D02*
X170742091Y-122766539D01*
X171361139Y-123195111D02*
X170361139Y-123195111D01*
X171361139Y-123623682D02*
X170837329Y-123623682D01*
X170837329Y-123623682D02*
X170742091Y-123576063D01*
X170742091Y-123576063D02*
X170694472Y-123480825D01*
X170694472Y-123480825D02*
X170694472Y-123337968D01*
X170694472Y-123337968D02*
X170742091Y-123242730D01*
X170742091Y-123242730D02*
X170789710Y-123195111D01*
X172304472Y-114314157D02*
X173304472Y-114314157D01*
X172352091Y-114314157D02*
X172304472Y-114409395D01*
X172304472Y-114409395D02*
X172304472Y-114599871D01*
X172304472Y-114599871D02*
X172352091Y-114695109D01*
X172352091Y-114695109D02*
X172399710Y-114742728D01*
X172399710Y-114742728D02*
X172494948Y-114790347D01*
X172494948Y-114790347D02*
X172780662Y-114790347D01*
X172780662Y-114790347D02*
X172875900Y-114742728D01*
X172875900Y-114742728D02*
X172923520Y-114695109D01*
X172923520Y-114695109D02*
X172971139Y-114599871D01*
X172971139Y-114599871D02*
X172971139Y-114409395D01*
X172971139Y-114409395D02*
X172923520Y-114314157D01*
X172971139Y-115361776D02*
X172923520Y-115266538D01*
X172923520Y-115266538D02*
X172875900Y-115218919D01*
X172875900Y-115218919D02*
X172780662Y-115171300D01*
X172780662Y-115171300D02*
X172494948Y-115171300D01*
X172494948Y-115171300D02*
X172399710Y-115218919D01*
X172399710Y-115218919D02*
X172352091Y-115266538D01*
X172352091Y-115266538D02*
X172304472Y-115361776D01*
X172304472Y-115361776D02*
X172304472Y-115504633D01*
X172304472Y-115504633D02*
X172352091Y-115599871D01*
X172352091Y-115599871D02*
X172399710Y-115647490D01*
X172399710Y-115647490D02*
X172494948Y-115695109D01*
X172494948Y-115695109D02*
X172780662Y-115695109D01*
X172780662Y-115695109D02*
X172875900Y-115647490D01*
X172875900Y-115647490D02*
X172923520Y-115599871D01*
X172923520Y-115599871D02*
X172971139Y-115504633D01*
X172971139Y-115504633D02*
X172971139Y-115361776D01*
X172923520Y-116076062D02*
X172971139Y-116171300D01*
X172971139Y-116171300D02*
X172971139Y-116361776D01*
X172971139Y-116361776D02*
X172923520Y-116457014D01*
X172923520Y-116457014D02*
X172828281Y-116504633D01*
X172828281Y-116504633D02*
X172780662Y-116504633D01*
X172780662Y-116504633D02*
X172685424Y-116457014D01*
X172685424Y-116457014D02*
X172637805Y-116361776D01*
X172637805Y-116361776D02*
X172637805Y-116218919D01*
X172637805Y-116218919D02*
X172590186Y-116123681D01*
X172590186Y-116123681D02*
X172494948Y-116076062D01*
X172494948Y-116076062D02*
X172447329Y-116076062D01*
X172447329Y-116076062D02*
X172352091Y-116123681D01*
X172352091Y-116123681D02*
X172304472Y-116218919D01*
X172304472Y-116218919D02*
X172304472Y-116361776D01*
X172304472Y-116361776D02*
X172352091Y-116457014D01*
X172971139Y-116933205D02*
X172304472Y-116933205D01*
X171971139Y-116933205D02*
X172018758Y-116885586D01*
X172018758Y-116885586D02*
X172066377Y-116933205D01*
X172066377Y-116933205D02*
X172018758Y-116980824D01*
X172018758Y-116980824D02*
X171971139Y-116933205D01*
X171971139Y-116933205D02*
X172066377Y-116933205D01*
X172304472Y-117266538D02*
X172304472Y-117647490D01*
X171971139Y-117409395D02*
X172828281Y-117409395D01*
X172828281Y-117409395D02*
X172923520Y-117457014D01*
X172923520Y-117457014D02*
X172971139Y-117552252D01*
X172971139Y-117552252D02*
X172971139Y-117647490D01*
X172971139Y-117980824D02*
X172304472Y-117980824D01*
X171971139Y-117980824D02*
X172018758Y-117933205D01*
X172018758Y-117933205D02*
X172066377Y-117980824D01*
X172066377Y-117980824D02*
X172018758Y-118028443D01*
X172018758Y-118028443D02*
X171971139Y-117980824D01*
X171971139Y-117980824D02*
X172066377Y-117980824D01*
X172971139Y-118599871D02*
X172923520Y-118504633D01*
X172923520Y-118504633D02*
X172875900Y-118457014D01*
X172875900Y-118457014D02*
X172780662Y-118409395D01*
X172780662Y-118409395D02*
X172494948Y-118409395D01*
X172494948Y-118409395D02*
X172399710Y-118457014D01*
X172399710Y-118457014D02*
X172352091Y-118504633D01*
X172352091Y-118504633D02*
X172304472Y-118599871D01*
X172304472Y-118599871D02*
X172304472Y-118742728D01*
X172304472Y-118742728D02*
X172352091Y-118837966D01*
X172352091Y-118837966D02*
X172399710Y-118885585D01*
X172399710Y-118885585D02*
X172494948Y-118933204D01*
X172494948Y-118933204D02*
X172780662Y-118933204D01*
X172780662Y-118933204D02*
X172875900Y-118885585D01*
X172875900Y-118885585D02*
X172923520Y-118837966D01*
X172923520Y-118837966D02*
X172971139Y-118742728D01*
X172971139Y-118742728D02*
X172971139Y-118599871D01*
X172304472Y-119361776D02*
X172971139Y-119361776D01*
X172399710Y-119361776D02*
X172352091Y-119409395D01*
X172352091Y-119409395D02*
X172304472Y-119504633D01*
X172304472Y-119504633D02*
X172304472Y-119647490D01*
X172304472Y-119647490D02*
X172352091Y-119742728D01*
X172352091Y-119742728D02*
X172447329Y-119790347D01*
X172447329Y-119790347D02*
X172971139Y-119790347D01*
X172304472Y-120885586D02*
X172304472Y-121266538D01*
X172971139Y-121028443D02*
X172113996Y-121028443D01*
X172113996Y-121028443D02*
X172018758Y-121076062D01*
X172018758Y-121076062D02*
X171971139Y-121171300D01*
X171971139Y-121171300D02*
X171971139Y-121266538D01*
X172971139Y-121742729D02*
X172923520Y-121647491D01*
X172923520Y-121647491D02*
X172875900Y-121599872D01*
X172875900Y-121599872D02*
X172780662Y-121552253D01*
X172780662Y-121552253D02*
X172494948Y-121552253D01*
X172494948Y-121552253D02*
X172399710Y-121599872D01*
X172399710Y-121599872D02*
X172352091Y-121647491D01*
X172352091Y-121647491D02*
X172304472Y-121742729D01*
X172304472Y-121742729D02*
X172304472Y-121885586D01*
X172304472Y-121885586D02*
X172352091Y-121980824D01*
X172352091Y-121980824D02*
X172399710Y-122028443D01*
X172399710Y-122028443D02*
X172494948Y-122076062D01*
X172494948Y-122076062D02*
X172780662Y-122076062D01*
X172780662Y-122076062D02*
X172875900Y-122028443D01*
X172875900Y-122028443D02*
X172923520Y-121980824D01*
X172923520Y-121980824D02*
X172971139Y-121885586D01*
X172971139Y-121885586D02*
X172971139Y-121742729D01*
X172971139Y-122504634D02*
X172304472Y-122504634D01*
X172494948Y-122504634D02*
X172399710Y-122552253D01*
X172399710Y-122552253D02*
X172352091Y-122599872D01*
X172352091Y-122599872D02*
X172304472Y-122695110D01*
X172304472Y-122695110D02*
X172304472Y-122790348D01*
X173676377Y-116171301D02*
X173628758Y-116218920D01*
X173628758Y-116218920D02*
X173581139Y-116314158D01*
X173581139Y-116314158D02*
X173581139Y-116552253D01*
X173581139Y-116552253D02*
X173628758Y-116647491D01*
X173628758Y-116647491D02*
X173676377Y-116695110D01*
X173676377Y-116695110D02*
X173771615Y-116742729D01*
X173771615Y-116742729D02*
X173866853Y-116742729D01*
X173866853Y-116742729D02*
X174009710Y-116695110D01*
X174009710Y-116695110D02*
X174581139Y-116123682D01*
X174581139Y-116123682D02*
X174581139Y-116742729D01*
X173581139Y-117076063D02*
X173581139Y-117742729D01*
X173581139Y-117742729D02*
X174581139Y-117314158D01*
X174485900Y-118695110D02*
X174533520Y-118647491D01*
X174533520Y-118647491D02*
X174581139Y-118504634D01*
X174581139Y-118504634D02*
X174581139Y-118409396D01*
X174581139Y-118409396D02*
X174533520Y-118266539D01*
X174533520Y-118266539D02*
X174438281Y-118171301D01*
X174438281Y-118171301D02*
X174343043Y-118123682D01*
X174343043Y-118123682D02*
X174152567Y-118076063D01*
X174152567Y-118076063D02*
X174009710Y-118076063D01*
X174009710Y-118076063D02*
X173819234Y-118123682D01*
X173819234Y-118123682D02*
X173723996Y-118171301D01*
X173723996Y-118171301D02*
X173628758Y-118266539D01*
X173628758Y-118266539D02*
X173581139Y-118409396D01*
X173581139Y-118409396D02*
X173581139Y-118504634D01*
X173581139Y-118504634D02*
X173628758Y-118647491D01*
X173628758Y-118647491D02*
X173676377Y-118695110D01*
X173581139Y-119028444D02*
X173581139Y-119647491D01*
X173581139Y-119647491D02*
X173962091Y-119314158D01*
X173962091Y-119314158D02*
X173962091Y-119457015D01*
X173962091Y-119457015D02*
X174009710Y-119552253D01*
X174009710Y-119552253D02*
X174057329Y-119599872D01*
X174057329Y-119599872D02*
X174152567Y-119647491D01*
X174152567Y-119647491D02*
X174390662Y-119647491D01*
X174390662Y-119647491D02*
X174485900Y-119599872D01*
X174485900Y-119599872D02*
X174533520Y-119552253D01*
X174533520Y-119552253D02*
X174581139Y-119457015D01*
X174581139Y-119457015D02*
X174581139Y-119171301D01*
X174581139Y-119171301D02*
X174533520Y-119076063D01*
X174533520Y-119076063D02*
X174485900Y-119028444D01*
X173676377Y-120028444D02*
X173628758Y-120076063D01*
X173628758Y-120076063D02*
X173581139Y-120171301D01*
X173581139Y-120171301D02*
X173581139Y-120409396D01*
X173581139Y-120409396D02*
X173628758Y-120504634D01*
X173628758Y-120504634D02*
X173676377Y-120552253D01*
X173676377Y-120552253D02*
X173771615Y-120599872D01*
X173771615Y-120599872D02*
X173866853Y-120599872D01*
X173866853Y-120599872D02*
X174009710Y-120552253D01*
X174009710Y-120552253D02*
X174581139Y-119980825D01*
X174581139Y-119980825D02*
X174581139Y-120599872D01*
X173676377Y-120980825D02*
X173628758Y-121028444D01*
X173628758Y-121028444D02*
X173581139Y-121123682D01*
X173581139Y-121123682D02*
X173581139Y-121361777D01*
X173581139Y-121361777D02*
X173628758Y-121457015D01*
X173628758Y-121457015D02*
X173676377Y-121504634D01*
X173676377Y-121504634D02*
X173771615Y-121552253D01*
X173771615Y-121552253D02*
X173866853Y-121552253D01*
X173866853Y-121552253D02*
X174009710Y-121504634D01*
X174009710Y-121504634D02*
X174581139Y-120933206D01*
X174581139Y-120933206D02*
X174581139Y-121552253D01*
X175667329Y-113528443D02*
X175667329Y-113861776D01*
X176191139Y-114004633D02*
X176191139Y-113528443D01*
X176191139Y-113528443D02*
X175191139Y-113528443D01*
X175191139Y-113528443D02*
X175191139Y-114004633D01*
X176191139Y-114433205D02*
X175191139Y-114433205D01*
X175191139Y-114433205D02*
X175191139Y-114814157D01*
X175191139Y-114814157D02*
X175238758Y-114909395D01*
X175238758Y-114909395D02*
X175286377Y-114957014D01*
X175286377Y-114957014D02*
X175381615Y-115004633D01*
X175381615Y-115004633D02*
X175524472Y-115004633D01*
X175524472Y-115004633D02*
X175619710Y-114957014D01*
X175619710Y-114957014D02*
X175667329Y-114909395D01*
X175667329Y-114909395D02*
X175714948Y-114814157D01*
X175714948Y-114814157D02*
X175714948Y-114433205D01*
X176191139Y-116004633D02*
X175714948Y-115671300D01*
X176191139Y-115433205D02*
X175191139Y-115433205D01*
X175191139Y-115433205D02*
X175191139Y-115814157D01*
X175191139Y-115814157D02*
X175238758Y-115909395D01*
X175238758Y-115909395D02*
X175286377Y-115957014D01*
X175286377Y-115957014D02*
X175381615Y-116004633D01*
X175381615Y-116004633D02*
X175524472Y-116004633D01*
X175524472Y-116004633D02*
X175619710Y-115957014D01*
X175619710Y-115957014D02*
X175667329Y-115909395D01*
X175667329Y-115909395D02*
X175714948Y-115814157D01*
X175714948Y-115814157D02*
X175714948Y-115433205D01*
X175191139Y-116623681D02*
X175191139Y-116814157D01*
X175191139Y-116814157D02*
X175238758Y-116909395D01*
X175238758Y-116909395D02*
X175333996Y-117004633D01*
X175333996Y-117004633D02*
X175524472Y-117052252D01*
X175524472Y-117052252D02*
X175857805Y-117052252D01*
X175857805Y-117052252D02*
X176048281Y-117004633D01*
X176048281Y-117004633D02*
X176143520Y-116909395D01*
X176143520Y-116909395D02*
X176191139Y-116814157D01*
X176191139Y-116814157D02*
X176191139Y-116623681D01*
X176191139Y-116623681D02*
X176143520Y-116528443D01*
X176143520Y-116528443D02*
X176048281Y-116433205D01*
X176048281Y-116433205D02*
X175857805Y-116385586D01*
X175857805Y-116385586D02*
X175524472Y-116385586D01*
X175524472Y-116385586D02*
X175333996Y-116433205D01*
X175333996Y-116433205D02*
X175238758Y-116528443D01*
X175238758Y-116528443D02*
X175191139Y-116623681D01*
X176191139Y-117480824D02*
X175191139Y-117480824D01*
X175191139Y-117480824D02*
X175905424Y-117814157D01*
X175905424Y-117814157D02*
X175191139Y-118147490D01*
X175191139Y-118147490D02*
X176191139Y-118147490D01*
X175191139Y-119528443D02*
X175429234Y-119528443D01*
X175333996Y-119290348D02*
X175429234Y-119528443D01*
X175429234Y-119528443D02*
X175333996Y-119766538D01*
X175619710Y-119385586D02*
X175429234Y-119528443D01*
X175429234Y-119528443D02*
X175619710Y-119671300D01*
X175191139Y-120337967D02*
X175191139Y-120528443D01*
X175191139Y-120528443D02*
X175238758Y-120623681D01*
X175238758Y-120623681D02*
X175333996Y-120718919D01*
X175333996Y-120718919D02*
X175524472Y-120766538D01*
X175524472Y-120766538D02*
X175857805Y-120766538D01*
X175857805Y-120766538D02*
X176048281Y-120718919D01*
X176048281Y-120718919D02*
X176143520Y-120623681D01*
X176143520Y-120623681D02*
X176191139Y-120528443D01*
X176191139Y-120528443D02*
X176191139Y-120337967D01*
X176191139Y-120337967D02*
X176143520Y-120242729D01*
X176143520Y-120242729D02*
X176048281Y-120147491D01*
X176048281Y-120147491D02*
X175857805Y-120099872D01*
X175857805Y-120099872D02*
X175524472Y-120099872D01*
X175524472Y-120099872D02*
X175333996Y-120147491D01*
X175333996Y-120147491D02*
X175238758Y-120242729D01*
X175238758Y-120242729D02*
X175191139Y-120337967D01*
X176191139Y-121195110D02*
X175191139Y-121195110D01*
X175191139Y-121195110D02*
X176191139Y-121766538D01*
X176191139Y-121766538D02*
X175191139Y-121766538D01*
X176191139Y-122718919D02*
X176191139Y-122242729D01*
X176191139Y-122242729D02*
X175191139Y-122242729D01*
X175714948Y-123242729D02*
X176191139Y-123242729D01*
X175191139Y-122909396D02*
X175714948Y-123242729D01*
X175714948Y-123242729D02*
X175191139Y-123576062D01*
X175191139Y-124052253D02*
X175429234Y-124052253D01*
X175333996Y-123814158D02*
X175429234Y-124052253D01*
X175429234Y-124052253D02*
X175333996Y-124290348D01*
X175619710Y-123909396D02*
X175429234Y-124052253D01*
X175429234Y-124052253D02*
X175619710Y-124195110D01*
X178411139Y-114695110D02*
X178411139Y-115314157D01*
X178411139Y-115314157D02*
X178792091Y-114980824D01*
X178792091Y-114980824D02*
X178792091Y-115123681D01*
X178792091Y-115123681D02*
X178839710Y-115218919D01*
X178839710Y-115218919D02*
X178887329Y-115266538D01*
X178887329Y-115266538D02*
X178982567Y-115314157D01*
X178982567Y-115314157D02*
X179220662Y-115314157D01*
X179220662Y-115314157D02*
X179315900Y-115266538D01*
X179315900Y-115266538D02*
X179363520Y-115218919D01*
X179363520Y-115218919D02*
X179411139Y-115123681D01*
X179411139Y-115123681D02*
X179411139Y-114837967D01*
X179411139Y-114837967D02*
X179363520Y-114742729D01*
X179363520Y-114742729D02*
X179315900Y-114695110D01*
X179315900Y-115742729D02*
X179363520Y-115790348D01*
X179363520Y-115790348D02*
X179411139Y-115742729D01*
X179411139Y-115742729D02*
X179363520Y-115695110D01*
X179363520Y-115695110D02*
X179315900Y-115742729D01*
X179315900Y-115742729D02*
X179411139Y-115742729D01*
X179363520Y-116933205D02*
X179411139Y-117076062D01*
X179411139Y-117076062D02*
X179411139Y-117314157D01*
X179411139Y-117314157D02*
X179363520Y-117409395D01*
X179363520Y-117409395D02*
X179315900Y-117457014D01*
X179315900Y-117457014D02*
X179220662Y-117504633D01*
X179220662Y-117504633D02*
X179125424Y-117504633D01*
X179125424Y-117504633D02*
X179030186Y-117457014D01*
X179030186Y-117457014D02*
X178982567Y-117409395D01*
X178982567Y-117409395D02*
X178934948Y-117314157D01*
X178934948Y-117314157D02*
X178887329Y-117123681D01*
X178887329Y-117123681D02*
X178839710Y-117028443D01*
X178839710Y-117028443D02*
X178792091Y-116980824D01*
X178792091Y-116980824D02*
X178696853Y-116933205D01*
X178696853Y-116933205D02*
X178601615Y-116933205D01*
X178601615Y-116933205D02*
X178506377Y-116980824D01*
X178506377Y-116980824D02*
X178458758Y-117028443D01*
X178458758Y-117028443D02*
X178411139Y-117123681D01*
X178411139Y-117123681D02*
X178411139Y-117361776D01*
X178411139Y-117361776D02*
X178458758Y-117504633D01*
X179363520Y-118314157D02*
X179411139Y-118218919D01*
X179411139Y-118218919D02*
X179411139Y-118028443D01*
X179411139Y-118028443D02*
X179363520Y-117933205D01*
X179363520Y-117933205D02*
X179268281Y-117885586D01*
X179268281Y-117885586D02*
X178887329Y-117885586D01*
X178887329Y-117885586D02*
X178792091Y-117933205D01*
X178792091Y-117933205D02*
X178744472Y-118028443D01*
X178744472Y-118028443D02*
X178744472Y-118218919D01*
X178744472Y-118218919D02*
X178792091Y-118314157D01*
X178792091Y-118314157D02*
X178887329Y-118361776D01*
X178887329Y-118361776D02*
X178982567Y-118361776D01*
X178982567Y-118361776D02*
X179077805Y-117885586D01*
X178744472Y-118647491D02*
X178744472Y-119028443D01*
X178411139Y-118790348D02*
X179268281Y-118790348D01*
X179268281Y-118790348D02*
X179363520Y-118837967D01*
X179363520Y-118837967D02*
X179411139Y-118933205D01*
X179411139Y-118933205D02*
X179411139Y-119028443D01*
X179411139Y-120123682D02*
X178411139Y-120123682D01*
X178411139Y-120123682D02*
X178411139Y-120361777D01*
X178411139Y-120361777D02*
X178458758Y-120504634D01*
X178458758Y-120504634D02*
X178553996Y-120599872D01*
X178553996Y-120599872D02*
X178649234Y-120647491D01*
X178649234Y-120647491D02*
X178839710Y-120695110D01*
X178839710Y-120695110D02*
X178982567Y-120695110D01*
X178982567Y-120695110D02*
X179173043Y-120647491D01*
X179173043Y-120647491D02*
X179268281Y-120599872D01*
X179268281Y-120599872D02*
X179363520Y-120504634D01*
X179363520Y-120504634D02*
X179411139Y-120361777D01*
X179411139Y-120361777D02*
X179411139Y-120123682D01*
X179411139Y-121123682D02*
X178411139Y-121123682D01*
X179411139Y-121599872D02*
X178411139Y-121599872D01*
X178411139Y-121599872D02*
X178411139Y-121980824D01*
X178411139Y-121980824D02*
X178458758Y-122076062D01*
X178458758Y-122076062D02*
X178506377Y-122123681D01*
X178506377Y-122123681D02*
X178601615Y-122171300D01*
X178601615Y-122171300D02*
X178744472Y-122171300D01*
X178744472Y-122171300D02*
X178839710Y-122123681D01*
X178839710Y-122123681D02*
X178887329Y-122076062D01*
X178887329Y-122076062D02*
X178934948Y-121980824D01*
X178934948Y-121980824D02*
X178934948Y-121599872D01*
X179363520Y-122552253D02*
X179411139Y-122647491D01*
X179411139Y-122647491D02*
X179411139Y-122837967D01*
X179411139Y-122837967D02*
X179363520Y-122933205D01*
X179363520Y-122933205D02*
X179268281Y-122980824D01*
X179268281Y-122980824D02*
X179220662Y-122980824D01*
X179220662Y-122980824D02*
X179125424Y-122933205D01*
X179125424Y-122933205D02*
X179077805Y-122837967D01*
X179077805Y-122837967D02*
X179077805Y-122695110D01*
X179077805Y-122695110D02*
X179030186Y-122599872D01*
X179030186Y-122599872D02*
X178934948Y-122552253D01*
X178934948Y-122552253D02*
X178887329Y-122552253D01*
X178887329Y-122552253D02*
X178792091Y-122599872D01*
X178792091Y-122599872D02*
X178744472Y-122695110D01*
X178744472Y-122695110D02*
X178744472Y-122837967D01*
X178744472Y-122837967D02*
X178792091Y-122933205D01*
X180354472Y-112885585D02*
X180354472Y-113266537D01*
X180021139Y-113028442D02*
X180878281Y-113028442D01*
X180878281Y-113028442D02*
X180973520Y-113076061D01*
X180973520Y-113076061D02*
X181021139Y-113171299D01*
X181021139Y-113171299D02*
X181021139Y-113266537D01*
X181021139Y-113742728D02*
X180973520Y-113647490D01*
X180973520Y-113647490D02*
X180925900Y-113599871D01*
X180925900Y-113599871D02*
X180830662Y-113552252D01*
X180830662Y-113552252D02*
X180544948Y-113552252D01*
X180544948Y-113552252D02*
X180449710Y-113599871D01*
X180449710Y-113599871D02*
X180402091Y-113647490D01*
X180402091Y-113647490D02*
X180354472Y-113742728D01*
X180354472Y-113742728D02*
X180354472Y-113885585D01*
X180354472Y-113885585D02*
X180402091Y-113980823D01*
X180402091Y-113980823D02*
X180449710Y-114028442D01*
X180449710Y-114028442D02*
X180544948Y-114076061D01*
X180544948Y-114076061D02*
X180830662Y-114076061D01*
X180830662Y-114076061D02*
X180925900Y-114028442D01*
X180925900Y-114028442D02*
X180973520Y-113980823D01*
X180973520Y-113980823D02*
X181021139Y-113885585D01*
X181021139Y-113885585D02*
X181021139Y-113742728D01*
X180973520Y-115218919D02*
X181021139Y-115314157D01*
X181021139Y-115314157D02*
X181021139Y-115504633D01*
X181021139Y-115504633D02*
X180973520Y-115599871D01*
X180973520Y-115599871D02*
X180878281Y-115647490D01*
X180878281Y-115647490D02*
X180830662Y-115647490D01*
X180830662Y-115647490D02*
X180735424Y-115599871D01*
X180735424Y-115599871D02*
X180687805Y-115504633D01*
X180687805Y-115504633D02*
X180687805Y-115361776D01*
X180687805Y-115361776D02*
X180640186Y-115266538D01*
X180640186Y-115266538D02*
X180544948Y-115218919D01*
X180544948Y-115218919D02*
X180497329Y-115218919D01*
X180497329Y-115218919D02*
X180402091Y-115266538D01*
X180402091Y-115266538D02*
X180354472Y-115361776D01*
X180354472Y-115361776D02*
X180354472Y-115504633D01*
X180354472Y-115504633D02*
X180402091Y-115599871D01*
X180973520Y-116457014D02*
X181021139Y-116361776D01*
X181021139Y-116361776D02*
X181021139Y-116171300D01*
X181021139Y-116171300D02*
X180973520Y-116076062D01*
X180973520Y-116076062D02*
X180878281Y-116028443D01*
X180878281Y-116028443D02*
X180497329Y-116028443D01*
X180497329Y-116028443D02*
X180402091Y-116076062D01*
X180402091Y-116076062D02*
X180354472Y-116171300D01*
X180354472Y-116171300D02*
X180354472Y-116361776D01*
X180354472Y-116361776D02*
X180402091Y-116457014D01*
X180402091Y-116457014D02*
X180497329Y-116504633D01*
X180497329Y-116504633D02*
X180592567Y-116504633D01*
X180592567Y-116504633D02*
X180687805Y-116028443D01*
X181021139Y-117076062D02*
X180973520Y-116980824D01*
X180973520Y-116980824D02*
X180878281Y-116933205D01*
X180878281Y-116933205D02*
X180021139Y-116933205D01*
X180973520Y-117837967D02*
X181021139Y-117742729D01*
X181021139Y-117742729D02*
X181021139Y-117552253D01*
X181021139Y-117552253D02*
X180973520Y-117457015D01*
X180973520Y-117457015D02*
X180878281Y-117409396D01*
X180878281Y-117409396D02*
X180497329Y-117409396D01*
X180497329Y-117409396D02*
X180402091Y-117457015D01*
X180402091Y-117457015D02*
X180354472Y-117552253D01*
X180354472Y-117552253D02*
X180354472Y-117742729D01*
X180354472Y-117742729D02*
X180402091Y-117837967D01*
X180402091Y-117837967D02*
X180497329Y-117885586D01*
X180497329Y-117885586D02*
X180592567Y-117885586D01*
X180592567Y-117885586D02*
X180687805Y-117409396D01*
X180973520Y-118742729D02*
X181021139Y-118647491D01*
X181021139Y-118647491D02*
X181021139Y-118457015D01*
X181021139Y-118457015D02*
X180973520Y-118361777D01*
X180973520Y-118361777D02*
X180925900Y-118314158D01*
X180925900Y-118314158D02*
X180830662Y-118266539D01*
X180830662Y-118266539D02*
X180544948Y-118266539D01*
X180544948Y-118266539D02*
X180449710Y-118314158D01*
X180449710Y-118314158D02*
X180402091Y-118361777D01*
X180402091Y-118361777D02*
X180354472Y-118457015D01*
X180354472Y-118457015D02*
X180354472Y-118647491D01*
X180354472Y-118647491D02*
X180402091Y-118742729D01*
X180354472Y-119028444D02*
X180354472Y-119409396D01*
X180021139Y-119171301D02*
X180878281Y-119171301D01*
X180878281Y-119171301D02*
X180973520Y-119218920D01*
X180973520Y-119218920D02*
X181021139Y-119314158D01*
X181021139Y-119314158D02*
X181021139Y-119409396D01*
X180021139Y-120980825D02*
X180021139Y-120504635D01*
X180021139Y-120504635D02*
X180497329Y-120457016D01*
X180497329Y-120457016D02*
X180449710Y-120504635D01*
X180449710Y-120504635D02*
X180402091Y-120599873D01*
X180402091Y-120599873D02*
X180402091Y-120837968D01*
X180402091Y-120837968D02*
X180449710Y-120933206D01*
X180449710Y-120933206D02*
X180497329Y-120980825D01*
X180497329Y-120980825D02*
X180592567Y-121028444D01*
X180592567Y-121028444D02*
X180830662Y-121028444D01*
X180830662Y-121028444D02*
X180925900Y-120980825D01*
X180925900Y-120980825D02*
X180973520Y-120933206D01*
X180973520Y-120933206D02*
X181021139Y-120837968D01*
X181021139Y-120837968D02*
X181021139Y-120599873D01*
X181021139Y-120599873D02*
X180973520Y-120504635D01*
X180973520Y-120504635D02*
X180925900Y-120457016D01*
X181021139Y-121980825D02*
X181021139Y-121409397D01*
X181021139Y-121695111D02*
X180021139Y-121695111D01*
X180021139Y-121695111D02*
X180163996Y-121599873D01*
X180163996Y-121599873D02*
X180259234Y-121504635D01*
X180259234Y-121504635D02*
X180306853Y-121409397D01*
X180116377Y-122361778D02*
X180068758Y-122409397D01*
X180068758Y-122409397D02*
X180021139Y-122504635D01*
X180021139Y-122504635D02*
X180021139Y-122742730D01*
X180021139Y-122742730D02*
X180068758Y-122837968D01*
X180068758Y-122837968D02*
X180116377Y-122885587D01*
X180116377Y-122885587D02*
X180211615Y-122933206D01*
X180211615Y-122933206D02*
X180306853Y-122933206D01*
X180306853Y-122933206D02*
X180449710Y-122885587D01*
X180449710Y-122885587D02*
X181021139Y-122314159D01*
X181021139Y-122314159D02*
X181021139Y-122933206D01*
X181021139Y-123361778D02*
X180021139Y-123361778D01*
X180640186Y-123457016D02*
X181021139Y-123742730D01*
X180354472Y-123742730D02*
X180735424Y-123361778D01*
X180497329Y-124504635D02*
X180544948Y-124647492D01*
X180544948Y-124647492D02*
X180592567Y-124695111D01*
X180592567Y-124695111D02*
X180687805Y-124742730D01*
X180687805Y-124742730D02*
X180830662Y-124742730D01*
X180830662Y-124742730D02*
X180925900Y-124695111D01*
X180925900Y-124695111D02*
X180973520Y-124647492D01*
X180973520Y-124647492D02*
X181021139Y-124552254D01*
X181021139Y-124552254D02*
X181021139Y-124171302D01*
X181021139Y-124171302D02*
X180021139Y-124171302D01*
X180021139Y-124171302D02*
X180021139Y-124504635D01*
X180021139Y-124504635D02*
X180068758Y-124599873D01*
X180068758Y-124599873D02*
X180116377Y-124647492D01*
X180116377Y-124647492D02*
X180211615Y-124695111D01*
X180211615Y-124695111D02*
X180306853Y-124695111D01*
X180306853Y-124695111D02*
X180402091Y-124647492D01*
X180402091Y-124647492D02*
X180449710Y-124599873D01*
X180449710Y-124599873D02*
X180497329Y-124504635D01*
X180497329Y-124504635D02*
X180497329Y-124171302D01*
X182631139Y-113433205D02*
X181631139Y-113433205D01*
X182012091Y-113433205D02*
X181964472Y-113528443D01*
X181964472Y-113528443D02*
X181964472Y-113718919D01*
X181964472Y-113718919D02*
X182012091Y-113814157D01*
X182012091Y-113814157D02*
X182059710Y-113861776D01*
X182059710Y-113861776D02*
X182154948Y-113909395D01*
X182154948Y-113909395D02*
X182440662Y-113909395D01*
X182440662Y-113909395D02*
X182535900Y-113861776D01*
X182535900Y-113861776D02*
X182583520Y-113814157D01*
X182583520Y-113814157D02*
X182631139Y-113718919D01*
X182631139Y-113718919D02*
X182631139Y-113528443D01*
X182631139Y-113528443D02*
X182583520Y-113433205D01*
X182631139Y-114766538D02*
X182107329Y-114766538D01*
X182107329Y-114766538D02*
X182012091Y-114718919D01*
X182012091Y-114718919D02*
X181964472Y-114623681D01*
X181964472Y-114623681D02*
X181964472Y-114433205D01*
X181964472Y-114433205D02*
X182012091Y-114337967D01*
X182583520Y-114766538D02*
X182631139Y-114671300D01*
X182631139Y-114671300D02*
X182631139Y-114433205D01*
X182631139Y-114433205D02*
X182583520Y-114337967D01*
X182583520Y-114337967D02*
X182488281Y-114290348D01*
X182488281Y-114290348D02*
X182393043Y-114290348D01*
X182393043Y-114290348D02*
X182297805Y-114337967D01*
X182297805Y-114337967D02*
X182250186Y-114433205D01*
X182250186Y-114433205D02*
X182250186Y-114671300D01*
X182250186Y-114671300D02*
X182202567Y-114766538D01*
X181964472Y-115242729D02*
X182631139Y-115242729D01*
X182059710Y-115242729D02*
X182012091Y-115290348D01*
X182012091Y-115290348D02*
X181964472Y-115385586D01*
X181964472Y-115385586D02*
X181964472Y-115528443D01*
X181964472Y-115528443D02*
X182012091Y-115623681D01*
X182012091Y-115623681D02*
X182107329Y-115671300D01*
X182107329Y-115671300D02*
X182631139Y-115671300D01*
X182631139Y-116147491D02*
X181631139Y-116147491D01*
X182250186Y-116242729D02*
X182631139Y-116528443D01*
X181964472Y-116528443D02*
X182345424Y-116147491D01*
X182583520Y-117004634D02*
X182631139Y-117004634D01*
X182631139Y-117004634D02*
X182726377Y-116957015D01*
X182726377Y-116957015D02*
X182773996Y-116909396D01*
X182583520Y-118147491D02*
X182631139Y-118242729D01*
X182631139Y-118242729D02*
X182631139Y-118433205D01*
X182631139Y-118433205D02*
X182583520Y-118528443D01*
X182583520Y-118528443D02*
X182488281Y-118576062D01*
X182488281Y-118576062D02*
X182440662Y-118576062D01*
X182440662Y-118576062D02*
X182345424Y-118528443D01*
X182345424Y-118528443D02*
X182297805Y-118433205D01*
X182297805Y-118433205D02*
X182297805Y-118290348D01*
X182297805Y-118290348D02*
X182250186Y-118195110D01*
X182250186Y-118195110D02*
X182154948Y-118147491D01*
X182154948Y-118147491D02*
X182107329Y-118147491D01*
X182107329Y-118147491D02*
X182012091Y-118195110D01*
X182012091Y-118195110D02*
X181964472Y-118290348D01*
X181964472Y-118290348D02*
X181964472Y-118433205D01*
X181964472Y-118433205D02*
X182012091Y-118528443D01*
X182583520Y-119385586D02*
X182631139Y-119290348D01*
X182631139Y-119290348D02*
X182631139Y-119099872D01*
X182631139Y-119099872D02*
X182583520Y-119004634D01*
X182583520Y-119004634D02*
X182488281Y-118957015D01*
X182488281Y-118957015D02*
X182107329Y-118957015D01*
X182107329Y-118957015D02*
X182012091Y-119004634D01*
X182012091Y-119004634D02*
X181964472Y-119099872D01*
X181964472Y-119099872D02*
X181964472Y-119290348D01*
X181964472Y-119290348D02*
X182012091Y-119385586D01*
X182012091Y-119385586D02*
X182107329Y-119433205D01*
X182107329Y-119433205D02*
X182202567Y-119433205D01*
X182202567Y-119433205D02*
X182297805Y-118957015D01*
X182583520Y-120242729D02*
X182631139Y-120147491D01*
X182631139Y-120147491D02*
X182631139Y-119957015D01*
X182631139Y-119957015D02*
X182583520Y-119861777D01*
X182583520Y-119861777D02*
X182488281Y-119814158D01*
X182488281Y-119814158D02*
X182107329Y-119814158D01*
X182107329Y-119814158D02*
X182012091Y-119861777D01*
X182012091Y-119861777D02*
X181964472Y-119957015D01*
X181964472Y-119957015D02*
X181964472Y-120147491D01*
X181964472Y-120147491D02*
X182012091Y-120242729D01*
X182012091Y-120242729D02*
X182107329Y-120290348D01*
X182107329Y-120290348D02*
X182202567Y-120290348D01*
X182202567Y-120290348D02*
X182297805Y-119814158D01*
X182631139Y-121909396D02*
X181631139Y-121909396D01*
X182583520Y-121909396D02*
X182631139Y-121814158D01*
X182631139Y-121814158D02*
X182631139Y-121623682D01*
X182631139Y-121623682D02*
X182583520Y-121528444D01*
X182583520Y-121528444D02*
X182535900Y-121480825D01*
X182535900Y-121480825D02*
X182440662Y-121433206D01*
X182440662Y-121433206D02*
X182154948Y-121433206D01*
X182154948Y-121433206D02*
X182059710Y-121480825D01*
X182059710Y-121480825D02*
X182012091Y-121528444D01*
X182012091Y-121528444D02*
X181964472Y-121623682D01*
X181964472Y-121623682D02*
X181964472Y-121814158D01*
X181964472Y-121814158D02*
X182012091Y-121909396D01*
X182631139Y-122814158D02*
X182107329Y-122814158D01*
X182107329Y-122814158D02*
X182012091Y-122766539D01*
X182012091Y-122766539D02*
X181964472Y-122671301D01*
X181964472Y-122671301D02*
X181964472Y-122480825D01*
X181964472Y-122480825D02*
X182012091Y-122385587D01*
X182583520Y-122814158D02*
X182631139Y-122718920D01*
X182631139Y-122718920D02*
X182631139Y-122480825D01*
X182631139Y-122480825D02*
X182583520Y-122385587D01*
X182583520Y-122385587D02*
X182488281Y-122337968D01*
X182488281Y-122337968D02*
X182393043Y-122337968D01*
X182393043Y-122337968D02*
X182297805Y-122385587D01*
X182297805Y-122385587D02*
X182250186Y-122480825D01*
X182250186Y-122480825D02*
X182250186Y-122718920D01*
X182250186Y-122718920D02*
X182202567Y-122814158D01*
X181964472Y-123147492D02*
X181964472Y-123528444D01*
X181631139Y-123290349D02*
X182488281Y-123290349D01*
X182488281Y-123290349D02*
X182583520Y-123337968D01*
X182583520Y-123337968D02*
X182631139Y-123433206D01*
X182631139Y-123433206D02*
X182631139Y-123528444D01*
X182631139Y-124290349D02*
X182107329Y-124290349D01*
X182107329Y-124290349D02*
X182012091Y-124242730D01*
X182012091Y-124242730D02*
X181964472Y-124147492D01*
X181964472Y-124147492D02*
X181964472Y-123957016D01*
X181964472Y-123957016D02*
X182012091Y-123861778D01*
X182583520Y-124290349D02*
X182631139Y-124195111D01*
X182631139Y-124195111D02*
X182631139Y-123957016D01*
X182631139Y-123957016D02*
X182583520Y-123861778D01*
X182583520Y-123861778D02*
X182488281Y-123814159D01*
X182488281Y-123814159D02*
X182393043Y-123814159D01*
X182393043Y-123814159D02*
X182297805Y-123861778D01*
X182297805Y-123861778D02*
X182250186Y-123957016D01*
X182250186Y-123957016D02*
X182250186Y-124195111D01*
X182250186Y-124195111D02*
X182202567Y-124290349D01*
X184193520Y-116814158D02*
X184241139Y-116909396D01*
X184241139Y-116909396D02*
X184241139Y-117099872D01*
X184241139Y-117099872D02*
X184193520Y-117195110D01*
X184193520Y-117195110D02*
X184098281Y-117242729D01*
X184098281Y-117242729D02*
X184050662Y-117242729D01*
X184050662Y-117242729D02*
X183955424Y-117195110D01*
X183955424Y-117195110D02*
X183907805Y-117099872D01*
X183907805Y-117099872D02*
X183907805Y-116957015D01*
X183907805Y-116957015D02*
X183860186Y-116861777D01*
X183860186Y-116861777D02*
X183764948Y-116814158D01*
X183764948Y-116814158D02*
X183717329Y-116814158D01*
X183717329Y-116814158D02*
X183622091Y-116861777D01*
X183622091Y-116861777D02*
X183574472Y-116957015D01*
X183574472Y-116957015D02*
X183574472Y-117099872D01*
X183574472Y-117099872D02*
X183622091Y-117195110D01*
X184241139Y-117671301D02*
X183241139Y-117671301D01*
X184241139Y-118099872D02*
X183717329Y-118099872D01*
X183717329Y-118099872D02*
X183622091Y-118052253D01*
X183622091Y-118052253D02*
X183574472Y-117957015D01*
X183574472Y-117957015D02*
X183574472Y-117814158D01*
X183574472Y-117814158D02*
X183622091Y-117718920D01*
X183622091Y-117718920D02*
X183669710Y-117671301D01*
X184193520Y-118957015D02*
X184241139Y-118861777D01*
X184241139Y-118861777D02*
X184241139Y-118671301D01*
X184241139Y-118671301D02*
X184193520Y-118576063D01*
X184193520Y-118576063D02*
X184098281Y-118528444D01*
X184098281Y-118528444D02*
X183717329Y-118528444D01*
X183717329Y-118528444D02*
X183622091Y-118576063D01*
X183622091Y-118576063D02*
X183574472Y-118671301D01*
X183574472Y-118671301D02*
X183574472Y-118861777D01*
X183574472Y-118861777D02*
X183622091Y-118957015D01*
X183622091Y-118957015D02*
X183717329Y-119004634D01*
X183717329Y-119004634D02*
X183812567Y-119004634D01*
X183812567Y-119004634D02*
X183907805Y-118528444D01*
X184193520Y-119814158D02*
X184241139Y-119718920D01*
X184241139Y-119718920D02*
X184241139Y-119528444D01*
X184241139Y-119528444D02*
X184193520Y-119433206D01*
X184193520Y-119433206D02*
X184098281Y-119385587D01*
X184098281Y-119385587D02*
X183717329Y-119385587D01*
X183717329Y-119385587D02*
X183622091Y-119433206D01*
X183622091Y-119433206D02*
X183574472Y-119528444D01*
X183574472Y-119528444D02*
X183574472Y-119718920D01*
X183574472Y-119718920D02*
X183622091Y-119814158D01*
X183622091Y-119814158D02*
X183717329Y-119861777D01*
X183717329Y-119861777D02*
X183812567Y-119861777D01*
X183812567Y-119861777D02*
X183907805Y-119385587D01*
X183574472Y-120147492D02*
X183574472Y-120528444D01*
X183241139Y-120290349D02*
X184098281Y-120290349D01*
X184098281Y-120290349D02*
X184193520Y-120337968D01*
X184193520Y-120337968D02*
X184241139Y-120433206D01*
X184241139Y-120433206D02*
X184241139Y-120528444D01*
X184145900Y-120861778D02*
X184193520Y-120909397D01*
X184193520Y-120909397D02*
X184241139Y-120861778D01*
X184241139Y-120861778D02*
X184193520Y-120814159D01*
X184193520Y-120814159D02*
X184145900Y-120861778D01*
X184145900Y-120861778D02*
X184241139Y-120861778D01*
D11*
X111643291Y-88004162D02*
X110884919Y-87473302D01*
X111643291Y-87094116D02*
X110050711Y-87094116D01*
X110050711Y-87094116D02*
X110050711Y-87700813D01*
X110050711Y-87700813D02*
X110126548Y-87852488D01*
X110126548Y-87852488D02*
X110202385Y-87928325D01*
X110202385Y-87928325D02*
X110354059Y-88004162D01*
X110354059Y-88004162D02*
X110581571Y-88004162D01*
X110581571Y-88004162D02*
X110733245Y-87928325D01*
X110733245Y-87928325D02*
X110809082Y-87852488D01*
X110809082Y-87852488D02*
X110884919Y-87700813D01*
X110884919Y-87700813D02*
X110884919Y-87094116D01*
X111643291Y-89520905D02*
X111643291Y-88610859D01*
X111643291Y-89065882D02*
X110050711Y-89065882D01*
X110050711Y-89065882D02*
X110278222Y-88914208D01*
X110278222Y-88914208D02*
X110429896Y-88762533D01*
X110429896Y-88762533D02*
X110505734Y-88610859D01*
X111036594Y-90203439D02*
X111036594Y-91416834D01*
X110050711Y-92933577D02*
X110050711Y-92175205D01*
X110050711Y-92175205D02*
X110809082Y-92099368D01*
X110809082Y-92099368D02*
X110733245Y-92175205D01*
X110733245Y-92175205D02*
X110657408Y-92326880D01*
X110657408Y-92326880D02*
X110657408Y-92706065D01*
X110657408Y-92706065D02*
X110733245Y-92857740D01*
X110733245Y-92857740D02*
X110809082Y-92933577D01*
X110809082Y-92933577D02*
X110960756Y-93009414D01*
X110960756Y-93009414D02*
X111339942Y-93009414D01*
X111339942Y-93009414D02*
X111491616Y-92933577D01*
X111491616Y-92933577D02*
X111567454Y-92857740D01*
X111567454Y-92857740D02*
X111643291Y-92706065D01*
X111643291Y-92706065D02*
X111643291Y-92326880D01*
X111643291Y-92326880D02*
X111567454Y-92175205D01*
X111567454Y-92175205D02*
X111491616Y-92099368D01*
X111491616Y-93691948D02*
X111567454Y-93767785D01*
X111567454Y-93767785D02*
X111643291Y-93691948D01*
X111643291Y-93691948D02*
X111567454Y-93616111D01*
X111567454Y-93616111D02*
X111491616Y-93691948D01*
X111491616Y-93691948D02*
X111643291Y-93691948D01*
X110657408Y-93691948D02*
X110733245Y-93767785D01*
X110733245Y-93767785D02*
X110809082Y-93691948D01*
X110809082Y-93691948D02*
X110733245Y-93616111D01*
X110733245Y-93616111D02*
X110657408Y-93691948D01*
X110657408Y-93691948D02*
X110809082Y-93691948D01*
X111643291Y-96497922D02*
X111643291Y-95587876D01*
X111643291Y-96042899D02*
X110050711Y-96042899D01*
X110050711Y-96042899D02*
X110278222Y-95891225D01*
X110278222Y-95891225D02*
X110429896Y-95739550D01*
X110429896Y-95739550D02*
X110505734Y-95587876D01*
X110050711Y-97483805D02*
X110050711Y-97635479D01*
X110050711Y-97635479D02*
X110126548Y-97787153D01*
X110126548Y-97787153D02*
X110202385Y-97862991D01*
X110202385Y-97862991D02*
X110354059Y-97938828D01*
X110354059Y-97938828D02*
X110657408Y-98014665D01*
X110657408Y-98014665D02*
X111036594Y-98014665D01*
X111036594Y-98014665D02*
X111339942Y-97938828D01*
X111339942Y-97938828D02*
X111491616Y-97862991D01*
X111491616Y-97862991D02*
X111567454Y-97787153D01*
X111567454Y-97787153D02*
X111643291Y-97635479D01*
X111643291Y-97635479D02*
X111643291Y-97483805D01*
X111643291Y-97483805D02*
X111567454Y-97332131D01*
X111567454Y-97332131D02*
X111491616Y-97256293D01*
X111491616Y-97256293D02*
X111339942Y-97180456D01*
X111339942Y-97180456D02*
X111036594Y-97104619D01*
X111036594Y-97104619D02*
X110657408Y-97104619D01*
X110657408Y-97104619D02*
X110354059Y-97180456D01*
X110354059Y-97180456D02*
X110202385Y-97256293D01*
X110202385Y-97256293D02*
X110126548Y-97332131D01*
X110126548Y-97332131D02*
X110050711Y-97483805D01*
X111643291Y-98697199D02*
X110050711Y-98697199D01*
X111036594Y-98848874D02*
X111643291Y-99303896D01*
X110581571Y-99303896D02*
X111188268Y-98697199D01*
X110050711Y-100289779D02*
X110050711Y-100593127D01*
X110050711Y-100593127D02*
X110126548Y-100744802D01*
X110126548Y-100744802D02*
X110278222Y-100896476D01*
X110278222Y-100896476D02*
X110581571Y-100972313D01*
X110581571Y-100972313D02*
X111112431Y-100972313D01*
X111112431Y-100972313D02*
X111415779Y-100896476D01*
X111415779Y-100896476D02*
X111567454Y-100744802D01*
X111567454Y-100744802D02*
X111643291Y-100593127D01*
X111643291Y-100593127D02*
X111643291Y-100289779D01*
X111643291Y-100289779D02*
X111567454Y-100138105D01*
X111567454Y-100138105D02*
X111415779Y-99986430D01*
X111415779Y-99986430D02*
X111112431Y-99910593D01*
X111112431Y-99910593D02*
X110581571Y-99910593D01*
X110581571Y-99910593D02*
X110278222Y-99986430D01*
X110278222Y-99986430D02*
X110126548Y-100138105D01*
X110126548Y-100138105D02*
X110050711Y-100289779D01*
X111643291Y-101654847D02*
X110050711Y-101654847D01*
X111643291Y-102337382D02*
X110809082Y-102337382D01*
X110809082Y-102337382D02*
X110657408Y-102261544D01*
X110657408Y-102261544D02*
X110581571Y-102109870D01*
X110581571Y-102109870D02*
X110581571Y-101882359D01*
X110581571Y-101882359D02*
X110657408Y-101730684D01*
X110657408Y-101730684D02*
X110733245Y-101654847D01*
X111643291Y-103095753D02*
X110581571Y-103095753D01*
X110733245Y-103095753D02*
X110657408Y-103171590D01*
X110657408Y-103171590D02*
X110581571Y-103323265D01*
X110581571Y-103323265D02*
X110581571Y-103550776D01*
X110581571Y-103550776D02*
X110657408Y-103702450D01*
X110657408Y-103702450D02*
X110809082Y-103778288D01*
X110809082Y-103778288D02*
X111643291Y-103778288D01*
X110809082Y-103778288D02*
X110657408Y-103854125D01*
X110657408Y-103854125D02*
X110581571Y-104005799D01*
X110581571Y-104005799D02*
X110581571Y-104233310D01*
X110581571Y-104233310D02*
X110657408Y-104384985D01*
X110657408Y-104384985D02*
X110809082Y-104460822D01*
X110809082Y-104460822D02*
X111643291Y-104460822D01*
X114359019Y-88155836D02*
X114283182Y-88004162D01*
X114283182Y-88004162D02*
X114131508Y-87852488D01*
X114131508Y-87852488D02*
X113903996Y-87624976D01*
X113903996Y-87624976D02*
X113828159Y-87473302D01*
X113828159Y-87473302D02*
X113828159Y-87321628D01*
X114207345Y-87397465D02*
X114131508Y-87245791D01*
X114131508Y-87245791D02*
X113979833Y-87094116D01*
X113979833Y-87094116D02*
X113676485Y-87018279D01*
X113676485Y-87018279D02*
X113145625Y-87018279D01*
X113145625Y-87018279D02*
X112842276Y-87094116D01*
X112842276Y-87094116D02*
X112690602Y-87245791D01*
X112690602Y-87245791D02*
X112614765Y-87397465D01*
X112614765Y-87397465D02*
X112614765Y-87700813D01*
X112614765Y-87700813D02*
X112690602Y-87852488D01*
X112690602Y-87852488D02*
X112842276Y-88004162D01*
X112842276Y-88004162D02*
X113145625Y-88079999D01*
X113145625Y-88079999D02*
X113676485Y-88079999D01*
X113676485Y-88079999D02*
X113979833Y-88004162D01*
X113979833Y-88004162D02*
X114131508Y-87852488D01*
X114131508Y-87852488D02*
X114207345Y-87700813D01*
X114207345Y-87700813D02*
X114207345Y-87397465D01*
X114207345Y-89596742D02*
X114207345Y-88686696D01*
X114207345Y-89141719D02*
X112614765Y-89141719D01*
X112614765Y-89141719D02*
X112842276Y-88990045D01*
X112842276Y-88990045D02*
X112993950Y-88838370D01*
X112993950Y-88838370D02*
X113069788Y-88686696D01*
X114055670Y-90279276D02*
X114131508Y-90355113D01*
X114131508Y-90355113D02*
X114207345Y-90279276D01*
X114207345Y-90279276D02*
X114131508Y-90203439D01*
X114131508Y-90203439D02*
X114055670Y-90279276D01*
X114055670Y-90279276D02*
X114207345Y-90279276D01*
X113221462Y-90279276D02*
X113297299Y-90355113D01*
X113297299Y-90355113D02*
X113373136Y-90279276D01*
X113373136Y-90279276D02*
X113297299Y-90203439D01*
X113297299Y-90203439D02*
X113221462Y-90279276D01*
X113221462Y-90279276D02*
X113373136Y-90279276D01*
X114207345Y-92251041D02*
X112614765Y-92251041D01*
X112614765Y-92251041D02*
X113752322Y-92781901D01*
X113752322Y-92781901D02*
X112614765Y-93312761D01*
X112614765Y-93312761D02*
X114207345Y-93312761D01*
X114207345Y-94071132D02*
X112614765Y-94071132D01*
X112614765Y-94071132D02*
X113752322Y-94601992D01*
X113752322Y-94601992D02*
X112614765Y-95132852D01*
X112614765Y-95132852D02*
X114207345Y-95132852D01*
X113373136Y-96422083D02*
X113448973Y-96649595D01*
X113448973Y-96649595D02*
X113524810Y-96725432D01*
X113524810Y-96725432D02*
X113676485Y-96801269D01*
X113676485Y-96801269D02*
X113903996Y-96801269D01*
X113903996Y-96801269D02*
X114055670Y-96725432D01*
X114055670Y-96725432D02*
X114131508Y-96649595D01*
X114131508Y-96649595D02*
X114207345Y-96497920D01*
X114207345Y-96497920D02*
X114207345Y-95891223D01*
X114207345Y-95891223D02*
X112614765Y-95891223D01*
X112614765Y-95891223D02*
X112614765Y-96422083D01*
X112614765Y-96422083D02*
X112690602Y-96573758D01*
X112690602Y-96573758D02*
X112766439Y-96649595D01*
X112766439Y-96649595D02*
X112918113Y-96725432D01*
X112918113Y-96725432D02*
X113069788Y-96725432D01*
X113069788Y-96725432D02*
X113221462Y-96649595D01*
X113221462Y-96649595D02*
X113297299Y-96573758D01*
X113297299Y-96573758D02*
X113373136Y-96422083D01*
X113373136Y-96422083D02*
X113373136Y-95891223D01*
X112614765Y-97256292D02*
X112614765Y-98166338D01*
X114207345Y-97711315D02*
X112614765Y-97711315D01*
X112614765Y-98545523D02*
X112614765Y-99531406D01*
X112614765Y-99531406D02*
X113221462Y-99000546D01*
X113221462Y-99000546D02*
X113221462Y-99228057D01*
X113221462Y-99228057D02*
X113297299Y-99379732D01*
X113297299Y-99379732D02*
X113373136Y-99455569D01*
X113373136Y-99455569D02*
X113524810Y-99531406D01*
X113524810Y-99531406D02*
X113903996Y-99531406D01*
X113903996Y-99531406D02*
X114055670Y-99455569D01*
X114055670Y-99455569D02*
X114131508Y-99379732D01*
X114131508Y-99379732D02*
X114207345Y-99228057D01*
X114207345Y-99228057D02*
X114207345Y-98773034D01*
X114207345Y-98773034D02*
X114131508Y-98621360D01*
X114131508Y-98621360D02*
X114055670Y-98545523D01*
X114207345Y-100289777D02*
X114207345Y-100593126D01*
X114207345Y-100593126D02*
X114131508Y-100744800D01*
X114131508Y-100744800D02*
X114055670Y-100820637D01*
X114055670Y-100820637D02*
X113828159Y-100972312D01*
X113828159Y-100972312D02*
X113524810Y-101048149D01*
X113524810Y-101048149D02*
X112918113Y-101048149D01*
X112918113Y-101048149D02*
X112766439Y-100972312D01*
X112766439Y-100972312D02*
X112690602Y-100896475D01*
X112690602Y-100896475D02*
X112614765Y-100744800D01*
X112614765Y-100744800D02*
X112614765Y-100441452D01*
X112614765Y-100441452D02*
X112690602Y-100289777D01*
X112690602Y-100289777D02*
X112766439Y-100213940D01*
X112766439Y-100213940D02*
X112918113Y-100138103D01*
X112918113Y-100138103D02*
X113297299Y-100138103D01*
X113297299Y-100138103D02*
X113448973Y-100213940D01*
X113448973Y-100213940D02*
X113524810Y-100289777D01*
X113524810Y-100289777D02*
X113600648Y-100441452D01*
X113600648Y-100441452D02*
X113600648Y-100744800D01*
X113600648Y-100744800D02*
X113524810Y-100896475D01*
X113524810Y-100896475D02*
X113448973Y-100972312D01*
X113448973Y-100972312D02*
X113297299Y-101048149D01*
X112614765Y-102034032D02*
X112614765Y-102185706D01*
X112614765Y-102185706D02*
X112690602Y-102337380D01*
X112690602Y-102337380D02*
X112766439Y-102413218D01*
X112766439Y-102413218D02*
X112918113Y-102489055D01*
X112918113Y-102489055D02*
X113221462Y-102564892D01*
X113221462Y-102564892D02*
X113600648Y-102564892D01*
X113600648Y-102564892D02*
X113903996Y-102489055D01*
X113903996Y-102489055D02*
X114055670Y-102413218D01*
X114055670Y-102413218D02*
X114131508Y-102337380D01*
X114131508Y-102337380D02*
X114207345Y-102185706D01*
X114207345Y-102185706D02*
X114207345Y-102034032D01*
X114207345Y-102034032D02*
X114131508Y-101882358D01*
X114131508Y-101882358D02*
X114055670Y-101806520D01*
X114055670Y-101806520D02*
X113903996Y-101730683D01*
X113903996Y-101730683D02*
X113600648Y-101654846D01*
X113600648Y-101654846D02*
X113221462Y-101654846D01*
X113221462Y-101654846D02*
X112918113Y-101730683D01*
X112918113Y-101730683D02*
X112766439Y-101806520D01*
X112766439Y-101806520D02*
X112690602Y-101882358D01*
X112690602Y-101882358D02*
X112614765Y-102034032D01*
X112614765Y-103929961D02*
X112614765Y-103626612D01*
X112614765Y-103626612D02*
X112690602Y-103474938D01*
X112690602Y-103474938D02*
X112766439Y-103399101D01*
X112766439Y-103399101D02*
X112993950Y-103247426D01*
X112993950Y-103247426D02*
X113297299Y-103171589D01*
X113297299Y-103171589D02*
X113903996Y-103171589D01*
X113903996Y-103171589D02*
X114055670Y-103247426D01*
X114055670Y-103247426D02*
X114131508Y-103323263D01*
X114131508Y-103323263D02*
X114207345Y-103474938D01*
X114207345Y-103474938D02*
X114207345Y-103778286D01*
X114207345Y-103778286D02*
X114131508Y-103929961D01*
X114131508Y-103929961D02*
X114055670Y-104005798D01*
X114055670Y-104005798D02*
X113903996Y-104081635D01*
X113903996Y-104081635D02*
X113524810Y-104081635D01*
X113524810Y-104081635D02*
X113373136Y-104005798D01*
X113373136Y-104005798D02*
X113297299Y-103929961D01*
X113297299Y-103929961D02*
X113221462Y-103778286D01*
X113221462Y-103778286D02*
X113221462Y-103474938D01*
X113221462Y-103474938D02*
X113297299Y-103323263D01*
X113297299Y-103323263D02*
X113373136Y-103247426D01*
X113373136Y-103247426D02*
X113524810Y-103171589D01*
D12*
X187951202Y-85200773D02*
X186951202Y-85200773D01*
X187951202Y-85629344D02*
X187427392Y-85629344D01*
X187427392Y-85629344D02*
X187332154Y-85581725D01*
X187332154Y-85581725D02*
X187284535Y-85486487D01*
X187284535Y-85486487D02*
X187284535Y-85343630D01*
X187284535Y-85343630D02*
X187332154Y-85248392D01*
X187332154Y-85248392D02*
X187379773Y-85200773D01*
X187284535Y-85962678D02*
X187284535Y-86343630D01*
X186951202Y-86105535D02*
X187808344Y-86105535D01*
X187808344Y-86105535D02*
X187903583Y-86153154D01*
X187903583Y-86153154D02*
X187951202Y-86248392D01*
X187951202Y-86248392D02*
X187951202Y-86343630D01*
X187284535Y-86534107D02*
X187284535Y-86915059D01*
X186951202Y-86676964D02*
X187808344Y-86676964D01*
X187808344Y-86676964D02*
X187903583Y-86724583D01*
X187903583Y-86724583D02*
X187951202Y-86819821D01*
X187951202Y-86819821D02*
X187951202Y-86915059D01*
X187284535Y-87248393D02*
X188284535Y-87248393D01*
X187332154Y-87248393D02*
X187284535Y-87343631D01*
X187284535Y-87343631D02*
X187284535Y-87534107D01*
X187284535Y-87534107D02*
X187332154Y-87629345D01*
X187332154Y-87629345D02*
X187379773Y-87676964D01*
X187379773Y-87676964D02*
X187475011Y-87724583D01*
X187475011Y-87724583D02*
X187760725Y-87724583D01*
X187760725Y-87724583D02*
X187855963Y-87676964D01*
X187855963Y-87676964D02*
X187903583Y-87629345D01*
X187903583Y-87629345D02*
X187951202Y-87534107D01*
X187951202Y-87534107D02*
X187951202Y-87343631D01*
X187951202Y-87343631D02*
X187903583Y-87248393D01*
X187903583Y-88105536D02*
X187951202Y-88200774D01*
X187951202Y-88200774D02*
X187951202Y-88391250D01*
X187951202Y-88391250D02*
X187903583Y-88486488D01*
X187903583Y-88486488D02*
X187808344Y-88534107D01*
X187808344Y-88534107D02*
X187760725Y-88534107D01*
X187760725Y-88534107D02*
X187665487Y-88486488D01*
X187665487Y-88486488D02*
X187617868Y-88391250D01*
X187617868Y-88391250D02*
X187617868Y-88248393D01*
X187617868Y-88248393D02*
X187570249Y-88153155D01*
X187570249Y-88153155D02*
X187475011Y-88105536D01*
X187475011Y-88105536D02*
X187427392Y-88105536D01*
X187427392Y-88105536D02*
X187332154Y-88153155D01*
X187332154Y-88153155D02*
X187284535Y-88248393D01*
X187284535Y-88248393D02*
X187284535Y-88391250D01*
X187284535Y-88391250D02*
X187332154Y-88486488D01*
X187855963Y-88962679D02*
X187903583Y-89010298D01*
X187903583Y-89010298D02*
X187951202Y-88962679D01*
X187951202Y-88962679D02*
X187903583Y-88915060D01*
X187903583Y-88915060D02*
X187855963Y-88962679D01*
X187855963Y-88962679D02*
X187951202Y-88962679D01*
X187332154Y-88962679D02*
X187379773Y-89010298D01*
X187379773Y-89010298D02*
X187427392Y-88962679D01*
X187427392Y-88962679D02*
X187379773Y-88915060D01*
X187379773Y-88915060D02*
X187332154Y-88962679D01*
X187332154Y-88962679D02*
X187427392Y-88962679D01*
X186903583Y-90153154D02*
X188189297Y-89296012D01*
X186903583Y-91200773D02*
X188189297Y-90343631D01*
X187284535Y-91962678D02*
X188094059Y-91962678D01*
X188094059Y-91962678D02*
X188189297Y-91915059D01*
X188189297Y-91915059D02*
X188236916Y-91867440D01*
X188236916Y-91867440D02*
X188284535Y-91772202D01*
X188284535Y-91772202D02*
X188284535Y-91629345D01*
X188284535Y-91629345D02*
X188236916Y-91534107D01*
X187903583Y-91962678D02*
X187951202Y-91867440D01*
X187951202Y-91867440D02*
X187951202Y-91676964D01*
X187951202Y-91676964D02*
X187903583Y-91581726D01*
X187903583Y-91581726D02*
X187855963Y-91534107D01*
X187855963Y-91534107D02*
X187760725Y-91486488D01*
X187760725Y-91486488D02*
X187475011Y-91486488D01*
X187475011Y-91486488D02*
X187379773Y-91534107D01*
X187379773Y-91534107D02*
X187332154Y-91581726D01*
X187332154Y-91581726D02*
X187284535Y-91676964D01*
X187284535Y-91676964D02*
X187284535Y-91867440D01*
X187284535Y-91867440D02*
X187332154Y-91962678D01*
X187951202Y-92438869D02*
X187284535Y-92438869D01*
X186951202Y-92438869D02*
X186998821Y-92391250D01*
X186998821Y-92391250D02*
X187046440Y-92438869D01*
X187046440Y-92438869D02*
X186998821Y-92486488D01*
X186998821Y-92486488D02*
X186951202Y-92438869D01*
X186951202Y-92438869D02*
X187046440Y-92438869D01*
X187284535Y-92772202D02*
X187284535Y-93153154D01*
X186951202Y-92915059D02*
X187808344Y-92915059D01*
X187808344Y-92915059D02*
X187903583Y-92962678D01*
X187903583Y-92962678D02*
X187951202Y-93057916D01*
X187951202Y-93057916D02*
X187951202Y-93153154D01*
X187951202Y-93486488D02*
X186951202Y-93486488D01*
X187951202Y-93915059D02*
X187427392Y-93915059D01*
X187427392Y-93915059D02*
X187332154Y-93867440D01*
X187332154Y-93867440D02*
X187284535Y-93772202D01*
X187284535Y-93772202D02*
X187284535Y-93629345D01*
X187284535Y-93629345D02*
X187332154Y-93534107D01*
X187332154Y-93534107D02*
X187379773Y-93486488D01*
X187284535Y-94819821D02*
X187951202Y-94819821D01*
X187284535Y-94391250D02*
X187808344Y-94391250D01*
X187808344Y-94391250D02*
X187903583Y-94438869D01*
X187903583Y-94438869D02*
X187951202Y-94534107D01*
X187951202Y-94534107D02*
X187951202Y-94676964D01*
X187951202Y-94676964D02*
X187903583Y-94772202D01*
X187903583Y-94772202D02*
X187855963Y-94819821D01*
X187951202Y-95296012D02*
X186951202Y-95296012D01*
X187332154Y-95296012D02*
X187284535Y-95391250D01*
X187284535Y-95391250D02*
X187284535Y-95581726D01*
X187284535Y-95581726D02*
X187332154Y-95676964D01*
X187332154Y-95676964D02*
X187379773Y-95724583D01*
X187379773Y-95724583D02*
X187475011Y-95772202D01*
X187475011Y-95772202D02*
X187760725Y-95772202D01*
X187760725Y-95772202D02*
X187855963Y-95724583D01*
X187855963Y-95724583D02*
X187903583Y-95676964D01*
X187903583Y-95676964D02*
X187951202Y-95581726D01*
X187951202Y-95581726D02*
X187951202Y-95391250D01*
X187951202Y-95391250D02*
X187903583Y-95296012D01*
X187855963Y-96200774D02*
X187903583Y-96248393D01*
X187903583Y-96248393D02*
X187951202Y-96200774D01*
X187951202Y-96200774D02*
X187903583Y-96153155D01*
X187903583Y-96153155D02*
X187855963Y-96200774D01*
X187855963Y-96200774D02*
X187951202Y-96200774D01*
X187903583Y-97105535D02*
X187951202Y-97010297D01*
X187951202Y-97010297D02*
X187951202Y-96819821D01*
X187951202Y-96819821D02*
X187903583Y-96724583D01*
X187903583Y-96724583D02*
X187855963Y-96676964D01*
X187855963Y-96676964D02*
X187760725Y-96629345D01*
X187760725Y-96629345D02*
X187475011Y-96629345D01*
X187475011Y-96629345D02*
X187379773Y-96676964D01*
X187379773Y-96676964D02*
X187332154Y-96724583D01*
X187332154Y-96724583D02*
X187284535Y-96819821D01*
X187284535Y-96819821D02*
X187284535Y-97010297D01*
X187284535Y-97010297D02*
X187332154Y-97105535D01*
X187951202Y-97676964D02*
X187903583Y-97581726D01*
X187903583Y-97581726D02*
X187855963Y-97534107D01*
X187855963Y-97534107D02*
X187760725Y-97486488D01*
X187760725Y-97486488D02*
X187475011Y-97486488D01*
X187475011Y-97486488D02*
X187379773Y-97534107D01*
X187379773Y-97534107D02*
X187332154Y-97581726D01*
X187332154Y-97581726D02*
X187284535Y-97676964D01*
X187284535Y-97676964D02*
X187284535Y-97819821D01*
X187284535Y-97819821D02*
X187332154Y-97915059D01*
X187332154Y-97915059D02*
X187379773Y-97962678D01*
X187379773Y-97962678D02*
X187475011Y-98010297D01*
X187475011Y-98010297D02*
X187760725Y-98010297D01*
X187760725Y-98010297D02*
X187855963Y-97962678D01*
X187855963Y-97962678D02*
X187903583Y-97915059D01*
X187903583Y-97915059D02*
X187951202Y-97819821D01*
X187951202Y-97819821D02*
X187951202Y-97676964D01*
X187951202Y-98438869D02*
X187284535Y-98438869D01*
X187379773Y-98438869D02*
X187332154Y-98486488D01*
X187332154Y-98486488D02*
X187284535Y-98581726D01*
X187284535Y-98581726D02*
X187284535Y-98724583D01*
X187284535Y-98724583D02*
X187332154Y-98819821D01*
X187332154Y-98819821D02*
X187427392Y-98867440D01*
X187427392Y-98867440D02*
X187951202Y-98867440D01*
X187427392Y-98867440D02*
X187332154Y-98915059D01*
X187332154Y-98915059D02*
X187284535Y-99010297D01*
X187284535Y-99010297D02*
X187284535Y-99153154D01*
X187284535Y-99153154D02*
X187332154Y-99248393D01*
X187332154Y-99248393D02*
X187427392Y-99296012D01*
X187427392Y-99296012D02*
X187951202Y-99296012D01*
X186903583Y-100486487D02*
X188189297Y-99629345D01*
X187951202Y-100819821D02*
X187284535Y-100819821D01*
X187379773Y-100819821D02*
X187332154Y-100867440D01*
X187332154Y-100867440D02*
X187284535Y-100962678D01*
X187284535Y-100962678D02*
X187284535Y-101105535D01*
X187284535Y-101105535D02*
X187332154Y-101200773D01*
X187332154Y-101200773D02*
X187427392Y-101248392D01*
X187427392Y-101248392D02*
X187951202Y-101248392D01*
X187427392Y-101248392D02*
X187332154Y-101296011D01*
X187332154Y-101296011D02*
X187284535Y-101391249D01*
X187284535Y-101391249D02*
X187284535Y-101534106D01*
X187284535Y-101534106D02*
X187332154Y-101629345D01*
X187332154Y-101629345D02*
X187427392Y-101676964D01*
X187427392Y-101676964D02*
X187951202Y-101676964D01*
X187951202Y-102581725D02*
X187427392Y-102581725D01*
X187427392Y-102581725D02*
X187332154Y-102534106D01*
X187332154Y-102534106D02*
X187284535Y-102438868D01*
X187284535Y-102438868D02*
X187284535Y-102248392D01*
X187284535Y-102248392D02*
X187332154Y-102153154D01*
X187903583Y-102581725D02*
X187951202Y-102486487D01*
X187951202Y-102486487D02*
X187951202Y-102248392D01*
X187951202Y-102248392D02*
X187903583Y-102153154D01*
X187903583Y-102153154D02*
X187808344Y-102105535D01*
X187808344Y-102105535D02*
X187713106Y-102105535D01*
X187713106Y-102105535D02*
X187617868Y-102153154D01*
X187617868Y-102153154D02*
X187570249Y-102248392D01*
X187570249Y-102248392D02*
X187570249Y-102486487D01*
X187570249Y-102486487D02*
X187522630Y-102581725D01*
X187284535Y-102915059D02*
X187284535Y-103296011D01*
X187951202Y-103057916D02*
X187094059Y-103057916D01*
X187094059Y-103057916D02*
X186998821Y-103105535D01*
X186998821Y-103105535D02*
X186951202Y-103200773D01*
X186951202Y-103200773D02*
X186951202Y-103296011D01*
X187903583Y-104010297D02*
X187951202Y-103915059D01*
X187951202Y-103915059D02*
X187951202Y-103724583D01*
X187951202Y-103724583D02*
X187903583Y-103629345D01*
X187903583Y-103629345D02*
X187808344Y-103581726D01*
X187808344Y-103581726D02*
X187427392Y-103581726D01*
X187427392Y-103581726D02*
X187332154Y-103629345D01*
X187332154Y-103629345D02*
X187284535Y-103724583D01*
X187284535Y-103724583D02*
X187284535Y-103915059D01*
X187284535Y-103915059D02*
X187332154Y-104010297D01*
X187332154Y-104010297D02*
X187427392Y-104057916D01*
X187427392Y-104057916D02*
X187522630Y-104057916D01*
X187522630Y-104057916D02*
X187617868Y-103581726D01*
X186951202Y-104391250D02*
X186951202Y-105057916D01*
X186951202Y-105057916D02*
X187951202Y-104629345D01*
X187046440Y-105391250D02*
X186998821Y-105438869D01*
X186998821Y-105438869D02*
X186951202Y-105534107D01*
X186951202Y-105534107D02*
X186951202Y-105772202D01*
X186951202Y-105772202D02*
X186998821Y-105867440D01*
X186998821Y-105867440D02*
X187046440Y-105915059D01*
X187046440Y-105915059D02*
X187141678Y-105962678D01*
X187141678Y-105962678D02*
X187236916Y-105962678D01*
X187236916Y-105962678D02*
X187379773Y-105915059D01*
X187379773Y-105915059D02*
X187951202Y-105343631D01*
X187951202Y-105343631D02*
X187951202Y-105962678D01*
X186903583Y-107105535D02*
X188189297Y-106248393D01*
X187046440Y-107391250D02*
X186998821Y-107438869D01*
X186998821Y-107438869D02*
X186951202Y-107534107D01*
X186951202Y-107534107D02*
X186951202Y-107772202D01*
X186951202Y-107772202D02*
X186998821Y-107867440D01*
X186998821Y-107867440D02*
X187046440Y-107915059D01*
X187046440Y-107915059D02*
X187141678Y-107962678D01*
X187141678Y-107962678D02*
X187236916Y-107962678D01*
X187236916Y-107962678D02*
X187379773Y-107915059D01*
X187379773Y-107915059D02*
X187951202Y-107343631D01*
X187951202Y-107343631D02*
X187951202Y-107962678D01*
X186951202Y-108296012D02*
X186951202Y-108962678D01*
X186951202Y-108962678D02*
X187951202Y-108534107D01*
X187903583Y-109772202D02*
X187951202Y-109676964D01*
X187951202Y-109676964D02*
X187951202Y-109486488D01*
X187951202Y-109486488D02*
X187903583Y-109391250D01*
X187903583Y-109391250D02*
X187855963Y-109343631D01*
X187855963Y-109343631D02*
X187760725Y-109296012D01*
X187760725Y-109296012D02*
X187475011Y-109296012D01*
X187475011Y-109296012D02*
X187379773Y-109343631D01*
X187379773Y-109343631D02*
X187332154Y-109391250D01*
X187332154Y-109391250D02*
X187284535Y-109486488D01*
X187284535Y-109486488D02*
X187284535Y-109676964D01*
X187284535Y-109676964D02*
X187332154Y-109772202D01*
X187951202Y-110724583D02*
X187951202Y-110153155D01*
X187951202Y-110438869D02*
X186951202Y-110438869D01*
X186951202Y-110438869D02*
X187094059Y-110343631D01*
X187094059Y-110343631D02*
X187189297Y-110248393D01*
X187189297Y-110248393D02*
X187236916Y-110153155D01*
X186951202Y-111581726D02*
X186951202Y-111391250D01*
X186951202Y-111391250D02*
X186998821Y-111296012D01*
X186998821Y-111296012D02*
X187046440Y-111248393D01*
X187046440Y-111248393D02*
X187189297Y-111153155D01*
X187189297Y-111153155D02*
X187379773Y-111105536D01*
X187379773Y-111105536D02*
X187760725Y-111105536D01*
X187760725Y-111105536D02*
X187855963Y-111153155D01*
X187855963Y-111153155D02*
X187903583Y-111200774D01*
X187903583Y-111200774D02*
X187951202Y-111296012D01*
X187951202Y-111296012D02*
X187951202Y-111486488D01*
X187951202Y-111486488D02*
X187903583Y-111581726D01*
X187903583Y-111581726D02*
X187855963Y-111629345D01*
X187855963Y-111629345D02*
X187760725Y-111676964D01*
X187760725Y-111676964D02*
X187522630Y-111676964D01*
X187522630Y-111676964D02*
X187427392Y-111629345D01*
X187427392Y-111629345D02*
X187379773Y-111581726D01*
X187379773Y-111581726D02*
X187332154Y-111486488D01*
X187332154Y-111486488D02*
X187332154Y-111296012D01*
X187332154Y-111296012D02*
X187379773Y-111200774D01*
X187379773Y-111200774D02*
X187427392Y-111153155D01*
X187427392Y-111153155D02*
X187522630Y-111105536D01*
X186951202Y-112296012D02*
X186951202Y-112391250D01*
X186951202Y-112391250D02*
X186998821Y-112486488D01*
X186998821Y-112486488D02*
X187046440Y-112534107D01*
X187046440Y-112534107D02*
X187141678Y-112581726D01*
X187141678Y-112581726D02*
X187332154Y-112629345D01*
X187332154Y-112629345D02*
X187570249Y-112629345D01*
X187570249Y-112629345D02*
X187760725Y-112581726D01*
X187760725Y-112581726D02*
X187855963Y-112534107D01*
X187855963Y-112534107D02*
X187903583Y-112486488D01*
X187903583Y-112486488D02*
X187951202Y-112391250D01*
X187951202Y-112391250D02*
X187951202Y-112296012D01*
X187951202Y-112296012D02*
X187903583Y-112200774D01*
X187903583Y-112200774D02*
X187855963Y-112153155D01*
X187855963Y-112153155D02*
X187760725Y-112105536D01*
X187760725Y-112105536D02*
X187570249Y-112057917D01*
X187570249Y-112057917D02*
X187332154Y-112057917D01*
X187332154Y-112057917D02*
X187141678Y-112105536D01*
X187141678Y-112105536D02*
X187046440Y-112153155D01*
X187046440Y-112153155D02*
X186998821Y-112200774D01*
X186998821Y-112200774D02*
X186951202Y-112296012D01*
X187570249Y-113057917D02*
X187570249Y-113819822D01*
X187284535Y-114153155D02*
X187284535Y-114534107D01*
X186951202Y-114296012D02*
X187808344Y-114296012D01*
X187808344Y-114296012D02*
X187903583Y-114343631D01*
X187903583Y-114343631D02*
X187951202Y-114438869D01*
X187951202Y-114438869D02*
X187951202Y-114534107D01*
X187951202Y-115010298D02*
X187903583Y-114915060D01*
X187903583Y-114915060D02*
X187808344Y-114867441D01*
X187808344Y-114867441D02*
X186951202Y-114867441D01*
X187379773Y-115534108D02*
X187332154Y-115438870D01*
X187332154Y-115438870D02*
X187284535Y-115391251D01*
X187284535Y-115391251D02*
X187189297Y-115343632D01*
X187189297Y-115343632D02*
X187141678Y-115343632D01*
X187141678Y-115343632D02*
X187046440Y-115391251D01*
X187046440Y-115391251D02*
X186998821Y-115438870D01*
X186998821Y-115438870D02*
X186951202Y-115534108D01*
X186951202Y-115534108D02*
X186951202Y-115724584D01*
X186951202Y-115724584D02*
X186998821Y-115819822D01*
X186998821Y-115819822D02*
X187046440Y-115867441D01*
X187046440Y-115867441D02*
X187141678Y-115915060D01*
X187141678Y-115915060D02*
X187189297Y-115915060D01*
X187189297Y-115915060D02*
X187284535Y-115867441D01*
X187284535Y-115867441D02*
X187332154Y-115819822D01*
X187332154Y-115819822D02*
X187379773Y-115724584D01*
X187379773Y-115724584D02*
X187379773Y-115534108D01*
X187379773Y-115534108D02*
X187427392Y-115438870D01*
X187427392Y-115438870D02*
X187475011Y-115391251D01*
X187475011Y-115391251D02*
X187570249Y-115343632D01*
X187570249Y-115343632D02*
X187760725Y-115343632D01*
X187760725Y-115343632D02*
X187855963Y-115391251D01*
X187855963Y-115391251D02*
X187903583Y-115438870D01*
X187903583Y-115438870D02*
X187951202Y-115534108D01*
X187951202Y-115534108D02*
X187951202Y-115724584D01*
X187951202Y-115724584D02*
X187903583Y-115819822D01*
X187903583Y-115819822D02*
X187855963Y-115867441D01*
X187855963Y-115867441D02*
X187760725Y-115915060D01*
X187760725Y-115915060D02*
X187570249Y-115915060D01*
X187570249Y-115915060D02*
X187475011Y-115867441D01*
X187475011Y-115867441D02*
X187427392Y-115819822D01*
X187427392Y-115819822D02*
X187379773Y-115724584D01*
X186951202Y-116772203D02*
X186951202Y-116581727D01*
X186951202Y-116581727D02*
X186998821Y-116486489D01*
X186998821Y-116486489D02*
X187046440Y-116438870D01*
X187046440Y-116438870D02*
X187189297Y-116343632D01*
X187189297Y-116343632D02*
X187379773Y-116296013D01*
X187379773Y-116296013D02*
X187760725Y-116296013D01*
X187760725Y-116296013D02*
X187855963Y-116343632D01*
X187855963Y-116343632D02*
X187903583Y-116391251D01*
X187903583Y-116391251D02*
X187951202Y-116486489D01*
X187951202Y-116486489D02*
X187951202Y-116676965D01*
X187951202Y-116676965D02*
X187903583Y-116772203D01*
X187903583Y-116772203D02*
X187855963Y-116819822D01*
X187855963Y-116819822D02*
X187760725Y-116867441D01*
X187760725Y-116867441D02*
X187522630Y-116867441D01*
X187522630Y-116867441D02*
X187427392Y-116819822D01*
X187427392Y-116819822D02*
X187379773Y-116772203D01*
X187379773Y-116772203D02*
X187332154Y-116676965D01*
X187332154Y-116676965D02*
X187332154Y-116486489D01*
X187332154Y-116486489D02*
X187379773Y-116391251D01*
X187379773Y-116391251D02*
X187427392Y-116343632D01*
X187427392Y-116343632D02*
X187522630Y-116296013D01*
X186951202Y-117724584D02*
X186951202Y-117534108D01*
X186951202Y-117534108D02*
X186998821Y-117438870D01*
X186998821Y-117438870D02*
X187046440Y-117391251D01*
X187046440Y-117391251D02*
X187189297Y-117296013D01*
X187189297Y-117296013D02*
X187379773Y-117248394D01*
X187379773Y-117248394D02*
X187760725Y-117248394D01*
X187760725Y-117248394D02*
X187855963Y-117296013D01*
X187855963Y-117296013D02*
X187903583Y-117343632D01*
X187903583Y-117343632D02*
X187951202Y-117438870D01*
X187951202Y-117438870D02*
X187951202Y-117629346D01*
X187951202Y-117629346D02*
X187903583Y-117724584D01*
X187903583Y-117724584D02*
X187855963Y-117772203D01*
X187855963Y-117772203D02*
X187760725Y-117819822D01*
X187760725Y-117819822D02*
X187522630Y-117819822D01*
X187522630Y-117819822D02*
X187427392Y-117772203D01*
X187427392Y-117772203D02*
X187379773Y-117724584D01*
X187379773Y-117724584D02*
X187332154Y-117629346D01*
X187332154Y-117629346D02*
X187332154Y-117438870D01*
X187332154Y-117438870D02*
X187379773Y-117343632D01*
X187379773Y-117343632D02*
X187427392Y-117296013D01*
X187427392Y-117296013D02*
X187522630Y-117248394D01*
X187570249Y-118248394D02*
X187570249Y-119010299D01*
X187951202Y-119915060D02*
X187427392Y-119915060D01*
X187427392Y-119915060D02*
X187332154Y-119867441D01*
X187332154Y-119867441D02*
X187284535Y-119772203D01*
X187284535Y-119772203D02*
X187284535Y-119581727D01*
X187284535Y-119581727D02*
X187332154Y-119486489D01*
X187903583Y-119915060D02*
X187951202Y-119819822D01*
X187951202Y-119819822D02*
X187951202Y-119581727D01*
X187951202Y-119581727D02*
X187903583Y-119486489D01*
X187903583Y-119486489D02*
X187808344Y-119438870D01*
X187808344Y-119438870D02*
X187713106Y-119438870D01*
X187713106Y-119438870D02*
X187617868Y-119486489D01*
X187617868Y-119486489D02*
X187570249Y-119581727D01*
X187570249Y-119581727D02*
X187570249Y-119819822D01*
X187570249Y-119819822D02*
X187522630Y-119915060D01*
X187951202Y-120819822D02*
X186951202Y-120819822D01*
X187903583Y-120819822D02*
X187951202Y-120724584D01*
X187951202Y-120724584D02*
X187951202Y-120534108D01*
X187951202Y-120534108D02*
X187903583Y-120438870D01*
X187903583Y-120438870D02*
X187855963Y-120391251D01*
X187855963Y-120391251D02*
X187760725Y-120343632D01*
X187760725Y-120343632D02*
X187475011Y-120343632D01*
X187475011Y-120343632D02*
X187379773Y-120391251D01*
X187379773Y-120391251D02*
X187332154Y-120438870D01*
X187332154Y-120438870D02*
X187284535Y-120534108D01*
X187284535Y-120534108D02*
X187284535Y-120724584D01*
X187284535Y-120724584D02*
X187332154Y-120819822D01*
X187951202Y-121724584D02*
X187427392Y-121724584D01*
X187427392Y-121724584D02*
X187332154Y-121676965D01*
X187332154Y-121676965D02*
X187284535Y-121581727D01*
X187284535Y-121581727D02*
X187284535Y-121391251D01*
X187284535Y-121391251D02*
X187332154Y-121296013D01*
X187903583Y-121724584D02*
X187951202Y-121629346D01*
X187951202Y-121629346D02*
X187951202Y-121391251D01*
X187951202Y-121391251D02*
X187903583Y-121296013D01*
X187903583Y-121296013D02*
X187808344Y-121248394D01*
X187808344Y-121248394D02*
X187713106Y-121248394D01*
X187713106Y-121248394D02*
X187617868Y-121296013D01*
X187617868Y-121296013D02*
X187570249Y-121391251D01*
X187570249Y-121391251D02*
X187570249Y-121629346D01*
X187570249Y-121629346D02*
X187522630Y-121724584D01*
X187284535Y-122200775D02*
X188284535Y-122200775D01*
X187332154Y-122200775D02*
X187284535Y-122296013D01*
X187284535Y-122296013D02*
X187284535Y-122486489D01*
X187284535Y-122486489D02*
X187332154Y-122581727D01*
X187332154Y-122581727D02*
X187379773Y-122629346D01*
X187379773Y-122629346D02*
X187475011Y-122676965D01*
X187475011Y-122676965D02*
X187760725Y-122676965D01*
X187760725Y-122676965D02*
X187855963Y-122629346D01*
X187855963Y-122629346D02*
X187903583Y-122581727D01*
X187903583Y-122581727D02*
X187951202Y-122486489D01*
X187951202Y-122486489D02*
X187951202Y-122296013D01*
X187951202Y-122296013D02*
X187903583Y-122200775D01*
X187284535Y-122962680D02*
X187284535Y-123343632D01*
X186951202Y-123105537D02*
X187808344Y-123105537D01*
X187808344Y-123105537D02*
X187903583Y-123153156D01*
X187903583Y-123153156D02*
X187951202Y-123248394D01*
X187951202Y-123248394D02*
X187951202Y-123343632D01*
X187903583Y-124057918D02*
X187951202Y-123962680D01*
X187951202Y-123962680D02*
X187951202Y-123772204D01*
X187951202Y-123772204D02*
X187903583Y-123676966D01*
X187903583Y-123676966D02*
X187808344Y-123629347D01*
X187808344Y-123629347D02*
X187427392Y-123629347D01*
X187427392Y-123629347D02*
X187332154Y-123676966D01*
X187332154Y-123676966D02*
X187284535Y-123772204D01*
X187284535Y-123772204D02*
X187284535Y-123962680D01*
X187284535Y-123962680D02*
X187332154Y-124057918D01*
X187332154Y-124057918D02*
X187427392Y-124105537D01*
X187427392Y-124105537D02*
X187522630Y-124105537D01*
X187522630Y-124105537D02*
X187617868Y-123629347D01*
X187951202Y-124534109D02*
X187284535Y-124534109D01*
X187475011Y-124534109D02*
X187379773Y-124581728D01*
X187379773Y-124581728D02*
X187332154Y-124629347D01*
X187332154Y-124629347D02*
X187284535Y-124724585D01*
X187284535Y-124724585D02*
X187284535Y-124819823D01*
X185160296Y-86959845D02*
X183471196Y-86959845D01*
X184114663Y-86959845D02*
X184034229Y-87120712D01*
X184034229Y-87120712D02*
X184034229Y-87442445D01*
X184034229Y-87442445D02*
X184114663Y-87603312D01*
X184114663Y-87603312D02*
X184195096Y-87683745D01*
X184195096Y-87683745D02*
X184355963Y-87764179D01*
X184355963Y-87764179D02*
X184838563Y-87764179D01*
X184838563Y-87764179D02*
X184999429Y-87683745D01*
X184999429Y-87683745D02*
X185079863Y-87603312D01*
X185079863Y-87603312D02*
X185160296Y-87442445D01*
X185160296Y-87442445D02*
X185160296Y-87120712D01*
X185160296Y-87120712D02*
X185079863Y-86959845D01*
X184034229Y-88327212D02*
X185160296Y-88729378D01*
X184034229Y-89131545D02*
X185160296Y-88729378D01*
X185160296Y-88729378D02*
X185562463Y-88568512D01*
X185562463Y-88568512D02*
X185642896Y-88488078D01*
X185642896Y-88488078D02*
X185723329Y-88327212D01*
X184275529Y-91061944D02*
X184275529Y-91624978D01*
X185160296Y-91866278D02*
X185160296Y-91061944D01*
X185160296Y-91061944D02*
X183471196Y-91061944D01*
X183471196Y-91061944D02*
X183471196Y-91866278D01*
X185160296Y-92831477D02*
X185079863Y-92670611D01*
X185079863Y-92670611D02*
X184918996Y-92590177D01*
X184918996Y-92590177D02*
X183471196Y-92590177D01*
X185160296Y-94198844D02*
X184275529Y-94198844D01*
X184275529Y-94198844D02*
X184114663Y-94118411D01*
X184114663Y-94118411D02*
X184034229Y-93957544D01*
X184034229Y-93957544D02*
X184034229Y-93635811D01*
X184034229Y-93635811D02*
X184114663Y-93474944D01*
X185079863Y-94198844D02*
X185160296Y-94037978D01*
X185160296Y-94037978D02*
X185160296Y-93635811D01*
X185160296Y-93635811D02*
X185079863Y-93474944D01*
X185079863Y-93474944D02*
X184918996Y-93394511D01*
X184918996Y-93394511D02*
X184758129Y-93394511D01*
X184758129Y-93394511D02*
X184597263Y-93474944D01*
X184597263Y-93474944D02*
X184516829Y-93635811D01*
X184516829Y-93635811D02*
X184516829Y-94037978D01*
X184516829Y-94037978D02*
X184436396Y-94198844D01*
X185160296Y-95727077D02*
X183471196Y-95727077D01*
X185079863Y-95727077D02*
X185160296Y-95566211D01*
X185160296Y-95566211D02*
X185160296Y-95244477D01*
X185160296Y-95244477D02*
X185079863Y-95083611D01*
X185079863Y-95083611D02*
X184999429Y-95003177D01*
X184999429Y-95003177D02*
X184838563Y-94922744D01*
X184838563Y-94922744D02*
X184355963Y-94922744D01*
X184355963Y-94922744D02*
X184195096Y-95003177D01*
X184195096Y-95003177D02*
X184114663Y-95083611D01*
X184114663Y-95083611D02*
X184034229Y-95244477D01*
X184034229Y-95244477D02*
X184034229Y-95566211D01*
X184034229Y-95566211D02*
X184114663Y-95727077D01*
X185160296Y-96531410D02*
X184034229Y-96531410D01*
X183471196Y-96531410D02*
X183551629Y-96450977D01*
X183551629Y-96450977D02*
X183632063Y-96531410D01*
X183632063Y-96531410D02*
X183551629Y-96611844D01*
X183551629Y-96611844D02*
X183471196Y-96531410D01*
X183471196Y-96531410D02*
X183632063Y-96531410D01*
X185160296Y-97577043D02*
X185079863Y-97416177D01*
X185079863Y-97416177D02*
X184999429Y-97335743D01*
X184999429Y-97335743D02*
X184838563Y-97255310D01*
X184838563Y-97255310D02*
X184355963Y-97255310D01*
X184355963Y-97255310D02*
X184195096Y-97335743D01*
X184195096Y-97335743D02*
X184114663Y-97416177D01*
X184114663Y-97416177D02*
X184034229Y-97577043D01*
X184034229Y-97577043D02*
X184034229Y-97818343D01*
X184034229Y-97818343D02*
X184114663Y-97979210D01*
X184114663Y-97979210D02*
X184195096Y-98059643D01*
X184195096Y-98059643D02*
X184355963Y-98140077D01*
X184355963Y-98140077D02*
X184838563Y-98140077D01*
X184838563Y-98140077D02*
X184999429Y-98059643D01*
X184999429Y-98059643D02*
X185079863Y-97979210D01*
X185079863Y-97979210D02*
X185160296Y-97818343D01*
X185160296Y-97818343D02*
X185160296Y-97577043D01*
X185160296Y-100150909D02*
X183471196Y-100150909D01*
X183471196Y-100150909D02*
X184677696Y-100713943D01*
X184677696Y-100713943D02*
X183471196Y-101276976D01*
X183471196Y-101276976D02*
X185160296Y-101276976D01*
X185160296Y-102805209D02*
X184275529Y-102805209D01*
X184275529Y-102805209D02*
X184114663Y-102724776D01*
X184114663Y-102724776D02*
X184034229Y-102563909D01*
X184034229Y-102563909D02*
X184034229Y-102242176D01*
X184034229Y-102242176D02*
X184114663Y-102081309D01*
X185079863Y-102805209D02*
X185160296Y-102644343D01*
X185160296Y-102644343D02*
X185160296Y-102242176D01*
X185160296Y-102242176D02*
X185079863Y-102081309D01*
X185079863Y-102081309D02*
X184918996Y-102000876D01*
X184918996Y-102000876D02*
X184758129Y-102000876D01*
X184758129Y-102000876D02*
X184597263Y-102081309D01*
X184597263Y-102081309D02*
X184516829Y-102242176D01*
X184516829Y-102242176D02*
X184516829Y-102644343D01*
X184516829Y-102644343D02*
X184436396Y-102805209D01*
X185160296Y-103609542D02*
X184034229Y-103609542D01*
X184355963Y-103609542D02*
X184195096Y-103689976D01*
X184195096Y-103689976D02*
X184114663Y-103770409D01*
X184114663Y-103770409D02*
X184034229Y-103931276D01*
X184034229Y-103931276D02*
X184034229Y-104092142D01*
X184034229Y-104413875D02*
X184034229Y-105057342D01*
X183471196Y-104655175D02*
X184918996Y-104655175D01*
X184918996Y-104655175D02*
X185079863Y-104735609D01*
X185079863Y-104735609D02*
X185160296Y-104896475D01*
X185160296Y-104896475D02*
X185160296Y-105057342D01*
X185160296Y-105620375D02*
X184034229Y-105620375D01*
X183471196Y-105620375D02*
X183551629Y-105539942D01*
X183551629Y-105539942D02*
X183632063Y-105620375D01*
X183632063Y-105620375D02*
X183551629Y-105700809D01*
X183551629Y-105700809D02*
X183471196Y-105620375D01*
X183471196Y-105620375D02*
X183632063Y-105620375D01*
X184034229Y-106424708D02*
X185160296Y-106424708D01*
X184195096Y-106424708D02*
X184114663Y-106505142D01*
X184114663Y-106505142D02*
X184034229Y-106666008D01*
X184034229Y-106666008D02*
X184034229Y-106907308D01*
X184034229Y-106907308D02*
X184114663Y-107068175D01*
X184114663Y-107068175D02*
X184275529Y-107148608D01*
X184275529Y-107148608D02*
X185160296Y-107148608D01*
X185079863Y-108596408D02*
X185160296Y-108435541D01*
X185160296Y-108435541D02*
X185160296Y-108113808D01*
X185160296Y-108113808D02*
X185079863Y-107952941D01*
X185079863Y-107952941D02*
X184918996Y-107872508D01*
X184918996Y-107872508D02*
X184275529Y-107872508D01*
X184275529Y-107872508D02*
X184114663Y-107952941D01*
X184114663Y-107952941D02*
X184034229Y-108113808D01*
X184034229Y-108113808D02*
X184034229Y-108435541D01*
X184034229Y-108435541D02*
X184114663Y-108596408D01*
X184114663Y-108596408D02*
X184275529Y-108676841D01*
X184275529Y-108676841D02*
X184436396Y-108676841D01*
X184436396Y-108676841D02*
X184597263Y-107872508D01*
X184034229Y-109239875D02*
X184034229Y-110124641D01*
X184034229Y-110124641D02*
X185160296Y-109239875D01*
X185160296Y-109239875D02*
X185160296Y-110124641D01*
%TO.C,G001*%
D13*
X146029226Y-119108571D02*
X146050354Y-119147418D01*
X146187460Y-119245266D01*
X146409804Y-119348072D01*
X146421648Y-119352907D01*
X146530953Y-119397530D01*
X146612209Y-119437573D01*
X146737023Y-119499082D01*
X146817829Y-119559061D01*
X146841437Y-119576585D01*
X146834735Y-119606907D01*
X146826646Y-119643512D01*
X146720363Y-119790277D01*
X146554787Y-119968525D01*
X146485744Y-120032192D01*
X146396045Y-120114907D01*
X146371398Y-120137635D01*
X146211677Y-120256982D01*
X146117105Y-120285944D01*
X146083398Y-120304141D01*
X146072092Y-120433475D01*
X146101644Y-120522664D01*
X146102837Y-120523979D01*
X146267745Y-120705771D01*
X146586820Y-120931586D01*
X146594801Y-120936586D01*
X146855594Y-121092973D01*
X147062973Y-121204866D01*
X147172680Y-121248335D01*
X147192516Y-121240448D01*
X147301677Y-121134671D01*
X147466606Y-120931246D01*
X147660000Y-120662970D01*
X148062653Y-120075252D01*
X147765833Y-119946913D01*
X147765084Y-119946589D01*
X147468663Y-119818420D01*
X147172680Y-119690437D01*
X147120611Y-119666622D01*
X146946585Y-119562988D01*
X146876346Y-119478770D01*
X146877918Y-119433058D01*
X146901788Y-119407151D01*
X146980467Y-119426385D01*
X147146603Y-119500074D01*
X147432842Y-119637531D01*
X147497229Y-119668477D01*
X147878906Y-119842953D01*
X148132049Y-119937965D01*
X148272395Y-119958349D01*
X148315680Y-119908945D01*
X148319049Y-119883749D01*
X148400346Y-119818573D01*
X148415738Y-119823877D01*
X148465107Y-119932355D01*
X148485013Y-120136720D01*
X148483125Y-120190799D01*
X148461195Y-120302026D01*
X148446803Y-120375024D01*
X148352530Y-120597943D01*
X148184986Y-120891225D01*
X147928855Y-121286543D01*
X147784064Y-121498602D01*
X147537562Y-121831043D01*
X147360427Y-122024676D01*
X147257378Y-122073968D01*
X147223143Y-122056288D01*
X147058803Y-121958486D01*
X146785195Y-121788997D01*
X146424196Y-121561560D01*
X145997685Y-121289910D01*
X145527537Y-120987785D01*
X145134089Y-120733286D01*
X144706747Y-120453405D01*
X144392663Y-120240298D01*
X144174661Y-120080118D01*
X144035567Y-119959016D01*
X143958206Y-119863147D01*
X143925401Y-119778662D01*
X143924543Y-119764911D01*
X144082346Y-119764911D01*
X144090934Y-119783322D01*
X144204236Y-119891127D01*
X144432726Y-120068719D01*
X144755565Y-120300954D01*
X145151920Y-120572685D01*
X145600955Y-120868767D01*
X145755979Y-120968943D01*
X146199196Y-121253401D01*
X146590854Y-121501962D01*
X146908384Y-121700474D01*
X147129218Y-121834785D01*
X147230788Y-121890743D01*
X147281664Y-121873828D01*
X147414260Y-121748042D01*
X147591267Y-121531683D01*
X147789062Y-121259342D01*
X147984024Y-120965613D01*
X148152529Y-120685089D01*
X148270955Y-120452362D01*
X148315680Y-120302026D01*
X148300106Y-120272112D01*
X148208547Y-120338089D01*
X148038436Y-120543388D01*
X147793762Y-120883564D01*
X147618885Y-121136205D01*
X147431428Y-121405847D01*
X147297674Y-121596836D01*
X147238825Y-121678788D01*
X147222085Y-121687356D01*
X147146910Y-121631580D01*
X147124722Y-121609796D01*
X146981996Y-121503258D01*
X146733892Y-121333605D01*
X146407443Y-121119071D01*
X146029680Y-120877894D01*
X145925508Y-120812264D01*
X145504580Y-120546762D01*
X145103781Y-120293516D01*
X144764180Y-120078496D01*
X144654979Y-120009097D01*
X145028708Y-120009097D01*
X145098346Y-120091700D01*
X145247518Y-120213754D01*
X145446474Y-120346270D01*
X145645580Y-120459610D01*
X145798699Y-120527578D01*
X145859694Y-120523979D01*
X145837946Y-120487342D01*
X145707971Y-120377568D01*
X145499861Y-120241907D01*
X145279165Y-120114907D01*
X146114346Y-120114907D01*
X146156680Y-120157240D01*
X146199013Y-120114907D01*
X146156680Y-120072573D01*
X146114346Y-120114907D01*
X145279165Y-120114907D01*
X145257360Y-120102359D01*
X145079187Y-120011706D01*
X145028708Y-120009097D01*
X144654979Y-120009097D01*
X144526846Y-119927667D01*
X144414597Y-119860907D01*
X144929013Y-119860907D01*
X144971346Y-119903240D01*
X145013680Y-119860907D01*
X144971346Y-119818573D01*
X144929013Y-119860907D01*
X144414597Y-119860907D01*
X144299856Y-119792665D01*
X145498415Y-119792665D01*
X145541530Y-119844013D01*
X145559045Y-119860907D01*
X145625320Y-119924836D01*
X145654484Y-119996278D01*
X145685468Y-120022065D01*
X145830630Y-120042792D01*
X145956659Y-120047838D01*
X145999706Y-120032192D01*
X145915512Y-119977570D01*
X145691013Y-119867575D01*
X145598529Y-119825042D01*
X145498415Y-119792665D01*
X144299856Y-119792665D01*
X144296838Y-119790870D01*
X144134302Y-119726429D01*
X144082346Y-119764911D01*
X143924543Y-119764911D01*
X143920282Y-119696570D01*
X145098346Y-119696570D01*
X145099171Y-119708406D01*
X145148181Y-119727052D01*
X145233431Y-119636158D01*
X145246167Y-119606907D01*
X146453013Y-119606907D01*
X146495346Y-119649240D01*
X146537680Y-119606907D01*
X146495346Y-119564573D01*
X146471077Y-119588842D01*
X146453013Y-119606907D01*
X145246167Y-119606907D01*
X145254032Y-119588842D01*
X145196095Y-119598822D01*
X145158483Y-119624957D01*
X145098346Y-119696570D01*
X143920282Y-119696570D01*
X143919979Y-119691714D01*
X143934654Y-119582922D01*
X144009873Y-119428616D01*
X144035070Y-119400752D01*
X144187772Y-119400752D01*
X144209346Y-119479907D01*
X144226741Y-119504970D01*
X144304007Y-119564573D01*
X144315588Y-119559061D01*
X144306914Y-119527237D01*
X144844346Y-119527237D01*
X144845171Y-119539073D01*
X144894181Y-119557718D01*
X144979431Y-119466825D01*
X145000032Y-119419509D01*
X144942095Y-119429488D01*
X144904483Y-119455624D01*
X144844346Y-119527237D01*
X144306914Y-119527237D01*
X144294013Y-119479907D01*
X144276618Y-119454843D01*
X144199353Y-119395240D01*
X144187772Y-119400752D01*
X144035070Y-119400752D01*
X144154897Y-119268240D01*
X144505680Y-119268240D01*
X144548013Y-119310573D01*
X144590346Y-119268240D01*
X144548013Y-119225907D01*
X144505680Y-119268240D01*
X144154897Y-119268240D01*
X144172711Y-119248540D01*
X144382584Y-119066639D01*
X144692420Y-119066639D01*
X144783806Y-119168621D01*
X144957411Y-119268240D01*
X145016287Y-119302025D01*
X145119143Y-119355063D01*
X145249037Y-119419509D01*
X145297273Y-119443441D01*
X145376120Y-119477090D01*
X145384590Y-119474751D01*
X145438895Y-119437573D01*
X146029680Y-119437573D01*
X146072013Y-119479907D01*
X146114346Y-119437573D01*
X146072013Y-119395240D01*
X146029680Y-119437573D01*
X145438895Y-119437573D01*
X145483804Y-119406828D01*
X145543210Y-119352907D01*
X145860346Y-119352907D01*
X145902680Y-119395240D01*
X145945013Y-119352907D01*
X145902680Y-119310573D01*
X145860346Y-119352907D01*
X145543210Y-119352907D01*
X145616575Y-119286316D01*
X145728055Y-119166518D01*
X145763396Y-119100733D01*
X145730265Y-119079293D01*
X145577173Y-119001115D01*
X145350670Y-118895918D01*
X145226238Y-118841479D01*
X145044210Y-118779138D01*
X144929433Y-118787437D01*
X144824615Y-118862763D01*
X144727162Y-118961782D01*
X144692420Y-119066639D01*
X144382584Y-119066639D01*
X144449705Y-119008464D01*
X144972467Y-118579355D01*
X145500620Y-118796797D01*
X145766288Y-118919031D01*
X145956496Y-119031169D01*
X146021862Y-119100733D01*
X146029226Y-119108571D01*
G36*
X146029226Y-119108571D02*
G01*
X146050354Y-119147418D01*
X146187460Y-119245266D01*
X146409804Y-119348072D01*
X146421648Y-119352907D01*
X146530953Y-119397530D01*
X146612209Y-119437573D01*
X146737023Y-119499082D01*
X146817829Y-119559061D01*
X146841437Y-119576585D01*
X146834735Y-119606907D01*
X146826646Y-119643512D01*
X146720363Y-119790277D01*
X146554787Y-119968525D01*
X146485744Y-120032192D01*
X146396045Y-120114907D01*
X146371398Y-120137635D01*
X146211677Y-120256982D01*
X146117105Y-120285944D01*
X146083398Y-120304141D01*
X146072092Y-120433475D01*
X146101644Y-120522664D01*
X146102837Y-120523979D01*
X146267745Y-120705771D01*
X146586820Y-120931586D01*
X146594801Y-120936586D01*
X146855594Y-121092973D01*
X147062973Y-121204866D01*
X147172680Y-121248335D01*
X147192516Y-121240448D01*
X147301677Y-121134671D01*
X147466606Y-120931246D01*
X147660000Y-120662970D01*
X148062653Y-120075252D01*
X147765833Y-119946913D01*
X147765084Y-119946589D01*
X147468663Y-119818420D01*
X147172680Y-119690437D01*
X147120611Y-119666622D01*
X146946585Y-119562988D01*
X146876346Y-119478770D01*
X146877918Y-119433058D01*
X146901788Y-119407151D01*
X146980467Y-119426385D01*
X147146603Y-119500074D01*
X147432842Y-119637531D01*
X147497229Y-119668477D01*
X147878906Y-119842953D01*
X148132049Y-119937965D01*
X148272395Y-119958349D01*
X148315680Y-119908945D01*
X148319049Y-119883749D01*
X148400346Y-119818573D01*
X148415738Y-119823877D01*
X148465107Y-119932355D01*
X148485013Y-120136720D01*
X148483125Y-120190799D01*
X148461195Y-120302026D01*
X148446803Y-120375024D01*
X148352530Y-120597943D01*
X148184986Y-120891225D01*
X147928855Y-121286543D01*
X147784064Y-121498602D01*
X147537562Y-121831043D01*
X147360427Y-122024676D01*
X147257378Y-122073968D01*
X147223143Y-122056288D01*
X147058803Y-121958486D01*
X146785195Y-121788997D01*
X146424196Y-121561560D01*
X145997685Y-121289910D01*
X145527537Y-120987785D01*
X145134089Y-120733286D01*
X144706747Y-120453405D01*
X144392663Y-120240298D01*
X144174661Y-120080118D01*
X144035567Y-119959016D01*
X143958206Y-119863147D01*
X143925401Y-119778662D01*
X143924543Y-119764911D01*
X144082346Y-119764911D01*
X144090934Y-119783322D01*
X144204236Y-119891127D01*
X144432726Y-120068719D01*
X144755565Y-120300954D01*
X145151920Y-120572685D01*
X145600955Y-120868767D01*
X145755979Y-120968943D01*
X146199196Y-121253401D01*
X146590854Y-121501962D01*
X146908384Y-121700474D01*
X147129218Y-121834785D01*
X147230788Y-121890743D01*
X147281664Y-121873828D01*
X147414260Y-121748042D01*
X147591267Y-121531683D01*
X147789062Y-121259342D01*
X147984024Y-120965613D01*
X148152529Y-120685089D01*
X148270955Y-120452362D01*
X148315680Y-120302026D01*
X148300106Y-120272112D01*
X148208547Y-120338089D01*
X148038436Y-120543388D01*
X147793762Y-120883564D01*
X147618885Y-121136205D01*
X147431428Y-121405847D01*
X147297674Y-121596836D01*
X147238825Y-121678788D01*
X147222085Y-121687356D01*
X147146910Y-121631580D01*
X147124722Y-121609796D01*
X146981996Y-121503258D01*
X146733892Y-121333605D01*
X146407443Y-121119071D01*
X146029680Y-120877894D01*
X145925508Y-120812264D01*
X145504580Y-120546762D01*
X145103781Y-120293516D01*
X144764180Y-120078496D01*
X144654979Y-120009097D01*
X145028708Y-120009097D01*
X145098346Y-120091700D01*
X145247518Y-120213754D01*
X145446474Y-120346270D01*
X145645580Y-120459610D01*
X145798699Y-120527578D01*
X145859694Y-120523979D01*
X145837946Y-120487342D01*
X145707971Y-120377568D01*
X145499861Y-120241907D01*
X145279165Y-120114907D01*
X146114346Y-120114907D01*
X146156680Y-120157240D01*
X146199013Y-120114907D01*
X146156680Y-120072573D01*
X146114346Y-120114907D01*
X145279165Y-120114907D01*
X145257360Y-120102359D01*
X145079187Y-120011706D01*
X145028708Y-120009097D01*
X144654979Y-120009097D01*
X144526846Y-119927667D01*
X144414597Y-119860907D01*
X144929013Y-119860907D01*
X144971346Y-119903240D01*
X145013680Y-119860907D01*
X144971346Y-119818573D01*
X144929013Y-119860907D01*
X144414597Y-119860907D01*
X144299856Y-119792665D01*
X145498415Y-119792665D01*
X145541530Y-119844013D01*
X145559045Y-119860907D01*
X145625320Y-119924836D01*
X145654484Y-119996278D01*
X145685468Y-120022065D01*
X145830630Y-120042792D01*
X145956659Y-120047838D01*
X145999706Y-120032192D01*
X145915512Y-119977570D01*
X145691013Y-119867575D01*
X145598529Y-119825042D01*
X145498415Y-119792665D01*
X144299856Y-119792665D01*
X144296838Y-119790870D01*
X144134302Y-119726429D01*
X144082346Y-119764911D01*
X143924543Y-119764911D01*
X143920282Y-119696570D01*
X145098346Y-119696570D01*
X145099171Y-119708406D01*
X145148181Y-119727052D01*
X145233431Y-119636158D01*
X145246167Y-119606907D01*
X146453013Y-119606907D01*
X146495346Y-119649240D01*
X146537680Y-119606907D01*
X146495346Y-119564573D01*
X146471077Y-119588842D01*
X146453013Y-119606907D01*
X145246167Y-119606907D01*
X145254032Y-119588842D01*
X145196095Y-119598822D01*
X145158483Y-119624957D01*
X145098346Y-119696570D01*
X143920282Y-119696570D01*
X143919979Y-119691714D01*
X143934654Y-119582922D01*
X144009873Y-119428616D01*
X144035070Y-119400752D01*
X144187772Y-119400752D01*
X144209346Y-119479907D01*
X144226741Y-119504970D01*
X144304007Y-119564573D01*
X144315588Y-119559061D01*
X144306914Y-119527237D01*
X144844346Y-119527237D01*
X144845171Y-119539073D01*
X144894181Y-119557718D01*
X144979431Y-119466825D01*
X145000032Y-119419509D01*
X144942095Y-119429488D01*
X144904483Y-119455624D01*
X144844346Y-119527237D01*
X144306914Y-119527237D01*
X144294013Y-119479907D01*
X144276618Y-119454843D01*
X144199353Y-119395240D01*
X144187772Y-119400752D01*
X144035070Y-119400752D01*
X144154897Y-119268240D01*
X144505680Y-119268240D01*
X144548013Y-119310573D01*
X144590346Y-119268240D01*
X144548013Y-119225907D01*
X144505680Y-119268240D01*
X144154897Y-119268240D01*
X144172711Y-119248540D01*
X144382584Y-119066639D01*
X144692420Y-119066639D01*
X144783806Y-119168621D01*
X144957411Y-119268240D01*
X145016287Y-119302025D01*
X145119143Y-119355063D01*
X145249037Y-119419509D01*
X145297273Y-119443441D01*
X145376120Y-119477090D01*
X145384590Y-119474751D01*
X145438895Y-119437573D01*
X146029680Y-119437573D01*
X146072013Y-119479907D01*
X146114346Y-119437573D01*
X146072013Y-119395240D01*
X146029680Y-119437573D01*
X145438895Y-119437573D01*
X145483804Y-119406828D01*
X145543210Y-119352907D01*
X145860346Y-119352907D01*
X145902680Y-119395240D01*
X145945013Y-119352907D01*
X145902680Y-119310573D01*
X145860346Y-119352907D01*
X145543210Y-119352907D01*
X145616575Y-119286316D01*
X145728055Y-119166518D01*
X145763396Y-119100733D01*
X145730265Y-119079293D01*
X145577173Y-119001115D01*
X145350670Y-118895918D01*
X145226238Y-118841479D01*
X145044210Y-118779138D01*
X144929433Y-118787437D01*
X144824615Y-118862763D01*
X144727162Y-118961782D01*
X144692420Y-119066639D01*
X144382584Y-119066639D01*
X144449705Y-119008464D01*
X144972467Y-118579355D01*
X145500620Y-118796797D01*
X145766288Y-118919031D01*
X145956496Y-119031169D01*
X146021862Y-119100733D01*
X146029226Y-119108571D01*
G37*
X141569070Y-119398279D02*
X141694757Y-119427998D01*
X141795764Y-119516025D01*
X141904411Y-119693967D01*
X142053020Y-119993432D01*
X142342406Y-120591624D01*
X142638208Y-119993432D01*
X142754273Y-119762049D01*
X142872948Y-119554410D01*
X142974242Y-119445022D01*
X143090527Y-119402446D01*
X143254178Y-119395240D01*
X143574346Y-119395240D01*
X143574346Y-121681240D01*
X143278013Y-121681240D01*
X143168223Y-121679807D01*
X143038127Y-121650671D01*
X142987438Y-121547005D01*
X142976428Y-121321407D01*
X142971175Y-120961573D01*
X142790414Y-121321407D01*
X142775554Y-121350733D01*
X142648560Y-121561704D01*
X142522079Y-121658195D01*
X142345360Y-121681240D01*
X142236085Y-121674560D01*
X142072941Y-121600239D01*
X141944122Y-121406073D01*
X141807176Y-121130907D01*
X141801761Y-121406073D01*
X141799765Y-121474844D01*
X141772426Y-121615908D01*
X141674903Y-121671507D01*
X141457680Y-121681240D01*
X141119013Y-121681240D01*
X141119013Y-119395240D01*
X141441323Y-119395240D01*
X141569070Y-119398279D01*
G36*
X141569070Y-119398279D02*
G01*
X141694757Y-119427998D01*
X141795764Y-119516025D01*
X141904411Y-119693967D01*
X142053020Y-119993432D01*
X142342406Y-120591624D01*
X142638208Y-119993432D01*
X142754273Y-119762049D01*
X142872948Y-119554410D01*
X142974242Y-119445022D01*
X143090527Y-119402446D01*
X143254178Y-119395240D01*
X143574346Y-119395240D01*
X143574346Y-121681240D01*
X143278013Y-121681240D01*
X143168223Y-121679807D01*
X143038127Y-121650671D01*
X142987438Y-121547005D01*
X142976428Y-121321407D01*
X142971175Y-120961573D01*
X142790414Y-121321407D01*
X142775554Y-121350733D01*
X142648560Y-121561704D01*
X142522079Y-121658195D01*
X142345360Y-121681240D01*
X142236085Y-121674560D01*
X142072941Y-121600239D01*
X141944122Y-121406073D01*
X141807176Y-121130907D01*
X141801761Y-121406073D01*
X141799765Y-121474844D01*
X141772426Y-121615908D01*
X141674903Y-121671507D01*
X141457680Y-121681240D01*
X141119013Y-121681240D01*
X141119013Y-119395240D01*
X141441323Y-119395240D01*
X141569070Y-119398279D01*
G37*
X140986828Y-120179577D02*
X140992013Y-120538240D01*
X140991533Y-120678269D01*
X140981594Y-120989408D01*
X140950963Y-121193190D01*
X140889422Y-121335632D01*
X140786755Y-121462752D01*
X140778812Y-121471163D01*
X140653011Y-121583333D01*
X140509785Y-121646730D01*
X140298564Y-121674864D01*
X139968781Y-121681240D01*
X139835804Y-121680836D01*
X139561151Y-121670570D01*
X139386893Y-121634377D01*
X139262357Y-121556391D01*
X139136873Y-121420744D01*
X139025601Y-121270127D01*
X138956590Y-121104038D01*
X138925144Y-120878304D01*
X138917680Y-120538240D01*
X138924156Y-120214786D01*
X138942392Y-120072573D01*
X139586563Y-120072573D01*
X139611955Y-120559407D01*
X139637346Y-121046240D01*
X139936706Y-121071436D01*
X139969989Y-121073841D01*
X140178877Y-121070091D01*
X140296539Y-121036158D01*
X140319453Y-120979388D01*
X140346478Y-120788558D01*
X140357013Y-120524129D01*
X140357013Y-120072573D01*
X139586563Y-120072573D01*
X138942392Y-120072573D01*
X138953783Y-119983742D01*
X139020162Y-119815620D01*
X139136873Y-119655736D01*
X139185273Y-119599345D01*
X139304583Y-119486249D01*
X139441157Y-119425111D01*
X139645666Y-119400063D01*
X139968781Y-119395240D01*
X139992381Y-119395255D01*
X140313786Y-119402537D01*
X140519604Y-119432372D01*
X140660403Y-119498266D01*
X140786755Y-119613728D01*
X140827316Y-119658556D01*
X140914696Y-119785752D01*
X140964461Y-119944087D01*
X140976665Y-120072573D01*
X140986828Y-120179577D01*
G36*
X140986828Y-120179577D02*
G01*
X140992013Y-120538240D01*
X140991533Y-120678269D01*
X140981594Y-120989408D01*
X140950963Y-121193190D01*
X140889422Y-121335632D01*
X140786755Y-121462752D01*
X140778812Y-121471163D01*
X140653011Y-121583333D01*
X140509785Y-121646730D01*
X140298564Y-121674864D01*
X139968781Y-121681240D01*
X139835804Y-121680836D01*
X139561151Y-121670570D01*
X139386893Y-121634377D01*
X139262357Y-121556391D01*
X139136873Y-121420744D01*
X139025601Y-121270127D01*
X138956590Y-121104038D01*
X138925144Y-120878304D01*
X138917680Y-120538240D01*
X138924156Y-120214786D01*
X138942392Y-120072573D01*
X139586563Y-120072573D01*
X139611955Y-120559407D01*
X139637346Y-121046240D01*
X139936706Y-121071436D01*
X139969989Y-121073841D01*
X140178877Y-121070091D01*
X140296539Y-121036158D01*
X140319453Y-120979388D01*
X140346478Y-120788558D01*
X140357013Y-120524129D01*
X140357013Y-120072573D01*
X139586563Y-120072573D01*
X138942392Y-120072573D01*
X138953783Y-119983742D01*
X139020162Y-119815620D01*
X139136873Y-119655736D01*
X139185273Y-119599345D01*
X139304583Y-119486249D01*
X139441157Y-119425111D01*
X139645666Y-119400063D01*
X139968781Y-119395240D01*
X139992381Y-119395255D01*
X140313786Y-119402537D01*
X140519604Y-119432372D01*
X140660403Y-119498266D01*
X140786755Y-119613728D01*
X140827316Y-119658556D01*
X140914696Y-119785752D01*
X140964461Y-119944087D01*
X140976665Y-120072573D01*
X140986828Y-120179577D01*
G37*
X138833013Y-121681240D02*
X138128105Y-121681240D01*
X138028635Y-121680622D01*
X137610165Y-121652162D01*
X137323715Y-121563282D01*
X137140438Y-121389252D01*
X137031486Y-121105346D01*
X136968011Y-120686835D01*
X136963946Y-120647674D01*
X136939959Y-120451197D01*
X137640736Y-120451197D01*
X137647356Y-120708099D01*
X137694312Y-120924004D01*
X137781605Y-121037181D01*
X137837068Y-121057590D01*
X138004804Y-121092591D01*
X138101221Y-121034502D01*
X138145214Y-120858119D01*
X138155680Y-120538240D01*
X138155170Y-120443174D01*
X138138073Y-120161642D01*
X138082710Y-120017288D01*
X137970186Y-119984907D01*
X137781605Y-120039298D01*
X137748506Y-120061328D01*
X137674453Y-120215030D01*
X137640736Y-120451197D01*
X136939959Y-120451197D01*
X136934566Y-120407027D01*
X136910883Y-120282063D01*
X136897700Y-120299261D01*
X136859490Y-120439688D01*
X136684791Y-120642002D01*
X136405945Y-120782164D01*
X136062873Y-120834573D01*
X135942041Y-120837392D01*
X135758777Y-120869326D01*
X135721205Y-120940407D01*
X135772717Y-120986284D01*
X135978558Y-121040364D01*
X136320928Y-121071275D01*
X136885680Y-121096310D01*
X136885680Y-121681240D01*
X136162165Y-121681240D01*
X135968509Y-121680362D01*
X135673585Y-121669380D01*
X135481933Y-121637834D01*
X135349150Y-121575818D01*
X135230831Y-121473422D01*
X135215585Y-121457690D01*
X135056480Y-121184347D01*
X135022635Y-120875795D01*
X135102235Y-120578411D01*
X135283469Y-120338570D01*
X135554523Y-120202648D01*
X135741865Y-120167520D01*
X135996680Y-120129642D01*
X136025128Y-120125292D01*
X136030370Y-120109098D01*
X135893734Y-120094865D01*
X135636846Y-120085259D01*
X135023013Y-120072573D01*
X135023013Y-119395240D01*
X135770255Y-119395240D01*
X135966460Y-119396116D01*
X136268059Y-119406653D01*
X136462011Y-119436053D01*
X136589856Y-119492890D01*
X136693136Y-119585740D01*
X136822122Y-119759803D01*
X136906458Y-119945573D01*
X136926470Y-120030876D01*
X136957050Y-120066784D01*
X137012193Y-119945573D01*
X137101479Y-119783904D01*
X137251721Y-119585740D01*
X137283527Y-119551958D01*
X137391778Y-119469338D01*
X137539884Y-119421925D01*
X137770957Y-119400349D01*
X138128105Y-119395240D01*
X138833013Y-119395240D01*
X138833013Y-120538240D01*
X138833013Y-121681240D01*
G36*
X138833013Y-121681240D02*
G01*
X138128105Y-121681240D01*
X138028635Y-121680622D01*
X137610165Y-121652162D01*
X137323715Y-121563282D01*
X137140438Y-121389252D01*
X137031486Y-121105346D01*
X136968011Y-120686835D01*
X136963946Y-120647674D01*
X136939959Y-120451197D01*
X137640736Y-120451197D01*
X137647356Y-120708099D01*
X137694312Y-120924004D01*
X137781605Y-121037181D01*
X137837068Y-121057590D01*
X138004804Y-121092591D01*
X138101221Y-121034502D01*
X138145214Y-120858119D01*
X138155680Y-120538240D01*
X138155170Y-120443174D01*
X138138073Y-120161642D01*
X138082710Y-120017288D01*
X137970186Y-119984907D01*
X137781605Y-120039298D01*
X137748506Y-120061328D01*
X137674453Y-120215030D01*
X137640736Y-120451197D01*
X136939959Y-120451197D01*
X136934566Y-120407027D01*
X136910883Y-120282063D01*
X136897700Y-120299261D01*
X136859490Y-120439688D01*
X136684791Y-120642002D01*
X136405945Y-120782164D01*
X136062873Y-120834573D01*
X135942041Y-120837392D01*
X135758777Y-120869326D01*
X135721205Y-120940407D01*
X135772717Y-120986284D01*
X135978558Y-121040364D01*
X136320928Y-121071275D01*
X136885680Y-121096310D01*
X136885680Y-121681240D01*
X136162165Y-121681240D01*
X135968509Y-121680362D01*
X135673585Y-121669380D01*
X135481933Y-121637834D01*
X135349150Y-121575818D01*
X135230831Y-121473422D01*
X135215585Y-121457690D01*
X135056480Y-121184347D01*
X135022635Y-120875795D01*
X135102235Y-120578411D01*
X135283469Y-120338570D01*
X135554523Y-120202648D01*
X135741865Y-120167520D01*
X135996680Y-120129642D01*
X136025128Y-120125292D01*
X136030370Y-120109098D01*
X135893734Y-120094865D01*
X135636846Y-120085259D01*
X135023013Y-120072573D01*
X135023013Y-119395240D01*
X135770255Y-119395240D01*
X135966460Y-119396116D01*
X136268059Y-119406653D01*
X136462011Y-119436053D01*
X136589856Y-119492890D01*
X136693136Y-119585740D01*
X136822122Y-119759803D01*
X136906458Y-119945573D01*
X136926470Y-120030876D01*
X136957050Y-120066784D01*
X137012193Y-119945573D01*
X137101479Y-119783904D01*
X137251721Y-119585740D01*
X137283527Y-119551958D01*
X137391778Y-119469338D01*
X137539884Y-119421925D01*
X137770957Y-119400349D01*
X138128105Y-119395240D01*
X138833013Y-119395240D01*
X138833013Y-120538240D01*
X138833013Y-121681240D01*
G37*
X147602475Y-120552451D02*
X147465718Y-120738710D01*
X147398917Y-120813642D01*
X147283569Y-120884972D01*
X147173204Y-120835008D01*
X147062161Y-120778236D01*
X146995290Y-120867371D01*
X146960824Y-120936614D01*
X146886127Y-121003907D01*
X146850353Y-120992630D01*
X146707837Y-120916194D01*
X146526042Y-120801466D01*
X146370798Y-120688711D01*
X146368944Y-120658664D01*
X146455465Y-120575970D01*
X146465048Y-120569753D01*
X146537374Y-120493972D01*
X146456380Y-120416409D01*
X146407074Y-120378795D01*
X146390361Y-120296320D01*
X146477700Y-120180249D01*
X146648237Y-120180249D01*
X146731891Y-120242846D01*
X146814683Y-120322471D01*
X146832019Y-120502190D01*
X146808529Y-120633247D01*
X146852705Y-120649834D01*
X146948612Y-120521073D01*
X146950072Y-120518475D01*
X147039074Y-120425215D01*
X147156948Y-120482851D01*
X147242109Y-120535331D01*
X147339472Y-120500018D01*
X147348695Y-120454098D01*
X147262343Y-120411240D01*
X147186329Y-120400401D01*
X147136773Y-120318520D01*
X147231946Y-120174173D01*
X147283012Y-120095499D01*
X147189613Y-120072573D01*
X147115305Y-120085044D01*
X147045680Y-120158853D01*
X146984268Y-120205773D01*
X146812846Y-120195842D01*
X146704148Y-120174851D01*
X146648237Y-120180249D01*
X146477700Y-120180249D01*
X146493371Y-120159423D01*
X146635967Y-120050972D01*
X146775902Y-120028715D01*
X146854364Y-120038723D01*
X147016585Y-119976919D01*
X147031730Y-119965730D01*
X147189678Y-119930992D01*
X147365967Y-119976524D01*
X147498041Y-120074934D01*
X147523347Y-120198830D01*
X147510883Y-120260959D01*
X147557378Y-120371192D01*
X147624788Y-120440527D01*
X147622082Y-120454098D01*
X147602475Y-120552451D01*
G36*
X147602475Y-120552451D02*
G01*
X147465718Y-120738710D01*
X147398917Y-120813642D01*
X147283569Y-120884972D01*
X147173204Y-120835008D01*
X147062161Y-120778236D01*
X146995290Y-120867371D01*
X146960824Y-120936614D01*
X146886127Y-121003907D01*
X146850353Y-120992630D01*
X146707837Y-120916194D01*
X146526042Y-120801466D01*
X146370798Y-120688711D01*
X146368944Y-120658664D01*
X146455465Y-120575970D01*
X146465048Y-120569753D01*
X146537374Y-120493972D01*
X146456380Y-120416409D01*
X146407074Y-120378795D01*
X146390361Y-120296320D01*
X146477700Y-120180249D01*
X146648237Y-120180249D01*
X146731891Y-120242846D01*
X146814683Y-120322471D01*
X146832019Y-120502190D01*
X146808529Y-120633247D01*
X146852705Y-120649834D01*
X146948612Y-120521073D01*
X146950072Y-120518475D01*
X147039074Y-120425215D01*
X147156948Y-120482851D01*
X147242109Y-120535331D01*
X147339472Y-120500018D01*
X147348695Y-120454098D01*
X147262343Y-120411240D01*
X147186329Y-120400401D01*
X147136773Y-120318520D01*
X147231946Y-120174173D01*
X147283012Y-120095499D01*
X147189613Y-120072573D01*
X147115305Y-120085044D01*
X147045680Y-120158853D01*
X146984268Y-120205773D01*
X146812846Y-120195842D01*
X146704148Y-120174851D01*
X146648237Y-120180249D01*
X146477700Y-120180249D01*
X146493371Y-120159423D01*
X146635967Y-120050972D01*
X146775902Y-120028715D01*
X146854364Y-120038723D01*
X147016585Y-119976919D01*
X147031730Y-119965730D01*
X147189678Y-119930992D01*
X147365967Y-119976524D01*
X147498041Y-120074934D01*
X147523347Y-120198830D01*
X147510883Y-120260959D01*
X147557378Y-120371192D01*
X147624788Y-120440527D01*
X147622082Y-120454098D01*
X147602475Y-120552451D01*
G37*
X147936267Y-117728957D02*
X148173066Y-117855041D01*
X148431105Y-118050279D01*
X148667952Y-118277034D01*
X148841176Y-118497665D01*
X148908346Y-118674535D01*
X148875477Y-118875130D01*
X148693087Y-119142443D01*
X148351166Y-119353987D01*
X147850013Y-119509528D01*
X147605674Y-119541629D01*
X147445869Y-119511063D01*
X147428076Y-119431509D01*
X147554479Y-119329609D01*
X147827262Y-119232006D01*
X148074149Y-119153309D01*
X148371363Y-119005607D01*
X148577321Y-118837295D01*
X148654346Y-118673803D01*
X148599402Y-118553599D01*
X148451389Y-118370479D01*
X148254796Y-118173127D01*
X148054271Y-118006172D01*
X147894465Y-117914246D01*
X147881690Y-117909952D01*
X147755141Y-117829498D01*
X147725042Y-117742586D01*
X147811884Y-117701907D01*
X147936267Y-117728957D01*
G36*
X147936267Y-117728957D02*
G01*
X148173066Y-117855041D01*
X148431105Y-118050279D01*
X148667952Y-118277034D01*
X148841176Y-118497665D01*
X148908346Y-118674535D01*
X148875477Y-118875130D01*
X148693087Y-119142443D01*
X148351166Y-119353987D01*
X147850013Y-119509528D01*
X147605674Y-119541629D01*
X147445869Y-119511063D01*
X147428076Y-119431509D01*
X147554479Y-119329609D01*
X147827262Y-119232006D01*
X148074149Y-119153309D01*
X148371363Y-119005607D01*
X148577321Y-118837295D01*
X148654346Y-118673803D01*
X148599402Y-118553599D01*
X148451389Y-118370479D01*
X148254796Y-118173127D01*
X148054271Y-118006172D01*
X147894465Y-117914246D01*
X147881690Y-117909952D01*
X147755141Y-117829498D01*
X147725042Y-117742586D01*
X147811884Y-117701907D01*
X147936267Y-117728957D01*
G37*
X145380842Y-115673470D02*
X145504228Y-115704925D01*
X145605725Y-115795461D01*
X145717130Y-115976233D01*
X145870244Y-116278397D01*
X146171138Y-116886887D01*
X146451610Y-116278397D01*
X146571013Y-116023297D01*
X146680724Y-115821176D01*
X146777443Y-115716020D01*
X146892747Y-115676156D01*
X147058214Y-115669907D01*
X147384346Y-115669907D01*
X147384346Y-117955907D01*
X147088013Y-117955907D01*
X146978223Y-117954474D01*
X146848127Y-117925338D01*
X146797438Y-117821671D01*
X146786428Y-117596073D01*
X146781175Y-117236240D01*
X146600414Y-117596073D01*
X146585554Y-117625400D01*
X146458560Y-117836370D01*
X146332079Y-117932861D01*
X146155360Y-117955907D01*
X146046085Y-117949227D01*
X145882941Y-117874905D01*
X145754122Y-117680740D01*
X145617176Y-117405573D01*
X145611761Y-117680740D01*
X145609765Y-117749511D01*
X145582426Y-117890575D01*
X145484903Y-117946173D01*
X145267680Y-117955907D01*
X144929013Y-117955907D01*
X144929013Y-115669907D01*
X145249181Y-115669907D01*
X145380842Y-115673470D01*
G36*
X145380842Y-115673470D02*
G01*
X145504228Y-115704925D01*
X145605725Y-115795461D01*
X145717130Y-115976233D01*
X145870244Y-116278397D01*
X146171138Y-116886887D01*
X146451610Y-116278397D01*
X146571013Y-116023297D01*
X146680724Y-115821176D01*
X146777443Y-115716020D01*
X146892747Y-115676156D01*
X147058214Y-115669907D01*
X147384346Y-115669907D01*
X147384346Y-117955907D01*
X147088013Y-117955907D01*
X146978223Y-117954474D01*
X146848127Y-117925338D01*
X146797438Y-117821671D01*
X146786428Y-117596073D01*
X146781175Y-117236240D01*
X146600414Y-117596073D01*
X146585554Y-117625400D01*
X146458560Y-117836370D01*
X146332079Y-117932861D01*
X146155360Y-117955907D01*
X146046085Y-117949227D01*
X145882941Y-117874905D01*
X145754122Y-117680740D01*
X145617176Y-117405573D01*
X145611761Y-117680740D01*
X145609765Y-117749511D01*
X145582426Y-117890575D01*
X145484903Y-117946173D01*
X145267680Y-117955907D01*
X144929013Y-117955907D01*
X144929013Y-115669907D01*
X145249181Y-115669907D01*
X145380842Y-115673470D01*
G37*
X144759680Y-117955907D02*
X144082346Y-117955907D01*
X144082346Y-115669907D01*
X144759680Y-115669907D01*
X144759680Y-117955907D01*
G36*
X144759680Y-117955907D02*
G01*
X144082346Y-117955907D01*
X144082346Y-115669907D01*
X144759680Y-115669907D01*
X144759680Y-117955907D01*
G37*
X142647547Y-116643573D02*
X142948421Y-116156740D01*
X142986149Y-116095937D01*
X143142528Y-115860441D01*
X143265455Y-115732763D01*
X143397480Y-115680164D01*
X143581154Y-115669907D01*
X143913013Y-115669907D01*
X143913013Y-117955907D01*
X143235680Y-117955907D01*
X143231944Y-117066907D01*
X142972823Y-117511407D01*
X142827028Y-117748960D01*
X142706124Y-117887392D01*
X142573381Y-117944643D01*
X142382025Y-117955907D01*
X142050346Y-117955907D01*
X142050346Y-115669907D01*
X142643013Y-115669907D01*
X142647547Y-116643573D01*
G36*
X142647547Y-116643573D02*
G01*
X142948421Y-116156740D01*
X142986149Y-116095937D01*
X143142528Y-115860441D01*
X143265455Y-115732763D01*
X143397480Y-115680164D01*
X143581154Y-115669907D01*
X143913013Y-115669907D01*
X143913013Y-117955907D01*
X143235680Y-117955907D01*
X143231944Y-117066907D01*
X142972823Y-117511407D01*
X142827028Y-117748960D01*
X142706124Y-117887392D01*
X142573381Y-117944643D01*
X142382025Y-117955907D01*
X142050346Y-117955907D01*
X142050346Y-115669907D01*
X142643013Y-115669907D01*
X142647547Y-116643573D01*
G37*
X141881013Y-117955907D02*
X141203680Y-117955907D01*
X141203680Y-115669907D01*
X141881013Y-115669907D01*
X141881013Y-117955907D01*
G36*
X141881013Y-117955907D02*
G01*
X141203680Y-117955907D01*
X141203680Y-115669907D01*
X141881013Y-115669907D01*
X141881013Y-117955907D01*
G37*
%TO.C,REF\u002A\u002A*%
X125453284Y-92549683D02*
X125508002Y-92555262D01*
X125540241Y-92565393D01*
X125553902Y-92581134D01*
X125552883Y-92603543D01*
X125541083Y-92633680D01*
X125522400Y-92672605D01*
X125518413Y-92680922D01*
X125498899Y-92715558D01*
X125475682Y-92733646D01*
X125436972Y-92740568D01*
X125370977Y-92741704D01*
X125252480Y-92741755D01*
X125252480Y-92863819D01*
X125249192Y-92938905D01*
X125235857Y-92997945D01*
X125208903Y-93046974D01*
X125206268Y-93050630D01*
X125161766Y-93100379D01*
X125108003Y-93135001D01*
X125037634Y-93156837D01*
X124943310Y-93168223D01*
X124817686Y-93171498D01*
X124726016Y-93170773D01*
X124656578Y-93167470D01*
X124608425Y-93160132D01*
X124572346Y-93147305D01*
X124539128Y-93127537D01*
X124513741Y-93109391D01*
X124445207Y-93043499D01*
X124407985Y-92968846D01*
X124396202Y-92875056D01*
X124397024Y-92867544D01*
X124578403Y-92867544D01*
X124580530Y-92890643D01*
X124601627Y-92930610D01*
X124648641Y-92957034D01*
X124725655Y-92971630D01*
X124836751Y-92976114D01*
X124854611Y-92976080D01*
X124935228Y-92974225D01*
X124987927Y-92968267D01*
X125022148Y-92956454D01*
X125047326Y-92937037D01*
X125048529Y-92935827D01*
X125081108Y-92888102D01*
X125077897Y-92841850D01*
X125038445Y-92789610D01*
X125024962Y-92776832D01*
X124997317Y-92758011D01*
X124961360Y-92747398D01*
X124906844Y-92742708D01*
X124823522Y-92741652D01*
X124773078Y-92742566D01*
X124681337Y-92752483D01*
X124621232Y-92775118D01*
X124588380Y-92812722D01*
X124578403Y-92867544D01*
X124397024Y-92867544D01*
X124407947Y-92767720D01*
X124450075Y-92674929D01*
X124524378Y-92601539D01*
X124532244Y-92596006D01*
X124553148Y-92583103D01*
X124577035Y-92573218D01*
X124609062Y-92565867D01*
X124654385Y-92560566D01*
X124718159Y-92556833D01*
X124805540Y-92554182D01*
X124823522Y-92553864D01*
X124921685Y-92552132D01*
X125071749Y-92550197D01*
X125115282Y-92549660D01*
X125260824Y-92547941D01*
X125372191Y-92547595D01*
X125453284Y-92549683D01*
G36*
X125453284Y-92549683D02*
G01*
X125508002Y-92555262D01*
X125540241Y-92565393D01*
X125553902Y-92581134D01*
X125552883Y-92603543D01*
X125541083Y-92633680D01*
X125522400Y-92672605D01*
X125518413Y-92680922D01*
X125498899Y-92715558D01*
X125475682Y-92733646D01*
X125436972Y-92740568D01*
X125370977Y-92741704D01*
X125252480Y-92741755D01*
X125252480Y-92863819D01*
X125249192Y-92938905D01*
X125235857Y-92997945D01*
X125208903Y-93046974D01*
X125206268Y-93050630D01*
X125161766Y-93100379D01*
X125108003Y-93135001D01*
X125037634Y-93156837D01*
X124943310Y-93168223D01*
X124817686Y-93171498D01*
X124726016Y-93170773D01*
X124656578Y-93167470D01*
X124608425Y-93160132D01*
X124572346Y-93147305D01*
X124539128Y-93127537D01*
X124513741Y-93109391D01*
X124445207Y-93043499D01*
X124407985Y-92968846D01*
X124396202Y-92875056D01*
X124397024Y-92867544D01*
X124578403Y-92867544D01*
X124580530Y-92890643D01*
X124601627Y-92930610D01*
X124648641Y-92957034D01*
X124725655Y-92971630D01*
X124836751Y-92976114D01*
X124854611Y-92976080D01*
X124935228Y-92974225D01*
X124987927Y-92968267D01*
X125022148Y-92956454D01*
X125047326Y-92937037D01*
X125048529Y-92935827D01*
X125081108Y-92888102D01*
X125077897Y-92841850D01*
X125038445Y-92789610D01*
X125024962Y-92776832D01*
X124997317Y-92758011D01*
X124961360Y-92747398D01*
X124906844Y-92742708D01*
X124823522Y-92741652D01*
X124773078Y-92742566D01*
X124681337Y-92752483D01*
X124621232Y-92775118D01*
X124588380Y-92812722D01*
X124578403Y-92867544D01*
X124397024Y-92867544D01*
X124407947Y-92767720D01*
X124450075Y-92674929D01*
X124524378Y-92601539D01*
X124532244Y-92596006D01*
X124553148Y-92583103D01*
X124577035Y-92573218D01*
X124609062Y-92565867D01*
X124654385Y-92560566D01*
X124718159Y-92556833D01*
X124805540Y-92554182D01*
X124823522Y-92553864D01*
X124921685Y-92552132D01*
X125071749Y-92550197D01*
X125115282Y-92549660D01*
X125260824Y-92547941D01*
X125372191Y-92547595D01*
X125453284Y-92549683D01*
G37*
X125262218Y-94099657D02*
X125244267Y-94146714D01*
X125226991Y-94181945D01*
X125204722Y-94204943D01*
X125170645Y-94218305D01*
X125117943Y-94224632D01*
X125039803Y-94226523D01*
X124929408Y-94226575D01*
X124841415Y-94226843D01*
X124756982Y-94228439D01*
X124699314Y-94232248D01*
X124661468Y-94239140D01*
X124636504Y-94249985D01*
X124617480Y-94265652D01*
X124590633Y-94304168D01*
X124580514Y-94368869D01*
X124606086Y-94432879D01*
X124609360Y-94437104D01*
X124624487Y-94450271D01*
X124648748Y-94459985D01*
X124688130Y-94467057D01*
X124748621Y-94472304D01*
X124836209Y-94476539D01*
X124956882Y-94480575D01*
X125279995Y-94490345D01*
X125205545Y-94656421D01*
X124910542Y-94656421D01*
X124830399Y-94656077D01*
X124718911Y-94653113D01*
X124635901Y-94645609D01*
X124574679Y-94631770D01*
X124528555Y-94609805D01*
X124490838Y-94577921D01*
X124454838Y-94534327D01*
X124418569Y-94471624D01*
X124394892Y-94372843D01*
X124405164Y-94273588D01*
X124448049Y-94182331D01*
X124522209Y-94107544D01*
X124545424Y-94092043D01*
X124571736Y-94079186D01*
X124604900Y-94070067D01*
X124651361Y-94063858D01*
X124717562Y-94059727D01*
X124809948Y-94056844D01*
X124934965Y-94054381D01*
X125281758Y-94048263D01*
X125262218Y-94099657D01*
G36*
X125262218Y-94099657D02*
G01*
X125244267Y-94146714D01*
X125226991Y-94181945D01*
X125204722Y-94204943D01*
X125170645Y-94218305D01*
X125117943Y-94224632D01*
X125039803Y-94226523D01*
X124929408Y-94226575D01*
X124841415Y-94226843D01*
X124756982Y-94228439D01*
X124699314Y-94232248D01*
X124661468Y-94239140D01*
X124636504Y-94249985D01*
X124617480Y-94265652D01*
X124590633Y-94304168D01*
X124580514Y-94368869D01*
X124606086Y-94432879D01*
X124609360Y-94437104D01*
X124624487Y-94450271D01*
X124648748Y-94459985D01*
X124688130Y-94467057D01*
X124748621Y-94472304D01*
X124836209Y-94476539D01*
X124956882Y-94480575D01*
X125279995Y-94490345D01*
X125205545Y-94656421D01*
X124910542Y-94656421D01*
X124830399Y-94656077D01*
X124718911Y-94653113D01*
X124635901Y-94645609D01*
X124574679Y-94631770D01*
X124528555Y-94609805D01*
X124490838Y-94577921D01*
X124454838Y-94534327D01*
X124418569Y-94471624D01*
X124394892Y-94372843D01*
X124405164Y-94273588D01*
X124448049Y-94182331D01*
X124522209Y-94107544D01*
X124545424Y-94092043D01*
X124571736Y-94079186D01*
X124604900Y-94070067D01*
X124651361Y-94063858D01*
X124717562Y-94059727D01*
X124809948Y-94056844D01*
X124934965Y-94054381D01*
X125281758Y-94048263D01*
X125262218Y-94099657D01*
G37*
X124853585Y-91803825D02*
X124948064Y-91804884D01*
X125013894Y-91808524D01*
X125059874Y-91816068D01*
X125094801Y-91828838D01*
X125127475Y-91848157D01*
X125134255Y-91852910D01*
X125187711Y-91903201D01*
X125228027Y-91960503D01*
X125241109Y-91989928D01*
X125262930Y-92095661D01*
X125248816Y-92200226D01*
X125200585Y-92296592D01*
X125120059Y-92377725D01*
X125109271Y-92384575D01*
X125046633Y-92406863D01*
X124959415Y-92421881D01*
X124858690Y-92429168D01*
X124755532Y-92428261D01*
X124661013Y-92418698D01*
X124586207Y-92400017D01*
X124536385Y-92376009D01*
X124458889Y-92308424D01*
X124410736Y-92216846D01*
X124395207Y-92111680D01*
X124578403Y-92111680D01*
X124579912Y-92129944D01*
X124607587Y-92181112D01*
X124669652Y-92214925D01*
X124765517Y-92231164D01*
X124894594Y-92229611D01*
X124902900Y-92228986D01*
X124974123Y-92219883D01*
X125019289Y-92203672D01*
X125050232Y-92176300D01*
X125079217Y-92130407D01*
X125080741Y-92085018D01*
X125047326Y-92038268D01*
X125038533Y-92030136D01*
X125012221Y-92014206D01*
X124974000Y-92004801D01*
X124914829Y-92000328D01*
X124825662Y-91999191D01*
X124742144Y-92001138D01*
X124662575Y-92010855D01*
X124612288Y-92030913D01*
X124585993Y-92063720D01*
X124578403Y-92111680D01*
X124395207Y-92111680D01*
X124394183Y-92104747D01*
X124395079Y-92074809D01*
X124413409Y-91986645D01*
X124459584Y-91914227D01*
X124539128Y-91847768D01*
X124545028Y-91843813D01*
X124576768Y-91825920D01*
X124612643Y-91814282D01*
X124661386Y-91807589D01*
X124731729Y-91804534D01*
X124825662Y-91803854D01*
X124832403Y-91803806D01*
X124853585Y-91803825D01*
G36*
X124853585Y-91803825D02*
G01*
X124948064Y-91804884D01*
X125013894Y-91808524D01*
X125059874Y-91816068D01*
X125094801Y-91828838D01*
X125127475Y-91848157D01*
X125134255Y-91852910D01*
X125187711Y-91903201D01*
X125228027Y-91960503D01*
X125241109Y-91989928D01*
X125262930Y-92095661D01*
X125248816Y-92200226D01*
X125200585Y-92296592D01*
X125120059Y-92377725D01*
X125109271Y-92384575D01*
X125046633Y-92406863D01*
X124959415Y-92421881D01*
X124858690Y-92429168D01*
X124755532Y-92428261D01*
X124661013Y-92418698D01*
X124586207Y-92400017D01*
X124536385Y-92376009D01*
X124458889Y-92308424D01*
X124410736Y-92216846D01*
X124395207Y-92111680D01*
X124578403Y-92111680D01*
X124579912Y-92129944D01*
X124607587Y-92181112D01*
X124669652Y-92214925D01*
X124765517Y-92231164D01*
X124894594Y-92229611D01*
X124902900Y-92228986D01*
X124974123Y-92219883D01*
X125019289Y-92203672D01*
X125050232Y-92176300D01*
X125079217Y-92130407D01*
X125080741Y-92085018D01*
X125047326Y-92038268D01*
X125038533Y-92030136D01*
X125012221Y-92014206D01*
X124974000Y-92004801D01*
X124914829Y-92000328D01*
X124825662Y-91999191D01*
X124742144Y-92001138D01*
X124662575Y-92010855D01*
X124612288Y-92030913D01*
X124585993Y-92063720D01*
X124578403Y-92111680D01*
X124395207Y-92111680D01*
X124394183Y-92104747D01*
X124395079Y-92074809D01*
X124413409Y-91986645D01*
X124459584Y-91914227D01*
X124539128Y-91847768D01*
X124545028Y-91843813D01*
X124576768Y-91825920D01*
X124612643Y-91814282D01*
X124661386Y-91807589D01*
X124731729Y-91804534D01*
X124825662Y-91803854D01*
X124832403Y-91803806D01*
X124853585Y-91803825D01*
G37*
X124925123Y-93295386D02*
X124956501Y-93298894D01*
X125068185Y-93325033D01*
X125153122Y-93372266D01*
X125218221Y-93444098D01*
X125220908Y-93448158D01*
X125259114Y-93539473D01*
X125262514Y-93634816D01*
X125233419Y-93726686D01*
X125174140Y-93807581D01*
X125086990Y-93869998D01*
X125084889Y-93871046D01*
X125030769Y-93891787D01*
X124969261Y-93906980D01*
X124911519Y-93915039D01*
X124868695Y-93914378D01*
X124851942Y-93903412D01*
X124852960Y-93893670D01*
X124871489Y-93847083D01*
X124905561Y-93794278D01*
X124945002Y-93749357D01*
X124979635Y-93726425D01*
X125026613Y-93702587D01*
X125069342Y-93653730D01*
X125086403Y-93596997D01*
X125081470Y-93576202D01*
X125056637Y-93535156D01*
X125022165Y-93499403D01*
X124990891Y-93484114D01*
X124990775Y-93484118D01*
X124976413Y-93501465D01*
X124950505Y-93547713D01*
X124916690Y-93615893D01*
X124878609Y-93699037D01*
X124878407Y-93699494D01*
X124838189Y-93789822D01*
X124809213Y-93850368D01*
X124786954Y-93887072D01*
X124766887Y-93905874D01*
X124744489Y-93912714D01*
X124715236Y-93913531D01*
X124645134Y-93906338D01*
X124549892Y-93870776D01*
X124475047Y-93811246D01*
X124423225Y-93734214D01*
X124397053Y-93646145D01*
X124398551Y-93580137D01*
X124580336Y-93580137D01*
X124582886Y-93636779D01*
X124617600Y-93689376D01*
X124641587Y-93710050D01*
X124659843Y-93714960D01*
X124677257Y-93695049D01*
X124703352Y-93645439D01*
X124704090Y-93643984D01*
X124731963Y-93585454D01*
X124754199Y-93533092D01*
X124763606Y-93499874D01*
X124751032Y-93486550D01*
X124707948Y-93484114D01*
X124654327Y-93494236D01*
X124605599Y-93529329D01*
X124580336Y-93580137D01*
X124398551Y-93580137D01*
X124399156Y-93553506D01*
X124432161Y-93462762D01*
X124498695Y-93380381D01*
X124564535Y-93334738D01*
X124658516Y-93301952D01*
X124707948Y-93296621D01*
X124777016Y-93289173D01*
X124925123Y-93295386D01*
G36*
X124925123Y-93295386D02*
G01*
X124956501Y-93298894D01*
X125068185Y-93325033D01*
X125153122Y-93372266D01*
X125218221Y-93444098D01*
X125220908Y-93448158D01*
X125259114Y-93539473D01*
X125262514Y-93634816D01*
X125233419Y-93726686D01*
X125174140Y-93807581D01*
X125086990Y-93869998D01*
X125084889Y-93871046D01*
X125030769Y-93891787D01*
X124969261Y-93906980D01*
X124911519Y-93915039D01*
X124868695Y-93914378D01*
X124851942Y-93903412D01*
X124852960Y-93893670D01*
X124871489Y-93847083D01*
X124905561Y-93794278D01*
X124945002Y-93749357D01*
X124979635Y-93726425D01*
X125026613Y-93702587D01*
X125069342Y-93653730D01*
X125086403Y-93596997D01*
X125081470Y-93576202D01*
X125056637Y-93535156D01*
X125022165Y-93499403D01*
X124990891Y-93484114D01*
X124990775Y-93484118D01*
X124976413Y-93501465D01*
X124950505Y-93547713D01*
X124916690Y-93615893D01*
X124878609Y-93699037D01*
X124878407Y-93699494D01*
X124838189Y-93789822D01*
X124809213Y-93850368D01*
X124786954Y-93887072D01*
X124766887Y-93905874D01*
X124744489Y-93912714D01*
X124715236Y-93913531D01*
X124645134Y-93906338D01*
X124549892Y-93870776D01*
X124475047Y-93811246D01*
X124423225Y-93734214D01*
X124397053Y-93646145D01*
X124398551Y-93580137D01*
X124580336Y-93580137D01*
X124582886Y-93636779D01*
X124617600Y-93689376D01*
X124641587Y-93710050D01*
X124659843Y-93714960D01*
X124677257Y-93695049D01*
X124703352Y-93645439D01*
X124704090Y-93643984D01*
X124731963Y-93585454D01*
X124754199Y-93533092D01*
X124763606Y-93499874D01*
X124751032Y-93486550D01*
X124707948Y-93484114D01*
X124654327Y-93494236D01*
X124605599Y-93529329D01*
X124580336Y-93580137D01*
X124398551Y-93580137D01*
X124399156Y-93553506D01*
X124432161Y-93462762D01*
X124498695Y-93380381D01*
X124564535Y-93334738D01*
X124658516Y-93301952D01*
X124707948Y-93296621D01*
X124777016Y-93289173D01*
X124925123Y-93295386D01*
G37*
X124878574Y-95223300D02*
X125003285Y-95224002D01*
X125109037Y-95225077D01*
X125190802Y-95226460D01*
X125243549Y-95228086D01*
X125262249Y-95229890D01*
X125262186Y-95230596D01*
X125255392Y-95254573D01*
X125240800Y-95298275D01*
X125219350Y-95359806D01*
X124944097Y-95359806D01*
X124835946Y-95360197D01*
X124757506Y-95362014D01*
X124704127Y-95366193D01*
X124668736Y-95373674D01*
X124644259Y-95385393D01*
X124623624Y-95402289D01*
X124612650Y-95413808D01*
X124582255Y-95476096D01*
X124584946Y-95544749D01*
X124620886Y-95607662D01*
X124629805Y-95616821D01*
X124648324Y-95631489D01*
X124672806Y-95641527D01*
X124709873Y-95647809D01*
X124766147Y-95651212D01*
X124848251Y-95652611D01*
X124962809Y-95652883D01*
X125020910Y-95653013D01*
X125116473Y-95653861D01*
X125193006Y-95655366D01*
X125243825Y-95657375D01*
X125262249Y-95659737D01*
X125262186Y-95660442D01*
X125255392Y-95684419D01*
X125240800Y-95728121D01*
X125219350Y-95789652D01*
X124942838Y-95789622D01*
X124918222Y-95789576D01*
X124789899Y-95786990D01*
X124692864Y-95779047D01*
X124620537Y-95763805D01*
X124566335Y-95739324D01*
X124523678Y-95703662D01*
X124485985Y-95654878D01*
X124462390Y-95607299D01*
X124444152Y-95531228D01*
X124443116Y-95456404D01*
X124460858Y-95398883D01*
X124463309Y-95394558D01*
X124463046Y-95381222D01*
X124442519Y-95372109D01*
X124395460Y-95365532D01*
X124315600Y-95359806D01*
X124151716Y-95350037D01*
X124205286Y-95223037D01*
X124739935Y-95223037D01*
X124878574Y-95223300D01*
G36*
X124878574Y-95223300D02*
G01*
X125003285Y-95224002D01*
X125109037Y-95225077D01*
X125190802Y-95226460D01*
X125243549Y-95228086D01*
X125262249Y-95229890D01*
X125262186Y-95230596D01*
X125255392Y-95254573D01*
X125240800Y-95298275D01*
X125219350Y-95359806D01*
X124944097Y-95359806D01*
X124835946Y-95360197D01*
X124757506Y-95362014D01*
X124704127Y-95366193D01*
X124668736Y-95373674D01*
X124644259Y-95385393D01*
X124623624Y-95402289D01*
X124612650Y-95413808D01*
X124582255Y-95476096D01*
X124584946Y-95544749D01*
X124620886Y-95607662D01*
X124629805Y-95616821D01*
X124648324Y-95631489D01*
X124672806Y-95641527D01*
X124709873Y-95647809D01*
X124766147Y-95651212D01*
X124848251Y-95652611D01*
X124962809Y-95652883D01*
X125020910Y-95653013D01*
X125116473Y-95653861D01*
X125193006Y-95655366D01*
X125243825Y-95657375D01*
X125262249Y-95659737D01*
X125262186Y-95660442D01*
X125255392Y-95684419D01*
X125240800Y-95728121D01*
X125219350Y-95789652D01*
X124942838Y-95789622D01*
X124918222Y-95789576D01*
X124789899Y-95786990D01*
X124692864Y-95779047D01*
X124620537Y-95763805D01*
X124566335Y-95739324D01*
X124523678Y-95703662D01*
X124485985Y-95654878D01*
X124462390Y-95607299D01*
X124444152Y-95531228D01*
X124443116Y-95456404D01*
X124460858Y-95398883D01*
X124463309Y-95394558D01*
X124463046Y-95381222D01*
X124442519Y-95372109D01*
X124395460Y-95365532D01*
X124315600Y-95359806D01*
X124151716Y-95350037D01*
X124205286Y-95223037D01*
X124739935Y-95223037D01*
X124878574Y-95223300D01*
G37*
X124764998Y-95969769D02*
X124738317Y-96013260D01*
X124682926Y-96047534D01*
X124671504Y-96051053D01*
X124613318Y-96088932D01*
X124581887Y-96146024D01*
X124580538Y-96211577D01*
X124612596Y-96274843D01*
X124620863Y-96284288D01*
X124656791Y-96315873D01*
X124688115Y-96321089D01*
X124718871Y-96297195D01*
X124753097Y-96241450D01*
X124794830Y-96151114D01*
X124797473Y-96145004D01*
X124844235Y-96044719D01*
X124885661Y-95976225D01*
X124927022Y-95934061D01*
X124973591Y-95912767D01*
X125030640Y-95906883D01*
X125093888Y-95914594D01*
X125174844Y-95953530D01*
X125233002Y-96022028D01*
X125250463Y-96071572D01*
X125260017Y-96141491D01*
X125257976Y-96209385D01*
X125243562Y-96257867D01*
X125239973Y-96263017D01*
X125214896Y-96276693D01*
X125170698Y-96267203D01*
X125136007Y-96250714D01*
X125121564Y-96224273D01*
X125122283Y-96174126D01*
X125118140Y-96104507D01*
X125089534Y-96059017D01*
X125036584Y-96043652D01*
X125035062Y-96043666D01*
X125004325Y-96052977D01*
X124976123Y-96084649D01*
X124943616Y-96146229D01*
X124904478Y-96229974D01*
X124883186Y-96285442D01*
X124884559Y-96317463D01*
X124912683Y-96332426D01*
X124971650Y-96336718D01*
X125065548Y-96336729D01*
X125123511Y-96337208D01*
X125195092Y-96339404D01*
X125244086Y-96342974D01*
X125262249Y-96347469D01*
X125262126Y-96348670D01*
X125252282Y-96374641D01*
X125231508Y-96417655D01*
X125200767Y-96477101D01*
X124923778Y-96470037D01*
X124905408Y-96469546D01*
X124776472Y-96463935D01*
X124679294Y-96454022D01*
X124607405Y-96437785D01*
X124554332Y-96413201D01*
X124513607Y-96378245D01*
X124478759Y-96330896D01*
X124478213Y-96330020D01*
X124449783Y-96253461D01*
X124444980Y-96164916D01*
X124462708Y-96079502D01*
X124501869Y-96012338D01*
X124532382Y-95982791D01*
X124623590Y-95926012D01*
X124723028Y-95906883D01*
X124791440Y-95906883D01*
X124764998Y-95969769D01*
G36*
X124764998Y-95969769D02*
G01*
X124738317Y-96013260D01*
X124682926Y-96047534D01*
X124671504Y-96051053D01*
X124613318Y-96088932D01*
X124581887Y-96146024D01*
X124580538Y-96211577D01*
X124612596Y-96274843D01*
X124620863Y-96284288D01*
X124656791Y-96315873D01*
X124688115Y-96321089D01*
X124718871Y-96297195D01*
X124753097Y-96241450D01*
X124794830Y-96151114D01*
X124797473Y-96145004D01*
X124844235Y-96044719D01*
X124885661Y-95976225D01*
X124927022Y-95934061D01*
X124973591Y-95912767D01*
X125030640Y-95906883D01*
X125093888Y-95914594D01*
X125174844Y-95953530D01*
X125233002Y-96022028D01*
X125250463Y-96071572D01*
X125260017Y-96141491D01*
X125257976Y-96209385D01*
X125243562Y-96257867D01*
X125239973Y-96263017D01*
X125214896Y-96276693D01*
X125170698Y-96267203D01*
X125136007Y-96250714D01*
X125121564Y-96224273D01*
X125122283Y-96174126D01*
X125118140Y-96104507D01*
X125089534Y-96059017D01*
X125036584Y-96043652D01*
X125035062Y-96043666D01*
X125004325Y-96052977D01*
X124976123Y-96084649D01*
X124943616Y-96146229D01*
X124904478Y-96229974D01*
X124883186Y-96285442D01*
X124884559Y-96317463D01*
X124912683Y-96332426D01*
X124971650Y-96336718D01*
X125065548Y-96336729D01*
X125123511Y-96337208D01*
X125195092Y-96339404D01*
X125244086Y-96342974D01*
X125262249Y-96347469D01*
X125262126Y-96348670D01*
X125252282Y-96374641D01*
X125231508Y-96417655D01*
X125200767Y-96477101D01*
X124923778Y-96470037D01*
X124905408Y-96469546D01*
X124776472Y-96463935D01*
X124679294Y-96454022D01*
X124607405Y-96437785D01*
X124554332Y-96413201D01*
X124513607Y-96378245D01*
X124478759Y-96330896D01*
X124478213Y-96330020D01*
X124449783Y-96253461D01*
X124444980Y-96164916D01*
X124462708Y-96079502D01*
X124501869Y-96012338D01*
X124532382Y-95982791D01*
X124623590Y-95926012D01*
X124723028Y-95906883D01*
X124791440Y-95906883D01*
X124764998Y-95969769D01*
G37*
X125188776Y-96574199D02*
X125243987Y-96579355D01*
X125262249Y-96587802D01*
X125256781Y-96613366D01*
X125240213Y-96656794D01*
X125235368Y-96667020D01*
X125224400Y-96682993D01*
X125206370Y-96694006D01*
X125174876Y-96701210D01*
X125123516Y-96705752D01*
X125045890Y-96708780D01*
X124935595Y-96711444D01*
X124903355Y-96712175D01*
X124801530Y-96714995D01*
X124730268Y-96718656D01*
X124682812Y-96724266D01*
X124652405Y-96732931D01*
X124632290Y-96745758D01*
X124615709Y-96763855D01*
X124586641Y-96817435D01*
X124581044Y-96883348D01*
X124603287Y-96942325D01*
X124649339Y-96984757D01*
X124715172Y-97001037D01*
X124733067Y-97001490D01*
X124765462Y-97010382D01*
X124770405Y-97036635D01*
X124751113Y-97088041D01*
X124744926Y-97099947D01*
X124708538Y-97132125D01*
X124654434Y-97132762D01*
X124579608Y-97102104D01*
X124538830Y-97073982D01*
X124480901Y-97002077D01*
X124448150Y-96913322D01*
X124443692Y-96818418D01*
X124470647Y-96728068D01*
X124474061Y-96721900D01*
X124513172Y-96671513D01*
X124563455Y-96626462D01*
X124574819Y-96618605D01*
X124601340Y-96603584D01*
X124632816Y-96592853D01*
X124676071Y-96585474D01*
X124737929Y-96580508D01*
X124825213Y-96577018D01*
X124944749Y-96574067D01*
X124964958Y-96573649D01*
X125095979Y-96572306D01*
X125188776Y-96574199D01*
G36*
X125188776Y-96574199D02*
G01*
X125243987Y-96579355D01*
X125262249Y-96587802D01*
X125256781Y-96613366D01*
X125240213Y-96656794D01*
X125235368Y-96667020D01*
X125224400Y-96682993D01*
X125206370Y-96694006D01*
X125174876Y-96701210D01*
X125123516Y-96705752D01*
X125045890Y-96708780D01*
X124935595Y-96711444D01*
X124903355Y-96712175D01*
X124801530Y-96714995D01*
X124730268Y-96718656D01*
X124682812Y-96724266D01*
X124652405Y-96732931D01*
X124632290Y-96745758D01*
X124615709Y-96763855D01*
X124586641Y-96817435D01*
X124581044Y-96883348D01*
X124603287Y-96942325D01*
X124649339Y-96984757D01*
X124715172Y-97001037D01*
X124733067Y-97001490D01*
X124765462Y-97010382D01*
X124770405Y-97036635D01*
X124751113Y-97088041D01*
X124744926Y-97099947D01*
X124708538Y-97132125D01*
X124654434Y-97132762D01*
X124579608Y-97102104D01*
X124538830Y-97073982D01*
X124480901Y-97002077D01*
X124448150Y-96913322D01*
X124443692Y-96818418D01*
X124470647Y-96728068D01*
X124474061Y-96721900D01*
X124513172Y-96671513D01*
X124563455Y-96626462D01*
X124574819Y-96618605D01*
X124601340Y-96603584D01*
X124632816Y-96592853D01*
X124676071Y-96585474D01*
X124737929Y-96580508D01*
X124825213Y-96577018D01*
X124944749Y-96574067D01*
X124964958Y-96573649D01*
X125095979Y-96572306D01*
X125188776Y-96574199D01*
G37*
X124928132Y-97237121D02*
X125031987Y-97248150D01*
X125109813Y-97272146D01*
X125169240Y-97311917D01*
X125217898Y-97370272D01*
X125246026Y-97425860D01*
X125261679Y-97519209D01*
X125244564Y-97612430D01*
X125196868Y-97696688D01*
X125120774Y-97763142D01*
X125106742Y-97771167D01*
X125082159Y-97781764D01*
X125050789Y-97789625D01*
X125007249Y-97795153D01*
X124946158Y-97798754D01*
X124862135Y-97800832D01*
X124749800Y-97801793D01*
X124603769Y-97802041D01*
X124150443Y-97802114D01*
X124177044Y-97738614D01*
X124184325Y-97721824D01*
X124200767Y-97695101D01*
X124225667Y-97679804D01*
X124269212Y-97671397D01*
X124341586Y-97665345D01*
X124406569Y-97659816D01*
X124449230Y-97652510D01*
X124465150Y-97642042D01*
X124460880Y-97626268D01*
X124445877Y-97586070D01*
X124442158Y-97514232D01*
X124445569Y-97495261D01*
X124581537Y-97495261D01*
X124586055Y-97563560D01*
X124623624Y-97622862D01*
X124638520Y-97635627D01*
X124666569Y-97651196D01*
X124705738Y-97660198D01*
X124765338Y-97664343D01*
X124854680Y-97665345D01*
X124925796Y-97664883D01*
X124990121Y-97661961D01*
X125031646Y-97654739D01*
X125059547Y-97641399D01*
X125082997Y-97620124D01*
X125087505Y-97615139D01*
X125120775Y-97551097D01*
X125117370Y-97483335D01*
X125077522Y-97420226D01*
X125056878Y-97401434D01*
X125029509Y-97385706D01*
X124991672Y-97376921D01*
X124933835Y-97373101D01*
X124846466Y-97372268D01*
X124779799Y-97372679D01*
X124714725Y-97375526D01*
X124672731Y-97382704D01*
X124644543Y-97396071D01*
X124620886Y-97417488D01*
X124610233Y-97430070D01*
X124581537Y-97495261D01*
X124445569Y-97495261D01*
X124456052Y-97436950D01*
X124485985Y-97370272D01*
X124513691Y-97333589D01*
X124567749Y-97286488D01*
X124637057Y-97256322D01*
X124729245Y-97240282D01*
X124846466Y-97235769D01*
X124851942Y-97235559D01*
X124928132Y-97237121D01*
G36*
X124928132Y-97237121D02*
G01*
X125031987Y-97248150D01*
X125109813Y-97272146D01*
X125169240Y-97311917D01*
X125217898Y-97370272D01*
X125246026Y-97425860D01*
X125261679Y-97519209D01*
X125244564Y-97612430D01*
X125196868Y-97696688D01*
X125120774Y-97763142D01*
X125106742Y-97771167D01*
X125082159Y-97781764D01*
X125050789Y-97789625D01*
X125007249Y-97795153D01*
X124946158Y-97798754D01*
X124862135Y-97800832D01*
X124749800Y-97801793D01*
X124603769Y-97802041D01*
X124150443Y-97802114D01*
X124177044Y-97738614D01*
X124184325Y-97721824D01*
X124200767Y-97695101D01*
X124225667Y-97679804D01*
X124269212Y-97671397D01*
X124341586Y-97665345D01*
X124406569Y-97659816D01*
X124449230Y-97652510D01*
X124465150Y-97642042D01*
X124460880Y-97626268D01*
X124445877Y-97586070D01*
X124442158Y-97514232D01*
X124445569Y-97495261D01*
X124581537Y-97495261D01*
X124586055Y-97563560D01*
X124623624Y-97622862D01*
X124638520Y-97635627D01*
X124666569Y-97651196D01*
X124705738Y-97660198D01*
X124765338Y-97664343D01*
X124854680Y-97665345D01*
X124925796Y-97664883D01*
X124990121Y-97661961D01*
X125031646Y-97654739D01*
X125059547Y-97641399D01*
X125082997Y-97620124D01*
X125087505Y-97615139D01*
X125120775Y-97551097D01*
X125117370Y-97483335D01*
X125077522Y-97420226D01*
X125056878Y-97401434D01*
X125029509Y-97385706D01*
X124991672Y-97376921D01*
X124933835Y-97373101D01*
X124846466Y-97372268D01*
X124779799Y-97372679D01*
X124714725Y-97375526D01*
X124672731Y-97382704D01*
X124644543Y-97396071D01*
X124620886Y-97417488D01*
X124610233Y-97430070D01*
X124581537Y-97495261D01*
X124445569Y-97495261D01*
X124456052Y-97436950D01*
X124485985Y-97370272D01*
X124513691Y-97333589D01*
X124567749Y-97286488D01*
X124637057Y-97256322D01*
X124729245Y-97240282D01*
X124846466Y-97235769D01*
X124851942Y-97235559D01*
X124928132Y-97237121D01*
G37*
X125203843Y-97981175D02*
X125217708Y-97995298D01*
X125248526Y-98034424D01*
X125258508Y-98073882D01*
X125253913Y-98132598D01*
X125250942Y-98156504D01*
X125244656Y-98218159D01*
X125242152Y-98261268D01*
X125242535Y-98274055D01*
X125246680Y-98326514D01*
X125253913Y-98389938D01*
X125256398Y-98410230D01*
X125257375Y-98461350D01*
X125241942Y-98498753D01*
X125203843Y-98541361D01*
X125142013Y-98603191D01*
X124791823Y-98603191D01*
X124688337Y-98602709D01*
X124589672Y-98601207D01*
X124511548Y-98598871D01*
X124460142Y-98595889D01*
X124441634Y-98592451D01*
X124441684Y-98591730D01*
X124450893Y-98566757D01*
X124471187Y-98524561D01*
X124500741Y-98467411D01*
X124808226Y-98462032D01*
X125115711Y-98456652D01*
X125115711Y-98339421D01*
X124778672Y-98334075D01*
X124687054Y-98332381D01*
X124589129Y-98329955D01*
X124511386Y-98327326D01*
X124460122Y-98324714D01*
X124441634Y-98322337D01*
X124441699Y-98321654D01*
X124448500Y-98297964D01*
X124463084Y-98254414D01*
X124484534Y-98192883D01*
X124780584Y-98192584D01*
X124832012Y-98192284D01*
X124931946Y-98190206D01*
X125015405Y-98186490D01*
X125074857Y-98181530D01*
X125102767Y-98175720D01*
X125117694Y-98154936D01*
X125122305Y-98112520D01*
X125115711Y-98065883D01*
X124778672Y-98060537D01*
X124693026Y-98058624D01*
X124591652Y-98054657D01*
X124512135Y-98049469D01*
X124460216Y-98043461D01*
X124441634Y-98037033D01*
X124447514Y-98011962D01*
X124464309Y-97969110D01*
X124486983Y-97919345D01*
X125142013Y-97919345D01*
X125203843Y-97981175D01*
G36*
X125203843Y-97981175D02*
G01*
X125217708Y-97995298D01*
X125248526Y-98034424D01*
X125258508Y-98073882D01*
X125253913Y-98132598D01*
X125250942Y-98156504D01*
X125244656Y-98218159D01*
X125242152Y-98261268D01*
X125242535Y-98274055D01*
X125246680Y-98326514D01*
X125253913Y-98389938D01*
X125256398Y-98410230D01*
X125257375Y-98461350D01*
X125241942Y-98498753D01*
X125203843Y-98541361D01*
X125142013Y-98603191D01*
X124791823Y-98603191D01*
X124688337Y-98602709D01*
X124589672Y-98601207D01*
X124511548Y-98598871D01*
X124460142Y-98595889D01*
X124441634Y-98592451D01*
X124441684Y-98591730D01*
X124450893Y-98566757D01*
X124471187Y-98524561D01*
X124500741Y-98467411D01*
X124808226Y-98462032D01*
X125115711Y-98456652D01*
X125115711Y-98339421D01*
X124778672Y-98334075D01*
X124687054Y-98332381D01*
X124589129Y-98329955D01*
X124511386Y-98327326D01*
X124460122Y-98324714D01*
X124441634Y-98322337D01*
X124441699Y-98321654D01*
X124448500Y-98297964D01*
X124463084Y-98254414D01*
X124484534Y-98192883D01*
X124780584Y-98192584D01*
X124832012Y-98192284D01*
X124931946Y-98190206D01*
X125015405Y-98186490D01*
X125074857Y-98181530D01*
X125102767Y-98175720D01*
X125117694Y-98154936D01*
X125122305Y-98112520D01*
X125115711Y-98065883D01*
X124778672Y-98060537D01*
X124693026Y-98058624D01*
X124591652Y-98054657D01*
X124512135Y-98049469D01*
X124460216Y-98043461D01*
X124441634Y-98037033D01*
X124447514Y-98011962D01*
X124464309Y-97969110D01*
X124486983Y-97919345D01*
X125142013Y-97919345D01*
X125203843Y-97981175D01*
G37*
X125081150Y-98721650D02*
X125156348Y-98754389D01*
X125217611Y-98816119D01*
X125243690Y-98866102D01*
X125261950Y-98962657D01*
X125259487Y-99016313D01*
X125246167Y-99065984D01*
X125218219Y-99085041D01*
X125172190Y-99077915D01*
X125166104Y-99075842D01*
X125133829Y-99059404D01*
X125121613Y-99032034D01*
X125122430Y-98979892D01*
X125123541Y-98943076D01*
X125114008Y-98899999D01*
X125085506Y-98870485D01*
X125050415Y-98853674D01*
X125013655Y-98851799D01*
X125013441Y-98851886D01*
X124993578Y-98873681D01*
X124964672Y-98920328D01*
X124932366Y-98980682D01*
X124902303Y-99043600D01*
X124880126Y-99097937D01*
X124871480Y-99132550D01*
X124879947Y-99137700D01*
X124919789Y-99144182D01*
X124984851Y-99148621D01*
X125066865Y-99150268D01*
X125123633Y-99150651D01*
X125195128Y-99152455D01*
X125244090Y-99155402D01*
X125262249Y-99159117D01*
X125256147Y-99178536D01*
X125239575Y-99217733D01*
X125216900Y-99267498D01*
X124925989Y-99267498D01*
X124851420Y-99267180D01*
X124738181Y-99264171D01*
X124654172Y-99256506D01*
X124593000Y-99242398D01*
X124548275Y-99220061D01*
X124513604Y-99187707D01*
X124482597Y-99143550D01*
X124457008Y-99087293D01*
X124441634Y-98983420D01*
X124443391Y-98936024D01*
X124454027Y-98894153D01*
X124480542Y-98855169D01*
X124529900Y-98804995D01*
X124564759Y-98772728D01*
X124610014Y-98739116D01*
X124652431Y-98723957D01*
X124706248Y-98720421D01*
X124794330Y-98720421D01*
X124763267Y-98780490D01*
X124725416Y-98828093D01*
X124674430Y-98860699D01*
X124660568Y-98866299D01*
X124606838Y-98908968D01*
X124579897Y-98968253D01*
X124582519Y-99032899D01*
X124617480Y-99091652D01*
X124645874Y-99116510D01*
X124682198Y-99130990D01*
X124714526Y-99115490D01*
X124747045Y-99067293D01*
X124783941Y-98983686D01*
X124789037Y-98970998D01*
X124822387Y-98894882D01*
X124855273Y-98829564D01*
X124881249Y-98788007D01*
X124927647Y-98746384D01*
X125001691Y-98718713D01*
X125081150Y-98721650D01*
G36*
X125081150Y-98721650D02*
G01*
X125156348Y-98754389D01*
X125217611Y-98816119D01*
X125243690Y-98866102D01*
X125261950Y-98962657D01*
X125259487Y-99016313D01*
X125246167Y-99065984D01*
X125218219Y-99085041D01*
X125172190Y-99077915D01*
X125166104Y-99075842D01*
X125133829Y-99059404D01*
X125121613Y-99032034D01*
X125122430Y-98979892D01*
X125123541Y-98943076D01*
X125114008Y-98899999D01*
X125085506Y-98870485D01*
X125050415Y-98853674D01*
X125013655Y-98851799D01*
X125013441Y-98851886D01*
X124993578Y-98873681D01*
X124964672Y-98920328D01*
X124932366Y-98980682D01*
X124902303Y-99043600D01*
X124880126Y-99097937D01*
X124871480Y-99132550D01*
X124879947Y-99137700D01*
X124919789Y-99144182D01*
X124984851Y-99148621D01*
X125066865Y-99150268D01*
X125123633Y-99150651D01*
X125195128Y-99152455D01*
X125244090Y-99155402D01*
X125262249Y-99159117D01*
X125256147Y-99178536D01*
X125239575Y-99217733D01*
X125216900Y-99267498D01*
X124925989Y-99267498D01*
X124851420Y-99267180D01*
X124738181Y-99264171D01*
X124654172Y-99256506D01*
X124593000Y-99242398D01*
X124548275Y-99220061D01*
X124513604Y-99187707D01*
X124482597Y-99143550D01*
X124457008Y-99087293D01*
X124441634Y-98983420D01*
X124443391Y-98936024D01*
X124454027Y-98894153D01*
X124480542Y-98855169D01*
X124529900Y-98804995D01*
X124564759Y-98772728D01*
X124610014Y-98739116D01*
X124652431Y-98723957D01*
X124706248Y-98720421D01*
X124794330Y-98720421D01*
X124763267Y-98780490D01*
X124725416Y-98828093D01*
X124674430Y-98860699D01*
X124660568Y-98866299D01*
X124606838Y-98908968D01*
X124579897Y-98968253D01*
X124582519Y-99032899D01*
X124617480Y-99091652D01*
X124645874Y-99116510D01*
X124682198Y-99130990D01*
X124714526Y-99115490D01*
X124747045Y-99067293D01*
X124783941Y-98983686D01*
X124789037Y-98970998D01*
X124822387Y-98894882D01*
X124855273Y-98829564D01*
X124881249Y-98788007D01*
X124927647Y-98746384D01*
X125001691Y-98718713D01*
X125081150Y-98721650D01*
G37*
X125019285Y-99384957D02*
X125115788Y-99386100D01*
X125192803Y-99388041D01*
X125243799Y-99390595D01*
X125262249Y-99393579D01*
X125256147Y-99412998D01*
X125239575Y-99452194D01*
X125239038Y-99453371D01*
X125228383Y-99473725D01*
X125213762Y-99487414D01*
X125188153Y-99495761D01*
X125144534Y-99500086D01*
X125075883Y-99501712D01*
X124975178Y-99501960D01*
X124911293Y-99502460D01*
X124791231Y-99507796D01*
X124703289Y-99520015D01*
X124642855Y-99540408D01*
X124605316Y-99570265D01*
X124586061Y-99610878D01*
X124584719Y-99616512D01*
X124583671Y-99692582D01*
X124617751Y-99751908D01*
X124686078Y-99792883D01*
X124705831Y-99800190D01*
X124749546Y-99816846D01*
X124769635Y-99825281D01*
X124766867Y-99842604D01*
X124751845Y-99880435D01*
X124727036Y-99915720D01*
X124680150Y-99931806D01*
X124646567Y-99927008D01*
X124578447Y-99897529D01*
X124514614Y-99849862D01*
X124470468Y-99794121D01*
X124460262Y-99770767D01*
X124443198Y-99682341D01*
X124449956Y-99588459D01*
X124479920Y-99507793D01*
X124502434Y-99474246D01*
X124534692Y-99440273D01*
X124575726Y-99416041D01*
X124631588Y-99399959D01*
X124708331Y-99390439D01*
X124812005Y-99385892D01*
X124948664Y-99384729D01*
X125019285Y-99384957D01*
G36*
X125019285Y-99384957D02*
G01*
X125115788Y-99386100D01*
X125192803Y-99388041D01*
X125243799Y-99390595D01*
X125262249Y-99393579D01*
X125256147Y-99412998D01*
X125239575Y-99452194D01*
X125239038Y-99453371D01*
X125228383Y-99473725D01*
X125213762Y-99487414D01*
X125188153Y-99495761D01*
X125144534Y-99500086D01*
X125075883Y-99501712D01*
X124975178Y-99501960D01*
X124911293Y-99502460D01*
X124791231Y-99507796D01*
X124703289Y-99520015D01*
X124642855Y-99540408D01*
X124605316Y-99570265D01*
X124586061Y-99610878D01*
X124584719Y-99616512D01*
X124583671Y-99692582D01*
X124617751Y-99751908D01*
X124686078Y-99792883D01*
X124705831Y-99800190D01*
X124749546Y-99816846D01*
X124769635Y-99825281D01*
X124766867Y-99842604D01*
X124751845Y-99880435D01*
X124727036Y-99915720D01*
X124680150Y-99931806D01*
X124646567Y-99927008D01*
X124578447Y-99897529D01*
X124514614Y-99849862D01*
X124470468Y-99794121D01*
X124460262Y-99770767D01*
X124443198Y-99682341D01*
X124449956Y-99588459D01*
X124479920Y-99507793D01*
X124502434Y-99474246D01*
X124534692Y-99440273D01*
X124575726Y-99416041D01*
X124631588Y-99399959D01*
X124708331Y-99390439D01*
X124812005Y-99385892D01*
X124948664Y-99384729D01*
X125019285Y-99384957D01*
G37*
X124907929Y-100049547D02*
X125010527Y-100054319D01*
X125085606Y-100066810D01*
X125141228Y-100089839D01*
X125185455Y-100126228D01*
X125226349Y-100178798D01*
X125244946Y-100212246D01*
X125257471Y-100265862D01*
X125256483Y-100341180D01*
X125252515Y-100383288D01*
X125240400Y-100434081D01*
X125214065Y-100474680D01*
X125164994Y-100521911D01*
X125157826Y-100528222D01*
X125102669Y-100570683D01*
X125054630Y-100590942D01*
X124997664Y-100596114D01*
X124913951Y-100596114D01*
X124936032Y-100537614D01*
X124961844Y-100494966D01*
X125022408Y-100457896D01*
X125041800Y-100450157D01*
X125096715Y-100406886D01*
X125124359Y-100347984D01*
X125121873Y-100283849D01*
X125086403Y-100224883D01*
X125064285Y-100204618D01*
X125030916Y-100186240D01*
X125000597Y-100191989D01*
X124969393Y-100225073D01*
X124933367Y-100288699D01*
X124888583Y-100386075D01*
X124800925Y-100586345D01*
X124714087Y-100591659D01*
X124649143Y-100589313D01*
X124567070Y-100559774D01*
X124521841Y-100522488D01*
X124471318Y-100445184D01*
X124445796Y-100353482D01*
X124445970Y-100345320D01*
X124578201Y-100345320D01*
X124608819Y-100415920D01*
X124624128Y-100435486D01*
X124658776Y-100459177D01*
X124693018Y-100449272D01*
X124729576Y-100404204D01*
X124771172Y-100322403D01*
X124777198Y-100308868D01*
X124805233Y-100244142D01*
X124824952Y-100195713D01*
X124832403Y-100173209D01*
X124826918Y-100169799D01*
X124793428Y-100168431D01*
X124739596Y-100173309D01*
X124686953Y-100185596D01*
X124620631Y-100223919D01*
X124583260Y-100279240D01*
X124578201Y-100345320D01*
X124445970Y-100345320D01*
X124447816Y-100258686D01*
X124479920Y-100172101D01*
X124492247Y-100153040D01*
X124530392Y-100109320D01*
X124578647Y-100079420D01*
X124644190Y-100060992D01*
X124734200Y-100051690D01*
X124793428Y-100050461D01*
X124855856Y-100049166D01*
X124907929Y-100049547D01*
G36*
X124907929Y-100049547D02*
G01*
X125010527Y-100054319D01*
X125085606Y-100066810D01*
X125141228Y-100089839D01*
X125185455Y-100126228D01*
X125226349Y-100178798D01*
X125244946Y-100212246D01*
X125257471Y-100265862D01*
X125256483Y-100341180D01*
X125252515Y-100383288D01*
X125240400Y-100434081D01*
X125214065Y-100474680D01*
X125164994Y-100521911D01*
X125157826Y-100528222D01*
X125102669Y-100570683D01*
X125054630Y-100590942D01*
X124997664Y-100596114D01*
X124913951Y-100596114D01*
X124936032Y-100537614D01*
X124961844Y-100494966D01*
X125022408Y-100457896D01*
X125041800Y-100450157D01*
X125096715Y-100406886D01*
X125124359Y-100347984D01*
X125121873Y-100283849D01*
X125086403Y-100224883D01*
X125064285Y-100204618D01*
X125030916Y-100186240D01*
X125000597Y-100191989D01*
X124969393Y-100225073D01*
X124933367Y-100288699D01*
X124888583Y-100386075D01*
X124800925Y-100586345D01*
X124714087Y-100591659D01*
X124649143Y-100589313D01*
X124567070Y-100559774D01*
X124521841Y-100522488D01*
X124471318Y-100445184D01*
X124445796Y-100353482D01*
X124445970Y-100345320D01*
X124578201Y-100345320D01*
X124608819Y-100415920D01*
X124624128Y-100435486D01*
X124658776Y-100459177D01*
X124693018Y-100449272D01*
X124729576Y-100404204D01*
X124771172Y-100322403D01*
X124777198Y-100308868D01*
X124805233Y-100244142D01*
X124824952Y-100195713D01*
X124832403Y-100173209D01*
X124826918Y-100169799D01*
X124793428Y-100168431D01*
X124739596Y-100173309D01*
X124686953Y-100185596D01*
X124620631Y-100223919D01*
X124583260Y-100279240D01*
X124578201Y-100345320D01*
X124445970Y-100345320D01*
X124447816Y-100258686D01*
X124479920Y-100172101D01*
X124492247Y-100153040D01*
X124530392Y-100109320D01*
X124578647Y-100079420D01*
X124644190Y-100060992D01*
X124734200Y-100051690D01*
X124793428Y-100050461D01*
X124855856Y-100049166D01*
X124907929Y-100049547D01*
G37*
X121645571Y-93215460D02*
X121647998Y-93227868D01*
X121660568Y-93293761D01*
X121677650Y-93384876D01*
X121697309Y-93490856D01*
X121717612Y-93601345D01*
X121725779Y-93644855D01*
X121745647Y-93742078D01*
X121764434Y-93823102D01*
X121780339Y-93880483D01*
X121791559Y-93906773D01*
X121809891Y-93918687D01*
X121858396Y-93940377D01*
X121921172Y-93962565D01*
X121944680Y-93970375D01*
X122021846Y-93999125D01*
X122113174Y-94036208D01*
X122203573Y-94075585D01*
X122250790Y-94096645D01*
X122321317Y-94126649D01*
X122374135Y-94147268D01*
X122400392Y-94154934D01*
X122402374Y-94154508D01*
X122430231Y-94139967D01*
X122483990Y-94107177D01*
X122558443Y-94059467D01*
X122648377Y-94000162D01*
X122748584Y-93932591D01*
X123074896Y-93710247D01*
X123367496Y-94002359D01*
X123395651Y-94030611D01*
X123479929Y-94116999D01*
X123552608Y-94194204D01*
X123609592Y-94257702D01*
X123646787Y-94302970D01*
X123660096Y-94325486D01*
X123649970Y-94349937D01*
X123620901Y-94401141D01*
X123576376Y-94473213D01*
X123519891Y-94560500D01*
X123454942Y-94657348D01*
X123390794Y-94752474D01*
X123334307Y-94838291D01*
X123289664Y-94908308D01*
X123260335Y-94957084D01*
X123249788Y-94979177D01*
X123249884Y-94980472D01*
X123260282Y-95009821D01*
X123284492Y-95061867D01*
X123317729Y-95126252D01*
X123318093Y-95126928D01*
X123360921Y-95212439D01*
X123381845Y-95271034D01*
X123381903Y-95307389D01*
X123362134Y-95326185D01*
X123342675Y-95334141D01*
X123290560Y-95355613D01*
X123210444Y-95388687D01*
X123106587Y-95431604D01*
X122983247Y-95482604D01*
X122844681Y-95539927D01*
X122695150Y-95601814D01*
X122559116Y-95657908D01*
X122419530Y-95714983D01*
X122294795Y-95765481D01*
X122189152Y-95807706D01*
X122106845Y-95839965D01*
X122052115Y-95860563D01*
X122029206Y-95867806D01*
X122008198Y-95853974D01*
X121973122Y-95815548D01*
X121932367Y-95761153D01*
X121825747Y-95630565D01*
X121689505Y-95513700D01*
X121539598Y-95428180D01*
X121380451Y-95374529D01*
X121216492Y-95353276D01*
X121052147Y-95364946D01*
X120891841Y-95410066D01*
X120740000Y-95489163D01*
X120601052Y-95602763D01*
X120546940Y-95661995D01*
X120451262Y-95803906D01*
X120388885Y-95955754D01*
X120358324Y-96113099D01*
X120358095Y-96271504D01*
X120386712Y-96426531D01*
X120442690Y-96573740D01*
X120524544Y-96708694D01*
X120630789Y-96826955D01*
X120759939Y-96924083D01*
X120910511Y-96995642D01*
X121081019Y-97037191D01*
X121163202Y-97044817D01*
X121341255Y-97034326D01*
X121510184Y-96987078D01*
X121667002Y-96904471D01*
X121808725Y-96787901D01*
X121932367Y-96638767D01*
X121971462Y-96586399D01*
X122006923Y-96547128D01*
X122029172Y-96532114D01*
X122048568Y-96538101D01*
X122100539Y-96557528D01*
X122180482Y-96588766D01*
X122284153Y-96630121D01*
X122407312Y-96679899D01*
X122545714Y-96736407D01*
X122695117Y-96797951D01*
X122830500Y-96853952D01*
X122970332Y-96911776D01*
X123095352Y-96963460D01*
X123201302Y-97007242D01*
X123283921Y-97041363D01*
X123338952Y-97064062D01*
X123362134Y-97073580D01*
X123362408Y-97073691D01*
X123381983Y-97092732D01*
X123381759Y-97129266D01*
X123360690Y-97188006D01*
X123317729Y-97273668D01*
X123314111Y-97280411D01*
X123281567Y-97344022D01*
X123258530Y-97394253D01*
X123249788Y-97420742D01*
X123260119Y-97442454D01*
X123289268Y-97490976D01*
X123333767Y-97560797D01*
X123390148Y-97646476D01*
X123454942Y-97742572D01*
X123518464Y-97837254D01*
X123575185Y-97924828D01*
X123620027Y-97997318D01*
X123649496Y-98049071D01*
X123660096Y-98074434D01*
X123658750Y-98078754D01*
X123637536Y-98108868D01*
X123593717Y-98160320D01*
X123531389Y-98228585D01*
X123454650Y-98309140D01*
X123367596Y-98397460D01*
X123075097Y-98689472D01*
X122406005Y-98234600D01*
X122256396Y-98303752D01*
X122255953Y-98303957D01*
X122160581Y-98345483D01*
X122054376Y-98387916D01*
X121960249Y-98422102D01*
X121945068Y-98427276D01*
X121874589Y-98453359D01*
X121819822Y-98476879D01*
X121791559Y-98493283D01*
X121787568Y-98499964D01*
X121774177Y-98540068D01*
X121756853Y-98608165D01*
X121737397Y-98696815D01*
X121717612Y-98798575D01*
X121712031Y-98829056D01*
X121691713Y-98939332D01*
X121672575Y-99042229D01*
X121656550Y-99127391D01*
X121645571Y-99184460D01*
X121625325Y-99287037D01*
X121198181Y-99287037D01*
X121145660Y-99287014D01*
X121017527Y-99286581D01*
X120921900Y-99285301D01*
X120853891Y-99282792D01*
X120808613Y-99278674D01*
X120781177Y-99272565D01*
X120766698Y-99264082D01*
X120760287Y-99252845D01*
X120757689Y-99241966D01*
X120748502Y-99197613D01*
X120734471Y-99126854D01*
X120716966Y-99036886D01*
X120697354Y-98934904D01*
X120677005Y-98828103D01*
X120657287Y-98723679D01*
X120639569Y-98628828D01*
X120625218Y-98550746D01*
X120615604Y-98496628D01*
X120612096Y-98473669D01*
X120609977Y-98472118D01*
X120582486Y-98459635D01*
X120529886Y-98438033D01*
X120460672Y-98410837D01*
X120367417Y-98373094D01*
X120259639Y-98326632D01*
X120164652Y-98283082D01*
X120143331Y-98273102D01*
X120076566Y-98245098D01*
X120025070Y-98228319D01*
X119998575Y-98226106D01*
X119996698Y-98227247D01*
X119969045Y-98245376D01*
X119915329Y-98281316D01*
X119840783Y-98331542D01*
X119750642Y-98392530D01*
X119650137Y-98460755D01*
X119535950Y-98537630D01*
X119447250Y-98595297D01*
X119382201Y-98634534D01*
X119336775Y-98657610D01*
X119306943Y-98666794D01*
X119288675Y-98664356D01*
X119287305Y-98663536D01*
X119260685Y-98641483D01*
X119212177Y-98596524D01*
X119146588Y-98533287D01*
X119068727Y-98456401D01*
X118983402Y-98370495D01*
X118896814Y-98281381D01*
X118815427Y-98194088D01*
X118760515Y-98129942D01*
X118730670Y-98087281D01*
X118724484Y-98064439D01*
X118725874Y-98061455D01*
X118744607Y-98030024D01*
X118781213Y-97972963D01*
X118832177Y-97895617D01*
X118893984Y-97803334D01*
X118963119Y-97701458D01*
X119189900Y-97369367D01*
X119121833Y-97219394D01*
X119119861Y-97215037D01*
X119079971Y-97122960D01*
X119040298Y-97025277D01*
X119009154Y-96942421D01*
X119009025Y-96942055D01*
X118984936Y-96876275D01*
X118964590Y-96825637D01*
X118952381Y-96801076D01*
X118951938Y-96800678D01*
X118926936Y-96792341D01*
X118870078Y-96778619D01*
X118787494Y-96760837D01*
X118685311Y-96740319D01*
X118569658Y-96718389D01*
X118565513Y-96717624D01*
X118447499Y-96695731D01*
X118340631Y-96675679D01*
X118251732Y-96658768D01*
X118187625Y-96646293D01*
X118155134Y-96639554D01*
X118153333Y-96639123D01*
X118139424Y-96634687D01*
X118128969Y-96625697D01*
X118121476Y-96607223D01*
X118116452Y-96574332D01*
X118113402Y-96522092D01*
X118111835Y-96445572D01*
X118111256Y-96339838D01*
X118111172Y-96199960D01*
X118111173Y-96182385D01*
X118111287Y-96046589D01*
X118111952Y-95944384D01*
X118113662Y-95870838D01*
X118116909Y-95821018D01*
X118122186Y-95789993D01*
X118129987Y-95772831D01*
X118140805Y-95764599D01*
X118155134Y-95760366D01*
X118155648Y-95760244D01*
X118189331Y-95753288D01*
X118254397Y-95740640D01*
X118344022Y-95723600D01*
X118451384Y-95703464D01*
X118569658Y-95681531D01*
X118579336Y-95679742D01*
X118694130Y-95657877D01*
X118794960Y-95637530D01*
X118875697Y-95620026D01*
X118930214Y-95606689D01*
X118952381Y-95598844D01*
X118952416Y-95598802D01*
X118964680Y-95574076D01*
X118985056Y-95523329D01*
X119009154Y-95457498D01*
X119010463Y-95453791D01*
X119042271Y-95369629D01*
X119082165Y-95271730D01*
X119121833Y-95180525D01*
X119189900Y-95030553D01*
X118963119Y-94698461D01*
X118947168Y-94675071D01*
X118879370Y-94574880D01*
X118819688Y-94485480D01*
X118771636Y-94412215D01*
X118738730Y-94360433D01*
X118724484Y-94335480D01*
X118727750Y-94318383D01*
X118753051Y-94279565D01*
X118803155Y-94219575D01*
X118879469Y-94136750D01*
X118983402Y-94029425D01*
X118992862Y-94019821D01*
X119077625Y-93934658D01*
X119154417Y-93859011D01*
X119218427Y-93797511D01*
X119264841Y-93754787D01*
X119288849Y-93735471D01*
X119288965Y-93735408D01*
X119307243Y-93732954D01*
X119336891Y-93742004D01*
X119381966Y-93764841D01*
X119446524Y-93803747D01*
X119534620Y-93861006D01*
X119650310Y-93938901D01*
X119669837Y-93952175D01*
X119768758Y-94019308D01*
X119856328Y-94078550D01*
X119927311Y-94126372D01*
X119976471Y-94159245D01*
X119998575Y-94173642D01*
X120003257Y-94174728D01*
X120038190Y-94167916D01*
X120095233Y-94147510D01*
X120164652Y-94116837D01*
X120255439Y-94075152D01*
X120363166Y-94028608D01*
X120460672Y-93989083D01*
X120485910Y-93979284D01*
X120550350Y-93953620D01*
X120595243Y-93934767D01*
X120612096Y-93926250D01*
X120613355Y-93916849D01*
X120620639Y-93874597D01*
X120633219Y-93805439D01*
X120649726Y-93716573D01*
X120668792Y-93615192D01*
X120689049Y-93508493D01*
X120709127Y-93403672D01*
X120727659Y-93307924D01*
X120743275Y-93228444D01*
X120754607Y-93172430D01*
X120760287Y-93147075D01*
X120761888Y-93142872D01*
X120770525Y-93132626D01*
X120788913Y-93125003D01*
X120821940Y-93119622D01*
X120874493Y-93116101D01*
X120951459Y-93114059D01*
X121057726Y-93113113D01*
X121198181Y-93112883D01*
X121625325Y-93112883D01*
X121645571Y-93215460D01*
G36*
X121645571Y-93215460D02*
G01*
X121647998Y-93227868D01*
X121660568Y-93293761D01*
X121677650Y-93384876D01*
X121697309Y-93490856D01*
X121717612Y-93601345D01*
X121725779Y-93644855D01*
X121745647Y-93742078D01*
X121764434Y-93823102D01*
X121780339Y-93880483D01*
X121791559Y-93906773D01*
X121809891Y-93918687D01*
X121858396Y-93940377D01*
X121921172Y-93962565D01*
X121944680Y-93970375D01*
X122021846Y-93999125D01*
X122113174Y-94036208D01*
X122203573Y-94075585D01*
X122250790Y-94096645D01*
X122321317Y-94126649D01*
X122374135Y-94147268D01*
X122400392Y-94154934D01*
X122402374Y-94154508D01*
X122430231Y-94139967D01*
X122483990Y-94107177D01*
X122558443Y-94059467D01*
X122648377Y-94000162D01*
X122748584Y-93932591D01*
X123074896Y-93710247D01*
X123367496Y-94002359D01*
X123395651Y-94030611D01*
X123479929Y-94116999D01*
X123552608Y-94194204D01*
X123609592Y-94257702D01*
X123646787Y-94302970D01*
X123660096Y-94325486D01*
X123649970Y-94349937D01*
X123620901Y-94401141D01*
X123576376Y-94473213D01*
X123519891Y-94560500D01*
X123454942Y-94657348D01*
X123390794Y-94752474D01*
X123334307Y-94838291D01*
X123289664Y-94908308D01*
X123260335Y-94957084D01*
X123249788Y-94979177D01*
X123249884Y-94980472D01*
X123260282Y-95009821D01*
X123284492Y-95061867D01*
X123317729Y-95126252D01*
X123318093Y-95126928D01*
X123360921Y-95212439D01*
X123381845Y-95271034D01*
X123381903Y-95307389D01*
X123362134Y-95326185D01*
X123342675Y-95334141D01*
X123290560Y-95355613D01*
X123210444Y-95388687D01*
X123106587Y-95431604D01*
X122983247Y-95482604D01*
X122844681Y-95539927D01*
X122695150Y-95601814D01*
X122559116Y-95657908D01*
X122419530Y-95714983D01*
X122294795Y-95765481D01*
X122189152Y-95807706D01*
X122106845Y-95839965D01*
X122052115Y-95860563D01*
X122029206Y-95867806D01*
X122008198Y-95853974D01*
X121973122Y-95815548D01*
X121932367Y-95761153D01*
X121825747Y-95630565D01*
X121689505Y-95513700D01*
X121539598Y-95428180D01*
X121380451Y-95374529D01*
X121216492Y-95353276D01*
X121052147Y-95364946D01*
X120891841Y-95410066D01*
X120740000Y-95489163D01*
X120601052Y-95602763D01*
X120546940Y-95661995D01*
X120451262Y-95803906D01*
X120388885Y-95955754D01*
X120358324Y-96113099D01*
X120358095Y-96271504D01*
X120386712Y-96426531D01*
X120442690Y-96573740D01*
X120524544Y-96708694D01*
X120630789Y-96826955D01*
X120759939Y-96924083D01*
X120910511Y-96995642D01*
X121081019Y-97037191D01*
X121163202Y-97044817D01*
X121341255Y-97034326D01*
X121510184Y-96987078D01*
X121667002Y-96904471D01*
X121808725Y-96787901D01*
X121932367Y-96638767D01*
X121971462Y-96586399D01*
X122006923Y-96547128D01*
X122029172Y-96532114D01*
X122048568Y-96538101D01*
X122100539Y-96557528D01*
X122180482Y-96588766D01*
X122284153Y-96630121D01*
X122407312Y-96679899D01*
X122545714Y-96736407D01*
X122695117Y-96797951D01*
X122830500Y-96853952D01*
X122970332Y-96911776D01*
X123095352Y-96963460D01*
X123201302Y-97007242D01*
X123283921Y-97041363D01*
X123338952Y-97064062D01*
X123362134Y-97073580D01*
X123362408Y-97073691D01*
X123381983Y-97092732D01*
X123381759Y-97129266D01*
X123360690Y-97188006D01*
X123317729Y-97273668D01*
X123314111Y-97280411D01*
X123281567Y-97344022D01*
X123258530Y-97394253D01*
X123249788Y-97420742D01*
X123260119Y-97442454D01*
X123289268Y-97490976D01*
X123333767Y-97560797D01*
X123390148Y-97646476D01*
X123454942Y-97742572D01*
X123518464Y-97837254D01*
X123575185Y-97924828D01*
X123620027Y-97997318D01*
X123649496Y-98049071D01*
X123660096Y-98074434D01*
X123658750Y-98078754D01*
X123637536Y-98108868D01*
X123593717Y-98160320D01*
X123531389Y-98228585D01*
X123454650Y-98309140D01*
X123367596Y-98397460D01*
X123075097Y-98689472D01*
X122406005Y-98234600D01*
X122256396Y-98303752D01*
X122255953Y-98303957D01*
X122160581Y-98345483D01*
X122054376Y-98387916D01*
X121960249Y-98422102D01*
X121945068Y-98427276D01*
X121874589Y-98453359D01*
X121819822Y-98476879D01*
X121791559Y-98493283D01*
X121787568Y-98499964D01*
X121774177Y-98540068D01*
X121756853Y-98608165D01*
X121737397Y-98696815D01*
X121717612Y-98798575D01*
X121712031Y-98829056D01*
X121691713Y-98939332D01*
X121672575Y-99042229D01*
X121656550Y-99127391D01*
X121645571Y-99184460D01*
X121625325Y-99287037D01*
X121198181Y-99287037D01*
X121145660Y-99287014D01*
X121017527Y-99286581D01*
X120921900Y-99285301D01*
X120853891Y-99282792D01*
X120808613Y-99278674D01*
X120781177Y-99272565D01*
X120766698Y-99264082D01*
X120760287Y-99252845D01*
X120757689Y-99241966D01*
X120748502Y-99197613D01*
X120734471Y-99126854D01*
X120716966Y-99036886D01*
X120697354Y-98934904D01*
X120677005Y-98828103D01*
X120657287Y-98723679D01*
X120639569Y-98628828D01*
X120625218Y-98550746D01*
X120615604Y-98496628D01*
X120612096Y-98473669D01*
X120609977Y-98472118D01*
X120582486Y-98459635D01*
X120529886Y-98438033D01*
X120460672Y-98410837D01*
X120367417Y-98373094D01*
X120259639Y-98326632D01*
X120164652Y-98283082D01*
X120143331Y-98273102D01*
X120076566Y-98245098D01*
X120025070Y-98228319D01*
X119998575Y-98226106D01*
X119996698Y-98227247D01*
X119969045Y-98245376D01*
X119915329Y-98281316D01*
X119840783Y-98331542D01*
X119750642Y-98392530D01*
X119650137Y-98460755D01*
X119535950Y-98537630D01*
X119447250Y-98595297D01*
X119382201Y-98634534D01*
X119336775Y-98657610D01*
X119306943Y-98666794D01*
X119288675Y-98664356D01*
X119287305Y-98663536D01*
X119260685Y-98641483D01*
X119212177Y-98596524D01*
X119146588Y-98533287D01*
X119068727Y-98456401D01*
X118983402Y-98370495D01*
X118896814Y-98281381D01*
X118815427Y-98194088D01*
X118760515Y-98129942D01*
X118730670Y-98087281D01*
X118724484Y-98064439D01*
X118725874Y-98061455D01*
X118744607Y-98030024D01*
X118781213Y-97972963D01*
X118832177Y-97895617D01*
X118893984Y-97803334D01*
X118963119Y-97701458D01*
X119189900Y-97369367D01*
X119121833Y-97219394D01*
X119119861Y-97215037D01*
X119079971Y-97122960D01*
X119040298Y-97025277D01*
X119009154Y-96942421D01*
X119009025Y-96942055D01*
X118984936Y-96876275D01*
X118964590Y-96825637D01*
X118952381Y-96801076D01*
X118951938Y-96800678D01*
X118926936Y-96792341D01*
X118870078Y-96778619D01*
X118787494Y-96760837D01*
X118685311Y-96740319D01*
X118569658Y-96718389D01*
X118565513Y-96717624D01*
X118447499Y-96695731D01*
X118340631Y-96675679D01*
X118251732Y-96658768D01*
X118187625Y-96646293D01*
X118155134Y-96639554D01*
X118153333Y-96639123D01*
X118139424Y-96634687D01*
X118128969Y-96625697D01*
X118121476Y-96607223D01*
X118116452Y-96574332D01*
X118113402Y-96522092D01*
X118111835Y-96445572D01*
X118111256Y-96339838D01*
X118111172Y-96199960D01*
X118111173Y-96182385D01*
X118111287Y-96046589D01*
X118111952Y-95944384D01*
X118113662Y-95870838D01*
X118116909Y-95821018D01*
X118122186Y-95789993D01*
X118129987Y-95772831D01*
X118140805Y-95764599D01*
X118155134Y-95760366D01*
X118155648Y-95760244D01*
X118189331Y-95753288D01*
X118254397Y-95740640D01*
X118344022Y-95723600D01*
X118451384Y-95703464D01*
X118569658Y-95681531D01*
X118579336Y-95679742D01*
X118694130Y-95657877D01*
X118794960Y-95637530D01*
X118875697Y-95620026D01*
X118930214Y-95606689D01*
X118952381Y-95598844D01*
X118952416Y-95598802D01*
X118964680Y-95574076D01*
X118985056Y-95523329D01*
X119009154Y-95457498D01*
X119010463Y-95453791D01*
X119042271Y-95369629D01*
X119082165Y-95271730D01*
X119121833Y-95180525D01*
X119189900Y-95030553D01*
X118963119Y-94698461D01*
X118947168Y-94675071D01*
X118879370Y-94574880D01*
X118819688Y-94485480D01*
X118771636Y-94412215D01*
X118738730Y-94360433D01*
X118724484Y-94335480D01*
X118727750Y-94318383D01*
X118753051Y-94279565D01*
X118803155Y-94219575D01*
X118879469Y-94136750D01*
X118983402Y-94029425D01*
X118992862Y-94019821D01*
X119077625Y-93934658D01*
X119154417Y-93859011D01*
X119218427Y-93797511D01*
X119264841Y-93754787D01*
X119288849Y-93735471D01*
X119288965Y-93735408D01*
X119307243Y-93732954D01*
X119336891Y-93742004D01*
X119381966Y-93764841D01*
X119446524Y-93803747D01*
X119534620Y-93861006D01*
X119650310Y-93938901D01*
X119669837Y-93952175D01*
X119768758Y-94019308D01*
X119856328Y-94078550D01*
X119927311Y-94126372D01*
X119976471Y-94159245D01*
X119998575Y-94173642D01*
X120003257Y-94174728D01*
X120038190Y-94167916D01*
X120095233Y-94147510D01*
X120164652Y-94116837D01*
X120255439Y-94075152D01*
X120363166Y-94028608D01*
X120460672Y-93989083D01*
X120485910Y-93979284D01*
X120550350Y-93953620D01*
X120595243Y-93934767D01*
X120612096Y-93926250D01*
X120613355Y-93916849D01*
X120620639Y-93874597D01*
X120633219Y-93805439D01*
X120649726Y-93716573D01*
X120668792Y-93615192D01*
X120689049Y-93508493D01*
X120709127Y-93403672D01*
X120727659Y-93307924D01*
X120743275Y-93228444D01*
X120754607Y-93172430D01*
X120760287Y-93147075D01*
X120761888Y-93142872D01*
X120770525Y-93132626D01*
X120788913Y-93125003D01*
X120821940Y-93119622D01*
X120874493Y-93116101D01*
X120951459Y-93114059D01*
X121057726Y-93113113D01*
X121198181Y-93112883D01*
X121625325Y-93112883D01*
X121645571Y-93215460D01*
G37*
%TD*%
M02*
