M48
; DRILL file {KiCad 7.0.8} date Thu Nov 23 12:11:22 2023
; FORMAT={-:-/ absolute / metric / decimal}
; #@! TF.CreationDate,2023-11-23T12:11:22-06:00
; #@! TF.GenerationSoftware,Kicad,Pcbnew,7.0.8
; #@! TF.FileFunction,MixedPlating,1,2
FMAT,2
METRIC
; #@! TA.AperFunction,Plated,PTH,ViaDrill
T1C0.330
; #@! TA.AperFunction,Plated,PTH,ComponentDrill
T2C0.813
; #@! TA.AperFunction,Plated,PTH,ComponentDrill
T3C0.998
%
G90
G05
T1
X138.652Y-91.556
X139.472Y-92.376
X151.611Y-91.723
X154.415Y-92.486
X156.445Y-92.306
T2
X149.136Y-115.164
X149.136Y-122.784
X151.676Y-115.164
X151.676Y-122.784
X154.216Y-115.164
X154.216Y-122.784
X161.836Y-116.434
X161.836Y-118.974
X161.836Y-121.514
X166.916Y-113.894
X166.916Y-124.054
X170.726Y-113.894
X170.726Y-124.054
X174.536Y-113.894
X174.536Y-124.054
X178.346Y-113.894
X178.346Y-124.054
X182.156Y-113.894
X182.156Y-124.054
T3
X118.021Y-88.494
X118.021Y-103.734
X120.561Y-88.494
X120.561Y-103.734
X123.101Y-88.494
X123.101Y-103.734
X125.641Y-88.494
X125.641Y-103.734
X128.181Y-88.494
X128.181Y-103.734
X130.721Y-88.494
X130.721Y-103.734
X131.086Y-116.434
X131.086Y-118.974
X131.086Y-121.514
X132.83Y-94.95
X132.83Y-109.936
X133.261Y-88.494
X133.261Y-103.734
X133.626Y-116.434
X133.626Y-118.974
X133.626Y-121.514
X135.37Y-94.95
X135.37Y-109.936
X135.801Y-88.494
X135.801Y-103.734
X137.91Y-94.95
X137.91Y-109.936
X138.341Y-88.494
X138.341Y-103.734
X140.45Y-94.95
X140.45Y-109.936
X140.881Y-88.494
X140.881Y-103.734
X142.99Y-94.95
X142.99Y-109.936
X143.421Y-88.494
X143.421Y-103.734
X145.53Y-94.95
X145.53Y-109.936
X145.961Y-88.494
X145.961Y-103.734
X148.07Y-94.95
X148.07Y-109.936
X148.501Y-88.494
X148.501Y-103.734
X150.61Y-94.95
X150.61Y-109.936
X151.041Y-88.494
X151.041Y-103.734
X153.15Y-94.95
X153.15Y-109.936
X153.581Y-88.494
X153.581Y-103.734
X155.69Y-94.95
X155.69Y-109.936
X156.121Y-88.494
X156.121Y-103.734
X158.23Y-94.95
X158.23Y-109.936
X158.661Y-88.494
X158.661Y-103.734
X160.77Y-94.95
X160.77Y-109.936
X161.201Y-88.494
X161.201Y-103.734
X163.31Y-94.95
X163.31Y-109.936
X163.741Y-88.494
X163.741Y-103.734
X165.85Y-94.95
X165.85Y-109.936
X166.281Y-88.494
X166.281Y-103.734
X168.39Y-94.95
X168.39Y-109.936
X168.821Y-88.494
X168.821Y-103.734
X170.93Y-94.95
X170.93Y-109.936
X171.361Y-88.494
X171.361Y-103.734
X173.47Y-94.95
X173.47Y-109.936
X173.901Y-88.494
X173.901Y-103.734
X176.01Y-94.95
X176.01Y-109.936
X176.441Y-88.494
X176.441Y-103.734
X178.55Y-94.95
X178.55Y-109.936
X181.09Y-94.95
X181.09Y-109.936
T0
M30
