%TF.GenerationSoftware,KiCad,Pcbnew,7.0.8*%
%TF.CreationDate,2023-11-23T12:11:22-06:00*%
%TF.ProjectId,27C160_Adapter,32374331-3630-45f4-9164-61707465722e,rev?*%
%TF.SameCoordinates,Original*%
%TF.FileFunction,Copper,L2,Bot*%
%TF.FilePolarity,Positive*%
%FSLAX46Y46*%
G04 Gerber Fmt 4.6, Leading zero omitted, Abs format (unit mm)*
G04 Created by KiCad (PCBNEW 7.0.8) date 2023-11-23 12:11:22*
%MOMM*%
%LPD*%
G01*
G04 APERTURE LIST*
%TA.AperFunction,ComponentPad*%
%ADD10O,1.506220X3.014980*%
%TD*%
%TA.AperFunction,ComponentPad*%
%ADD11C,1.320800*%
%TD*%
%TA.AperFunction,ComponentPad*%
%ADD12O,1.320800X2.641600*%
%TD*%
%TA.AperFunction,ComponentPad*%
%ADD13C,1.676400*%
%TD*%
%TA.AperFunction,ComponentPad*%
%ADD14O,2.641600X1.320800*%
%TD*%
%TA.AperFunction,ViaPad*%
%ADD15C,0.685800*%
%TD*%
%TA.AperFunction,Conductor*%
%ADD16C,0.254000*%
%TD*%
G04 APERTURE END LIST*
D10*
%TO.P,U1,40,VCC*%
%TO.N,VCC*%
X132830000Y-94950000D03*
%TO.P,U1,39,A17*%
%TO.N,/A17*%
X135370000Y-94950000D03*
%TO.P,U1,38,A16*%
%TO.N,/A16*%
X137910000Y-94950000D03*
%TO.P,U1,37,A15*%
%TO.N,/A15*%
X140450000Y-94950000D03*
%TO.P,U1,36,A14*%
%TO.N,/A14*%
X142990000Y-94950000D03*
%TO.P,U1,35,A13*%
%TO.N,/A13*%
X145530000Y-94950000D03*
%TO.P,U1,34,A12*%
%TO.N,/A12*%
X148070000Y-94950000D03*
%TO.P,U1,33,A11*%
%TO.N,/A11*%
X150610000Y-94950000D03*
%TO.P,U1,32,A10*%
%TO.N,/A10*%
X153150000Y-94950000D03*
%TO.P,U1,31,A9*%
%TO.N,/A9*%
X155690000Y-94950000D03*
%TO.P,U1,30,GND*%
%TO.N,GND*%
X158230000Y-94950000D03*
%TO.P,U1,29,A8*%
%TO.N,/A8*%
X160770000Y-94950000D03*
%TO.P,U1,28,A7*%
%TO.N,/A7*%
X163310000Y-94950000D03*
%TO.P,U1,27,A6*%
%TO.N,/A6*%
X165850000Y-94950000D03*
%TO.P,U1,26,A5*%
%TO.N,/A5*%
X168390000Y-94950000D03*
%TO.P,U1,25,A4*%
%TO.N,/A4*%
X170930000Y-94950000D03*
%TO.P,U1,24,A3*%
%TO.N,/A3*%
X173470000Y-94950000D03*
%TO.P,U1,23,A2*%
%TO.N,/A2*%
X176010000Y-94950000D03*
%TO.P,U1,22,A1*%
%TO.N,/A1*%
X178550000Y-94950000D03*
%TO.P,U1,21,A0*%
%TO.N,/A0*%
X181090000Y-94950000D03*
%TO.P,U1,20,/G*%
%TO.N,/N$5*%
X181090000Y-109936000D03*
%TO.P,U1,19,D0*%
%TO.N,/D0*%
X178550000Y-109936000D03*
%TO.P,U1,18,D1*%
%TO.N,/D1*%
X176010000Y-109936000D03*
%TO.P,U1,17,D2*%
%TO.N,/D2*%
X173470000Y-109936000D03*
%TO.P,U1,16,D3*%
%TO.N,/D3*%
X170930000Y-109936000D03*
%TO.P,U1,15,D4*%
%TO.N,/D4*%
X168390000Y-109936000D03*
%TO.P,U1,14,D5*%
%TO.N,/D5*%
X165850000Y-109936000D03*
%TO.P,U1,13,D6*%
%TO.N,/D6*%
X163310000Y-109936000D03*
%TO.P,U1,12,D7*%
%TO.N,/D7*%
X160770000Y-109936000D03*
%TO.P,U1,11,GND*%
%TO.N,GND*%
X158230000Y-109936000D03*
%TO.P,U1,10,D8*%
%TO.N,/D8*%
X155690000Y-109936000D03*
%TO.P,U1,9,D9*%
%TO.N,/D9*%
X153150000Y-109936000D03*
%TO.P,U1,8,D10*%
%TO.N,/D10*%
X150610000Y-109936000D03*
%TO.P,U1,7,D11*%
%TO.N,/D11*%
X148070000Y-109936000D03*
%TO.P,U1,6,D12*%
%TO.N,/D12*%
X145530000Y-109936000D03*
%TO.P,U1,5,D13*%
%TO.N,/D13*%
X142990000Y-109936000D03*
%TO.P,U1,4,D14*%
%TO.N,/D14*%
X140450000Y-109936000D03*
%TO.P,U1,3,D15*%
%TO.N,/D15*%
X137910000Y-109936000D03*
%TO.P,U1,2,/CE*%
%TO.N,/E*%
X135370000Y-109936000D03*
%TO.P,U1,1,VPP*%
%TO.N,/VPP*%
X132830000Y-109936000D03*
%TD*%
D11*
%TO.P,R1,1,1*%
%TO.N,/A20*%
X182156000Y-124054000D03*
%TO.P,R1,2,2*%
%TO.N,VCC*%
X182156000Y-113894000D03*
%TD*%
%TO.P,R2,1,1*%
%TO.N,/A19*%
X178346000Y-124054000D03*
%TO.P,R2,2,2*%
%TO.N,VCC*%
X178346000Y-113894000D03*
%TD*%
D12*
%TO.P,SW2,1,1*%
%TO.N,GND*%
X149136000Y-122784000D03*
%TO.P,SW2,2,2*%
X151676000Y-122784000D03*
%TO.P,SW2,3,3*%
X154216000Y-122784000D03*
%TO.P,SW2,4,4*%
%TO.N,/A20*%
X154216000Y-115164000D03*
%TO.P,SW2,5,5*%
%TO.N,/A19*%
X151676000Y-115164000D03*
%TO.P,SW2,6,6*%
%TO.N,/A18*%
X149136000Y-115164000D03*
%TD*%
D11*
%TO.P,R3,1,1*%
%TO.N,/A18*%
X174536000Y-124054000D03*
%TO.P,R3,2,2*%
%TO.N,VCC*%
X174536000Y-113894000D03*
%TD*%
D13*
%TO.P,SW1,1,O*%
%TO.N,/VPP*%
X131086000Y-121514000D03*
%TO.P,SW1,2,P*%
%TO.N,/N$2*%
X131086000Y-118974000D03*
%TO.P,SW1,3,S*%
%TO.N,/A20*%
X131086000Y-116434000D03*
%TO.P,SW1,4,O1*%
%TO.N,/N$5*%
X133626000Y-121514000D03*
%TO.P,SW1,5,P1*%
%TO.N,/N$6*%
X133626000Y-118974000D03*
%TO.P,SW1,6,S1*%
%TO.N,/N$4*%
X133626000Y-116434000D03*
%TD*%
D11*
%TO.P,R4,1,1*%
%TO.N,GND*%
X170726000Y-124054000D03*
%TO.P,R4,2,2*%
%TO.N,/N$4*%
X170726000Y-113894000D03*
%TD*%
%TO.P,R5,1,1*%
%TO.N,VCC*%
X166916000Y-124054000D03*
%TO.P,R5,2,2*%
%TO.N,/N$1*%
X166916000Y-113894000D03*
%TD*%
D14*
%TO.P,Q1,B,B*%
%TO.N,/N$1*%
X161836000Y-118974000D03*
%TO.P,Q1,C,C*%
%TO.N,/N$4*%
X161836000Y-121514000D03*
%TO.P,Q1,E,E*%
%TO.N,/VPP*%
X161836000Y-116434000D03*
%TD*%
D10*
%TO.P,ZX1,48,48*%
%TO.N,unconnected-(ZX1-Pad48)*%
X118021000Y-88493600D03*
%TO.P,ZX1,47,47*%
%TO.N,unconnected-(ZX1-Pad47)*%
X120561000Y-88493600D03*
%TO.P,ZX1,46,46*%
%TO.N,unconnected-(ZX1-Pad46)*%
X123101000Y-88493600D03*
%TO.P,ZX1,45,45*%
%TO.N,/A19*%
X125641000Y-88493600D03*
%TO.P,ZX1,44,44*%
%TO.N,/A8*%
X128181000Y-88493600D03*
%TO.P,ZX1,43,43*%
%TO.N,/A9*%
X130721000Y-88493600D03*
%TO.P,ZX1,42,42*%
%TO.N,/A10*%
X133261000Y-88493600D03*
%TO.P,ZX1,41,41*%
%TO.N,/A11*%
X135801000Y-88493600D03*
%TO.P,ZX1,40,40*%
%TO.N,/A12*%
X138341000Y-88493600D03*
%TO.P,ZX1,39,39*%
%TO.N,/A13*%
X140881000Y-88493600D03*
%TO.P,ZX1,38,38*%
%TO.N,/A14*%
X143421000Y-88493600D03*
%TO.P,ZX1,37,37*%
%TO.N,/A15*%
X145961000Y-88493600D03*
%TO.P,ZX1,36,36*%
%TO.N,/A16*%
X148501000Y-88493600D03*
%TO.P,ZX1,35,35*%
%TO.N,/N$2*%
X151041000Y-88493600D03*
%TO.P,ZX1,34,34*%
%TO.N,GND*%
X153581000Y-88493600D03*
%TO.P,ZX1,33,33*%
%TO.N,/D15*%
X156121000Y-88493600D03*
%TO.P,ZX1,32,32*%
%TO.N,/D7*%
X158661000Y-88493600D03*
%TO.P,ZX1,31,31*%
%TO.N,/D14*%
X161201000Y-88493600D03*
%TO.P,ZX1,30,30*%
%TO.N,/D6*%
X163741000Y-88493600D03*
%TO.P,ZX1,29,29*%
%TO.N,/D13*%
X166281000Y-88493600D03*
%TO.P,ZX1,28,28*%
%TO.N,/D5*%
X168821000Y-88493600D03*
%TO.P,ZX1,27,27*%
%TO.N,/D12*%
X171361000Y-88493600D03*
%TO.P,ZX1,26,26*%
%TO.N,/D4*%
X173901000Y-88493600D03*
%TO.P,ZX1,25,25*%
%TO.N,VCC*%
X176441000Y-88493600D03*
%TO.P,ZX1,24,24*%
%TO.N,/D11*%
X176441000Y-103733600D03*
%TO.P,ZX1,23,23*%
%TO.N,/D3*%
X173901000Y-103733600D03*
%TO.P,ZX1,22,22*%
%TO.N,/D10*%
X171361000Y-103733600D03*
%TO.P,ZX1,21,21*%
%TO.N,/D2*%
X168821000Y-103733600D03*
%TO.P,ZX1,20,20*%
%TO.N,/D9*%
X166281000Y-103733600D03*
%TO.P,ZX1,19,19*%
%TO.N,/D1*%
X163741000Y-103733600D03*
%TO.P,ZX1,18,18*%
%TO.N,/D8*%
X161201000Y-103733600D03*
%TO.P,ZX1,17,17*%
%TO.N,/D0*%
X158661000Y-103733600D03*
%TO.P,ZX1,16,16*%
%TO.N,/N$6*%
X156121000Y-103733600D03*
%TO.P,ZX1,15,15*%
%TO.N,GND*%
X153581000Y-103733600D03*
%TO.P,ZX1,14,14*%
%TO.N,/E*%
X151041000Y-103733600D03*
%TO.P,ZX1,13,13*%
%TO.N,/A0*%
X148501000Y-103733600D03*
%TO.P,ZX1,12,12*%
%TO.N,/A1*%
X145961000Y-103733600D03*
%TO.P,ZX1,11,11*%
%TO.N,/A2*%
X143421000Y-103733600D03*
%TO.P,ZX1,10,10*%
%TO.N,/A3*%
X140881000Y-103733600D03*
%TO.P,ZX1,9,9*%
%TO.N,/A4*%
X138341000Y-103733600D03*
%TO.P,ZX1,8,8*%
%TO.N,/A5*%
X135801000Y-103733600D03*
%TO.P,ZX1,7,7*%
%TO.N,/A6*%
X133261000Y-103733600D03*
%TO.P,ZX1,6,6*%
%TO.N,/A7*%
X130721000Y-103733600D03*
%TO.P,ZX1,5,5*%
%TO.N,/A17*%
X128181000Y-103733600D03*
%TO.P,ZX1,4,4*%
%TO.N,/A18*%
X125641000Y-103733600D03*
%TO.P,ZX1,3,3*%
%TO.N,unconnected-(ZX1-Pad3)*%
X123101000Y-103733600D03*
%TO.P,ZX1,2,2*%
%TO.N,unconnected-(ZX1-Pad2)*%
X120561000Y-103733600D03*
%TO.P,ZX1,1,1*%
%TO.N,unconnected-(ZX1-Pad1)*%
X118021000Y-103733600D03*
%TD*%
D15*
%TO.N,/A16*%
X138651900Y-91556000D03*
%TO.N,/D12*%
X156445500Y-92305700D03*
%TO.N,/D13*%
X151611000Y-91722900D03*
%TO.N,/D14*%
X154414600Y-92486500D03*
%TO.N,/D15*%
X139472400Y-92375500D03*
%TD*%
D16*
%TO.N,/A16*%
X137910000Y-94950000D02*
X137910000Y-93059600D01*
X138651900Y-92317700D02*
X138651900Y-91556000D01*
X137910000Y-93059600D02*
X138651900Y-92317700D01*
%TO.N,/A15*%
X145961000Y-88493600D02*
X145961000Y-90384000D01*
X140450000Y-94950000D02*
X140450000Y-96840400D01*
X149247000Y-93670000D02*
X145961000Y-90384000D01*
X149247000Y-96154400D02*
X149247000Y-93670000D01*
X148042300Y-97359100D02*
X149247000Y-96154400D01*
X140968700Y-97359100D02*
X148042300Y-97359100D01*
X140450000Y-96840400D02*
X140968700Y-97359100D01*
%TO.N,/A14*%
X143421000Y-92628600D02*
X142990000Y-93059600D01*
X143421000Y-88493600D02*
X143421000Y-92628600D01*
X142990000Y-94950000D02*
X142990000Y-93059600D01*
%TO.N,/A13*%
X140881000Y-88493600D02*
X140881000Y-86603200D01*
X145530000Y-94950000D02*
X145530000Y-93059600D01*
X144691000Y-92220600D02*
X145530000Y-93059600D01*
X144691000Y-87355100D02*
X144691000Y-92220600D01*
X143939100Y-86603200D02*
X144691000Y-87355100D01*
X140881000Y-86603200D02*
X143939100Y-86603200D01*
%TO.N,/A12*%
X138341000Y-88493600D02*
X138341000Y-90384000D01*
X138507400Y-90384000D02*
X138341000Y-90384000D01*
X141720000Y-93596600D02*
X138507400Y-90384000D01*
X141720000Y-96109400D02*
X141720000Y-93596600D01*
X142454600Y-96844000D02*
X141720000Y-96109400D01*
X146176000Y-96844000D02*
X142454600Y-96844000D01*
X148070000Y-94950000D02*
X146176000Y-96844000D01*
%TO.N,/A11*%
X150610000Y-94950000D02*
X150610000Y-93059600D01*
X147231000Y-89680600D02*
X150610000Y-93059600D01*
X147231000Y-87400700D02*
X147231000Y-89680600D01*
X145915900Y-86085600D02*
X147231000Y-87400700D01*
X138209000Y-86085600D02*
X145915900Y-86085600D01*
X135801000Y-88493600D02*
X138209000Y-86085600D01*
%TO.N,/A10*%
X153150000Y-94950000D02*
X153150000Y-93059600D01*
X153150000Y-92235400D02*
X153150000Y-93059600D01*
X151556400Y-90641800D02*
X153150000Y-92235400D01*
X150777800Y-90641800D02*
X151556400Y-90641800D01*
X149771000Y-89635000D02*
X150777800Y-90641800D01*
X149771000Y-87391100D02*
X149771000Y-89635000D01*
X147955600Y-85575700D02*
X149771000Y-87391100D01*
X136178900Y-85575700D02*
X147955600Y-85575700D01*
X133261000Y-88493600D02*
X136178900Y-85575700D01*
%TO.N,/A9*%
X130721000Y-88493600D02*
X130721000Y-86603200D01*
X155690000Y-94950000D02*
X155690000Y-93059600D01*
X132771300Y-84552900D02*
X130721000Y-86603200D01*
X149515900Y-84552900D02*
X132771300Y-84552900D01*
X152400900Y-87437900D02*
X149515900Y-84552900D01*
X152400900Y-89995700D02*
X152400900Y-87437900D01*
X154165900Y-91760700D02*
X152400900Y-89995700D01*
X154715300Y-91760700D02*
X154165900Y-91760700D01*
X155690000Y-92735400D02*
X154715300Y-91760700D01*
X155690000Y-93059600D02*
X155690000Y-92735400D01*
%TO.N,/A8*%
X128181000Y-88493600D02*
X128181000Y-86603200D01*
X160770000Y-94950000D02*
X160770000Y-93059600D01*
X130741200Y-84043000D02*
X128181000Y-86603200D01*
X156584400Y-84043000D02*
X130741200Y-84043000D01*
X160008400Y-87467000D02*
X156584400Y-84043000D01*
X160008400Y-92298000D02*
X160008400Y-87467000D01*
X160770000Y-93059600D02*
X160008400Y-92298000D01*
%TO.N,/D2*%
X171048400Y-105624000D02*
X173470000Y-108045600D01*
X168821000Y-105624000D02*
X171048400Y-105624000D01*
X168821000Y-103733600D02*
X168821000Y-105624000D01*
X173470000Y-109936000D02*
X173470000Y-108045600D01*
%TO.N,/D3*%
X173901000Y-103733600D02*
X173901000Y-105624000D01*
X170930000Y-109936000D02*
X170930000Y-111826400D01*
X173986800Y-111826400D02*
X170930000Y-111826400D01*
X174616500Y-111196700D02*
X173986800Y-111826400D01*
X174616500Y-106339500D02*
X174616500Y-111196700D01*
X173901000Y-105624000D02*
X174616500Y-106339500D01*
%TO.N,/D4*%
X177280000Y-93763000D02*
X173901000Y-90384000D01*
X177280000Y-99380600D02*
X177280000Y-93763000D01*
X177582600Y-99683200D02*
X177280000Y-99380600D01*
X177582600Y-104953000D02*
X177582600Y-99683200D01*
X177280000Y-105255600D02*
X177582600Y-104953000D01*
X177280000Y-111077000D02*
X177280000Y-105255600D01*
X175981700Y-112375300D02*
X177280000Y-111077000D01*
X168938900Y-112375300D02*
X175981700Y-112375300D01*
X168390000Y-111826400D02*
X168938900Y-112375300D01*
X168390000Y-109936000D02*
X168390000Y-111826400D01*
X173901000Y-88493600D02*
X173901000Y-90384000D01*
%TO.N,/D5*%
X167551000Y-106344600D02*
X165850000Y-108045600D01*
X167551000Y-100627100D02*
X167551000Y-106344600D01*
X169555100Y-98623000D02*
X167551000Y-100627100D01*
X169555100Y-91118100D02*
X169555100Y-98623000D01*
X168821000Y-90384000D02*
X169555100Y-91118100D01*
X168821000Y-88493600D02*
X168821000Y-90384000D01*
X165850000Y-109936000D02*
X165850000Y-108045600D01*
%TO.N,/D6*%
X163741000Y-88493600D02*
X163741000Y-90384000D01*
X163310000Y-109936000D02*
X163310000Y-108045600D01*
X164881600Y-106474000D02*
X163310000Y-108045600D01*
X164881600Y-102359400D02*
X164881600Y-106474000D01*
X164580000Y-102057800D02*
X164881600Y-102359400D01*
X164580000Y-91223000D02*
X164580000Y-102057800D01*
X163741000Y-90384000D02*
X164580000Y-91223000D01*
%TO.N,/D7*%
X159432300Y-91155300D02*
X158661000Y-90384000D01*
X159432300Y-96264300D02*
X159432300Y-91155300D01*
X162352200Y-99184200D02*
X159432300Y-96264300D01*
X162352200Y-106463400D02*
X162352200Y-99184200D01*
X160770000Y-108045600D02*
X162352200Y-106463400D01*
X160770000Y-109936000D02*
X160770000Y-108045600D01*
X158661000Y-88493600D02*
X158661000Y-90384000D01*
%TO.N,/D8*%
X158728700Y-111826400D02*
X155690000Y-111826400D01*
X159600100Y-110955000D02*
X158728700Y-111826400D01*
X159600100Y-107224900D02*
X159600100Y-110955000D01*
X161201000Y-105624000D02*
X159600100Y-107224900D01*
X161201000Y-103733600D02*
X161201000Y-105624000D01*
X155690000Y-109936000D02*
X155690000Y-111826400D01*
%TO.N,/D9*%
X153150000Y-109936000D02*
X153150000Y-111826400D01*
X153670100Y-112346500D02*
X153150000Y-111826400D01*
X163271300Y-112346500D02*
X153670100Y-112346500D01*
X164580000Y-111037800D02*
X163271300Y-112346500D01*
X164580000Y-108436900D02*
X164580000Y-111037800D01*
X166281000Y-106735900D02*
X164580000Y-108436900D01*
X166281000Y-103733600D02*
X166281000Y-106735900D01*
%TO.N,/D12*%
X145530000Y-109936000D02*
X145530000Y-108045600D01*
X156861900Y-92722100D02*
X156445500Y-92305700D01*
X156861900Y-96150100D02*
X156861900Y-92722100D01*
X152564000Y-100448000D02*
X156861900Y-96150100D01*
X151952900Y-100448000D02*
X152564000Y-100448000D01*
X149771000Y-102629900D02*
X151952900Y-100448000D01*
X149771000Y-104857500D02*
X149771000Y-102629900D01*
X146582900Y-108045600D02*
X149771000Y-104857500D01*
X145530000Y-108045600D02*
X146582900Y-108045600D01*
%TO.N,/D13*%
X151762400Y-91874300D02*
X151611000Y-91722900D01*
X151762400Y-96167600D02*
X151762400Y-91874300D01*
X147680600Y-100249400D02*
X151762400Y-96167600D01*
X147026500Y-100249400D02*
X147680600Y-100249400D01*
X144691000Y-102584900D02*
X147026500Y-100249400D01*
X144691000Y-105882900D02*
X144691000Y-102584900D01*
X142990000Y-107583900D02*
X144691000Y-105882900D01*
X142990000Y-109936000D02*
X142990000Y-107583900D01*
%TO.N,/D14*%
X143463400Y-111826400D02*
X140450000Y-111826400D01*
X144260000Y-111029800D02*
X143463400Y-111826400D01*
X144260000Y-108436900D02*
X144260000Y-111029800D01*
X147231000Y-105465900D02*
X144260000Y-108436900D01*
X147231000Y-102596500D02*
X147231000Y-105465900D01*
X148640800Y-101186700D02*
X147231000Y-102596500D01*
X149281700Y-101186700D02*
X148640800Y-101186700D01*
X154414600Y-96053800D02*
X149281700Y-101186700D01*
X154414600Y-92486500D02*
X154414600Y-96053800D01*
X140450000Y-109936000D02*
X140450000Y-111826400D01*
%TO.N,/D15*%
X139180000Y-92667900D02*
X139472400Y-92375500D01*
X139180000Y-98056500D02*
X139180000Y-92667900D01*
X137205000Y-100031500D02*
X139180000Y-98056500D01*
X137205000Y-107340600D02*
X137205000Y-100031500D01*
X137910000Y-108045600D02*
X137205000Y-107340600D01*
X137910000Y-109936000D02*
X137910000Y-108045600D01*
%TO.N,/N$6*%
X141404000Y-118974000D02*
X133626000Y-118974000D01*
X149340000Y-111038000D02*
X141404000Y-118974000D01*
X149340000Y-108833000D02*
X149340000Y-111038000D01*
X152549000Y-105624000D02*
X149340000Y-108833000D01*
X156121000Y-105624000D02*
X152549000Y-105624000D01*
X156121000Y-103733600D02*
X156121000Y-105624000D01*
%TO.N,/N$2*%
X132356000Y-117704000D02*
X131086000Y-118974000D01*
X132356000Y-114245100D02*
X132356000Y-117704000D01*
X133991600Y-112609500D02*
X132356000Y-114245100D01*
X133991600Y-107077400D02*
X133991600Y-112609500D01*
X131991000Y-105076800D02*
X133991600Y-107077400D01*
X131991000Y-99303000D02*
X131991000Y-105076800D01*
X131688400Y-99000400D02*
X131991000Y-99303000D01*
X131688400Y-93730600D02*
X131688400Y-99000400D01*
X131991000Y-93428000D02*
X131688400Y-93730600D01*
X131991000Y-87329500D02*
X131991000Y-93428000D01*
X134256200Y-85064300D02*
X131991000Y-87329500D01*
X148165300Y-85064300D02*
X134256200Y-85064300D01*
X151041000Y-87940000D02*
X148165300Y-85064300D01*
X151041000Y-88493600D02*
X151041000Y-87940000D01*
%TO.N,/A18*%
X172977500Y-125612500D02*
X174536000Y-124054000D01*
X159584500Y-125612500D02*
X172977500Y-125612500D01*
X150839700Y-116867700D02*
X159584500Y-125612500D01*
X149136000Y-116867700D02*
X150839700Y-116867700D01*
X149136000Y-115164000D02*
X149136000Y-116867700D01*
%TO.N,/A19*%
X151676000Y-115164000D02*
X151676000Y-116867700D01*
X159906400Y-125098100D02*
X151676000Y-116867700D01*
X171841900Y-125098100D02*
X159906400Y-125098100D01*
X173952400Y-122987600D02*
X171841900Y-125098100D01*
X177279600Y-122987600D02*
X173952400Y-122987600D01*
X178346000Y-124054000D02*
X177279600Y-122987600D01*
%TO.N,/N$1*%
X162879300Y-117930700D02*
X166916000Y-113894000D01*
X161836000Y-117930700D02*
X162879300Y-117930700D01*
X161836000Y-118974000D02*
X161836000Y-117930700D01*
%TO.N,/VPP*%
X129848100Y-120276100D02*
X131086000Y-121514000D01*
X129848100Y-114808300D02*
X129848100Y-120276100D01*
X132830000Y-111826400D02*
X129848100Y-114808300D01*
X132830000Y-109936000D02*
X132830000Y-111826400D01*
%TO.N,/N$4*%
X163539700Y-121080300D02*
X170726000Y-113894000D01*
X163539700Y-121514000D02*
X163539700Y-121080300D01*
X161836000Y-121514000D02*
X163539700Y-121514000D01*
%TO.N,VCC*%
X166916000Y-121514000D02*
X166916000Y-124054000D01*
X174536000Y-113894000D02*
X166916000Y-121514000D01*
X176441000Y-88493600D02*
X176441000Y-90384000D01*
X179697100Y-93640100D02*
X179697100Y-112665800D01*
X176441000Y-90384000D02*
X179697100Y-93640100D01*
X180927800Y-112665800D02*
X179697100Y-112665800D01*
X182156000Y-113894000D02*
X180927800Y-112665800D01*
X179574200Y-112665800D02*
X178346000Y-113894000D01*
X179697100Y-112665800D02*
X179574200Y-112665800D01*
%TO.N,GND*%
X158230000Y-94950000D02*
X158230000Y-93059600D01*
X153581000Y-88493600D02*
X153581000Y-90384000D01*
X155554400Y-90384000D02*
X153581000Y-90384000D01*
X158230000Y-93059600D02*
X155554400Y-90384000D01*
X158230000Y-109936000D02*
X158230000Y-108045600D01*
X149136000Y-122784000D02*
X149136000Y-121080300D01*
X153581000Y-103733600D02*
X153581000Y-101843200D01*
X153476900Y-107206600D02*
X157391000Y-107206600D01*
X151935200Y-108748300D02*
X153476900Y-107206600D01*
X151935200Y-110996500D02*
X151935200Y-108748300D01*
X149644400Y-113287300D02*
X151935200Y-110996500D01*
X148869300Y-113287300D02*
X149644400Y-113287300D01*
X148079500Y-114077100D02*
X148869300Y-113287300D01*
X148079500Y-120023800D02*
X148079500Y-114077100D01*
X149136000Y-121080300D02*
X148079500Y-120023800D01*
X157391000Y-107206600D02*
X158230000Y-108045600D01*
X153581000Y-101843200D02*
X157391000Y-101843200D01*
X158230000Y-101004200D02*
X157391000Y-101843200D01*
X158230000Y-94950000D02*
X158230000Y-101004200D01*
X157391000Y-101843200D02*
X157391000Y-107206600D01*
%TD*%
%TA.AperFunction,Conductor*%
%TO.N,GND*%
G36*
X130496347Y-83534185D02*
G01*
X130542102Y-83586989D01*
X130552046Y-83656147D01*
X130523021Y-83719703D01*
X130505474Y-83736351D01*
X130503638Y-83737780D01*
X130465869Y-83778807D01*
X127948309Y-86296366D01*
X127928454Y-86312491D01*
X127919045Y-86318638D01*
X127919041Y-86318642D01*
X127896856Y-86347144D01*
X127891778Y-86352896D01*
X127888898Y-86355777D01*
X127888884Y-86355793D01*
X127875098Y-86375101D01*
X127840843Y-86419112D01*
X127837035Y-86426147D01*
X127833524Y-86433331D01*
X127817609Y-86486786D01*
X127799499Y-86539540D01*
X127798185Y-86547414D01*
X127797194Y-86555362D01*
X127799500Y-86611083D01*
X127799500Y-86726296D01*
X127779815Y-86793335D01*
X127733953Y-86835654D01*
X127618494Y-86897367D01*
X127618491Y-86897369D01*
X127465064Y-87023284D01*
X127339151Y-87176709D01*
X127245585Y-87351760D01*
X127187969Y-87541695D01*
X127182091Y-87601383D01*
X127174058Y-87682947D01*
X127173390Y-87689727D01*
X127173390Y-89297472D01*
X127187969Y-89445504D01*
X127215100Y-89534941D01*
X127245586Y-89635441D01*
X127332591Y-89798218D01*
X127339151Y-89810490D01*
X127465064Y-89963915D01*
X127618489Y-90089828D01*
X127618493Y-90089831D01*
X127793539Y-90183394D01*
X127983474Y-90241010D01*
X127983473Y-90241010D01*
X128001183Y-90242754D01*
X128181000Y-90260465D01*
X128378526Y-90241010D01*
X128568461Y-90183394D01*
X128743507Y-90089831D01*
X128896935Y-89963915D01*
X129022851Y-89810487D01*
X129116414Y-89635441D01*
X129174030Y-89445506D01*
X129188610Y-89297476D01*
X129188610Y-87689724D01*
X129174030Y-87541694D01*
X129116414Y-87351759D01*
X129022851Y-87176713D01*
X129019955Y-87173184D01*
X128896935Y-87023284D01*
X128743508Y-86897369D01*
X128743505Y-86897367D01*
X128684278Y-86865710D01*
X128634433Y-86816748D01*
X128618973Y-86748610D01*
X128642805Y-86682930D01*
X128655043Y-86668678D01*
X130862904Y-84460819D01*
X130924227Y-84427334D01*
X130950585Y-84424500D01*
X132060816Y-84424500D01*
X132127855Y-84444185D01*
X132173610Y-84496989D01*
X132183554Y-84566147D01*
X132154529Y-84629703D01*
X132148497Y-84636181D01*
X130488309Y-86296366D01*
X130468454Y-86312491D01*
X130459045Y-86318638D01*
X130459041Y-86318642D01*
X130436856Y-86347144D01*
X130431778Y-86352896D01*
X130428898Y-86355777D01*
X130428884Y-86355793D01*
X130415098Y-86375101D01*
X130380843Y-86419112D01*
X130377035Y-86426147D01*
X130373524Y-86433331D01*
X130357609Y-86486786D01*
X130339499Y-86539540D01*
X130338185Y-86547414D01*
X130337194Y-86555362D01*
X130339500Y-86611083D01*
X130339500Y-86726296D01*
X130319815Y-86793335D01*
X130273953Y-86835654D01*
X130158494Y-86897367D01*
X130158491Y-86897369D01*
X130005064Y-87023284D01*
X129879151Y-87176709D01*
X129785585Y-87351760D01*
X129727969Y-87541695D01*
X129722091Y-87601383D01*
X129714058Y-87682947D01*
X129713390Y-87689727D01*
X129713390Y-89297472D01*
X129727969Y-89445504D01*
X129755100Y-89534941D01*
X129785586Y-89635441D01*
X129872591Y-89798218D01*
X129879151Y-89810490D01*
X130005064Y-89963915D01*
X130158489Y-90089828D01*
X130158493Y-90089831D01*
X130333539Y-90183394D01*
X130523474Y-90241010D01*
X130523473Y-90241010D01*
X130541183Y-90242754D01*
X130721000Y-90260465D01*
X130918526Y-90241010D01*
X131108461Y-90183394D01*
X131283507Y-90089831D01*
X131406835Y-89988618D01*
X131471145Y-89961305D01*
X131540012Y-89973096D01*
X131591573Y-90020248D01*
X131609500Y-90084471D01*
X131609500Y-93218615D01*
X131589815Y-93285654D01*
X131573185Y-93306291D01*
X131514130Y-93365347D01*
X131455710Y-93423767D01*
X131435854Y-93439892D01*
X131426444Y-93446039D01*
X131426439Y-93446044D01*
X131404256Y-93474544D01*
X131399178Y-93480296D01*
X131396298Y-93483177D01*
X131396284Y-93483193D01*
X131382498Y-93502501D01*
X131348243Y-93546512D01*
X131344435Y-93553547D01*
X131340924Y-93560731D01*
X131325009Y-93614186D01*
X131306899Y-93666940D01*
X131305585Y-93674814D01*
X131304594Y-93682762D01*
X131306900Y-93738483D01*
X131306900Y-98947972D01*
X131304261Y-98973420D01*
X131301954Y-98984417D01*
X131306423Y-99020265D01*
X131306900Y-99027941D01*
X131306900Y-99032011D01*
X131309827Y-99049555D01*
X131310803Y-99055405D01*
X131317704Y-99110761D01*
X131319980Y-99118409D01*
X131322581Y-99125985D01*
X131349129Y-99175041D01*
X131373622Y-99225143D01*
X131378280Y-99231667D01*
X131383179Y-99237961D01*
X131383180Y-99237962D01*
X131424218Y-99275740D01*
X131573182Y-99424704D01*
X131606666Y-99486025D01*
X131609500Y-99512384D01*
X131609500Y-102142728D01*
X131589815Y-102209767D01*
X131537011Y-102255522D01*
X131467853Y-102265466D01*
X131406835Y-102238581D01*
X131283510Y-102137371D01*
X131283508Y-102137370D01*
X131283507Y-102137369D01*
X131108461Y-102043806D01*
X131108460Y-102043805D01*
X131108459Y-102043805D01*
X130949339Y-101995537D01*
X130918526Y-101986190D01*
X130918524Y-101986189D01*
X130918526Y-101986189D01*
X130721000Y-101966735D01*
X130523475Y-101986189D01*
X130333540Y-102043805D01*
X130158489Y-102137371D01*
X130005064Y-102263284D01*
X129879151Y-102416709D01*
X129785585Y-102591760D01*
X129727969Y-102781695D01*
X129716988Y-102893184D01*
X129714058Y-102922947D01*
X129713390Y-102929727D01*
X129713390Y-104537472D01*
X129727969Y-104685504D01*
X129727970Y-104685506D01*
X129785586Y-104875441D01*
X129861067Y-105016658D01*
X129879151Y-105050490D01*
X130005064Y-105203915D01*
X130154993Y-105326959D01*
X130158493Y-105329831D01*
X130333539Y-105423394D01*
X130523474Y-105481010D01*
X130523473Y-105481010D01*
X130539749Y-105482613D01*
X130721000Y-105500465D01*
X130918526Y-105481010D01*
X131108461Y-105423394D01*
X131283507Y-105329831D01*
X131436935Y-105203915D01*
X131436937Y-105203913D01*
X131441243Y-105199608D01*
X131443077Y-105201442D01*
X131491434Y-105168436D01*
X131561277Y-105166499D01*
X131621079Y-105202630D01*
X131638706Y-105227379D01*
X131651728Y-105251439D01*
X131676224Y-105301547D01*
X131680869Y-105308053D01*
X131685782Y-105314364D01*
X131726819Y-105352142D01*
X133573781Y-107199103D01*
X133607266Y-107260426D01*
X133610100Y-107286784D01*
X133610100Y-108256166D01*
X133590415Y-108323205D01*
X133537611Y-108368960D01*
X133468453Y-108378904D01*
X133407437Y-108352021D01*
X133392510Y-108339771D01*
X133392508Y-108339770D01*
X133392507Y-108339769D01*
X133217461Y-108246206D01*
X133217460Y-108246205D01*
X133217459Y-108246205D01*
X133068459Y-108201007D01*
X133027526Y-108188590D01*
X133027524Y-108188589D01*
X133027526Y-108188589D01*
X132830000Y-108169135D01*
X132632475Y-108188589D01*
X132442540Y-108246205D01*
X132267489Y-108339771D01*
X132114064Y-108465684D01*
X131988151Y-108619109D01*
X131894585Y-108794160D01*
X131836969Y-108984095D01*
X131822390Y-109132127D01*
X131822390Y-110739872D01*
X131836969Y-110887904D01*
X131836970Y-110887906D01*
X131894586Y-111077841D01*
X131988069Y-111252738D01*
X131988151Y-111252890D01*
X132114064Y-111406315D01*
X132267491Y-111532230D01*
X132267494Y-111532232D01*
X132326720Y-111563889D01*
X132376565Y-111612851D01*
X132392025Y-111680989D01*
X132368193Y-111746669D01*
X132355948Y-111760928D01*
X129615409Y-114501466D01*
X129595554Y-114517591D01*
X129586145Y-114523738D01*
X129586141Y-114523742D01*
X129563956Y-114552244D01*
X129558878Y-114557996D01*
X129555998Y-114560877D01*
X129555984Y-114560893D01*
X129542198Y-114580201D01*
X129507943Y-114624212D01*
X129504135Y-114631247D01*
X129500624Y-114638431D01*
X129484709Y-114691886D01*
X129466599Y-114744640D01*
X129465285Y-114752514D01*
X129464294Y-114760462D01*
X129466600Y-114816183D01*
X129466600Y-120223672D01*
X129463961Y-120249120D01*
X129461654Y-120260117D01*
X129466123Y-120295965D01*
X129466600Y-120303641D01*
X129466600Y-120307711D01*
X129469527Y-120325255D01*
X129470503Y-120331105D01*
X129477404Y-120386461D01*
X129479680Y-120394109D01*
X129482281Y-120401685D01*
X129508829Y-120450741D01*
X129533324Y-120500847D01*
X129537969Y-120507353D01*
X129542881Y-120513664D01*
X129583919Y-120551441D01*
X130030540Y-120998062D01*
X130064025Y-121059385D01*
X130062126Y-121119677D01*
X130007303Y-121312361D01*
X129988619Y-121513999D01*
X129988619Y-121514000D01*
X130007303Y-121715642D01*
X130007304Y-121715644D01*
X130062721Y-121910415D01*
X130062727Y-121910430D01*
X130152988Y-122091697D01*
X130275027Y-122253303D01*
X130424679Y-122389728D01*
X130424681Y-122389730D01*
X130596851Y-122496333D01*
X130596853Y-122496334D01*
X130596855Y-122496335D01*
X130785687Y-122569489D01*
X130984746Y-122606700D01*
X130984748Y-122606700D01*
X131187252Y-122606700D01*
X131187254Y-122606700D01*
X131386313Y-122569489D01*
X131575145Y-122496335D01*
X131747320Y-122389729D01*
X131896974Y-122253301D01*
X132019012Y-122091697D01*
X132109277Y-121910420D01*
X132164696Y-121715643D01*
X132183381Y-121514000D01*
X132528619Y-121514000D01*
X132547303Y-121715642D01*
X132547304Y-121715644D01*
X132602721Y-121910415D01*
X132602727Y-121910430D01*
X132692988Y-122091697D01*
X132815027Y-122253303D01*
X132964679Y-122389728D01*
X132964681Y-122389730D01*
X133136851Y-122496333D01*
X133136853Y-122496334D01*
X133136855Y-122496335D01*
X133325687Y-122569489D01*
X133524746Y-122606700D01*
X133524748Y-122606700D01*
X133727252Y-122606700D01*
X133727254Y-122606700D01*
X133926313Y-122569489D01*
X134115145Y-122496335D01*
X134287320Y-122389729D01*
X134436974Y-122253301D01*
X134559012Y-122091697D01*
X134649277Y-121910420D01*
X134704696Y-121715643D01*
X134723381Y-121514000D01*
X134720362Y-121481425D01*
X134704696Y-121312357D01*
X134704695Y-121312355D01*
X134697168Y-121285901D01*
X134649277Y-121117580D01*
X134620299Y-121059385D01*
X134572405Y-120963200D01*
X134559012Y-120936303D01*
X134458133Y-120802718D01*
X134436972Y-120774696D01*
X134287320Y-120638271D01*
X134287318Y-120638269D01*
X134115148Y-120531666D01*
X134115139Y-120531662D01*
X133937100Y-120462690D01*
X133926313Y-120458511D01*
X133727254Y-120421300D01*
X133524746Y-120421300D01*
X133325687Y-120458511D01*
X133325684Y-120458511D01*
X133325684Y-120458512D01*
X133136860Y-120531662D01*
X133136851Y-120531666D01*
X132964681Y-120638269D01*
X132964679Y-120638271D01*
X132815027Y-120774696D01*
X132692988Y-120936302D01*
X132602727Y-121117569D01*
X132602721Y-121117584D01*
X132547304Y-121312355D01*
X132547303Y-121312357D01*
X132528619Y-121513999D01*
X132528619Y-121514000D01*
X132183381Y-121514000D01*
X132180362Y-121481425D01*
X132164696Y-121312357D01*
X132164695Y-121312355D01*
X132157168Y-121285901D01*
X132109277Y-121117580D01*
X132080299Y-121059385D01*
X132032405Y-120963200D01*
X132019012Y-120936303D01*
X131918133Y-120802718D01*
X131896972Y-120774696D01*
X131747320Y-120638271D01*
X131747318Y-120638269D01*
X131575148Y-120531666D01*
X131575139Y-120531662D01*
X131397100Y-120462690D01*
X131386313Y-120458511D01*
X131187254Y-120421300D01*
X130984746Y-120421300D01*
X130899136Y-120437303D01*
X130785679Y-120458512D01*
X130705589Y-120489539D01*
X130635966Y-120495400D01*
X130574226Y-120462690D01*
X130573116Y-120461593D01*
X130265919Y-120154396D01*
X130232434Y-120093073D01*
X130229600Y-120066715D01*
X130229600Y-119951437D01*
X130249285Y-119884398D01*
X130302089Y-119838643D01*
X130371247Y-119828699D01*
X130418710Y-119848479D01*
X130419805Y-119846711D01*
X130596851Y-119956333D01*
X130596853Y-119956334D01*
X130596855Y-119956335D01*
X130785687Y-120029489D01*
X130984746Y-120066700D01*
X130984748Y-120066700D01*
X131187252Y-120066700D01*
X131187254Y-120066700D01*
X131386313Y-120029489D01*
X131575145Y-119956335D01*
X131747320Y-119849729D01*
X131896974Y-119713301D01*
X132019012Y-119551697D01*
X132109277Y-119370420D01*
X132164696Y-119175643D01*
X132183381Y-118974000D01*
X132528619Y-118974000D01*
X132547303Y-119175642D01*
X132547304Y-119175644D01*
X132602721Y-119370415D01*
X132602727Y-119370430D01*
X132692988Y-119551697D01*
X132815027Y-119713303D01*
X132964679Y-119849728D01*
X132964681Y-119849730D01*
X133136851Y-119956333D01*
X133136853Y-119956334D01*
X133136855Y-119956335D01*
X133325687Y-120029489D01*
X133524746Y-120066700D01*
X133524748Y-120066700D01*
X133727252Y-120066700D01*
X133727254Y-120066700D01*
X133926313Y-120029489D01*
X134115145Y-119956335D01*
X134287320Y-119849729D01*
X134436974Y-119713301D01*
X134559012Y-119551697D01*
X134622484Y-119424228D01*
X134669987Y-119372991D01*
X134733484Y-119355500D01*
X141351573Y-119355500D01*
X141377018Y-119358139D01*
X141380961Y-119358965D01*
X141388017Y-119360445D01*
X141406576Y-119358131D01*
X141423866Y-119355977D01*
X141431542Y-119355500D01*
X141435608Y-119355500D01*
X141435611Y-119355500D01*
X141459004Y-119351596D01*
X141514360Y-119344696D01*
X141522013Y-119342416D01*
X141529582Y-119339818D01*
X141529586Y-119339818D01*
X141578641Y-119313270D01*
X141628746Y-119288776D01*
X141628748Y-119288774D01*
X141635263Y-119284122D01*
X141641558Y-119279223D01*
X141641559Y-119279221D01*
X141641562Y-119279220D01*
X141679341Y-119238180D01*
X149572693Y-111344828D01*
X149592542Y-111328709D01*
X149601956Y-111322560D01*
X149615394Y-111305293D01*
X149672101Y-111264479D01*
X149741874Y-111260802D01*
X149802559Y-111295431D01*
X149809102Y-111302788D01*
X149894064Y-111406315D01*
X150047489Y-111532228D01*
X150047493Y-111532231D01*
X150222539Y-111625794D01*
X150412474Y-111683410D01*
X150412473Y-111683410D01*
X150424546Y-111684599D01*
X150610000Y-111702865D01*
X150807526Y-111683410D01*
X150997461Y-111625794D01*
X151172507Y-111532231D01*
X151325935Y-111406315D01*
X151451851Y-111252887D01*
X151545414Y-111077841D01*
X151603030Y-110887906D01*
X151617610Y-110739876D01*
X151617610Y-109132124D01*
X151603030Y-108984094D01*
X151545414Y-108794159D01*
X151451851Y-108619113D01*
X151451848Y-108619109D01*
X151325935Y-108465684D01*
X151172510Y-108339771D01*
X151172508Y-108339770D01*
X151172507Y-108339769D01*
X150997461Y-108246206D01*
X150997460Y-108246205D01*
X150997459Y-108246205D01*
X150848459Y-108201007D01*
X150807526Y-108188590D01*
X150807524Y-108188589D01*
X150807522Y-108188589D01*
X150801550Y-108187401D01*
X150801929Y-108185493D01*
X150745478Y-108162694D01*
X150705122Y-108105657D01*
X150702010Y-108035857D01*
X150734742Y-107977778D01*
X152670703Y-106041819D01*
X152732026Y-106008334D01*
X152758384Y-106005500D01*
X156102650Y-106005500D01*
X156107771Y-106005712D01*
X156127429Y-106007340D01*
X156152940Y-106009454D01*
X156196873Y-105998327D01*
X156201883Y-105997276D01*
X156246586Y-105989818D01*
X156247151Y-105989512D01*
X156275737Y-105978357D01*
X156276366Y-105978198D01*
X156314321Y-105953400D01*
X156318709Y-105950787D01*
X156324238Y-105947795D01*
X156358562Y-105929220D01*
X156358995Y-105928749D01*
X156382420Y-105908909D01*
X156382956Y-105908560D01*
X156410809Y-105872772D01*
X156414088Y-105868900D01*
X156444795Y-105835546D01*
X156445056Y-105834950D01*
X156460761Y-105808594D01*
X156461158Y-105808085D01*
X156475873Y-105765221D01*
X156477737Y-105760444D01*
X156495940Y-105718948D01*
X156495993Y-105718296D01*
X156502290Y-105688271D01*
X156502500Y-105687661D01*
X156502500Y-105642337D01*
X156502712Y-105637215D01*
X156502846Y-105635607D01*
X156506454Y-105592060D01*
X156506453Y-105592059D01*
X156506454Y-105592058D01*
X156506294Y-105591425D01*
X156502500Y-105560988D01*
X156502500Y-105500903D01*
X156522185Y-105433864D01*
X156568046Y-105391545D01*
X156683507Y-105329831D01*
X156836935Y-105203915D01*
X156962851Y-105050487D01*
X157056414Y-104875441D01*
X157114030Y-104685506D01*
X157128610Y-104537476D01*
X157128610Y-104537472D01*
X157653390Y-104537472D01*
X157667969Y-104685504D01*
X157667970Y-104685506D01*
X157725586Y-104875441D01*
X157801067Y-105016658D01*
X157819151Y-105050490D01*
X157945064Y-105203915D01*
X158094993Y-105326959D01*
X158098493Y-105329831D01*
X158273539Y-105423394D01*
X158463474Y-105481010D01*
X158463473Y-105481010D01*
X158479749Y-105482613D01*
X158661000Y-105500465D01*
X158858526Y-105481010D01*
X159048461Y-105423394D01*
X159223507Y-105329831D01*
X159376935Y-105203915D01*
X159502851Y-105050487D01*
X159596414Y-104875441D01*
X159654030Y-104685506D01*
X159668610Y-104537476D01*
X159668610Y-102929724D01*
X159654030Y-102781694D01*
X159596414Y-102591759D01*
X159502851Y-102416713D01*
X159499324Y-102412415D01*
X159376935Y-102263284D01*
X159223510Y-102137371D01*
X159223508Y-102137370D01*
X159223507Y-102137369D01*
X159048461Y-102043806D01*
X159048460Y-102043805D01*
X159048459Y-102043805D01*
X158889339Y-101995537D01*
X158858526Y-101986190D01*
X158858524Y-101986189D01*
X158858526Y-101986189D01*
X158661000Y-101966735D01*
X158463475Y-101986189D01*
X158273540Y-102043805D01*
X158098489Y-102137371D01*
X157945064Y-102263284D01*
X157819151Y-102416709D01*
X157725585Y-102591760D01*
X157667969Y-102781695D01*
X157656988Y-102893184D01*
X157654058Y-102922947D01*
X157653390Y-102929727D01*
X157653390Y-104537472D01*
X157128610Y-104537472D01*
X157128610Y-102929724D01*
X157114030Y-102781694D01*
X157056414Y-102591759D01*
X156962851Y-102416713D01*
X156959324Y-102412415D01*
X156836935Y-102263284D01*
X156683510Y-102137371D01*
X156683508Y-102137370D01*
X156683507Y-102137369D01*
X156508461Y-102043806D01*
X156508460Y-102043805D01*
X156508459Y-102043805D01*
X156349339Y-101995537D01*
X156318526Y-101986190D01*
X156318524Y-101986189D01*
X156318526Y-101986189D01*
X156121000Y-101966735D01*
X155923475Y-101986189D01*
X155733540Y-102043805D01*
X155558489Y-102137371D01*
X155405064Y-102263284D01*
X155279151Y-102416709D01*
X155185585Y-102591760D01*
X155127969Y-102781695D01*
X155116988Y-102893184D01*
X155114058Y-102922947D01*
X155113390Y-102929727D01*
X155113390Y-104537472D01*
X155127969Y-104685504D01*
X155127970Y-104685506D01*
X155185586Y-104875441D01*
X155279149Y-105050487D01*
X155279150Y-105050489D01*
X155282021Y-105055859D01*
X155280735Y-105056545D01*
X155299440Y-105116294D01*
X155280952Y-105183673D01*
X155228970Y-105230360D01*
X155175460Y-105242500D01*
X154765631Y-105242500D01*
X154698592Y-105222815D01*
X154652837Y-105170011D01*
X154648483Y-105154636D01*
X153712746Y-104218899D01*
X153723061Y-104217417D01*
X153853614Y-104157795D01*
X153962081Y-104063808D01*
X154039675Y-103943070D01*
X154063359Y-103862407D01*
X154829132Y-104628180D01*
X154829134Y-104628180D01*
X154834110Y-104600764D01*
X154834110Y-102922947D01*
X154826768Y-102841383D01*
X154063359Y-103604792D01*
X154039675Y-103524130D01*
X153962081Y-103403392D01*
X153853614Y-103309405D01*
X153723061Y-103249783D01*
X153712747Y-103248300D01*
X154646797Y-102314248D01*
X154646797Y-102314246D01*
X154528497Y-102151420D01*
X154528498Y-102151420D01*
X154365457Y-101995537D01*
X154177208Y-101871275D01*
X153969804Y-101782627D01*
X153969787Y-101782621D01*
X153749889Y-101732432D01*
X153524556Y-101722312D01*
X153301026Y-101752591D01*
X153086504Y-101822293D01*
X152887877Y-101929179D01*
X152887874Y-101929181D01*
X152711524Y-102069815D01*
X152563112Y-102239685D01*
X152517306Y-102316351D01*
X152517306Y-102316353D01*
X153449253Y-103248300D01*
X153438939Y-103249783D01*
X153308386Y-103309405D01*
X153199919Y-103403392D01*
X153122325Y-103524130D01*
X153098640Y-103604793D01*
X152332864Y-102839017D01*
X152327890Y-102866435D01*
X152327890Y-104544256D01*
X152335230Y-104625816D01*
X153098640Y-103862406D01*
X153122325Y-103943070D01*
X153199919Y-104063808D01*
X153308386Y-104157795D01*
X153438939Y-104217417D01*
X153449252Y-104218899D01*
X152512581Y-105155569D01*
X152490737Y-105212880D01*
X152434505Y-105254350D01*
X152432274Y-105255140D01*
X152423414Y-105258182D01*
X152374362Y-105284727D01*
X152324256Y-105309222D01*
X152317742Y-105313872D01*
X152311435Y-105318781D01*
X152273658Y-105359819D01*
X149107309Y-108526166D01*
X149087454Y-108542291D01*
X149078045Y-108548438D01*
X149078044Y-108548439D01*
X149064200Y-108566225D01*
X149007488Y-108607035D01*
X148937715Y-108610706D01*
X148877033Y-108576073D01*
X148870497Y-108568723D01*
X148785935Y-108465684D01*
X148632510Y-108339771D01*
X148632508Y-108339770D01*
X148632507Y-108339769D01*
X148457461Y-108246206D01*
X148457460Y-108246205D01*
X148457459Y-108246205D01*
X148308459Y-108201007D01*
X148267526Y-108188590D01*
X148267524Y-108188589D01*
X148267526Y-108188589D01*
X148070000Y-108169135D01*
X147872475Y-108188589D01*
X147682540Y-108246205D01*
X147507489Y-108339771D01*
X147354064Y-108465684D01*
X147228151Y-108619109D01*
X147134585Y-108794160D01*
X147076969Y-108984095D01*
X147062390Y-109132127D01*
X147062390Y-110739872D01*
X147076969Y-110887904D01*
X147076970Y-110887906D01*
X147134586Y-111077841D01*
X147228069Y-111252738D01*
X147228151Y-111252890D01*
X147354064Y-111406315D01*
X147507489Y-111532228D01*
X147507493Y-111532231D01*
X147682539Y-111625794D01*
X147872474Y-111683410D01*
X147872479Y-111683410D01*
X147878450Y-111684599D01*
X147878017Y-111686774D01*
X147933568Y-111709182D01*
X147973948Y-111766202D01*
X147977090Y-111836001D01*
X147944343Y-111894133D01*
X141282296Y-118556181D01*
X141220973Y-118589666D01*
X141194615Y-118592500D01*
X134733484Y-118592500D01*
X134666445Y-118572815D01*
X134622484Y-118523772D01*
X134589764Y-118458062D01*
X134559012Y-118396303D01*
X134456945Y-118261145D01*
X134436972Y-118234696D01*
X134287320Y-118098271D01*
X134287318Y-118098269D01*
X134115148Y-117991666D01*
X134115139Y-117991662D01*
X133961416Y-117932110D01*
X133926313Y-117918511D01*
X133727254Y-117881300D01*
X133524746Y-117881300D01*
X133325687Y-117918511D01*
X133325684Y-117918511D01*
X133325684Y-117918512D01*
X133136860Y-117991662D01*
X133136851Y-117991666D01*
X132964681Y-118098269D01*
X132964679Y-118098271D01*
X132815027Y-118234696D01*
X132692988Y-118396302D01*
X132602727Y-118577569D01*
X132602721Y-118577584D01*
X132547304Y-118772355D01*
X132547303Y-118772357D01*
X132528619Y-118973999D01*
X132528619Y-118974000D01*
X132183381Y-118974000D01*
X132164696Y-118772357D01*
X132109873Y-118579674D01*
X132110459Y-118509811D01*
X132141456Y-118458064D01*
X132588689Y-118010831D01*
X132608539Y-117994711D01*
X132617956Y-117988560D01*
X132640159Y-117960031D01*
X132645230Y-117954291D01*
X132648113Y-117951409D01*
X132661891Y-117932110D01*
X132696158Y-117888085D01*
X132696159Y-117888079D01*
X132699956Y-117881066D01*
X132703471Y-117873874D01*
X132703475Y-117873870D01*
X132710044Y-117851805D01*
X132719391Y-117820410D01*
X132728373Y-117794245D01*
X132737500Y-117767661D01*
X132737500Y-117767658D01*
X132738815Y-117759777D01*
X132739805Y-117751840D01*
X132737500Y-117696117D01*
X132737500Y-117383460D01*
X132757185Y-117316421D01*
X132809989Y-117270666D01*
X132879147Y-117260722D01*
X132942703Y-117289747D01*
X132945039Y-117291824D01*
X132964678Y-117309728D01*
X132964681Y-117309730D01*
X133136851Y-117416333D01*
X133136853Y-117416334D01*
X133136855Y-117416335D01*
X133325687Y-117489489D01*
X133524746Y-117526700D01*
X133524748Y-117526700D01*
X133727252Y-117526700D01*
X133727254Y-117526700D01*
X133926313Y-117489489D01*
X134115145Y-117416335D01*
X134287320Y-117309729D01*
X134436974Y-117173301D01*
X134559012Y-117011697D01*
X134649277Y-116830420D01*
X134704696Y-116635643D01*
X134723381Y-116434000D01*
X134714470Y-116337840D01*
X134704696Y-116232357D01*
X134704695Y-116232355D01*
X134695083Y-116198573D01*
X134649277Y-116037580D01*
X134638367Y-116015670D01*
X134567001Y-115872347D01*
X134559012Y-115856303D01*
X134436974Y-115694699D01*
X134436972Y-115694696D01*
X134287320Y-115558271D01*
X134287318Y-115558269D01*
X134115148Y-115451666D01*
X134115139Y-115451662D01*
X133973521Y-115396799D01*
X133926313Y-115378511D01*
X133727254Y-115341300D01*
X133524746Y-115341300D01*
X133325687Y-115378511D01*
X133325684Y-115378511D01*
X133325684Y-115378512D01*
X133136860Y-115451662D01*
X133136851Y-115451666D01*
X132964681Y-115558269D01*
X132964678Y-115558271D01*
X132945037Y-115576177D01*
X132882232Y-115606794D01*
X132812845Y-115598595D01*
X132758906Y-115554184D01*
X132737539Y-115487662D01*
X132737500Y-115484539D01*
X132737500Y-114454484D01*
X132757185Y-114387445D01*
X132773819Y-114366803D01*
X133493214Y-113647408D01*
X134224293Y-112916328D01*
X134244142Y-112900209D01*
X134253556Y-112894060D01*
X134275755Y-112865536D01*
X134280826Y-112859796D01*
X134283714Y-112856909D01*
X134297498Y-112837601D01*
X134331758Y-112793585D01*
X134331759Y-112793581D01*
X134335546Y-112786583D01*
X134339071Y-112779373D01*
X134339075Y-112779369D01*
X134354988Y-112725917D01*
X134373100Y-112673161D01*
X134373100Y-112673157D01*
X134373101Y-112673155D01*
X134374415Y-112665280D01*
X134375405Y-112657339D01*
X134373100Y-112601616D01*
X134373100Y-111410515D01*
X134392785Y-111343476D01*
X134445589Y-111297721D01*
X134514747Y-111287777D01*
X134578303Y-111316802D01*
X134592951Y-111331847D01*
X134621446Y-111366569D01*
X134654065Y-111406315D01*
X134807066Y-111531881D01*
X134807493Y-111532231D01*
X134982539Y-111625794D01*
X135172474Y-111683410D01*
X135172473Y-111683410D01*
X135184546Y-111684599D01*
X135370000Y-111702865D01*
X135567526Y-111683410D01*
X135757461Y-111625794D01*
X135932507Y-111532231D01*
X136085935Y-111406315D01*
X136211851Y-111252887D01*
X136305414Y-111077841D01*
X136363030Y-110887906D01*
X136377610Y-110739876D01*
X136377610Y-109132124D01*
X136363030Y-108984094D01*
X136305414Y-108794159D01*
X136211851Y-108619113D01*
X136211848Y-108619109D01*
X136085935Y-108465684D01*
X135932510Y-108339771D01*
X135932508Y-108339770D01*
X135932507Y-108339769D01*
X135757461Y-108246206D01*
X135757460Y-108246205D01*
X135757459Y-108246205D01*
X135608459Y-108201007D01*
X135567526Y-108188590D01*
X135567524Y-108188589D01*
X135567526Y-108188589D01*
X135370000Y-108169135D01*
X135172475Y-108188589D01*
X134982540Y-108246205D01*
X134807489Y-108339771D01*
X134654064Y-108465684D01*
X134592953Y-108540149D01*
X134535207Y-108579483D01*
X134465363Y-108581354D01*
X134405594Y-108545166D01*
X134374879Y-108482410D01*
X134373100Y-108461484D01*
X134373100Y-107129828D01*
X134375739Y-107104383D01*
X134376410Y-107101180D01*
X134378045Y-107093384D01*
X134375953Y-107076601D01*
X134373577Y-107057534D01*
X134373100Y-107049858D01*
X134373100Y-107045791D01*
X134373099Y-107045782D01*
X134369195Y-107022393D01*
X134366005Y-106996800D01*
X134362296Y-106967040D01*
X134362293Y-106967034D01*
X134360018Y-106959392D01*
X134357419Y-106951821D01*
X134357418Y-106951814D01*
X134330876Y-106902768D01*
X134306377Y-106852654D01*
X134306376Y-106852653D01*
X134306375Y-106852650D01*
X134301751Y-106846174D01*
X134296818Y-106839836D01*
X134255792Y-106802069D01*
X133165720Y-105711997D01*
X133132235Y-105650674D01*
X133137219Y-105580982D01*
X133179091Y-105525049D01*
X133244555Y-105500632D01*
X133254908Y-105500772D01*
X133254908Y-105500465D01*
X133260999Y-105500465D01*
X133260999Y-105500464D01*
X133261000Y-105500465D01*
X133458526Y-105481010D01*
X133648461Y-105423394D01*
X133823507Y-105329831D01*
X133976935Y-105203915D01*
X134102851Y-105050487D01*
X134196414Y-104875441D01*
X134254030Y-104685506D01*
X134268610Y-104537476D01*
X134268610Y-102929724D01*
X134254030Y-102781694D01*
X134196414Y-102591759D01*
X134102851Y-102416713D01*
X134099324Y-102412415D01*
X133976935Y-102263284D01*
X133823510Y-102137371D01*
X133823508Y-102137370D01*
X133823507Y-102137369D01*
X133648461Y-102043806D01*
X133648460Y-102043805D01*
X133648459Y-102043805D01*
X133489339Y-101995537D01*
X133458526Y-101986190D01*
X133458524Y-101986189D01*
X133458526Y-101986189D01*
X133261000Y-101966735D01*
X133063475Y-101986189D01*
X132873540Y-102043805D01*
X132698489Y-102137371D01*
X132575165Y-102238581D01*
X132510855Y-102265894D01*
X132441987Y-102254103D01*
X132390427Y-102206951D01*
X132372500Y-102142728D01*
X132372500Y-99355427D01*
X132375139Y-99329982D01*
X132375810Y-99326779D01*
X132377445Y-99318983D01*
X132375353Y-99302200D01*
X132372977Y-99283133D01*
X132372500Y-99275457D01*
X132372500Y-99271393D01*
X132372499Y-99271385D01*
X132368596Y-99247995D01*
X132361696Y-99192640D01*
X132361695Y-99192637D01*
X132359419Y-99184994D01*
X132356816Y-99177409D01*
X132330271Y-99128359D01*
X132305776Y-99078255D01*
X132305776Y-99078254D01*
X132305773Y-99078251D01*
X132301132Y-99071749D01*
X132296222Y-99065441D01*
X132296220Y-99065438D01*
X132296216Y-99065434D01*
X132255181Y-99027658D01*
X132106219Y-98878696D01*
X132072734Y-98817373D01*
X132069900Y-98791015D01*
X132069900Y-96646191D01*
X132089585Y-96579152D01*
X132142389Y-96533397D01*
X132211547Y-96523453D01*
X132262792Y-96543090D01*
X132267486Y-96546226D01*
X132267488Y-96546227D01*
X132267493Y-96546231D01*
X132442539Y-96639794D01*
X132632474Y-96697410D01*
X132632473Y-96697410D01*
X132642901Y-96698437D01*
X132830000Y-96716865D01*
X133027526Y-96697410D01*
X133217461Y-96639794D01*
X133392507Y-96546231D01*
X133545935Y-96420315D01*
X133671851Y-96266887D01*
X133765414Y-96091841D01*
X133823030Y-95901906D01*
X133837610Y-95753876D01*
X134362390Y-95753876D01*
X134363453Y-95764670D01*
X134376969Y-95901904D01*
X134413800Y-96023318D01*
X134434586Y-96091841D01*
X134527947Y-96266510D01*
X134528151Y-96266890D01*
X134654064Y-96420315D01*
X134807487Y-96546226D01*
X134807493Y-96546231D01*
X134982539Y-96639794D01*
X135172474Y-96697410D01*
X135172473Y-96697410D01*
X135182901Y-96698437D01*
X135370000Y-96716865D01*
X135567526Y-96697410D01*
X135757461Y-96639794D01*
X135932507Y-96546231D01*
X136085935Y-96420315D01*
X136211851Y-96266887D01*
X136305414Y-96091841D01*
X136363030Y-95901906D01*
X136377610Y-95753876D01*
X136377610Y-94146124D01*
X136363030Y-93998094D01*
X136305414Y-93808159D01*
X136211851Y-93633113D01*
X136211848Y-93633109D01*
X136085935Y-93479684D01*
X135932510Y-93353771D01*
X135932508Y-93353770D01*
X135932507Y-93353769D01*
X135757461Y-93260206D01*
X135757460Y-93260205D01*
X135757459Y-93260205D01*
X135617080Y-93217622D01*
X135567526Y-93202590D01*
X135567524Y-93202589D01*
X135567526Y-93202589D01*
X135370000Y-93183135D01*
X135172475Y-93202589D01*
X134982540Y-93260205D01*
X134807489Y-93353771D01*
X134654064Y-93479684D01*
X134528151Y-93633109D01*
X134434585Y-93808160D01*
X134376969Y-93998095D01*
X134365988Y-94109584D01*
X134362390Y-94146124D01*
X134362390Y-95753876D01*
X133837610Y-95753876D01*
X133837610Y-94146124D01*
X133823030Y-93998094D01*
X133765414Y-93808159D01*
X133671851Y-93633113D01*
X133671848Y-93633109D01*
X133545935Y-93479684D01*
X133392510Y-93353771D01*
X133392508Y-93353770D01*
X133392507Y-93353769D01*
X133217461Y-93260206D01*
X133217460Y-93260205D01*
X133217459Y-93260205D01*
X133077080Y-93217622D01*
X133027526Y-93202590D01*
X133027524Y-93202589D01*
X133027526Y-93202589D01*
X132830000Y-93183135D01*
X132632475Y-93202589D01*
X132532495Y-93232918D01*
X132462628Y-93233541D01*
X132403515Y-93196292D01*
X132373924Y-93132998D01*
X132372500Y-93114257D01*
X132372500Y-90084471D01*
X132392185Y-90017432D01*
X132444989Y-89971677D01*
X132514147Y-89961733D01*
X132575165Y-89988618D01*
X132675534Y-90070989D01*
X132698493Y-90089831D01*
X132873539Y-90183394D01*
X133063474Y-90241010D01*
X133063473Y-90241010D01*
X133081183Y-90242754D01*
X133261000Y-90260465D01*
X133458526Y-90241010D01*
X133648461Y-90183394D01*
X133823507Y-90089831D01*
X133976935Y-89963915D01*
X134102851Y-89810487D01*
X134196414Y-89635441D01*
X134254030Y-89445506D01*
X134268610Y-89297476D01*
X134268610Y-88076873D01*
X134288295Y-88009834D01*
X134304925Y-87989196D01*
X134581709Y-87712411D01*
X134643032Y-87678927D01*
X134712724Y-87683911D01*
X134768657Y-87725783D01*
X134793074Y-87791247D01*
X134793390Y-87800093D01*
X134793390Y-89297472D01*
X134807969Y-89445504D01*
X134835100Y-89534941D01*
X134865586Y-89635441D01*
X134952591Y-89798218D01*
X134959151Y-89810490D01*
X135085064Y-89963915D01*
X135238489Y-90089828D01*
X135238493Y-90089831D01*
X135413539Y-90183394D01*
X135603474Y-90241010D01*
X135603473Y-90241010D01*
X135621183Y-90242754D01*
X135801000Y-90260465D01*
X135998526Y-90241010D01*
X136188461Y-90183394D01*
X136363507Y-90089831D01*
X136516935Y-89963915D01*
X136642851Y-89810487D01*
X136736414Y-89635441D01*
X136794030Y-89445506D01*
X136808610Y-89297476D01*
X136808610Y-88076873D01*
X136828295Y-88009834D01*
X136844925Y-87989196D01*
X137121709Y-87712411D01*
X137183032Y-87678927D01*
X137252724Y-87683911D01*
X137308657Y-87725783D01*
X137333074Y-87791247D01*
X137333390Y-87800093D01*
X137333390Y-89297472D01*
X137347969Y-89445504D01*
X137375100Y-89534941D01*
X137405586Y-89635441D01*
X137492591Y-89798218D01*
X137499151Y-89810490D01*
X137625064Y-89963915D01*
X137711923Y-90035198D01*
X137778493Y-90089831D01*
X137893952Y-90151544D01*
X137943797Y-90200506D01*
X137959500Y-90260903D01*
X137959500Y-90365649D01*
X137959288Y-90370770D01*
X137955546Y-90415940D01*
X137966671Y-90459873D01*
X137967723Y-90464890D01*
X137975181Y-90509585D01*
X137975494Y-90510162D01*
X137986640Y-90538726D01*
X137986802Y-90539367D01*
X137986802Y-90539368D01*
X138011586Y-90577302D01*
X138014209Y-90581705D01*
X138028844Y-90608746D01*
X138035780Y-90621562D01*
X138036259Y-90622003D01*
X138056083Y-90645409D01*
X138056440Y-90645956D01*
X138056441Y-90645957D01*
X138056442Y-90645958D01*
X138073637Y-90659341D01*
X138092202Y-90673790D01*
X138096109Y-90677099D01*
X138129449Y-90707792D01*
X138129454Y-90707795D01*
X138130053Y-90708058D01*
X138156397Y-90723756D01*
X138156909Y-90724154D01*
X138156912Y-90724155D01*
X138156915Y-90724158D01*
X138199773Y-90738871D01*
X138204534Y-90740728D01*
X138246052Y-90758940D01*
X138246703Y-90758993D01*
X138276723Y-90765288D01*
X138277339Y-90765500D01*
X138298016Y-90765500D01*
X138365055Y-90785185D01*
X138385697Y-90801819D01*
X138408498Y-90824620D01*
X138441983Y-90885943D01*
X138436999Y-90955635D01*
X138395127Y-91011568D01*
X138368272Y-91026861D01*
X138350622Y-91034171D01*
X138225829Y-91129929D01*
X138130071Y-91254723D01*
X138069878Y-91400043D01*
X138069877Y-91400047D01*
X138060476Y-91471457D01*
X138049345Y-91556000D01*
X138068717Y-91703145D01*
X138069877Y-91711952D01*
X138069878Y-91711956D01*
X138130070Y-91857275D01*
X138130071Y-91857277D01*
X138130072Y-91857278D01*
X138225829Y-91982071D01*
X138225832Y-91982073D01*
X138225835Y-91982077D01*
X138231580Y-91987823D01*
X138229681Y-91989721D01*
X138263088Y-92035470D01*
X138270400Y-92077422D01*
X138270400Y-92108314D01*
X138250715Y-92175353D01*
X138234081Y-92195995D01*
X137677309Y-92752766D01*
X137657454Y-92768891D01*
X137648045Y-92775038D01*
X137648041Y-92775042D01*
X137625856Y-92803544D01*
X137620778Y-92809296D01*
X137617898Y-92812177D01*
X137617884Y-92812193D01*
X137604098Y-92831501D01*
X137569843Y-92875512D01*
X137566035Y-92882547D01*
X137562524Y-92889731D01*
X137546609Y-92943186D01*
X137528499Y-92995940D01*
X137527185Y-93003814D01*
X137526194Y-93011762D01*
X137528500Y-93067483D01*
X137528500Y-93182696D01*
X137508815Y-93249735D01*
X137462953Y-93292054D01*
X137347494Y-93353767D01*
X137347491Y-93353769D01*
X137194064Y-93479684D01*
X137068151Y-93633109D01*
X136974585Y-93808160D01*
X136916969Y-93998095D01*
X136905988Y-94109584D01*
X136902390Y-94146124D01*
X136902390Y-95753876D01*
X136903453Y-95764670D01*
X136916969Y-95901904D01*
X136953800Y-96023318D01*
X136974586Y-96091841D01*
X137067947Y-96266510D01*
X137068151Y-96266890D01*
X137194064Y-96420315D01*
X137347487Y-96546226D01*
X137347493Y-96546231D01*
X137522539Y-96639794D01*
X137712474Y-96697410D01*
X137712473Y-96697410D01*
X137722901Y-96698437D01*
X137910000Y-96716865D01*
X138107526Y-96697410D01*
X138297461Y-96639794D01*
X138472507Y-96546231D01*
X138557294Y-96476648D01*
X138595835Y-96445018D01*
X138660145Y-96417705D01*
X138729012Y-96429496D01*
X138780573Y-96476648D01*
X138798500Y-96540871D01*
X138798500Y-97847114D01*
X138778815Y-97914153D01*
X138762181Y-97934795D01*
X136972309Y-99724666D01*
X136952454Y-99740791D01*
X136943045Y-99746938D01*
X136943041Y-99746942D01*
X136920856Y-99775444D01*
X136915778Y-99781196D01*
X136912898Y-99784077D01*
X136912884Y-99784093D01*
X136899098Y-99803401D01*
X136864843Y-99847412D01*
X136861035Y-99854447D01*
X136857524Y-99861631D01*
X136841609Y-99915086D01*
X136823499Y-99967840D01*
X136822185Y-99975714D01*
X136821194Y-99983662D01*
X136823500Y-100039383D01*
X136823500Y-102290277D01*
X136803815Y-102357316D01*
X136751011Y-102403071D01*
X136681853Y-102413015D01*
X136618297Y-102383990D01*
X136603647Y-102368942D01*
X136516935Y-102263284D01*
X136363510Y-102137371D01*
X136363508Y-102137370D01*
X136363507Y-102137369D01*
X136188461Y-102043806D01*
X136188460Y-102043805D01*
X136188459Y-102043805D01*
X136029339Y-101995537D01*
X135998526Y-101986190D01*
X135998524Y-101986189D01*
X135998526Y-101986189D01*
X135801000Y-101966735D01*
X135603475Y-101986189D01*
X135413540Y-102043805D01*
X135238489Y-102137371D01*
X135085064Y-102263284D01*
X134959151Y-102416709D01*
X134865585Y-102591760D01*
X134807969Y-102781695D01*
X134796988Y-102893184D01*
X134794058Y-102922947D01*
X134793390Y-102929727D01*
X134793390Y-104537472D01*
X134807969Y-104685504D01*
X134807970Y-104685506D01*
X134865586Y-104875441D01*
X134941067Y-105016658D01*
X134959151Y-105050490D01*
X135085064Y-105203915D01*
X135234993Y-105326959D01*
X135238493Y-105329831D01*
X135413539Y-105423394D01*
X135603474Y-105481010D01*
X135603473Y-105481010D01*
X135619749Y-105482613D01*
X135801000Y-105500465D01*
X135998526Y-105481010D01*
X136188461Y-105423394D01*
X136363507Y-105329831D01*
X136516935Y-105203915D01*
X136539088Y-105176922D01*
X136603647Y-105098257D01*
X136661393Y-105058923D01*
X136731237Y-105057052D01*
X136791005Y-105093240D01*
X136821721Y-105155995D01*
X136823500Y-105176922D01*
X136823500Y-107288172D01*
X136820861Y-107313620D01*
X136818554Y-107324617D01*
X136823023Y-107360465D01*
X136823500Y-107368141D01*
X136823500Y-107372211D01*
X136825287Y-107382922D01*
X136827403Y-107395605D01*
X136834304Y-107450961D01*
X136836580Y-107458609D01*
X136839181Y-107466185D01*
X136865729Y-107515241D01*
X136890224Y-107565347D01*
X136894863Y-107571845D01*
X136899781Y-107578164D01*
X136914389Y-107591611D01*
X136940818Y-107615941D01*
X137244887Y-107920009D01*
X137435949Y-108111071D01*
X137469434Y-108172394D01*
X137464450Y-108242085D01*
X137422579Y-108298019D01*
X137406722Y-108308110D01*
X137347491Y-108339770D01*
X137194064Y-108465684D01*
X137068151Y-108619109D01*
X136974585Y-108794160D01*
X136916969Y-108984095D01*
X136902390Y-109132127D01*
X136902390Y-110739872D01*
X136916969Y-110887904D01*
X136916970Y-110887906D01*
X136974586Y-111077841D01*
X137068069Y-111252738D01*
X137068151Y-111252890D01*
X137194064Y-111406315D01*
X137347489Y-111532228D01*
X137347493Y-111532231D01*
X137522539Y-111625794D01*
X137712474Y-111683410D01*
X137712473Y-111683410D01*
X137724546Y-111684599D01*
X137910000Y-111702865D01*
X138107526Y-111683410D01*
X138297461Y-111625794D01*
X138472507Y-111532231D01*
X138625935Y-111406315D01*
X138751851Y-111252887D01*
X138845414Y-111077841D01*
X138903030Y-110887906D01*
X138917610Y-110739876D01*
X138917610Y-109132124D01*
X138903030Y-108984094D01*
X138845414Y-108794159D01*
X138751851Y-108619113D01*
X138751848Y-108619109D01*
X138625935Y-108465684D01*
X138472508Y-108339769D01*
X138472505Y-108339767D01*
X138357047Y-108278054D01*
X138307203Y-108229092D01*
X138291500Y-108168696D01*
X138291500Y-108098028D01*
X138294139Y-108072583D01*
X138294810Y-108069380D01*
X138296445Y-108061584D01*
X138293238Y-108035857D01*
X138291977Y-108025734D01*
X138291500Y-108018058D01*
X138291500Y-108013991D01*
X138291499Y-108013982D01*
X138287595Y-107990593D01*
X138286901Y-107985027D01*
X138280696Y-107935240D01*
X138280693Y-107935234D01*
X138278418Y-107927592D01*
X138275819Y-107920021D01*
X138275818Y-107920014D01*
X138249276Y-107870968D01*
X138224777Y-107820854D01*
X138224776Y-107820853D01*
X138224775Y-107820850D01*
X138220151Y-107814374D01*
X138215218Y-107808036D01*
X138174192Y-107770269D01*
X137622819Y-107218895D01*
X137589334Y-107157572D01*
X137586500Y-107131214D01*
X137586500Y-105433533D01*
X137606185Y-105366494D01*
X137658989Y-105320739D01*
X137728147Y-105310795D01*
X137772646Y-105327846D01*
X137773121Y-105326959D01*
X137778490Y-105329829D01*
X137778493Y-105329831D01*
X137953539Y-105423394D01*
X138143474Y-105481010D01*
X138143473Y-105481010D01*
X138159749Y-105482613D01*
X138341000Y-105500465D01*
X138538526Y-105481010D01*
X138728461Y-105423394D01*
X138903507Y-105329831D01*
X139056935Y-105203915D01*
X139182851Y-105050487D01*
X139276414Y-104875441D01*
X139334030Y-104685506D01*
X139348610Y-104537476D01*
X139348610Y-104537472D01*
X139873390Y-104537472D01*
X139887969Y-104685504D01*
X139887970Y-104685506D01*
X139945586Y-104875441D01*
X140021067Y-105016658D01*
X140039151Y-105050490D01*
X140165064Y-105203915D01*
X140314993Y-105326959D01*
X140318493Y-105329831D01*
X140493539Y-105423394D01*
X140683474Y-105481010D01*
X140683473Y-105481010D01*
X140699749Y-105482613D01*
X140881000Y-105500465D01*
X141078526Y-105481010D01*
X141268461Y-105423394D01*
X141443507Y-105329831D01*
X141596935Y-105203915D01*
X141722851Y-105050487D01*
X141816414Y-104875441D01*
X141874030Y-104685506D01*
X141888610Y-104537476D01*
X141888610Y-102929724D01*
X141874030Y-102781694D01*
X141816414Y-102591759D01*
X141722851Y-102416713D01*
X141719324Y-102412415D01*
X141596935Y-102263284D01*
X141443510Y-102137371D01*
X141443508Y-102137370D01*
X141443507Y-102137369D01*
X141268461Y-102043806D01*
X141268460Y-102043805D01*
X141268459Y-102043805D01*
X141109339Y-101995537D01*
X141078526Y-101986190D01*
X141078524Y-101986189D01*
X141078526Y-101986189D01*
X140881000Y-101966735D01*
X140683475Y-101986189D01*
X140493540Y-102043805D01*
X140318489Y-102137371D01*
X140165064Y-102263284D01*
X140039151Y-102416709D01*
X139945585Y-102591760D01*
X139887969Y-102781695D01*
X139876988Y-102893184D01*
X139874058Y-102922947D01*
X139873390Y-102929727D01*
X139873390Y-104537472D01*
X139348610Y-104537472D01*
X139348610Y-102929724D01*
X139334030Y-102781694D01*
X139276414Y-102591759D01*
X139182851Y-102416713D01*
X139179324Y-102412415D01*
X139056935Y-102263284D01*
X138903510Y-102137371D01*
X138903508Y-102137370D01*
X138903507Y-102137369D01*
X138728461Y-102043806D01*
X138728460Y-102043805D01*
X138728459Y-102043805D01*
X138569339Y-101995537D01*
X138538526Y-101986190D01*
X138538524Y-101986189D01*
X138538526Y-101986189D01*
X138341000Y-101966735D01*
X138143475Y-101986189D01*
X137953540Y-102043805D01*
X137904879Y-102069815D01*
X137778493Y-102137369D01*
X137778490Y-102137370D01*
X137773121Y-102140241D01*
X137772431Y-102138951D01*
X137712693Y-102157647D01*
X137645316Y-102139151D01*
X137598634Y-102087165D01*
X137586500Y-102033666D01*
X137586500Y-100240884D01*
X137606185Y-100173845D01*
X137622819Y-100153203D01*
X138517126Y-99258896D01*
X139412693Y-98363328D01*
X139432542Y-98347209D01*
X139441956Y-98341060D01*
X139464155Y-98312536D01*
X139469226Y-98306796D01*
X139472114Y-98303909D01*
X139485900Y-98284599D01*
X139520158Y-98240585D01*
X139520159Y-98240579D01*
X139523957Y-98233564D01*
X139527468Y-98226378D01*
X139527475Y-98226370D01*
X139537257Y-98193509D01*
X139543390Y-98172913D01*
X139552311Y-98146924D01*
X139561500Y-98120161D01*
X139561500Y-98120158D01*
X139562815Y-98112280D01*
X139563805Y-98104339D01*
X139561500Y-98048616D01*
X139561500Y-96540871D01*
X139581185Y-96473832D01*
X139633989Y-96428077D01*
X139703147Y-96418133D01*
X139764165Y-96445018D01*
X139817813Y-96489046D01*
X139887493Y-96546231D01*
X140002952Y-96607944D01*
X140052797Y-96656906D01*
X140068500Y-96717303D01*
X140068500Y-96787972D01*
X140065861Y-96813420D01*
X140063554Y-96824417D01*
X140068023Y-96860265D01*
X140068500Y-96867941D01*
X140068500Y-96872011D01*
X140071427Y-96889555D01*
X140072403Y-96895405D01*
X140079304Y-96950761D01*
X140081580Y-96958409D01*
X140084181Y-96965985D01*
X140110729Y-97015041D01*
X140135222Y-97065143D01*
X140139880Y-97071667D01*
X140144781Y-97077963D01*
X140185818Y-97115740D01*
X140661865Y-97591788D01*
X140677993Y-97611648D01*
X140684138Y-97621054D01*
X140684139Y-97621055D01*
X140684140Y-97621056D01*
X140712644Y-97643241D01*
X140718401Y-97648324D01*
X140721291Y-97651214D01*
X140740598Y-97664998D01*
X140784615Y-97699258D01*
X140784621Y-97699260D01*
X140791650Y-97703064D01*
X140798828Y-97706573D01*
X140798831Y-97706575D01*
X140852282Y-97722488D01*
X140905039Y-97740600D01*
X140905042Y-97740600D01*
X140912920Y-97741915D01*
X140920857Y-97742904D01*
X140920859Y-97742905D01*
X140920860Y-97742904D01*
X140920861Y-97742905D01*
X140976595Y-97740600D01*
X147989873Y-97740600D01*
X148015318Y-97743239D01*
X148019261Y-97744065D01*
X148026317Y-97745545D01*
X148044876Y-97743231D01*
X148062166Y-97741077D01*
X148069842Y-97740600D01*
X148073908Y-97740600D01*
X148073911Y-97740600D01*
X148097304Y-97736696D01*
X148152660Y-97729796D01*
X148160313Y-97727516D01*
X148167882Y-97724918D01*
X148167886Y-97724918D01*
X148216941Y-97698370D01*
X148267046Y-97673876D01*
X148267048Y-97673874D01*
X148273563Y-97669222D01*
X148279858Y-97664323D01*
X148279859Y-97664321D01*
X148279862Y-97664320D01*
X148317641Y-97623280D01*
X149479693Y-96461228D01*
X149499542Y-96445109D01*
X149508956Y-96438960D01*
X149531155Y-96410436D01*
X149536226Y-96404696D01*
X149539114Y-96401809D01*
X149552900Y-96382499D01*
X149587158Y-96338485D01*
X149587159Y-96338479D01*
X149590953Y-96331472D01*
X149592096Y-96329134D01*
X149595667Y-96325223D01*
X149600500Y-96315832D01*
X149600666Y-96315601D01*
X149602954Y-96317245D01*
X149639217Y-96277546D01*
X149706749Y-96259622D01*
X149773250Y-96281055D01*
X149799357Y-96304915D01*
X149894064Y-96420315D01*
X150047487Y-96546226D01*
X150047493Y-96546231D01*
X150222539Y-96639794D01*
X150412474Y-96697410D01*
X150412479Y-96697410D01*
X150418450Y-96698599D01*
X150417912Y-96701299D01*
X150471697Y-96722963D01*
X150512106Y-96779962D01*
X150515284Y-96849759D01*
X150482522Y-96907954D01*
X147558896Y-99831581D01*
X147497573Y-99865066D01*
X147471215Y-99867900D01*
X147078928Y-99867900D01*
X147053483Y-99865261D01*
X147042485Y-99862955D01*
X147042481Y-99862955D01*
X147006634Y-99867423D01*
X146998958Y-99867900D01*
X146994888Y-99867900D01*
X146971493Y-99871804D01*
X146916136Y-99878704D01*
X146908502Y-99880976D01*
X146900911Y-99883583D01*
X146851868Y-99910123D01*
X146801754Y-99934622D01*
X146795253Y-99939263D01*
X146788940Y-99944177D01*
X146751169Y-99985207D01*
X144458309Y-102278066D01*
X144438454Y-102294191D01*
X144429045Y-102300338D01*
X144429041Y-102300342D01*
X144406856Y-102328844D01*
X144401778Y-102334596D01*
X144398898Y-102337477D01*
X144395577Y-102341399D01*
X144394575Y-102340551D01*
X144344417Y-102379877D01*
X144274854Y-102386415D01*
X144212799Y-102354307D01*
X144202648Y-102343356D01*
X144136935Y-102263284D01*
X143983510Y-102137371D01*
X143983508Y-102137370D01*
X143983507Y-102137369D01*
X143808461Y-102043806D01*
X143808460Y-102043805D01*
X143808459Y-102043805D01*
X143649339Y-101995537D01*
X143618526Y-101986190D01*
X143618524Y-101986189D01*
X143618526Y-101986189D01*
X143421000Y-101966735D01*
X143223475Y-101986189D01*
X143033540Y-102043805D01*
X142858489Y-102137371D01*
X142705064Y-102263284D01*
X142579151Y-102416709D01*
X142485585Y-102591760D01*
X142427969Y-102781695D01*
X142416988Y-102893184D01*
X142414058Y-102922947D01*
X142413390Y-102929727D01*
X142413390Y-104537472D01*
X142427969Y-104685504D01*
X142427970Y-104685506D01*
X142485586Y-104875441D01*
X142561067Y-105016658D01*
X142579151Y-105050490D01*
X142705064Y-105203915D01*
X142854993Y-105326959D01*
X142858493Y-105329831D01*
X143033539Y-105423394D01*
X143223474Y-105481010D01*
X143223473Y-105481010D01*
X143239749Y-105482613D01*
X143421000Y-105500465D01*
X143618526Y-105481010D01*
X143808461Y-105423394D01*
X143983507Y-105329831D01*
X144079027Y-105251439D01*
X144106835Y-105228618D01*
X144171145Y-105201305D01*
X144240012Y-105213096D01*
X144291573Y-105260248D01*
X144309500Y-105324471D01*
X144309500Y-105673514D01*
X144289815Y-105740553D01*
X144273181Y-105761195D01*
X142757309Y-107277066D01*
X142737454Y-107293191D01*
X142728045Y-107299338D01*
X142728041Y-107299342D01*
X142705856Y-107327844D01*
X142700778Y-107333596D01*
X142697898Y-107336477D01*
X142697884Y-107336493D01*
X142684098Y-107355801D01*
X142649843Y-107399812D01*
X142646035Y-107406847D01*
X142642524Y-107414031D01*
X142626609Y-107467486D01*
X142608499Y-107520240D01*
X142607185Y-107528114D01*
X142606194Y-107536062D01*
X142608500Y-107591783D01*
X142608500Y-108168696D01*
X142588815Y-108235735D01*
X142542953Y-108278054D01*
X142427494Y-108339767D01*
X142427491Y-108339769D01*
X142274064Y-108465684D01*
X142148151Y-108619109D01*
X142054585Y-108794160D01*
X141996969Y-108984095D01*
X141982390Y-109132127D01*
X141982390Y-110739872D01*
X141996969Y-110887904D01*
X141996970Y-110887906D01*
X142054586Y-111077841D01*
X142148149Y-111252887D01*
X142148150Y-111252889D01*
X142151021Y-111258259D01*
X142149735Y-111258945D01*
X142168440Y-111318694D01*
X142149952Y-111386073D01*
X142097970Y-111432760D01*
X142044460Y-111444900D01*
X141395540Y-111444900D01*
X141328501Y-111425215D01*
X141282746Y-111372411D01*
X141272802Y-111303253D01*
X141289860Y-111258730D01*
X141288979Y-111258259D01*
X141291849Y-111252889D01*
X141291851Y-111252887D01*
X141385414Y-111077841D01*
X141443030Y-110887906D01*
X141457610Y-110739876D01*
X141457610Y-109132124D01*
X141443030Y-108984094D01*
X141385414Y-108794159D01*
X141291851Y-108619113D01*
X141291848Y-108619109D01*
X141165935Y-108465684D01*
X141012510Y-108339771D01*
X141012508Y-108339770D01*
X141012507Y-108339769D01*
X140837461Y-108246206D01*
X140837460Y-108246205D01*
X140837459Y-108246205D01*
X140688459Y-108201007D01*
X140647526Y-108188590D01*
X140647524Y-108188589D01*
X140647526Y-108188589D01*
X140450000Y-108169135D01*
X140252475Y-108188589D01*
X140062540Y-108246205D01*
X139887489Y-108339771D01*
X139734064Y-108465684D01*
X139608151Y-108619109D01*
X139514585Y-108794160D01*
X139456969Y-108984095D01*
X139442390Y-109132127D01*
X139442390Y-110739872D01*
X139456969Y-110887904D01*
X139456970Y-110887906D01*
X139514586Y-111077841D01*
X139608069Y-111252738D01*
X139608151Y-111252890D01*
X139734064Y-111406315D01*
X139839284Y-111492667D01*
X139887493Y-111532231D01*
X140002952Y-111593944D01*
X140052797Y-111642906D01*
X140068500Y-111703303D01*
X140068500Y-111808049D01*
X140068288Y-111813170D01*
X140064546Y-111858340D01*
X140075671Y-111902273D01*
X140076723Y-111907290D01*
X140084181Y-111951985D01*
X140084494Y-111952562D01*
X140095640Y-111981126D01*
X140095802Y-111981767D01*
X140095802Y-111981768D01*
X140120586Y-112019702D01*
X140123209Y-112024105D01*
X140137844Y-112051146D01*
X140144780Y-112063962D01*
X140145259Y-112064403D01*
X140165083Y-112087809D01*
X140165440Y-112088356D01*
X140165441Y-112088357D01*
X140165442Y-112088358D01*
X140168297Y-112090580D01*
X140201202Y-112116190D01*
X140205109Y-112119499D01*
X140238449Y-112150192D01*
X140238454Y-112150195D01*
X140239053Y-112150458D01*
X140265397Y-112166156D01*
X140265909Y-112166554D01*
X140265912Y-112166555D01*
X140265915Y-112166558D01*
X140308773Y-112181271D01*
X140313534Y-112183128D01*
X140355052Y-112201340D01*
X140355703Y-112201393D01*
X140385723Y-112207688D01*
X140386339Y-112207900D01*
X140431650Y-112207900D01*
X140436771Y-112208112D01*
X140456429Y-112209740D01*
X140481940Y-112211854D01*
X140482572Y-112211693D01*
X140513011Y-112207900D01*
X143410973Y-112207900D01*
X143436418Y-112210539D01*
X143440361Y-112211365D01*
X143447417Y-112212845D01*
X143465976Y-112210531D01*
X143483266Y-112208377D01*
X143490942Y-112207900D01*
X143495008Y-112207900D01*
X143495011Y-112207900D01*
X143518404Y-112203996D01*
X143573760Y-112197096D01*
X143581413Y-112194816D01*
X143588982Y-112192218D01*
X143588986Y-112192218D01*
X143638041Y-112165670D01*
X143688146Y-112141176D01*
X143688148Y-112141174D01*
X143694663Y-112136522D01*
X143700958Y-112131623D01*
X143700959Y-112131621D01*
X143700962Y-112131620D01*
X143738741Y-112090580D01*
X144492693Y-111336628D01*
X144512542Y-111320509D01*
X144521956Y-111314360D01*
X144532117Y-111301304D01*
X144588824Y-111260489D01*
X144658597Y-111256811D01*
X144719282Y-111291439D01*
X144725826Y-111298797D01*
X144814064Y-111406315D01*
X144967489Y-111532228D01*
X144967493Y-111532231D01*
X145142539Y-111625794D01*
X145332474Y-111683410D01*
X145332473Y-111683410D01*
X145344546Y-111684599D01*
X145530000Y-111702865D01*
X145727526Y-111683410D01*
X145917461Y-111625794D01*
X146092507Y-111532231D01*
X146245935Y-111406315D01*
X146371851Y-111252887D01*
X146465414Y-111077841D01*
X146523030Y-110887906D01*
X146537610Y-110739876D01*
X146537610Y-109132124D01*
X146523030Y-108984094D01*
X146465414Y-108794159D01*
X146371851Y-108619113D01*
X146371848Y-108619109D01*
X146368979Y-108613741D01*
X146370264Y-108613054D01*
X146351560Y-108553306D01*
X146370048Y-108485927D01*
X146422030Y-108439240D01*
X146475540Y-108427100D01*
X146530473Y-108427100D01*
X146555918Y-108429739D01*
X146559861Y-108430565D01*
X146566917Y-108432045D01*
X146585476Y-108429731D01*
X146602766Y-108427577D01*
X146610442Y-108427100D01*
X146614508Y-108427100D01*
X146614511Y-108427100D01*
X146637904Y-108423196D01*
X146693260Y-108416296D01*
X146700913Y-108414016D01*
X146708482Y-108411418D01*
X146708486Y-108411418D01*
X146757541Y-108384870D01*
X146807646Y-108360376D01*
X146807648Y-108360374D01*
X146814163Y-108355722D01*
X146820458Y-108350823D01*
X146820459Y-108350821D01*
X146820462Y-108350820D01*
X146858241Y-108309780D01*
X150003689Y-105164331D01*
X150023539Y-105148211D01*
X150032956Y-105142060D01*
X150055154Y-105113538D01*
X150060225Y-105107796D01*
X150063113Y-105104909D01*
X150063117Y-105104902D01*
X150065636Y-105102385D01*
X150126966Y-105068912D01*
X150196656Y-105073909D01*
X150249154Y-105111418D01*
X150325064Y-105203915D01*
X150474993Y-105326959D01*
X150478493Y-105329831D01*
X150653539Y-105423394D01*
X150843474Y-105481010D01*
X150843473Y-105481010D01*
X150859749Y-105482613D01*
X151041000Y-105500465D01*
X151238526Y-105481010D01*
X151428461Y-105423394D01*
X151603507Y-105329831D01*
X151756935Y-105203915D01*
X151882851Y-105050487D01*
X151976414Y-104875441D01*
X152034030Y-104685506D01*
X152048610Y-104537476D01*
X152048610Y-102929724D01*
X152034030Y-102781694D01*
X151976414Y-102591759D01*
X151882851Y-102416713D01*
X151879324Y-102412415D01*
X151756935Y-102263284D01*
X151603510Y-102137371D01*
X151603508Y-102137370D01*
X151603507Y-102137369D01*
X151428461Y-102043806D01*
X151428460Y-102043805D01*
X151428459Y-102043805D01*
X151269339Y-101995537D01*
X151238526Y-101986190D01*
X151238524Y-101986189D01*
X151238522Y-101986189D01*
X151232550Y-101985001D01*
X151232893Y-101983274D01*
X151175834Y-101960225D01*
X151135483Y-101903185D01*
X151132376Y-101833384D01*
X151165106Y-101775315D01*
X152074604Y-100865819D01*
X152135927Y-100832334D01*
X152162285Y-100829500D01*
X152511573Y-100829500D01*
X152537018Y-100832139D01*
X152540961Y-100832965D01*
X152548017Y-100834445D01*
X152566576Y-100832131D01*
X152583866Y-100829977D01*
X152591542Y-100829500D01*
X152595608Y-100829500D01*
X152595611Y-100829500D01*
X152619004Y-100825596D01*
X152674360Y-100818696D01*
X152682013Y-100816416D01*
X152689582Y-100813818D01*
X152689586Y-100813818D01*
X152738641Y-100787270D01*
X152788746Y-100762776D01*
X152788748Y-100762774D01*
X152795263Y-100758122D01*
X152801558Y-100753223D01*
X152801559Y-100753221D01*
X152801562Y-100753220D01*
X152839341Y-100712180D01*
X157069102Y-96482418D01*
X157130423Y-96448935D01*
X157200115Y-96453919D01*
X157256048Y-96495791D01*
X157257099Y-96497216D01*
X157282499Y-96532176D01*
X157282500Y-96532178D01*
X157445542Y-96688062D01*
X157633791Y-96812324D01*
X157841195Y-96900972D01*
X157841212Y-96900978D01*
X158061110Y-96951167D01*
X158286443Y-96961287D01*
X158509973Y-96931008D01*
X158724495Y-96861306D01*
X158923122Y-96754420D01*
X158923125Y-96754418D01*
X159092275Y-96619525D01*
X159156961Y-96593117D01*
X159225657Y-96605872D01*
X159257269Y-96628791D01*
X161934381Y-99305903D01*
X161967866Y-99367226D01*
X161970700Y-99393584D01*
X161970700Y-102045231D01*
X161951015Y-102112270D01*
X161898211Y-102158025D01*
X161829053Y-102167969D01*
X161768039Y-102141087D01*
X161763512Y-102137372D01*
X161763513Y-102137372D01*
X161588459Y-102043805D01*
X161429339Y-101995537D01*
X161398526Y-101986190D01*
X161398524Y-101986189D01*
X161398526Y-101986189D01*
X161201000Y-101966735D01*
X161003475Y-101986189D01*
X160813540Y-102043805D01*
X160638489Y-102137371D01*
X160485064Y-102263284D01*
X160359151Y-102416709D01*
X160265585Y-102591760D01*
X160207969Y-102781695D01*
X160196988Y-102893184D01*
X160194058Y-102922947D01*
X160193390Y-102929727D01*
X160193390Y-104537472D01*
X160207969Y-104685504D01*
X160207970Y-104685506D01*
X160265586Y-104875441D01*
X160341067Y-105016658D01*
X160359151Y-105050490D01*
X160485064Y-105203915D01*
X160638491Y-105329830D01*
X160638494Y-105329832D01*
X160697720Y-105361489D01*
X160747565Y-105410451D01*
X160763025Y-105478589D01*
X160739193Y-105544269D01*
X160726948Y-105558528D01*
X159367409Y-106918066D01*
X159347554Y-106934191D01*
X159338145Y-106940338D01*
X159338141Y-106940342D01*
X159315956Y-106968844D01*
X159310878Y-106974596D01*
X159307998Y-106977477D01*
X159307984Y-106977493D01*
X159294198Y-106996801D01*
X159259943Y-107040812D01*
X159256135Y-107047847D01*
X159252624Y-107055031D01*
X159236709Y-107108486D01*
X159218599Y-107161240D01*
X159217285Y-107169114D01*
X159216294Y-107177062D01*
X159218600Y-107232783D01*
X159218600Y-108103247D01*
X159198915Y-108170286D01*
X159146111Y-108216041D01*
X159076953Y-108225985D01*
X159019119Y-108200987D01*
X159019107Y-108201007D01*
X159018997Y-108200934D01*
X159017291Y-108200197D01*
X159014460Y-108197939D01*
X158826208Y-108073675D01*
X158618804Y-107985027D01*
X158618787Y-107985021D01*
X158398889Y-107934832D01*
X158173556Y-107924712D01*
X157950026Y-107954991D01*
X157735504Y-108024693D01*
X157536877Y-108131579D01*
X157536874Y-108131581D01*
X157360524Y-108272215D01*
X157212112Y-108442085D01*
X157166306Y-108518751D01*
X157166306Y-108518753D01*
X158098253Y-109450700D01*
X158087939Y-109452183D01*
X157957386Y-109511805D01*
X157848919Y-109605792D01*
X157771325Y-109726530D01*
X157747640Y-109807193D01*
X156981864Y-109041417D01*
X156976890Y-109068835D01*
X156976890Y-110746656D01*
X156984230Y-110828216D01*
X157747640Y-110064806D01*
X157771325Y-110145470D01*
X157848919Y-110266208D01*
X157957386Y-110360195D01*
X158087939Y-110419817D01*
X158098251Y-110421299D01*
X157152120Y-111367430D01*
X157141265Y-111395915D01*
X157085035Y-111437387D01*
X157042529Y-111444900D01*
X156635540Y-111444900D01*
X156568501Y-111425215D01*
X156522746Y-111372411D01*
X156512802Y-111303253D01*
X156529860Y-111258730D01*
X156528979Y-111258259D01*
X156531849Y-111252889D01*
X156531851Y-111252887D01*
X156625414Y-111077841D01*
X156683030Y-110887906D01*
X156697610Y-110739876D01*
X156697610Y-109132124D01*
X156683030Y-108984094D01*
X156625414Y-108794159D01*
X156531851Y-108619113D01*
X156531848Y-108619109D01*
X156405935Y-108465684D01*
X156252510Y-108339771D01*
X156252508Y-108339770D01*
X156252507Y-108339769D01*
X156077461Y-108246206D01*
X156077460Y-108246205D01*
X156077459Y-108246205D01*
X155928459Y-108201007D01*
X155887526Y-108188590D01*
X155887524Y-108188589D01*
X155887526Y-108188589D01*
X155690000Y-108169135D01*
X155492475Y-108188589D01*
X155302540Y-108246205D01*
X155127489Y-108339771D01*
X154974064Y-108465684D01*
X154848151Y-108619109D01*
X154754585Y-108794160D01*
X154696969Y-108984095D01*
X154682390Y-109132127D01*
X154682390Y-110739872D01*
X154696969Y-110887904D01*
X154696970Y-110887906D01*
X154754586Y-111077841D01*
X154848069Y-111252738D01*
X154848151Y-111252890D01*
X154974064Y-111406315D01*
X155079284Y-111492667D01*
X155127493Y-111532231D01*
X155242952Y-111593944D01*
X155292797Y-111642906D01*
X155308500Y-111703303D01*
X155308500Y-111808049D01*
X155308288Y-111813169D01*
X155305135Y-111851237D01*
X155279983Y-111916423D01*
X155223582Y-111957662D01*
X155181558Y-111965000D01*
X153879484Y-111965000D01*
X153812445Y-111945315D01*
X153791803Y-111928681D01*
X153681638Y-111818516D01*
X153624049Y-111760926D01*
X153590565Y-111699605D01*
X153595549Y-111629913D01*
X153637421Y-111573980D01*
X153653272Y-111563892D01*
X153712507Y-111532231D01*
X153865935Y-111406315D01*
X153991851Y-111252887D01*
X154085414Y-111077841D01*
X154143030Y-110887906D01*
X154157610Y-110739876D01*
X154157610Y-109132124D01*
X154143030Y-108984094D01*
X154085414Y-108794159D01*
X153991851Y-108619113D01*
X153991848Y-108619109D01*
X153865935Y-108465684D01*
X153712510Y-108339771D01*
X153712508Y-108339770D01*
X153712507Y-108339769D01*
X153537461Y-108246206D01*
X153537460Y-108246205D01*
X153537459Y-108246205D01*
X153388459Y-108201007D01*
X153347526Y-108188590D01*
X153347524Y-108188589D01*
X153347526Y-108188589D01*
X153150000Y-108169135D01*
X152952475Y-108188589D01*
X152762540Y-108246205D01*
X152587489Y-108339771D01*
X152434064Y-108465684D01*
X152308151Y-108619109D01*
X152214585Y-108794160D01*
X152156969Y-108984095D01*
X152142390Y-109132127D01*
X152142390Y-110739872D01*
X152156969Y-110887904D01*
X152156970Y-110887906D01*
X152214586Y-111077841D01*
X152308069Y-111252738D01*
X152308151Y-111252890D01*
X152434064Y-111406315D01*
X152539284Y-111492667D01*
X152587493Y-111532231D01*
X152702952Y-111593944D01*
X152752797Y-111642906D01*
X152768500Y-111703303D01*
X152768500Y-111773972D01*
X152765861Y-111799420D01*
X152763554Y-111810417D01*
X152768023Y-111846265D01*
X152768500Y-111853941D01*
X152768500Y-111858011D01*
X152770251Y-111868504D01*
X152772403Y-111881405D01*
X152779304Y-111936761D01*
X152781580Y-111944409D01*
X152784181Y-111951985D01*
X152810729Y-112001041D01*
X152835224Y-112051147D01*
X152839869Y-112057653D01*
X152844781Y-112063964D01*
X152885819Y-112101741D01*
X153363262Y-112579184D01*
X153379389Y-112599043D01*
X153385536Y-112608452D01*
X153385538Y-112608454D01*
X153385539Y-112608455D01*
X153385540Y-112608456D01*
X153414056Y-112630650D01*
X153419808Y-112635730D01*
X153422691Y-112638613D01*
X153441989Y-112652391D01*
X153486015Y-112686658D01*
X153486017Y-112686658D01*
X153493039Y-112690459D01*
X153500227Y-112693973D01*
X153500230Y-112693975D01*
X153553679Y-112709887D01*
X153606439Y-112728000D01*
X153606444Y-112728000D01*
X153614297Y-112729311D01*
X153622255Y-112730303D01*
X153622258Y-112730304D01*
X153622260Y-112730303D01*
X153622261Y-112730304D01*
X153677970Y-112728000D01*
X163218873Y-112728000D01*
X163244318Y-112730639D01*
X163248261Y-112731465D01*
X163255317Y-112732945D01*
X163273876Y-112730631D01*
X163291166Y-112728477D01*
X163298842Y-112728000D01*
X163302908Y-112728000D01*
X163302911Y-112728000D01*
X163326304Y-112724096D01*
X163381660Y-112717196D01*
X163389313Y-112714916D01*
X163396882Y-112712318D01*
X163396886Y-112712318D01*
X163445941Y-112685770D01*
X163496046Y-112661276D01*
X163496048Y-112661274D01*
X163502563Y-112656622D01*
X163508858Y-112651723D01*
X163508859Y-112651721D01*
X163508862Y-112651720D01*
X163546641Y-112610680D01*
X164812689Y-111344631D01*
X164832539Y-111328511D01*
X164841956Y-111322360D01*
X164855315Y-111305195D01*
X164912022Y-111264382D01*
X164981794Y-111260705D01*
X165042479Y-111295334D01*
X165049022Y-111302691D01*
X165134064Y-111406315D01*
X165287489Y-111532228D01*
X165287493Y-111532231D01*
X165462539Y-111625794D01*
X165652474Y-111683410D01*
X165652473Y-111683410D01*
X165664546Y-111684599D01*
X165850000Y-111702865D01*
X166047526Y-111683410D01*
X166237461Y-111625794D01*
X166412507Y-111532231D01*
X166565935Y-111406315D01*
X166691851Y-111252887D01*
X166785414Y-111077841D01*
X166843030Y-110887906D01*
X166857610Y-110739876D01*
X166857610Y-109132124D01*
X166843030Y-108984094D01*
X166785414Y-108794159D01*
X166691851Y-108619113D01*
X166691848Y-108619109D01*
X166565935Y-108465684D01*
X166412508Y-108339769D01*
X166412505Y-108339767D01*
X166353278Y-108308110D01*
X166303433Y-108259148D01*
X166287973Y-108191010D01*
X166311805Y-108125330D01*
X166324044Y-108111077D01*
X167783689Y-106651431D01*
X167803539Y-106635311D01*
X167812956Y-106629160D01*
X167835159Y-106600631D01*
X167840230Y-106594891D01*
X167843113Y-106592009D01*
X167856891Y-106572710D01*
X167891158Y-106528685D01*
X167891159Y-106528679D01*
X167894956Y-106521666D01*
X167898471Y-106514474D01*
X167898475Y-106514470D01*
X167904414Y-106494517D01*
X167914391Y-106461010D01*
X167923311Y-106435023D01*
X167932500Y-106408261D01*
X167932500Y-106408258D01*
X167933815Y-106400377D01*
X167934805Y-106392440D01*
X167932500Y-106336717D01*
X167932500Y-105324471D01*
X167952185Y-105257432D01*
X168004989Y-105211677D01*
X168074147Y-105201733D01*
X168135165Y-105228618D01*
X168162975Y-105251441D01*
X168258493Y-105329831D01*
X168373952Y-105391544D01*
X168423797Y-105440506D01*
X168439500Y-105500903D01*
X168439500Y-105605649D01*
X168439288Y-105610770D01*
X168435546Y-105655940D01*
X168446671Y-105699873D01*
X168447723Y-105704890D01*
X168455181Y-105749585D01*
X168455494Y-105750162D01*
X168466640Y-105778726D01*
X168466802Y-105779367D01*
X168466802Y-105779368D01*
X168491586Y-105817302D01*
X168494209Y-105821705D01*
X168508844Y-105848746D01*
X168515780Y-105861562D01*
X168516259Y-105862003D01*
X168536083Y-105885409D01*
X168536440Y-105885956D01*
X168536441Y-105885957D01*
X168536442Y-105885958D01*
X168553636Y-105899340D01*
X168572202Y-105913790D01*
X168576109Y-105917099D01*
X168609449Y-105947792D01*
X168609454Y-105947795D01*
X168610053Y-105948058D01*
X168636397Y-105963756D01*
X168636909Y-105964154D01*
X168636912Y-105964155D01*
X168636915Y-105964158D01*
X168679773Y-105978871D01*
X168684534Y-105980728D01*
X168726052Y-105998940D01*
X168726703Y-105998993D01*
X168756723Y-106005288D01*
X168757339Y-106005500D01*
X168802650Y-106005500D01*
X168807771Y-106005712D01*
X168827429Y-106007340D01*
X168852940Y-106009454D01*
X168853572Y-106009293D01*
X168884011Y-106005500D01*
X170839016Y-106005500D01*
X170906055Y-106025185D01*
X170926697Y-106041819D01*
X172995949Y-108111071D01*
X173029434Y-108172394D01*
X173024450Y-108242086D01*
X172982578Y-108298019D01*
X172966722Y-108308110D01*
X172907491Y-108339770D01*
X172754064Y-108465684D01*
X172628151Y-108619109D01*
X172534585Y-108794160D01*
X172476969Y-108984095D01*
X172462390Y-109132127D01*
X172462390Y-110739872D01*
X172476969Y-110887904D01*
X172476970Y-110887906D01*
X172534586Y-111077841D01*
X172628149Y-111252887D01*
X172628150Y-111252889D01*
X172631021Y-111258259D01*
X172629735Y-111258945D01*
X172648440Y-111318694D01*
X172629952Y-111386073D01*
X172577970Y-111432760D01*
X172524460Y-111444900D01*
X171875540Y-111444900D01*
X171808501Y-111425215D01*
X171762746Y-111372411D01*
X171752802Y-111303253D01*
X171769860Y-111258730D01*
X171768979Y-111258259D01*
X171771849Y-111252889D01*
X171771851Y-111252887D01*
X171865414Y-111077841D01*
X171923030Y-110887906D01*
X171937610Y-110739876D01*
X171937610Y-109132124D01*
X171923030Y-108984094D01*
X171865414Y-108794159D01*
X171771851Y-108619113D01*
X171771848Y-108619109D01*
X171645935Y-108465684D01*
X171492510Y-108339771D01*
X171492508Y-108339770D01*
X171492507Y-108339769D01*
X171317461Y-108246206D01*
X171317460Y-108246205D01*
X171317459Y-108246205D01*
X171168459Y-108201007D01*
X171127526Y-108188590D01*
X171127524Y-108188589D01*
X171127526Y-108188589D01*
X170930000Y-108169135D01*
X170732475Y-108188589D01*
X170542540Y-108246205D01*
X170367489Y-108339771D01*
X170214064Y-108465684D01*
X170088151Y-108619109D01*
X169994585Y-108794160D01*
X169936969Y-108984095D01*
X169922390Y-109132127D01*
X169922390Y-110739872D01*
X169936969Y-110887904D01*
X169936970Y-110887906D01*
X169994586Y-111077841D01*
X170088069Y-111252738D01*
X170088151Y-111252890D01*
X170214064Y-111406315D01*
X170319284Y-111492667D01*
X170367493Y-111532231D01*
X170482952Y-111593944D01*
X170532797Y-111642906D01*
X170548500Y-111703303D01*
X170548500Y-111808049D01*
X170548288Y-111813170D01*
X170544546Y-111858339D01*
X170544647Y-111859556D01*
X170544309Y-111861196D01*
X170543698Y-111868578D01*
X170542806Y-111868504D01*
X170530568Y-111927992D01*
X170481725Y-111977953D01*
X170421071Y-111993800D01*
X169148284Y-111993800D01*
X169081245Y-111974115D01*
X169060603Y-111957481D01*
X168939103Y-111835981D01*
X168864049Y-111760926D01*
X168830565Y-111699605D01*
X168835549Y-111629913D01*
X168877421Y-111573980D01*
X168893272Y-111563892D01*
X168952507Y-111532231D01*
X169105935Y-111406315D01*
X169231851Y-111252887D01*
X169325414Y-111077841D01*
X169383030Y-110887906D01*
X169397610Y-110739876D01*
X169397610Y-109132124D01*
X169383030Y-108984094D01*
X169325414Y-108794159D01*
X169231851Y-108619113D01*
X169231848Y-108619109D01*
X169105935Y-108465684D01*
X168952510Y-108339771D01*
X168952508Y-108339770D01*
X168952507Y-108339769D01*
X168777461Y-108246206D01*
X168777460Y-108246205D01*
X168777459Y-108246205D01*
X168628459Y-108201007D01*
X168587526Y-108188590D01*
X168587524Y-108188589D01*
X168587526Y-108188589D01*
X168390000Y-108169135D01*
X168192475Y-108188589D01*
X168002540Y-108246205D01*
X167827489Y-108339771D01*
X167674064Y-108465684D01*
X167548151Y-108619109D01*
X167454585Y-108794160D01*
X167396969Y-108984095D01*
X167382390Y-109132127D01*
X167382390Y-110739872D01*
X167396969Y-110887904D01*
X167396970Y-110887906D01*
X167454586Y-111077841D01*
X167548069Y-111252738D01*
X167548151Y-111252890D01*
X167674064Y-111406315D01*
X167779284Y-111492667D01*
X167827493Y-111532231D01*
X167942952Y-111593944D01*
X167992797Y-111642906D01*
X168008500Y-111703303D01*
X168008500Y-111773972D01*
X168005861Y-111799420D01*
X168003554Y-111810417D01*
X168008023Y-111846265D01*
X168008500Y-111853941D01*
X168008500Y-111858011D01*
X168010251Y-111868504D01*
X168012403Y-111881405D01*
X168019304Y-111936761D01*
X168021580Y-111944409D01*
X168024181Y-111951985D01*
X168050729Y-112001041D01*
X168075224Y-112051147D01*
X168079869Y-112057653D01*
X168084781Y-112063963D01*
X168125818Y-112101740D01*
X168632065Y-112607988D01*
X168648193Y-112627848D01*
X168654338Y-112637254D01*
X168654339Y-112637255D01*
X168654340Y-112637256D01*
X168672924Y-112651720D01*
X168682844Y-112659441D01*
X168688601Y-112664524D01*
X168691491Y-112667414D01*
X168710800Y-112681200D01*
X168754815Y-112715458D01*
X168754822Y-112715460D01*
X168761852Y-112719265D01*
X168769025Y-112722771D01*
X168769030Y-112722775D01*
X168795446Y-112730639D01*
X168822485Y-112738689D01*
X168848862Y-112747744D01*
X168875239Y-112756800D01*
X168875240Y-112756800D01*
X168883119Y-112758115D01*
X168891058Y-112759104D01*
X168891059Y-112759105D01*
X168891059Y-112759104D01*
X168891060Y-112759105D01*
X168935252Y-112757277D01*
X168946784Y-112756800D01*
X170495899Y-112756800D01*
X170562938Y-112776485D01*
X170608693Y-112829289D01*
X170618637Y-112898447D01*
X170589612Y-112962003D01*
X170530834Y-112999777D01*
X170521684Y-113002088D01*
X170509984Y-113004575D01*
X170441723Y-113019084D01*
X170441717Y-113019086D01*
X170266030Y-113097308D01*
X170266025Y-113097311D01*
X170110441Y-113210350D01*
X170110435Y-113210355D01*
X169981752Y-113353273D01*
X169885593Y-113519826D01*
X169885590Y-113519832D01*
X169826164Y-113702729D01*
X169826163Y-113702731D01*
X169806060Y-113894000D01*
X169826163Y-114085268D01*
X169826165Y-114085273D01*
X169844138Y-114140590D01*
X169846133Y-114210431D01*
X169813888Y-114266588D01*
X163307009Y-120773466D01*
X163287154Y-120789591D01*
X163277745Y-120795738D01*
X163277743Y-120795740D01*
X163272312Y-120802718D01*
X163215599Y-120843528D01*
X163145826Y-120847199D01*
X163091491Y-120818702D01*
X163037127Y-120769753D01*
X162870573Y-120673593D01*
X162870567Y-120673590D01*
X162687670Y-120614164D01*
X162687668Y-120614163D01*
X162646719Y-120609859D01*
X162544352Y-120599100D01*
X161127648Y-120599100D01*
X161038076Y-120608514D01*
X160984331Y-120614163D01*
X160984329Y-120614164D01*
X160801432Y-120673590D01*
X160801426Y-120673593D01*
X160634873Y-120769752D01*
X160491955Y-120898435D01*
X160491950Y-120898441D01*
X160378911Y-121054025D01*
X160378908Y-121054030D01*
X160300686Y-121229717D01*
X160300684Y-121229723D01*
X160260700Y-121417840D01*
X160260700Y-121610159D01*
X160300684Y-121798276D01*
X160300686Y-121798282D01*
X160378908Y-121973969D01*
X160378911Y-121973974D01*
X160419191Y-122029414D01*
X160491951Y-122129560D01*
X160491953Y-122129562D01*
X160491955Y-122129564D01*
X160520875Y-122155603D01*
X160634873Y-122258247D01*
X160801427Y-122354407D01*
X160801429Y-122354407D01*
X160801432Y-122354409D01*
X160872808Y-122377600D01*
X160984334Y-122413837D01*
X161127648Y-122428900D01*
X161127653Y-122428900D01*
X162544347Y-122428900D01*
X162544352Y-122428900D01*
X162687666Y-122413837D01*
X162870573Y-122354407D01*
X163037127Y-122258247D01*
X163180049Y-122129560D01*
X163293091Y-121973970D01*
X163293871Y-121972217D01*
X163295275Y-121969066D01*
X163340524Y-121915828D01*
X163407373Y-121895506D01*
X163408555Y-121895500D01*
X163521350Y-121895500D01*
X163526471Y-121895712D01*
X163546129Y-121897340D01*
X163571640Y-121899454D01*
X163615573Y-121888327D01*
X163620583Y-121887276D01*
X163665286Y-121879818D01*
X163665851Y-121879512D01*
X163694437Y-121868357D01*
X163695066Y-121868198D01*
X163733021Y-121843400D01*
X163737409Y-121840787D01*
X163777256Y-121819223D01*
X163777255Y-121819223D01*
X163777262Y-121819220D01*
X163777695Y-121818749D01*
X163801120Y-121798909D01*
X163801656Y-121798560D01*
X163829509Y-121762772D01*
X163832788Y-121758900D01*
X163863495Y-121725546D01*
X163863756Y-121724950D01*
X163879461Y-121698594D01*
X163879858Y-121698085D01*
X163894573Y-121655221D01*
X163896437Y-121650444D01*
X163914640Y-121608948D01*
X163914693Y-121608296D01*
X163920990Y-121578271D01*
X163921200Y-121577661D01*
X163921200Y-121532337D01*
X163921412Y-121527215D01*
X163925154Y-121482058D01*
X163924994Y-121481425D01*
X163921200Y-121450988D01*
X163921200Y-121289684D01*
X163940885Y-121222645D01*
X163957519Y-121202003D01*
X167148999Y-118010523D01*
X170351962Y-114807559D01*
X170413283Y-114774076D01*
X170465420Y-114773952D01*
X170629840Y-114808900D01*
X170629841Y-114808900D01*
X170822159Y-114808900D01*
X170822160Y-114808900D01*
X171010277Y-114768915D01*
X171010279Y-114768913D01*
X171010282Y-114768913D01*
X171069461Y-114742564D01*
X171185970Y-114690691D01*
X171341560Y-114577649D01*
X171470247Y-114434727D01*
X171566407Y-114268173D01*
X171625837Y-114085266D01*
X171645940Y-113894000D01*
X171625837Y-113702734D01*
X171566922Y-113521411D01*
X171566409Y-113519832D01*
X171566406Y-113519826D01*
X171470247Y-113353273D01*
X171341564Y-113210355D01*
X171341562Y-113210353D01*
X171341560Y-113210351D01*
X171289696Y-113172670D01*
X171185974Y-113097311D01*
X171185969Y-113097308D01*
X171010282Y-113019086D01*
X171010276Y-113019084D01*
X170944607Y-113005126D01*
X170930319Y-113002089D01*
X170868838Y-112968898D01*
X170835062Y-112907735D01*
X170839714Y-112838020D01*
X170881318Y-112781888D01*
X170946666Y-112757159D01*
X170956101Y-112756800D01*
X174305899Y-112756800D01*
X174372938Y-112776485D01*
X174418693Y-112829289D01*
X174428637Y-112898447D01*
X174399612Y-112962003D01*
X174340834Y-112999777D01*
X174331684Y-113002088D01*
X174319984Y-113004575D01*
X174251723Y-113019084D01*
X174251717Y-113019086D01*
X174076030Y-113097308D01*
X174076025Y-113097311D01*
X173920441Y-113210350D01*
X173920435Y-113210355D01*
X173791752Y-113353273D01*
X173695593Y-113519826D01*
X173695590Y-113519832D01*
X173636164Y-113702729D01*
X173636163Y-113702731D01*
X173616060Y-113894000D01*
X173636163Y-114085268D01*
X173636165Y-114085273D01*
X173654138Y-114140590D01*
X173656133Y-114210431D01*
X173623888Y-114266588D01*
X166683309Y-121207166D01*
X166663454Y-121223291D01*
X166654045Y-121229438D01*
X166654041Y-121229442D01*
X166631856Y-121257944D01*
X166626778Y-121263696D01*
X166623898Y-121266577D01*
X166623884Y-121266593D01*
X166610098Y-121285901D01*
X166575843Y-121329912D01*
X166572035Y-121336947D01*
X166568524Y-121344131D01*
X166552609Y-121397586D01*
X166534499Y-121450340D01*
X166533185Y-121458214D01*
X166532194Y-121466162D01*
X166534500Y-121521883D01*
X166534500Y-123141845D01*
X166514815Y-123208884D01*
X166462011Y-123254639D01*
X166460939Y-123255123D01*
X166456028Y-123257309D01*
X166300441Y-123370350D01*
X166300435Y-123370355D01*
X166171752Y-123513273D01*
X166075593Y-123679826D01*
X166075590Y-123679832D01*
X166016164Y-123862729D01*
X166016163Y-123862731D01*
X165996060Y-124054000D01*
X166016163Y-124245268D01*
X166016164Y-124245270D01*
X166075590Y-124428167D01*
X166075593Y-124428173D01*
X166134729Y-124530600D01*
X166151202Y-124598501D01*
X166128349Y-124664527D01*
X166073428Y-124707718D01*
X166027342Y-124716600D01*
X160115784Y-124716600D01*
X160048745Y-124696915D01*
X160028103Y-124680281D01*
X154417982Y-119070159D01*
X160260700Y-119070159D01*
X160300684Y-119258276D01*
X160300686Y-119258282D01*
X160378908Y-119433969D01*
X160378911Y-119433974D01*
X160454270Y-119537696D01*
X160491951Y-119589560D01*
X160634873Y-119718247D01*
X160801427Y-119814407D01*
X160801429Y-119814407D01*
X160801432Y-119814409D01*
X160845413Y-119828699D01*
X160984334Y-119873837D01*
X161127648Y-119888900D01*
X161127653Y-119888900D01*
X162544347Y-119888900D01*
X162544352Y-119888900D01*
X162687666Y-119873837D01*
X162870573Y-119814407D01*
X163037127Y-119718247D01*
X163180049Y-119589560D01*
X163293091Y-119433970D01*
X163371315Y-119258277D01*
X163411300Y-119070160D01*
X163411300Y-118877840D01*
X163371315Y-118689723D01*
X163371313Y-118689717D01*
X163293091Y-118514030D01*
X163293088Y-118514025D01*
X163180054Y-118358446D01*
X163180054Y-118358445D01*
X163180050Y-118358441D01*
X163180049Y-118358440D01*
X163177721Y-118356343D01*
X163176766Y-118354795D01*
X163175705Y-118353616D01*
X163175920Y-118353421D01*
X163141071Y-118296863D01*
X163142397Y-118227006D01*
X163173007Y-118176513D01*
X166541961Y-114807559D01*
X166603282Y-114774076D01*
X166655421Y-114773952D01*
X166819840Y-114808900D01*
X166819841Y-114808900D01*
X167012159Y-114808900D01*
X167012160Y-114808900D01*
X167200277Y-114768915D01*
X167200279Y-114768913D01*
X167200282Y-114768913D01*
X167259461Y-114742564D01*
X167375970Y-114690691D01*
X167531560Y-114577649D01*
X167660247Y-114434727D01*
X167756407Y-114268173D01*
X167815837Y-114085266D01*
X167835940Y-113894000D01*
X167815837Y-113702734D01*
X167756922Y-113521411D01*
X167756409Y-113519832D01*
X167756406Y-113519826D01*
X167660247Y-113353273D01*
X167531564Y-113210355D01*
X167531562Y-113210353D01*
X167531560Y-113210351D01*
X167479696Y-113172670D01*
X167375974Y-113097311D01*
X167375969Y-113097308D01*
X167200282Y-113019086D01*
X167200276Y-113019084D01*
X167052144Y-112987598D01*
X167012160Y-112979100D01*
X166819840Y-112979100D01*
X166786864Y-112986108D01*
X166631723Y-113019084D01*
X166631717Y-113019086D01*
X166456030Y-113097308D01*
X166456025Y-113097311D01*
X166300441Y-113210350D01*
X166300435Y-113210355D01*
X166171752Y-113353273D01*
X166075593Y-113519826D01*
X166075590Y-113519832D01*
X166016164Y-113702729D01*
X166016163Y-113702731D01*
X165996060Y-113894000D01*
X166016163Y-114085268D01*
X166016165Y-114085273D01*
X166034138Y-114140590D01*
X166036133Y-114210431D01*
X166003888Y-114266588D01*
X163618493Y-116651983D01*
X163557170Y-116685468D01*
X163487478Y-116680484D01*
X163431545Y-116638612D01*
X163407128Y-116573148D01*
X163409522Y-116538522D01*
X163411300Y-116530160D01*
X163411300Y-116337840D01*
X163371315Y-116149723D01*
X163371313Y-116149717D01*
X163293091Y-115974030D01*
X163293088Y-115974025D01*
X163207557Y-115856302D01*
X163180049Y-115818440D01*
X163180045Y-115818436D01*
X163180044Y-115818435D01*
X163109427Y-115754852D01*
X163037127Y-115689753D01*
X163037125Y-115689752D01*
X163037126Y-115689752D01*
X162870573Y-115593593D01*
X162870567Y-115593590D01*
X162687670Y-115534164D01*
X162687668Y-115534163D01*
X162646719Y-115529859D01*
X162544352Y-115519100D01*
X161127648Y-115519100D01*
X161038076Y-115528514D01*
X160984331Y-115534163D01*
X160984329Y-115534164D01*
X160801432Y-115593590D01*
X160801426Y-115593593D01*
X160634873Y-115689752D01*
X160491955Y-115818435D01*
X160491950Y-115818441D01*
X160378911Y-115974025D01*
X160378908Y-115974030D01*
X160300686Y-116149717D01*
X160300684Y-116149723D01*
X160260700Y-116337840D01*
X160260700Y-116530159D01*
X160300684Y-116718276D01*
X160300686Y-116718282D01*
X160378908Y-116893969D01*
X160378911Y-116893974D01*
X160418592Y-116948590D01*
X160491951Y-117049560D01*
X160491953Y-117049562D01*
X160491955Y-117049564D01*
X160515363Y-117070640D01*
X160634873Y-117178247D01*
X160801427Y-117274407D01*
X160801429Y-117274407D01*
X160801432Y-117274409D01*
X160855031Y-117291824D01*
X160984334Y-117333837D01*
X161127648Y-117348900D01*
X161127653Y-117348900D01*
X161612496Y-117348900D01*
X161679535Y-117368585D01*
X161725290Y-117421389D01*
X161735234Y-117490547D01*
X161706209Y-117554103D01*
X161680312Y-117576712D01*
X161642687Y-117601291D01*
X161638287Y-117603913D01*
X161598440Y-117625478D01*
X161598437Y-117625481D01*
X161597990Y-117625967D01*
X161574601Y-117645776D01*
X161574043Y-117646140D01*
X161546209Y-117681902D01*
X161542897Y-117685812D01*
X161512206Y-117719152D01*
X161512204Y-117719155D01*
X161511938Y-117719762D01*
X161496251Y-117746089D01*
X161495844Y-117746611D01*
X161495839Y-117746620D01*
X161481127Y-117789473D01*
X161479265Y-117794245D01*
X161461060Y-117835750D01*
X161461058Y-117835756D01*
X161461004Y-117836416D01*
X161454715Y-117866409D01*
X161454501Y-117867031D01*
X161454500Y-117867039D01*
X161454500Y-117912349D01*
X161454288Y-117917469D01*
X161451980Y-117945337D01*
X161426828Y-118010523D01*
X161370427Y-118051762D01*
X161328403Y-118059100D01*
X161127648Y-118059100D01*
X161038076Y-118068514D01*
X160984331Y-118074163D01*
X160984329Y-118074164D01*
X160801432Y-118133590D01*
X160801426Y-118133593D01*
X160634873Y-118229752D01*
X160491955Y-118358435D01*
X160491950Y-118358441D01*
X160378911Y-118514025D01*
X160378908Y-118514030D01*
X160300686Y-118689717D01*
X160300684Y-118689723D01*
X160260700Y-118877840D01*
X160260700Y-119070159D01*
X154417982Y-119070159D01*
X152141874Y-116794051D01*
X152108389Y-116732728D01*
X152113373Y-116663036D01*
X152155245Y-116607103D01*
X152156670Y-116606052D01*
X152190888Y-116581191D01*
X152291560Y-116508049D01*
X152420247Y-116365127D01*
X152516407Y-116198573D01*
X152575837Y-116015666D01*
X152590900Y-115872352D01*
X153301100Y-115872352D01*
X153311786Y-115974025D01*
X153316163Y-116015668D01*
X153316164Y-116015670D01*
X153375590Y-116198567D01*
X153375593Y-116198573D01*
X153471752Y-116365126D01*
X153578691Y-116483895D01*
X153600440Y-116508049D01*
X153642375Y-116538516D01*
X153756025Y-116621088D01*
X153756030Y-116621091D01*
X153931717Y-116699313D01*
X153931723Y-116699315D01*
X154119840Y-116739300D01*
X154119841Y-116739300D01*
X154312159Y-116739300D01*
X154312160Y-116739300D01*
X154500277Y-116699315D01*
X154500279Y-116699313D01*
X154500282Y-116699313D01*
X154569434Y-116668524D01*
X154675970Y-116621091D01*
X154831560Y-116508049D01*
X154960247Y-116365127D01*
X155056407Y-116198573D01*
X155115837Y-116015666D01*
X155130900Y-115872352D01*
X155130900Y-114455648D01*
X155115837Y-114312334D01*
X155075931Y-114189516D01*
X155056409Y-114129432D01*
X155056406Y-114129426D01*
X155030914Y-114085273D01*
X154960247Y-113962873D01*
X154831560Y-113819951D01*
X154779696Y-113782270D01*
X154675974Y-113706911D01*
X154675969Y-113706908D01*
X154500282Y-113628686D01*
X154500276Y-113628684D01*
X154352144Y-113597198D01*
X154312160Y-113588700D01*
X154119840Y-113588700D01*
X154086864Y-113595708D01*
X153931723Y-113628684D01*
X153931717Y-113628686D01*
X153756030Y-113706908D01*
X153756025Y-113706911D01*
X153600441Y-113819950D01*
X153600435Y-113819955D01*
X153471752Y-113962873D01*
X153375593Y-114129426D01*
X153375590Y-114129432D01*
X153316164Y-114312329D01*
X153316163Y-114312331D01*
X153316163Y-114312334D01*
X153301100Y-114455648D01*
X153301100Y-115872352D01*
X152590900Y-115872352D01*
X152590900Y-114455648D01*
X152575837Y-114312334D01*
X152535931Y-114189516D01*
X152516409Y-114129432D01*
X152516406Y-114129426D01*
X152490914Y-114085273D01*
X152420247Y-113962873D01*
X152291560Y-113819951D01*
X152239696Y-113782270D01*
X152135974Y-113706911D01*
X152135969Y-113706908D01*
X151960282Y-113628686D01*
X151960276Y-113628684D01*
X151812144Y-113597198D01*
X151772160Y-113588700D01*
X151579840Y-113588700D01*
X151546864Y-113595708D01*
X151391723Y-113628684D01*
X151391717Y-113628686D01*
X151216030Y-113706908D01*
X151216025Y-113706911D01*
X151060441Y-113819950D01*
X151060435Y-113819955D01*
X150931752Y-113962873D01*
X150835593Y-114129426D01*
X150835590Y-114129432D01*
X150776164Y-114312329D01*
X150776163Y-114312331D01*
X150776163Y-114312334D01*
X150761100Y-114455648D01*
X150761100Y-115872352D01*
X150771786Y-115974025D01*
X150776163Y-116015668D01*
X150776164Y-116015670D01*
X150835590Y-116198567D01*
X150835595Y-116198578D01*
X150894267Y-116300201D01*
X150910740Y-116368101D01*
X150887887Y-116434128D01*
X150832966Y-116477318D01*
X150786880Y-116486200D01*
X150025120Y-116486200D01*
X149958081Y-116466515D01*
X149912326Y-116413711D01*
X149902382Y-116344553D01*
X149917733Y-116300201D01*
X149976404Y-116198578D01*
X149976403Y-116198578D01*
X149976407Y-116198573D01*
X150035837Y-116015666D01*
X150050900Y-115872352D01*
X150050900Y-114455648D01*
X150035837Y-114312334D01*
X149995931Y-114189516D01*
X149976409Y-114129432D01*
X149976406Y-114129426D01*
X149950914Y-114085273D01*
X149880247Y-113962873D01*
X149751560Y-113819951D01*
X149699696Y-113782270D01*
X149595974Y-113706911D01*
X149595969Y-113706908D01*
X149420282Y-113628686D01*
X149420276Y-113628684D01*
X149272144Y-113597198D01*
X149232160Y-113588700D01*
X149039840Y-113588700D01*
X149006864Y-113595708D01*
X148851723Y-113628684D01*
X148851717Y-113628686D01*
X148676030Y-113706908D01*
X148676025Y-113706911D01*
X148520441Y-113819950D01*
X148520435Y-113819955D01*
X148391752Y-113962873D01*
X148295593Y-114129426D01*
X148295590Y-114129432D01*
X148236164Y-114312329D01*
X148236163Y-114312331D01*
X148236163Y-114312334D01*
X148221100Y-114455648D01*
X148221100Y-115872352D01*
X148231786Y-115974025D01*
X148236163Y-116015668D01*
X148236164Y-116015670D01*
X148295590Y-116198567D01*
X148295593Y-116198573D01*
X148391752Y-116365126D01*
X148498691Y-116483895D01*
X148520440Y-116508049D01*
X148562375Y-116538516D01*
X148676028Y-116621090D01*
X148676032Y-116621092D01*
X148680934Y-116623275D01*
X148734172Y-116668524D01*
X148754494Y-116735373D01*
X148754500Y-116736555D01*
X148754500Y-116849349D01*
X148754288Y-116854470D01*
X148750546Y-116899640D01*
X148761671Y-116943573D01*
X148762723Y-116948590D01*
X148770181Y-116993285D01*
X148770494Y-116993862D01*
X148781640Y-117022426D01*
X148781802Y-117023067D01*
X148781802Y-117023068D01*
X148806586Y-117061002D01*
X148809209Y-117065405D01*
X148826941Y-117098168D01*
X148830780Y-117105262D01*
X148831259Y-117105703D01*
X148851083Y-117129109D01*
X148851440Y-117129656D01*
X148851441Y-117129657D01*
X148851442Y-117129658D01*
X148868948Y-117143282D01*
X148887202Y-117157490D01*
X148891109Y-117160799D01*
X148924449Y-117191492D01*
X148924454Y-117191495D01*
X148925053Y-117191758D01*
X148951397Y-117207456D01*
X148951909Y-117207854D01*
X148951912Y-117207855D01*
X148951915Y-117207858D01*
X148994773Y-117222571D01*
X148999534Y-117224428D01*
X149041052Y-117242640D01*
X149041703Y-117242693D01*
X149071723Y-117248988D01*
X149072339Y-117249200D01*
X149117650Y-117249200D01*
X149122771Y-117249412D01*
X149142429Y-117251040D01*
X149167940Y-117253154D01*
X149168572Y-117252993D01*
X149199011Y-117249200D01*
X150630316Y-117249200D01*
X150697355Y-117268885D01*
X150717997Y-117285519D01*
X154184540Y-120752063D01*
X154218025Y-120813386D01*
X154213041Y-120883078D01*
X154171169Y-120939011D01*
X154113905Y-120961063D01*
X154114108Y-120962147D01*
X153897083Y-121002716D01*
X153897082Y-121002716D01*
X153696551Y-121080402D01*
X153696545Y-121080404D01*
X153513708Y-121193612D01*
X153513706Y-121193614D01*
X153354780Y-121338493D01*
X153354778Y-121338496D01*
X153255506Y-121469954D01*
X154166005Y-122380452D01*
X154088850Y-122392673D01*
X153974146Y-122451117D01*
X153883117Y-122542146D01*
X153824673Y-122656850D01*
X153812452Y-122734005D01*
X153063469Y-121985022D01*
X153024090Y-121999241D01*
X152986883Y-122025894D01*
X152917102Y-122029414D01*
X152858720Y-121995924D01*
X152828527Y-121985023D01*
X152079547Y-122734004D01*
X152067327Y-122656850D01*
X152008883Y-122542146D01*
X151917854Y-122451117D01*
X151803150Y-122392673D01*
X151725995Y-122380452D01*
X152636491Y-121469954D01*
X152537218Y-121338492D01*
X152378293Y-121193614D01*
X152378291Y-121193612D01*
X152195454Y-121080404D01*
X152195448Y-121080402D01*
X151994916Y-121002716D01*
X151783525Y-120963200D01*
X151568475Y-120963200D01*
X151357083Y-121002716D01*
X151357082Y-121002716D01*
X151156551Y-121080402D01*
X151156545Y-121080404D01*
X150973708Y-121193612D01*
X150973706Y-121193614D01*
X150814780Y-121338493D01*
X150814778Y-121338496D01*
X150715506Y-121469954D01*
X151626005Y-122380452D01*
X151548850Y-122392673D01*
X151434146Y-122451117D01*
X151343117Y-122542146D01*
X151284673Y-122656850D01*
X151272452Y-122734005D01*
X150523469Y-121985022D01*
X150484090Y-121999241D01*
X150446883Y-122025894D01*
X150377102Y-122029414D01*
X150318720Y-121995924D01*
X150288527Y-121985023D01*
X149539547Y-122734004D01*
X149527327Y-122656850D01*
X149468883Y-122542146D01*
X149377854Y-122451117D01*
X149263150Y-122392673D01*
X149185995Y-122380452D01*
X150096491Y-121469954D01*
X149997218Y-121338492D01*
X149838293Y-121193614D01*
X149838291Y-121193612D01*
X149655454Y-121080404D01*
X149655448Y-121080402D01*
X149454916Y-121002716D01*
X149243525Y-120963200D01*
X149028475Y-120963200D01*
X148817083Y-121002716D01*
X148817082Y-121002716D01*
X148616551Y-121080402D01*
X148616545Y-121080404D01*
X148433708Y-121193612D01*
X148433706Y-121193614D01*
X148274780Y-121338493D01*
X148274778Y-121338496D01*
X148175506Y-121469954D01*
X149086005Y-122380452D01*
X149008850Y-122392673D01*
X148894146Y-122451117D01*
X148803117Y-122542146D01*
X148744673Y-122656850D01*
X148732452Y-122734005D01*
X147983470Y-121985023D01*
X147975600Y-122069958D01*
X147975600Y-123498042D01*
X147983469Y-123582975D01*
X148732452Y-122833994D01*
X148744673Y-122911150D01*
X148803117Y-123025854D01*
X148894146Y-123116883D01*
X149008850Y-123175327D01*
X149086005Y-123187547D01*
X148175507Y-124098044D01*
X148274781Y-124229507D01*
X148433706Y-124374385D01*
X148433708Y-124374387D01*
X148616545Y-124487595D01*
X148616551Y-124487597D01*
X148817083Y-124565283D01*
X149028475Y-124604800D01*
X149243525Y-124604800D01*
X149454916Y-124565283D01*
X149454917Y-124565283D01*
X149655448Y-124487597D01*
X149655454Y-124487595D01*
X149838291Y-124374387D01*
X149838293Y-124374385D01*
X149997220Y-124229505D01*
X149997220Y-124229504D01*
X150096491Y-124098044D01*
X149185994Y-123187547D01*
X149263150Y-123175327D01*
X149377854Y-123116883D01*
X149468883Y-123025854D01*
X149527327Y-122911150D01*
X149539547Y-122833995D01*
X150288527Y-123582975D01*
X150327905Y-123568758D01*
X150365114Y-123542104D01*
X150434895Y-123538584D01*
X150493282Y-123572076D01*
X150523469Y-123582976D01*
X151272452Y-122833994D01*
X151284673Y-122911150D01*
X151343117Y-123025854D01*
X151434146Y-123116883D01*
X151548850Y-123175327D01*
X151626005Y-123187547D01*
X150715507Y-124098044D01*
X150814781Y-124229507D01*
X150973706Y-124374385D01*
X150973708Y-124374387D01*
X151156545Y-124487595D01*
X151156551Y-124487597D01*
X151357083Y-124565283D01*
X151568475Y-124604800D01*
X151783525Y-124604800D01*
X151994916Y-124565283D01*
X151994917Y-124565283D01*
X152195448Y-124487597D01*
X152195454Y-124487595D01*
X152378291Y-124374387D01*
X152378293Y-124374385D01*
X152537220Y-124229505D01*
X152537220Y-124229504D01*
X152636491Y-124098044D01*
X151725994Y-123187547D01*
X151803150Y-123175327D01*
X151917854Y-123116883D01*
X152008883Y-123025854D01*
X152067327Y-122911150D01*
X152079547Y-122833995D01*
X152828527Y-123582975D01*
X152867905Y-123568758D01*
X152905114Y-123542104D01*
X152974895Y-123538584D01*
X153033282Y-123572076D01*
X153063469Y-123582976D01*
X153812452Y-122833994D01*
X153824673Y-122911150D01*
X153883117Y-123025854D01*
X153974146Y-123116883D01*
X154088850Y-123175327D01*
X154166005Y-123187547D01*
X153255507Y-124098044D01*
X153354781Y-124229507D01*
X153513706Y-124374385D01*
X153513708Y-124374387D01*
X153696545Y-124487595D01*
X153696551Y-124487597D01*
X153897083Y-124565283D01*
X154108475Y-124604800D01*
X154323525Y-124604800D01*
X154534916Y-124565283D01*
X154534917Y-124565283D01*
X154735448Y-124487597D01*
X154735454Y-124487595D01*
X154918291Y-124374387D01*
X154918293Y-124374385D01*
X155077220Y-124229505D01*
X155077220Y-124229504D01*
X155176491Y-124098044D01*
X154265994Y-123187547D01*
X154343150Y-123175327D01*
X154457854Y-123116883D01*
X154548883Y-123025854D01*
X154607327Y-122911150D01*
X154619547Y-122833994D01*
X155368527Y-123582975D01*
X155368529Y-123582975D01*
X155376400Y-123498041D01*
X155376400Y-122243284D01*
X155396085Y-122176245D01*
X155448889Y-122130490D01*
X155518047Y-122120546D01*
X155581603Y-122149571D01*
X155588072Y-122155595D01*
X157464402Y-124031925D01*
X159277665Y-125845188D01*
X159293793Y-125865048D01*
X159299938Y-125874454D01*
X159299939Y-125874455D01*
X159299940Y-125874456D01*
X159328444Y-125896641D01*
X159334201Y-125901724D01*
X159337091Y-125904614D01*
X159356400Y-125918400D01*
X159400415Y-125952658D01*
X159400422Y-125952660D01*
X159407452Y-125956465D01*
X159414625Y-125959971D01*
X159414630Y-125959975D01*
X159450267Y-125970584D01*
X159468085Y-125975889D01*
X159494462Y-125984944D01*
X159520839Y-125994000D01*
X159520840Y-125994000D01*
X159528719Y-125995315D01*
X159536658Y-125996304D01*
X159536659Y-125996305D01*
X159536659Y-125996304D01*
X159536660Y-125996305D01*
X159580852Y-125994477D01*
X159592384Y-125994000D01*
X172925073Y-125994000D01*
X172950518Y-125996639D01*
X172954461Y-125997465D01*
X172961517Y-125998945D01*
X172980076Y-125996631D01*
X172997366Y-125994477D01*
X173005042Y-125994000D01*
X173009108Y-125994000D01*
X173009111Y-125994000D01*
X173032504Y-125990096D01*
X173087860Y-125983196D01*
X173095513Y-125980916D01*
X173103082Y-125978318D01*
X173103086Y-125978318D01*
X173152141Y-125951770D01*
X173202246Y-125927276D01*
X173202248Y-125927274D01*
X173208763Y-125922622D01*
X173215058Y-125917723D01*
X173215059Y-125917721D01*
X173215062Y-125917720D01*
X173252841Y-125876680D01*
X174161961Y-124967559D01*
X174223282Y-124934076D01*
X174275421Y-124933952D01*
X174439840Y-124968900D01*
X174439841Y-124968900D01*
X174632159Y-124968900D01*
X174632160Y-124968900D01*
X174820277Y-124928915D01*
X174820279Y-124928913D01*
X174820282Y-124928913D01*
X174879461Y-124902564D01*
X174995970Y-124850691D01*
X175151560Y-124737649D01*
X175280247Y-124594727D01*
X175376407Y-124428173D01*
X175435837Y-124245266D01*
X175455940Y-124054000D01*
X175435837Y-123862734D01*
X175383107Y-123700446D01*
X175376409Y-123679832D01*
X175376406Y-123679826D01*
X175357800Y-123647600D01*
X175320490Y-123582976D01*
X175304396Y-123555100D01*
X175287923Y-123487199D01*
X175310776Y-123421173D01*
X175365697Y-123377982D01*
X175411783Y-123369100D01*
X177070216Y-123369100D01*
X177137255Y-123388785D01*
X177157897Y-123405419D01*
X177433888Y-123681410D01*
X177467373Y-123742733D01*
X177464139Y-123807407D01*
X177446163Y-123862731D01*
X177426060Y-124054000D01*
X177446163Y-124245268D01*
X177446164Y-124245270D01*
X177505590Y-124428167D01*
X177505593Y-124428173D01*
X177568613Y-124537328D01*
X177601753Y-124594727D01*
X177730440Y-124737649D01*
X177813604Y-124798070D01*
X177886025Y-124850688D01*
X177886030Y-124850691D01*
X178061717Y-124928913D01*
X178061723Y-124928915D01*
X178249840Y-124968900D01*
X178249841Y-124968900D01*
X178442159Y-124968900D01*
X178442160Y-124968900D01*
X178630277Y-124928915D01*
X178630279Y-124928913D01*
X178630282Y-124928913D01*
X178689461Y-124902564D01*
X178805970Y-124850691D01*
X178961560Y-124737649D01*
X179090247Y-124594727D01*
X179186407Y-124428173D01*
X179245837Y-124245266D01*
X179265940Y-124054000D01*
X181236060Y-124054000D01*
X181256163Y-124245268D01*
X181256164Y-124245270D01*
X181315590Y-124428167D01*
X181315593Y-124428173D01*
X181378613Y-124537328D01*
X181411753Y-124594727D01*
X181540440Y-124737649D01*
X181623604Y-124798070D01*
X181696025Y-124850688D01*
X181696030Y-124850691D01*
X181871717Y-124928913D01*
X181871723Y-124928915D01*
X182059840Y-124968900D01*
X182059841Y-124968900D01*
X182252159Y-124968900D01*
X182252160Y-124968900D01*
X182440277Y-124928915D01*
X182440279Y-124928913D01*
X182440282Y-124928913D01*
X182499461Y-124902564D01*
X182615970Y-124850691D01*
X182771560Y-124737649D01*
X182900247Y-124594727D01*
X182996407Y-124428173D01*
X183055837Y-124245266D01*
X183075940Y-124054000D01*
X183055837Y-123862734D01*
X183003107Y-123700446D01*
X182996409Y-123679832D01*
X182996406Y-123679826D01*
X182977800Y-123647600D01*
X182900247Y-123513273D01*
X182834731Y-123440510D01*
X182771564Y-123370355D01*
X182771562Y-123370353D01*
X182771560Y-123370351D01*
X182719696Y-123332670D01*
X182615974Y-123257311D01*
X182615969Y-123257308D01*
X182440282Y-123179086D01*
X182440276Y-123179084D01*
X182292144Y-123147598D01*
X182252160Y-123139100D01*
X182059840Y-123139100D01*
X182026864Y-123146108D01*
X181871723Y-123179084D01*
X181871717Y-123179086D01*
X181696030Y-123257308D01*
X181696025Y-123257311D01*
X181540441Y-123370350D01*
X181540435Y-123370355D01*
X181411752Y-123513273D01*
X181315593Y-123679826D01*
X181315590Y-123679832D01*
X181256164Y-123862729D01*
X181256163Y-123862731D01*
X181236060Y-124054000D01*
X179265940Y-124054000D01*
X179245837Y-123862734D01*
X179193107Y-123700446D01*
X179186409Y-123679832D01*
X179186406Y-123679826D01*
X179167800Y-123647600D01*
X179090247Y-123513273D01*
X179024731Y-123440510D01*
X178961564Y-123370355D01*
X178961562Y-123370353D01*
X178961560Y-123370351D01*
X178909696Y-123332670D01*
X178805974Y-123257311D01*
X178805969Y-123257308D01*
X178630282Y-123179086D01*
X178630276Y-123179084D01*
X178482144Y-123147598D01*
X178442160Y-123139100D01*
X178249840Y-123139100D01*
X178085421Y-123174047D01*
X178015754Y-123168731D01*
X177971960Y-123140438D01*
X177586433Y-122754910D01*
X177570305Y-122735050D01*
X177564160Y-122725644D01*
X177535649Y-122703453D01*
X177529887Y-122698364D01*
X177527009Y-122695486D01*
X177507699Y-122681699D01*
X177475773Y-122656850D01*
X177463686Y-122647442D01*
X177456670Y-122643645D01*
X177449472Y-122640126D01*
X177449470Y-122640125D01*
X177449467Y-122640124D01*
X177396013Y-122624209D01*
X177343262Y-122606099D01*
X177335379Y-122604784D01*
X177327439Y-122603794D01*
X177273767Y-122606015D01*
X177271716Y-122606100D01*
X174004828Y-122606100D01*
X173979383Y-122603461D01*
X173968385Y-122601155D01*
X173968381Y-122601155D01*
X173932534Y-122605623D01*
X173924858Y-122606100D01*
X173920788Y-122606100D01*
X173897393Y-122610004D01*
X173842036Y-122616904D01*
X173834402Y-122619176D01*
X173826811Y-122621783D01*
X173777768Y-122648323D01*
X173727654Y-122672822D01*
X173721153Y-122677463D01*
X173714840Y-122682377D01*
X173677069Y-122723407D01*
X172087731Y-124312745D01*
X172026408Y-124346230D01*
X171956716Y-124341246D01*
X171900783Y-124299374D01*
X171876366Y-124233910D01*
X171876579Y-124213622D01*
X171891370Y-124053999D01*
X171871528Y-123839868D01*
X171812674Y-123633015D01*
X171716816Y-123440508D01*
X171706587Y-123426964D01*
X171129547Y-124004004D01*
X171117327Y-123926850D01*
X171058883Y-123812146D01*
X170967854Y-123721117D01*
X170853150Y-123662673D01*
X170775994Y-123650452D01*
X171350561Y-123075884D01*
X171350560Y-123075883D01*
X171245454Y-123010804D01*
X171245448Y-123010802D01*
X171044916Y-122933116D01*
X170833525Y-122893600D01*
X170618475Y-122893600D01*
X170407083Y-122933116D01*
X170407082Y-122933116D01*
X170206552Y-123010801D01*
X170101437Y-123075884D01*
X170676006Y-123650452D01*
X170598850Y-123662673D01*
X170484146Y-123721117D01*
X170393117Y-123812146D01*
X170334673Y-123926850D01*
X170322452Y-124004006D01*
X169745411Y-123426965D01*
X169745410Y-123426965D01*
X169735182Y-123440510D01*
X169639325Y-123633015D01*
X169580471Y-123839868D01*
X169560629Y-124054000D01*
X169580471Y-124268131D01*
X169639325Y-124474984D01*
X169670369Y-124537328D01*
X169682630Y-124606113D01*
X169655757Y-124670608D01*
X169598282Y-124710336D01*
X169559369Y-124716600D01*
X167804658Y-124716600D01*
X167737619Y-124696915D01*
X167691864Y-124644111D01*
X167681920Y-124574953D01*
X167697271Y-124530600D01*
X167709399Y-124509591D01*
X167756407Y-124428173D01*
X167815837Y-124245266D01*
X167835940Y-124054000D01*
X167815837Y-123862734D01*
X167763107Y-123700446D01*
X167756409Y-123679832D01*
X167756406Y-123679826D01*
X167737800Y-123647600D01*
X167660247Y-123513273D01*
X167594731Y-123440510D01*
X167531564Y-123370355D01*
X167531562Y-123370353D01*
X167531560Y-123370351D01*
X167471798Y-123326932D01*
X167375971Y-123257309D01*
X167371061Y-123255123D01*
X167317825Y-123209871D01*
X167297506Y-123143022D01*
X167297500Y-123141845D01*
X167297500Y-121723383D01*
X167317185Y-121656344D01*
X167333814Y-121635707D01*
X174161961Y-114807559D01*
X174223282Y-114774076D01*
X174275421Y-114773952D01*
X174439840Y-114808900D01*
X174439841Y-114808900D01*
X174632159Y-114808900D01*
X174632160Y-114808900D01*
X174820277Y-114768915D01*
X174820279Y-114768913D01*
X174820282Y-114768913D01*
X174879461Y-114742564D01*
X174995970Y-114690691D01*
X175151560Y-114577649D01*
X175280247Y-114434727D01*
X175376407Y-114268173D01*
X175435837Y-114085266D01*
X175455940Y-113894000D01*
X175435837Y-113702734D01*
X175376922Y-113521411D01*
X175376409Y-113519832D01*
X175376406Y-113519826D01*
X175280247Y-113353273D01*
X175151564Y-113210355D01*
X175151562Y-113210353D01*
X175151560Y-113210351D01*
X175099696Y-113172670D01*
X174995974Y-113097311D01*
X174995969Y-113097308D01*
X174820282Y-113019086D01*
X174820276Y-113019084D01*
X174754607Y-113005126D01*
X174740319Y-113002089D01*
X174678838Y-112968898D01*
X174645062Y-112907735D01*
X174649714Y-112838020D01*
X174691318Y-112781888D01*
X174756666Y-112757159D01*
X174766101Y-112756800D01*
X175929273Y-112756800D01*
X175954718Y-112759439D01*
X175958661Y-112760265D01*
X175965717Y-112761745D01*
X175984276Y-112759431D01*
X176001566Y-112757277D01*
X176009242Y-112756800D01*
X176013308Y-112756800D01*
X176013311Y-112756800D01*
X176036704Y-112752896D01*
X176092060Y-112745996D01*
X176099713Y-112743716D01*
X176107282Y-112741118D01*
X176107286Y-112741118D01*
X176156341Y-112714570D01*
X176206446Y-112690076D01*
X176206448Y-112690074D01*
X176212963Y-112685422D01*
X176219258Y-112680523D01*
X176219259Y-112680521D01*
X176219262Y-112680520D01*
X176257041Y-112639480D01*
X177512689Y-111383831D01*
X177532539Y-111367711D01*
X177541956Y-111361560D01*
X177564159Y-111333031D01*
X177569230Y-111327291D01*
X177572113Y-111324409D01*
X177572124Y-111324393D01*
X177574887Y-111321133D01*
X177633234Y-111282696D01*
X177703100Y-111281907D01*
X177762301Y-111319014D01*
X177765365Y-111322605D01*
X177834067Y-111406317D01*
X177987489Y-111532228D01*
X177987493Y-111532231D01*
X178162539Y-111625794D01*
X178352474Y-111683410D01*
X178352473Y-111683410D01*
X178364546Y-111684599D01*
X178550000Y-111702865D01*
X178747526Y-111683410D01*
X178937461Y-111625794D01*
X179112507Y-111532231D01*
X179112933Y-111531880D01*
X179113202Y-111531766D01*
X179117575Y-111528845D01*
X179118128Y-111529674D01*
X179177243Y-111504567D01*
X179246110Y-111516357D01*
X179297672Y-111563508D01*
X179315600Y-111627733D01*
X179315600Y-112333514D01*
X179295915Y-112400553D01*
X179279281Y-112421195D01*
X178720038Y-112980438D01*
X178658715Y-113013923D01*
X178606577Y-113014047D01*
X178442160Y-112979100D01*
X178249840Y-112979100D01*
X178216864Y-112986108D01*
X178061723Y-113019084D01*
X178061717Y-113019086D01*
X177886030Y-113097308D01*
X177886025Y-113097311D01*
X177730441Y-113210350D01*
X177730435Y-113210355D01*
X177601752Y-113353273D01*
X177505593Y-113519826D01*
X177505590Y-113519832D01*
X177446164Y-113702729D01*
X177446163Y-113702731D01*
X177426060Y-113894000D01*
X177446163Y-114085268D01*
X177446164Y-114085270D01*
X177505590Y-114268167D01*
X177505593Y-114268173D01*
X177601752Y-114434726D01*
X177715352Y-114560893D01*
X177730440Y-114577649D01*
X177794529Y-114624212D01*
X177886025Y-114690688D01*
X177886030Y-114690691D01*
X178061717Y-114768913D01*
X178061723Y-114768915D01*
X178249840Y-114808900D01*
X178249841Y-114808900D01*
X178442159Y-114808900D01*
X178442160Y-114808900D01*
X178630277Y-114768915D01*
X178630279Y-114768913D01*
X178630282Y-114768913D01*
X178689461Y-114742564D01*
X178805970Y-114690691D01*
X178961560Y-114577649D01*
X179090247Y-114434727D01*
X179186407Y-114268173D01*
X179245837Y-114085266D01*
X179265940Y-113894000D01*
X179245837Y-113702734D01*
X179227861Y-113647408D01*
X179225866Y-113577568D01*
X179258109Y-113521412D01*
X179695902Y-113083618D01*
X179757225Y-113050134D01*
X179783583Y-113047300D01*
X180718416Y-113047300D01*
X180785455Y-113066985D01*
X180806097Y-113083619D01*
X181243888Y-113521411D01*
X181277373Y-113582734D01*
X181274139Y-113647408D01*
X181256163Y-113702732D01*
X181236060Y-113894000D01*
X181256163Y-114085268D01*
X181256164Y-114085270D01*
X181315590Y-114268167D01*
X181315593Y-114268173D01*
X181411752Y-114434726D01*
X181525352Y-114560893D01*
X181540440Y-114577649D01*
X181604529Y-114624212D01*
X181696025Y-114690688D01*
X181696030Y-114690691D01*
X181871717Y-114768913D01*
X181871723Y-114768915D01*
X182059840Y-114808900D01*
X182059841Y-114808900D01*
X182252159Y-114808900D01*
X182252160Y-114808900D01*
X182440277Y-114768915D01*
X182440279Y-114768913D01*
X182440282Y-114768913D01*
X182499461Y-114742564D01*
X182615970Y-114690691D01*
X182771560Y-114577649D01*
X182900247Y-114434727D01*
X182996407Y-114268173D01*
X183055837Y-114085266D01*
X183075940Y-113894000D01*
X183055837Y-113702734D01*
X182996922Y-113521411D01*
X182996409Y-113519832D01*
X182996406Y-113519826D01*
X182900247Y-113353273D01*
X182771564Y-113210355D01*
X182771562Y-113210353D01*
X182771560Y-113210351D01*
X182719696Y-113172670D01*
X182615974Y-113097311D01*
X182615969Y-113097308D01*
X182440282Y-113019086D01*
X182440276Y-113019084D01*
X182292144Y-112987598D01*
X182252160Y-112979100D01*
X182059840Y-112979100D01*
X181895421Y-113014047D01*
X181825754Y-113008731D01*
X181781960Y-112980438D01*
X181530833Y-112729311D01*
X181234633Y-112433110D01*
X181218505Y-112413250D01*
X181212360Y-112403844D01*
X181183849Y-112381653D01*
X181178087Y-112376564D01*
X181175209Y-112373686D01*
X181155899Y-112359899D01*
X181133892Y-112342770D01*
X181111886Y-112325642D01*
X181104870Y-112321845D01*
X181097672Y-112318326D01*
X181097670Y-112318325D01*
X181097667Y-112318324D01*
X181044213Y-112302409D01*
X180991462Y-112284299D01*
X180983579Y-112282984D01*
X180975639Y-112281994D01*
X180921967Y-112284215D01*
X180919916Y-112284300D01*
X180202600Y-112284300D01*
X180135561Y-112264615D01*
X180089806Y-112211811D01*
X180078600Y-112160300D01*
X180078600Y-111392847D01*
X180098285Y-111325808D01*
X180151089Y-111280053D01*
X180220247Y-111270109D01*
X180283803Y-111299134D01*
X180298452Y-111314181D01*
X180306773Y-111324320D01*
X180374064Y-111406315D01*
X180527489Y-111532228D01*
X180527493Y-111532231D01*
X180702539Y-111625794D01*
X180892474Y-111683410D01*
X180892473Y-111683410D01*
X180904546Y-111684599D01*
X181090000Y-111702865D01*
X181287526Y-111683410D01*
X181477461Y-111625794D01*
X181652507Y-111532231D01*
X181805935Y-111406315D01*
X181931851Y-111252887D01*
X182025414Y-111077841D01*
X182083030Y-110887906D01*
X182097610Y-110739876D01*
X182097610Y-109132124D01*
X182083030Y-108984094D01*
X182025414Y-108794159D01*
X181931851Y-108619113D01*
X181931848Y-108619109D01*
X181805935Y-108465684D01*
X181652510Y-108339771D01*
X181652508Y-108339770D01*
X181652507Y-108339769D01*
X181477461Y-108246206D01*
X181477460Y-108246205D01*
X181477459Y-108246205D01*
X181328459Y-108201007D01*
X181287526Y-108188590D01*
X181287524Y-108188589D01*
X181287526Y-108188589D01*
X181090000Y-108169135D01*
X180892475Y-108188589D01*
X180702540Y-108246205D01*
X180527489Y-108339771D01*
X180374064Y-108465684D01*
X180298453Y-108557817D01*
X180240707Y-108597151D01*
X180170862Y-108599022D01*
X180111094Y-108562834D01*
X180080378Y-108500078D01*
X180078600Y-108479152D01*
X180078600Y-96406847D01*
X180098285Y-96339808D01*
X180151089Y-96294053D01*
X180220247Y-96284109D01*
X180283803Y-96313134D01*
X180298453Y-96328182D01*
X180374064Y-96420315D01*
X180527487Y-96546226D01*
X180527493Y-96546231D01*
X180702539Y-96639794D01*
X180892474Y-96697410D01*
X180892473Y-96697410D01*
X180902901Y-96698437D01*
X181090000Y-96716865D01*
X181287526Y-96697410D01*
X181477461Y-96639794D01*
X181652507Y-96546231D01*
X181805935Y-96420315D01*
X181931851Y-96266887D01*
X182025414Y-96091841D01*
X182083030Y-95901906D01*
X182097610Y-95753876D01*
X182097610Y-94146124D01*
X182083030Y-93998094D01*
X182025414Y-93808159D01*
X181931851Y-93633113D01*
X181931848Y-93633109D01*
X181805935Y-93479684D01*
X181652510Y-93353771D01*
X181652508Y-93353770D01*
X181652507Y-93353769D01*
X181477461Y-93260206D01*
X181477460Y-93260205D01*
X181477459Y-93260205D01*
X181337080Y-93217622D01*
X181287526Y-93202590D01*
X181287524Y-93202589D01*
X181287526Y-93202589D01*
X181090000Y-93183135D01*
X180892475Y-93202589D01*
X180702540Y-93260205D01*
X180527489Y-93353771D01*
X180374064Y-93479684D01*
X180285947Y-93587055D01*
X180228201Y-93626389D01*
X180158356Y-93628260D01*
X180098588Y-93592072D01*
X180072624Y-93539026D01*
X180070729Y-93539591D01*
X180067796Y-93529742D01*
X180067796Y-93529740D01*
X180067794Y-93529737D01*
X180065518Y-93522092D01*
X180062919Y-93514521D01*
X180062918Y-93514514D01*
X180036376Y-93465468D01*
X180011877Y-93415354D01*
X180011876Y-93415353D01*
X180011875Y-93415350D01*
X180007251Y-93408874D01*
X180002318Y-93402536D01*
X179961292Y-93364769D01*
X176915051Y-90318528D01*
X176881566Y-90257205D01*
X176886550Y-90187513D01*
X176928422Y-90131580D01*
X176944272Y-90121492D01*
X177003507Y-90089831D01*
X177156935Y-89963915D01*
X177282851Y-89810487D01*
X177376414Y-89635441D01*
X177434030Y-89445506D01*
X177448610Y-89297476D01*
X177448610Y-87689724D01*
X177434030Y-87541694D01*
X177376414Y-87351759D01*
X177282851Y-87176713D01*
X177279955Y-87173184D01*
X177156935Y-87023284D01*
X177003510Y-86897371D01*
X177003508Y-86897370D01*
X177003507Y-86897369D01*
X176828461Y-86803806D01*
X176828460Y-86803805D01*
X176828459Y-86803805D01*
X176669339Y-86755537D01*
X176638526Y-86746190D01*
X176638524Y-86746189D01*
X176638526Y-86746189D01*
X176441000Y-86726735D01*
X176243475Y-86746189D01*
X176053540Y-86803805D01*
X175878489Y-86897371D01*
X175725064Y-87023284D01*
X175599151Y-87176709D01*
X175505585Y-87351760D01*
X175447969Y-87541695D01*
X175442091Y-87601383D01*
X175434058Y-87682947D01*
X175433390Y-87689727D01*
X175433390Y-89297472D01*
X175447969Y-89445504D01*
X175475100Y-89534941D01*
X175505586Y-89635441D01*
X175592591Y-89798218D01*
X175599151Y-89810490D01*
X175725064Y-89963915D01*
X175811923Y-90035198D01*
X175878493Y-90089831D01*
X175993952Y-90151544D01*
X176043797Y-90200506D01*
X176059500Y-90260903D01*
X176059500Y-90331572D01*
X176056861Y-90357020D01*
X176054554Y-90368017D01*
X176059023Y-90403865D01*
X176059500Y-90411541D01*
X176059500Y-90415611D01*
X176059555Y-90415940D01*
X176063403Y-90439005D01*
X176070304Y-90494361D01*
X176072580Y-90502009D01*
X176075181Y-90509585D01*
X176101729Y-90558641D01*
X176126224Y-90608747D01*
X176130869Y-90615253D01*
X176135782Y-90621564D01*
X176176819Y-90659342D01*
X178501721Y-92984244D01*
X178535206Y-93045567D01*
X178530222Y-93115259D01*
X178488350Y-93171192D01*
X178426196Y-93195328D01*
X178352475Y-93202589D01*
X178162540Y-93260205D01*
X177987489Y-93353771D01*
X177834063Y-93479685D01*
X177786440Y-93537714D01*
X177728694Y-93577048D01*
X177658850Y-93578917D01*
X177602663Y-93544898D01*
X177602043Y-93545519D01*
X177601840Y-93545316D01*
X177600596Y-93543646D01*
X177599082Y-93542730D01*
X177591603Y-93533490D01*
X177591531Y-93533547D01*
X177585218Y-93525436D01*
X177544192Y-93487669D01*
X174375051Y-90318528D01*
X174341566Y-90257205D01*
X174346550Y-90187513D01*
X174388422Y-90131580D01*
X174404272Y-90121492D01*
X174463507Y-90089831D01*
X174616935Y-89963915D01*
X174742851Y-89810487D01*
X174836414Y-89635441D01*
X174894030Y-89445506D01*
X174908610Y-89297476D01*
X174908610Y-87689724D01*
X174894030Y-87541694D01*
X174836414Y-87351759D01*
X174742851Y-87176713D01*
X174739955Y-87173184D01*
X174616935Y-87023284D01*
X174463510Y-86897371D01*
X174463508Y-86897370D01*
X174463507Y-86897369D01*
X174288461Y-86803806D01*
X174288460Y-86803805D01*
X174288459Y-86803805D01*
X174129339Y-86755537D01*
X174098526Y-86746190D01*
X174098524Y-86746189D01*
X174098526Y-86746189D01*
X173901000Y-86726735D01*
X173703475Y-86746189D01*
X173513540Y-86803805D01*
X173338489Y-86897371D01*
X173185064Y-87023284D01*
X173059151Y-87176709D01*
X172965585Y-87351760D01*
X172907969Y-87541695D01*
X172902091Y-87601383D01*
X172894058Y-87682947D01*
X172893390Y-87689727D01*
X172893390Y-89297472D01*
X172907969Y-89445504D01*
X172935100Y-89534941D01*
X172965586Y-89635441D01*
X173052591Y-89798218D01*
X173059151Y-89810490D01*
X173185064Y-89963915D01*
X173271923Y-90035198D01*
X173338493Y-90089831D01*
X173453952Y-90151544D01*
X173503797Y-90200506D01*
X173519500Y-90260903D01*
X173519500Y-90331572D01*
X173516861Y-90357020D01*
X173514554Y-90368017D01*
X173519023Y-90403865D01*
X173519500Y-90411541D01*
X173519500Y-90415611D01*
X173519555Y-90415940D01*
X173523403Y-90439005D01*
X173530304Y-90494361D01*
X173532580Y-90502009D01*
X173535181Y-90509585D01*
X173561729Y-90558641D01*
X173586224Y-90608747D01*
X173590869Y-90615253D01*
X173595782Y-90621564D01*
X173636819Y-90659342D01*
X175961721Y-92984244D01*
X175995206Y-93045567D01*
X175990222Y-93115259D01*
X175948350Y-93171192D01*
X175886196Y-93195328D01*
X175812475Y-93202589D01*
X175622540Y-93260205D01*
X175447489Y-93353771D01*
X175294064Y-93479684D01*
X175168151Y-93633109D01*
X175074585Y-93808160D01*
X175016969Y-93998095D01*
X175005988Y-94109584D01*
X175002390Y-94146124D01*
X175002390Y-95753876D01*
X175003453Y-95764670D01*
X175016969Y-95901904D01*
X175053800Y-96023318D01*
X175074586Y-96091841D01*
X175167947Y-96266510D01*
X175168151Y-96266890D01*
X175294064Y-96420315D01*
X175447487Y-96546226D01*
X175447493Y-96546231D01*
X175622539Y-96639794D01*
X175812474Y-96697410D01*
X175812473Y-96697410D01*
X175822901Y-96698437D01*
X176010000Y-96716865D01*
X176207526Y-96697410D01*
X176397461Y-96639794D01*
X176572507Y-96546231D01*
X176657294Y-96476648D01*
X176695835Y-96445018D01*
X176760145Y-96417705D01*
X176829012Y-96429496D01*
X176880573Y-96476648D01*
X176898500Y-96540871D01*
X176898500Y-99328172D01*
X176895861Y-99353620D01*
X176893554Y-99364617D01*
X176898023Y-99400465D01*
X176898500Y-99408141D01*
X176898500Y-99412211D01*
X176900584Y-99424702D01*
X176902403Y-99435605D01*
X176909304Y-99490961D01*
X176911580Y-99498609D01*
X176914181Y-99506185D01*
X176940729Y-99555241D01*
X176965222Y-99605343D01*
X176969880Y-99611867D01*
X176974779Y-99618161D01*
X176974780Y-99618162D01*
X177015818Y-99655940D01*
X177164782Y-99804904D01*
X177198266Y-99866225D01*
X177201100Y-99892584D01*
X177201100Y-102037408D01*
X177181415Y-102104447D01*
X177128611Y-102150202D01*
X177059453Y-102160146D01*
X177008215Y-102140514D01*
X177003514Y-102137373D01*
X176998427Y-102134654D01*
X176828461Y-102043806D01*
X176828460Y-102043805D01*
X176828459Y-102043805D01*
X176669339Y-101995537D01*
X176638526Y-101986190D01*
X176638524Y-101986189D01*
X176638526Y-101986189D01*
X176441000Y-101966735D01*
X176243475Y-101986189D01*
X176053540Y-102043805D01*
X175878489Y-102137371D01*
X175725064Y-102263284D01*
X175599151Y-102416709D01*
X175505585Y-102591760D01*
X175447969Y-102781695D01*
X175436988Y-102893184D01*
X175434058Y-102922947D01*
X175433390Y-102929727D01*
X175433390Y-104537472D01*
X175447969Y-104685504D01*
X175447970Y-104685506D01*
X175505586Y-104875441D01*
X175581067Y-105016658D01*
X175599151Y-105050490D01*
X175725064Y-105203915D01*
X175874993Y-105326959D01*
X175878493Y-105329831D01*
X176053539Y-105423394D01*
X176243474Y-105481010D01*
X176243473Y-105481010D01*
X176259749Y-105482613D01*
X176441000Y-105500465D01*
X176638526Y-105481010D01*
X176738504Y-105450681D01*
X176808371Y-105450058D01*
X176867484Y-105487306D01*
X176897075Y-105550600D01*
X176898500Y-105569342D01*
X176898500Y-108345128D01*
X176878815Y-108412167D01*
X176826011Y-108457922D01*
X176756853Y-108467866D01*
X176695835Y-108440981D01*
X176572510Y-108339771D01*
X176572508Y-108339770D01*
X176572507Y-108339769D01*
X176397461Y-108246206D01*
X176397460Y-108246205D01*
X176397459Y-108246205D01*
X176248459Y-108201007D01*
X176207526Y-108188590D01*
X176207524Y-108188589D01*
X176207526Y-108188589D01*
X176010000Y-108169135D01*
X175812475Y-108188589D01*
X175622540Y-108246205D01*
X175447489Y-108339771D01*
X175294064Y-108465684D01*
X175217853Y-108558548D01*
X175160107Y-108597882D01*
X175090262Y-108599753D01*
X175030494Y-108563565D01*
X174999778Y-108500809D01*
X174998000Y-108479883D01*
X174998000Y-106391928D01*
X175000639Y-106366483D01*
X175001310Y-106363280D01*
X175002945Y-106355484D01*
X175000606Y-106336716D01*
X174998477Y-106319634D01*
X174998000Y-106311958D01*
X174998000Y-106307891D01*
X174997999Y-106307882D01*
X174994095Y-106284493D01*
X174990296Y-106254014D01*
X174987196Y-106229140D01*
X174987193Y-106229134D01*
X174984918Y-106221492D01*
X174982319Y-106213921D01*
X174982318Y-106213914D01*
X174955776Y-106164868D01*
X174931277Y-106114754D01*
X174931276Y-106114753D01*
X174931275Y-106114750D01*
X174926651Y-106108274D01*
X174921718Y-106101936D01*
X174880692Y-106064169D01*
X174375051Y-105558528D01*
X174341566Y-105497205D01*
X174346550Y-105427514D01*
X174388421Y-105371580D01*
X174404272Y-105361492D01*
X174463507Y-105329831D01*
X174616935Y-105203915D01*
X174742851Y-105050487D01*
X174836414Y-104875441D01*
X174894030Y-104685506D01*
X174908610Y-104537476D01*
X174908610Y-102929724D01*
X174894030Y-102781694D01*
X174836414Y-102591759D01*
X174742851Y-102416713D01*
X174739324Y-102412415D01*
X174616935Y-102263284D01*
X174463510Y-102137371D01*
X174463508Y-102137370D01*
X174463507Y-102137369D01*
X174288461Y-102043806D01*
X174288460Y-102043805D01*
X174288459Y-102043805D01*
X174129339Y-101995537D01*
X174098526Y-101986190D01*
X174098524Y-101986189D01*
X174098526Y-101986189D01*
X173901000Y-101966735D01*
X173703475Y-101986189D01*
X173513540Y-102043805D01*
X173338489Y-102137371D01*
X173185064Y-102263284D01*
X173059151Y-102416709D01*
X172965585Y-102591760D01*
X172907969Y-102781695D01*
X172896988Y-102893184D01*
X172894058Y-102922947D01*
X172893390Y-102929727D01*
X172893390Y-104537472D01*
X172907969Y-104685504D01*
X172907970Y-104685506D01*
X172965586Y-104875441D01*
X173041067Y-105016658D01*
X173059151Y-105050490D01*
X173185064Y-105203915D01*
X173247482Y-105255140D01*
X173338493Y-105329831D01*
X173453952Y-105391544D01*
X173503797Y-105440506D01*
X173519500Y-105500903D01*
X173519500Y-105571572D01*
X173516861Y-105597020D01*
X173514554Y-105608017D01*
X173519023Y-105643865D01*
X173519500Y-105651541D01*
X173519500Y-105655611D01*
X173519555Y-105655940D01*
X173523403Y-105679005D01*
X173530304Y-105734361D01*
X173532580Y-105742009D01*
X173535181Y-105749585D01*
X173561729Y-105798641D01*
X173586224Y-105848747D01*
X173590863Y-105855245D01*
X173595781Y-105861564D01*
X173615861Y-105880048D01*
X173636818Y-105899341D01*
X173939732Y-106202254D01*
X174198681Y-106461203D01*
X174232166Y-106522526D01*
X174235000Y-106548884D01*
X174235000Y-108243774D01*
X174215315Y-108310813D01*
X174162511Y-108356568D01*
X174093353Y-108366512D01*
X174038203Y-108342214D01*
X174037575Y-108343155D01*
X174032505Y-108339767D01*
X173917047Y-108278054D01*
X173867203Y-108229092D01*
X173851500Y-108168696D01*
X173851500Y-108098028D01*
X173854139Y-108072583D01*
X173854810Y-108069380D01*
X173856445Y-108061584D01*
X173853238Y-108035857D01*
X173851977Y-108025734D01*
X173851500Y-108018058D01*
X173851500Y-108013991D01*
X173851499Y-108013982D01*
X173847595Y-107990593D01*
X173846901Y-107985027D01*
X173840696Y-107935240D01*
X173840693Y-107935234D01*
X173838418Y-107927592D01*
X173835819Y-107920021D01*
X173835818Y-107920014D01*
X173809276Y-107870968D01*
X173784777Y-107820854D01*
X173784776Y-107820853D01*
X173784775Y-107820850D01*
X173780151Y-107814374D01*
X173775218Y-107808036D01*
X173734192Y-107770269D01*
X171617658Y-105653735D01*
X171584173Y-105592412D01*
X171589157Y-105522720D01*
X171631029Y-105466787D01*
X171669339Y-105447395D01*
X171748461Y-105423394D01*
X171923507Y-105329831D01*
X172076935Y-105203915D01*
X172202851Y-105050487D01*
X172296414Y-104875441D01*
X172354030Y-104685506D01*
X172368610Y-104537476D01*
X172368610Y-102929724D01*
X172354030Y-102781694D01*
X172296414Y-102591759D01*
X172202851Y-102416713D01*
X172199324Y-102412415D01*
X172076935Y-102263284D01*
X171923510Y-102137371D01*
X171923508Y-102137370D01*
X171923507Y-102137369D01*
X171748461Y-102043806D01*
X171748460Y-102043805D01*
X171748459Y-102043805D01*
X171589339Y-101995537D01*
X171558526Y-101986190D01*
X171558524Y-101986189D01*
X171558526Y-101986189D01*
X171361000Y-101966735D01*
X171163475Y-101986189D01*
X170973540Y-102043805D01*
X170798489Y-102137371D01*
X170645064Y-102263284D01*
X170519151Y-102416709D01*
X170425585Y-102591760D01*
X170367969Y-102781695D01*
X170356988Y-102893184D01*
X170354058Y-102922947D01*
X170353390Y-102929727D01*
X170353390Y-104537472D01*
X170367969Y-104685504D01*
X170367970Y-104685506D01*
X170425586Y-104875441D01*
X170519149Y-105050487D01*
X170519150Y-105050489D01*
X170522021Y-105055859D01*
X170520735Y-105056545D01*
X170539440Y-105116294D01*
X170520952Y-105183673D01*
X170468970Y-105230360D01*
X170415460Y-105242500D01*
X169766540Y-105242500D01*
X169699501Y-105222815D01*
X169653746Y-105170011D01*
X169643802Y-105100853D01*
X169660860Y-105056330D01*
X169659979Y-105055859D01*
X169662849Y-105050489D01*
X169662851Y-105050487D01*
X169756414Y-104875441D01*
X169814030Y-104685506D01*
X169828610Y-104537476D01*
X169828610Y-102929724D01*
X169814030Y-102781694D01*
X169756414Y-102591759D01*
X169662851Y-102416713D01*
X169659324Y-102412415D01*
X169536935Y-102263284D01*
X169383510Y-102137371D01*
X169383508Y-102137370D01*
X169383507Y-102137369D01*
X169208461Y-102043806D01*
X169208460Y-102043805D01*
X169208459Y-102043805D01*
X169049339Y-101995537D01*
X169018526Y-101986190D01*
X169018524Y-101986189D01*
X169018526Y-101986189D01*
X168821000Y-101966735D01*
X168623475Y-101986189D01*
X168433540Y-102043805D01*
X168258489Y-102137371D01*
X168135165Y-102238581D01*
X168070855Y-102265894D01*
X168001987Y-102254103D01*
X167950427Y-102206951D01*
X167932500Y-102142728D01*
X167932500Y-100836483D01*
X167952185Y-100769444D01*
X167968814Y-100748807D01*
X169787789Y-98929831D01*
X169807639Y-98913711D01*
X169817056Y-98907560D01*
X169839259Y-98879031D01*
X169844330Y-98873291D01*
X169847213Y-98870409D01*
X169860991Y-98851110D01*
X169895258Y-98807085D01*
X169895259Y-98807079D01*
X169899056Y-98800066D01*
X169902571Y-98792874D01*
X169902575Y-98792870D01*
X169908514Y-98772917D01*
X169918491Y-98739410D01*
X169927411Y-98713423D01*
X169936600Y-98686661D01*
X169936600Y-98686658D01*
X169937915Y-98678777D01*
X169938905Y-98670840D01*
X169936600Y-98615117D01*
X169936600Y-96428780D01*
X169956285Y-96361741D01*
X170009089Y-96315986D01*
X170078247Y-96306042D01*
X170141803Y-96335067D01*
X170156453Y-96350115D01*
X170214064Y-96420315D01*
X170367487Y-96546226D01*
X170367493Y-96546231D01*
X170542539Y-96639794D01*
X170732474Y-96697410D01*
X170732473Y-96697410D01*
X170742901Y-96698437D01*
X170930000Y-96716865D01*
X171127526Y-96697410D01*
X171317461Y-96639794D01*
X171492507Y-96546231D01*
X171645935Y-96420315D01*
X171771851Y-96266887D01*
X171865414Y-96091841D01*
X171923030Y-95901906D01*
X171937610Y-95753876D01*
X172462390Y-95753876D01*
X172463453Y-95764670D01*
X172476969Y-95901904D01*
X172513800Y-96023318D01*
X172534586Y-96091841D01*
X172627947Y-96266510D01*
X172628151Y-96266890D01*
X172754064Y-96420315D01*
X172907487Y-96546226D01*
X172907493Y-96546231D01*
X173082539Y-96639794D01*
X173272474Y-96697410D01*
X173272473Y-96697410D01*
X173282901Y-96698437D01*
X173470000Y-96716865D01*
X173667526Y-96697410D01*
X173857461Y-96639794D01*
X174032507Y-96546231D01*
X174185935Y-96420315D01*
X174311851Y-96266887D01*
X174405414Y-96091841D01*
X174463030Y-95901906D01*
X174477610Y-95753876D01*
X174477610Y-94146124D01*
X174463030Y-93998094D01*
X174405414Y-93808159D01*
X174311851Y-93633113D01*
X174311848Y-93633109D01*
X174185935Y-93479684D01*
X174032510Y-93353771D01*
X174032508Y-93353770D01*
X174032507Y-93353769D01*
X173857461Y-93260206D01*
X173857460Y-93260205D01*
X173857459Y-93260205D01*
X173717080Y-93217622D01*
X173667526Y-93202590D01*
X173667524Y-93202589D01*
X173667526Y-93202589D01*
X173470000Y-93183135D01*
X173272475Y-93202589D01*
X173082540Y-93260205D01*
X172907489Y-93353771D01*
X172754064Y-93479684D01*
X172628151Y-93633109D01*
X172534585Y-93808160D01*
X172476969Y-93998095D01*
X172465988Y-94109584D01*
X172462390Y-94146124D01*
X172462390Y-95753876D01*
X171937610Y-95753876D01*
X171937610Y-94146124D01*
X171923030Y-93998094D01*
X171865414Y-93808159D01*
X171771851Y-93633113D01*
X171771848Y-93633109D01*
X171645935Y-93479684D01*
X171492510Y-93353771D01*
X171492508Y-93353770D01*
X171492507Y-93353769D01*
X171317461Y-93260206D01*
X171317460Y-93260205D01*
X171317459Y-93260205D01*
X171177080Y-93217622D01*
X171127526Y-93202590D01*
X171127524Y-93202589D01*
X171127526Y-93202589D01*
X170930000Y-93183135D01*
X170732475Y-93202589D01*
X170542540Y-93260205D01*
X170367489Y-93353771D01*
X170214064Y-93479684D01*
X170156453Y-93549884D01*
X170098707Y-93589218D01*
X170028862Y-93591089D01*
X169969094Y-93554901D01*
X169938378Y-93492145D01*
X169936600Y-93471219D01*
X169936600Y-91170527D01*
X169939239Y-91145082D01*
X169940120Y-91140877D01*
X169941545Y-91134083D01*
X169938872Y-91112637D01*
X169937077Y-91098233D01*
X169936600Y-91090557D01*
X169936600Y-91086493D01*
X169936599Y-91086485D01*
X169932696Y-91063095D01*
X169930189Y-91042985D01*
X169925796Y-91007740D01*
X169925795Y-91007737D01*
X169923519Y-91000094D01*
X169920916Y-90992509D01*
X169894370Y-90943458D01*
X169888298Y-90931038D01*
X169869876Y-90893354D01*
X169869873Y-90893351D01*
X169869873Y-90893350D01*
X169865231Y-90886847D01*
X169860320Y-90880537D01*
X169819280Y-90842758D01*
X169295051Y-90318528D01*
X169261566Y-90257205D01*
X169266550Y-90187513D01*
X169308422Y-90131580D01*
X169324272Y-90121492D01*
X169383507Y-90089831D01*
X169536935Y-89963915D01*
X169662851Y-89810487D01*
X169756414Y-89635441D01*
X169814030Y-89445506D01*
X169828610Y-89297476D01*
X169828610Y-89297472D01*
X170353390Y-89297472D01*
X170367969Y-89445504D01*
X170395100Y-89534941D01*
X170425586Y-89635441D01*
X170512591Y-89798218D01*
X170519151Y-89810490D01*
X170645064Y-89963915D01*
X170798489Y-90089828D01*
X170798493Y-90089831D01*
X170973539Y-90183394D01*
X171163474Y-90241010D01*
X171163473Y-90241010D01*
X171181183Y-90242754D01*
X171361000Y-90260465D01*
X171558526Y-90241010D01*
X171748461Y-90183394D01*
X171923507Y-90089831D01*
X172076935Y-89963915D01*
X172202851Y-89810487D01*
X172296414Y-89635441D01*
X172354030Y-89445506D01*
X172368610Y-89297476D01*
X172368610Y-87689724D01*
X172354030Y-87541694D01*
X172296414Y-87351759D01*
X172202851Y-87176713D01*
X172199955Y-87173184D01*
X172076935Y-87023284D01*
X171923510Y-86897371D01*
X171923508Y-86897370D01*
X171923507Y-86897369D01*
X171748461Y-86803806D01*
X171748460Y-86803805D01*
X171748459Y-86803805D01*
X171589339Y-86755537D01*
X171558526Y-86746190D01*
X171558524Y-86746189D01*
X171558526Y-86746189D01*
X171361000Y-86726735D01*
X171163475Y-86746189D01*
X170973540Y-86803805D01*
X170798489Y-86897371D01*
X170645064Y-87023284D01*
X170519151Y-87176709D01*
X170425585Y-87351760D01*
X170367969Y-87541695D01*
X170362091Y-87601383D01*
X170354058Y-87682947D01*
X170353390Y-87689727D01*
X170353390Y-89297472D01*
X169828610Y-89297472D01*
X169828610Y-87689724D01*
X169814030Y-87541694D01*
X169756414Y-87351759D01*
X169662851Y-87176713D01*
X169659955Y-87173184D01*
X169536935Y-87023284D01*
X169383510Y-86897371D01*
X169383508Y-86897370D01*
X169383507Y-86897369D01*
X169208461Y-86803806D01*
X169208460Y-86803805D01*
X169208459Y-86803805D01*
X169049339Y-86755537D01*
X169018526Y-86746190D01*
X169018524Y-86746189D01*
X169018526Y-86746189D01*
X168821000Y-86726735D01*
X168623475Y-86746189D01*
X168433540Y-86803805D01*
X168258489Y-86897371D01*
X168105064Y-87023284D01*
X167979151Y-87176709D01*
X167885585Y-87351760D01*
X167827969Y-87541695D01*
X167822091Y-87601383D01*
X167814058Y-87682947D01*
X167813390Y-87689727D01*
X167813390Y-89297472D01*
X167827969Y-89445504D01*
X167855100Y-89534941D01*
X167885586Y-89635441D01*
X167972591Y-89798218D01*
X167979151Y-89810490D01*
X168105064Y-89963915D01*
X168191923Y-90035198D01*
X168258493Y-90089831D01*
X168373952Y-90151544D01*
X168423797Y-90200506D01*
X168439500Y-90260903D01*
X168439500Y-90331572D01*
X168436861Y-90357020D01*
X168434554Y-90368017D01*
X168439023Y-90403865D01*
X168439500Y-90411541D01*
X168439500Y-90415611D01*
X168439555Y-90415940D01*
X168443403Y-90439005D01*
X168450304Y-90494361D01*
X168452580Y-90502009D01*
X168455181Y-90509585D01*
X168481729Y-90558641D01*
X168506224Y-90608747D01*
X168510869Y-90615253D01*
X168515781Y-90621564D01*
X168556819Y-90659341D01*
X169137281Y-91239803D01*
X169170766Y-91301126D01*
X169173600Y-91327484D01*
X169173600Y-93273039D01*
X169153915Y-93340078D01*
X169101111Y-93385833D01*
X169031953Y-93395777D01*
X168970935Y-93368892D01*
X168952510Y-93353771D01*
X168952508Y-93353770D01*
X168952507Y-93353769D01*
X168777461Y-93260206D01*
X168777460Y-93260205D01*
X168777459Y-93260205D01*
X168637080Y-93217622D01*
X168587526Y-93202590D01*
X168587524Y-93202589D01*
X168587526Y-93202589D01*
X168390000Y-93183135D01*
X168192475Y-93202589D01*
X168002540Y-93260205D01*
X167827489Y-93353771D01*
X167674064Y-93479684D01*
X167548151Y-93633109D01*
X167454585Y-93808160D01*
X167396969Y-93998095D01*
X167385988Y-94109584D01*
X167382390Y-94146124D01*
X167382390Y-95753876D01*
X167383453Y-95764670D01*
X167396969Y-95901904D01*
X167433800Y-96023318D01*
X167454586Y-96091841D01*
X167547947Y-96266510D01*
X167548151Y-96266890D01*
X167674064Y-96420315D01*
X167827487Y-96546226D01*
X167827493Y-96546231D01*
X168002539Y-96639794D01*
X168192474Y-96697410D01*
X168192473Y-96697410D01*
X168202901Y-96698437D01*
X168390000Y-96716865D01*
X168587526Y-96697410D01*
X168777461Y-96639794D01*
X168952507Y-96546231D01*
X168952934Y-96545881D01*
X168968145Y-96533397D01*
X168970933Y-96531108D01*
X169035242Y-96503794D01*
X169104110Y-96515584D01*
X169155671Y-96562735D01*
X169173600Y-96626960D01*
X169173600Y-98413614D01*
X169153915Y-98480653D01*
X169137281Y-98501295D01*
X167318309Y-100320266D01*
X167298454Y-100336391D01*
X167289045Y-100342538D01*
X167289041Y-100342542D01*
X167266856Y-100371044D01*
X167261778Y-100376796D01*
X167258898Y-100379677D01*
X167258884Y-100379693D01*
X167245098Y-100399001D01*
X167210843Y-100443012D01*
X167207035Y-100450047D01*
X167203524Y-100457231D01*
X167187609Y-100510686D01*
X167169499Y-100563440D01*
X167168185Y-100571314D01*
X167167194Y-100579262D01*
X167169500Y-100634983D01*
X167169500Y-102142728D01*
X167149815Y-102209767D01*
X167097011Y-102255522D01*
X167027853Y-102265466D01*
X166966835Y-102238581D01*
X166843510Y-102137371D01*
X166843508Y-102137370D01*
X166843507Y-102137369D01*
X166668461Y-102043806D01*
X166668460Y-102043805D01*
X166668459Y-102043805D01*
X166509339Y-101995537D01*
X166478526Y-101986190D01*
X166478524Y-101986189D01*
X166478526Y-101986189D01*
X166281000Y-101966735D01*
X166083475Y-101986189D01*
X165893540Y-102043805D01*
X165718489Y-102137371D01*
X165565064Y-102263284D01*
X165478398Y-102368887D01*
X165420652Y-102408221D01*
X165350807Y-102410092D01*
X165291039Y-102373904D01*
X165260323Y-102311148D01*
X165260234Y-102310618D01*
X165259194Y-102304384D01*
X165257735Y-102292682D01*
X165252296Y-102249040D01*
X165252293Y-102249034D01*
X165250016Y-102241384D01*
X165247416Y-102233809D01*
X165220871Y-102184759D01*
X165200323Y-102142728D01*
X165196376Y-102134654D01*
X165196373Y-102134651D01*
X165191732Y-102128149D01*
X165186822Y-102121841D01*
X165186820Y-102121838D01*
X165186816Y-102121834D01*
X165145781Y-102084058D01*
X164997819Y-101936096D01*
X164964334Y-101874773D01*
X164961500Y-101848415D01*
X164961500Y-96540871D01*
X164981185Y-96473832D01*
X165033989Y-96428077D01*
X165103147Y-96418133D01*
X165164165Y-96445018D01*
X165287487Y-96546226D01*
X165287493Y-96546231D01*
X165462539Y-96639794D01*
X165652474Y-96697410D01*
X165652473Y-96697410D01*
X165662901Y-96698437D01*
X165850000Y-96716865D01*
X166047526Y-96697410D01*
X166237461Y-96639794D01*
X166412507Y-96546231D01*
X166565935Y-96420315D01*
X166691851Y-96266887D01*
X166785414Y-96091841D01*
X166843030Y-95901906D01*
X166857610Y-95753876D01*
X166857610Y-94146124D01*
X166843030Y-93998094D01*
X166785414Y-93808159D01*
X166691851Y-93633113D01*
X166691848Y-93633109D01*
X166565935Y-93479684D01*
X166412510Y-93353771D01*
X166412508Y-93353770D01*
X166412507Y-93353769D01*
X166237461Y-93260206D01*
X166237460Y-93260205D01*
X166237459Y-93260205D01*
X166097080Y-93217622D01*
X166047526Y-93202590D01*
X166047524Y-93202589D01*
X166047526Y-93202589D01*
X165850000Y-93183135D01*
X165652475Y-93202589D01*
X165462540Y-93260205D01*
X165287489Y-93353771D01*
X165164165Y-93454981D01*
X165099855Y-93482294D01*
X165030987Y-93470503D01*
X164979427Y-93423351D01*
X164961500Y-93359128D01*
X164961500Y-91275427D01*
X164964139Y-91249982D01*
X164964810Y-91246779D01*
X164966445Y-91238983D01*
X164964353Y-91222200D01*
X164961977Y-91203133D01*
X164961500Y-91195457D01*
X164961500Y-91191393D01*
X164961499Y-91191385D01*
X164957596Y-91167995D01*
X164954740Y-91145082D01*
X164950696Y-91112640D01*
X164950695Y-91112637D01*
X164948419Y-91104994D01*
X164945816Y-91097409D01*
X164919270Y-91048358D01*
X164912334Y-91034171D01*
X164894776Y-90998254D01*
X164894773Y-90998251D01*
X164894773Y-90998250D01*
X164890131Y-90991747D01*
X164885220Y-90985437D01*
X164844180Y-90947658D01*
X164215051Y-90318528D01*
X164181566Y-90257205D01*
X164186550Y-90187513D01*
X164228422Y-90131580D01*
X164244272Y-90121492D01*
X164303507Y-90089831D01*
X164456935Y-89963915D01*
X164582851Y-89810487D01*
X164676414Y-89635441D01*
X164734030Y-89445506D01*
X164748610Y-89297476D01*
X164748610Y-89297472D01*
X165273390Y-89297472D01*
X165287969Y-89445504D01*
X165315100Y-89534941D01*
X165345586Y-89635441D01*
X165432591Y-89798218D01*
X165439151Y-89810490D01*
X165565064Y-89963915D01*
X165718489Y-90089828D01*
X165718493Y-90089831D01*
X165893539Y-90183394D01*
X166083474Y-90241010D01*
X166083473Y-90241010D01*
X166101183Y-90242754D01*
X166281000Y-90260465D01*
X166478526Y-90241010D01*
X166668461Y-90183394D01*
X166843507Y-90089831D01*
X166996935Y-89963915D01*
X167122851Y-89810487D01*
X167216414Y-89635441D01*
X167274030Y-89445506D01*
X167288610Y-89297476D01*
X167288610Y-87689724D01*
X167274030Y-87541694D01*
X167216414Y-87351759D01*
X167122851Y-87176713D01*
X167119955Y-87173184D01*
X166996935Y-87023284D01*
X166843510Y-86897371D01*
X166843508Y-86897370D01*
X166843507Y-86897369D01*
X166668461Y-86803806D01*
X166668460Y-86803805D01*
X166668459Y-86803805D01*
X166509339Y-86755537D01*
X166478526Y-86746190D01*
X166478524Y-86746189D01*
X166478526Y-86746189D01*
X166281000Y-86726735D01*
X166083475Y-86746189D01*
X165893540Y-86803805D01*
X165718489Y-86897371D01*
X165565064Y-87023284D01*
X165439151Y-87176709D01*
X165345585Y-87351760D01*
X165287969Y-87541695D01*
X165282091Y-87601383D01*
X165274058Y-87682947D01*
X165273390Y-87689727D01*
X165273390Y-89297472D01*
X164748610Y-89297472D01*
X164748610Y-87689724D01*
X164734030Y-87541694D01*
X164676414Y-87351759D01*
X164582851Y-87176713D01*
X164579955Y-87173184D01*
X164456935Y-87023284D01*
X164303510Y-86897371D01*
X164303508Y-86897370D01*
X164303507Y-86897369D01*
X164128461Y-86803806D01*
X164128460Y-86803805D01*
X164128459Y-86803805D01*
X163969339Y-86755537D01*
X163938526Y-86746190D01*
X163938524Y-86746189D01*
X163938526Y-86746189D01*
X163741000Y-86726735D01*
X163543475Y-86746189D01*
X163353540Y-86803805D01*
X163178489Y-86897371D01*
X163025064Y-87023284D01*
X162899151Y-87176709D01*
X162805585Y-87351760D01*
X162747969Y-87541695D01*
X162742091Y-87601383D01*
X162734058Y-87682947D01*
X162733390Y-87689727D01*
X162733390Y-89297472D01*
X162747969Y-89445504D01*
X162775100Y-89534941D01*
X162805586Y-89635441D01*
X162892591Y-89798218D01*
X162899151Y-89810490D01*
X163025064Y-89963915D01*
X163111923Y-90035198D01*
X163178493Y-90089831D01*
X163293952Y-90151544D01*
X163343797Y-90200506D01*
X163359500Y-90260903D01*
X163359500Y-90331572D01*
X163356861Y-90357020D01*
X163354554Y-90368017D01*
X163359023Y-90403865D01*
X163359500Y-90411541D01*
X163359500Y-90415611D01*
X163359555Y-90415940D01*
X163363403Y-90439005D01*
X163370304Y-90494361D01*
X163372580Y-90502009D01*
X163375181Y-90509585D01*
X163401729Y-90558641D01*
X163426224Y-90608747D01*
X163430869Y-90615253D01*
X163435781Y-90621564D01*
X163476819Y-90659341D01*
X164162181Y-91344703D01*
X164195666Y-91406026D01*
X164198500Y-91432384D01*
X164198500Y-93359128D01*
X164178815Y-93426167D01*
X164126011Y-93471922D01*
X164056853Y-93481866D01*
X163995835Y-93454981D01*
X163872510Y-93353771D01*
X163872508Y-93353770D01*
X163872507Y-93353769D01*
X163697461Y-93260206D01*
X163697460Y-93260205D01*
X163697459Y-93260205D01*
X163557080Y-93217622D01*
X163507526Y-93202590D01*
X163507524Y-93202589D01*
X163507526Y-93202589D01*
X163310000Y-93183135D01*
X163112475Y-93202589D01*
X162922540Y-93260205D01*
X162747489Y-93353771D01*
X162594064Y-93479684D01*
X162468151Y-93633109D01*
X162374585Y-93808160D01*
X162316969Y-93998095D01*
X162305988Y-94109584D01*
X162302390Y-94146124D01*
X162302390Y-95753876D01*
X162303453Y-95764670D01*
X162316969Y-95901904D01*
X162353800Y-96023318D01*
X162374586Y-96091841D01*
X162467947Y-96266510D01*
X162468151Y-96266890D01*
X162594064Y-96420315D01*
X162747487Y-96546226D01*
X162747493Y-96546231D01*
X162922539Y-96639794D01*
X163112474Y-96697410D01*
X163112473Y-96697410D01*
X163122901Y-96698437D01*
X163310000Y-96716865D01*
X163507526Y-96697410D01*
X163697461Y-96639794D01*
X163872507Y-96546231D01*
X163957294Y-96476648D01*
X163995835Y-96445018D01*
X164060145Y-96417705D01*
X164129012Y-96429496D01*
X164180573Y-96476648D01*
X164198500Y-96540871D01*
X164198500Y-101897857D01*
X164178815Y-101964896D01*
X164126011Y-102010651D01*
X164056853Y-102020595D01*
X164038505Y-102016518D01*
X163969339Y-101995537D01*
X163938526Y-101986190D01*
X163938524Y-101986189D01*
X163938526Y-101986189D01*
X163741000Y-101966735D01*
X163543475Y-101986189D01*
X163353540Y-102043805D01*
X163178489Y-102137371D01*
X163025064Y-102263284D01*
X162953553Y-102350421D01*
X162895807Y-102389755D01*
X162825962Y-102391626D01*
X162766194Y-102355438D01*
X162735478Y-102292682D01*
X162733700Y-102271756D01*
X162733700Y-99236627D01*
X162736339Y-99211182D01*
X162737010Y-99207979D01*
X162738645Y-99200183D01*
X162735511Y-99175041D01*
X162734177Y-99164333D01*
X162733700Y-99156657D01*
X162733700Y-99152593D01*
X162733699Y-99152585D01*
X162729796Y-99129195D01*
X162729396Y-99125985D01*
X162722896Y-99073840D01*
X162722895Y-99073837D01*
X162720619Y-99066194D01*
X162718016Y-99058609D01*
X162691470Y-99009558D01*
X162673803Y-98973420D01*
X162666976Y-98959454D01*
X162666973Y-98959451D01*
X162666973Y-98959450D01*
X162662331Y-98952947D01*
X162657420Y-98946637D01*
X162616380Y-98908858D01*
X160631680Y-96924158D01*
X160598195Y-96862835D01*
X160603179Y-96793143D01*
X160645051Y-96737210D01*
X160710515Y-96712793D01*
X160731509Y-96713073D01*
X160770000Y-96716865D01*
X160967526Y-96697410D01*
X161157461Y-96639794D01*
X161332507Y-96546231D01*
X161485935Y-96420315D01*
X161611851Y-96266887D01*
X161705414Y-96091841D01*
X161763030Y-95901906D01*
X161777610Y-95753876D01*
X161777610Y-94146124D01*
X161763030Y-93998094D01*
X161705414Y-93808159D01*
X161611851Y-93633113D01*
X161611848Y-93633109D01*
X161485935Y-93479684D01*
X161332508Y-93353769D01*
X161332505Y-93353767D01*
X161217047Y-93292054D01*
X161167203Y-93243092D01*
X161151500Y-93182696D01*
X161151500Y-93112027D01*
X161154139Y-93086582D01*
X161154810Y-93083379D01*
X161156445Y-93075583D01*
X161154353Y-93058800D01*
X161151977Y-93039733D01*
X161151500Y-93032057D01*
X161151500Y-93027993D01*
X161151499Y-93027985D01*
X161151498Y-93027982D01*
X161147596Y-93004595D01*
X161140696Y-92949240D01*
X161140695Y-92949237D01*
X161138419Y-92941594D01*
X161135816Y-92934009D01*
X161109270Y-92884958D01*
X161104893Y-92876005D01*
X161084776Y-92834854D01*
X161084773Y-92834851D01*
X161084773Y-92834850D01*
X161080131Y-92828347D01*
X161075220Y-92822037D01*
X161034180Y-92784258D01*
X160426219Y-92176296D01*
X160392734Y-92114973D01*
X160389900Y-92088615D01*
X160389900Y-90147992D01*
X160409585Y-90080953D01*
X160462389Y-90035198D01*
X160531547Y-90025254D01*
X160592565Y-90052139D01*
X160615534Y-90070989D01*
X160638493Y-90089831D01*
X160813539Y-90183394D01*
X161003474Y-90241010D01*
X161003473Y-90241010D01*
X161021183Y-90242754D01*
X161201000Y-90260465D01*
X161398526Y-90241010D01*
X161588461Y-90183394D01*
X161763507Y-90089831D01*
X161916935Y-89963915D01*
X162042851Y-89810487D01*
X162136414Y-89635441D01*
X162194030Y-89445506D01*
X162208610Y-89297476D01*
X162208610Y-87689724D01*
X162194030Y-87541694D01*
X162136414Y-87351759D01*
X162042851Y-87176713D01*
X162039955Y-87173184D01*
X161916935Y-87023284D01*
X161763510Y-86897371D01*
X161763508Y-86897370D01*
X161763507Y-86897369D01*
X161588461Y-86803806D01*
X161588460Y-86803805D01*
X161588459Y-86803805D01*
X161429339Y-86755537D01*
X161398526Y-86746190D01*
X161398524Y-86746189D01*
X161398526Y-86746189D01*
X161201000Y-86726735D01*
X161003475Y-86746189D01*
X160813540Y-86803805D01*
X160638489Y-86897371D01*
X160485064Y-87023284D01*
X160400184Y-87126711D01*
X160342438Y-87166045D01*
X160272593Y-87167916D01*
X160216650Y-87135727D01*
X156891233Y-83810310D01*
X156875105Y-83790450D01*
X156868960Y-83781044D01*
X156840449Y-83758853D01*
X156834687Y-83753764D01*
X156831809Y-83750886D01*
X156815744Y-83739416D01*
X156772624Y-83684442D01*
X156766069Y-83614880D01*
X156798163Y-83552818D01*
X156858716Y-83517959D01*
X156887799Y-83514500D01*
X188443469Y-83514500D01*
X188465560Y-83514500D01*
X188470426Y-83514691D01*
X188502521Y-83517216D01*
X188645136Y-83528440D01*
X188664346Y-83531483D01*
X188827638Y-83570686D01*
X188846130Y-83576694D01*
X188969090Y-83627626D01*
X189001277Y-83640959D01*
X189018614Y-83649793D01*
X189161786Y-83737529D01*
X189177527Y-83748965D01*
X189305217Y-83858022D01*
X189318977Y-83871782D01*
X189428034Y-83999472D01*
X189439470Y-84015213D01*
X189527206Y-84158385D01*
X189536040Y-84175722D01*
X189600302Y-84330862D01*
X189606315Y-84349368D01*
X189645515Y-84512648D01*
X189648559Y-84531866D01*
X189662309Y-84706573D01*
X189662500Y-84711440D01*
X189662500Y-125346292D01*
X189662264Y-125351698D01*
X189647227Y-125523561D01*
X189643474Y-125544846D01*
X189600929Y-125703627D01*
X189593536Y-125723939D01*
X189524067Y-125872915D01*
X189513260Y-125891633D01*
X189418971Y-126026292D01*
X189405077Y-126042850D01*
X189288850Y-126159077D01*
X189272292Y-126172971D01*
X189137633Y-126267260D01*
X189118915Y-126278067D01*
X188969939Y-126347536D01*
X188949627Y-126354929D01*
X188790846Y-126397474D01*
X188769561Y-126401227D01*
X188629729Y-126413461D01*
X188597695Y-126416264D01*
X188592293Y-126416500D01*
X128780707Y-126416500D01*
X128775304Y-126416264D01*
X128738923Y-126413081D01*
X128603438Y-126401227D01*
X128582153Y-126397474D01*
X128423372Y-126354929D01*
X128403060Y-126347536D01*
X128254084Y-126278067D01*
X128235366Y-126267260D01*
X128100707Y-126172971D01*
X128084149Y-126159077D01*
X127967922Y-126042850D01*
X127954028Y-126026292D01*
X127859739Y-125891633D01*
X127848932Y-125872915D01*
X127779463Y-125723939D01*
X127772070Y-125703627D01*
X127729525Y-125544846D01*
X127725772Y-125523560D01*
X127710736Y-125351698D01*
X127710500Y-125346292D01*
X127710500Y-109886096D01*
X127690498Y-109759812D01*
X127680497Y-109696667D01*
X127621228Y-109514258D01*
X127534155Y-109343367D01*
X127533673Y-109342704D01*
X127533568Y-109342410D01*
X127531609Y-109339212D01*
X127532281Y-109338800D01*
X127510201Y-109276896D01*
X127510000Y-109269830D01*
X127510000Y-108890000D01*
X127062576Y-108890000D01*
X127006282Y-108876485D01*
X126959742Y-108852772D01*
X126777333Y-108793503D01*
X126777331Y-108793502D01*
X126777329Y-108793502D01*
X126587903Y-108763500D01*
X126587898Y-108763500D01*
X126519480Y-108763500D01*
X108460707Y-108763500D01*
X108455304Y-108763264D01*
X108418923Y-108760081D01*
X108283438Y-108748227D01*
X108262153Y-108744474D01*
X108103372Y-108701929D01*
X108083060Y-108694536D01*
X107934084Y-108625067D01*
X107915366Y-108614260D01*
X107780707Y-108519971D01*
X107764149Y-108506077D01*
X107647922Y-108389850D01*
X107634028Y-108373292D01*
X107539739Y-108238633D01*
X107528932Y-108219915D01*
X107459463Y-108070939D01*
X107452070Y-108050627D01*
X107434491Y-107985021D01*
X107409524Y-107891843D01*
X107405772Y-107870560D01*
X107404980Y-107861512D01*
X107390735Y-107698696D01*
X107390500Y-107693292D01*
X107390500Y-104537472D01*
X117013390Y-104537472D01*
X117027969Y-104685504D01*
X117027970Y-104685506D01*
X117085586Y-104875441D01*
X117161067Y-105016658D01*
X117179151Y-105050490D01*
X117305064Y-105203915D01*
X117454993Y-105326959D01*
X117458493Y-105329831D01*
X117633539Y-105423394D01*
X117823474Y-105481010D01*
X117823473Y-105481010D01*
X117839749Y-105482613D01*
X118021000Y-105500465D01*
X118218526Y-105481010D01*
X118408461Y-105423394D01*
X118583507Y-105329831D01*
X118736935Y-105203915D01*
X118862851Y-105050487D01*
X118956414Y-104875441D01*
X119014030Y-104685506D01*
X119028610Y-104537476D01*
X119028610Y-104537472D01*
X119553390Y-104537472D01*
X119567969Y-104685504D01*
X119567970Y-104685506D01*
X119625586Y-104875441D01*
X119701067Y-105016658D01*
X119719151Y-105050490D01*
X119845064Y-105203915D01*
X119994993Y-105326959D01*
X119998493Y-105329831D01*
X120173539Y-105423394D01*
X120363474Y-105481010D01*
X120363473Y-105481010D01*
X120379749Y-105482613D01*
X120561000Y-105500465D01*
X120758526Y-105481010D01*
X120948461Y-105423394D01*
X121123507Y-105329831D01*
X121276935Y-105203915D01*
X121402851Y-105050487D01*
X121496414Y-104875441D01*
X121554030Y-104685506D01*
X121568610Y-104537476D01*
X121568610Y-104537472D01*
X122093390Y-104537472D01*
X122107969Y-104685504D01*
X122107970Y-104685506D01*
X122165586Y-104875441D01*
X122241067Y-105016658D01*
X122259151Y-105050490D01*
X122385064Y-105203915D01*
X122534993Y-105326959D01*
X122538493Y-105329831D01*
X122713539Y-105423394D01*
X122903474Y-105481010D01*
X122903473Y-105481010D01*
X122919749Y-105482613D01*
X123101000Y-105500465D01*
X123298526Y-105481010D01*
X123488461Y-105423394D01*
X123663507Y-105329831D01*
X123816935Y-105203915D01*
X123942851Y-105050487D01*
X124036414Y-104875441D01*
X124094030Y-104685506D01*
X124108610Y-104537476D01*
X124108610Y-104537472D01*
X124633390Y-104537472D01*
X124647969Y-104685504D01*
X124647970Y-104685506D01*
X124705586Y-104875441D01*
X124781067Y-105016658D01*
X124799151Y-105050490D01*
X124925064Y-105203915D01*
X125074993Y-105326959D01*
X125078493Y-105329831D01*
X125253539Y-105423394D01*
X125443474Y-105481010D01*
X125443473Y-105481010D01*
X125459749Y-105482613D01*
X125641000Y-105500465D01*
X125838526Y-105481010D01*
X126028461Y-105423394D01*
X126203507Y-105329831D01*
X126356935Y-105203915D01*
X126482851Y-105050487D01*
X126576414Y-104875441D01*
X126634030Y-104685506D01*
X126648610Y-104537476D01*
X126648610Y-104537472D01*
X127173390Y-104537472D01*
X127187969Y-104685504D01*
X127187970Y-104685506D01*
X127245586Y-104875441D01*
X127321067Y-105016658D01*
X127339151Y-105050490D01*
X127465064Y-105203915D01*
X127614993Y-105326959D01*
X127618493Y-105329831D01*
X127793539Y-105423394D01*
X127983474Y-105481010D01*
X127983473Y-105481010D01*
X127999749Y-105482613D01*
X128181000Y-105500465D01*
X128378526Y-105481010D01*
X128568461Y-105423394D01*
X128743507Y-105329831D01*
X128896935Y-105203915D01*
X129022851Y-105050487D01*
X129116414Y-104875441D01*
X129174030Y-104685506D01*
X129188610Y-104537476D01*
X129188610Y-102929724D01*
X129174030Y-102781694D01*
X129116414Y-102591759D01*
X129022851Y-102416713D01*
X129019324Y-102412415D01*
X128896935Y-102263284D01*
X128743510Y-102137371D01*
X128743508Y-102137370D01*
X128743507Y-102137369D01*
X128568461Y-102043806D01*
X128568460Y-102043805D01*
X128568459Y-102043805D01*
X128409339Y-101995537D01*
X128378526Y-101986190D01*
X128378524Y-101986189D01*
X128378526Y-101986189D01*
X128181000Y-101966735D01*
X127983475Y-101986189D01*
X127793540Y-102043805D01*
X127618489Y-102137371D01*
X127465064Y-102263284D01*
X127339151Y-102416709D01*
X127245585Y-102591760D01*
X127187969Y-102781695D01*
X127176988Y-102893184D01*
X127174058Y-102922947D01*
X127173390Y-102929727D01*
X127173390Y-104537472D01*
X126648610Y-104537472D01*
X126648610Y-102929724D01*
X126634030Y-102781694D01*
X126576414Y-102591759D01*
X126482851Y-102416713D01*
X126479324Y-102412415D01*
X126356935Y-102263284D01*
X126203510Y-102137371D01*
X126203508Y-102137370D01*
X126203507Y-102137369D01*
X126028461Y-102043806D01*
X126028460Y-102043805D01*
X126028459Y-102043805D01*
X125869339Y-101995537D01*
X125838526Y-101986190D01*
X125838524Y-101986189D01*
X125838526Y-101986189D01*
X125641000Y-101966735D01*
X125443475Y-101986189D01*
X125253540Y-102043805D01*
X125078489Y-102137371D01*
X124925064Y-102263284D01*
X124799151Y-102416709D01*
X124705585Y-102591760D01*
X124647969Y-102781695D01*
X124636988Y-102893184D01*
X124634058Y-102922947D01*
X124633390Y-102929727D01*
X124633390Y-104537472D01*
X124108610Y-104537472D01*
X124108610Y-102929724D01*
X124094030Y-102781694D01*
X124036414Y-102591759D01*
X123942851Y-102416713D01*
X123939324Y-102412415D01*
X123816935Y-102263284D01*
X123663510Y-102137371D01*
X123663508Y-102137370D01*
X123663507Y-102137369D01*
X123488461Y-102043806D01*
X123488460Y-102043805D01*
X123488459Y-102043805D01*
X123329339Y-101995537D01*
X123298526Y-101986190D01*
X123298524Y-101986189D01*
X123298526Y-101986189D01*
X123101000Y-101966735D01*
X122903475Y-101986189D01*
X122713540Y-102043805D01*
X122538489Y-102137371D01*
X122385064Y-102263284D01*
X122259151Y-102416709D01*
X122165585Y-102591760D01*
X122107969Y-102781695D01*
X122096988Y-102893184D01*
X122094058Y-102922947D01*
X122093390Y-102929727D01*
X122093390Y-104537472D01*
X121568610Y-104537472D01*
X121568610Y-102929724D01*
X121554030Y-102781694D01*
X121496414Y-102591759D01*
X121402851Y-102416713D01*
X121399324Y-102412415D01*
X121276935Y-102263284D01*
X121123510Y-102137371D01*
X121123508Y-102137370D01*
X121123507Y-102137369D01*
X120948461Y-102043806D01*
X120948460Y-102043805D01*
X120948459Y-102043805D01*
X120789339Y-101995537D01*
X120758526Y-101986190D01*
X120758524Y-101986189D01*
X120758526Y-101986189D01*
X120561000Y-101966735D01*
X120363475Y-101986189D01*
X120173540Y-102043805D01*
X119998489Y-102137371D01*
X119845064Y-102263284D01*
X119719151Y-102416709D01*
X119625585Y-102591760D01*
X119567969Y-102781695D01*
X119556988Y-102893184D01*
X119554058Y-102922947D01*
X119553390Y-102929727D01*
X119553390Y-104537472D01*
X119028610Y-104537472D01*
X119028610Y-102929724D01*
X119014030Y-102781694D01*
X118956414Y-102591759D01*
X118862851Y-102416713D01*
X118859324Y-102412415D01*
X118736935Y-102263284D01*
X118583510Y-102137371D01*
X118583508Y-102137370D01*
X118583507Y-102137369D01*
X118408461Y-102043806D01*
X118408460Y-102043805D01*
X118408459Y-102043805D01*
X118249339Y-101995537D01*
X118218526Y-101986190D01*
X118218524Y-101986189D01*
X118218526Y-101986189D01*
X118021000Y-101966735D01*
X117823475Y-101986189D01*
X117633540Y-102043805D01*
X117458489Y-102137371D01*
X117305064Y-102263284D01*
X117179151Y-102416709D01*
X117085585Y-102591760D01*
X117027969Y-102781695D01*
X117016988Y-102893184D01*
X117014058Y-102922947D01*
X117013390Y-102929727D01*
X117013390Y-104537472D01*
X107390500Y-104537472D01*
X107390500Y-89297472D01*
X117013390Y-89297472D01*
X117027969Y-89445504D01*
X117055100Y-89534941D01*
X117085586Y-89635441D01*
X117172591Y-89798218D01*
X117179151Y-89810490D01*
X117305064Y-89963915D01*
X117458489Y-90089828D01*
X117458493Y-90089831D01*
X117633539Y-90183394D01*
X117823474Y-90241010D01*
X117823473Y-90241010D01*
X117841183Y-90242754D01*
X118021000Y-90260465D01*
X118218526Y-90241010D01*
X118408461Y-90183394D01*
X118583507Y-90089831D01*
X118736935Y-89963915D01*
X118862851Y-89810487D01*
X118956414Y-89635441D01*
X119014030Y-89445506D01*
X119028610Y-89297476D01*
X119028610Y-89297472D01*
X119553390Y-89297472D01*
X119567969Y-89445504D01*
X119595100Y-89534941D01*
X119625586Y-89635441D01*
X119712591Y-89798218D01*
X119719151Y-89810490D01*
X119845064Y-89963915D01*
X119998489Y-90089828D01*
X119998493Y-90089831D01*
X120173539Y-90183394D01*
X120363474Y-90241010D01*
X120363473Y-90241010D01*
X120381183Y-90242754D01*
X120561000Y-90260465D01*
X120758526Y-90241010D01*
X120948461Y-90183394D01*
X121123507Y-90089831D01*
X121276935Y-89963915D01*
X121402851Y-89810487D01*
X121496414Y-89635441D01*
X121554030Y-89445506D01*
X121568610Y-89297476D01*
X121568610Y-89297472D01*
X122093390Y-89297472D01*
X122107969Y-89445504D01*
X122135100Y-89534941D01*
X122165586Y-89635441D01*
X122252591Y-89798218D01*
X122259151Y-89810490D01*
X122385064Y-89963915D01*
X122538489Y-90089828D01*
X122538493Y-90089831D01*
X122713539Y-90183394D01*
X122903474Y-90241010D01*
X122903473Y-90241010D01*
X122921183Y-90242754D01*
X123101000Y-90260465D01*
X123298526Y-90241010D01*
X123488461Y-90183394D01*
X123663507Y-90089831D01*
X123816935Y-89963915D01*
X123942851Y-89810487D01*
X124036414Y-89635441D01*
X124094030Y-89445506D01*
X124108610Y-89297476D01*
X124108610Y-89297472D01*
X124633390Y-89297472D01*
X124647969Y-89445504D01*
X124675100Y-89534941D01*
X124705586Y-89635441D01*
X124792591Y-89798218D01*
X124799151Y-89810490D01*
X124925064Y-89963915D01*
X125078489Y-90089828D01*
X125078493Y-90089831D01*
X125253539Y-90183394D01*
X125443474Y-90241010D01*
X125443473Y-90241010D01*
X125461183Y-90242754D01*
X125641000Y-90260465D01*
X125838526Y-90241010D01*
X126028461Y-90183394D01*
X126203507Y-90089831D01*
X126356935Y-89963915D01*
X126482851Y-89810487D01*
X126576414Y-89635441D01*
X126634030Y-89445506D01*
X126648610Y-89297476D01*
X126648610Y-87689724D01*
X126634030Y-87541694D01*
X126576414Y-87351759D01*
X126482851Y-87176713D01*
X126479955Y-87173184D01*
X126356935Y-87023284D01*
X126203510Y-86897371D01*
X126203508Y-86897370D01*
X126203507Y-86897369D01*
X126028461Y-86803806D01*
X126028460Y-86803805D01*
X126028459Y-86803805D01*
X125869339Y-86755537D01*
X125838526Y-86746190D01*
X125838524Y-86746189D01*
X125838526Y-86746189D01*
X125641000Y-86726735D01*
X125443475Y-86746189D01*
X125253540Y-86803805D01*
X125078489Y-86897371D01*
X124925064Y-87023284D01*
X124799151Y-87176709D01*
X124705585Y-87351760D01*
X124647969Y-87541695D01*
X124642091Y-87601383D01*
X124634058Y-87682947D01*
X124633390Y-87689727D01*
X124633390Y-89297472D01*
X124108610Y-89297472D01*
X124108610Y-87689724D01*
X124094030Y-87541694D01*
X124036414Y-87351759D01*
X123942851Y-87176713D01*
X123939955Y-87173184D01*
X123816935Y-87023284D01*
X123663510Y-86897371D01*
X123663508Y-86897370D01*
X123663507Y-86897369D01*
X123488461Y-86803806D01*
X123488460Y-86803805D01*
X123488459Y-86803805D01*
X123329339Y-86755537D01*
X123298526Y-86746190D01*
X123298524Y-86746189D01*
X123298526Y-86746189D01*
X123101000Y-86726735D01*
X122903475Y-86746189D01*
X122713540Y-86803805D01*
X122538489Y-86897371D01*
X122385064Y-87023284D01*
X122259151Y-87176709D01*
X122165585Y-87351760D01*
X122107969Y-87541695D01*
X122102091Y-87601383D01*
X122094058Y-87682947D01*
X122093390Y-87689727D01*
X122093390Y-89297472D01*
X121568610Y-89297472D01*
X121568610Y-87689724D01*
X121554030Y-87541694D01*
X121496414Y-87351759D01*
X121402851Y-87176713D01*
X121399955Y-87173184D01*
X121276935Y-87023284D01*
X121123510Y-86897371D01*
X121123508Y-86897370D01*
X121123507Y-86897369D01*
X120948461Y-86803806D01*
X120948460Y-86803805D01*
X120948459Y-86803805D01*
X120789339Y-86755537D01*
X120758526Y-86746190D01*
X120758524Y-86746189D01*
X120758526Y-86746189D01*
X120561000Y-86726735D01*
X120363475Y-86746189D01*
X120173540Y-86803805D01*
X119998489Y-86897371D01*
X119845064Y-87023284D01*
X119719151Y-87176709D01*
X119625585Y-87351760D01*
X119567969Y-87541695D01*
X119562091Y-87601383D01*
X119554058Y-87682947D01*
X119553390Y-87689727D01*
X119553390Y-89297472D01*
X119028610Y-89297472D01*
X119028610Y-87689724D01*
X119014030Y-87541694D01*
X118956414Y-87351759D01*
X118862851Y-87176713D01*
X118859955Y-87173184D01*
X118736935Y-87023284D01*
X118583510Y-86897371D01*
X118583508Y-86897370D01*
X118583507Y-86897369D01*
X118408461Y-86803806D01*
X118408460Y-86803805D01*
X118408459Y-86803805D01*
X118249339Y-86755537D01*
X118218526Y-86746190D01*
X118218524Y-86746189D01*
X118218526Y-86746189D01*
X118021000Y-86726735D01*
X117823475Y-86746189D01*
X117633540Y-86803805D01*
X117458489Y-86897371D01*
X117305064Y-87023284D01*
X117179151Y-87176709D01*
X117085585Y-87351760D01*
X117027969Y-87541695D01*
X117022091Y-87601383D01*
X117014058Y-87682947D01*
X117013390Y-87689727D01*
X117013390Y-89297472D01*
X107390500Y-89297472D01*
X107390500Y-84711440D01*
X107390691Y-84706574D01*
X107401057Y-84574858D01*
X107404440Y-84531861D01*
X107407482Y-84512655D01*
X107446687Y-84349357D01*
X107452693Y-84330872D01*
X107516960Y-84175719D01*
X107525793Y-84158385D01*
X107613529Y-84015213D01*
X107624965Y-83999472D01*
X107734027Y-83871776D01*
X107747776Y-83858027D01*
X107875475Y-83748962D01*
X107891213Y-83737529D01*
X107891915Y-83737099D01*
X108034388Y-83649791D01*
X108051719Y-83640960D01*
X108206872Y-83576693D01*
X108225357Y-83570687D01*
X108388655Y-83531482D01*
X108407861Y-83528440D01*
X108555766Y-83516800D01*
X108582574Y-83514691D01*
X108587440Y-83514500D01*
X108609531Y-83514500D01*
X130429308Y-83514500D01*
X130496347Y-83534185D01*
G37*
%TD.AperFunction*%
%TA.AperFunction,Conductor*%
G36*
X156442055Y-84444185D02*
G01*
X156462697Y-84460819D01*
X158537164Y-86535286D01*
X158570649Y-86596609D01*
X158565665Y-86666301D01*
X158523793Y-86722234D01*
X158469143Y-86743461D01*
X158469450Y-86745001D01*
X158463477Y-86746189D01*
X158273540Y-86803805D01*
X158098489Y-86897371D01*
X157945064Y-87023284D01*
X157819151Y-87176709D01*
X157725585Y-87351760D01*
X157667969Y-87541695D01*
X157662091Y-87601383D01*
X157654058Y-87682947D01*
X157653390Y-87689727D01*
X157653390Y-89297472D01*
X157667969Y-89445504D01*
X157695100Y-89534941D01*
X157725586Y-89635441D01*
X157812591Y-89798218D01*
X157819151Y-89810490D01*
X157945064Y-89963915D01*
X158031923Y-90035198D01*
X158098493Y-90089831D01*
X158213952Y-90151544D01*
X158263797Y-90200506D01*
X158279500Y-90260903D01*
X158279500Y-90331572D01*
X158276861Y-90357020D01*
X158274554Y-90368017D01*
X158279023Y-90403865D01*
X158279500Y-90411541D01*
X158279500Y-90415611D01*
X158279555Y-90415940D01*
X158283403Y-90439005D01*
X158290304Y-90494361D01*
X158292580Y-90502009D01*
X158295181Y-90509585D01*
X158321729Y-90558641D01*
X158346224Y-90608747D01*
X158350869Y-90615253D01*
X158355781Y-90621564D01*
X158396819Y-90659341D01*
X159014481Y-91277003D01*
X159047966Y-91338326D01*
X159050800Y-91364684D01*
X159050800Y-93005496D01*
X159031115Y-93072535D01*
X158978311Y-93118290D01*
X158909153Y-93128234D01*
X158858490Y-93108984D01*
X158826207Y-93087675D01*
X158618804Y-92999027D01*
X158618787Y-92999021D01*
X158398889Y-92948832D01*
X158173556Y-92938712D01*
X157950026Y-92968991D01*
X157735504Y-93038693D01*
X157536877Y-93145579D01*
X157536875Y-93145581D01*
X157444712Y-93219078D01*
X157380025Y-93245486D01*
X157311330Y-93232729D01*
X157260437Y-93184858D01*
X157243400Y-93122130D01*
X157243400Y-92774532D01*
X157246039Y-92749086D01*
X157246893Y-92745013D01*
X157248346Y-92738084D01*
X157245648Y-92716437D01*
X157243877Y-92702227D01*
X157243400Y-92694551D01*
X157243400Y-92690491D01*
X157243399Y-92690479D01*
X157239497Y-92667106D01*
X157232596Y-92611738D01*
X157230322Y-92604101D01*
X157227719Y-92596521D01*
X157227718Y-92596514D01*
X157201176Y-92547468D01*
X157176677Y-92497354D01*
X157176676Y-92497353D01*
X157176675Y-92497350D01*
X157172051Y-92490874D01*
X157167118Y-92484536D01*
X157126092Y-92446769D01*
X157083962Y-92404638D01*
X157050477Y-92343315D01*
X157049249Y-92313829D01*
X157048055Y-92313829D01*
X157048055Y-92305700D01*
X157041013Y-92252211D01*
X157027523Y-92149747D01*
X156967328Y-92004423D01*
X156956047Y-91989721D01*
X156871572Y-91879630D01*
X156871571Y-91879629D01*
X156746778Y-91783872D01*
X156746777Y-91783871D01*
X156746775Y-91783870D01*
X156601456Y-91723678D01*
X156601454Y-91723677D01*
X156601453Y-91723677D01*
X156512395Y-91711952D01*
X156445501Y-91703145D01*
X156445499Y-91703145D01*
X156289547Y-91723677D01*
X156289543Y-91723678D01*
X156144223Y-91783871D01*
X156019429Y-91879629D01*
X155923672Y-92004422D01*
X155870173Y-92133580D01*
X155826332Y-92187983D01*
X155760037Y-92210048D01*
X155692338Y-92192769D01*
X155667931Y-92173808D01*
X155022133Y-91528010D01*
X155006005Y-91508150D01*
X154999860Y-91498744D01*
X154971349Y-91476553D01*
X154965587Y-91471464D01*
X154962709Y-91468586D01*
X154943399Y-91454799D01*
X154914600Y-91432384D01*
X154899386Y-91420542D01*
X154892370Y-91416745D01*
X154885172Y-91413226D01*
X154885170Y-91413225D01*
X154885167Y-91413224D01*
X154831713Y-91397309D01*
X154778962Y-91379199D01*
X154771079Y-91377884D01*
X154763139Y-91376894D01*
X154709467Y-91379115D01*
X154707416Y-91379200D01*
X154375284Y-91379200D01*
X154308245Y-91359515D01*
X154287603Y-91342881D01*
X153648984Y-90704261D01*
X153615499Y-90642938D01*
X153620483Y-90573246D01*
X153662355Y-90517313D01*
X153720020Y-90493702D01*
X153860974Y-90474608D01*
X154075495Y-90404906D01*
X154274122Y-90298020D01*
X154274125Y-90298018D01*
X154450475Y-90157384D01*
X154598885Y-89987516D01*
X154644692Y-89910845D01*
X153712746Y-88978899D01*
X153723061Y-88977417D01*
X153853614Y-88917795D01*
X153962081Y-88823808D01*
X154039675Y-88703070D01*
X154063359Y-88622407D01*
X154829132Y-89388180D01*
X154829134Y-89388180D01*
X154834110Y-89360764D01*
X154834110Y-89297472D01*
X155113390Y-89297472D01*
X155127969Y-89445504D01*
X155155100Y-89534941D01*
X155185586Y-89635441D01*
X155272591Y-89798218D01*
X155279151Y-89810490D01*
X155405064Y-89963915D01*
X155558489Y-90089828D01*
X155558493Y-90089831D01*
X155733539Y-90183394D01*
X155923474Y-90241010D01*
X155923473Y-90241010D01*
X155941183Y-90242754D01*
X156121000Y-90260465D01*
X156318526Y-90241010D01*
X156508461Y-90183394D01*
X156683507Y-90089831D01*
X156836935Y-89963915D01*
X156962851Y-89810487D01*
X157056414Y-89635441D01*
X157114030Y-89445506D01*
X157128610Y-89297476D01*
X157128610Y-87689724D01*
X157114030Y-87541694D01*
X157056414Y-87351759D01*
X156962851Y-87176713D01*
X156959955Y-87173184D01*
X156836935Y-87023284D01*
X156683510Y-86897371D01*
X156683508Y-86897370D01*
X156683507Y-86897369D01*
X156508461Y-86803806D01*
X156508460Y-86803805D01*
X156508459Y-86803805D01*
X156349339Y-86755537D01*
X156318526Y-86746190D01*
X156318524Y-86746189D01*
X156318526Y-86746189D01*
X156121000Y-86726735D01*
X155923475Y-86746189D01*
X155733540Y-86803805D01*
X155558489Y-86897371D01*
X155405064Y-87023284D01*
X155279151Y-87176709D01*
X155185585Y-87351760D01*
X155127969Y-87541695D01*
X155122091Y-87601383D01*
X155114058Y-87682947D01*
X155113390Y-87689727D01*
X155113390Y-89297472D01*
X154834110Y-89297472D01*
X154834110Y-87682947D01*
X154826768Y-87601383D01*
X154063359Y-88364792D01*
X154039675Y-88284130D01*
X153962081Y-88163392D01*
X153853614Y-88069405D01*
X153723061Y-88009783D01*
X153712746Y-88008300D01*
X154646797Y-87074248D01*
X154646797Y-87074246D01*
X154528497Y-86911420D01*
X154528498Y-86911420D01*
X154365457Y-86755537D01*
X154177208Y-86631275D01*
X153969804Y-86542627D01*
X153969787Y-86542621D01*
X153749889Y-86492432D01*
X153524556Y-86482312D01*
X153301026Y-86512591D01*
X153086504Y-86582293D01*
X152887877Y-86689179D01*
X152887874Y-86689181D01*
X152711521Y-86829818D01*
X152621982Y-86932303D01*
X152563050Y-86969837D01*
X152493181Y-86969551D01*
X152440921Y-86938399D01*
X150138704Y-84636181D01*
X150105219Y-84574858D01*
X150110203Y-84505166D01*
X150152075Y-84449233D01*
X150217539Y-84424816D01*
X150226385Y-84424500D01*
X156375016Y-84424500D01*
X156442055Y-84444185D01*
G37*
%TD.AperFunction*%
%TD*%
M02*
