G04 #@! TF.GenerationSoftware,KiCad,Pcbnew,(5.0.0)*
G04 #@! TF.CreationDate,2018-09-19T19:41:42-05:00*
G04 #@! TF.ProjectId,27C160_Adapter,3237433136305F416461707465722E6B,rev?*
G04 #@! TF.SameCoordinates,Original*
G04 #@! TF.FileFunction,Legend,Top*
G04 #@! TF.FilePolarity,Positive*
%FSLAX46Y46*%
G04 Gerber Fmt 4.6, Leading zero omitted, Abs format (unit mm)*
G04 Created by KiCad (PCBNEW (5.0.0)) date 09/19/18 19:41:42*
%MOMM*%
%LPD*%
G01*
G04 APERTURE LIST*
%ADD10C,0.081280*%
%ADD11C,0.134112*%
%ADD12C,0.150000*%
%ADD13C,0.113792*%
%ADD14C,0.152400*%
%ADD15C,0.100000*%
%ADD16C,0.127000*%
%ADD17C,0.203200*%
%ADD18C,0.101600*%
%ADD19C,0.120650*%
G04 APERTURE END LIST*
D10*
X185917598Y-94316585D02*
X185457979Y-94638318D01*
X185917598Y-94868128D02*
X184952398Y-94868128D01*
X184952398Y-94500433D01*
X184998360Y-94408509D01*
X185044321Y-94362547D01*
X185136245Y-94316585D01*
X185274131Y-94316585D01*
X185366055Y-94362547D01*
X185412017Y-94408509D01*
X185457979Y-94500433D01*
X185457979Y-94868128D01*
X186009521Y-94132738D02*
X186009521Y-93397347D01*
X185044321Y-93213499D02*
X184998360Y-93167538D01*
X184952398Y-93075614D01*
X184952398Y-92845804D01*
X184998360Y-92753880D01*
X185044321Y-92707918D01*
X185136245Y-92661957D01*
X185228169Y-92661957D01*
X185366055Y-92707918D01*
X185917598Y-93259461D01*
X185917598Y-92661957D01*
X184952398Y-92064452D02*
X184952398Y-91972528D01*
X184998360Y-91880604D01*
X185044321Y-91834642D01*
X185136245Y-91788680D01*
X185320093Y-91742718D01*
X185549902Y-91742718D01*
X185733750Y-91788680D01*
X185825674Y-91834642D01*
X185871636Y-91880604D01*
X185917598Y-91972528D01*
X185917598Y-92064452D01*
X185871636Y-92156376D01*
X185825674Y-92202338D01*
X185733750Y-92248299D01*
X185549902Y-92294261D01*
X185320093Y-92294261D01*
X185136245Y-92248299D01*
X185044321Y-92202338D01*
X184998360Y-92156376D01*
X184952398Y-92064452D01*
X185917598Y-90823480D02*
X185917598Y-91375023D01*
X185917598Y-91099252D02*
X184952398Y-91099252D01*
X185090283Y-91191176D01*
X185182207Y-91283099D01*
X185228169Y-91375023D01*
X185366055Y-90271938D02*
X185320093Y-90363861D01*
X185274131Y-90409823D01*
X185182207Y-90455785D01*
X185136245Y-90455785D01*
X185044321Y-90409823D01*
X184998360Y-90363861D01*
X184952398Y-90271938D01*
X184952398Y-90088090D01*
X184998360Y-89996166D01*
X185044321Y-89950204D01*
X185136245Y-89904242D01*
X185182207Y-89904242D01*
X185274131Y-89950204D01*
X185320093Y-89996166D01*
X185366055Y-90088090D01*
X185366055Y-90271938D01*
X185412017Y-90363861D01*
X185457979Y-90409823D01*
X185549902Y-90455785D01*
X185733750Y-90455785D01*
X185825674Y-90409823D01*
X185871636Y-90363861D01*
X185917598Y-90271938D01*
X185917598Y-90088090D01*
X185871636Y-89996166D01*
X185825674Y-89950204D01*
X185733750Y-89904242D01*
X185549902Y-89904242D01*
X185457979Y-89950204D01*
X185412017Y-89996166D01*
X185366055Y-90088090D01*
X184952398Y-89306738D02*
X184952398Y-89214814D01*
X184998360Y-89122890D01*
X185044321Y-89076928D01*
X185136245Y-89030966D01*
X185320093Y-88985004D01*
X185549902Y-88985004D01*
X185733750Y-89030966D01*
X185825674Y-89076928D01*
X185871636Y-89122890D01*
X185917598Y-89214814D01*
X185917598Y-89306738D01*
X185871636Y-89398661D01*
X185825674Y-89444623D01*
X185733750Y-89490585D01*
X185549902Y-89536547D01*
X185320093Y-89536547D01*
X185136245Y-89490585D01*
X185044321Y-89444623D01*
X184998360Y-89398661D01*
X184952398Y-89306738D01*
X185917598Y-88525385D02*
X185917598Y-88341538D01*
X185871636Y-88249614D01*
X185825674Y-88203652D01*
X185687788Y-88111728D01*
X185503940Y-88065766D01*
X185136245Y-88065766D01*
X185044321Y-88111728D01*
X184998360Y-88157690D01*
X184952398Y-88249614D01*
X184952398Y-88433461D01*
X184998360Y-88525385D01*
X185044321Y-88571347D01*
X185136245Y-88617309D01*
X185366055Y-88617309D01*
X185457979Y-88571347D01*
X185503940Y-88525385D01*
X185549902Y-88433461D01*
X185549902Y-88249614D01*
X185503940Y-88157690D01*
X185457979Y-88111728D01*
X185366055Y-88065766D01*
X185917598Y-87146528D02*
X185917598Y-87698071D01*
X185917598Y-87422299D02*
X184952398Y-87422299D01*
X185090283Y-87514223D01*
X185182207Y-87606147D01*
X185228169Y-87698071D01*
X185917598Y-86686909D02*
X185917598Y-86503061D01*
X185871636Y-86411138D01*
X185825674Y-86365176D01*
X185687788Y-86273252D01*
X185503940Y-86227290D01*
X185136245Y-86227290D01*
X185044321Y-86273252D01*
X184998360Y-86319214D01*
X184952398Y-86411138D01*
X184952398Y-86594985D01*
X184998360Y-86686909D01*
X185044321Y-86732871D01*
X185136245Y-86778833D01*
X185366055Y-86778833D01*
X185457979Y-86732871D01*
X185503940Y-86686909D01*
X185549902Y-86594985D01*
X185549902Y-86411138D01*
X185503940Y-86319214D01*
X185457979Y-86273252D01*
X185366055Y-86227290D01*
D11*
X186443257Y-123525482D02*
X186367420Y-123449645D01*
X186291582Y-123297971D01*
X186291582Y-122918785D01*
X186367420Y-122767111D01*
X186443257Y-122691274D01*
X186594931Y-122615436D01*
X186746605Y-122615436D01*
X186974117Y-122691274D01*
X187884162Y-123601319D01*
X187884162Y-122615436D01*
X186291582Y-122084576D02*
X186291582Y-121022856D01*
X187884162Y-121705391D01*
X187808325Y-119733625D02*
X187884162Y-119885299D01*
X187884162Y-120188648D01*
X187808325Y-120340322D01*
X187732488Y-120416159D01*
X187580814Y-120491996D01*
X187125791Y-120491996D01*
X186974117Y-120416159D01*
X186898280Y-120340322D01*
X186822442Y-120188648D01*
X186822442Y-119885299D01*
X186898280Y-119733625D01*
X187884162Y-118216882D02*
X187884162Y-119126928D01*
X187884162Y-118671905D02*
X186291582Y-118671905D01*
X186519094Y-118823579D01*
X186670768Y-118975254D01*
X186746605Y-119126928D01*
X186291582Y-116851814D02*
X186291582Y-117155162D01*
X186367420Y-117306836D01*
X186443257Y-117382674D01*
X186670768Y-117534348D01*
X186974117Y-117610185D01*
X187580814Y-117610185D01*
X187732488Y-117534348D01*
X187808325Y-117458511D01*
X187884162Y-117306836D01*
X187884162Y-117003488D01*
X187808325Y-116851814D01*
X187732488Y-116775976D01*
X187580814Y-116700139D01*
X187201628Y-116700139D01*
X187049954Y-116775976D01*
X186974117Y-116851814D01*
X186898280Y-117003488D01*
X186898280Y-117306836D01*
X186974117Y-117458511D01*
X187049954Y-117534348D01*
X187201628Y-117610185D01*
X186291582Y-115714256D02*
X186291582Y-115562582D01*
X186367420Y-115410908D01*
X186443257Y-115335071D01*
X186594931Y-115259234D01*
X186898280Y-115183396D01*
X187277465Y-115183396D01*
X187580814Y-115259234D01*
X187732488Y-115335071D01*
X187808325Y-115410908D01*
X187884162Y-115562582D01*
X187884162Y-115714256D01*
X187808325Y-115865931D01*
X187732488Y-115941768D01*
X187580814Y-116017605D01*
X187277465Y-116093442D01*
X186898280Y-116093442D01*
X186594931Y-116017605D01*
X186443257Y-115941768D01*
X186367420Y-115865931D01*
X186291582Y-115714256D01*
X186215745Y-113363305D02*
X188263348Y-114728374D01*
X186291582Y-112984119D02*
X186291582Y-111998236D01*
X186898280Y-112529096D01*
X186898280Y-112301585D01*
X186974117Y-112149911D01*
X187049954Y-112074074D01*
X187201628Y-111998236D01*
X187580814Y-111998236D01*
X187732488Y-112074074D01*
X187808325Y-112149911D01*
X187884162Y-112301585D01*
X187884162Y-112756608D01*
X187808325Y-112908282D01*
X187732488Y-112984119D01*
X186443257Y-111391539D02*
X186367420Y-111315702D01*
X186291582Y-111164028D01*
X186291582Y-110784842D01*
X186367420Y-110633168D01*
X186443257Y-110557331D01*
X186594931Y-110481494D01*
X186746605Y-110481494D01*
X186974117Y-110557331D01*
X187884162Y-111467376D01*
X187884162Y-110481494D01*
X186443257Y-109874796D02*
X186367420Y-109798959D01*
X186291582Y-109647285D01*
X186291582Y-109268099D01*
X186367420Y-109116425D01*
X186443257Y-109040588D01*
X186594931Y-108964751D01*
X186746605Y-108964751D01*
X186974117Y-109040588D01*
X187884162Y-109950634D01*
X187884162Y-108964751D01*
X186215745Y-107144659D02*
X188263348Y-108509728D01*
X186822442Y-105931265D02*
X187884162Y-105931265D01*
X186215745Y-106310451D02*
X187353302Y-106689636D01*
X187353302Y-105703754D01*
X186291582Y-104793708D02*
X186291582Y-104642034D01*
X186367420Y-104490359D01*
X186443257Y-104414522D01*
X186594931Y-104338685D01*
X186898280Y-104262848D01*
X187277465Y-104262848D01*
X187580814Y-104338685D01*
X187732488Y-104414522D01*
X187808325Y-104490359D01*
X187884162Y-104642034D01*
X187884162Y-104793708D01*
X187808325Y-104945382D01*
X187732488Y-105021219D01*
X187580814Y-105097056D01*
X187277465Y-105172894D01*
X186898280Y-105172894D01*
X186594931Y-105097056D01*
X186443257Y-105021219D01*
X186367420Y-104945382D01*
X186291582Y-104793708D01*
X186291582Y-103276965D02*
X186291582Y-103125291D01*
X186367420Y-102973616D01*
X186443257Y-102897779D01*
X186594931Y-102821942D01*
X186898280Y-102746105D01*
X187277465Y-102746105D01*
X187580814Y-102821942D01*
X187732488Y-102897779D01*
X187808325Y-102973616D01*
X187884162Y-103125291D01*
X187884162Y-103276965D01*
X187808325Y-103428639D01*
X187732488Y-103504476D01*
X187580814Y-103580314D01*
X187277465Y-103656151D01*
X186898280Y-103656151D01*
X186594931Y-103580314D01*
X186443257Y-103504476D01*
X186367420Y-103428639D01*
X186291582Y-103276965D01*
X186215745Y-100926014D02*
X188263348Y-102291082D01*
X186974117Y-100167642D02*
X186898280Y-100319316D01*
X186822442Y-100395154D01*
X186670768Y-100470991D01*
X186594931Y-100470991D01*
X186443257Y-100395154D01*
X186367420Y-100319316D01*
X186291582Y-100167642D01*
X186291582Y-99864294D01*
X186367420Y-99712619D01*
X186443257Y-99636782D01*
X186594931Y-99560945D01*
X186670768Y-99560945D01*
X186822442Y-99636782D01*
X186898280Y-99712619D01*
X186974117Y-99864294D01*
X186974117Y-100167642D01*
X187049954Y-100319316D01*
X187125791Y-100395154D01*
X187277465Y-100470991D01*
X187580814Y-100470991D01*
X187732488Y-100395154D01*
X187808325Y-100319316D01*
X187884162Y-100167642D01*
X187884162Y-99864294D01*
X187808325Y-99712619D01*
X187732488Y-99636782D01*
X187580814Y-99560945D01*
X187277465Y-99560945D01*
X187125791Y-99636782D01*
X187049954Y-99712619D01*
X186974117Y-99864294D01*
X186291582Y-98575062D02*
X186291582Y-98423388D01*
X186367420Y-98271714D01*
X186443257Y-98195876D01*
X186594931Y-98120039D01*
X186898280Y-98044202D01*
X187277465Y-98044202D01*
X187580814Y-98120039D01*
X187732488Y-98195876D01*
X187808325Y-98271714D01*
X187884162Y-98423388D01*
X187884162Y-98575062D01*
X187808325Y-98726736D01*
X187732488Y-98802574D01*
X187580814Y-98878411D01*
X187277465Y-98954248D01*
X186898280Y-98954248D01*
X186594931Y-98878411D01*
X186443257Y-98802574D01*
X186367420Y-98726736D01*
X186291582Y-98575062D01*
X186291582Y-97058319D02*
X186291582Y-96906645D01*
X186367420Y-96754971D01*
X186443257Y-96679134D01*
X186594931Y-96603296D01*
X186898280Y-96527459D01*
X187277465Y-96527459D01*
X187580814Y-96603296D01*
X187732488Y-96679134D01*
X187808325Y-96754971D01*
X187884162Y-96906645D01*
X187884162Y-97058319D01*
X187808325Y-97209994D01*
X187732488Y-97285831D01*
X187580814Y-97361668D01*
X187277465Y-97437505D01*
X186898280Y-97437505D01*
X186594931Y-97361668D01*
X186443257Y-97285831D01*
X186367420Y-97209994D01*
X186291582Y-97058319D01*
X187429140Y-94707368D02*
X187429140Y-93948996D01*
X187884162Y-94859042D02*
X186291582Y-94328182D01*
X187884162Y-93797322D01*
X187884162Y-92583928D02*
X186291582Y-92583928D01*
X187808325Y-92583928D02*
X187884162Y-92735602D01*
X187884162Y-93038951D01*
X187808325Y-93190625D01*
X187732488Y-93266462D01*
X187580814Y-93342299D01*
X187125791Y-93342299D01*
X186974117Y-93266462D01*
X186898280Y-93190625D01*
X186822442Y-93038951D01*
X186822442Y-92735602D01*
X186898280Y-92583928D01*
X187884162Y-91143022D02*
X187049954Y-91143022D01*
X186898280Y-91218859D01*
X186822442Y-91370534D01*
X186822442Y-91673882D01*
X186898280Y-91825556D01*
X187808325Y-91143022D02*
X187884162Y-91294696D01*
X187884162Y-91673882D01*
X187808325Y-91825556D01*
X187656651Y-91901394D01*
X187504977Y-91901394D01*
X187353302Y-91825556D01*
X187277465Y-91673882D01*
X187277465Y-91294696D01*
X187201628Y-91143022D01*
X186822442Y-90384651D02*
X188415022Y-90384651D01*
X186898280Y-90384651D02*
X186822442Y-90232976D01*
X186822442Y-89929628D01*
X186898280Y-89777954D01*
X186974117Y-89702116D01*
X187125791Y-89626279D01*
X187580814Y-89626279D01*
X187732488Y-89702116D01*
X187808325Y-89777954D01*
X187884162Y-89929628D01*
X187884162Y-90232976D01*
X187808325Y-90384651D01*
X186822442Y-89171256D02*
X186822442Y-88564559D01*
X186291582Y-88943745D02*
X187656651Y-88943745D01*
X187808325Y-88867908D01*
X187884162Y-88716234D01*
X187884162Y-88564559D01*
X187808325Y-87427002D02*
X187884162Y-87578676D01*
X187884162Y-87882025D01*
X187808325Y-88033699D01*
X187656651Y-88109536D01*
X187049954Y-88109536D01*
X186898280Y-88033699D01*
X186822442Y-87882025D01*
X186822442Y-87578676D01*
X186898280Y-87427002D01*
X187049954Y-87351165D01*
X187201628Y-87351165D01*
X187353302Y-88109536D01*
X187884162Y-86668631D02*
X186822442Y-86668631D01*
X187125791Y-86668631D02*
X186974117Y-86592794D01*
X186898280Y-86516956D01*
X186822442Y-86365282D01*
X186822442Y-86213608D01*
D10*
X148831082Y-125607838D02*
X148279539Y-125607838D01*
X148555310Y-125607838D02*
X148555310Y-124642638D01*
X148463387Y-124780523D01*
X148371463Y-124872447D01*
X148279539Y-124918409D01*
X149382625Y-125056295D02*
X149290701Y-125010333D01*
X149244739Y-124964371D01*
X149198777Y-124872447D01*
X149198777Y-124826485D01*
X149244739Y-124734561D01*
X149290701Y-124688600D01*
X149382625Y-124642638D01*
X149566472Y-124642638D01*
X149658396Y-124688600D01*
X149704358Y-124734561D01*
X149750320Y-124826485D01*
X149750320Y-124872447D01*
X149704358Y-124964371D01*
X149658396Y-125010333D01*
X149566472Y-125056295D01*
X149382625Y-125056295D01*
X149290701Y-125102257D01*
X149244739Y-125148219D01*
X149198777Y-125240142D01*
X149198777Y-125423990D01*
X149244739Y-125515914D01*
X149290701Y-125561876D01*
X149382625Y-125607838D01*
X149566472Y-125607838D01*
X149658396Y-125561876D01*
X149704358Y-125515914D01*
X149750320Y-125423990D01*
X149750320Y-125240142D01*
X149704358Y-125148219D01*
X149658396Y-125102257D01*
X149566472Y-125056295D01*
X151371082Y-125607838D02*
X150819539Y-125607838D01*
X151095310Y-125607838D02*
X151095310Y-124642638D01*
X151003387Y-124780523D01*
X150911463Y-124872447D01*
X150819539Y-124918409D01*
X151830701Y-125607838D02*
X152014548Y-125607838D01*
X152106472Y-125561876D01*
X152152434Y-125515914D01*
X152244358Y-125378028D01*
X152290320Y-125194180D01*
X152290320Y-124826485D01*
X152244358Y-124734561D01*
X152198396Y-124688600D01*
X152106472Y-124642638D01*
X151922625Y-124642638D01*
X151830701Y-124688600D01*
X151784739Y-124734561D01*
X151738777Y-124826485D01*
X151738777Y-125056295D01*
X151784739Y-125148219D01*
X151830701Y-125194180D01*
X151922625Y-125240142D01*
X152106472Y-125240142D01*
X152198396Y-125194180D01*
X152244358Y-125148219D01*
X152290320Y-125056295D01*
X153359539Y-124734561D02*
X153405501Y-124688600D01*
X153497425Y-124642638D01*
X153727234Y-124642638D01*
X153819158Y-124688600D01*
X153865120Y-124734561D01*
X153911082Y-124826485D01*
X153911082Y-124918409D01*
X153865120Y-125056295D01*
X153313577Y-125607838D01*
X153911082Y-125607838D01*
X154508587Y-124642638D02*
X154600510Y-124642638D01*
X154692434Y-124688600D01*
X154738396Y-124734561D01*
X154784358Y-124826485D01*
X154830320Y-125010333D01*
X154830320Y-125240142D01*
X154784358Y-125423990D01*
X154738396Y-125515914D01*
X154692434Y-125561876D01*
X154600510Y-125607838D01*
X154508587Y-125607838D01*
X154416663Y-125561876D01*
X154370701Y-125515914D01*
X154324739Y-125423990D01*
X154278777Y-125240142D01*
X154278777Y-125010333D01*
X154324739Y-124826485D01*
X154370701Y-124734561D01*
X154416663Y-124688600D01*
X154508587Y-124642638D01*
D12*
X135166100Y-118973600D02*
X145961100Y-118973600D01*
D13*
X135497451Y-116416666D02*
X135561798Y-116352320D01*
X135690491Y-116287973D01*
X136012224Y-116287973D01*
X136140918Y-116352320D01*
X136205264Y-116416666D01*
X136269611Y-116545360D01*
X136269611Y-116674053D01*
X136205264Y-116867093D01*
X135433104Y-117639253D01*
X136269611Y-117639253D01*
X136720038Y-116287973D02*
X137620891Y-116287973D01*
X137041771Y-117639253D01*
X138714784Y-117574906D02*
X138586091Y-117639253D01*
X138328704Y-117639253D01*
X138200011Y-117574906D01*
X138135664Y-117510560D01*
X138071318Y-117381866D01*
X138071318Y-116995786D01*
X138135664Y-116867093D01*
X138200011Y-116802746D01*
X138328704Y-116738400D01*
X138586091Y-116738400D01*
X138714784Y-116802746D01*
X139165211Y-116287973D02*
X140001718Y-116287973D01*
X139551291Y-116802746D01*
X139744331Y-116802746D01*
X139873024Y-116867093D01*
X139937371Y-116931440D01*
X140001718Y-117060133D01*
X140001718Y-117381866D01*
X139937371Y-117510560D01*
X139873024Y-117574906D01*
X139744331Y-117639253D01*
X139358251Y-117639253D01*
X139229558Y-117574906D01*
X139165211Y-117510560D01*
X140516491Y-116416666D02*
X140580838Y-116352320D01*
X140709531Y-116287973D01*
X141031264Y-116287973D01*
X141159958Y-116352320D01*
X141224304Y-116416666D01*
X141288651Y-116545360D01*
X141288651Y-116674053D01*
X141224304Y-116867093D01*
X140452144Y-117639253D01*
X141288651Y-117639253D01*
X141803424Y-116416666D02*
X141867771Y-116352320D01*
X141996464Y-116287973D01*
X142318198Y-116287973D01*
X142446891Y-116352320D01*
X142511238Y-116416666D01*
X142575584Y-116545360D01*
X142575584Y-116674053D01*
X142511238Y-116867093D01*
X141739078Y-117639253D01*
X142575584Y-117639253D01*
X135754838Y-121530533D02*
X135626144Y-121466186D01*
X135561798Y-121401840D01*
X135497451Y-121273146D01*
X135497451Y-120887066D01*
X135561798Y-120758373D01*
X135626144Y-120694026D01*
X135754838Y-120629680D01*
X135947878Y-120629680D01*
X136076571Y-120694026D01*
X136140918Y-120758373D01*
X136205264Y-120887066D01*
X136205264Y-121273146D01*
X136140918Y-121401840D01*
X136076571Y-121466186D01*
X135947878Y-121530533D01*
X135754838Y-121530533D01*
X136591344Y-120629680D02*
X137106118Y-120629680D01*
X136784384Y-120179253D02*
X136784384Y-121337493D01*
X136848731Y-121466186D01*
X136977424Y-121530533D01*
X137106118Y-121530533D01*
X137556544Y-121530533D02*
X137556544Y-120179253D01*
X138135664Y-121530533D02*
X138135664Y-120822720D01*
X138071318Y-120694026D01*
X137942624Y-120629680D01*
X137749584Y-120629680D01*
X137620891Y-120694026D01*
X137556544Y-120758373D01*
X139293904Y-121466186D02*
X139165211Y-121530533D01*
X138907824Y-121530533D01*
X138779131Y-121466186D01*
X138714784Y-121337493D01*
X138714784Y-120822720D01*
X138779131Y-120694026D01*
X138907824Y-120629680D01*
X139165211Y-120629680D01*
X139293904Y-120694026D01*
X139358251Y-120822720D01*
X139358251Y-120951413D01*
X138714784Y-121080106D01*
X139937371Y-121530533D02*
X139937371Y-120629680D01*
X139937371Y-120887066D02*
X140001718Y-120758373D01*
X140066064Y-120694026D01*
X140194758Y-120629680D01*
X140323451Y-120629680D01*
X146429611Y-117639253D02*
X145657451Y-117639253D01*
X146043531Y-117639253D02*
X146043531Y-116287973D01*
X145914838Y-116481013D01*
X145786144Y-116609706D01*
X145657451Y-116674053D01*
X145979184Y-120179253D02*
X146107878Y-120179253D01*
X146236571Y-120243600D01*
X146300918Y-120307946D01*
X146365264Y-120436640D01*
X146429611Y-120694026D01*
X146429611Y-121015760D01*
X146365264Y-121273146D01*
X146300918Y-121401840D01*
X146236571Y-121466186D01*
X146107878Y-121530533D01*
X145979184Y-121530533D01*
X145850491Y-121466186D01*
X145786144Y-121401840D01*
X145721798Y-121273146D01*
X145657451Y-121015760D01*
X145657451Y-120694026D01*
X145721798Y-120436640D01*
X145786144Y-120307946D01*
X145850491Y-120243600D01*
X145979184Y-120179253D01*
D14*
G04 #@! TO.C,R1*
X183299000Y-116053000D02*
G75*
G03X183045000Y-115799000I-254000J0D01*
G01*
X181013000Y-116053000D02*
G75*
G02X181267000Y-115799000I254000J0D01*
G01*
X181267000Y-122149000D02*
G75*
G02X181013000Y-121895000I0J254000D01*
G01*
X183045000Y-122149000D02*
G75*
G03X183299000Y-121895000I0J254000D01*
G01*
X181267000Y-115799000D02*
X183045000Y-115799000D01*
X183299000Y-116053000D02*
X183299000Y-116434000D01*
X183172000Y-116561000D02*
X183299000Y-116434000D01*
X181013000Y-116053000D02*
X181013000Y-116434000D01*
X181140000Y-116561000D02*
X181013000Y-116434000D01*
X183172000Y-121387000D02*
X183299000Y-121514000D01*
X183172000Y-121387000D02*
X183172000Y-116561000D01*
X181140000Y-121387000D02*
X181013000Y-121514000D01*
X181140000Y-121387000D02*
X181140000Y-116561000D01*
X183299000Y-121895000D02*
X183299000Y-121514000D01*
X181013000Y-121895000D02*
X181013000Y-121514000D01*
X181267000Y-122149000D02*
X183045000Y-122149000D01*
D15*
G36*
X181851200Y-122149000D02*
X181851200Y-123012600D01*
X182460800Y-123012600D01*
X182460800Y-122149000D01*
X181851200Y-122149000D01*
G37*
G36*
X181851200Y-114935400D02*
X181851200Y-115799000D01*
X182460800Y-115799000D01*
X182460800Y-114935400D01*
X181851200Y-114935400D01*
G37*
D14*
G04 #@! TO.C,R2*
X179489000Y-116053000D02*
G75*
G03X179235000Y-115799000I-254000J0D01*
G01*
X177203000Y-116053000D02*
G75*
G02X177457000Y-115799000I254000J0D01*
G01*
X177457000Y-122149000D02*
G75*
G02X177203000Y-121895000I0J254000D01*
G01*
X179235000Y-122149000D02*
G75*
G03X179489000Y-121895000I0J254000D01*
G01*
X177457000Y-115799000D02*
X179235000Y-115799000D01*
X179489000Y-116053000D02*
X179489000Y-116434000D01*
X179362000Y-116561000D02*
X179489000Y-116434000D01*
X177203000Y-116053000D02*
X177203000Y-116434000D01*
X177330000Y-116561000D02*
X177203000Y-116434000D01*
X179362000Y-121387000D02*
X179489000Y-121514000D01*
X179362000Y-121387000D02*
X179362000Y-116561000D01*
X177330000Y-121387000D02*
X177203000Y-121514000D01*
X177330000Y-121387000D02*
X177330000Y-116561000D01*
X179489000Y-121895000D02*
X179489000Y-121514000D01*
X177203000Y-121895000D02*
X177203000Y-121514000D01*
X177457000Y-122149000D02*
X179235000Y-122149000D01*
D15*
G36*
X178041200Y-122149000D02*
X178041200Y-123012600D01*
X178650800Y-123012600D01*
X178650800Y-122149000D01*
X178041200Y-122149000D01*
G37*
G36*
X178041200Y-114935400D02*
X178041200Y-115799000D01*
X178650800Y-115799000D01*
X178650800Y-114935400D01*
X178041200Y-114935400D01*
G37*
D14*
G04 #@! TO.C,SW2*
X147104000Y-123927000D02*
X156248000Y-123927000D01*
X156248000Y-114021000D02*
X147104000Y-114021000D01*
X147104000Y-114021000D02*
X147104000Y-117323000D01*
X147104000Y-120625000D02*
X147612000Y-120625000D01*
X147612000Y-120625000D02*
X147612000Y-117323000D01*
X147612000Y-117323000D02*
X147104000Y-117323000D01*
X147104000Y-120625000D02*
X147104000Y-123927000D01*
X147104000Y-117323000D02*
X147104000Y-120625000D01*
X156248000Y-123927000D02*
X156248000Y-120625000D01*
X156248000Y-117323000D02*
X155740000Y-117323000D01*
X155740000Y-117323000D02*
X155740000Y-120625000D01*
X155740000Y-120625000D02*
X156248000Y-120625000D01*
X156248000Y-117323000D02*
X156248000Y-114021000D01*
X156248000Y-120625000D02*
X156248000Y-117323000D01*
X153454000Y-117069000D02*
X153454000Y-120879000D01*
X153454000Y-117069000D02*
X154978000Y-117069000D01*
X154978000Y-120879000D02*
X154978000Y-117069000D01*
X154978000Y-120879000D02*
X153454000Y-120879000D01*
X150914000Y-117069000D02*
X150914000Y-120879000D01*
X150914000Y-117069000D02*
X152438000Y-117069000D01*
X152438000Y-120879000D02*
X152438000Y-117069000D01*
X152438000Y-120879000D02*
X150914000Y-120879000D01*
X148374000Y-117069000D02*
X148374000Y-120879000D01*
X148374000Y-117069000D02*
X149898000Y-117069000D01*
X149898000Y-120879000D02*
X149898000Y-117069000D01*
X149898000Y-120879000D02*
X148374000Y-120879000D01*
D15*
G36*
X153708000Y-119355000D02*
X154724000Y-119355000D01*
X154724000Y-118974000D01*
X153708000Y-118974000D01*
X153708000Y-119355000D01*
G37*
G36*
X153708000Y-119990000D02*
X154724000Y-119990000D01*
X154724000Y-119609000D01*
X153708000Y-119609000D01*
X153708000Y-119990000D01*
G37*
G36*
X153708000Y-120625000D02*
X154724000Y-120625000D01*
X154724000Y-120244000D01*
X153708000Y-120244000D01*
X153708000Y-120625000D01*
G37*
G36*
X151168000Y-119355000D02*
X152184000Y-119355000D01*
X152184000Y-118974000D01*
X151168000Y-118974000D01*
X151168000Y-119355000D01*
G37*
G36*
X151168000Y-119990000D02*
X152184000Y-119990000D01*
X152184000Y-119609000D01*
X151168000Y-119609000D01*
X151168000Y-119990000D01*
G37*
G36*
X151168000Y-120625000D02*
X152184000Y-120625000D01*
X152184000Y-120244000D01*
X151168000Y-120244000D01*
X151168000Y-120625000D01*
G37*
G36*
X148628000Y-119355000D02*
X149644000Y-119355000D01*
X149644000Y-118974000D01*
X148628000Y-118974000D01*
X148628000Y-119355000D01*
G37*
G36*
X148628000Y-119990000D02*
X149644000Y-119990000D01*
X149644000Y-119609000D01*
X148628000Y-119609000D01*
X148628000Y-119990000D01*
G37*
G36*
X148628000Y-120625000D02*
X149644000Y-120625000D01*
X149644000Y-120244000D01*
X148628000Y-120244000D01*
X148628000Y-120625000D01*
G37*
D14*
G04 #@! TO.C,R3*
X175679000Y-116053000D02*
G75*
G03X175425000Y-115799000I-254000J0D01*
G01*
X173393000Y-116053000D02*
G75*
G02X173647000Y-115799000I254000J0D01*
G01*
X173647000Y-122149000D02*
G75*
G02X173393000Y-121895000I0J254000D01*
G01*
X175425000Y-122149000D02*
G75*
G03X175679000Y-121895000I0J254000D01*
G01*
X173647000Y-115799000D02*
X175425000Y-115799000D01*
X175679000Y-116053000D02*
X175679000Y-116434000D01*
X175552000Y-116561000D02*
X175679000Y-116434000D01*
X173393000Y-116053000D02*
X173393000Y-116434000D01*
X173520000Y-116561000D02*
X173393000Y-116434000D01*
X175552000Y-121387000D02*
X175679000Y-121514000D01*
X175552000Y-121387000D02*
X175552000Y-116561000D01*
X173520000Y-121387000D02*
X173393000Y-121514000D01*
X173520000Y-121387000D02*
X173520000Y-116561000D01*
X175679000Y-121895000D02*
X175679000Y-121514000D01*
X173393000Y-121895000D02*
X173393000Y-121514000D01*
X173647000Y-122149000D02*
X175425000Y-122149000D01*
D15*
G36*
X174231200Y-122149000D02*
X174231200Y-123012600D01*
X174840800Y-123012600D01*
X174840800Y-122149000D01*
X174231200Y-122149000D01*
G37*
G36*
X174231200Y-114935400D02*
X174231200Y-115799000D01*
X174840800Y-115799000D01*
X174840800Y-114935400D01*
X174231200Y-114935400D01*
G37*
D16*
G04 #@! TO.C,SW1*
X134106000Y-123474000D02*
X134106000Y-114474000D01*
X134106000Y-114474000D02*
X130606000Y-114474000D01*
X130606000Y-114474000D02*
X130606000Y-123474000D01*
X130606000Y-123474000D02*
X134106000Y-123474000D01*
X131606000Y-118724000D02*
X131606000Y-117224000D01*
X131606000Y-117224000D02*
X133106000Y-117224000D01*
X133106000Y-117224000D02*
X133106000Y-118724000D01*
X131606000Y-117224000D02*
X131606000Y-120974000D01*
X131606000Y-120974000D02*
X133106000Y-120974000D01*
X133106000Y-120974000D02*
X133106000Y-117224000D01*
X133106000Y-117224000D02*
X131606000Y-117224000D01*
D15*
G36*
X132546500Y-121069500D02*
X132546500Y-120053500D01*
X132165500Y-120053500D01*
X132165500Y-121069500D01*
X132546500Y-121069500D01*
G37*
G36*
X132546500Y-120434500D02*
X132546500Y-119418500D01*
X132165500Y-119418500D01*
X132165500Y-120434500D01*
X132546500Y-120434500D01*
G37*
G36*
X132546500Y-119799500D02*
X132546500Y-118783500D01*
X132165500Y-118783500D01*
X132165500Y-119799500D01*
X132546500Y-119799500D01*
G37*
D14*
G04 #@! TO.C,R4*
X171869000Y-116053000D02*
G75*
G03X171615000Y-115799000I-254000J0D01*
G01*
X169583000Y-116053000D02*
G75*
G02X169837000Y-115799000I254000J0D01*
G01*
X169837000Y-122149000D02*
G75*
G02X169583000Y-121895000I0J254000D01*
G01*
X171615000Y-122149000D02*
G75*
G03X171869000Y-121895000I0J254000D01*
G01*
X169837000Y-115799000D02*
X171615000Y-115799000D01*
X171869000Y-116053000D02*
X171869000Y-116434000D01*
X171742000Y-116561000D02*
X171869000Y-116434000D01*
X169583000Y-116053000D02*
X169583000Y-116434000D01*
X169710000Y-116561000D02*
X169583000Y-116434000D01*
X171742000Y-121387000D02*
X171869000Y-121514000D01*
X171742000Y-121387000D02*
X171742000Y-116561000D01*
X169710000Y-121387000D02*
X169583000Y-121514000D01*
X169710000Y-121387000D02*
X169710000Y-116561000D01*
X171869000Y-121895000D02*
X171869000Y-121514000D01*
X169583000Y-121895000D02*
X169583000Y-121514000D01*
X169837000Y-122149000D02*
X171615000Y-122149000D01*
D15*
G36*
X170421200Y-122149000D02*
X170421200Y-123012600D01*
X171030800Y-123012600D01*
X171030800Y-122149000D01*
X170421200Y-122149000D01*
G37*
G36*
X170421200Y-114935400D02*
X170421200Y-115799000D01*
X171030800Y-115799000D01*
X171030800Y-114935400D01*
X170421200Y-114935400D01*
G37*
D14*
G04 #@! TO.C,R5*
X165773000Y-121895000D02*
G75*
G03X166027000Y-122149000I254000J0D01*
G01*
X168059000Y-121895000D02*
G75*
G02X167805000Y-122149000I-254000J0D01*
G01*
X167805000Y-115799000D02*
G75*
G02X168059000Y-116053000I0J-254000D01*
G01*
X166027000Y-115799000D02*
G75*
G03X165773000Y-116053000I0J-254000D01*
G01*
X167805000Y-122149000D02*
X166027000Y-122149000D01*
X165773000Y-121895000D02*
X165773000Y-121514000D01*
X165900000Y-121387000D02*
X165773000Y-121514000D01*
X168059000Y-121895000D02*
X168059000Y-121514000D01*
X167932000Y-121387000D02*
X168059000Y-121514000D01*
X165900000Y-116561000D02*
X165773000Y-116434000D01*
X165900000Y-116561000D02*
X165900000Y-121387000D01*
X167932000Y-116561000D02*
X168059000Y-116434000D01*
X167932000Y-116561000D02*
X167932000Y-121387000D01*
X165773000Y-116053000D02*
X165773000Y-116434000D01*
X168059000Y-116053000D02*
X168059000Y-116434000D01*
X167805000Y-115799000D02*
X166027000Y-115799000D01*
D15*
G36*
X167220800Y-115799000D02*
X167220800Y-114935400D01*
X166611200Y-114935400D01*
X166611200Y-115799000D01*
X167220800Y-115799000D01*
G37*
G36*
X167220800Y-123012600D02*
X167220800Y-122149000D01*
X166611200Y-122149000D01*
X166611200Y-123012600D01*
X167220800Y-123012600D01*
G37*
D16*
G04 #@! TO.C,Q1*
X163487000Y-121069000D02*
X163487000Y-116879000D01*
X160700098Y-116561001D02*
G75*
G03X160700100Y-121387000I1135910J-2412999D01*
G01*
X163487000Y-121069000D02*
G75*
G02X162971900Y-121387500I-1651107J2094505D01*
G01*
X161963000Y-120110000D02*
X161963000Y-120378000D01*
X161963000Y-117570000D02*
X161963000Y-117838000D01*
X162947800Y-116549300D02*
G75*
G02X163487000Y-116879000I-1111910J-2424208D01*
G01*
D17*
G04 #@! TO.C,ZX1*
X109426000Y-84803600D02*
G75*
G03X108426000Y-85803600I0J-1000000D01*
G01*
X109426000Y-84803600D02*
X183026000Y-84803600D01*
X184026000Y-85803600D02*
G75*
G03X183026000Y-84803600I-1000000J0D01*
G01*
X184026000Y-85803600D02*
X184026000Y-106423600D01*
X183026000Y-107423600D02*
G75*
G03X184026000Y-106423600I0J1000000D01*
G01*
X183026000Y-107423600D02*
X109426000Y-107423600D01*
X108426000Y-106423600D02*
G75*
G03X109426000Y-107423600I1000000J0D01*
G01*
X108426000Y-106423600D02*
X108426000Y-85803600D01*
D18*
X110766000Y-95803600D02*
X110766000Y-95263600D01*
X110996000Y-95033600D02*
G75*
G03X110766000Y-95263600I0J-230000D01*
G01*
X111226000Y-95263600D02*
G75*
G03X110996000Y-95033600I-230000J0D01*
G01*
X111226000Y-95263600D02*
X111226000Y-95813600D01*
D17*
X108536000Y-103823600D02*
X111786000Y-103823600D01*
X113786000Y-105773598D02*
G75*
G03X111786000Y-103823600I-1999959J-50601D01*
G01*
X113786000Y-105773600D02*
X113786000Y-106423600D01*
X114836002Y-107423599D02*
G75*
G02X113786000Y-106423600I-48811J1000000D01*
G01*
D18*
X110686000Y-96343600D02*
X110146000Y-96343600D01*
X109916000Y-96113600D02*
G75*
G03X110146000Y-96343600I230000J0D01*
G01*
X110146000Y-95883600D02*
G75*
G03X109916000Y-96113600I0J-230000D01*
G01*
X110146000Y-95883600D02*
X110696000Y-95883600D01*
X110766000Y-95813600D02*
G75*
G02X110696000Y-95883600I-70000J0D01*
G01*
X110686000Y-96343600D02*
G75*
G02X110756000Y-96413600I0J-70000D01*
G01*
X111226000Y-96423600D02*
X111226000Y-96963600D01*
X110996000Y-97193600D02*
G75*
G03X111226000Y-96963600I0J230000D01*
G01*
X110766000Y-96963600D02*
G75*
G03X110996000Y-97193600I230000J0D01*
G01*
X110766000Y-96963600D02*
X110766000Y-96413600D01*
X111306000Y-95883600D02*
X111846000Y-95883600D01*
X112076000Y-96113600D02*
G75*
G03X111846000Y-95883600I-230000J0D01*
G01*
X111846000Y-96343600D02*
G75*
G03X112076000Y-96113600I0J230000D01*
G01*
X111846000Y-96343600D02*
X111296000Y-96343600D01*
X111226000Y-96413600D02*
G75*
G02X111296000Y-96343600I70000J0D01*
G01*
X111296000Y-95883600D02*
G75*
G02X111226000Y-95813600I0J70000D01*
G01*
X182166000Y-95803600D02*
X182166000Y-95263600D01*
X182396000Y-95033600D02*
G75*
G03X182166000Y-95263600I0J-230000D01*
G01*
X182626000Y-95263600D02*
G75*
G03X182396000Y-95033600I-230000J0D01*
G01*
X182626000Y-95263600D02*
X182626000Y-95813600D01*
X182086000Y-96343600D02*
X181546000Y-96343600D01*
X181316000Y-96113600D02*
G75*
G03X181546000Y-96343600I230000J0D01*
G01*
X181546000Y-95883600D02*
G75*
G03X181316000Y-96113600I0J-230000D01*
G01*
X181546000Y-95883600D02*
X182096000Y-95883600D01*
X182166000Y-95813600D02*
G75*
G02X182096000Y-95883600I-70000J0D01*
G01*
X182086000Y-96343600D02*
G75*
G02X182156000Y-96413600I0J-70000D01*
G01*
X182626000Y-96423600D02*
X182626000Y-96963600D01*
X182396000Y-97193600D02*
G75*
G03X182626000Y-96963600I0J230000D01*
G01*
X182166000Y-96963600D02*
G75*
G03X182396000Y-97193600I230000J0D01*
G01*
X182166000Y-96963600D02*
X182166000Y-96413600D01*
X182706000Y-95883600D02*
X183246000Y-95883600D01*
X183476000Y-96113600D02*
G75*
G03X183246000Y-95883600I-230000J0D01*
G01*
X183246000Y-96343600D02*
G75*
G03X183476000Y-96113600I0J230000D01*
G01*
X183246000Y-96343600D02*
X182696000Y-96343600D01*
X182626000Y-96413600D02*
G75*
G02X182696000Y-96343600I70000J0D01*
G01*
X182696000Y-95883600D02*
G75*
G02X182626000Y-95813600I0J70000D01*
G01*
X112526000Y-96113600D02*
G75*
G03X112526000Y-96113600I-1530000J0D01*
G01*
D17*
X112257800Y-105923600D02*
G75*
G03X112257800Y-105923600I-2071800J0D01*
G01*
D18*
X183926000Y-96113600D02*
G75*
G03X183926000Y-96113600I-1530000J0D01*
G01*
G04 #@! TO.C,R1*
D19*
X181107947Y-123758679D02*
X180533423Y-124160846D01*
X181107947Y-124448108D02*
X179901447Y-124448108D01*
X179901447Y-123988489D01*
X179958900Y-123873584D01*
X180016352Y-123816132D01*
X180131257Y-123758679D01*
X180303614Y-123758679D01*
X180418519Y-123816132D01*
X180475971Y-123873584D01*
X180533423Y-123988489D01*
X180533423Y-124448108D01*
X181107947Y-122609632D02*
X181107947Y-123299060D01*
X181107947Y-122954346D02*
X179901447Y-122954346D01*
X180073804Y-123069251D01*
X180188709Y-123184155D01*
X180246161Y-123299060D01*
G04 #@! TO.C,R2*
X177297947Y-123758679D02*
X176723423Y-124160846D01*
X177297947Y-124448108D02*
X176091447Y-124448108D01*
X176091447Y-123988489D01*
X176148900Y-123873584D01*
X176206352Y-123816132D01*
X176321257Y-123758679D01*
X176493614Y-123758679D01*
X176608519Y-123816132D01*
X176665971Y-123873584D01*
X176723423Y-123988489D01*
X176723423Y-124448108D01*
X176206352Y-123299060D02*
X176148900Y-123241608D01*
X176091447Y-123126703D01*
X176091447Y-122839441D01*
X176148900Y-122724536D01*
X176206352Y-122667084D01*
X176321257Y-122609632D01*
X176436161Y-122609632D01*
X176608519Y-122667084D01*
X177297947Y-123356512D01*
X177297947Y-122609632D01*
G04 #@! TO.C,R3*
X173487947Y-123758679D02*
X172913423Y-124160846D01*
X173487947Y-124448108D02*
X172281447Y-124448108D01*
X172281447Y-123988489D01*
X172338900Y-123873584D01*
X172396352Y-123816132D01*
X172511257Y-123758679D01*
X172683614Y-123758679D01*
X172798519Y-123816132D01*
X172855971Y-123873584D01*
X172913423Y-123988489D01*
X172913423Y-124448108D01*
X172281447Y-123356512D02*
X172281447Y-122609632D01*
X172741066Y-123011798D01*
X172741066Y-122839441D01*
X172798519Y-122724536D01*
X172855971Y-122667084D01*
X172970876Y-122609632D01*
X173258138Y-122609632D01*
X173373042Y-122667084D01*
X173430495Y-122724536D01*
X173487947Y-122839441D01*
X173487947Y-123184155D01*
X173430495Y-123299060D01*
X173373042Y-123356512D01*
G04 #@! TO.C,R4*
X169677947Y-123758679D02*
X169103423Y-124160846D01*
X169677947Y-124448108D02*
X168471447Y-124448108D01*
X168471447Y-123988489D01*
X168528900Y-123873584D01*
X168586352Y-123816132D01*
X168701257Y-123758679D01*
X168873614Y-123758679D01*
X168988519Y-123816132D01*
X169045971Y-123873584D01*
X169103423Y-123988489D01*
X169103423Y-124448108D01*
X168873614Y-122724536D02*
X169677947Y-122724536D01*
X168413995Y-123011798D02*
X169275780Y-123299060D01*
X169275780Y-122552179D01*
G04 #@! TO.C,R5*
X165804447Y-123659287D02*
X165229923Y-124061453D01*
X165804447Y-124348715D02*
X164597947Y-124348715D01*
X164597947Y-123889096D01*
X164655400Y-123774191D01*
X164712852Y-123716739D01*
X164827757Y-123659287D01*
X165000114Y-123659287D01*
X165115019Y-123716739D01*
X165172471Y-123774191D01*
X165229923Y-123889096D01*
X165229923Y-124348715D01*
X164597947Y-122567691D02*
X164597947Y-123142215D01*
X165172471Y-123199667D01*
X165115019Y-123142215D01*
X165057566Y-123027310D01*
X165057566Y-122740048D01*
X165115019Y-122625144D01*
X165172471Y-122567691D01*
X165287376Y-122510239D01*
X165574638Y-122510239D01*
X165689542Y-122567691D01*
X165746995Y-122625144D01*
X165804447Y-122740048D01*
X165804447Y-123027310D01*
X165746995Y-123142215D01*
X165689542Y-123199667D01*
G04 #@! TO.C,Q1*
X160077352Y-123544382D02*
X160019900Y-123659287D01*
X159904995Y-123774191D01*
X159732638Y-123946548D01*
X159675185Y-124061453D01*
X159675185Y-124176358D01*
X159962447Y-124118906D02*
X159904995Y-124233810D01*
X159790090Y-124348715D01*
X159560280Y-124406167D01*
X159158114Y-124406167D01*
X158928304Y-124348715D01*
X158813400Y-124233810D01*
X158755947Y-124118906D01*
X158755947Y-123889096D01*
X158813400Y-123774191D01*
X158928304Y-123659287D01*
X159158114Y-123601834D01*
X159560280Y-123601834D01*
X159790090Y-123659287D01*
X159904995Y-123774191D01*
X159962447Y-123889096D01*
X159962447Y-124118906D01*
X159962447Y-122452787D02*
X159962447Y-123142215D01*
X159962447Y-122797501D02*
X158755947Y-122797501D01*
X158928304Y-122912406D01*
X159043209Y-123027310D01*
X159100661Y-123142215D01*
G04 #@! TD*
M02*
