G04 #@! TF.GenerationSoftware,KiCad,Pcbnew,(5.0.0)*
G04 #@! TF.CreationDate,2018-09-19T19:41:42-05:00*
G04 #@! TF.ProjectId,27C160_Adapter,3237433136305F416461707465722E6B,rev?*
G04 #@! TF.SameCoordinates,Original*
G04 #@! TF.FileFunction,Soldermask,Top*
G04 #@! TF.FilePolarity,Negative*
%FSLAX46Y46*%
G04 Gerber Fmt 4.6, Leading zero omitted, Abs format (unit mm)*
G04 Created by KiCad (PCBNEW (5.0.0)) date 09/19/18 19:41:42*
%MOMM*%
%LPD*%
G01*
G04 APERTURE LIST*
%ADD10O,1.500000X3.000000*%
%ADD11C,1.219200*%
%ADD12O,1.219200X2.438400*%
%ADD13C,1.676400*%
%ADD14O,2.438400X1.219200*%
G04 APERTURE END LIST*
D10*
G04 #@! TO.C,U1*
X130086000Y-109959000D03*
X132626000Y-109959000D03*
X135166000Y-109959000D03*
X137706000Y-109959000D03*
X140246000Y-109959000D03*
X142786000Y-109959000D03*
X145326000Y-109959000D03*
X147866000Y-109959000D03*
X150406000Y-109959000D03*
X152946000Y-109959000D03*
X155486000Y-109959000D03*
X158026000Y-109959000D03*
X160566000Y-109959000D03*
X163106000Y-109959000D03*
X165646000Y-109959000D03*
X168186000Y-109959000D03*
X170726000Y-109959000D03*
X173266000Y-109959000D03*
X175806000Y-109959000D03*
X178346000Y-109959000D03*
X178346000Y-94969000D03*
X175806000Y-94969000D03*
X173266000Y-94969000D03*
X170726000Y-94969000D03*
X168186000Y-94969000D03*
X165646000Y-94969000D03*
X163106000Y-94969000D03*
X160566000Y-94969000D03*
X158026000Y-94969000D03*
X155486000Y-94969000D03*
X152946000Y-94969000D03*
X150406000Y-94969000D03*
X147866000Y-94969000D03*
X145326000Y-94969000D03*
X142786000Y-94969000D03*
X140246000Y-94969000D03*
X137706000Y-94969000D03*
X135166000Y-94969000D03*
X132626000Y-94969000D03*
X130086000Y-94969000D03*
G04 #@! TD*
D11*
G04 #@! TO.C,R1*
X182156000Y-113894000D03*
X182156000Y-124054000D03*
G04 #@! TD*
G04 #@! TO.C,R2*
X178346000Y-113894000D03*
X178346000Y-124054000D03*
G04 #@! TD*
D12*
G04 #@! TO.C,SW2*
X149136000Y-122784000D03*
X151676000Y-122784000D03*
X154216000Y-122784000D03*
X154216000Y-115164000D03*
X149136000Y-115164000D03*
X151676000Y-115164000D03*
G04 #@! TD*
D11*
G04 #@! TO.C,R3*
X174536000Y-113894000D03*
X174536000Y-124054000D03*
G04 #@! TD*
D13*
G04 #@! TO.C,SW1*
X131086000Y-118974000D03*
X133626000Y-118974000D03*
X131086000Y-121514000D03*
X131086000Y-116434000D03*
X133626000Y-121514000D03*
X133626000Y-116434000D03*
G04 #@! TD*
D11*
G04 #@! TO.C,R4*
X170726000Y-113894000D03*
X170726000Y-124054000D03*
G04 #@! TD*
G04 #@! TO.C,R5*
X166916000Y-124054000D03*
X166916000Y-113894000D03*
G04 #@! TD*
D14*
G04 #@! TO.C,Q1*
X161836000Y-121514000D03*
X161836000Y-116434000D03*
X161836000Y-118974000D03*
G04 #@! TD*
D10*
G04 #@! TO.C,ZX1*
X118021000Y-103733600D03*
X120561000Y-103733600D03*
X123101000Y-103733600D03*
X125641000Y-103733600D03*
X128181000Y-103733600D03*
X130721000Y-103733600D03*
X133261000Y-103733600D03*
X135801000Y-103733600D03*
X138341000Y-103733600D03*
X140881000Y-103733600D03*
X143421000Y-103733600D03*
X145961000Y-103733600D03*
X148501000Y-103733600D03*
X151041000Y-103733600D03*
X153581000Y-103733600D03*
X156121000Y-103733600D03*
X158661000Y-103733600D03*
X161201000Y-103733600D03*
X163741000Y-103733600D03*
X166281000Y-103733600D03*
X168821000Y-103733600D03*
X171361000Y-103733600D03*
X173901000Y-103733600D03*
X176441000Y-103733600D03*
X176441000Y-88493600D03*
X173901000Y-88493600D03*
X171361000Y-88493600D03*
X168821000Y-88493600D03*
X166281000Y-88493600D03*
X163741000Y-88493600D03*
X161201000Y-88493600D03*
X158661000Y-88493600D03*
X156121000Y-88493600D03*
X153581000Y-88493600D03*
X151041000Y-88493600D03*
X148501000Y-88493600D03*
X145961000Y-88493600D03*
X143421000Y-88493600D03*
X140881000Y-88493600D03*
X138341000Y-88493600D03*
X135801000Y-88493600D03*
X133261000Y-88493600D03*
X130721000Y-88493600D03*
X128181000Y-88493600D03*
X125641000Y-88493600D03*
X123101000Y-88493600D03*
X120561000Y-88493600D03*
X118021000Y-88493600D03*
G04 #@! TD*
M02*
