M48
;DRILL file {KiCad (5.0.0)} date 09/19/18 19:41:48
;FORMAT={3:3/ absolute / metric / suppress leading zeros}
FMAT,2
METRIC,TZ
T1C0.400
T2C0.813
T3C1.000
%
G90
G05
M71
T1
X149545Y-97372
X154897Y-107025
T2
X161836Y-116434
X161836Y-118974
X161836Y-121514
X149136Y-115164
X149136Y-122784
X151676Y-115164
X151676Y-122784
X154216Y-115164
X154216Y-122784
X170726Y-113894
X170726Y-124054
X174536Y-113894
X174536Y-124054
X178346Y-113894
X178346Y-124054
X166916Y-113894
X166916Y-124054
X182156Y-113894
X182156Y-124054
T3
X118021Y-88494
X118021Y-103734
X120561Y-88494
X120561Y-103734
X123101Y-88494
X123101Y-103734
X125641Y-88494
X125641Y-103734
X128181Y-88494
X128181Y-103734
X130721Y-88494
X130721Y-103734
X133261Y-88494
X133261Y-103734
X135801Y-88494
X135801Y-103734
X138341Y-88494
X138341Y-103734
X140881Y-88494
X140881Y-103734
X143421Y-88494
X143421Y-103734
X145961Y-88494
X145961Y-103734
X148501Y-88494
X148501Y-103734
X151041Y-88494
X151041Y-103734
X153581Y-88494
X153581Y-103734
X156121Y-88494
X156121Y-103734
X158661Y-88494
X158661Y-103734
X161201Y-88494
X161201Y-103734
X163741Y-88494
X163741Y-103734
X166281Y-88494
X166281Y-103734
X168821Y-88494
X168821Y-103734
X171361Y-88494
X171361Y-103734
X173901Y-88494
X173901Y-103734
X176441Y-88494
X176441Y-103734
X131086Y-116434
X131086Y-118974
X131086Y-121514
X133626Y-116434
X133626Y-118974
X133626Y-121514
X130086Y-94969
X130086Y-109959
X132626Y-94969
X132626Y-109959
X135166Y-94969
X135166Y-109959
X137706Y-94969
X137706Y-109959
X140246Y-94969
X140246Y-109959
X142786Y-94969
X142786Y-109959
X145326Y-94969
X145326Y-109959
X147866Y-94969
X147866Y-109959
X150406Y-94969
X150406Y-109959
X152946Y-94969
X152946Y-109959
X155486Y-94969
X155486Y-109959
X158026Y-94969
X158026Y-109959
X160566Y-94969
X160566Y-109959
X163106Y-94969
X163106Y-109959
X165646Y-94969
X165646Y-109959
X168186Y-94969
X168186Y-109959
X170726Y-94969
X170726Y-109959
X173266Y-94969
X173266Y-109959
X175806Y-94969
X175806Y-109959
X178346Y-94969
X178346Y-109959
T0
M30
