%TF.GenerationSoftware,KiCad,Pcbnew,7.0.8*%
%TF.CreationDate,2023-11-23T12:11:22-06:00*%
%TF.ProjectId,27C160_Adapter,32374331-3630-45f4-9164-61707465722e,rev?*%
%TF.SameCoordinates,Original*%
%TF.FileFunction,Copper,L1,Top*%
%TF.FilePolarity,Positive*%
%FSLAX46Y46*%
G04 Gerber Fmt 4.6, Leading zero omitted, Abs format (unit mm)*
G04 Created by KiCad (PCBNEW 7.0.8) date 2023-11-23 12:11:22*
%MOMM*%
%LPD*%
G01*
G04 APERTURE LIST*
%TA.AperFunction,ComponentPad*%
%ADD10O,1.506220X3.014980*%
%TD*%
%TA.AperFunction,ComponentPad*%
%ADD11C,1.320800*%
%TD*%
%TA.AperFunction,ComponentPad*%
%ADD12O,1.320800X2.641600*%
%TD*%
%TA.AperFunction,ComponentPad*%
%ADD13C,1.676400*%
%TD*%
%TA.AperFunction,ComponentPad*%
%ADD14O,2.641600X1.320800*%
%TD*%
%TA.AperFunction,ViaPad*%
%ADD15C,0.685800*%
%TD*%
%TA.AperFunction,Conductor*%
%ADD16C,0.254000*%
%TD*%
G04 APERTURE END LIST*
D10*
%TO.P,U1,40,VCC*%
%TO.N,VCC*%
X132830000Y-94950000D03*
%TO.P,U1,39,A17*%
%TO.N,/A17*%
X135370000Y-94950000D03*
%TO.P,U1,38,A16*%
%TO.N,/A16*%
X137910000Y-94950000D03*
%TO.P,U1,37,A15*%
%TO.N,/A15*%
X140450000Y-94950000D03*
%TO.P,U1,36,A14*%
%TO.N,/A14*%
X142990000Y-94950000D03*
%TO.P,U1,35,A13*%
%TO.N,/A13*%
X145530000Y-94950000D03*
%TO.P,U1,34,A12*%
%TO.N,/A12*%
X148070000Y-94950000D03*
%TO.P,U1,33,A11*%
%TO.N,/A11*%
X150610000Y-94950000D03*
%TO.P,U1,32,A10*%
%TO.N,/A10*%
X153150000Y-94950000D03*
%TO.P,U1,31,A9*%
%TO.N,/A9*%
X155690000Y-94950000D03*
%TO.P,U1,30,GND*%
%TO.N,GND*%
X158230000Y-94950000D03*
%TO.P,U1,29,A8*%
%TO.N,/A8*%
X160770000Y-94950000D03*
%TO.P,U1,28,A7*%
%TO.N,/A7*%
X163310000Y-94950000D03*
%TO.P,U1,27,A6*%
%TO.N,/A6*%
X165850000Y-94950000D03*
%TO.P,U1,26,A5*%
%TO.N,/A5*%
X168390000Y-94950000D03*
%TO.P,U1,25,A4*%
%TO.N,/A4*%
X170930000Y-94950000D03*
%TO.P,U1,24,A3*%
%TO.N,/A3*%
X173470000Y-94950000D03*
%TO.P,U1,23,A2*%
%TO.N,/A2*%
X176010000Y-94950000D03*
%TO.P,U1,22,A1*%
%TO.N,/A1*%
X178550000Y-94950000D03*
%TO.P,U1,21,A0*%
%TO.N,/A0*%
X181090000Y-94950000D03*
%TO.P,U1,20,/G*%
%TO.N,/N$5*%
X181090000Y-109936000D03*
%TO.P,U1,19,D0*%
%TO.N,/D0*%
X178550000Y-109936000D03*
%TO.P,U1,18,D1*%
%TO.N,/D1*%
X176010000Y-109936000D03*
%TO.P,U1,17,D2*%
%TO.N,/D2*%
X173470000Y-109936000D03*
%TO.P,U1,16,D3*%
%TO.N,/D3*%
X170930000Y-109936000D03*
%TO.P,U1,15,D4*%
%TO.N,/D4*%
X168390000Y-109936000D03*
%TO.P,U1,14,D5*%
%TO.N,/D5*%
X165850000Y-109936000D03*
%TO.P,U1,13,D6*%
%TO.N,/D6*%
X163310000Y-109936000D03*
%TO.P,U1,12,D7*%
%TO.N,/D7*%
X160770000Y-109936000D03*
%TO.P,U1,11,GND*%
%TO.N,GND*%
X158230000Y-109936000D03*
%TO.P,U1,10,D8*%
%TO.N,/D8*%
X155690000Y-109936000D03*
%TO.P,U1,9,D9*%
%TO.N,/D9*%
X153150000Y-109936000D03*
%TO.P,U1,8,D10*%
%TO.N,/D10*%
X150610000Y-109936000D03*
%TO.P,U1,7,D11*%
%TO.N,/D11*%
X148070000Y-109936000D03*
%TO.P,U1,6,D12*%
%TO.N,/D12*%
X145530000Y-109936000D03*
%TO.P,U1,5,D13*%
%TO.N,/D13*%
X142990000Y-109936000D03*
%TO.P,U1,4,D14*%
%TO.N,/D14*%
X140450000Y-109936000D03*
%TO.P,U1,3,D15*%
%TO.N,/D15*%
X137910000Y-109936000D03*
%TO.P,U1,2,/CE*%
%TO.N,/E*%
X135370000Y-109936000D03*
%TO.P,U1,1,VPP*%
%TO.N,/VPP*%
X132830000Y-109936000D03*
%TD*%
D11*
%TO.P,R1,1,1*%
%TO.N,/A20*%
X182156000Y-124054000D03*
%TO.P,R1,2,2*%
%TO.N,VCC*%
X182156000Y-113894000D03*
%TD*%
%TO.P,R2,1,1*%
%TO.N,/A19*%
X178346000Y-124054000D03*
%TO.P,R2,2,2*%
%TO.N,VCC*%
X178346000Y-113894000D03*
%TD*%
D12*
%TO.P,SW2,1,1*%
%TO.N,GND*%
X149136000Y-122784000D03*
%TO.P,SW2,2,2*%
X151676000Y-122784000D03*
%TO.P,SW2,3,3*%
X154216000Y-122784000D03*
%TO.P,SW2,4,4*%
%TO.N,/A20*%
X154216000Y-115164000D03*
%TO.P,SW2,5,5*%
%TO.N,/A19*%
X151676000Y-115164000D03*
%TO.P,SW2,6,6*%
%TO.N,/A18*%
X149136000Y-115164000D03*
%TD*%
D11*
%TO.P,R3,1,1*%
%TO.N,/A18*%
X174536000Y-124054000D03*
%TO.P,R3,2,2*%
%TO.N,VCC*%
X174536000Y-113894000D03*
%TD*%
D13*
%TO.P,SW1,1,O*%
%TO.N,/VPP*%
X131086000Y-121514000D03*
%TO.P,SW1,2,P*%
%TO.N,/N$2*%
X131086000Y-118974000D03*
%TO.P,SW1,3,S*%
%TO.N,/A20*%
X131086000Y-116434000D03*
%TO.P,SW1,4,O1*%
%TO.N,/N$5*%
X133626000Y-121514000D03*
%TO.P,SW1,5,P1*%
%TO.N,/N$6*%
X133626000Y-118974000D03*
%TO.P,SW1,6,S1*%
%TO.N,/N$4*%
X133626000Y-116434000D03*
%TD*%
D11*
%TO.P,R4,1,1*%
%TO.N,GND*%
X170726000Y-124054000D03*
%TO.P,R4,2,2*%
%TO.N,/N$4*%
X170726000Y-113894000D03*
%TD*%
%TO.P,R5,1,1*%
%TO.N,VCC*%
X166916000Y-124054000D03*
%TO.P,R5,2,2*%
%TO.N,/N$1*%
X166916000Y-113894000D03*
%TD*%
D14*
%TO.P,Q1,B,B*%
%TO.N,/N$1*%
X161836000Y-118974000D03*
%TO.P,Q1,C,C*%
%TO.N,/N$4*%
X161836000Y-121514000D03*
%TO.P,Q1,E,E*%
%TO.N,/VPP*%
X161836000Y-116434000D03*
%TD*%
D10*
%TO.P,ZX1,48,48*%
%TO.N,unconnected-(ZX1-Pad48)*%
X118021000Y-88493600D03*
%TO.P,ZX1,47,47*%
%TO.N,unconnected-(ZX1-Pad47)*%
X120561000Y-88493600D03*
%TO.P,ZX1,46,46*%
%TO.N,unconnected-(ZX1-Pad46)*%
X123101000Y-88493600D03*
%TO.P,ZX1,45,45*%
%TO.N,/A19*%
X125641000Y-88493600D03*
%TO.P,ZX1,44,44*%
%TO.N,/A8*%
X128181000Y-88493600D03*
%TO.P,ZX1,43,43*%
%TO.N,/A9*%
X130721000Y-88493600D03*
%TO.P,ZX1,42,42*%
%TO.N,/A10*%
X133261000Y-88493600D03*
%TO.P,ZX1,41,41*%
%TO.N,/A11*%
X135801000Y-88493600D03*
%TO.P,ZX1,40,40*%
%TO.N,/A12*%
X138341000Y-88493600D03*
%TO.P,ZX1,39,39*%
%TO.N,/A13*%
X140881000Y-88493600D03*
%TO.P,ZX1,38,38*%
%TO.N,/A14*%
X143421000Y-88493600D03*
%TO.P,ZX1,37,37*%
%TO.N,/A15*%
X145961000Y-88493600D03*
%TO.P,ZX1,36,36*%
%TO.N,/A16*%
X148501000Y-88493600D03*
%TO.P,ZX1,35,35*%
%TO.N,/N$2*%
X151041000Y-88493600D03*
%TO.P,ZX1,34,34*%
%TO.N,GND*%
X153581000Y-88493600D03*
%TO.P,ZX1,33,33*%
%TO.N,/D15*%
X156121000Y-88493600D03*
%TO.P,ZX1,32,32*%
%TO.N,/D7*%
X158661000Y-88493600D03*
%TO.P,ZX1,31,31*%
%TO.N,/D14*%
X161201000Y-88493600D03*
%TO.P,ZX1,30,30*%
%TO.N,/D6*%
X163741000Y-88493600D03*
%TO.P,ZX1,29,29*%
%TO.N,/D13*%
X166281000Y-88493600D03*
%TO.P,ZX1,28,28*%
%TO.N,/D5*%
X168821000Y-88493600D03*
%TO.P,ZX1,27,27*%
%TO.N,/D12*%
X171361000Y-88493600D03*
%TO.P,ZX1,26,26*%
%TO.N,/D4*%
X173901000Y-88493600D03*
%TO.P,ZX1,25,25*%
%TO.N,VCC*%
X176441000Y-88493600D03*
%TO.P,ZX1,24,24*%
%TO.N,/D11*%
X176441000Y-103733600D03*
%TO.P,ZX1,23,23*%
%TO.N,/D3*%
X173901000Y-103733600D03*
%TO.P,ZX1,22,22*%
%TO.N,/D10*%
X171361000Y-103733600D03*
%TO.P,ZX1,21,21*%
%TO.N,/D2*%
X168821000Y-103733600D03*
%TO.P,ZX1,20,20*%
%TO.N,/D9*%
X166281000Y-103733600D03*
%TO.P,ZX1,19,19*%
%TO.N,/D1*%
X163741000Y-103733600D03*
%TO.P,ZX1,18,18*%
%TO.N,/D8*%
X161201000Y-103733600D03*
%TO.P,ZX1,17,17*%
%TO.N,/D0*%
X158661000Y-103733600D03*
%TO.P,ZX1,16,16*%
%TO.N,/N$6*%
X156121000Y-103733600D03*
%TO.P,ZX1,15,15*%
%TO.N,GND*%
X153581000Y-103733600D03*
%TO.P,ZX1,14,14*%
%TO.N,/E*%
X151041000Y-103733600D03*
%TO.P,ZX1,13,13*%
%TO.N,/A0*%
X148501000Y-103733600D03*
%TO.P,ZX1,12,12*%
%TO.N,/A1*%
X145961000Y-103733600D03*
%TO.P,ZX1,11,11*%
%TO.N,/A2*%
X143421000Y-103733600D03*
%TO.P,ZX1,10,10*%
%TO.N,/A3*%
X140881000Y-103733600D03*
%TO.P,ZX1,9,9*%
%TO.N,/A4*%
X138341000Y-103733600D03*
%TO.P,ZX1,8,8*%
%TO.N,/A5*%
X135801000Y-103733600D03*
%TO.P,ZX1,7,7*%
%TO.N,/A6*%
X133261000Y-103733600D03*
%TO.P,ZX1,6,6*%
%TO.N,/A7*%
X130721000Y-103733600D03*
%TO.P,ZX1,5,5*%
%TO.N,/A17*%
X128181000Y-103733600D03*
%TO.P,ZX1,4,4*%
%TO.N,/A18*%
X125641000Y-103733600D03*
%TO.P,ZX1,3,3*%
%TO.N,unconnected-(ZX1-Pad3)*%
X123101000Y-103733600D03*
%TO.P,ZX1,2,2*%
%TO.N,unconnected-(ZX1-Pad2)*%
X120561000Y-103733600D03*
%TO.P,ZX1,1,1*%
%TO.N,unconnected-(ZX1-Pad1)*%
X118021000Y-103733600D03*
%TD*%
D15*
%TO.N,/A16*%
X138651900Y-91556000D03*
%TO.N,/D12*%
X156445500Y-92305700D03*
%TO.N,/D13*%
X151611000Y-91722900D03*
%TO.N,/D14*%
X154414600Y-92486500D03*
%TO.N,/D15*%
X139472400Y-92375500D03*
%TD*%
D16*
%TO.N,/A17*%
X128476800Y-101843200D02*
X135370000Y-94950000D01*
X128181000Y-101843200D02*
X128476800Y-101843200D01*
X128181000Y-103733600D02*
X128181000Y-101843200D01*
%TO.N,/A16*%
X148501000Y-88493600D02*
X148501000Y-90384000D01*
X139823900Y-90384000D02*
X138651900Y-91556000D01*
X148501000Y-90384000D02*
X139823900Y-90384000D01*
%TO.N,/A7*%
X130721000Y-103733600D02*
X130721000Y-101843200D01*
X163310000Y-94950000D02*
X163310000Y-96840400D01*
X135723800Y-96840400D02*
X163310000Y-96840400D01*
X130721000Y-101843200D02*
X135723800Y-96840400D01*
%TO.N,/A6*%
X165850000Y-94950000D02*
X165850000Y-96840400D01*
X133261000Y-103733600D02*
X133261000Y-101843200D01*
X137341700Y-97762500D02*
X133261000Y-101843200D01*
X164927900Y-97762500D02*
X137341700Y-97762500D01*
X165850000Y-96840400D02*
X164927900Y-97762500D01*
%TO.N,/A5*%
X168390000Y-94950000D02*
X168390000Y-96840400D01*
X135801000Y-103733600D02*
X135801000Y-101843200D01*
X139371800Y-98272400D02*
X135801000Y-101843200D01*
X166958000Y-98272400D02*
X139371800Y-98272400D01*
X168390000Y-96840400D02*
X166958000Y-98272400D01*
%TO.N,/A4*%
X170930000Y-94950000D02*
X170930000Y-96840400D01*
X138341000Y-103733600D02*
X138341000Y-101843200D01*
X141401900Y-98782300D02*
X138341000Y-101843200D01*
X168988100Y-98782300D02*
X141401900Y-98782300D01*
X170930000Y-96840400D02*
X168988100Y-98782300D01*
%TO.N,/A3*%
X171018200Y-99292200D02*
X173470000Y-96840400D01*
X143432000Y-99292200D02*
X171018200Y-99292200D01*
X140881000Y-101843200D02*
X143432000Y-99292200D01*
X140881000Y-103733600D02*
X140881000Y-101843200D01*
X173470000Y-94950000D02*
X173470000Y-96840400D01*
%TO.N,/A2*%
X176010000Y-94950000D02*
X176010000Y-96840400D01*
X143421000Y-103733600D02*
X143421000Y-101843200D01*
X173048200Y-99802200D02*
X176010000Y-96840400D01*
X145462000Y-99802200D02*
X173048200Y-99802200D01*
X143421000Y-101843200D02*
X145462000Y-99802200D01*
%TO.N,/A1*%
X178550000Y-94950000D02*
X178550000Y-96840400D01*
X145961000Y-103733600D02*
X145961000Y-101843200D01*
X175076900Y-100313500D02*
X178550000Y-96840400D01*
X147490700Y-100313500D02*
X175076900Y-100313500D01*
X145961000Y-101843200D02*
X147490700Y-100313500D01*
%TO.N,/A0*%
X181090000Y-94950000D02*
X181090000Y-96840400D01*
X148501000Y-103733600D02*
X148501000Y-101843200D01*
X177107000Y-100823400D02*
X181090000Y-96840400D01*
X149520800Y-100823400D02*
X177107000Y-100823400D01*
X148501000Y-101843200D02*
X149520800Y-100823400D01*
%TO.N,/D0*%
X176019300Y-107405300D02*
X178550000Y-109936000D01*
X160442300Y-107405300D02*
X176019300Y-107405300D01*
X158661000Y-105624000D02*
X160442300Y-107405300D01*
X158661000Y-103733600D02*
X158661000Y-105624000D01*
%TO.N,/D1*%
X179050200Y-111826400D02*
X176010000Y-111826400D01*
X179712300Y-111164300D02*
X179050200Y-111826400D01*
X179712300Y-108710300D02*
X179712300Y-111164300D01*
X176626000Y-105624000D02*
X179712300Y-108710300D01*
X163741000Y-105624000D02*
X176626000Y-105624000D01*
X163741000Y-103733600D02*
X163741000Y-105624000D01*
X176010000Y-109936000D02*
X176010000Y-111826400D01*
%TO.N,/D10*%
X153900500Y-106645500D02*
X150610000Y-109936000D01*
X155630000Y-106645500D02*
X153900500Y-106645500D01*
X157446200Y-104829300D02*
X155630000Y-106645500D01*
X157446200Y-102529700D02*
X157446200Y-104829300D01*
X158132700Y-101843200D02*
X157446200Y-102529700D01*
X171361000Y-101843200D02*
X158132700Y-101843200D01*
X171361000Y-103733600D02*
X171361000Y-101843200D01*
%TO.N,/D11*%
X176441000Y-103733600D02*
X176441000Y-101843200D01*
X148070000Y-109936000D02*
X148070000Y-108045600D01*
X175931100Y-101333300D02*
X176441000Y-101843200D01*
X156107400Y-101333300D02*
X175931100Y-101333300D01*
X154851000Y-102589700D02*
X156107400Y-101333300D01*
X154851000Y-104880900D02*
X154851000Y-102589700D01*
X151686300Y-108045600D02*
X154851000Y-104880900D01*
X148070000Y-108045600D02*
X151686300Y-108045600D01*
%TO.N,/D12*%
X171361000Y-88493600D02*
X171361000Y-90384000D01*
X169439300Y-92305700D02*
X156445500Y-92305700D01*
X171361000Y-90384000D02*
X169439300Y-92305700D01*
%TO.N,/D13*%
X166281000Y-88493600D02*
X166281000Y-86603200D01*
X152765900Y-91722900D02*
X151611000Y-91722900D01*
X154851000Y-89637800D02*
X152765900Y-91722900D01*
X154851000Y-87389600D02*
X154851000Y-89637800D01*
X155637400Y-86603200D02*
X154851000Y-87389600D01*
X166281000Y-86603200D02*
X155637400Y-86603200D01*
%TO.N,/D14*%
X156517100Y-90384000D02*
X154414600Y-92486500D01*
X161201000Y-90384000D02*
X156517100Y-90384000D01*
X161201000Y-88493600D02*
X161201000Y-90384000D01*
%TO.N,/D15*%
X156121000Y-89114000D02*
X156121000Y-88493600D01*
X152734800Y-92500200D02*
X156121000Y-89114000D01*
X139597100Y-92500200D02*
X152734800Y-92500200D01*
X139472400Y-92375500D02*
X139597100Y-92500200D01*
%TO.N,/E*%
X137791600Y-105624000D02*
X135370000Y-108045600D01*
X151041000Y-105624000D02*
X137791600Y-105624000D01*
X151041000Y-103733600D02*
X151041000Y-105624000D01*
X135370000Y-109936000D02*
X135370000Y-108045600D01*
%TO.N,/N$5*%
X181644000Y-111826400D02*
X181090000Y-111826400D01*
X183239300Y-113421700D02*
X181644000Y-111826400D01*
X183239300Y-124482000D02*
X183239300Y-113421700D01*
X182616800Y-125104500D02*
X183239300Y-124482000D01*
X137216500Y-125104500D02*
X182616800Y-125104500D01*
X133626000Y-121514000D02*
X137216500Y-125104500D01*
X181090000Y-109936000D02*
X181090000Y-111826400D01*
%TO.N,/A18*%
X125641000Y-103733600D02*
X125641000Y-105624000D01*
X149136000Y-115164000D02*
X149136000Y-113460300D01*
X133238600Y-113460300D02*
X149136000Y-113460300D01*
X125641000Y-105862700D02*
X133238600Y-113460300D01*
X125641000Y-105624000D02*
X125641000Y-105862700D01*
%TO.N,/A19*%
X150711100Y-112495400D02*
X151676000Y-113460300D01*
X133012700Y-112495400D02*
X150711100Y-112495400D01*
X126777000Y-106259700D02*
X133012700Y-112495400D01*
X126777000Y-91520000D02*
X126777000Y-106259700D01*
X125641000Y-90384000D02*
X126777000Y-91520000D01*
X125641000Y-88493600D02*
X125641000Y-90384000D01*
X151676000Y-115164000D02*
X151676000Y-113460300D01*
%TO.N,/A20*%
X154216000Y-115164000D02*
X154216000Y-116867700D01*
X155052300Y-117704000D02*
X154216000Y-116867700D01*
X175806000Y-117704000D02*
X155052300Y-117704000D01*
X182156000Y-124054000D02*
X175806000Y-117704000D01*
X145853700Y-116867700D02*
X154216000Y-116867700D01*
X144173900Y-115187900D02*
X145853700Y-116867700D01*
X132332100Y-115187900D02*
X144173900Y-115187900D01*
X131086000Y-116434000D02*
X132332100Y-115187900D01*
%TO.N,/VPP*%
X134784100Y-111890100D02*
X132830000Y-109936000D01*
X158335400Y-111890100D02*
X134784100Y-111890100D01*
X161836000Y-115390700D02*
X158335400Y-111890100D01*
X161836000Y-116434000D02*
X161836000Y-115390700D01*
%TO.N,/N$4*%
X137714900Y-120522900D02*
X133626000Y-116434000D01*
X159141200Y-120522900D02*
X137714900Y-120522900D01*
X160132300Y-121514000D02*
X159141200Y-120522900D01*
X161836000Y-121514000D02*
X160132300Y-121514000D01*
%TO.N,VCC*%
X174536000Y-113894000D02*
X178346000Y-113894000D01*
X132830000Y-94950000D02*
X132830000Y-93059600D01*
X176441000Y-88493600D02*
X176441000Y-90384000D01*
X173765400Y-93059600D02*
X176441000Y-90384000D01*
X154868000Y-93059600D02*
X173765400Y-93059600D01*
X154715300Y-93212300D02*
X154868000Y-93059600D01*
X154114000Y-93212300D02*
X154715300Y-93212300D01*
X153961300Y-93059600D02*
X154114000Y-93212300D01*
X139814800Y-93059600D02*
X153961300Y-93059600D01*
X139773100Y-93101300D02*
X139814800Y-93059600D01*
X139171800Y-93101300D02*
X139773100Y-93101300D01*
X139130100Y-93059600D02*
X139171800Y-93101300D01*
X132830000Y-93059600D02*
X139130100Y-93059600D01*
%TO.N,GND*%
X149136000Y-122784000D02*
X149136000Y-124487700D01*
X151676000Y-123209900D02*
X154216000Y-123209900D01*
X151676000Y-122784000D02*
X151676000Y-123209900D01*
X151676000Y-123209900D02*
X151676000Y-123635800D01*
X150824100Y-124487700D02*
X149136000Y-124487700D01*
X151676000Y-123635800D02*
X150824100Y-124487700D01*
X154216000Y-122784000D02*
X154216000Y-122996900D01*
X154216000Y-122996900D02*
X154216000Y-123209900D01*
X169668900Y-122996900D02*
X170726000Y-124054000D01*
X154216000Y-122996900D02*
X169668900Y-122996900D01*
%TD*%
%TA.AperFunction,Conductor*%
%TO.N,GND*%
G36*
X151284673Y-122911150D02*
G01*
X151343117Y-123025854D01*
X151434146Y-123116883D01*
X151548850Y-123175327D01*
X151626005Y-123187547D01*
X150715507Y-124098044D01*
X150814781Y-124229507D01*
X150973706Y-124374385D01*
X150973708Y-124374387D01*
X151156544Y-124487594D01*
X151157361Y-124488001D01*
X151157682Y-124488298D01*
X151161423Y-124490615D01*
X151160969Y-124491346D01*
X151208597Y-124535506D01*
X151226016Y-124603169D01*
X151204088Y-124669509D01*
X151149776Y-124713463D01*
X151102086Y-124723000D01*
X149709914Y-124723000D01*
X149642875Y-124703315D01*
X149597120Y-124650511D01*
X149587176Y-124581353D01*
X149616201Y-124517797D01*
X149650800Y-124490976D01*
X149650577Y-124490615D01*
X149654004Y-124488492D01*
X149654639Y-124488001D01*
X149655455Y-124487594D01*
X149838291Y-124374387D01*
X149838293Y-124374385D01*
X149997220Y-124229505D01*
X149997220Y-124229504D01*
X150096491Y-124098044D01*
X149185994Y-123187547D01*
X149263150Y-123175327D01*
X149377854Y-123116883D01*
X149468883Y-123025854D01*
X149527327Y-122911150D01*
X149539547Y-122833995D01*
X150288527Y-123582975D01*
X150327905Y-123568758D01*
X150365114Y-123542104D01*
X150434895Y-123538584D01*
X150493282Y-123572076D01*
X150523469Y-123582976D01*
X151272452Y-122833994D01*
X151284673Y-122911150D01*
G37*
%TD.AperFunction*%
%TA.AperFunction,Conductor*%
G36*
X153824673Y-122911150D02*
G01*
X153883117Y-123025854D01*
X153974146Y-123116883D01*
X154088850Y-123175327D01*
X154166005Y-123187547D01*
X153255507Y-124098044D01*
X153354781Y-124229507D01*
X153513706Y-124374385D01*
X153513708Y-124374387D01*
X153696544Y-124487594D01*
X153697361Y-124488001D01*
X153697682Y-124488298D01*
X153701423Y-124490615D01*
X153700969Y-124491346D01*
X153748597Y-124535506D01*
X153766016Y-124603169D01*
X153744088Y-124669509D01*
X153689776Y-124713463D01*
X153642086Y-124723000D01*
X152249914Y-124723000D01*
X152182875Y-124703315D01*
X152137120Y-124650511D01*
X152127176Y-124581353D01*
X152156201Y-124517797D01*
X152190800Y-124490976D01*
X152190577Y-124490615D01*
X152194004Y-124488492D01*
X152194639Y-124488001D01*
X152195455Y-124487594D01*
X152378291Y-124374387D01*
X152378293Y-124374385D01*
X152537220Y-124229505D01*
X152537220Y-124229504D01*
X152636491Y-124098044D01*
X151725994Y-123187547D01*
X151803150Y-123175327D01*
X151917854Y-123116883D01*
X152008883Y-123025854D01*
X152067327Y-122911150D01*
X152079547Y-122833995D01*
X152828527Y-123582975D01*
X152867905Y-123568758D01*
X152905114Y-123542104D01*
X152974895Y-123538584D01*
X153033282Y-123572076D01*
X153063469Y-123582976D01*
X153812452Y-122833994D01*
X153824673Y-122911150D01*
G37*
%TD.AperFunction*%
%TA.AperFunction,Conductor*%
G36*
X144031555Y-115589085D02*
G01*
X144052196Y-115605718D01*
X144811603Y-116365126D01*
X145546865Y-117100388D01*
X145562993Y-117120248D01*
X145569138Y-117129654D01*
X145569139Y-117129655D01*
X145569140Y-117129656D01*
X145597644Y-117151841D01*
X145603401Y-117156924D01*
X145606291Y-117159814D01*
X145625600Y-117173600D01*
X145669615Y-117207858D01*
X145669622Y-117207860D01*
X145676652Y-117211665D01*
X145683825Y-117215171D01*
X145683830Y-117215175D01*
X145719467Y-117225784D01*
X145737285Y-117231089D01*
X145750696Y-117235693D01*
X145790039Y-117249200D01*
X145790040Y-117249200D01*
X145797919Y-117250515D01*
X145805858Y-117251504D01*
X145805859Y-117251505D01*
X145805859Y-117251504D01*
X145805860Y-117251505D01*
X145833721Y-117250352D01*
X145861584Y-117249200D01*
X154006616Y-117249200D01*
X154073655Y-117268885D01*
X154094297Y-117285519D01*
X154745465Y-117936688D01*
X154761593Y-117956548D01*
X154767738Y-117965954D01*
X154767739Y-117965955D01*
X154767740Y-117965956D01*
X154796244Y-117988141D01*
X154802001Y-117993224D01*
X154804891Y-117996114D01*
X154824200Y-118009900D01*
X154868215Y-118044158D01*
X154868222Y-118044160D01*
X154875252Y-118047965D01*
X154882425Y-118051471D01*
X154882430Y-118051475D01*
X154918067Y-118062084D01*
X154935885Y-118067389D01*
X154962262Y-118076444D01*
X154988639Y-118085500D01*
X154988640Y-118085500D01*
X154996519Y-118086815D01*
X155004458Y-118087804D01*
X155004459Y-118087805D01*
X155004459Y-118087804D01*
X155004460Y-118087805D01*
X155037265Y-118086448D01*
X155060184Y-118085500D01*
X160472050Y-118085500D01*
X160539089Y-118105185D01*
X160584844Y-118157989D01*
X160594788Y-118227147D01*
X160565763Y-118290703D01*
X160555022Y-118301650D01*
X160491955Y-118358434D01*
X160491950Y-118358441D01*
X160378911Y-118514025D01*
X160378908Y-118514030D01*
X160300686Y-118689717D01*
X160300684Y-118689723D01*
X160260700Y-118877840D01*
X160260700Y-119070159D01*
X160300684Y-119258276D01*
X160300686Y-119258282D01*
X160378908Y-119433969D01*
X160378911Y-119433974D01*
X160454270Y-119537696D01*
X160491951Y-119589560D01*
X160634873Y-119718247D01*
X160801427Y-119814407D01*
X160801429Y-119814407D01*
X160801432Y-119814409D01*
X160892880Y-119844122D01*
X160984334Y-119873837D01*
X161127648Y-119888900D01*
X161127653Y-119888900D01*
X162544347Y-119888900D01*
X162544352Y-119888900D01*
X162687666Y-119873837D01*
X162870573Y-119814407D01*
X163037127Y-119718247D01*
X163180049Y-119589560D01*
X163293091Y-119433970D01*
X163371315Y-119258277D01*
X163411300Y-119070160D01*
X163411300Y-118877840D01*
X163371315Y-118689723D01*
X163371313Y-118689717D01*
X163293091Y-118514030D01*
X163293088Y-118514025D01*
X163207557Y-118396302D01*
X163180049Y-118358440D01*
X163180046Y-118358438D01*
X163180044Y-118358434D01*
X163116978Y-118301650D01*
X163080329Y-118242164D01*
X163081659Y-118172307D01*
X163120546Y-118114258D01*
X163184643Y-118086448D01*
X163199950Y-118085500D01*
X175596616Y-118085500D01*
X175663655Y-118105185D01*
X175684297Y-118121819D01*
X181243888Y-123681411D01*
X181277373Y-123742734D01*
X181274139Y-123807408D01*
X181256163Y-123862732D01*
X181236060Y-124054000D01*
X181256163Y-124245268D01*
X181256164Y-124245270D01*
X181315590Y-124428167D01*
X181315593Y-124428173D01*
X181378424Y-124537000D01*
X181394897Y-124604901D01*
X181372044Y-124670927D01*
X181317123Y-124714118D01*
X181271037Y-124723000D01*
X179230963Y-124723000D01*
X179163924Y-124703315D01*
X179118169Y-124650511D01*
X179108225Y-124581353D01*
X179123576Y-124537000D01*
X179149934Y-124491346D01*
X179186407Y-124428173D01*
X179245837Y-124245266D01*
X179265940Y-124054000D01*
X179245837Y-123862734D01*
X179186407Y-123679827D01*
X179090247Y-123513273D01*
X179076532Y-123498041D01*
X178961564Y-123370355D01*
X178961562Y-123370353D01*
X178961560Y-123370351D01*
X178881772Y-123312382D01*
X178805974Y-123257311D01*
X178805969Y-123257308D01*
X178630282Y-123179086D01*
X178630276Y-123179084D01*
X178482144Y-123147598D01*
X178442160Y-123139100D01*
X178249840Y-123139100D01*
X178216864Y-123146108D01*
X178061723Y-123179084D01*
X178061717Y-123179086D01*
X177886030Y-123257308D01*
X177886025Y-123257311D01*
X177730441Y-123370350D01*
X177730435Y-123370355D01*
X177601752Y-123513273D01*
X177505593Y-123679826D01*
X177505590Y-123679832D01*
X177446164Y-123862729D01*
X177446163Y-123862731D01*
X177426060Y-124054000D01*
X177446163Y-124245268D01*
X177446164Y-124245270D01*
X177505590Y-124428167D01*
X177505593Y-124428173D01*
X177568424Y-124537000D01*
X177584897Y-124604901D01*
X177562044Y-124670927D01*
X177507123Y-124714118D01*
X177461037Y-124723000D01*
X175420963Y-124723000D01*
X175353924Y-124703315D01*
X175308169Y-124650511D01*
X175298225Y-124581353D01*
X175313576Y-124537000D01*
X175339934Y-124491346D01*
X175376407Y-124428173D01*
X175435837Y-124245266D01*
X175455940Y-124054000D01*
X175435837Y-123862734D01*
X175376407Y-123679827D01*
X175280247Y-123513273D01*
X175266532Y-123498041D01*
X175151564Y-123370355D01*
X175151562Y-123370353D01*
X175151560Y-123370351D01*
X175071772Y-123312382D01*
X174995974Y-123257311D01*
X174995969Y-123257308D01*
X174820282Y-123179086D01*
X174820276Y-123179084D01*
X174672144Y-123147598D01*
X174632160Y-123139100D01*
X174439840Y-123139100D01*
X174406864Y-123146108D01*
X174251723Y-123179084D01*
X174251717Y-123179086D01*
X174076030Y-123257308D01*
X174076025Y-123257311D01*
X173920441Y-123370350D01*
X173920435Y-123370355D01*
X173791752Y-123513273D01*
X173695593Y-123679826D01*
X173695590Y-123679832D01*
X173636164Y-123862729D01*
X173636163Y-123862731D01*
X173616060Y-124054000D01*
X173636163Y-124245268D01*
X173636164Y-124245270D01*
X173695590Y-124428167D01*
X173695593Y-124428173D01*
X173758424Y-124537000D01*
X173774897Y-124604901D01*
X173752044Y-124670927D01*
X173697123Y-124714118D01*
X173651037Y-124723000D01*
X171889444Y-124723000D01*
X171822405Y-124703315D01*
X171776650Y-124650511D01*
X171766706Y-124581353D01*
X171778444Y-124543728D01*
X171812674Y-124474984D01*
X171871528Y-124268131D01*
X171891370Y-124054000D01*
X171871528Y-123839868D01*
X171812674Y-123633015D01*
X171716816Y-123440508D01*
X171706587Y-123426964D01*
X171129547Y-124004004D01*
X171117327Y-123926850D01*
X171058883Y-123812146D01*
X170967854Y-123721117D01*
X170853150Y-123662673D01*
X170775994Y-123650452D01*
X171350561Y-123075884D01*
X171350560Y-123075883D01*
X171245454Y-123010804D01*
X171245448Y-123010802D01*
X171044916Y-122933116D01*
X170833525Y-122893600D01*
X170618475Y-122893600D01*
X170407083Y-122933116D01*
X170407082Y-122933116D01*
X170206552Y-123010801D01*
X170101437Y-123075884D01*
X170676006Y-123650452D01*
X170598850Y-123662673D01*
X170484146Y-123721117D01*
X170393117Y-123812146D01*
X170334673Y-123926850D01*
X170322452Y-124004006D01*
X169745411Y-123426965D01*
X169745410Y-123426965D01*
X169735182Y-123440510D01*
X169639325Y-123633015D01*
X169580471Y-123839868D01*
X169560629Y-124054000D01*
X169580471Y-124268131D01*
X169639325Y-124474984D01*
X169673556Y-124543728D01*
X169685818Y-124612513D01*
X169658944Y-124677008D01*
X169601469Y-124716736D01*
X169562556Y-124723000D01*
X167800963Y-124723000D01*
X167733924Y-124703315D01*
X167688169Y-124650511D01*
X167678225Y-124581353D01*
X167693576Y-124537000D01*
X167719934Y-124491346D01*
X167756407Y-124428173D01*
X167815837Y-124245266D01*
X167835940Y-124054000D01*
X167815837Y-123862734D01*
X167756407Y-123679827D01*
X167660247Y-123513273D01*
X167646532Y-123498041D01*
X167531564Y-123370355D01*
X167531562Y-123370353D01*
X167531560Y-123370351D01*
X167451772Y-123312382D01*
X167375974Y-123257311D01*
X167375969Y-123257308D01*
X167200282Y-123179086D01*
X167200276Y-123179084D01*
X167052144Y-123147598D01*
X167012160Y-123139100D01*
X166819840Y-123139100D01*
X166786864Y-123146108D01*
X166631723Y-123179084D01*
X166631717Y-123179086D01*
X166456030Y-123257308D01*
X166456025Y-123257311D01*
X166300441Y-123370350D01*
X166300435Y-123370355D01*
X166171752Y-123513273D01*
X166075593Y-123679826D01*
X166075590Y-123679832D01*
X166016164Y-123862729D01*
X166016163Y-123862731D01*
X165996060Y-124054000D01*
X166016163Y-124245268D01*
X166016164Y-124245270D01*
X166075590Y-124428167D01*
X166075593Y-124428173D01*
X166138424Y-124537000D01*
X166154897Y-124604901D01*
X166132044Y-124670927D01*
X166077123Y-124714118D01*
X166031037Y-124723000D01*
X154789914Y-124723000D01*
X154722875Y-124703315D01*
X154677120Y-124650511D01*
X154667176Y-124581353D01*
X154696201Y-124517797D01*
X154730800Y-124490976D01*
X154730577Y-124490615D01*
X154734004Y-124488492D01*
X154734639Y-124488001D01*
X154735455Y-124487594D01*
X154918291Y-124374387D01*
X154918293Y-124374385D01*
X155077220Y-124229505D01*
X155077220Y-124229504D01*
X155176491Y-124098044D01*
X154265994Y-123187547D01*
X154343150Y-123175327D01*
X154457854Y-123116883D01*
X154548883Y-123025854D01*
X154607327Y-122911150D01*
X154619547Y-122833994D01*
X155368527Y-123582975D01*
X155368529Y-123582975D01*
X155376400Y-123498041D01*
X155376400Y-122069958D01*
X155368528Y-121985023D01*
X155368527Y-121985023D01*
X154619547Y-122734004D01*
X154607327Y-122656850D01*
X154548883Y-122542146D01*
X154457854Y-122451117D01*
X154343150Y-122392673D01*
X154265995Y-122380452D01*
X155176491Y-121469954D01*
X155077218Y-121338492D01*
X154918293Y-121193614D01*
X154918291Y-121193612D01*
X154821734Y-121133827D01*
X154775098Y-121081799D01*
X154763994Y-121012818D01*
X154791947Y-120948783D01*
X154850082Y-120910027D01*
X154887011Y-120904400D01*
X158931816Y-120904400D01*
X158998855Y-120924085D01*
X159019496Y-120940718D01*
X159496617Y-121417840D01*
X159825465Y-121746688D01*
X159841593Y-121766548D01*
X159847738Y-121775954D01*
X159847739Y-121775955D01*
X159847740Y-121775956D01*
X159876244Y-121798141D01*
X159882001Y-121803224D01*
X159884891Y-121806114D01*
X159904200Y-121819900D01*
X159948215Y-121854158D01*
X159948222Y-121854160D01*
X159955252Y-121857965D01*
X159962425Y-121861471D01*
X159962430Y-121861475D01*
X159998067Y-121872084D01*
X160015885Y-121877389D01*
X160042262Y-121886444D01*
X160068639Y-121895500D01*
X160068640Y-121895500D01*
X160076519Y-121896815D01*
X160084458Y-121897804D01*
X160084459Y-121897805D01*
X160084459Y-121897804D01*
X160084460Y-121897805D01*
X160112321Y-121896652D01*
X160140184Y-121895500D01*
X160263445Y-121895500D01*
X160330484Y-121915185D01*
X160376239Y-121967989D01*
X160376725Y-121969066D01*
X160378907Y-121973967D01*
X160378909Y-121973971D01*
X160419191Y-122029414D01*
X160491951Y-122129560D01*
X160634873Y-122258247D01*
X160801427Y-122354407D01*
X160801429Y-122354407D01*
X160801432Y-122354409D01*
X160872808Y-122377600D01*
X160984334Y-122413837D01*
X161127648Y-122428900D01*
X161127653Y-122428900D01*
X162544347Y-122428900D01*
X162544352Y-122428900D01*
X162687666Y-122413837D01*
X162870573Y-122354407D01*
X163037127Y-122258247D01*
X163180049Y-122129560D01*
X163293091Y-121973970D01*
X163371315Y-121798277D01*
X163411300Y-121610160D01*
X163411300Y-121417840D01*
X163371315Y-121229723D01*
X163371313Y-121229717D01*
X163293091Y-121054030D01*
X163293088Y-121054025D01*
X163188467Y-120910027D01*
X163180049Y-120898440D01*
X163180045Y-120898436D01*
X163180044Y-120898435D01*
X163125244Y-120849094D01*
X163037127Y-120769753D01*
X163037125Y-120769752D01*
X163037126Y-120769752D01*
X162870573Y-120673593D01*
X162870567Y-120673590D01*
X162687670Y-120614164D01*
X162687668Y-120614163D01*
X162646719Y-120609859D01*
X162544352Y-120599100D01*
X161127648Y-120599100D01*
X161038076Y-120608514D01*
X160984331Y-120614163D01*
X160984329Y-120614164D01*
X160801432Y-120673590D01*
X160801426Y-120673593D01*
X160634873Y-120769752D01*
X160491955Y-120898435D01*
X160491953Y-120898437D01*
X160393947Y-121033331D01*
X160338617Y-121075996D01*
X160269003Y-121081975D01*
X160207209Y-121049369D01*
X160205948Y-121048126D01*
X159831415Y-120673593D01*
X159448033Y-120290210D01*
X159431905Y-120270350D01*
X159425760Y-120260944D01*
X159397249Y-120238753D01*
X159391487Y-120233664D01*
X159388609Y-120230786D01*
X159369299Y-120216999D01*
X159347292Y-120199870D01*
X159325286Y-120182742D01*
X159318270Y-120178945D01*
X159311072Y-120175426D01*
X159311070Y-120175425D01*
X159311067Y-120175424D01*
X159257613Y-120159509D01*
X159204862Y-120141399D01*
X159196979Y-120140084D01*
X159189039Y-120139094D01*
X159135367Y-120141315D01*
X159133316Y-120141400D01*
X137924284Y-120141400D01*
X137857245Y-120121715D01*
X137836603Y-120105081D01*
X134681459Y-116949936D01*
X134647974Y-116888613D01*
X134649874Y-116828321D01*
X134659625Y-116794051D01*
X134704696Y-116635643D01*
X134723381Y-116434000D01*
X134714470Y-116337840D01*
X134704696Y-116232357D01*
X134704695Y-116232355D01*
X134695083Y-116198573D01*
X134649277Y-116037580D01*
X134638367Y-116015670D01*
X134567001Y-115872347D01*
X134559012Y-115856303D01*
X134492423Y-115768125D01*
X134467732Y-115702766D01*
X134482297Y-115634431D01*
X134531494Y-115584819D01*
X134591378Y-115569400D01*
X143964516Y-115569400D01*
X144031555Y-115589085D01*
G37*
%TD.AperFunction*%
%TA.AperFunction,Conductor*%
G36*
X157836513Y-105094214D02*
G01*
X157884276Y-105129844D01*
X157945064Y-105203915D01*
X158004716Y-105252870D01*
X158098493Y-105329831D01*
X158213952Y-105391544D01*
X158263797Y-105440506D01*
X158279500Y-105500903D01*
X158279500Y-105571572D01*
X158276861Y-105597020D01*
X158274554Y-105608017D01*
X158279023Y-105643865D01*
X158279500Y-105651541D01*
X158279500Y-105655611D01*
X158279555Y-105655940D01*
X158283403Y-105679005D01*
X158290304Y-105734361D01*
X158292580Y-105742009D01*
X158295181Y-105749585D01*
X158321729Y-105798641D01*
X158346224Y-105848747D01*
X158350869Y-105855253D01*
X158355782Y-105861564D01*
X158396819Y-105899342D01*
X160135465Y-107637988D01*
X160151593Y-107657848D01*
X160157738Y-107667254D01*
X160157739Y-107667255D01*
X160157740Y-107667256D01*
X160173834Y-107679782D01*
X160186244Y-107689441D01*
X160192001Y-107694524D01*
X160194891Y-107697414D01*
X160214198Y-107711198D01*
X160258215Y-107745458D01*
X160258221Y-107745460D01*
X160265250Y-107749264D01*
X160272428Y-107752773D01*
X160272431Y-107752775D01*
X160325882Y-107768688D01*
X160378639Y-107786800D01*
X160378642Y-107786800D01*
X160386520Y-107788115D01*
X160394457Y-107789104D01*
X160394459Y-107789105D01*
X160394460Y-107789104D01*
X160394461Y-107789105D01*
X160450195Y-107786800D01*
X175809916Y-107786800D01*
X175876955Y-107806485D01*
X175897597Y-107823119D01*
X176037280Y-107962802D01*
X176070765Y-108024125D01*
X176065781Y-108093817D01*
X176023909Y-108149750D01*
X175961754Y-108173886D01*
X175812475Y-108188589D01*
X175622540Y-108246205D01*
X175447489Y-108339771D01*
X175294064Y-108465684D01*
X175168151Y-108619109D01*
X175074585Y-108794160D01*
X175016969Y-108984095D01*
X175005988Y-109095584D01*
X175003058Y-109125347D01*
X175002390Y-109132127D01*
X175002390Y-110739872D01*
X175016969Y-110887904D01*
X175016970Y-110887906D01*
X175074586Y-111077841D01*
X175167996Y-111252601D01*
X175168151Y-111252890D01*
X175294064Y-111406315D01*
X175373045Y-111471133D01*
X175447493Y-111532231D01*
X175562952Y-111593944D01*
X175612797Y-111642906D01*
X175628500Y-111703303D01*
X175628500Y-111808049D01*
X175628288Y-111813170D01*
X175624546Y-111858340D01*
X175635671Y-111902273D01*
X175636723Y-111907290D01*
X175644181Y-111951985D01*
X175644494Y-111952562D01*
X175655640Y-111981126D01*
X175655802Y-111981767D01*
X175655802Y-111981768D01*
X175680586Y-112019702D01*
X175683209Y-112024105D01*
X175688150Y-112033234D01*
X175704780Y-112063962D01*
X175705259Y-112064403D01*
X175725083Y-112087809D01*
X175725440Y-112088356D01*
X175725441Y-112088357D01*
X175725442Y-112088358D01*
X175742948Y-112101982D01*
X175761202Y-112116190D01*
X175765109Y-112119499D01*
X175798449Y-112150192D01*
X175798454Y-112150195D01*
X175799053Y-112150458D01*
X175825397Y-112166156D01*
X175825909Y-112166554D01*
X175825912Y-112166555D01*
X175825915Y-112166558D01*
X175868773Y-112181271D01*
X175873534Y-112183128D01*
X175915052Y-112201340D01*
X175915703Y-112201393D01*
X175945723Y-112207688D01*
X175946339Y-112207900D01*
X175991650Y-112207900D01*
X175996771Y-112208112D01*
X176016429Y-112209740D01*
X176041940Y-112211854D01*
X176042572Y-112211693D01*
X176073011Y-112207900D01*
X178997773Y-112207900D01*
X179023218Y-112210539D01*
X179027161Y-112211365D01*
X179034217Y-112212845D01*
X179052776Y-112210531D01*
X179070066Y-112208377D01*
X179077742Y-112207900D01*
X179081808Y-112207900D01*
X179081811Y-112207900D01*
X179105204Y-112203996D01*
X179160560Y-112197096D01*
X179168213Y-112194816D01*
X179175782Y-112192218D01*
X179175786Y-112192218D01*
X179224841Y-112165670D01*
X179274946Y-112141176D01*
X179274948Y-112141174D01*
X179281454Y-112136528D01*
X179287760Y-112131621D01*
X179287759Y-112131621D01*
X179287762Y-112131620D01*
X179322196Y-112094215D01*
X179325542Y-112090581D01*
X179788520Y-111627602D01*
X179944993Y-111471128D01*
X179964842Y-111455009D01*
X179974256Y-111448860D01*
X179996455Y-111420336D01*
X180001526Y-111414596D01*
X180004414Y-111411709D01*
X180018200Y-111392399D01*
X180052458Y-111348385D01*
X180052459Y-111348379D01*
X180056257Y-111341364D01*
X180059770Y-111334176D01*
X180059775Y-111334170D01*
X180061067Y-111329827D01*
X180099057Y-111271192D01*
X180162719Y-111242402D01*
X180231840Y-111252601D01*
X180275766Y-111286539D01*
X180374064Y-111406315D01*
X180453045Y-111471133D01*
X180527493Y-111532231D01*
X180642952Y-111593944D01*
X180692797Y-111642906D01*
X180708500Y-111703303D01*
X180708500Y-111808049D01*
X180708288Y-111813170D01*
X180704546Y-111858340D01*
X180715671Y-111902273D01*
X180716723Y-111907290D01*
X180724181Y-111951985D01*
X180724494Y-111952562D01*
X180735640Y-111981126D01*
X180735802Y-111981767D01*
X180735802Y-111981768D01*
X180760586Y-112019702D01*
X180763209Y-112024105D01*
X180768150Y-112033234D01*
X180784780Y-112063962D01*
X180785259Y-112064403D01*
X180805083Y-112087809D01*
X180805440Y-112088356D01*
X180805441Y-112088357D01*
X180805442Y-112088358D01*
X180822948Y-112101982D01*
X180841202Y-112116190D01*
X180845109Y-112119499D01*
X180878449Y-112150192D01*
X180878454Y-112150195D01*
X180879053Y-112150458D01*
X180905397Y-112166156D01*
X180905909Y-112166554D01*
X180905912Y-112166555D01*
X180905915Y-112166558D01*
X180948773Y-112181271D01*
X180953534Y-112183128D01*
X180995052Y-112201340D01*
X180995703Y-112201393D01*
X181025723Y-112207688D01*
X181026339Y-112207900D01*
X181071650Y-112207900D01*
X181076771Y-112208112D01*
X181096429Y-112209740D01*
X181121940Y-112211854D01*
X181122572Y-112211693D01*
X181153011Y-112207900D01*
X181434616Y-112207900D01*
X181501655Y-112227585D01*
X181522297Y-112244219D01*
X182061096Y-112783019D01*
X182094581Y-112844342D01*
X182089597Y-112914034D01*
X182047725Y-112969967D01*
X181999196Y-112991990D01*
X181871723Y-113019084D01*
X181871717Y-113019086D01*
X181696030Y-113097308D01*
X181696025Y-113097311D01*
X181540441Y-113210350D01*
X181540435Y-113210355D01*
X181411752Y-113353273D01*
X181315593Y-113519826D01*
X181315590Y-113519832D01*
X181256164Y-113702729D01*
X181256163Y-113702731D01*
X181236060Y-113894000D01*
X181256163Y-114085268D01*
X181256164Y-114085270D01*
X181315590Y-114268167D01*
X181315593Y-114268173D01*
X181411752Y-114434726D01*
X181454199Y-114481869D01*
X181540440Y-114577649D01*
X181618768Y-114634557D01*
X181696025Y-114690688D01*
X181696030Y-114690691D01*
X181871717Y-114768913D01*
X181871723Y-114768915D01*
X182059840Y-114808900D01*
X182059841Y-114808900D01*
X182252159Y-114808900D01*
X182252160Y-114808900D01*
X182440277Y-114768915D01*
X182440279Y-114768913D01*
X182440282Y-114768913D01*
X182499461Y-114742564D01*
X182615970Y-114690691D01*
X182660915Y-114658036D01*
X182726721Y-114634557D01*
X182794775Y-114650382D01*
X182843470Y-114700488D01*
X182857800Y-114758355D01*
X182857800Y-123189644D01*
X182838115Y-123256683D01*
X182785311Y-123302438D01*
X182716153Y-123312382D01*
X182660916Y-123289963D01*
X182615973Y-123257311D01*
X182615969Y-123257308D01*
X182440282Y-123179086D01*
X182440276Y-123179084D01*
X182292144Y-123147598D01*
X182252160Y-123139100D01*
X182059840Y-123139100D01*
X181895421Y-123174047D01*
X181825754Y-123168731D01*
X181781960Y-123140438D01*
X176112833Y-117471310D01*
X176096705Y-117451450D01*
X176090560Y-117442044D01*
X176062049Y-117419853D01*
X176056287Y-117414764D01*
X176053409Y-117411886D01*
X176034099Y-117398099D01*
X176012092Y-117380970D01*
X175990086Y-117363842D01*
X175983070Y-117360045D01*
X175975872Y-117356526D01*
X175975870Y-117356525D01*
X175975867Y-117356524D01*
X175922413Y-117340609D01*
X175869662Y-117322499D01*
X175861779Y-117321184D01*
X175853839Y-117320194D01*
X175800167Y-117322415D01*
X175798116Y-117322500D01*
X163199950Y-117322500D01*
X163132911Y-117302815D01*
X163087156Y-117250011D01*
X163077212Y-117180853D01*
X163106237Y-117117297D01*
X163116978Y-117106350D01*
X163180044Y-117049565D01*
X163180044Y-117049563D01*
X163180049Y-117049560D01*
X163293091Y-116893970D01*
X163371315Y-116718277D01*
X163411300Y-116530160D01*
X163411300Y-116337840D01*
X163371315Y-116149723D01*
X163371313Y-116149717D01*
X163293091Y-115974030D01*
X163293088Y-115974025D01*
X163207557Y-115856302D01*
X163180049Y-115818440D01*
X163180045Y-115818436D01*
X163180044Y-115818435D01*
X163051579Y-115702766D01*
X163037127Y-115689753D01*
X163037125Y-115689752D01*
X163037126Y-115689752D01*
X162870573Y-115593593D01*
X162870567Y-115593590D01*
X162687670Y-115534164D01*
X162687668Y-115534163D01*
X162646719Y-115529859D01*
X162544352Y-115519100D01*
X162544347Y-115519100D01*
X162345961Y-115519100D01*
X162278922Y-115499415D01*
X162233167Y-115446611D01*
X162222913Y-115410438D01*
X162217977Y-115370833D01*
X162217500Y-115363156D01*
X162217500Y-115359093D01*
X162217499Y-115359085D01*
X162213596Y-115335695D01*
X162210071Y-115307419D01*
X162206696Y-115280340D01*
X162206695Y-115280337D01*
X162204419Y-115272694D01*
X162201816Y-115265109D01*
X162175270Y-115216058D01*
X162150776Y-115165954D01*
X162150773Y-115165951D01*
X162150773Y-115165950D01*
X162146131Y-115159447D01*
X162141220Y-115153137D01*
X162100180Y-115115358D01*
X160878822Y-113894000D01*
X165996060Y-113894000D01*
X166016163Y-114085268D01*
X166016164Y-114085270D01*
X166075590Y-114268167D01*
X166075593Y-114268173D01*
X166171752Y-114434726D01*
X166214199Y-114481869D01*
X166300440Y-114577649D01*
X166378768Y-114634557D01*
X166456025Y-114690688D01*
X166456030Y-114690691D01*
X166631717Y-114768913D01*
X166631723Y-114768915D01*
X166819840Y-114808900D01*
X166819841Y-114808900D01*
X167012159Y-114808900D01*
X167012160Y-114808900D01*
X167200277Y-114768915D01*
X167200279Y-114768913D01*
X167200282Y-114768913D01*
X167259461Y-114742564D01*
X167375970Y-114690691D01*
X167531560Y-114577649D01*
X167660247Y-114434727D01*
X167756407Y-114268173D01*
X167815837Y-114085266D01*
X167835940Y-113894000D01*
X169806060Y-113894000D01*
X169826163Y-114085268D01*
X169826164Y-114085270D01*
X169885590Y-114268167D01*
X169885593Y-114268173D01*
X169981752Y-114434726D01*
X170024199Y-114481869D01*
X170110440Y-114577649D01*
X170188768Y-114634557D01*
X170266025Y-114690688D01*
X170266030Y-114690691D01*
X170441717Y-114768913D01*
X170441723Y-114768915D01*
X170629840Y-114808900D01*
X170629841Y-114808900D01*
X170822159Y-114808900D01*
X170822160Y-114808900D01*
X171010277Y-114768915D01*
X171010279Y-114768913D01*
X171010282Y-114768913D01*
X171069461Y-114742564D01*
X171185970Y-114690691D01*
X171341560Y-114577649D01*
X171470247Y-114434727D01*
X171566407Y-114268173D01*
X171625837Y-114085266D01*
X171645940Y-113894000D01*
X173616060Y-113894000D01*
X173636163Y-114085268D01*
X173636164Y-114085270D01*
X173695590Y-114268167D01*
X173695593Y-114268173D01*
X173791752Y-114434726D01*
X173834199Y-114481869D01*
X173920440Y-114577649D01*
X173998768Y-114634557D01*
X174076025Y-114690688D01*
X174076030Y-114690691D01*
X174251717Y-114768913D01*
X174251723Y-114768915D01*
X174439840Y-114808900D01*
X174439841Y-114808900D01*
X174632159Y-114808900D01*
X174632160Y-114808900D01*
X174820277Y-114768915D01*
X174820279Y-114768913D01*
X174820282Y-114768913D01*
X174879461Y-114742564D01*
X174995970Y-114690691D01*
X175151560Y-114577649D01*
X175280247Y-114434727D01*
X175336381Y-114337499D01*
X175386948Y-114289285D01*
X175443768Y-114275500D01*
X177438232Y-114275500D01*
X177505271Y-114295185D01*
X177545619Y-114337500D01*
X177601752Y-114434726D01*
X177644199Y-114481869D01*
X177730440Y-114577649D01*
X177808768Y-114634557D01*
X177886025Y-114690688D01*
X177886030Y-114690691D01*
X178061717Y-114768913D01*
X178061723Y-114768915D01*
X178249840Y-114808900D01*
X178249841Y-114808900D01*
X178442159Y-114808900D01*
X178442160Y-114808900D01*
X178630277Y-114768915D01*
X178630279Y-114768913D01*
X178630282Y-114768913D01*
X178689461Y-114742564D01*
X178805970Y-114690691D01*
X178961560Y-114577649D01*
X179090247Y-114434727D01*
X179186407Y-114268173D01*
X179245837Y-114085266D01*
X179265940Y-113894000D01*
X179245837Y-113702734D01*
X179210920Y-113595271D01*
X179186409Y-113519832D01*
X179186406Y-113519826D01*
X179182176Y-113512500D01*
X179090247Y-113353273D01*
X179073537Y-113334715D01*
X178961564Y-113210355D01*
X178961562Y-113210353D01*
X178961560Y-113210351D01*
X178873481Y-113146358D01*
X178805974Y-113097311D01*
X178805969Y-113097308D01*
X178630282Y-113019086D01*
X178630276Y-113019084D01*
X178482144Y-112987598D01*
X178442160Y-112979100D01*
X178249840Y-112979100D01*
X178216864Y-112986108D01*
X178061723Y-113019084D01*
X178061717Y-113019086D01*
X177886030Y-113097308D01*
X177886025Y-113097311D01*
X177730441Y-113210350D01*
X177730435Y-113210355D01*
X177601752Y-113353273D01*
X177575922Y-113398013D01*
X177551431Y-113440434D01*
X177545619Y-113450500D01*
X177495052Y-113498715D01*
X177438232Y-113512500D01*
X175443768Y-113512500D01*
X175376729Y-113492815D01*
X175336381Y-113450500D01*
X175330569Y-113440434D01*
X175280247Y-113353273D01*
X175263537Y-113334715D01*
X175151564Y-113210355D01*
X175151562Y-113210353D01*
X175151560Y-113210351D01*
X175063481Y-113146358D01*
X174995974Y-113097311D01*
X174995969Y-113097308D01*
X174820282Y-113019086D01*
X174820276Y-113019084D01*
X174672144Y-112987598D01*
X174632160Y-112979100D01*
X174439840Y-112979100D01*
X174406864Y-112986108D01*
X174251723Y-113019084D01*
X174251717Y-113019086D01*
X174076030Y-113097308D01*
X174076025Y-113097311D01*
X173920441Y-113210350D01*
X173920435Y-113210355D01*
X173791752Y-113353273D01*
X173695593Y-113519826D01*
X173695590Y-113519832D01*
X173636164Y-113702729D01*
X173636163Y-113702731D01*
X173616060Y-113894000D01*
X171645940Y-113894000D01*
X171625837Y-113702734D01*
X171590920Y-113595271D01*
X171566409Y-113519832D01*
X171566406Y-113519826D01*
X171562176Y-113512500D01*
X171470247Y-113353273D01*
X171453537Y-113334715D01*
X171341564Y-113210355D01*
X171341562Y-113210353D01*
X171341560Y-113210351D01*
X171253481Y-113146358D01*
X171185974Y-113097311D01*
X171185969Y-113097308D01*
X171010282Y-113019086D01*
X171010276Y-113019084D01*
X170862144Y-112987598D01*
X170822160Y-112979100D01*
X170629840Y-112979100D01*
X170596864Y-112986108D01*
X170441723Y-113019084D01*
X170441717Y-113019086D01*
X170266030Y-113097308D01*
X170266025Y-113097311D01*
X170110441Y-113210350D01*
X170110435Y-113210355D01*
X169981752Y-113353273D01*
X169885593Y-113519826D01*
X169885590Y-113519832D01*
X169826164Y-113702729D01*
X169826163Y-113702731D01*
X169806060Y-113894000D01*
X167835940Y-113894000D01*
X167815837Y-113702734D01*
X167780920Y-113595271D01*
X167756409Y-113519832D01*
X167756406Y-113519826D01*
X167752176Y-113512500D01*
X167660247Y-113353273D01*
X167643537Y-113334715D01*
X167531564Y-113210355D01*
X167531562Y-113210353D01*
X167531560Y-113210351D01*
X167443481Y-113146358D01*
X167375974Y-113097311D01*
X167375969Y-113097308D01*
X167200282Y-113019086D01*
X167200276Y-113019084D01*
X167052144Y-112987598D01*
X167012160Y-112979100D01*
X166819840Y-112979100D01*
X166786864Y-112986108D01*
X166631723Y-113019084D01*
X166631717Y-113019086D01*
X166456030Y-113097308D01*
X166456025Y-113097311D01*
X166300441Y-113210350D01*
X166300435Y-113210355D01*
X166171752Y-113353273D01*
X166075593Y-113519826D01*
X166075590Y-113519832D01*
X166016164Y-113702729D01*
X166016163Y-113702731D01*
X165996060Y-113894000D01*
X160878822Y-113894000D01*
X158911150Y-111926327D01*
X158877665Y-111865004D01*
X158882649Y-111795312D01*
X158921519Y-111741698D01*
X159099475Y-111599783D01*
X159247885Y-111429916D01*
X159293692Y-111353245D01*
X158361746Y-110421299D01*
X158372061Y-110419817D01*
X158502614Y-110360195D01*
X158611081Y-110266208D01*
X158688675Y-110145470D01*
X158712359Y-110064806D01*
X159478132Y-110830580D01*
X159478134Y-110830580D01*
X159483110Y-110803164D01*
X159483110Y-110739872D01*
X159762390Y-110739872D01*
X159776969Y-110887904D01*
X159776970Y-110887906D01*
X159834586Y-111077841D01*
X159927996Y-111252601D01*
X159928151Y-111252890D01*
X160054064Y-111406315D01*
X160207489Y-111532228D01*
X160207493Y-111532231D01*
X160382539Y-111625794D01*
X160572474Y-111683410D01*
X160572473Y-111683410D01*
X160584546Y-111684599D01*
X160770000Y-111702865D01*
X160967526Y-111683410D01*
X161157461Y-111625794D01*
X161332507Y-111532231D01*
X161485935Y-111406315D01*
X161611851Y-111252887D01*
X161705414Y-111077841D01*
X161763030Y-110887906D01*
X161777610Y-110739876D01*
X161777610Y-110739872D01*
X162302390Y-110739872D01*
X162316969Y-110887904D01*
X162316970Y-110887906D01*
X162374586Y-111077841D01*
X162467996Y-111252601D01*
X162468151Y-111252890D01*
X162594064Y-111406315D01*
X162747489Y-111532228D01*
X162747493Y-111532231D01*
X162922539Y-111625794D01*
X163112474Y-111683410D01*
X163112473Y-111683410D01*
X163124546Y-111684599D01*
X163310000Y-111702865D01*
X163507526Y-111683410D01*
X163697461Y-111625794D01*
X163872507Y-111532231D01*
X164025935Y-111406315D01*
X164151851Y-111252887D01*
X164245414Y-111077841D01*
X164303030Y-110887906D01*
X164317610Y-110739876D01*
X164317610Y-110739872D01*
X164842390Y-110739872D01*
X164856969Y-110887904D01*
X164856970Y-110887906D01*
X164914586Y-111077841D01*
X165007996Y-111252601D01*
X165008151Y-111252890D01*
X165134064Y-111406315D01*
X165287489Y-111532228D01*
X165287493Y-111532231D01*
X165462539Y-111625794D01*
X165652474Y-111683410D01*
X165652473Y-111683410D01*
X165664546Y-111684599D01*
X165850000Y-111702865D01*
X166047526Y-111683410D01*
X166237461Y-111625794D01*
X166412507Y-111532231D01*
X166565935Y-111406315D01*
X166691851Y-111252887D01*
X166785414Y-111077841D01*
X166843030Y-110887906D01*
X166857610Y-110739876D01*
X166857610Y-110739872D01*
X167382390Y-110739872D01*
X167396969Y-110887904D01*
X167396970Y-110887906D01*
X167454586Y-111077841D01*
X167547996Y-111252601D01*
X167548151Y-111252890D01*
X167674064Y-111406315D01*
X167827489Y-111532228D01*
X167827493Y-111532231D01*
X168002539Y-111625794D01*
X168192474Y-111683410D01*
X168192473Y-111683410D01*
X168204546Y-111684599D01*
X168390000Y-111702865D01*
X168587526Y-111683410D01*
X168777461Y-111625794D01*
X168952507Y-111532231D01*
X169105935Y-111406315D01*
X169231851Y-111252887D01*
X169325414Y-111077841D01*
X169383030Y-110887906D01*
X169397610Y-110739876D01*
X169397610Y-110739872D01*
X169922390Y-110739872D01*
X169936969Y-110887904D01*
X169936970Y-110887906D01*
X169994586Y-111077841D01*
X170087996Y-111252601D01*
X170088151Y-111252890D01*
X170214064Y-111406315D01*
X170367489Y-111532228D01*
X170367493Y-111532231D01*
X170542539Y-111625794D01*
X170732474Y-111683410D01*
X170732473Y-111683410D01*
X170744546Y-111684599D01*
X170930000Y-111702865D01*
X171127526Y-111683410D01*
X171317461Y-111625794D01*
X171492507Y-111532231D01*
X171645935Y-111406315D01*
X171771851Y-111252887D01*
X171865414Y-111077841D01*
X171923030Y-110887906D01*
X171937610Y-110739876D01*
X171937610Y-110739872D01*
X172462390Y-110739872D01*
X172476969Y-110887904D01*
X172476970Y-110887906D01*
X172534586Y-111077841D01*
X172627996Y-111252601D01*
X172628151Y-111252890D01*
X172754064Y-111406315D01*
X172907489Y-111532228D01*
X172907493Y-111532231D01*
X173082539Y-111625794D01*
X173272474Y-111683410D01*
X173272473Y-111683410D01*
X173284546Y-111684599D01*
X173470000Y-111702865D01*
X173667526Y-111683410D01*
X173857461Y-111625794D01*
X174032507Y-111532231D01*
X174185935Y-111406315D01*
X174311851Y-111252887D01*
X174405414Y-111077841D01*
X174463030Y-110887906D01*
X174477610Y-110739876D01*
X174477610Y-109132124D01*
X174463030Y-108984094D01*
X174405414Y-108794159D01*
X174311851Y-108619113D01*
X174311848Y-108619109D01*
X174185935Y-108465684D01*
X174032510Y-108339771D01*
X174032508Y-108339770D01*
X174032507Y-108339769D01*
X173857461Y-108246206D01*
X173857460Y-108246205D01*
X173857459Y-108246205D01*
X173698339Y-108197937D01*
X173667526Y-108188590D01*
X173667524Y-108188589D01*
X173667526Y-108188589D01*
X173470000Y-108169135D01*
X173272475Y-108188589D01*
X173082540Y-108246205D01*
X172907489Y-108339771D01*
X172754064Y-108465684D01*
X172628151Y-108619109D01*
X172534585Y-108794160D01*
X172476969Y-108984095D01*
X172465988Y-109095584D01*
X172463058Y-109125347D01*
X172462390Y-109132127D01*
X172462390Y-110739872D01*
X171937610Y-110739872D01*
X171937610Y-109132124D01*
X171923030Y-108984094D01*
X171865414Y-108794159D01*
X171771851Y-108619113D01*
X171771848Y-108619109D01*
X171645935Y-108465684D01*
X171492510Y-108339771D01*
X171492508Y-108339770D01*
X171492507Y-108339769D01*
X171317461Y-108246206D01*
X171317460Y-108246205D01*
X171317459Y-108246205D01*
X171158339Y-108197937D01*
X171127526Y-108188590D01*
X171127524Y-108188589D01*
X171127526Y-108188589D01*
X170930000Y-108169135D01*
X170732475Y-108188589D01*
X170542540Y-108246205D01*
X170367489Y-108339771D01*
X170214064Y-108465684D01*
X170088151Y-108619109D01*
X169994585Y-108794160D01*
X169936969Y-108984095D01*
X169925988Y-109095584D01*
X169923058Y-109125347D01*
X169922390Y-109132127D01*
X169922390Y-110739872D01*
X169397610Y-110739872D01*
X169397610Y-109132124D01*
X169383030Y-108984094D01*
X169325414Y-108794159D01*
X169231851Y-108619113D01*
X169231848Y-108619109D01*
X169105935Y-108465684D01*
X168952510Y-108339771D01*
X168952508Y-108339770D01*
X168952507Y-108339769D01*
X168777461Y-108246206D01*
X168777460Y-108246205D01*
X168777459Y-108246205D01*
X168618339Y-108197937D01*
X168587526Y-108188590D01*
X168587524Y-108188589D01*
X168587526Y-108188589D01*
X168390000Y-108169135D01*
X168192475Y-108188589D01*
X168002540Y-108246205D01*
X167827489Y-108339771D01*
X167674064Y-108465684D01*
X167548151Y-108619109D01*
X167454585Y-108794160D01*
X167396969Y-108984095D01*
X167385988Y-109095584D01*
X167383058Y-109125347D01*
X167382390Y-109132127D01*
X167382390Y-110739872D01*
X166857610Y-110739872D01*
X166857610Y-109132124D01*
X166843030Y-108984094D01*
X166785414Y-108794159D01*
X166691851Y-108619113D01*
X166691848Y-108619109D01*
X166565935Y-108465684D01*
X166412510Y-108339771D01*
X166412508Y-108339770D01*
X166412507Y-108339769D01*
X166237461Y-108246206D01*
X166237460Y-108246205D01*
X166237459Y-108246205D01*
X166078339Y-108197937D01*
X166047526Y-108188590D01*
X166047524Y-108188589D01*
X166047526Y-108188589D01*
X165850000Y-108169135D01*
X165652475Y-108188589D01*
X165462540Y-108246205D01*
X165287489Y-108339771D01*
X165134064Y-108465684D01*
X165008151Y-108619109D01*
X164914585Y-108794160D01*
X164856969Y-108984095D01*
X164845988Y-109095584D01*
X164843058Y-109125347D01*
X164842390Y-109132127D01*
X164842390Y-110739872D01*
X164317610Y-110739872D01*
X164317610Y-109132124D01*
X164303030Y-108984094D01*
X164245414Y-108794159D01*
X164151851Y-108619113D01*
X164151848Y-108619109D01*
X164025935Y-108465684D01*
X163872510Y-108339771D01*
X163872508Y-108339770D01*
X163872507Y-108339769D01*
X163697461Y-108246206D01*
X163697460Y-108246205D01*
X163697459Y-108246205D01*
X163538339Y-108197937D01*
X163507526Y-108188590D01*
X163507524Y-108188589D01*
X163507526Y-108188589D01*
X163310000Y-108169135D01*
X163112475Y-108188589D01*
X162922540Y-108246205D01*
X162747489Y-108339771D01*
X162594064Y-108465684D01*
X162468151Y-108619109D01*
X162374585Y-108794160D01*
X162316969Y-108984095D01*
X162305988Y-109095584D01*
X162303058Y-109125347D01*
X162302390Y-109132127D01*
X162302390Y-110739872D01*
X161777610Y-110739872D01*
X161777610Y-109132124D01*
X161763030Y-108984094D01*
X161705414Y-108794159D01*
X161611851Y-108619113D01*
X161611848Y-108619109D01*
X161485935Y-108465684D01*
X161332510Y-108339771D01*
X161332508Y-108339770D01*
X161332507Y-108339769D01*
X161157461Y-108246206D01*
X161157460Y-108246205D01*
X161157459Y-108246205D01*
X160998339Y-108197937D01*
X160967526Y-108188590D01*
X160967524Y-108188589D01*
X160967526Y-108188589D01*
X160770000Y-108169135D01*
X160572475Y-108188589D01*
X160382540Y-108246205D01*
X160207489Y-108339771D01*
X160054064Y-108465684D01*
X159928151Y-108619109D01*
X159834585Y-108794160D01*
X159776969Y-108984095D01*
X159765988Y-109095584D01*
X159763058Y-109125347D01*
X159762390Y-109132127D01*
X159762390Y-110739872D01*
X159483110Y-110739872D01*
X159483110Y-109125347D01*
X159475768Y-109043783D01*
X158712359Y-109807192D01*
X158688675Y-109726530D01*
X158611081Y-109605792D01*
X158502614Y-109511805D01*
X158372061Y-109452183D01*
X158361747Y-109450700D01*
X159295797Y-108516648D01*
X159295797Y-108516646D01*
X159177497Y-108353820D01*
X159177498Y-108353820D01*
X159014457Y-108197937D01*
X158826208Y-108073675D01*
X158618804Y-107985027D01*
X158618787Y-107985021D01*
X158398889Y-107934832D01*
X158173556Y-107924712D01*
X157950026Y-107954991D01*
X157735504Y-108024693D01*
X157536877Y-108131579D01*
X157536874Y-108131581D01*
X157360524Y-108272215D01*
X157212112Y-108442085D01*
X157166306Y-108518751D01*
X157166306Y-108518753D01*
X158098253Y-109450700D01*
X158087939Y-109452183D01*
X157957386Y-109511805D01*
X157848919Y-109605792D01*
X157771325Y-109726530D01*
X157747640Y-109807193D01*
X156981864Y-109041417D01*
X156976890Y-109068835D01*
X156976890Y-110746656D01*
X156984230Y-110828216D01*
X157747640Y-110064806D01*
X157771325Y-110145470D01*
X157848919Y-110266208D01*
X157957386Y-110360195D01*
X158087939Y-110419817D01*
X158098252Y-110421299D01*
X157164201Y-111355350D01*
X157161134Y-111394329D01*
X157136250Y-111459617D01*
X157080019Y-111501088D01*
X157037516Y-111508600D01*
X156584169Y-111508600D01*
X156517130Y-111488915D01*
X156471375Y-111436111D01*
X156461431Y-111366953D01*
X156488316Y-111305935D01*
X156526879Y-111258945D01*
X156531851Y-111252887D01*
X156625414Y-111077841D01*
X156683030Y-110887906D01*
X156697610Y-110739876D01*
X156697610Y-109132124D01*
X156683030Y-108984094D01*
X156625414Y-108794159D01*
X156531851Y-108619113D01*
X156531848Y-108619109D01*
X156405935Y-108465684D01*
X156252510Y-108339771D01*
X156252508Y-108339770D01*
X156252507Y-108339769D01*
X156077461Y-108246206D01*
X156077460Y-108246205D01*
X156077459Y-108246205D01*
X155918339Y-108197937D01*
X155887526Y-108188590D01*
X155887524Y-108188589D01*
X155887526Y-108188589D01*
X155690000Y-108169135D01*
X155492475Y-108188589D01*
X155302540Y-108246205D01*
X155127489Y-108339771D01*
X154974064Y-108465684D01*
X154848151Y-108619109D01*
X154754585Y-108794160D01*
X154696969Y-108984095D01*
X154685988Y-109095584D01*
X154683058Y-109125347D01*
X154682390Y-109132127D01*
X154682390Y-110739872D01*
X154696969Y-110887904D01*
X154696970Y-110887906D01*
X154754586Y-111077841D01*
X154847996Y-111252601D01*
X154848151Y-111252890D01*
X154891684Y-111305935D01*
X154918997Y-111370245D01*
X154907206Y-111439113D01*
X154860054Y-111490673D01*
X154795831Y-111508600D01*
X154044169Y-111508600D01*
X153977130Y-111488915D01*
X153931375Y-111436111D01*
X153921431Y-111366953D01*
X153948316Y-111305935D01*
X153986879Y-111258945D01*
X153991851Y-111252887D01*
X154085414Y-111077841D01*
X154143030Y-110887906D01*
X154157610Y-110739876D01*
X154157610Y-109132124D01*
X154143030Y-108984094D01*
X154085414Y-108794159D01*
X153991851Y-108619113D01*
X153991848Y-108619109D01*
X153865935Y-108465684D01*
X153712510Y-108339771D01*
X153712508Y-108339770D01*
X153712507Y-108339769D01*
X153537461Y-108246206D01*
X153537460Y-108246205D01*
X153537459Y-108246205D01*
X153347524Y-108188589D01*
X153198245Y-108173886D01*
X153133458Y-108147725D01*
X153093099Y-108090690D01*
X153089983Y-108020890D01*
X153122717Y-107962804D01*
X154022204Y-107063319D01*
X154083527Y-107029834D01*
X154109885Y-107027000D01*
X155577573Y-107027000D01*
X155603018Y-107029639D01*
X155606961Y-107030465D01*
X155614017Y-107031945D01*
X155632576Y-107029631D01*
X155649866Y-107027477D01*
X155657542Y-107027000D01*
X155661608Y-107027000D01*
X155661611Y-107027000D01*
X155685004Y-107023096D01*
X155740360Y-107016196D01*
X155748013Y-107013916D01*
X155755582Y-107011318D01*
X155755586Y-107011318D01*
X155804641Y-106984770D01*
X155854746Y-106960276D01*
X155854748Y-106960274D01*
X155861263Y-106955622D01*
X155867558Y-106950723D01*
X155867559Y-106950721D01*
X155867562Y-106950720D01*
X155905341Y-106909680D01*
X157678893Y-105136128D01*
X157698742Y-105120009D01*
X157708156Y-105113860D01*
X157708158Y-105113857D01*
X157716760Y-105108238D01*
X157718223Y-105110478D01*
X157767086Y-105086359D01*
X157836513Y-105094214D01*
G37*
%TD.AperFunction*%
%TA.AperFunction,Conductor*%
G36*
X151072028Y-120924085D02*
G01*
X151117783Y-120976889D01*
X151127727Y-121046047D01*
X151098702Y-121109603D01*
X151070266Y-121133827D01*
X150973708Y-121193612D01*
X150973706Y-121193614D01*
X150814780Y-121338493D01*
X150814778Y-121338496D01*
X150715506Y-121469954D01*
X151626005Y-122380452D01*
X151548850Y-122392673D01*
X151434146Y-122451117D01*
X151343117Y-122542146D01*
X151284673Y-122656850D01*
X151272452Y-122734005D01*
X150523469Y-121985022D01*
X150484090Y-121999241D01*
X150446883Y-122025894D01*
X150377102Y-122029414D01*
X150318720Y-121995924D01*
X150288527Y-121985023D01*
X149539547Y-122734004D01*
X149527327Y-122656850D01*
X149468883Y-122542146D01*
X149377854Y-122451117D01*
X149263150Y-122392673D01*
X149185995Y-122380452D01*
X150096491Y-121469954D01*
X149997218Y-121338492D01*
X149838293Y-121193614D01*
X149838291Y-121193612D01*
X149741734Y-121133827D01*
X149695098Y-121081799D01*
X149683994Y-121012818D01*
X149711947Y-120948783D01*
X149770082Y-120910027D01*
X149807011Y-120904400D01*
X151004989Y-120904400D01*
X151072028Y-120924085D01*
G37*
%TD.AperFunction*%
%TA.AperFunction,Conductor*%
G36*
X153612028Y-120924085D02*
G01*
X153657783Y-120976889D01*
X153667727Y-121046047D01*
X153638702Y-121109603D01*
X153610266Y-121133827D01*
X153513708Y-121193612D01*
X153513706Y-121193614D01*
X153354780Y-121338493D01*
X153354778Y-121338496D01*
X153255506Y-121469954D01*
X154166005Y-122380452D01*
X154088850Y-122392673D01*
X153974146Y-122451117D01*
X153883117Y-122542146D01*
X153824673Y-122656850D01*
X153812452Y-122734005D01*
X153063469Y-121985022D01*
X153024090Y-121999241D01*
X152986883Y-122025894D01*
X152917102Y-122029414D01*
X152858720Y-121995924D01*
X152828527Y-121985023D01*
X152079547Y-122734004D01*
X152067327Y-122656850D01*
X152008883Y-122542146D01*
X151917854Y-122451117D01*
X151803150Y-122392673D01*
X151725995Y-122380452D01*
X152636491Y-121469954D01*
X152537218Y-121338492D01*
X152378293Y-121193614D01*
X152378291Y-121193612D01*
X152281734Y-121133827D01*
X152235098Y-121081799D01*
X152223994Y-121012818D01*
X152251947Y-120948783D01*
X152310082Y-120910027D01*
X152347011Y-120904400D01*
X153544989Y-120904400D01*
X153612028Y-120924085D01*
G37*
%TD.AperFunction*%
%TA.AperFunction,Conductor*%
G36*
X155463954Y-101224585D02*
G01*
X155509709Y-101277389D01*
X155519653Y-101346547D01*
X155490628Y-101410103D01*
X155484596Y-101416581D01*
X154724265Y-102176909D01*
X154662942Y-102210394D01*
X154593250Y-102205410D01*
X154537317Y-102163538D01*
X154536264Y-102162111D01*
X154528495Y-102151418D01*
X154365457Y-101995537D01*
X154177208Y-101871275D01*
X153969804Y-101782627D01*
X153969787Y-101782621D01*
X153749889Y-101732432D01*
X153524556Y-101722312D01*
X153301026Y-101752591D01*
X153086504Y-101822293D01*
X152887877Y-101929179D01*
X152887874Y-101929181D01*
X152711524Y-102069815D01*
X152563112Y-102239685D01*
X152517306Y-102316351D01*
X152517306Y-102316353D01*
X153449253Y-103248300D01*
X153438939Y-103249783D01*
X153308386Y-103309405D01*
X153199919Y-103403392D01*
X153122325Y-103524130D01*
X153098640Y-103604793D01*
X152332864Y-102839017D01*
X152327890Y-102866435D01*
X152327890Y-104544256D01*
X152335230Y-104625816D01*
X153098640Y-103862406D01*
X153122325Y-103943070D01*
X153199919Y-104063808D01*
X153308386Y-104157795D01*
X153438939Y-104217417D01*
X153449251Y-104218899D01*
X152515201Y-105152950D01*
X152515201Y-105152952D01*
X152633499Y-105315776D01*
X152633500Y-105315778D01*
X152796542Y-105471662D01*
X152984791Y-105595924D01*
X153192195Y-105684572D01*
X153192212Y-105684578D01*
X153230416Y-105693298D01*
X153291395Y-105727406D01*
X153324253Y-105789068D01*
X153318558Y-105858705D01*
X153290505Y-105901870D01*
X151564596Y-107627781D01*
X151503273Y-107661266D01*
X151476915Y-107664100D01*
X148088350Y-107664100D01*
X148083229Y-107663888D01*
X148049810Y-107661119D01*
X148038060Y-107660146D01*
X148038059Y-107660146D01*
X148038057Y-107660146D01*
X147994126Y-107671270D01*
X147989112Y-107672322D01*
X147944416Y-107679781D01*
X147944411Y-107679782D01*
X147943823Y-107680101D01*
X147915282Y-107691237D01*
X147914635Y-107691400D01*
X147914631Y-107691402D01*
X147876687Y-107716191D01*
X147872287Y-107718813D01*
X147832440Y-107740378D01*
X147832437Y-107740381D01*
X147831990Y-107740867D01*
X147808601Y-107760676D01*
X147808043Y-107761040D01*
X147780209Y-107796802D01*
X147776897Y-107800712D01*
X147746206Y-107834052D01*
X147746204Y-107834055D01*
X147745938Y-107834662D01*
X147730251Y-107860989D01*
X147729844Y-107861511D01*
X147729839Y-107861520D01*
X147715127Y-107904373D01*
X147713265Y-107909145D01*
X147695060Y-107950650D01*
X147695058Y-107950656D01*
X147695004Y-107951316D01*
X147688715Y-107981309D01*
X147688501Y-107981931D01*
X147688500Y-107981939D01*
X147688500Y-108027249D01*
X147688288Y-108032370D01*
X147684546Y-108077540D01*
X147684704Y-108078164D01*
X147688500Y-108108610D01*
X147688500Y-108168696D01*
X147668815Y-108235735D01*
X147622953Y-108278054D01*
X147507494Y-108339767D01*
X147507491Y-108339769D01*
X147354064Y-108465684D01*
X147228151Y-108619109D01*
X147134585Y-108794160D01*
X147076969Y-108984095D01*
X147065988Y-109095584D01*
X147063058Y-109125347D01*
X147062390Y-109132127D01*
X147062390Y-110739872D01*
X147076969Y-110887904D01*
X147076970Y-110887906D01*
X147134586Y-111077841D01*
X147227996Y-111252601D01*
X147228151Y-111252890D01*
X147271684Y-111305935D01*
X147298997Y-111370245D01*
X147287206Y-111439113D01*
X147240054Y-111490673D01*
X147175831Y-111508600D01*
X146424169Y-111508600D01*
X146357130Y-111488915D01*
X146311375Y-111436111D01*
X146301431Y-111366953D01*
X146328316Y-111305935D01*
X146366879Y-111258945D01*
X146371851Y-111252887D01*
X146465414Y-111077841D01*
X146523030Y-110887906D01*
X146537610Y-110739876D01*
X146537610Y-109132124D01*
X146523030Y-108984094D01*
X146465414Y-108794159D01*
X146371851Y-108619113D01*
X146371848Y-108619109D01*
X146245935Y-108465684D01*
X146092510Y-108339771D01*
X146092508Y-108339770D01*
X146092507Y-108339769D01*
X145917461Y-108246206D01*
X145917460Y-108246205D01*
X145917459Y-108246205D01*
X145758339Y-108197937D01*
X145727526Y-108188590D01*
X145727524Y-108188589D01*
X145727526Y-108188589D01*
X145530000Y-108169135D01*
X145332475Y-108188589D01*
X145142540Y-108246205D01*
X144967489Y-108339771D01*
X144814064Y-108465684D01*
X144688151Y-108619109D01*
X144594585Y-108794160D01*
X144536969Y-108984095D01*
X144525988Y-109095584D01*
X144523058Y-109125347D01*
X144522390Y-109132127D01*
X144522390Y-110739872D01*
X144536969Y-110887904D01*
X144536970Y-110887906D01*
X144594586Y-111077841D01*
X144687996Y-111252601D01*
X144688151Y-111252890D01*
X144731684Y-111305935D01*
X144758997Y-111370245D01*
X144747206Y-111439113D01*
X144700054Y-111490673D01*
X144635831Y-111508600D01*
X143884169Y-111508600D01*
X143817130Y-111488915D01*
X143771375Y-111436111D01*
X143761431Y-111366953D01*
X143788316Y-111305935D01*
X143826879Y-111258945D01*
X143831851Y-111252887D01*
X143925414Y-111077841D01*
X143983030Y-110887906D01*
X143997610Y-110739876D01*
X143997610Y-109132124D01*
X143983030Y-108984094D01*
X143925414Y-108794159D01*
X143831851Y-108619113D01*
X143831848Y-108619109D01*
X143705935Y-108465684D01*
X143552510Y-108339771D01*
X143552508Y-108339770D01*
X143552507Y-108339769D01*
X143377461Y-108246206D01*
X143377460Y-108246205D01*
X143377459Y-108246205D01*
X143218339Y-108197937D01*
X143187526Y-108188590D01*
X143187524Y-108188589D01*
X143187526Y-108188589D01*
X142990000Y-108169135D01*
X142792475Y-108188589D01*
X142602540Y-108246205D01*
X142427489Y-108339771D01*
X142274064Y-108465684D01*
X142148151Y-108619109D01*
X142054585Y-108794160D01*
X141996969Y-108984095D01*
X141985988Y-109095584D01*
X141983058Y-109125347D01*
X141982390Y-109132127D01*
X141982390Y-110739872D01*
X141996969Y-110887904D01*
X141996970Y-110887906D01*
X142054586Y-111077841D01*
X142147996Y-111252601D01*
X142148151Y-111252890D01*
X142191684Y-111305935D01*
X142218997Y-111370245D01*
X142207206Y-111439113D01*
X142160054Y-111490673D01*
X142095831Y-111508600D01*
X141344169Y-111508600D01*
X141277130Y-111488915D01*
X141231375Y-111436111D01*
X141221431Y-111366953D01*
X141248316Y-111305935D01*
X141286879Y-111258945D01*
X141291851Y-111252887D01*
X141385414Y-111077841D01*
X141443030Y-110887906D01*
X141457610Y-110739876D01*
X141457610Y-109132124D01*
X141443030Y-108984094D01*
X141385414Y-108794159D01*
X141291851Y-108619113D01*
X141291848Y-108619109D01*
X141165935Y-108465684D01*
X141012510Y-108339771D01*
X141012508Y-108339770D01*
X141012507Y-108339769D01*
X140837461Y-108246206D01*
X140837460Y-108246205D01*
X140837459Y-108246205D01*
X140678339Y-108197937D01*
X140647526Y-108188590D01*
X140647524Y-108188589D01*
X140647526Y-108188589D01*
X140450000Y-108169135D01*
X140252475Y-108188589D01*
X140062540Y-108246205D01*
X139887489Y-108339771D01*
X139734064Y-108465684D01*
X139608151Y-108619109D01*
X139514585Y-108794160D01*
X139456969Y-108984095D01*
X139445988Y-109095584D01*
X139443058Y-109125347D01*
X139442390Y-109132127D01*
X139442390Y-110739872D01*
X139456969Y-110887904D01*
X139456970Y-110887906D01*
X139514586Y-111077841D01*
X139607996Y-111252601D01*
X139608151Y-111252890D01*
X139651684Y-111305935D01*
X139678997Y-111370245D01*
X139667206Y-111439113D01*
X139620054Y-111490673D01*
X139555831Y-111508600D01*
X138804169Y-111508600D01*
X138737130Y-111488915D01*
X138691375Y-111436111D01*
X138681431Y-111366953D01*
X138708316Y-111305935D01*
X138746879Y-111258945D01*
X138751851Y-111252887D01*
X138845414Y-111077841D01*
X138903030Y-110887906D01*
X138917610Y-110739876D01*
X138917610Y-109132124D01*
X138903030Y-108984094D01*
X138845414Y-108794159D01*
X138751851Y-108619113D01*
X138751848Y-108619109D01*
X138625935Y-108465684D01*
X138472510Y-108339771D01*
X138472508Y-108339770D01*
X138472507Y-108339769D01*
X138297461Y-108246206D01*
X138297460Y-108246205D01*
X138297459Y-108246205D01*
X138138339Y-108197937D01*
X138107526Y-108188590D01*
X138107524Y-108188589D01*
X138107526Y-108188589D01*
X137910000Y-108169135D01*
X137712475Y-108188589D01*
X137522540Y-108246205D01*
X137347489Y-108339771D01*
X137194064Y-108465684D01*
X137068151Y-108619109D01*
X136974585Y-108794160D01*
X136916969Y-108984095D01*
X136905988Y-109095584D01*
X136903058Y-109125347D01*
X136902390Y-109132127D01*
X136902390Y-110739872D01*
X136916969Y-110887904D01*
X136916970Y-110887906D01*
X136974586Y-111077841D01*
X137067996Y-111252601D01*
X137068151Y-111252890D01*
X137111684Y-111305935D01*
X137138997Y-111370245D01*
X137127206Y-111439113D01*
X137080054Y-111490673D01*
X137015831Y-111508600D01*
X136264169Y-111508600D01*
X136197130Y-111488915D01*
X136151375Y-111436111D01*
X136141431Y-111366953D01*
X136168316Y-111305935D01*
X136206879Y-111258945D01*
X136211851Y-111252887D01*
X136305414Y-111077841D01*
X136363030Y-110887906D01*
X136377610Y-110739876D01*
X136377610Y-109132124D01*
X136363030Y-108984094D01*
X136305414Y-108794159D01*
X136211851Y-108619113D01*
X136211848Y-108619109D01*
X136085935Y-108465684D01*
X135932508Y-108339769D01*
X135932505Y-108339767D01*
X135873278Y-108308110D01*
X135823433Y-108259148D01*
X135807973Y-108191010D01*
X135831805Y-108125330D01*
X135844043Y-108111078D01*
X137913304Y-106041819D01*
X137974627Y-106008334D01*
X138000985Y-106005500D01*
X151022650Y-106005500D01*
X151027771Y-106005712D01*
X151047429Y-106007340D01*
X151072940Y-106009454D01*
X151116873Y-105998327D01*
X151121883Y-105997276D01*
X151166586Y-105989818D01*
X151167151Y-105989512D01*
X151195737Y-105978357D01*
X151196366Y-105978198D01*
X151234321Y-105953400D01*
X151238709Y-105950787D01*
X151244238Y-105947795D01*
X151278562Y-105929220D01*
X151278995Y-105928749D01*
X151302420Y-105908909D01*
X151302956Y-105908560D01*
X151330809Y-105872772D01*
X151334088Y-105868900D01*
X151364795Y-105835546D01*
X151365056Y-105834950D01*
X151380761Y-105808594D01*
X151381158Y-105808085D01*
X151395873Y-105765221D01*
X151397737Y-105760444D01*
X151415940Y-105718948D01*
X151415993Y-105718296D01*
X151422290Y-105688271D01*
X151422500Y-105687661D01*
X151422500Y-105642337D01*
X151422712Y-105637215D01*
X151424904Y-105610770D01*
X151426454Y-105592060D01*
X151426453Y-105592059D01*
X151426454Y-105592058D01*
X151426294Y-105591425D01*
X151422500Y-105560988D01*
X151422500Y-105500903D01*
X151442185Y-105433864D01*
X151488046Y-105391545D01*
X151603507Y-105329831D01*
X151756935Y-105203915D01*
X151882851Y-105050487D01*
X151976414Y-104875441D01*
X152034030Y-104685506D01*
X152048610Y-104537476D01*
X152048610Y-102929724D01*
X152034030Y-102781694D01*
X151976414Y-102591759D01*
X151882851Y-102416713D01*
X151880013Y-102413255D01*
X151756935Y-102263284D01*
X151603510Y-102137371D01*
X151603508Y-102137370D01*
X151603507Y-102137369D01*
X151428461Y-102043806D01*
X151428460Y-102043805D01*
X151428459Y-102043805D01*
X151269339Y-101995537D01*
X151238526Y-101986190D01*
X151238524Y-101986189D01*
X151238526Y-101986189D01*
X151041000Y-101966735D01*
X150843475Y-101986189D01*
X150653540Y-102043805D01*
X150478489Y-102137371D01*
X150325064Y-102263284D01*
X150199151Y-102416709D01*
X150105585Y-102591760D01*
X150047969Y-102781695D01*
X150033390Y-102929727D01*
X150033390Y-104537472D01*
X150047969Y-104685504D01*
X150047970Y-104685506D01*
X150105586Y-104875441D01*
X150199149Y-105050487D01*
X150199150Y-105050489D01*
X150202021Y-105055859D01*
X150200735Y-105056545D01*
X150219440Y-105116294D01*
X150200952Y-105183673D01*
X150148970Y-105230360D01*
X150095460Y-105242500D01*
X149446540Y-105242500D01*
X149379501Y-105222815D01*
X149333746Y-105170011D01*
X149323802Y-105100853D01*
X149340860Y-105056330D01*
X149339979Y-105055859D01*
X149342849Y-105050489D01*
X149342851Y-105050487D01*
X149436414Y-104875441D01*
X149494030Y-104685506D01*
X149508610Y-104537476D01*
X149508610Y-102929724D01*
X149494030Y-102781694D01*
X149436414Y-102591759D01*
X149342851Y-102416713D01*
X149340013Y-102413255D01*
X149216935Y-102263284D01*
X149063508Y-102137369D01*
X149063505Y-102137367D01*
X149004278Y-102105710D01*
X148954433Y-102056748D01*
X148938973Y-101988610D01*
X148962805Y-101922930D01*
X148975043Y-101908678D01*
X149642504Y-101241219D01*
X149703827Y-101207734D01*
X149730185Y-101204900D01*
X155396915Y-101204900D01*
X155463954Y-101224585D01*
G37*
%TD.AperFunction*%
%TA.AperFunction,Conductor*%
G36*
X157112408Y-93460785D02*
G01*
X157158163Y-93513589D01*
X157162515Y-93528962D01*
X158098253Y-94464700D01*
X158087939Y-94466183D01*
X157957386Y-94525805D01*
X157848919Y-94619792D01*
X157771325Y-94740530D01*
X157747640Y-94821193D01*
X156981864Y-94055417D01*
X156976890Y-94082835D01*
X156976890Y-95760656D01*
X156984230Y-95842216D01*
X157747640Y-95078806D01*
X157771325Y-95159470D01*
X157848919Y-95280208D01*
X157957386Y-95374195D01*
X158087939Y-95433817D01*
X158098252Y-95435299D01*
X157152120Y-96381430D01*
X157141265Y-96409915D01*
X157085035Y-96451387D01*
X157042529Y-96458900D01*
X156635540Y-96458900D01*
X156568501Y-96439215D01*
X156522746Y-96386411D01*
X156512802Y-96317253D01*
X156529860Y-96272730D01*
X156528979Y-96272259D01*
X156531849Y-96266889D01*
X156531851Y-96266887D01*
X156625414Y-96091841D01*
X156683030Y-95901906D01*
X156697610Y-95753876D01*
X156697610Y-94146124D01*
X156683030Y-93998094D01*
X156625414Y-93808159D01*
X156531851Y-93633113D01*
X156531848Y-93633109D01*
X156528979Y-93627741D01*
X156530264Y-93627054D01*
X156511560Y-93567306D01*
X156530048Y-93499927D01*
X156582030Y-93453240D01*
X156635540Y-93441100D01*
X157045369Y-93441100D01*
X157112408Y-93460785D01*
G37*
%TD.AperFunction*%
%TA.AperFunction,Conductor*%
G36*
X159891499Y-93460785D02*
G01*
X159937254Y-93513589D01*
X159947198Y-93582747D01*
X159930139Y-93627269D01*
X159931021Y-93627741D01*
X159928152Y-93633109D01*
X159928149Y-93633113D01*
X159888202Y-93707850D01*
X159834585Y-93808160D01*
X159776969Y-93998095D01*
X159765988Y-94109584D01*
X159762390Y-94146124D01*
X159762390Y-95753876D01*
X159767188Y-95802594D01*
X159776969Y-95901904D01*
X159801155Y-95981632D01*
X159834586Y-96091841D01*
X159928149Y-96266887D01*
X159928150Y-96266889D01*
X159931021Y-96272259D01*
X159929735Y-96272945D01*
X159948440Y-96332694D01*
X159929952Y-96400073D01*
X159877970Y-96446760D01*
X159824460Y-96458900D01*
X159414631Y-96458900D01*
X159347592Y-96439215D01*
X159301837Y-96386411D01*
X159297483Y-96371036D01*
X158361746Y-95435299D01*
X158372061Y-95433817D01*
X158502614Y-95374195D01*
X158611081Y-95280208D01*
X158688675Y-95159470D01*
X158712359Y-95078806D01*
X159478132Y-95844580D01*
X159478134Y-95844580D01*
X159483110Y-95817164D01*
X159483110Y-94139347D01*
X159475768Y-94057783D01*
X158712359Y-94821192D01*
X158688675Y-94740530D01*
X158611081Y-94619792D01*
X158502614Y-94525805D01*
X158372061Y-94466183D01*
X158361747Y-94464700D01*
X159307880Y-93518565D01*
X159318738Y-93490080D01*
X159374970Y-93448611D01*
X159417470Y-93441100D01*
X159824460Y-93441100D01*
X159891499Y-93460785D01*
G37*
%TD.AperFunction*%
%TA.AperFunction,Conductor*%
G36*
X188470426Y-83514691D02*
G01*
X188502521Y-83517216D01*
X188645136Y-83528440D01*
X188664346Y-83531483D01*
X188827638Y-83570686D01*
X188846130Y-83576694D01*
X188969090Y-83627626D01*
X189001277Y-83640959D01*
X189018614Y-83649793D01*
X189161786Y-83737529D01*
X189177527Y-83748965D01*
X189305217Y-83858022D01*
X189318977Y-83871782D01*
X189428034Y-83999472D01*
X189439470Y-84015213D01*
X189527206Y-84158385D01*
X189536040Y-84175722D01*
X189600302Y-84330862D01*
X189606315Y-84349368D01*
X189645515Y-84512648D01*
X189648559Y-84531866D01*
X189662309Y-84706573D01*
X189662500Y-84711440D01*
X189662500Y-125346292D01*
X189662264Y-125351698D01*
X189647227Y-125523561D01*
X189643474Y-125544846D01*
X189600929Y-125703627D01*
X189593536Y-125723939D01*
X189524067Y-125872915D01*
X189513260Y-125891633D01*
X189418971Y-126026292D01*
X189405077Y-126042850D01*
X189288850Y-126159077D01*
X189272292Y-126172971D01*
X189137633Y-126267260D01*
X189118915Y-126278067D01*
X188969939Y-126347536D01*
X188949627Y-126354929D01*
X188790846Y-126397474D01*
X188769561Y-126401227D01*
X188629729Y-126413461D01*
X188597695Y-126416264D01*
X188592293Y-126416500D01*
X128780707Y-126416500D01*
X128775304Y-126416264D01*
X128738923Y-126413081D01*
X128603438Y-126401227D01*
X128582153Y-126397474D01*
X128423372Y-126354929D01*
X128403060Y-126347536D01*
X128254084Y-126278067D01*
X128235366Y-126267260D01*
X128100707Y-126172971D01*
X128084149Y-126159077D01*
X127967922Y-126042850D01*
X127954028Y-126026292D01*
X127859739Y-125891633D01*
X127848932Y-125872915D01*
X127779463Y-125723939D01*
X127772070Y-125703627D01*
X127729525Y-125544846D01*
X127725772Y-125523560D01*
X127722918Y-125490944D01*
X127710735Y-125351696D01*
X127710500Y-125346292D01*
X127710500Y-121514000D01*
X129988619Y-121514000D01*
X130007303Y-121715642D01*
X130007304Y-121715644D01*
X130062721Y-121910415D01*
X130062727Y-121910430D01*
X130152988Y-122091697D01*
X130275027Y-122253303D01*
X130424679Y-122389728D01*
X130424681Y-122389730D01*
X130596851Y-122496333D01*
X130596853Y-122496334D01*
X130596855Y-122496335D01*
X130785687Y-122569489D01*
X130984746Y-122606700D01*
X130984748Y-122606700D01*
X131187252Y-122606700D01*
X131187254Y-122606700D01*
X131386313Y-122569489D01*
X131575145Y-122496335D01*
X131747320Y-122389729D01*
X131896974Y-122253301D01*
X132019012Y-122091697D01*
X132109277Y-121910420D01*
X132164696Y-121715643D01*
X132183381Y-121514000D01*
X132174470Y-121417840D01*
X132164696Y-121312357D01*
X132164695Y-121312355D01*
X132141184Y-121229723D01*
X132109277Y-121117580D01*
X132091460Y-121081799D01*
X132025226Y-120948783D01*
X132019012Y-120936303D01*
X131896974Y-120774699D01*
X131896972Y-120774696D01*
X131747320Y-120638271D01*
X131747318Y-120638269D01*
X131575148Y-120531666D01*
X131575139Y-120531662D01*
X131433521Y-120476799D01*
X131386313Y-120458511D01*
X131187254Y-120421300D01*
X130984746Y-120421300D01*
X130785687Y-120458511D01*
X130785684Y-120458511D01*
X130785684Y-120458512D01*
X130596860Y-120531662D01*
X130596851Y-120531666D01*
X130424681Y-120638269D01*
X130424679Y-120638271D01*
X130275027Y-120774696D01*
X130152988Y-120936302D01*
X130062727Y-121117569D01*
X130062721Y-121117584D01*
X130007304Y-121312355D01*
X130007303Y-121312357D01*
X129988619Y-121513999D01*
X129988619Y-121514000D01*
X127710500Y-121514000D01*
X127710500Y-118974000D01*
X129988619Y-118974000D01*
X130007303Y-119175642D01*
X130007304Y-119175644D01*
X130062721Y-119370415D01*
X130062727Y-119370430D01*
X130152988Y-119551697D01*
X130275027Y-119713303D01*
X130424679Y-119849728D01*
X130424681Y-119849730D01*
X130596851Y-119956333D01*
X130596853Y-119956334D01*
X130596855Y-119956335D01*
X130785687Y-120029489D01*
X130984746Y-120066700D01*
X130984748Y-120066700D01*
X131187252Y-120066700D01*
X131187254Y-120066700D01*
X131386313Y-120029489D01*
X131575145Y-119956335D01*
X131747320Y-119849729D01*
X131896974Y-119713301D01*
X132019012Y-119551697D01*
X132109277Y-119370420D01*
X132164696Y-119175643D01*
X132183381Y-118974000D01*
X132528619Y-118974000D01*
X132547303Y-119175642D01*
X132547304Y-119175644D01*
X132602721Y-119370415D01*
X132602727Y-119370430D01*
X132692988Y-119551697D01*
X132815027Y-119713303D01*
X132964679Y-119849728D01*
X132964681Y-119849730D01*
X133136851Y-119956333D01*
X133136853Y-119956334D01*
X133136855Y-119956335D01*
X133325687Y-120029489D01*
X133524746Y-120066700D01*
X133524748Y-120066700D01*
X133727252Y-120066700D01*
X133727254Y-120066700D01*
X133926313Y-120029489D01*
X134115145Y-119956335D01*
X134287320Y-119849729D01*
X134436974Y-119713301D01*
X134559012Y-119551697D01*
X134649277Y-119370420D01*
X134704696Y-119175643D01*
X134723381Y-118974000D01*
X134714470Y-118877840D01*
X134704696Y-118772357D01*
X134704695Y-118772355D01*
X134681184Y-118689723D01*
X134649277Y-118577580D01*
X134617630Y-118514025D01*
X134605280Y-118489223D01*
X134559012Y-118396303D01*
X134479266Y-118290703D01*
X134436972Y-118234696D01*
X134287320Y-118098271D01*
X134287318Y-118098269D01*
X134115148Y-117991666D01*
X134115139Y-117991662D01*
X133973233Y-117936688D01*
X133926313Y-117918511D01*
X133727254Y-117881300D01*
X133524746Y-117881300D01*
X133325687Y-117918511D01*
X133325684Y-117918511D01*
X133325684Y-117918512D01*
X133136860Y-117991662D01*
X133136851Y-117991666D01*
X132964681Y-118098269D01*
X132964679Y-118098271D01*
X132815027Y-118234696D01*
X132692988Y-118396302D01*
X132602727Y-118577569D01*
X132602721Y-118577584D01*
X132547304Y-118772355D01*
X132547303Y-118772357D01*
X132528619Y-118973999D01*
X132528619Y-118974000D01*
X132183381Y-118974000D01*
X132174470Y-118877840D01*
X132164696Y-118772357D01*
X132164695Y-118772355D01*
X132141184Y-118689723D01*
X132109277Y-118577580D01*
X132077630Y-118514025D01*
X132065280Y-118489223D01*
X132019012Y-118396303D01*
X131939266Y-118290703D01*
X131896972Y-118234696D01*
X131747320Y-118098271D01*
X131747318Y-118098269D01*
X131575148Y-117991666D01*
X131575139Y-117991662D01*
X131433233Y-117936688D01*
X131386313Y-117918511D01*
X131187254Y-117881300D01*
X130984746Y-117881300D01*
X130785687Y-117918511D01*
X130785684Y-117918511D01*
X130785684Y-117918512D01*
X130596860Y-117991662D01*
X130596851Y-117991666D01*
X130424681Y-118098269D01*
X130424679Y-118098271D01*
X130275027Y-118234696D01*
X130152988Y-118396302D01*
X130062727Y-118577569D01*
X130062721Y-118577584D01*
X130007304Y-118772355D01*
X130007303Y-118772357D01*
X129988619Y-118973999D01*
X129988619Y-118974000D01*
X127710500Y-118974000D01*
X127710500Y-109886096D01*
X127690498Y-109759812D01*
X127680497Y-109696667D01*
X127621228Y-109514258D01*
X127534155Y-109343367D01*
X127533673Y-109342704D01*
X127533568Y-109342410D01*
X127531609Y-109339212D01*
X127532281Y-109338800D01*
X127510201Y-109276896D01*
X127510000Y-109269830D01*
X127510000Y-108890000D01*
X127062576Y-108890000D01*
X127006282Y-108876485D01*
X126959742Y-108852772D01*
X126777333Y-108793503D01*
X126777331Y-108793502D01*
X126777329Y-108793502D01*
X126587903Y-108763500D01*
X126587898Y-108763500D01*
X126519480Y-108763500D01*
X108460707Y-108763500D01*
X108455304Y-108763264D01*
X108418923Y-108760081D01*
X108283438Y-108748227D01*
X108262153Y-108744474D01*
X108103372Y-108701929D01*
X108083060Y-108694536D01*
X107934084Y-108625067D01*
X107915366Y-108614260D01*
X107780707Y-108519971D01*
X107764149Y-108506077D01*
X107647922Y-108389850D01*
X107634028Y-108373292D01*
X107539739Y-108238633D01*
X107528932Y-108219915D01*
X107459463Y-108070939D01*
X107452070Y-108050627D01*
X107434491Y-107985021D01*
X107409524Y-107891843D01*
X107405772Y-107870560D01*
X107404980Y-107861512D01*
X107390735Y-107698696D01*
X107390500Y-107693292D01*
X107390500Y-104537472D01*
X117013390Y-104537472D01*
X117027969Y-104685504D01*
X117027970Y-104685506D01*
X117085586Y-104875441D01*
X117152556Y-105000735D01*
X117179151Y-105050490D01*
X117305064Y-105203915D01*
X117458489Y-105329828D01*
X117458493Y-105329831D01*
X117633539Y-105423394D01*
X117823474Y-105481010D01*
X117823473Y-105481010D01*
X117841183Y-105482754D01*
X118021000Y-105500465D01*
X118218526Y-105481010D01*
X118408461Y-105423394D01*
X118583507Y-105329831D01*
X118736935Y-105203915D01*
X118862851Y-105050487D01*
X118956414Y-104875441D01*
X119014030Y-104685506D01*
X119028610Y-104537476D01*
X119028610Y-104537472D01*
X119553390Y-104537472D01*
X119567969Y-104685504D01*
X119567970Y-104685506D01*
X119625586Y-104875441D01*
X119692556Y-105000735D01*
X119719151Y-105050490D01*
X119845064Y-105203915D01*
X119998489Y-105329828D01*
X119998493Y-105329831D01*
X120173539Y-105423394D01*
X120363474Y-105481010D01*
X120363473Y-105481010D01*
X120381183Y-105482754D01*
X120561000Y-105500465D01*
X120758526Y-105481010D01*
X120948461Y-105423394D01*
X121123507Y-105329831D01*
X121276935Y-105203915D01*
X121402851Y-105050487D01*
X121496414Y-104875441D01*
X121554030Y-104685506D01*
X121568610Y-104537476D01*
X121568610Y-104537472D01*
X122093390Y-104537472D01*
X122107969Y-104685504D01*
X122107970Y-104685506D01*
X122165586Y-104875441D01*
X122232556Y-105000735D01*
X122259151Y-105050490D01*
X122385064Y-105203915D01*
X122538489Y-105329828D01*
X122538493Y-105329831D01*
X122713539Y-105423394D01*
X122903474Y-105481010D01*
X122903473Y-105481010D01*
X122921183Y-105482754D01*
X123101000Y-105500465D01*
X123298526Y-105481010D01*
X123488461Y-105423394D01*
X123663507Y-105329831D01*
X123816935Y-105203915D01*
X123942851Y-105050487D01*
X124036414Y-104875441D01*
X124094030Y-104685506D01*
X124108610Y-104537476D01*
X124108610Y-104537472D01*
X124633390Y-104537472D01*
X124647969Y-104685504D01*
X124647970Y-104685506D01*
X124705586Y-104875441D01*
X124772556Y-105000735D01*
X124799151Y-105050490D01*
X124925064Y-105203915D01*
X124984716Y-105252870D01*
X125078493Y-105329831D01*
X125193952Y-105391544D01*
X125243797Y-105440506D01*
X125259500Y-105500903D01*
X125259500Y-105810272D01*
X125256861Y-105835720D01*
X125254554Y-105846717D01*
X125259023Y-105882565D01*
X125259500Y-105890241D01*
X125259500Y-105894311D01*
X125260625Y-105901053D01*
X125263403Y-105917705D01*
X125270304Y-105973061D01*
X125272580Y-105980709D01*
X125275181Y-105988285D01*
X125301729Y-106037341D01*
X125326224Y-106087447D01*
X125330869Y-106093953D01*
X125335782Y-106100264D01*
X125376819Y-106138042D01*
X132931765Y-113692988D01*
X132947893Y-113712848D01*
X132954038Y-113722254D01*
X132954039Y-113722255D01*
X132954040Y-113722256D01*
X132982544Y-113744441D01*
X132988301Y-113749524D01*
X132991191Y-113752414D01*
X133010500Y-113766200D01*
X133054515Y-113800458D01*
X133054522Y-113800460D01*
X133061552Y-113804265D01*
X133068725Y-113807771D01*
X133068730Y-113807775D01*
X133104367Y-113818384D01*
X133122185Y-113823689D01*
X133148562Y-113832744D01*
X133174939Y-113841800D01*
X133174940Y-113841800D01*
X133182819Y-113843115D01*
X133190758Y-113844104D01*
X133190759Y-113844105D01*
X133190759Y-113844104D01*
X133190760Y-113844105D01*
X133218621Y-113842952D01*
X133246484Y-113841800D01*
X148246880Y-113841800D01*
X148313919Y-113861485D01*
X148359674Y-113914289D01*
X148369618Y-113983447D01*
X148354267Y-114027799D01*
X148295595Y-114129421D01*
X148295590Y-114129432D01*
X148236164Y-114312329D01*
X148236163Y-114312331D01*
X148236163Y-114312334D01*
X148221100Y-114455648D01*
X148221100Y-115872352D01*
X148231343Y-115969811D01*
X148236163Y-116015668D01*
X148236164Y-116015670D01*
X148295590Y-116198567D01*
X148295595Y-116198578D01*
X148354267Y-116300201D01*
X148370740Y-116368101D01*
X148347887Y-116434128D01*
X148292966Y-116477318D01*
X148246880Y-116486200D01*
X146063084Y-116486200D01*
X145996045Y-116466515D01*
X145975403Y-116449881D01*
X145236569Y-115711047D01*
X144480733Y-114955210D01*
X144464605Y-114935350D01*
X144458460Y-114925944D01*
X144429949Y-114903753D01*
X144424187Y-114898664D01*
X144421309Y-114895786D01*
X144401999Y-114881999D01*
X144379992Y-114864870D01*
X144357986Y-114847742D01*
X144350970Y-114843945D01*
X144343772Y-114840426D01*
X144343770Y-114840425D01*
X144343767Y-114840424D01*
X144290313Y-114824509D01*
X144237562Y-114806399D01*
X144229679Y-114805084D01*
X144221739Y-114804094D01*
X144168067Y-114806315D01*
X144166016Y-114806400D01*
X132384532Y-114806400D01*
X132359086Y-114803761D01*
X132357750Y-114803481D01*
X132348084Y-114801454D01*
X132348083Y-114801454D01*
X132348082Y-114801454D01*
X132312228Y-114805923D01*
X132304552Y-114806400D01*
X132300487Y-114806400D01*
X132277103Y-114810302D01*
X132221744Y-114817202D01*
X132214082Y-114819484D01*
X132206511Y-114822083D01*
X132157468Y-114848623D01*
X132107354Y-114873122D01*
X132100853Y-114877763D01*
X132094540Y-114882677D01*
X132056769Y-114923707D01*
X131598882Y-115381593D01*
X131537559Y-115415078D01*
X131467867Y-115410094D01*
X131466408Y-115409539D01*
X131386317Y-115378512D01*
X131386314Y-115378511D01*
X131386313Y-115378511D01*
X131187254Y-115341300D01*
X130984746Y-115341300D01*
X130785687Y-115378511D01*
X130785684Y-115378511D01*
X130785684Y-115378512D01*
X130596860Y-115451662D01*
X130596851Y-115451666D01*
X130424681Y-115558269D01*
X130424679Y-115558271D01*
X130275027Y-115694696D01*
X130152988Y-115856302D01*
X130062727Y-116037569D01*
X130062721Y-116037584D01*
X130007304Y-116232355D01*
X130007303Y-116232357D01*
X129988619Y-116433999D01*
X129988619Y-116434000D01*
X130007303Y-116635642D01*
X130007304Y-116635644D01*
X130062721Y-116830415D01*
X130062727Y-116830430D01*
X130152988Y-117011697D01*
X130275027Y-117173303D01*
X130424679Y-117309728D01*
X130424681Y-117309730D01*
X130596851Y-117416333D01*
X130596853Y-117416334D01*
X130596855Y-117416335D01*
X130785687Y-117489489D01*
X130984746Y-117526700D01*
X130984748Y-117526700D01*
X131187252Y-117526700D01*
X131187254Y-117526700D01*
X131386313Y-117489489D01*
X131575145Y-117416335D01*
X131747320Y-117309729D01*
X131896974Y-117173301D01*
X132019012Y-117011697D01*
X132109277Y-116830420D01*
X132164696Y-116635643D01*
X132183381Y-116434000D01*
X132164696Y-116232357D01*
X132109873Y-116039674D01*
X132110459Y-115969811D01*
X132141454Y-115918066D01*
X132453805Y-115605717D01*
X132515127Y-115572234D01*
X132541485Y-115569400D01*
X132660622Y-115569400D01*
X132727661Y-115589085D01*
X132773416Y-115641889D01*
X132783360Y-115711047D01*
X132759576Y-115768127D01*
X132692988Y-115856302D01*
X132602727Y-116037569D01*
X132602721Y-116037584D01*
X132547304Y-116232355D01*
X132547303Y-116232357D01*
X132528619Y-116433999D01*
X132528619Y-116434000D01*
X132547303Y-116635642D01*
X132547304Y-116635644D01*
X132602721Y-116830415D01*
X132602727Y-116830430D01*
X132692988Y-117011697D01*
X132815027Y-117173303D01*
X132964679Y-117309728D01*
X132964681Y-117309730D01*
X133136851Y-117416333D01*
X133136853Y-117416334D01*
X133136855Y-117416335D01*
X133325687Y-117489489D01*
X133524746Y-117526700D01*
X133524748Y-117526700D01*
X133727252Y-117526700D01*
X133727254Y-117526700D01*
X133926313Y-117489489D01*
X134006411Y-117458458D01*
X134076029Y-117452596D01*
X134137769Y-117485305D01*
X134138882Y-117486404D01*
X137408065Y-120755588D01*
X137424193Y-120775448D01*
X137430338Y-120784854D01*
X137430339Y-120784855D01*
X137430340Y-120784856D01*
X137458844Y-120807041D01*
X137464601Y-120812124D01*
X137467491Y-120815014D01*
X137486800Y-120828800D01*
X137530815Y-120863058D01*
X137530822Y-120863060D01*
X137537852Y-120866865D01*
X137545025Y-120870371D01*
X137545030Y-120870375D01*
X137580667Y-120880984D01*
X137598485Y-120886289D01*
X137624862Y-120895344D01*
X137651239Y-120904400D01*
X137651240Y-120904400D01*
X137659119Y-120905715D01*
X137667058Y-120906704D01*
X137667059Y-120906705D01*
X137667059Y-120906704D01*
X137667060Y-120906705D01*
X137694921Y-120905552D01*
X137722784Y-120904400D01*
X148464989Y-120904400D01*
X148532028Y-120924085D01*
X148577783Y-120976889D01*
X148587727Y-121046047D01*
X148558702Y-121109603D01*
X148530266Y-121133827D01*
X148433708Y-121193612D01*
X148433706Y-121193614D01*
X148274780Y-121338493D01*
X148274778Y-121338496D01*
X148175506Y-121469954D01*
X149086005Y-122380452D01*
X149008850Y-122392673D01*
X148894146Y-122451117D01*
X148803117Y-122542146D01*
X148744673Y-122656850D01*
X148732452Y-122734005D01*
X147983470Y-121985023D01*
X147975600Y-122069958D01*
X147975600Y-123498042D01*
X147983469Y-123582975D01*
X148732452Y-122833994D01*
X148744673Y-122911150D01*
X148803117Y-123025854D01*
X148894146Y-123116883D01*
X149008850Y-123175327D01*
X149086005Y-123187547D01*
X148175507Y-124098044D01*
X148274781Y-124229507D01*
X148433706Y-124374385D01*
X148433708Y-124374387D01*
X148616544Y-124487594D01*
X148617361Y-124488001D01*
X148617682Y-124488298D01*
X148621423Y-124490615D01*
X148620969Y-124491346D01*
X148668597Y-124535506D01*
X148686016Y-124603169D01*
X148664088Y-124669509D01*
X148609776Y-124713463D01*
X148562086Y-124723000D01*
X137425885Y-124723000D01*
X137358846Y-124703315D01*
X137338204Y-124686681D01*
X134681459Y-122029936D01*
X134647974Y-121968613D01*
X134649874Y-121908321D01*
X134663203Y-121861475D01*
X134704696Y-121715643D01*
X134723381Y-121514000D01*
X134714470Y-121417840D01*
X134704696Y-121312357D01*
X134704695Y-121312355D01*
X134681184Y-121229723D01*
X134649277Y-121117580D01*
X134631460Y-121081799D01*
X134565226Y-120948783D01*
X134559012Y-120936303D01*
X134436974Y-120774699D01*
X134436972Y-120774696D01*
X134287320Y-120638271D01*
X134287318Y-120638269D01*
X134115148Y-120531666D01*
X134115139Y-120531662D01*
X133973521Y-120476799D01*
X133926313Y-120458511D01*
X133727254Y-120421300D01*
X133524746Y-120421300D01*
X133325687Y-120458511D01*
X133325684Y-120458511D01*
X133325684Y-120458512D01*
X133136860Y-120531662D01*
X133136851Y-120531666D01*
X132964681Y-120638269D01*
X132964679Y-120638271D01*
X132815027Y-120774696D01*
X132692988Y-120936302D01*
X132602727Y-121117569D01*
X132602721Y-121117584D01*
X132547304Y-121312355D01*
X132547303Y-121312357D01*
X132528619Y-121513999D01*
X132528619Y-121514000D01*
X132547303Y-121715642D01*
X132547304Y-121715644D01*
X132602721Y-121910415D01*
X132602727Y-121910430D01*
X132692988Y-122091697D01*
X132815027Y-122253303D01*
X132964679Y-122389728D01*
X132964681Y-122389730D01*
X133136851Y-122496333D01*
X133136853Y-122496334D01*
X133136855Y-122496335D01*
X133325687Y-122569489D01*
X133524746Y-122606700D01*
X133524748Y-122606700D01*
X133727252Y-122606700D01*
X133727254Y-122606700D01*
X133926313Y-122569489D01*
X134006411Y-122538458D01*
X134076029Y-122532596D01*
X134137769Y-122565305D01*
X134138882Y-122566404D01*
X136909665Y-125337188D01*
X136925793Y-125357048D01*
X136931938Y-125366454D01*
X136931939Y-125366455D01*
X136931940Y-125366456D01*
X136934799Y-125368681D01*
X136960444Y-125388641D01*
X136966201Y-125393724D01*
X136969091Y-125396614D01*
X136988400Y-125410400D01*
X137032415Y-125444658D01*
X137032422Y-125444660D01*
X137039452Y-125448465D01*
X137046625Y-125451971D01*
X137046630Y-125451975D01*
X137082267Y-125462584D01*
X137100085Y-125467889D01*
X137126462Y-125476944D01*
X137152839Y-125486000D01*
X137152840Y-125486000D01*
X137160719Y-125487315D01*
X137168658Y-125488304D01*
X137168659Y-125488305D01*
X137168659Y-125488304D01*
X137168660Y-125488305D01*
X137212852Y-125486477D01*
X137224384Y-125486000D01*
X182564373Y-125486000D01*
X182589818Y-125488639D01*
X182593761Y-125489465D01*
X182600817Y-125490945D01*
X182619376Y-125488631D01*
X182636666Y-125486477D01*
X182644342Y-125486000D01*
X182648408Y-125486000D01*
X182648411Y-125486000D01*
X182671804Y-125482096D01*
X182727160Y-125475196D01*
X182734813Y-125472916D01*
X182742382Y-125470318D01*
X182742386Y-125470318D01*
X182791441Y-125443770D01*
X182841546Y-125419276D01*
X182841548Y-125419274D01*
X182848063Y-125414622D01*
X182854358Y-125409723D01*
X182854359Y-125409721D01*
X182854362Y-125409720D01*
X182892140Y-125368681D01*
X183471993Y-124788828D01*
X183491842Y-124772709D01*
X183501256Y-124766560D01*
X183523455Y-124738036D01*
X183528526Y-124732296D01*
X183531414Y-124729409D01*
X183545200Y-124710099D01*
X183579458Y-124666085D01*
X183579459Y-124666079D01*
X183583257Y-124659064D01*
X183586768Y-124651878D01*
X183586775Y-124651870D01*
X183596557Y-124619009D01*
X183602690Y-124598413D01*
X183611611Y-124572424D01*
X183620800Y-124545661D01*
X183620800Y-124545658D01*
X183622115Y-124537780D01*
X183623105Y-124529839D01*
X183620800Y-124474116D01*
X183620800Y-113474128D01*
X183623439Y-113448683D01*
X183625168Y-113440434D01*
X183625745Y-113437684D01*
X183623653Y-113420901D01*
X183621277Y-113401834D01*
X183620800Y-113394158D01*
X183620800Y-113390091D01*
X183620799Y-113390082D01*
X183616895Y-113366693D01*
X183613902Y-113342681D01*
X183609996Y-113311340D01*
X183609993Y-113311334D01*
X183607716Y-113303684D01*
X183605116Y-113296109D01*
X183578570Y-113247058D01*
X183572944Y-113235550D01*
X183554076Y-113196954D01*
X183554073Y-113196951D01*
X183554073Y-113196950D01*
X183549431Y-113190447D01*
X183544520Y-113184137D01*
X183503480Y-113146358D01*
X181950833Y-111593710D01*
X181934705Y-111573850D01*
X181928560Y-111564444D01*
X181900049Y-111542253D01*
X181894287Y-111537164D01*
X181891409Y-111534286D01*
X181879227Y-111525588D01*
X181836106Y-111470612D01*
X181829553Y-111401050D01*
X181855429Y-111346007D01*
X181904233Y-111286539D01*
X181931851Y-111252887D01*
X182025414Y-111077841D01*
X182083030Y-110887906D01*
X182097610Y-110739876D01*
X182097610Y-109132124D01*
X182083030Y-108984094D01*
X182025414Y-108794159D01*
X181931851Y-108619113D01*
X181931848Y-108619109D01*
X181805935Y-108465684D01*
X181652510Y-108339771D01*
X181652508Y-108339770D01*
X181652507Y-108339769D01*
X181477461Y-108246206D01*
X181477460Y-108246205D01*
X181477459Y-108246205D01*
X181318339Y-108197937D01*
X181287526Y-108188590D01*
X181287524Y-108188589D01*
X181287526Y-108188589D01*
X181090000Y-108169135D01*
X180892475Y-108188589D01*
X180702540Y-108246205D01*
X180527489Y-108339771D01*
X180374067Y-108465682D01*
X180273976Y-108587642D01*
X180216230Y-108626976D01*
X180146385Y-108628845D01*
X180086617Y-108592658D01*
X180069070Y-108567995D01*
X180058458Y-108548386D01*
X180051572Y-108535661D01*
X180027074Y-108485550D01*
X180022431Y-108479047D01*
X180017520Y-108472737D01*
X179976480Y-108434958D01*
X177027663Y-105486140D01*
X176994178Y-105424817D01*
X176999162Y-105355125D01*
X177036677Y-105302608D01*
X177156935Y-105203915D01*
X177282851Y-105050487D01*
X177376414Y-104875441D01*
X177434030Y-104685506D01*
X177448610Y-104537476D01*
X177448610Y-102929724D01*
X177434030Y-102781694D01*
X177376414Y-102591759D01*
X177282851Y-102416713D01*
X177280013Y-102413255D01*
X177156935Y-102263284D01*
X177003508Y-102137369D01*
X177003505Y-102137367D01*
X176888047Y-102075654D01*
X176838203Y-102026692D01*
X176822500Y-101966296D01*
X176822500Y-101895627D01*
X176825139Y-101870182D01*
X176826951Y-101861537D01*
X176827445Y-101859183D01*
X176825499Y-101843575D01*
X176822977Y-101823334D01*
X176822500Y-101815658D01*
X176822500Y-101811593D01*
X176822499Y-101811583D01*
X176818595Y-101788184D01*
X176811695Y-101732842D01*
X176811695Y-101732839D01*
X176811692Y-101732834D01*
X176809408Y-101725159D01*
X176806818Y-101717617D01*
X176806818Y-101717614D01*
X176780268Y-101668553D01*
X176755776Y-101618454D01*
X176755774Y-101618452D01*
X176751131Y-101611948D01*
X176746222Y-101605641D01*
X176746220Y-101605638D01*
X176738262Y-101598312D01*
X176705181Y-101567858D01*
X176553904Y-101416581D01*
X176520419Y-101355258D01*
X176525403Y-101285566D01*
X176567275Y-101229633D01*
X176632739Y-101205216D01*
X176641585Y-101204900D01*
X177054573Y-101204900D01*
X177080018Y-101207539D01*
X177083961Y-101208365D01*
X177091017Y-101209845D01*
X177109576Y-101207531D01*
X177126866Y-101205377D01*
X177134542Y-101204900D01*
X177138608Y-101204900D01*
X177138611Y-101204900D01*
X177162004Y-101200996D01*
X177217360Y-101194096D01*
X177225013Y-101191816D01*
X177232582Y-101189218D01*
X177232586Y-101189218D01*
X177281641Y-101162670D01*
X177331746Y-101138176D01*
X177331748Y-101138174D01*
X177338263Y-101133522D01*
X177344558Y-101128623D01*
X177344559Y-101128621D01*
X177344562Y-101128620D01*
X177382341Y-101087580D01*
X181322693Y-97147228D01*
X181342542Y-97131109D01*
X181351956Y-97124960D01*
X181374155Y-97096436D01*
X181379226Y-97090696D01*
X181382114Y-97087809D01*
X181395898Y-97068501D01*
X181430158Y-97024485D01*
X181430159Y-97024481D01*
X181433946Y-97017483D01*
X181437474Y-97010270D01*
X181437475Y-97010269D01*
X181453388Y-96956817D01*
X181471500Y-96904061D01*
X181471500Y-96904057D01*
X181471501Y-96904055D01*
X181472814Y-96896183D01*
X181473805Y-96888238D01*
X181471500Y-96832505D01*
X181471500Y-96717303D01*
X181491185Y-96650264D01*
X181537046Y-96607945D01*
X181652507Y-96546231D01*
X181805935Y-96420315D01*
X181931851Y-96266887D01*
X182025414Y-96091841D01*
X182083030Y-95901906D01*
X182097610Y-95753876D01*
X182097610Y-94146124D01*
X182083030Y-93998094D01*
X182025414Y-93808159D01*
X181931851Y-93633113D01*
X181931848Y-93633109D01*
X181805935Y-93479684D01*
X181652510Y-93353771D01*
X181652508Y-93353770D01*
X181652507Y-93353769D01*
X181477461Y-93260206D01*
X181477460Y-93260205D01*
X181477459Y-93260205D01*
X181354325Y-93222853D01*
X181287526Y-93202590D01*
X181287524Y-93202589D01*
X181287526Y-93202589D01*
X181090000Y-93183135D01*
X180892475Y-93202589D01*
X180702540Y-93260205D01*
X180527489Y-93353771D01*
X180374064Y-93479684D01*
X180248151Y-93633109D01*
X180154585Y-93808160D01*
X180096969Y-93998095D01*
X180085988Y-94109584D01*
X180082390Y-94146124D01*
X180082390Y-95753876D01*
X180087188Y-95802594D01*
X180096969Y-95901904D01*
X180154585Y-96091839D01*
X180248151Y-96266890D01*
X180374064Y-96420315D01*
X180527491Y-96546230D01*
X180527494Y-96546232D01*
X180586720Y-96577889D01*
X180636565Y-96626851D01*
X180652025Y-96694989D01*
X180628193Y-96760669D01*
X180615948Y-96774928D01*
X176985296Y-100405581D01*
X176923973Y-100439066D01*
X176897615Y-100441900D01*
X175787384Y-100441900D01*
X175720345Y-100422215D01*
X175674590Y-100369411D01*
X175664646Y-100300253D01*
X175693671Y-100236697D01*
X175699703Y-100230219D01*
X177239703Y-98690219D01*
X178782693Y-97147228D01*
X178802542Y-97131109D01*
X178811956Y-97124960D01*
X178834155Y-97096436D01*
X178839226Y-97090696D01*
X178842114Y-97087809D01*
X178855900Y-97068499D01*
X178890158Y-97024485D01*
X178890159Y-97024479D01*
X178893957Y-97017464D01*
X178897471Y-97010274D01*
X178897475Y-97010270D01*
X178907426Y-96976844D01*
X178913391Y-96956810D01*
X178926270Y-96919294D01*
X178931500Y-96904061D01*
X178931500Y-96904058D01*
X178932815Y-96896177D01*
X178933805Y-96888240D01*
X178931500Y-96832517D01*
X178931500Y-96717303D01*
X178951185Y-96650264D01*
X178997046Y-96607945D01*
X179112507Y-96546231D01*
X179265935Y-96420315D01*
X179391851Y-96266887D01*
X179485414Y-96091841D01*
X179543030Y-95901906D01*
X179557610Y-95753876D01*
X179557610Y-94146124D01*
X179543030Y-93998094D01*
X179485414Y-93808159D01*
X179391851Y-93633113D01*
X179391848Y-93633109D01*
X179265935Y-93479684D01*
X179112510Y-93353771D01*
X179112508Y-93353770D01*
X179112507Y-93353769D01*
X178937461Y-93260206D01*
X178937460Y-93260205D01*
X178937459Y-93260205D01*
X178814325Y-93222853D01*
X178747526Y-93202590D01*
X178747524Y-93202589D01*
X178747526Y-93202589D01*
X178550000Y-93183135D01*
X178352475Y-93202589D01*
X178162540Y-93260205D01*
X177987489Y-93353771D01*
X177834064Y-93479684D01*
X177708151Y-93633109D01*
X177614585Y-93808160D01*
X177556969Y-93998095D01*
X177545988Y-94109584D01*
X177542390Y-94146124D01*
X177542390Y-95753876D01*
X177547188Y-95802594D01*
X177556969Y-95901904D01*
X177614585Y-96091839D01*
X177708151Y-96266890D01*
X177834064Y-96420315D01*
X177987491Y-96546230D01*
X177987494Y-96546232D01*
X178046720Y-96577889D01*
X178096565Y-96626851D01*
X178112025Y-96694989D01*
X178088193Y-96760669D01*
X178075948Y-96774928D01*
X174955196Y-99895681D01*
X174893873Y-99929166D01*
X174867515Y-99932000D01*
X173757284Y-99932000D01*
X173690245Y-99912315D01*
X173644490Y-99859511D01*
X173634546Y-99790353D01*
X173663571Y-99726797D01*
X173669603Y-99720319D01*
X174736022Y-98653900D01*
X176242693Y-97147228D01*
X176262542Y-97131109D01*
X176271956Y-97124960D01*
X176294155Y-97096436D01*
X176299226Y-97090696D01*
X176302114Y-97087809D01*
X176315898Y-97068501D01*
X176350158Y-97024485D01*
X176350159Y-97024481D01*
X176353946Y-97017483D01*
X176357474Y-97010270D01*
X176357475Y-97010269D01*
X176373388Y-96956817D01*
X176391500Y-96904061D01*
X176391500Y-96904057D01*
X176391501Y-96904055D01*
X176392815Y-96896180D01*
X176393805Y-96888239D01*
X176391500Y-96832516D01*
X176391500Y-96717303D01*
X176411185Y-96650264D01*
X176457046Y-96607945D01*
X176572507Y-96546231D01*
X176725935Y-96420315D01*
X176851851Y-96266887D01*
X176945414Y-96091841D01*
X177003030Y-95901906D01*
X177017610Y-95753876D01*
X177017610Y-94146124D01*
X177003030Y-93998094D01*
X176945414Y-93808159D01*
X176851851Y-93633113D01*
X176851848Y-93633109D01*
X176725935Y-93479684D01*
X176572510Y-93353771D01*
X176572508Y-93353770D01*
X176572507Y-93353769D01*
X176397461Y-93260206D01*
X176397460Y-93260205D01*
X176397459Y-93260205D01*
X176274325Y-93222853D01*
X176207526Y-93202590D01*
X176207524Y-93202589D01*
X176207526Y-93202589D01*
X176010000Y-93183135D01*
X175812475Y-93202589D01*
X175622540Y-93260205D01*
X175447489Y-93353771D01*
X175294064Y-93479684D01*
X175168151Y-93633109D01*
X175074585Y-93808160D01*
X175016969Y-93998095D01*
X175005988Y-94109584D01*
X175002390Y-94146124D01*
X175002390Y-95753876D01*
X175007188Y-95802594D01*
X175016969Y-95901904D01*
X175074585Y-96091839D01*
X175168151Y-96266890D01*
X175294064Y-96420315D01*
X175447491Y-96546230D01*
X175447494Y-96546232D01*
X175506720Y-96577889D01*
X175556565Y-96626851D01*
X175572025Y-96694989D01*
X175548193Y-96760669D01*
X175535948Y-96774928D01*
X172926496Y-99384381D01*
X172865173Y-99417866D01*
X172838815Y-99420700D01*
X171728584Y-99420700D01*
X171661545Y-99401015D01*
X171615790Y-99348211D01*
X171605846Y-99279053D01*
X171634871Y-99215497D01*
X171640903Y-99209019D01*
X172669603Y-98180319D01*
X173702693Y-97147228D01*
X173722542Y-97131109D01*
X173731956Y-97124960D01*
X173754155Y-97096436D01*
X173759226Y-97090696D01*
X173762114Y-97087809D01*
X173775900Y-97068499D01*
X173810158Y-97024485D01*
X173810159Y-97024479D01*
X173813957Y-97017464D01*
X173817468Y-97010278D01*
X173817475Y-97010270D01*
X173827426Y-96976844D01*
X173833390Y-96956813D01*
X173842311Y-96930824D01*
X173851500Y-96904061D01*
X173851500Y-96904058D01*
X173852815Y-96896180D01*
X173853805Y-96888239D01*
X173851500Y-96832516D01*
X173851500Y-96717303D01*
X173871185Y-96650264D01*
X173917046Y-96607945D01*
X174032507Y-96546231D01*
X174185935Y-96420315D01*
X174311851Y-96266887D01*
X174405414Y-96091841D01*
X174463030Y-95901906D01*
X174477610Y-95753876D01*
X174477610Y-94146124D01*
X174463030Y-93998094D01*
X174405414Y-93808159D01*
X174311851Y-93633113D01*
X174307442Y-93627741D01*
X174185935Y-93479685D01*
X174148071Y-93448611D01*
X174126315Y-93430756D01*
X174086981Y-93373011D01*
X174085110Y-93303166D01*
X174117299Y-93247222D01*
X175360098Y-92004423D01*
X176673693Y-90690828D01*
X176693542Y-90674709D01*
X176702956Y-90668560D01*
X176725155Y-90640036D01*
X176730226Y-90634296D01*
X176733114Y-90631409D01*
X176746900Y-90612099D01*
X176781158Y-90568085D01*
X176781159Y-90568079D01*
X176784957Y-90561064D01*
X176788468Y-90553878D01*
X176788475Y-90553870D01*
X176798426Y-90520444D01*
X176804390Y-90500413D01*
X176820762Y-90452722D01*
X176822500Y-90447661D01*
X176822500Y-90447658D01*
X176823815Y-90439780D01*
X176824805Y-90431839D01*
X176822500Y-90376116D01*
X176822500Y-90260903D01*
X176842185Y-90193864D01*
X176888046Y-90151545D01*
X177003507Y-90089831D01*
X177156935Y-89963915D01*
X177282851Y-89810487D01*
X177376414Y-89635441D01*
X177434030Y-89445506D01*
X177448610Y-89297476D01*
X177448610Y-87689724D01*
X177434030Y-87541694D01*
X177376414Y-87351759D01*
X177282851Y-87176713D01*
X177282848Y-87176709D01*
X177156935Y-87023284D01*
X177003510Y-86897371D01*
X177003508Y-86897370D01*
X177003507Y-86897369D01*
X176828461Y-86803806D01*
X176828460Y-86803805D01*
X176828459Y-86803805D01*
X176669339Y-86755537D01*
X176638526Y-86746190D01*
X176638524Y-86746189D01*
X176638526Y-86746189D01*
X176441000Y-86726735D01*
X176243475Y-86746189D01*
X176053540Y-86803805D01*
X175878489Y-86897371D01*
X175725064Y-87023284D01*
X175599151Y-87176709D01*
X175505585Y-87351760D01*
X175447969Y-87541695D01*
X175433390Y-87689727D01*
X175433390Y-89297472D01*
X175447969Y-89445504D01*
X175505585Y-89635439D01*
X175599151Y-89810490D01*
X175725064Y-89963915D01*
X175878491Y-90089830D01*
X175878494Y-90089832D01*
X175937720Y-90121489D01*
X175987565Y-90170451D01*
X176003025Y-90238589D01*
X175979193Y-90304269D01*
X175966948Y-90318528D01*
X173643696Y-92641781D01*
X173582373Y-92675266D01*
X173556015Y-92678100D01*
X169905783Y-92678100D01*
X169838744Y-92658415D01*
X169792989Y-92605611D01*
X169783045Y-92536453D01*
X169812070Y-92472897D01*
X169818102Y-92466419D01*
X170642818Y-91641703D01*
X171593689Y-90690831D01*
X171613539Y-90674711D01*
X171622956Y-90668560D01*
X171645159Y-90640031D01*
X171650230Y-90634291D01*
X171653113Y-90631409D01*
X171666891Y-90612110D01*
X171701158Y-90568085D01*
X171701159Y-90568079D01*
X171704956Y-90561066D01*
X171708471Y-90553874D01*
X171708475Y-90553870D01*
X171718426Y-90520444D01*
X171724391Y-90500410D01*
X171740762Y-90452722D01*
X171742500Y-90447661D01*
X171742500Y-90447658D01*
X171743815Y-90439777D01*
X171744805Y-90431840D01*
X171742500Y-90376117D01*
X171742500Y-90260903D01*
X171762185Y-90193864D01*
X171808046Y-90151545D01*
X171923507Y-90089831D01*
X172076935Y-89963915D01*
X172202851Y-89810487D01*
X172296414Y-89635441D01*
X172354030Y-89445506D01*
X172368610Y-89297476D01*
X172368610Y-89297472D01*
X172893390Y-89297472D01*
X172907969Y-89445504D01*
X172965585Y-89635439D01*
X173059151Y-89810490D01*
X173185064Y-89963915D01*
X173338489Y-90089828D01*
X173338493Y-90089831D01*
X173513539Y-90183394D01*
X173703474Y-90241010D01*
X173703473Y-90241010D01*
X173721183Y-90242754D01*
X173901000Y-90260465D01*
X174098526Y-90241010D01*
X174288461Y-90183394D01*
X174463507Y-90089831D01*
X174616935Y-89963915D01*
X174742851Y-89810487D01*
X174836414Y-89635441D01*
X174894030Y-89445506D01*
X174908610Y-89297476D01*
X174908610Y-87689724D01*
X174894030Y-87541694D01*
X174836414Y-87351759D01*
X174742851Y-87176713D01*
X174742848Y-87176709D01*
X174616935Y-87023284D01*
X174463510Y-86897371D01*
X174463508Y-86897370D01*
X174463507Y-86897369D01*
X174288461Y-86803806D01*
X174288460Y-86803805D01*
X174288459Y-86803805D01*
X174129339Y-86755537D01*
X174098526Y-86746190D01*
X174098524Y-86746189D01*
X174098526Y-86746189D01*
X173901000Y-86726735D01*
X173703475Y-86746189D01*
X173513540Y-86803805D01*
X173338489Y-86897371D01*
X173185064Y-87023284D01*
X173059151Y-87176709D01*
X172965585Y-87351760D01*
X172907969Y-87541695D01*
X172893390Y-87689727D01*
X172893390Y-89297472D01*
X172368610Y-89297472D01*
X172368610Y-87689724D01*
X172354030Y-87541694D01*
X172296414Y-87351759D01*
X172202851Y-87176713D01*
X172202848Y-87176709D01*
X172076935Y-87023284D01*
X171923510Y-86897371D01*
X171923508Y-86897370D01*
X171923507Y-86897369D01*
X171748461Y-86803806D01*
X171748460Y-86803805D01*
X171748459Y-86803805D01*
X171589339Y-86755537D01*
X171558526Y-86746190D01*
X171558524Y-86746189D01*
X171558526Y-86746189D01*
X171361000Y-86726735D01*
X171163475Y-86746189D01*
X170973540Y-86803805D01*
X170798489Y-86897371D01*
X170645064Y-87023284D01*
X170519151Y-87176709D01*
X170425585Y-87351760D01*
X170367969Y-87541695D01*
X170353390Y-87689727D01*
X170353390Y-89297472D01*
X170367969Y-89445504D01*
X170425585Y-89635439D01*
X170519151Y-89810490D01*
X170645064Y-89963915D01*
X170798491Y-90089830D01*
X170798494Y-90089832D01*
X170857720Y-90121489D01*
X170907565Y-90170451D01*
X170923025Y-90238589D01*
X170899193Y-90304269D01*
X170886948Y-90318528D01*
X169317596Y-91887881D01*
X169256273Y-91921366D01*
X169229915Y-91924200D01*
X156966922Y-91924200D01*
X156899883Y-91904515D01*
X156878166Y-91884536D01*
X156877323Y-91885380D01*
X156871577Y-91879635D01*
X156871573Y-91879632D01*
X156871571Y-91879629D01*
X156746778Y-91783872D01*
X156746777Y-91783871D01*
X156746775Y-91783870D01*
X156601456Y-91723678D01*
X156601454Y-91723677D01*
X156601453Y-91723677D01*
X156512395Y-91711952D01*
X156445501Y-91703145D01*
X156445499Y-91703145D01*
X156289547Y-91723677D01*
X156289543Y-91723678D01*
X156144223Y-91783871D01*
X156019429Y-91879629D01*
X155923671Y-92004423D01*
X155863478Y-92149743D01*
X155863477Y-92149747D01*
X155842945Y-92305699D01*
X155842945Y-92305700D01*
X155863477Y-92461652D01*
X155863478Y-92461656D01*
X155882114Y-92506648D01*
X155889583Y-92576117D01*
X155858307Y-92638596D01*
X155798218Y-92674248D01*
X155767553Y-92678100D01*
X155133325Y-92678100D01*
X155066286Y-92658415D01*
X155020531Y-92605611D01*
X155010386Y-92537914D01*
X155017155Y-92486499D01*
X155017155Y-92478371D01*
X155019844Y-92478371D01*
X155028555Y-92422418D01*
X155053058Y-92387562D01*
X156638804Y-90801819D01*
X156700127Y-90768334D01*
X156726485Y-90765500D01*
X161182650Y-90765500D01*
X161187771Y-90765712D01*
X161207429Y-90767340D01*
X161232940Y-90769454D01*
X161276873Y-90758327D01*
X161281883Y-90757276D01*
X161326586Y-90749818D01*
X161327151Y-90749512D01*
X161355737Y-90738357D01*
X161356366Y-90738198D01*
X161394321Y-90713400D01*
X161398709Y-90710787D01*
X161438562Y-90689220D01*
X161438995Y-90688749D01*
X161462420Y-90668909D01*
X161462956Y-90668560D01*
X161490809Y-90632772D01*
X161494088Y-90628900D01*
X161524795Y-90595546D01*
X161525056Y-90594950D01*
X161540761Y-90568594D01*
X161541158Y-90568085D01*
X161555873Y-90525221D01*
X161557737Y-90520444D01*
X161562500Y-90509586D01*
X161575940Y-90478948D01*
X161575993Y-90478296D01*
X161582290Y-90448271D01*
X161582500Y-90447661D01*
X161582500Y-90402337D01*
X161582712Y-90397215D01*
X161584461Y-90376117D01*
X161586454Y-90352060D01*
X161586453Y-90352059D01*
X161586454Y-90352058D01*
X161586294Y-90351425D01*
X161582500Y-90320988D01*
X161582500Y-90260903D01*
X161602185Y-90193864D01*
X161648046Y-90151545D01*
X161763507Y-90089831D01*
X161916935Y-89963915D01*
X162042851Y-89810487D01*
X162136414Y-89635441D01*
X162194030Y-89445506D01*
X162208610Y-89297476D01*
X162208610Y-87689724D01*
X162194030Y-87541694D01*
X162136414Y-87351759D01*
X162042851Y-87176713D01*
X162042848Y-87176709D01*
X162039979Y-87171341D01*
X162041264Y-87170654D01*
X162022560Y-87110906D01*
X162041048Y-87043527D01*
X162093030Y-86996840D01*
X162146540Y-86984700D01*
X162795460Y-86984700D01*
X162862499Y-87004385D01*
X162908254Y-87057189D01*
X162918198Y-87126347D01*
X162901139Y-87170869D01*
X162902021Y-87171341D01*
X162899152Y-87176709D01*
X162899149Y-87176713D01*
X162847584Y-87273186D01*
X162805585Y-87351760D01*
X162747969Y-87541695D01*
X162733390Y-87689727D01*
X162733390Y-89297472D01*
X162747969Y-89445504D01*
X162805585Y-89635439D01*
X162899151Y-89810490D01*
X163025064Y-89963915D01*
X163178489Y-90089828D01*
X163178493Y-90089831D01*
X163353539Y-90183394D01*
X163543474Y-90241010D01*
X163543473Y-90241010D01*
X163561183Y-90242754D01*
X163741000Y-90260465D01*
X163938526Y-90241010D01*
X164128461Y-90183394D01*
X164303507Y-90089831D01*
X164456935Y-89963915D01*
X164582851Y-89810487D01*
X164676414Y-89635441D01*
X164734030Y-89445506D01*
X164748610Y-89297476D01*
X164748610Y-87689724D01*
X164734030Y-87541694D01*
X164676414Y-87351759D01*
X164582851Y-87176713D01*
X164582848Y-87176709D01*
X164579979Y-87171341D01*
X164581264Y-87170654D01*
X164562560Y-87110906D01*
X164581048Y-87043527D01*
X164633030Y-86996840D01*
X164686540Y-86984700D01*
X165335460Y-86984700D01*
X165402499Y-87004385D01*
X165448254Y-87057189D01*
X165458198Y-87126347D01*
X165441139Y-87170869D01*
X165442021Y-87171341D01*
X165439152Y-87176709D01*
X165439149Y-87176713D01*
X165387584Y-87273186D01*
X165345585Y-87351760D01*
X165287969Y-87541695D01*
X165273390Y-87689727D01*
X165273390Y-89297472D01*
X165287969Y-89445504D01*
X165345585Y-89635439D01*
X165439151Y-89810490D01*
X165565064Y-89963915D01*
X165718489Y-90089828D01*
X165718493Y-90089831D01*
X165893539Y-90183394D01*
X166083474Y-90241010D01*
X166083473Y-90241010D01*
X166101183Y-90242754D01*
X166281000Y-90260465D01*
X166478526Y-90241010D01*
X166668461Y-90183394D01*
X166843507Y-90089831D01*
X166996935Y-89963915D01*
X167122851Y-89810487D01*
X167216414Y-89635441D01*
X167274030Y-89445506D01*
X167288610Y-89297476D01*
X167288610Y-89297472D01*
X167813390Y-89297472D01*
X167827969Y-89445504D01*
X167885585Y-89635439D01*
X167979151Y-89810490D01*
X168105064Y-89963915D01*
X168258489Y-90089828D01*
X168258493Y-90089831D01*
X168433539Y-90183394D01*
X168623474Y-90241010D01*
X168623473Y-90241010D01*
X168641183Y-90242754D01*
X168821000Y-90260465D01*
X169018526Y-90241010D01*
X169208461Y-90183394D01*
X169383507Y-90089831D01*
X169536935Y-89963915D01*
X169662851Y-89810487D01*
X169756414Y-89635441D01*
X169814030Y-89445506D01*
X169828610Y-89297476D01*
X169828610Y-87689724D01*
X169814030Y-87541694D01*
X169756414Y-87351759D01*
X169662851Y-87176713D01*
X169662848Y-87176709D01*
X169536935Y-87023284D01*
X169383510Y-86897371D01*
X169383508Y-86897370D01*
X169383507Y-86897369D01*
X169208461Y-86803806D01*
X169208460Y-86803805D01*
X169208459Y-86803805D01*
X169049339Y-86755537D01*
X169018526Y-86746190D01*
X169018524Y-86746189D01*
X169018526Y-86746189D01*
X168821000Y-86726735D01*
X168623475Y-86746189D01*
X168433540Y-86803805D01*
X168258489Y-86897371D01*
X168105064Y-87023284D01*
X167979151Y-87176709D01*
X167885585Y-87351760D01*
X167827969Y-87541695D01*
X167813390Y-87689727D01*
X167813390Y-89297472D01*
X167288610Y-89297472D01*
X167288610Y-87689724D01*
X167274030Y-87541694D01*
X167216414Y-87351759D01*
X167122851Y-87176713D01*
X167122848Y-87176709D01*
X166996935Y-87023284D01*
X166843508Y-86897369D01*
X166843505Y-86897367D01*
X166728047Y-86835654D01*
X166678203Y-86786692D01*
X166662500Y-86726296D01*
X166662500Y-86621538D01*
X166662712Y-86616415D01*
X166666454Y-86571261D01*
X166666454Y-86571260D01*
X166655325Y-86527316D01*
X166654278Y-86522324D01*
X166646818Y-86477614D01*
X166646817Y-86477612D01*
X166646816Y-86477609D01*
X166646505Y-86477034D01*
X166635359Y-86448469D01*
X166635199Y-86447837D01*
X166635198Y-86447836D01*
X166635198Y-86447834D01*
X166610405Y-86409884D01*
X166607790Y-86405496D01*
X166586220Y-86365638D01*
X166585739Y-86365195D01*
X166565916Y-86341789D01*
X166565560Y-86341244D01*
X166565554Y-86341238D01*
X166529795Y-86313406D01*
X166525884Y-86310094D01*
X166492547Y-86279406D01*
X166492546Y-86279405D01*
X166491947Y-86279142D01*
X166465601Y-86263443D01*
X166465086Y-86263042D01*
X166465084Y-86263041D01*
X166422224Y-86248326D01*
X166417450Y-86246464D01*
X166375949Y-86228260D01*
X166375939Y-86228258D01*
X166375284Y-86228204D01*
X166345290Y-86221915D01*
X166344666Y-86221701D01*
X166344661Y-86221700D01*
X166344660Y-86221700D01*
X166299350Y-86221700D01*
X166294229Y-86221488D01*
X166249060Y-86217746D01*
X166248427Y-86217906D01*
X166217989Y-86221700D01*
X155689828Y-86221700D01*
X155664383Y-86219061D01*
X155653385Y-86216755D01*
X155653381Y-86216755D01*
X155617534Y-86221223D01*
X155609858Y-86221700D01*
X155605788Y-86221700D01*
X155582393Y-86225604D01*
X155527036Y-86232504D01*
X155519402Y-86234776D01*
X155511811Y-86237383D01*
X155462768Y-86263923D01*
X155412654Y-86288422D01*
X155406153Y-86293063D01*
X155399840Y-86297977D01*
X155362069Y-86339007D01*
X154741055Y-86960019D01*
X154679732Y-86993504D01*
X154610040Y-86988520D01*
X154554107Y-86946648D01*
X154553055Y-86945222D01*
X154528496Y-86911419D01*
X154365457Y-86755537D01*
X154177208Y-86631275D01*
X153969804Y-86542627D01*
X153969787Y-86542621D01*
X153749889Y-86492432D01*
X153524556Y-86482312D01*
X153301026Y-86512591D01*
X153086504Y-86582293D01*
X152887877Y-86689179D01*
X152887874Y-86689181D01*
X152711524Y-86829815D01*
X152563112Y-86999685D01*
X152517306Y-87076351D01*
X152517306Y-87076353D01*
X153449253Y-88008300D01*
X153438939Y-88009783D01*
X153308386Y-88069405D01*
X153199919Y-88163392D01*
X153122325Y-88284130D01*
X153098640Y-88364793D01*
X152332864Y-87599017D01*
X152327890Y-87626435D01*
X152327890Y-89304256D01*
X152335230Y-89385816D01*
X153098640Y-88622406D01*
X153122325Y-88703070D01*
X153199919Y-88823808D01*
X153308386Y-88917795D01*
X153438939Y-88977417D01*
X153449251Y-88978899D01*
X152515201Y-89912950D01*
X152515201Y-89912952D01*
X152633499Y-90075776D01*
X152633500Y-90075778D01*
X152796542Y-90231662D01*
X152984791Y-90355924D01*
X153192195Y-90444572D01*
X153192212Y-90444578D01*
X153227893Y-90452722D01*
X153288871Y-90486830D01*
X153321730Y-90548491D01*
X153316035Y-90618128D01*
X153287982Y-90661294D01*
X152644196Y-91305081D01*
X152582873Y-91338566D01*
X152556515Y-91341400D01*
X152132422Y-91341400D01*
X152065383Y-91321715D01*
X152043666Y-91301736D01*
X152042823Y-91302580D01*
X152037077Y-91296835D01*
X152037073Y-91296832D01*
X152037071Y-91296829D01*
X151912278Y-91201072D01*
X151912277Y-91201071D01*
X151912275Y-91201070D01*
X151766956Y-91140878D01*
X151766954Y-91140877D01*
X151766953Y-91140877D01*
X151683796Y-91129929D01*
X151611001Y-91120345D01*
X151610999Y-91120345D01*
X151455047Y-91140877D01*
X151455043Y-91140878D01*
X151309723Y-91201071D01*
X151184929Y-91296829D01*
X151089171Y-91421623D01*
X151028978Y-91566943D01*
X151028977Y-91566947D01*
X151011062Y-91703026D01*
X151008445Y-91722900D01*
X151028977Y-91878853D01*
X151057307Y-91947248D01*
X151064776Y-92016717D01*
X151033501Y-92079196D01*
X150973412Y-92114848D01*
X150942746Y-92118700D01*
X140089507Y-92118700D01*
X140022468Y-92099015D01*
X139991131Y-92070187D01*
X139898471Y-91949429D01*
X139773678Y-91853672D01*
X139773677Y-91853671D01*
X139773675Y-91853670D01*
X139628356Y-91793478D01*
X139628354Y-91793477D01*
X139628353Y-91793477D01*
X139550376Y-91783211D01*
X139472401Y-91772945D01*
X139472398Y-91772945D01*
X139381762Y-91784877D01*
X139312726Y-91774111D01*
X139260471Y-91727731D01*
X139241586Y-91660462D01*
X139242637Y-91645763D01*
X139254455Y-91556000D01*
X139254455Y-91555999D01*
X139254455Y-91547871D01*
X139257144Y-91547871D01*
X139265855Y-91491918D01*
X139290358Y-91457062D01*
X139945603Y-90801819D01*
X140006926Y-90768334D01*
X140033284Y-90765500D01*
X148482650Y-90765500D01*
X148487771Y-90765712D01*
X148507429Y-90767340D01*
X148532940Y-90769454D01*
X148576873Y-90758327D01*
X148581883Y-90757276D01*
X148626586Y-90749818D01*
X148627151Y-90749512D01*
X148655737Y-90738357D01*
X148656366Y-90738198D01*
X148694321Y-90713400D01*
X148698709Y-90710787D01*
X148738562Y-90689220D01*
X148738995Y-90688749D01*
X148762420Y-90668909D01*
X148762956Y-90668560D01*
X148790809Y-90632772D01*
X148794088Y-90628900D01*
X148824795Y-90595546D01*
X148825056Y-90594950D01*
X148840761Y-90568594D01*
X148841158Y-90568085D01*
X148855873Y-90525221D01*
X148857737Y-90520444D01*
X148862500Y-90509586D01*
X148875940Y-90478948D01*
X148875993Y-90478296D01*
X148882290Y-90448271D01*
X148882500Y-90447661D01*
X148882500Y-90402337D01*
X148882712Y-90397215D01*
X148884461Y-90376117D01*
X148886454Y-90352060D01*
X148886453Y-90352059D01*
X148886454Y-90352058D01*
X148886294Y-90351425D01*
X148882500Y-90320988D01*
X148882500Y-90260903D01*
X148902185Y-90193864D01*
X148948046Y-90151545D01*
X149063507Y-90089831D01*
X149216935Y-89963915D01*
X149342851Y-89810487D01*
X149436414Y-89635441D01*
X149494030Y-89445506D01*
X149508610Y-89297476D01*
X149508610Y-89297472D01*
X150033390Y-89297472D01*
X150047969Y-89445504D01*
X150105585Y-89635439D01*
X150199151Y-89810490D01*
X150325064Y-89963915D01*
X150478489Y-90089828D01*
X150478493Y-90089831D01*
X150653539Y-90183394D01*
X150843474Y-90241010D01*
X150843473Y-90241010D01*
X150861183Y-90242754D01*
X151041000Y-90260465D01*
X151238526Y-90241010D01*
X151428461Y-90183394D01*
X151603507Y-90089831D01*
X151756935Y-89963915D01*
X151882851Y-89810487D01*
X151976414Y-89635441D01*
X152034030Y-89445506D01*
X152048610Y-89297476D01*
X152048610Y-87689724D01*
X152034030Y-87541694D01*
X151976414Y-87351759D01*
X151882851Y-87176713D01*
X151882848Y-87176709D01*
X151756935Y-87023284D01*
X151603510Y-86897371D01*
X151603508Y-86897370D01*
X151603507Y-86897369D01*
X151428461Y-86803806D01*
X151428460Y-86803805D01*
X151428459Y-86803805D01*
X151269339Y-86755537D01*
X151238526Y-86746190D01*
X151238524Y-86746189D01*
X151238526Y-86746189D01*
X151041000Y-86726735D01*
X150843475Y-86746189D01*
X150653540Y-86803805D01*
X150478489Y-86897371D01*
X150325064Y-87023284D01*
X150199151Y-87176709D01*
X150105585Y-87351760D01*
X150047969Y-87541695D01*
X150033390Y-87689727D01*
X150033390Y-89297472D01*
X149508610Y-89297472D01*
X149508610Y-87689724D01*
X149494030Y-87541694D01*
X149436414Y-87351759D01*
X149342851Y-87176713D01*
X149342848Y-87176709D01*
X149216935Y-87023284D01*
X149063510Y-86897371D01*
X149063508Y-86897370D01*
X149063507Y-86897369D01*
X148888461Y-86803806D01*
X148888460Y-86803805D01*
X148888459Y-86803805D01*
X148729339Y-86755537D01*
X148698526Y-86746190D01*
X148698524Y-86746189D01*
X148698526Y-86746189D01*
X148501000Y-86726735D01*
X148303475Y-86746189D01*
X148113540Y-86803805D01*
X147938489Y-86897371D01*
X147785064Y-87023284D01*
X147659151Y-87176709D01*
X147565585Y-87351760D01*
X147507969Y-87541695D01*
X147493390Y-87689727D01*
X147493390Y-89297472D01*
X147507969Y-89445504D01*
X147507970Y-89445506D01*
X147565586Y-89635441D01*
X147659149Y-89810487D01*
X147659150Y-89810489D01*
X147662021Y-89815859D01*
X147660735Y-89816545D01*
X147679440Y-89876294D01*
X147660952Y-89943673D01*
X147608970Y-89990360D01*
X147555460Y-90002500D01*
X146906540Y-90002500D01*
X146839501Y-89982815D01*
X146793746Y-89930011D01*
X146783802Y-89860853D01*
X146800860Y-89816330D01*
X146799979Y-89815859D01*
X146802849Y-89810489D01*
X146802851Y-89810487D01*
X146896414Y-89635441D01*
X146954030Y-89445506D01*
X146968610Y-89297476D01*
X146968610Y-87689724D01*
X146954030Y-87541694D01*
X146896414Y-87351759D01*
X146802851Y-87176713D01*
X146802848Y-87176709D01*
X146676935Y-87023284D01*
X146523510Y-86897371D01*
X146523508Y-86897370D01*
X146523507Y-86897369D01*
X146348461Y-86803806D01*
X146348460Y-86803805D01*
X146348459Y-86803805D01*
X146189339Y-86755537D01*
X146158526Y-86746190D01*
X146158524Y-86746189D01*
X146158526Y-86746189D01*
X145961000Y-86726735D01*
X145763475Y-86746189D01*
X145573540Y-86803805D01*
X145398489Y-86897371D01*
X145245064Y-87023284D01*
X145119151Y-87176709D01*
X145025585Y-87351760D01*
X144967969Y-87541695D01*
X144953390Y-87689727D01*
X144953390Y-89297472D01*
X144967969Y-89445504D01*
X144967970Y-89445506D01*
X145025586Y-89635441D01*
X145119149Y-89810487D01*
X145119150Y-89810489D01*
X145122021Y-89815859D01*
X145120735Y-89816545D01*
X145139440Y-89876294D01*
X145120952Y-89943673D01*
X145068970Y-89990360D01*
X145015460Y-90002500D01*
X144366540Y-90002500D01*
X144299501Y-89982815D01*
X144253746Y-89930011D01*
X144243802Y-89860853D01*
X144260860Y-89816330D01*
X144259979Y-89815859D01*
X144262849Y-89810489D01*
X144262851Y-89810487D01*
X144356414Y-89635441D01*
X144414030Y-89445506D01*
X144428610Y-89297476D01*
X144428610Y-87689724D01*
X144414030Y-87541694D01*
X144356414Y-87351759D01*
X144262851Y-87176713D01*
X144262848Y-87176709D01*
X144136935Y-87023284D01*
X143983510Y-86897371D01*
X143983508Y-86897370D01*
X143983507Y-86897369D01*
X143808461Y-86803806D01*
X143808460Y-86803805D01*
X143808459Y-86803805D01*
X143649339Y-86755537D01*
X143618526Y-86746190D01*
X143618524Y-86746189D01*
X143618526Y-86746189D01*
X143421000Y-86726735D01*
X143223475Y-86746189D01*
X143033540Y-86803805D01*
X142858489Y-86897371D01*
X142705064Y-87023284D01*
X142579151Y-87176709D01*
X142485585Y-87351760D01*
X142427969Y-87541695D01*
X142413390Y-87689727D01*
X142413390Y-89297472D01*
X142427969Y-89445504D01*
X142427970Y-89445506D01*
X142485586Y-89635441D01*
X142579149Y-89810487D01*
X142579150Y-89810489D01*
X142582021Y-89815859D01*
X142580735Y-89816545D01*
X142599440Y-89876294D01*
X142580952Y-89943673D01*
X142528970Y-89990360D01*
X142475460Y-90002500D01*
X141826540Y-90002500D01*
X141759501Y-89982815D01*
X141713746Y-89930011D01*
X141703802Y-89860853D01*
X141720860Y-89816330D01*
X141719979Y-89815859D01*
X141722849Y-89810489D01*
X141722851Y-89810487D01*
X141816414Y-89635441D01*
X141874030Y-89445506D01*
X141888610Y-89297476D01*
X141888610Y-87689724D01*
X141874030Y-87541694D01*
X141816414Y-87351759D01*
X141722851Y-87176713D01*
X141722848Y-87176709D01*
X141596935Y-87023284D01*
X141443510Y-86897371D01*
X141443508Y-86897370D01*
X141443507Y-86897369D01*
X141268461Y-86803806D01*
X141268460Y-86803805D01*
X141268459Y-86803805D01*
X141109339Y-86755537D01*
X141078526Y-86746190D01*
X141078524Y-86746189D01*
X141078526Y-86746189D01*
X140881000Y-86726735D01*
X140683475Y-86746189D01*
X140493540Y-86803805D01*
X140318489Y-86897371D01*
X140165064Y-87023284D01*
X140039151Y-87176709D01*
X139945585Y-87351760D01*
X139887969Y-87541695D01*
X139873390Y-87689727D01*
X139873390Y-89297472D01*
X139887969Y-89445504D01*
X139887970Y-89445506D01*
X139945586Y-89635441D01*
X140039149Y-89810487D01*
X140039150Y-89810489D01*
X140042021Y-89815859D01*
X140040735Y-89816545D01*
X140059440Y-89876294D01*
X140040952Y-89943673D01*
X139988970Y-89990360D01*
X139935460Y-90002500D01*
X139876327Y-90002500D01*
X139850882Y-89999861D01*
X139839884Y-89997555D01*
X139839880Y-89997555D01*
X139804034Y-90002023D01*
X139796358Y-90002500D01*
X139792289Y-90002500D01*
X139784491Y-90003801D01*
X139768893Y-90006403D01*
X139713544Y-90013302D01*
X139705866Y-90015588D01*
X139698313Y-90018181D01*
X139649259Y-90044728D01*
X139599152Y-90069225D01*
X139592642Y-90073872D01*
X139586335Y-90078781D01*
X139548558Y-90119819D01*
X138750838Y-90917538D01*
X138689515Y-90951023D01*
X138660027Y-90952252D01*
X138660027Y-90953445D01*
X138651899Y-90953445D01*
X138495947Y-90973977D01*
X138495943Y-90973978D01*
X138350623Y-91034171D01*
X138225829Y-91129929D01*
X138130071Y-91254723D01*
X138069878Y-91400043D01*
X138069877Y-91400047D01*
X138051981Y-91535981D01*
X138049345Y-91556000D01*
X138068717Y-91703145D01*
X138069877Y-91711952D01*
X138069878Y-91711956D01*
X138130070Y-91857275D01*
X138130071Y-91857277D01*
X138130072Y-91857278D01*
X138225829Y-91982071D01*
X138350622Y-92077828D01*
X138350623Y-92077828D01*
X138350624Y-92077829D01*
X138399063Y-92097893D01*
X138495947Y-92138023D01*
X138633755Y-92156166D01*
X138651899Y-92158555D01*
X138651900Y-92158555D01*
X138651901Y-92158555D01*
X138678742Y-92155021D01*
X138742537Y-92146622D01*
X138811571Y-92157387D01*
X138863827Y-92203767D01*
X138882713Y-92271036D01*
X138881661Y-92285746D01*
X138875763Y-92330547D01*
X138869845Y-92375500D01*
X138887111Y-92506648D01*
X138891228Y-92537914D01*
X138880463Y-92606949D01*
X138834083Y-92659205D01*
X138768289Y-92678100D01*
X132848350Y-92678100D01*
X132843229Y-92677888D01*
X132809810Y-92675119D01*
X132798060Y-92674146D01*
X132798059Y-92674146D01*
X132798057Y-92674146D01*
X132754126Y-92685270D01*
X132749112Y-92686322D01*
X132704416Y-92693781D01*
X132704411Y-92693782D01*
X132703823Y-92694101D01*
X132675282Y-92705237D01*
X132674635Y-92705400D01*
X132674631Y-92705402D01*
X132636687Y-92730191D01*
X132632287Y-92732813D01*
X132592440Y-92754378D01*
X132592437Y-92754381D01*
X132591990Y-92754867D01*
X132568601Y-92774676D01*
X132568043Y-92775040D01*
X132540209Y-92810802D01*
X132536897Y-92814712D01*
X132506206Y-92848052D01*
X132506204Y-92848055D01*
X132505938Y-92848662D01*
X132490251Y-92874989D01*
X132489844Y-92875511D01*
X132489839Y-92875520D01*
X132475127Y-92918373D01*
X132473265Y-92923145D01*
X132455060Y-92964650D01*
X132455058Y-92964656D01*
X132455004Y-92965316D01*
X132448715Y-92995309D01*
X132448501Y-92995931D01*
X132448500Y-92995939D01*
X132448500Y-93041249D01*
X132448288Y-93046370D01*
X132444546Y-93091540D01*
X132444704Y-93092164D01*
X132448500Y-93122610D01*
X132448500Y-93182696D01*
X132428815Y-93249735D01*
X132382953Y-93292054D01*
X132267494Y-93353767D01*
X132267491Y-93353769D01*
X132114064Y-93479684D01*
X131988151Y-93633109D01*
X131894585Y-93808160D01*
X131836969Y-93998095D01*
X131825988Y-94109584D01*
X131822390Y-94146124D01*
X131822390Y-95753876D01*
X131827188Y-95802594D01*
X131836969Y-95901904D01*
X131894585Y-96091839D01*
X131988151Y-96266890D01*
X132114064Y-96420315D01*
X132267489Y-96546228D01*
X132267493Y-96546231D01*
X132442539Y-96639794D01*
X132632474Y-96697410D01*
X132781754Y-96712113D01*
X132846540Y-96738272D01*
X132886899Y-96795307D01*
X132890016Y-96865107D01*
X132857280Y-96923196D01*
X128355096Y-101425381D01*
X128293773Y-101458866D01*
X128267415Y-101461700D01*
X128199350Y-101461700D01*
X128194229Y-101461488D01*
X128160810Y-101458719D01*
X128149060Y-101457746D01*
X128149059Y-101457746D01*
X128149057Y-101457746D01*
X128105126Y-101468870D01*
X128100112Y-101469922D01*
X128055416Y-101477381D01*
X128055411Y-101477382D01*
X128054823Y-101477701D01*
X128026282Y-101488837D01*
X128025635Y-101489000D01*
X128025631Y-101489002D01*
X127987687Y-101513791D01*
X127983287Y-101516413D01*
X127943440Y-101537978D01*
X127943437Y-101537981D01*
X127942990Y-101538467D01*
X127919601Y-101558276D01*
X127919043Y-101558640D01*
X127891209Y-101594402D01*
X127887897Y-101598312D01*
X127857206Y-101631652D01*
X127857204Y-101631655D01*
X127856938Y-101632262D01*
X127841251Y-101658589D01*
X127840844Y-101659111D01*
X127840839Y-101659120D01*
X127826127Y-101701973D01*
X127824265Y-101706745D01*
X127806060Y-101748250D01*
X127806058Y-101748256D01*
X127806004Y-101748916D01*
X127799715Y-101778909D01*
X127799501Y-101779531D01*
X127799500Y-101779539D01*
X127799500Y-101824849D01*
X127799288Y-101829970D01*
X127795546Y-101875140D01*
X127795704Y-101875764D01*
X127799500Y-101906210D01*
X127799500Y-101966296D01*
X127779815Y-102033335D01*
X127733953Y-102075654D01*
X127618494Y-102137367D01*
X127618491Y-102137369D01*
X127465064Y-102263284D01*
X127378353Y-102368942D01*
X127320607Y-102408276D01*
X127250762Y-102410147D01*
X127190994Y-102373959D01*
X127160278Y-102311203D01*
X127158500Y-102290277D01*
X127158500Y-91572428D01*
X127161139Y-91546983D01*
X127161810Y-91543780D01*
X127163445Y-91535984D01*
X127161353Y-91519201D01*
X127158977Y-91500134D01*
X127158500Y-91492458D01*
X127158500Y-91488391D01*
X127158499Y-91488382D01*
X127154595Y-91464993D01*
X127153606Y-91457059D01*
X127147696Y-91409640D01*
X127147693Y-91409634D01*
X127145418Y-91401992D01*
X127142819Y-91394421D01*
X127142818Y-91394414D01*
X127116276Y-91345368D01*
X127091777Y-91295254D01*
X127091776Y-91295253D01*
X127091775Y-91295250D01*
X127087151Y-91288774D01*
X127082218Y-91282436D01*
X127041192Y-91244669D01*
X126115051Y-90318528D01*
X126081566Y-90257205D01*
X126086550Y-90187514D01*
X126128422Y-90131580D01*
X126144272Y-90121492D01*
X126203507Y-90089831D01*
X126356935Y-89963915D01*
X126482851Y-89810487D01*
X126576414Y-89635441D01*
X126634030Y-89445506D01*
X126648610Y-89297476D01*
X126648610Y-89297472D01*
X127173390Y-89297472D01*
X127187969Y-89445504D01*
X127245585Y-89635439D01*
X127339151Y-89810490D01*
X127465064Y-89963915D01*
X127618489Y-90089828D01*
X127618493Y-90089831D01*
X127793539Y-90183394D01*
X127983474Y-90241010D01*
X127983473Y-90241010D01*
X128001183Y-90242754D01*
X128181000Y-90260465D01*
X128378526Y-90241010D01*
X128568461Y-90183394D01*
X128743507Y-90089831D01*
X128896935Y-89963915D01*
X129022851Y-89810487D01*
X129116414Y-89635441D01*
X129174030Y-89445506D01*
X129188610Y-89297476D01*
X129188610Y-89297472D01*
X129713390Y-89297472D01*
X129727969Y-89445504D01*
X129785585Y-89635439D01*
X129879151Y-89810490D01*
X130005064Y-89963915D01*
X130158489Y-90089828D01*
X130158493Y-90089831D01*
X130333539Y-90183394D01*
X130523474Y-90241010D01*
X130523473Y-90241010D01*
X130541183Y-90242754D01*
X130721000Y-90260465D01*
X130918526Y-90241010D01*
X131108461Y-90183394D01*
X131283507Y-90089831D01*
X131436935Y-89963915D01*
X131562851Y-89810487D01*
X131656414Y-89635441D01*
X131714030Y-89445506D01*
X131728610Y-89297476D01*
X131728610Y-89297472D01*
X132253390Y-89297472D01*
X132267969Y-89445504D01*
X132325585Y-89635439D01*
X132419151Y-89810490D01*
X132545064Y-89963915D01*
X132698489Y-90089828D01*
X132698493Y-90089831D01*
X132873539Y-90183394D01*
X133063474Y-90241010D01*
X133063473Y-90241010D01*
X133081183Y-90242754D01*
X133261000Y-90260465D01*
X133458526Y-90241010D01*
X133648461Y-90183394D01*
X133823507Y-90089831D01*
X133976935Y-89963915D01*
X134102851Y-89810487D01*
X134196414Y-89635441D01*
X134254030Y-89445506D01*
X134268610Y-89297476D01*
X134268610Y-89297472D01*
X134793390Y-89297472D01*
X134807969Y-89445504D01*
X134865585Y-89635439D01*
X134959151Y-89810490D01*
X135085064Y-89963915D01*
X135238489Y-90089828D01*
X135238493Y-90089831D01*
X135413539Y-90183394D01*
X135603474Y-90241010D01*
X135603473Y-90241010D01*
X135621183Y-90242754D01*
X135801000Y-90260465D01*
X135998526Y-90241010D01*
X136188461Y-90183394D01*
X136363507Y-90089831D01*
X136516935Y-89963915D01*
X136642851Y-89810487D01*
X136736414Y-89635441D01*
X136794030Y-89445506D01*
X136808610Y-89297476D01*
X136808610Y-89297472D01*
X137333390Y-89297472D01*
X137347969Y-89445504D01*
X137405585Y-89635439D01*
X137499151Y-89810490D01*
X137625064Y-89963915D01*
X137778489Y-90089828D01*
X137778493Y-90089831D01*
X137953539Y-90183394D01*
X138143474Y-90241010D01*
X138143473Y-90241010D01*
X138161183Y-90242754D01*
X138341000Y-90260465D01*
X138538526Y-90241010D01*
X138728461Y-90183394D01*
X138903507Y-90089831D01*
X139056935Y-89963915D01*
X139182851Y-89810487D01*
X139276414Y-89635441D01*
X139334030Y-89445506D01*
X139348610Y-89297476D01*
X139348610Y-87689724D01*
X139334030Y-87541694D01*
X139276414Y-87351759D01*
X139182851Y-87176713D01*
X139182848Y-87176709D01*
X139056935Y-87023284D01*
X138903510Y-86897371D01*
X138903508Y-86897370D01*
X138903507Y-86897369D01*
X138728461Y-86803806D01*
X138728460Y-86803805D01*
X138728459Y-86803805D01*
X138569339Y-86755537D01*
X138538526Y-86746190D01*
X138538524Y-86746189D01*
X138538526Y-86746189D01*
X138341000Y-86726735D01*
X138143475Y-86746189D01*
X137953540Y-86803805D01*
X137778489Y-86897371D01*
X137625064Y-87023284D01*
X137499151Y-87176709D01*
X137405585Y-87351760D01*
X137347969Y-87541695D01*
X137333390Y-87689727D01*
X137333390Y-89297472D01*
X136808610Y-89297472D01*
X136808610Y-87689724D01*
X136794030Y-87541694D01*
X136736414Y-87351759D01*
X136642851Y-87176713D01*
X136642848Y-87176709D01*
X136516935Y-87023284D01*
X136363510Y-86897371D01*
X136363508Y-86897370D01*
X136363507Y-86897369D01*
X136188461Y-86803806D01*
X136188460Y-86803805D01*
X136188459Y-86803805D01*
X136029339Y-86755537D01*
X135998526Y-86746190D01*
X135998524Y-86746189D01*
X135998526Y-86746189D01*
X135801000Y-86726735D01*
X135603475Y-86746189D01*
X135413540Y-86803805D01*
X135238489Y-86897371D01*
X135085064Y-87023284D01*
X134959151Y-87176709D01*
X134865585Y-87351760D01*
X134807969Y-87541695D01*
X134793390Y-87689727D01*
X134793390Y-89297472D01*
X134268610Y-89297472D01*
X134268610Y-87689724D01*
X134254030Y-87541694D01*
X134196414Y-87351759D01*
X134102851Y-87176713D01*
X134102848Y-87176709D01*
X133976935Y-87023284D01*
X133823510Y-86897371D01*
X133823508Y-86897370D01*
X133823507Y-86897369D01*
X133648461Y-86803806D01*
X133648460Y-86803805D01*
X133648459Y-86803805D01*
X133489339Y-86755537D01*
X133458526Y-86746190D01*
X133458524Y-86746189D01*
X133458526Y-86746189D01*
X133261000Y-86726735D01*
X133063475Y-86746189D01*
X132873540Y-86803805D01*
X132698489Y-86897371D01*
X132545064Y-87023284D01*
X132419151Y-87176709D01*
X132325585Y-87351760D01*
X132267969Y-87541695D01*
X132253390Y-87689727D01*
X132253390Y-89297472D01*
X131728610Y-89297472D01*
X131728610Y-87689724D01*
X131714030Y-87541694D01*
X131656414Y-87351759D01*
X131562851Y-87176713D01*
X131562848Y-87176709D01*
X131436935Y-87023284D01*
X131283510Y-86897371D01*
X131283508Y-86897370D01*
X131283507Y-86897369D01*
X131108461Y-86803806D01*
X131108460Y-86803805D01*
X131108459Y-86803805D01*
X130949339Y-86755537D01*
X130918526Y-86746190D01*
X130918524Y-86746189D01*
X130918526Y-86746189D01*
X130721000Y-86726735D01*
X130523475Y-86746189D01*
X130333540Y-86803805D01*
X130158489Y-86897371D01*
X130005064Y-87023284D01*
X129879151Y-87176709D01*
X129785585Y-87351760D01*
X129727969Y-87541695D01*
X129713390Y-87689727D01*
X129713390Y-89297472D01*
X129188610Y-89297472D01*
X129188610Y-87689724D01*
X129174030Y-87541694D01*
X129116414Y-87351759D01*
X129022851Y-87176713D01*
X129022848Y-87176709D01*
X128896935Y-87023284D01*
X128743510Y-86897371D01*
X128743508Y-86897370D01*
X128743507Y-86897369D01*
X128568461Y-86803806D01*
X128568460Y-86803805D01*
X128568459Y-86803805D01*
X128409339Y-86755537D01*
X128378526Y-86746190D01*
X128378524Y-86746189D01*
X128378526Y-86746189D01*
X128181000Y-86726735D01*
X127983475Y-86746189D01*
X127793540Y-86803805D01*
X127618489Y-86897371D01*
X127465064Y-87023284D01*
X127339151Y-87176709D01*
X127245585Y-87351760D01*
X127187969Y-87541695D01*
X127173390Y-87689727D01*
X127173390Y-89297472D01*
X126648610Y-89297472D01*
X126648610Y-87689724D01*
X126634030Y-87541694D01*
X126576414Y-87351759D01*
X126482851Y-87176713D01*
X126482848Y-87176709D01*
X126356935Y-87023284D01*
X126203510Y-86897371D01*
X126203508Y-86897370D01*
X126203507Y-86897369D01*
X126028461Y-86803806D01*
X126028460Y-86803805D01*
X126028459Y-86803805D01*
X125869339Y-86755537D01*
X125838526Y-86746190D01*
X125838524Y-86746189D01*
X125838526Y-86746189D01*
X125641000Y-86726735D01*
X125443475Y-86746189D01*
X125253540Y-86803805D01*
X125078489Y-86897371D01*
X124925064Y-87023284D01*
X124799151Y-87176709D01*
X124705585Y-87351760D01*
X124647969Y-87541695D01*
X124633390Y-87689727D01*
X124633390Y-89297472D01*
X124647969Y-89445504D01*
X124705585Y-89635439D01*
X124799151Y-89810490D01*
X124925064Y-89963915D01*
X124991189Y-90018182D01*
X125078493Y-90089831D01*
X125193952Y-90151544D01*
X125243797Y-90200506D01*
X125259500Y-90260903D01*
X125259500Y-90331572D01*
X125256861Y-90357020D01*
X125254554Y-90368017D01*
X125259023Y-90403865D01*
X125259500Y-90411541D01*
X125259500Y-90415611D01*
X125262208Y-90431839D01*
X125263403Y-90439005D01*
X125270304Y-90494361D01*
X125272580Y-90502009D01*
X125275181Y-90509585D01*
X125301729Y-90558641D01*
X125326224Y-90608747D01*
X125330869Y-90615253D01*
X125335782Y-90621564D01*
X125376819Y-90659342D01*
X126359181Y-91641703D01*
X126392666Y-91703026D01*
X126395500Y-91729384D01*
X126395500Y-102033666D01*
X126375815Y-102100705D01*
X126323011Y-102146460D01*
X126253853Y-102156404D01*
X126209352Y-102139355D01*
X126208879Y-102140241D01*
X126203509Y-102137370D01*
X126203507Y-102137369D01*
X126028461Y-102043806D01*
X126028460Y-102043805D01*
X126028459Y-102043805D01*
X125869339Y-101995537D01*
X125838526Y-101986190D01*
X125838524Y-101986189D01*
X125838526Y-101986189D01*
X125641000Y-101966735D01*
X125443475Y-101986189D01*
X125253540Y-102043805D01*
X125078489Y-102137371D01*
X124925064Y-102263284D01*
X124799151Y-102416709D01*
X124705585Y-102591760D01*
X124647969Y-102781695D01*
X124633390Y-102929727D01*
X124633390Y-104537472D01*
X124108610Y-104537472D01*
X124108610Y-102929724D01*
X124094030Y-102781694D01*
X124036414Y-102591759D01*
X123942851Y-102416713D01*
X123940013Y-102413255D01*
X123816935Y-102263284D01*
X123663510Y-102137371D01*
X123663508Y-102137370D01*
X123663507Y-102137369D01*
X123488461Y-102043806D01*
X123488460Y-102043805D01*
X123488459Y-102043805D01*
X123329339Y-101995537D01*
X123298526Y-101986190D01*
X123298524Y-101986189D01*
X123298526Y-101986189D01*
X123101000Y-101966735D01*
X122903475Y-101986189D01*
X122713540Y-102043805D01*
X122538489Y-102137371D01*
X122385064Y-102263284D01*
X122259151Y-102416709D01*
X122165585Y-102591760D01*
X122107969Y-102781695D01*
X122093390Y-102929727D01*
X122093390Y-104537472D01*
X121568610Y-104537472D01*
X121568610Y-102929724D01*
X121554030Y-102781694D01*
X121496414Y-102591759D01*
X121402851Y-102416713D01*
X121400013Y-102413255D01*
X121276935Y-102263284D01*
X121123510Y-102137371D01*
X121123508Y-102137370D01*
X121123507Y-102137369D01*
X120948461Y-102043806D01*
X120948460Y-102043805D01*
X120948459Y-102043805D01*
X120789339Y-101995537D01*
X120758526Y-101986190D01*
X120758524Y-101986189D01*
X120758526Y-101986189D01*
X120561000Y-101966735D01*
X120363475Y-101986189D01*
X120173540Y-102043805D01*
X119998489Y-102137371D01*
X119845064Y-102263284D01*
X119719151Y-102416709D01*
X119625585Y-102591760D01*
X119567969Y-102781695D01*
X119553390Y-102929727D01*
X119553390Y-104537472D01*
X119028610Y-104537472D01*
X119028610Y-102929724D01*
X119014030Y-102781694D01*
X118956414Y-102591759D01*
X118862851Y-102416713D01*
X118860013Y-102413255D01*
X118736935Y-102263284D01*
X118583510Y-102137371D01*
X118583508Y-102137370D01*
X118583507Y-102137369D01*
X118408461Y-102043806D01*
X118408460Y-102043805D01*
X118408459Y-102043805D01*
X118249339Y-101995537D01*
X118218526Y-101986190D01*
X118218524Y-101986189D01*
X118218526Y-101986189D01*
X118021000Y-101966735D01*
X117823475Y-101986189D01*
X117633540Y-102043805D01*
X117458489Y-102137371D01*
X117305064Y-102263284D01*
X117179151Y-102416709D01*
X117085585Y-102591760D01*
X117027969Y-102781695D01*
X117013390Y-102929727D01*
X117013390Y-104537472D01*
X107390500Y-104537472D01*
X107390500Y-89297472D01*
X117013390Y-89297472D01*
X117027969Y-89445504D01*
X117085585Y-89635439D01*
X117179151Y-89810490D01*
X117305064Y-89963915D01*
X117458489Y-90089828D01*
X117458493Y-90089831D01*
X117633539Y-90183394D01*
X117823474Y-90241010D01*
X117823473Y-90241010D01*
X117841183Y-90242754D01*
X118021000Y-90260465D01*
X118218526Y-90241010D01*
X118408461Y-90183394D01*
X118583507Y-90089831D01*
X118736935Y-89963915D01*
X118862851Y-89810487D01*
X118956414Y-89635441D01*
X119014030Y-89445506D01*
X119028610Y-89297476D01*
X119028610Y-89297472D01*
X119553390Y-89297472D01*
X119567969Y-89445504D01*
X119625585Y-89635439D01*
X119719151Y-89810490D01*
X119845064Y-89963915D01*
X119998489Y-90089828D01*
X119998493Y-90089831D01*
X120173539Y-90183394D01*
X120363474Y-90241010D01*
X120363473Y-90241010D01*
X120381183Y-90242754D01*
X120561000Y-90260465D01*
X120758526Y-90241010D01*
X120948461Y-90183394D01*
X121123507Y-90089831D01*
X121276935Y-89963915D01*
X121402851Y-89810487D01*
X121496414Y-89635441D01*
X121554030Y-89445506D01*
X121568610Y-89297476D01*
X121568610Y-89297472D01*
X122093390Y-89297472D01*
X122107969Y-89445504D01*
X122165585Y-89635439D01*
X122259151Y-89810490D01*
X122385064Y-89963915D01*
X122538489Y-90089828D01*
X122538493Y-90089831D01*
X122713539Y-90183394D01*
X122903474Y-90241010D01*
X122903473Y-90241010D01*
X122921183Y-90242754D01*
X123101000Y-90260465D01*
X123298526Y-90241010D01*
X123488461Y-90183394D01*
X123663507Y-90089831D01*
X123816935Y-89963915D01*
X123942851Y-89810487D01*
X124036414Y-89635441D01*
X124094030Y-89445506D01*
X124108610Y-89297476D01*
X124108610Y-87689724D01*
X124094030Y-87541694D01*
X124036414Y-87351759D01*
X123942851Y-87176713D01*
X123942848Y-87176709D01*
X123816935Y-87023284D01*
X123663510Y-86897371D01*
X123663508Y-86897370D01*
X123663507Y-86897369D01*
X123488461Y-86803806D01*
X123488460Y-86803805D01*
X123488459Y-86803805D01*
X123329339Y-86755537D01*
X123298526Y-86746190D01*
X123298524Y-86746189D01*
X123298526Y-86746189D01*
X123101000Y-86726735D01*
X122903475Y-86746189D01*
X122713540Y-86803805D01*
X122538489Y-86897371D01*
X122385064Y-87023284D01*
X122259151Y-87176709D01*
X122165585Y-87351760D01*
X122107969Y-87541695D01*
X122093390Y-87689727D01*
X122093390Y-89297472D01*
X121568610Y-89297472D01*
X121568610Y-87689724D01*
X121554030Y-87541694D01*
X121496414Y-87351759D01*
X121402851Y-87176713D01*
X121402848Y-87176709D01*
X121276935Y-87023284D01*
X121123510Y-86897371D01*
X121123508Y-86897370D01*
X121123507Y-86897369D01*
X120948461Y-86803806D01*
X120948460Y-86803805D01*
X120948459Y-86803805D01*
X120789339Y-86755537D01*
X120758526Y-86746190D01*
X120758524Y-86746189D01*
X120758526Y-86746189D01*
X120561000Y-86726735D01*
X120363475Y-86746189D01*
X120173540Y-86803805D01*
X119998489Y-86897371D01*
X119845064Y-87023284D01*
X119719151Y-87176709D01*
X119625585Y-87351760D01*
X119567969Y-87541695D01*
X119553390Y-87689727D01*
X119553390Y-89297472D01*
X119028610Y-89297472D01*
X119028610Y-87689724D01*
X119014030Y-87541694D01*
X118956414Y-87351759D01*
X118862851Y-87176713D01*
X118862848Y-87176709D01*
X118736935Y-87023284D01*
X118583510Y-86897371D01*
X118583508Y-86897370D01*
X118583507Y-86897369D01*
X118408461Y-86803806D01*
X118408460Y-86803805D01*
X118408459Y-86803805D01*
X118249339Y-86755537D01*
X118218526Y-86746190D01*
X118218524Y-86746189D01*
X118218526Y-86746189D01*
X118021000Y-86726735D01*
X117823475Y-86746189D01*
X117633540Y-86803805D01*
X117458489Y-86897371D01*
X117305064Y-87023284D01*
X117179151Y-87176709D01*
X117085585Y-87351760D01*
X117027969Y-87541695D01*
X117013390Y-87689727D01*
X117013390Y-89297472D01*
X107390500Y-89297472D01*
X107390500Y-84711440D01*
X107390691Y-84706574D01*
X107404440Y-84531867D01*
X107407482Y-84512655D01*
X107446687Y-84349357D01*
X107452693Y-84330872D01*
X107516960Y-84175719D01*
X107525793Y-84158385D01*
X107613529Y-84015213D01*
X107624965Y-83999472D01*
X107734027Y-83871776D01*
X107747776Y-83858027D01*
X107875475Y-83748962D01*
X107891213Y-83737529D01*
X108034388Y-83649791D01*
X108051719Y-83640960D01*
X108206872Y-83576693D01*
X108225357Y-83570687D01*
X108388655Y-83531482D01*
X108407861Y-83528440D01*
X108555766Y-83516800D01*
X108582574Y-83514691D01*
X108587440Y-83514500D01*
X108609531Y-83514500D01*
X188443469Y-83514500D01*
X188465560Y-83514500D01*
X188470426Y-83514691D01*
G37*
%TD.AperFunction*%
%TD*%
M02*
