G04 #@! TF.GenerationSoftware,KiCad,Pcbnew,(5.0.0)*
G04 #@! TF.CreationDate,2018-09-19T19:41:42-05:00*
G04 #@! TF.ProjectId,27C160_Adapter,3237433136305F416461707465722E6B,rev?*
G04 #@! TF.SameCoordinates,Original*
G04 #@! TF.FileFunction,Copper,L2,Bot,Signal*
G04 #@! TF.FilePolarity,Positive*
%FSLAX46Y46*%
G04 Gerber Fmt 4.6, Leading zero omitted, Abs format (unit mm)*
G04 Created by KiCad (PCBNEW (5.0.0)) date 09/19/18 19:41:42*
%MOMM*%
%LPD*%
G01*
G04 APERTURE LIST*
G04 #@! TA.AperFunction,ComponentPad*
%ADD10O,1.500000X3.000000*%
G04 #@! TD*
G04 #@! TA.AperFunction,ComponentPad*
%ADD11C,1.219200*%
G04 #@! TD*
G04 #@! TA.AperFunction,ComponentPad*
%ADD12O,1.219200X2.438400*%
G04 #@! TD*
G04 #@! TA.AperFunction,ComponentPad*
%ADD13C,1.676400*%
G04 #@! TD*
G04 #@! TA.AperFunction,ComponentPad*
%ADD14O,2.438400X1.219200*%
G04 #@! TD*
G04 #@! TA.AperFunction,ViaPad*
%ADD15C,0.600000*%
G04 #@! TD*
G04 #@! TA.AperFunction,Conductor*
%ADD16C,0.250000*%
G04 #@! TD*
G04 #@! TA.AperFunction,Conductor*
%ADD17C,0.254000*%
G04 #@! TD*
G04 APERTURE END LIST*
D10*
G04 #@! TO.P,U1,1*
G04 #@! TO.N,/VPP*
X130086000Y-109959000D03*
G04 #@! TO.P,U1,2*
G04 #@! TO.N,/E*
X132626000Y-109959000D03*
G04 #@! TO.P,U1,3*
G04 #@! TO.N,/D15*
X135166000Y-109959000D03*
G04 #@! TO.P,U1,4*
G04 #@! TO.N,/D14*
X137706000Y-109959000D03*
G04 #@! TO.P,U1,5*
G04 #@! TO.N,/D13*
X140246000Y-109959000D03*
G04 #@! TO.P,U1,6*
G04 #@! TO.N,/D12*
X142786000Y-109959000D03*
G04 #@! TO.P,U1,7*
G04 #@! TO.N,/D11*
X145326000Y-109959000D03*
G04 #@! TO.P,U1,8*
G04 #@! TO.N,/D10*
X147866000Y-109959000D03*
G04 #@! TO.P,U1,9*
G04 #@! TO.N,/D9*
X150406000Y-109959000D03*
G04 #@! TO.P,U1,10*
G04 #@! TO.N,/D8*
X152946000Y-109959000D03*
G04 #@! TO.P,U1,11*
G04 #@! TO.N,GND*
X155486000Y-109959000D03*
G04 #@! TO.P,U1,12*
G04 #@! TO.N,/D7*
X158026000Y-109959000D03*
G04 #@! TO.P,U1,13*
G04 #@! TO.N,/D6*
X160566000Y-109959000D03*
G04 #@! TO.P,U1,14*
G04 #@! TO.N,/D5*
X163106000Y-109959000D03*
G04 #@! TO.P,U1,15*
G04 #@! TO.N,/D4*
X165646000Y-109959000D03*
G04 #@! TO.P,U1,16*
G04 #@! TO.N,/D3*
X168186000Y-109959000D03*
G04 #@! TO.P,U1,17*
G04 #@! TO.N,/D2*
X170726000Y-109959000D03*
G04 #@! TO.P,U1,18*
G04 #@! TO.N,/D1*
X173266000Y-109959000D03*
G04 #@! TO.P,U1,19*
G04 #@! TO.N,/D0*
X175806000Y-109959000D03*
G04 #@! TO.P,U1,20*
G04 #@! TO.N,/N$5*
X178346000Y-109959000D03*
G04 #@! TO.P,U1,21*
G04 #@! TO.N,/A0*
X178346000Y-94969000D03*
G04 #@! TO.P,U1,22*
G04 #@! TO.N,/A1*
X175806000Y-94969000D03*
G04 #@! TO.P,U1,23*
G04 #@! TO.N,/A2*
X173266000Y-94969000D03*
G04 #@! TO.P,U1,24*
G04 #@! TO.N,/A3*
X170726000Y-94969000D03*
G04 #@! TO.P,U1,25*
G04 #@! TO.N,/A4*
X168186000Y-94969000D03*
G04 #@! TO.P,U1,26*
G04 #@! TO.N,/A5*
X165646000Y-94969000D03*
G04 #@! TO.P,U1,27*
G04 #@! TO.N,/A6*
X163106000Y-94969000D03*
G04 #@! TO.P,U1,28*
G04 #@! TO.N,/A7*
X160566000Y-94969000D03*
G04 #@! TO.P,U1,29*
G04 #@! TO.N,/A8*
X158026000Y-94969000D03*
G04 #@! TO.P,U1,30*
G04 #@! TO.N,GND*
X155486000Y-94969000D03*
G04 #@! TO.P,U1,31*
G04 #@! TO.N,/A9*
X152946000Y-94969000D03*
G04 #@! TO.P,U1,32*
G04 #@! TO.N,/A10*
X150406000Y-94969000D03*
G04 #@! TO.P,U1,33*
G04 #@! TO.N,/A11*
X147866000Y-94969000D03*
G04 #@! TO.P,U1,34*
G04 #@! TO.N,/A12*
X145326000Y-94969000D03*
G04 #@! TO.P,U1,35*
G04 #@! TO.N,/A13*
X142786000Y-94969000D03*
G04 #@! TO.P,U1,36*
G04 #@! TO.N,/A14*
X140246000Y-94969000D03*
G04 #@! TO.P,U1,37*
G04 #@! TO.N,/A15*
X137706000Y-94969000D03*
G04 #@! TO.P,U1,38*
G04 #@! TO.N,/A16*
X135166000Y-94969000D03*
G04 #@! TO.P,U1,39*
G04 #@! TO.N,/A17*
X132626000Y-94969000D03*
G04 #@! TO.P,U1,40*
G04 #@! TO.N,VCC*
X130086000Y-94969000D03*
G04 #@! TD*
D11*
G04 #@! TO.P,R1,1*
G04 #@! TO.N,/A20*
X182156000Y-113894000D03*
G04 #@! TO.P,R1,2*
G04 #@! TO.N,VCC*
X182156000Y-124054000D03*
G04 #@! TD*
G04 #@! TO.P,R2,1*
G04 #@! TO.N,/A19*
X178346000Y-113894000D03*
G04 #@! TO.P,R2,2*
G04 #@! TO.N,VCC*
X178346000Y-124054000D03*
G04 #@! TD*
D12*
G04 #@! TO.P,SW2,1*
G04 #@! TO.N,/A18*
X149136000Y-122784000D03*
G04 #@! TO.P,SW2,2*
G04 #@! TO.N,/A19*
X151676000Y-122784000D03*
G04 #@! TO.P,SW2,3*
G04 #@! TO.N,/A20*
X154216000Y-122784000D03*
G04 #@! TO.P,SW2,4*
G04 #@! TO.N,GND*
X154216000Y-115164000D03*
G04 #@! TO.P,SW2,6*
X149136000Y-115164000D03*
G04 #@! TO.P,SW2,5*
X151676000Y-115164000D03*
G04 #@! TD*
D11*
G04 #@! TO.P,R3,1*
G04 #@! TO.N,/A18*
X174536000Y-113894000D03*
G04 #@! TO.P,R3,2*
G04 #@! TO.N,VCC*
X174536000Y-124054000D03*
G04 #@! TD*
D13*
G04 #@! TO.P,SW1,2*
G04 #@! TO.N,/N$2*
X131086000Y-118974000D03*
G04 #@! TO.P,SW1,5*
G04 #@! TO.N,/N$6*
X133626000Y-118974000D03*
G04 #@! TO.P,SW1,1*
G04 #@! TO.N,/VPP*
X131086000Y-121514000D03*
G04 #@! TO.P,SW1,3*
G04 #@! TO.N,/A20*
X131086000Y-116434000D03*
G04 #@! TO.P,SW1,4*
G04 #@! TO.N,/N$5*
X133626000Y-121514000D03*
G04 #@! TO.P,SW1,6*
G04 #@! TO.N,/N$4*
X133626000Y-116434000D03*
G04 #@! TD*
D11*
G04 #@! TO.P,R4,1*
G04 #@! TO.N,GND*
X170726000Y-113894000D03*
G04 #@! TO.P,R4,2*
G04 #@! TO.N,/N$4*
X170726000Y-124054000D03*
G04 #@! TD*
G04 #@! TO.P,R5,1*
G04 #@! TO.N,VCC*
X166916000Y-124054000D03*
G04 #@! TO.P,R5,2*
G04 #@! TO.N,/N$1*
X166916000Y-113894000D03*
G04 #@! TD*
D14*
G04 #@! TO.P,Q1,C*
G04 #@! TO.N,/N$4*
X161836000Y-121514000D03*
G04 #@! TO.P,Q1,E*
G04 #@! TO.N,/VPP*
X161836000Y-116434000D03*
G04 #@! TO.P,Q1,B*
G04 #@! TO.N,/N$1*
X161836000Y-118974000D03*
G04 #@! TD*
D10*
G04 #@! TO.P,ZX1,1*
G04 #@! TO.N,N/C*
X118021000Y-103733600D03*
G04 #@! TO.P,ZX1,2*
X120561000Y-103733600D03*
G04 #@! TO.P,ZX1,3*
X123101000Y-103733600D03*
G04 #@! TO.P,ZX1,4*
G04 #@! TO.N,/A18*
X125641000Y-103733600D03*
G04 #@! TO.P,ZX1,5*
G04 #@! TO.N,/A17*
X128181000Y-103733600D03*
G04 #@! TO.P,ZX1,6*
G04 #@! TO.N,/A7*
X130721000Y-103733600D03*
G04 #@! TO.P,ZX1,7*
G04 #@! TO.N,/A6*
X133261000Y-103733600D03*
G04 #@! TO.P,ZX1,8*
G04 #@! TO.N,/A5*
X135801000Y-103733600D03*
G04 #@! TO.P,ZX1,9*
G04 #@! TO.N,/A4*
X138341000Y-103733600D03*
G04 #@! TO.P,ZX1,10*
G04 #@! TO.N,/A3*
X140881000Y-103733600D03*
G04 #@! TO.P,ZX1,11*
G04 #@! TO.N,/A2*
X143421000Y-103733600D03*
G04 #@! TO.P,ZX1,12*
G04 #@! TO.N,/A1*
X145961000Y-103733600D03*
G04 #@! TO.P,ZX1,13*
G04 #@! TO.N,/A0*
X148501000Y-103733600D03*
G04 #@! TO.P,ZX1,14*
G04 #@! TO.N,/E*
X151041000Y-103733600D03*
G04 #@! TO.P,ZX1,15*
G04 #@! TO.N,GND*
X153581000Y-103733600D03*
G04 #@! TO.P,ZX1,16*
G04 #@! TO.N,/N$6*
X156121000Y-103733600D03*
G04 #@! TO.P,ZX1,17*
G04 #@! TO.N,/D0*
X158661000Y-103733600D03*
G04 #@! TO.P,ZX1,18*
G04 #@! TO.N,/D8*
X161201000Y-103733600D03*
G04 #@! TO.P,ZX1,19*
G04 #@! TO.N,/D1*
X163741000Y-103733600D03*
G04 #@! TO.P,ZX1,20*
G04 #@! TO.N,/D9*
X166281000Y-103733600D03*
G04 #@! TO.P,ZX1,21*
G04 #@! TO.N,/D2*
X168821000Y-103733600D03*
G04 #@! TO.P,ZX1,22*
G04 #@! TO.N,/D10*
X171361000Y-103733600D03*
G04 #@! TO.P,ZX1,23*
G04 #@! TO.N,/D3*
X173901000Y-103733600D03*
G04 #@! TO.P,ZX1,24*
G04 #@! TO.N,/D11*
X176441000Y-103733600D03*
G04 #@! TO.P,ZX1,25*
G04 #@! TO.N,VCC*
X176441000Y-88493600D03*
G04 #@! TO.P,ZX1,26*
G04 #@! TO.N,/D4*
X173901000Y-88493600D03*
G04 #@! TO.P,ZX1,27*
G04 #@! TO.N,/D12*
X171361000Y-88493600D03*
G04 #@! TO.P,ZX1,28*
G04 #@! TO.N,/D5*
X168821000Y-88493600D03*
G04 #@! TO.P,ZX1,29*
G04 #@! TO.N,/D13*
X166281000Y-88493600D03*
G04 #@! TO.P,ZX1,30*
G04 #@! TO.N,/D6*
X163741000Y-88493600D03*
G04 #@! TO.P,ZX1,31*
G04 #@! TO.N,/D14*
X161201000Y-88493600D03*
G04 #@! TO.P,ZX1,32*
G04 #@! TO.N,/D7*
X158661000Y-88493600D03*
G04 #@! TO.P,ZX1,33*
G04 #@! TO.N,/D15*
X156121000Y-88493600D03*
G04 #@! TO.P,ZX1,34*
G04 #@! TO.N,GND*
X153581000Y-88493600D03*
G04 #@! TO.P,ZX1,35*
G04 #@! TO.N,/N$2*
X151041000Y-88493600D03*
G04 #@! TO.P,ZX1,36*
G04 #@! TO.N,/A16*
X148501000Y-88493600D03*
G04 #@! TO.P,ZX1,37*
G04 #@! TO.N,/A15*
X145961000Y-88493600D03*
G04 #@! TO.P,ZX1,38*
G04 #@! TO.N,/A14*
X143421000Y-88493600D03*
G04 #@! TO.P,ZX1,39*
G04 #@! TO.N,/A13*
X140881000Y-88493600D03*
G04 #@! TO.P,ZX1,40*
G04 #@! TO.N,/A12*
X138341000Y-88493600D03*
G04 #@! TO.P,ZX1,41*
G04 #@! TO.N,/A11*
X135801000Y-88493600D03*
G04 #@! TO.P,ZX1,42*
G04 #@! TO.N,/A10*
X133261000Y-88493600D03*
G04 #@! TO.P,ZX1,43*
G04 #@! TO.N,/A9*
X130721000Y-88493600D03*
G04 #@! TO.P,ZX1,44*
G04 #@! TO.N,/A8*
X128181000Y-88493600D03*
G04 #@! TO.P,ZX1,45*
G04 #@! TO.N,/A19*
X125641000Y-88493600D03*
G04 #@! TO.P,ZX1,46*
G04 #@! TO.N,N/C*
X123101000Y-88493600D03*
G04 #@! TO.P,ZX1,47*
X120561000Y-88493600D03*
G04 #@! TO.P,ZX1,48*
X118021000Y-88493600D03*
G04 #@! TD*
D15*
G04 #@! TO.N,/D13*
X149544900Y-97372200D03*
G04 #@! TO.N,/D8*
X154896900Y-107025300D03*
G04 #@! TD*
D16*
G04 #@! TO.N,GND*
X155486000Y-109959000D02*
X155486000Y-108181300D01*
X155486000Y-108181300D02*
X155486000Y-105524400D01*
X155486000Y-105524400D02*
X153581000Y-103619400D01*
X153581000Y-103422900D02*
X153581000Y-101955900D01*
X153581000Y-103733600D02*
X153581000Y-103619400D01*
X153581000Y-103422900D02*
X153581000Y-103619400D01*
X155486000Y-94969000D02*
X155486000Y-100050900D01*
X155486000Y-100050900D02*
X153581000Y-101955900D01*
X155486000Y-113002100D02*
X169834100Y-113002100D01*
X169834100Y-113002100D02*
X170726000Y-113894000D01*
X154216000Y-113667100D02*
X154881000Y-113002100D01*
X154881000Y-113002100D02*
X155486000Y-113002100D01*
X155486000Y-113002100D02*
X155486000Y-109959000D01*
X154216000Y-115164000D02*
X154216000Y-113667100D01*
G04 #@! TO.N,VCC*
X130086000Y-94969000D02*
X130086000Y-93191300D01*
X176441000Y-88804300D02*
X173100000Y-85463300D01*
X173100000Y-85463300D02*
X133924300Y-85463300D01*
X133924300Y-85463300D02*
X132133500Y-87254100D01*
X132133500Y-87254100D02*
X132133500Y-91143800D01*
X132133500Y-91143800D02*
X130086000Y-93191300D01*
X176441000Y-88804300D02*
X176441000Y-90271300D01*
X176441000Y-88493600D02*
X176441000Y-88804300D01*
X174536000Y-124054000D02*
X173644600Y-124945400D01*
X173644600Y-124945400D02*
X167807400Y-124945400D01*
X167807400Y-124945400D02*
X166916000Y-124054000D01*
X177308700Y-123016700D02*
X178346000Y-124054000D01*
X174536000Y-124054000D02*
X175573300Y-123016700D01*
X175573300Y-123016700D02*
X177308700Y-123016700D01*
X176441000Y-90271300D02*
X176867000Y-90697300D01*
X176867000Y-90697300D02*
X176867000Y-101903200D01*
X176867000Y-101903200D02*
X177515600Y-102551800D01*
X177515600Y-102551800D02*
X177515600Y-105314000D01*
X177515600Y-105314000D02*
X177308700Y-105520900D01*
X177308700Y-105520900D02*
X177308700Y-123016700D01*
G04 #@! TO.N,/N$4*
X160339100Y-121514000D02*
X160062900Y-121237800D01*
X160062900Y-121237800D02*
X153883400Y-121237800D01*
X153883400Y-121237800D02*
X152629700Y-122491500D01*
X152629700Y-122491500D02*
X152629700Y-123698000D01*
X152629700Y-123698000D02*
X152045100Y-124282600D01*
X152045100Y-124282600D02*
X141474600Y-124282600D01*
X141474600Y-124282600D02*
X133626000Y-116434000D01*
X161836000Y-121514000D02*
X160339100Y-121514000D01*
G04 #@! TO.N,/N$1*
X161836000Y-118974000D02*
X161836000Y-118086700D01*
X161836000Y-118086700D02*
X162723300Y-118086700D01*
X162723300Y-118086700D02*
X166916000Y-113894000D01*
G04 #@! TO.N,/A20*
X154216000Y-122784000D02*
X154216000Y-124280900D01*
X131086000Y-116434000D02*
X132213500Y-117561500D01*
X132213500Y-117561500D02*
X134183800Y-117561500D01*
X134183800Y-117561500D02*
X141346000Y-124723700D01*
X141346000Y-124723700D02*
X153773200Y-124723700D01*
X153773200Y-124723700D02*
X154216000Y-124280900D01*
G04 #@! TO.N,/A19*
X151676000Y-122784000D02*
X151676000Y-121287100D01*
X125641000Y-88493600D02*
X125641000Y-98942200D01*
X125641000Y-98942200D02*
X129308500Y-102609700D01*
X129308500Y-102609700D02*
X129308500Y-104602100D01*
X129308500Y-104602100D02*
X132036900Y-107330500D01*
X132036900Y-107330500D02*
X132269400Y-107330500D01*
X132269400Y-107330500D02*
X133753500Y-108814600D01*
X133753500Y-108814600D02*
X133753500Y-110786900D01*
X133753500Y-110786900D02*
X144253700Y-121287100D01*
X144253700Y-121287100D02*
X151676000Y-121287100D01*
G04 #@! TO.N,/A18*
X125641000Y-103733600D02*
X125641000Y-105511300D01*
X125641000Y-105511300D02*
X127896200Y-105511300D01*
X127896200Y-105511300D02*
X131285500Y-108900600D01*
X131285500Y-108900600D02*
X131285500Y-110827800D01*
X131285500Y-110827800D02*
X142147500Y-121689800D01*
X142147500Y-121689800D02*
X148041900Y-121689800D01*
X148041900Y-121689800D02*
X148041900Y-121689900D01*
X148041900Y-121689900D02*
X149136000Y-122784000D01*
G04 #@! TO.N,/D15*
X156121000Y-88493600D02*
X156121000Y-90271300D01*
X156121000Y-90271300D02*
X154216000Y-92176300D01*
X154216000Y-92176300D02*
X154216000Y-98156000D01*
X154216000Y-98156000D02*
X149771000Y-102601000D01*
X149771000Y-102601000D02*
X149771000Y-104695800D01*
X149771000Y-104695800D02*
X148107500Y-106359300D01*
X148107500Y-106359300D02*
X146699100Y-106359300D01*
X146699100Y-106359300D02*
X143844200Y-109214200D01*
X143844200Y-109214200D02*
X143844200Y-111106200D01*
X143844200Y-111106200D02*
X143174600Y-111775800D01*
X143174600Y-111775800D02*
X136982800Y-111775800D01*
X136982800Y-111775800D02*
X135166000Y-109959000D01*
G04 #@! TO.N,/D14*
X161201000Y-86715900D02*
X160779400Y-86294300D01*
X160779400Y-86294300D02*
X152927800Y-86294300D01*
X152927800Y-86294300D02*
X152109700Y-87112400D01*
X152109700Y-87112400D02*
X152109700Y-91185500D01*
X152109700Y-91185500D02*
X151494300Y-91800900D01*
X151494300Y-91800900D02*
X151494300Y-96099600D01*
X151494300Y-96099600D02*
X150847100Y-96746800D01*
X150847100Y-96746800D02*
X145627900Y-96746800D01*
X145627900Y-96746800D02*
X139843200Y-102531500D01*
X139843200Y-102531500D02*
X139843200Y-106044100D01*
X139843200Y-106044100D02*
X137706000Y-108181300D01*
X137706000Y-109959000D02*
X137706000Y-108181300D01*
X161201000Y-88493600D02*
X161201000Y-86715900D01*
G04 #@! TO.N,/D13*
X140246000Y-108181300D02*
X141232100Y-108181300D01*
X141232100Y-108181300D02*
X144458200Y-104955200D01*
X144458200Y-104955200D02*
X144458200Y-102458900D01*
X144458200Y-102458900D02*
X149544900Y-97372200D01*
X140246000Y-109959000D02*
X140246000Y-108181300D01*
G04 #@! TO.N,/D12*
X142786000Y-109959000D02*
X142786000Y-108181300D01*
X171361000Y-88493600D02*
X171361000Y-86715900D01*
X171361000Y-86715900D02*
X163263100Y-86715900D01*
X163263100Y-86715900D02*
X162471000Y-87508000D01*
X162471000Y-87508000D02*
X162471000Y-89492100D01*
X162471000Y-89492100D02*
X161681600Y-90281500D01*
X161681600Y-90281500D02*
X160783200Y-90281500D01*
X160783200Y-90281500D02*
X159931000Y-89429300D01*
X159931000Y-89429300D02*
X159931000Y-87501900D01*
X159931000Y-87501900D02*
X159130500Y-86701400D01*
X159130500Y-86701400D02*
X153115700Y-86701400D01*
X153115700Y-86701400D02*
X152532900Y-87284200D01*
X152532900Y-87284200D02*
X152532900Y-92146300D01*
X152532900Y-92146300D02*
X151907800Y-92771400D01*
X151907800Y-92771400D02*
X151907800Y-96649600D01*
X151907800Y-96649600D02*
X147088500Y-101468900D01*
X147088500Y-101468900D02*
X147088500Y-104858000D01*
X147088500Y-104858000D02*
X143765200Y-108181300D01*
X143765200Y-108181300D02*
X142786000Y-108181300D01*
G04 #@! TO.N,/D8*
X152946000Y-109959000D02*
X152946000Y-108181300D01*
X154896900Y-107025300D02*
X153740900Y-108181300D01*
X153740900Y-108181300D02*
X152946000Y-108181300D01*
G04 #@! TO.N,/D7*
X158026000Y-109959000D02*
X158026000Y-108181300D01*
X158661000Y-88493600D02*
X158661000Y-90271300D01*
X158661000Y-90271300D02*
X159057900Y-90668200D01*
X159057900Y-90668200D02*
X159057900Y-99591800D01*
X159057900Y-99591800D02*
X157602600Y-101047100D01*
X157602600Y-101047100D02*
X157602600Y-107757900D01*
X157602600Y-107757900D02*
X158026000Y-108181300D01*
G04 #@! TO.N,/D6*
X160566000Y-109959000D02*
X160566000Y-108181300D01*
X163741000Y-88493600D02*
X163741000Y-90271300D01*
X163741000Y-90271300D02*
X161693500Y-92318800D01*
X161693500Y-92318800D02*
X161693500Y-98877000D01*
X161693500Y-98877000D02*
X160169100Y-100401400D01*
X160169100Y-100401400D02*
X160169100Y-107784400D01*
X160169100Y-107784400D02*
X160566000Y-108181300D01*
G04 #@! TO.N,/D5*
X163106000Y-109959000D02*
X163106000Y-108181300D01*
X168821000Y-88493600D02*
X168821000Y-90271300D01*
X168821000Y-90271300D02*
X166916000Y-92176300D01*
X166916000Y-92176300D02*
X166916000Y-99353700D01*
X166916000Y-99353700D02*
X165153500Y-101116200D01*
X165153500Y-101116200D02*
X165153500Y-106133800D01*
X165153500Y-106133800D02*
X163106000Y-108181300D01*
G04 #@! TO.N,/D4*
X173901000Y-90271300D02*
X171996000Y-92176300D01*
X171996000Y-92176300D02*
X171996000Y-99353700D01*
X171996000Y-99353700D02*
X170233500Y-101116200D01*
X170233500Y-101116200D02*
X170233500Y-104541300D01*
X170233500Y-104541300D02*
X166593500Y-108181300D01*
X166593500Y-108181300D02*
X165646000Y-108181300D01*
X165646000Y-109959000D02*
X165646000Y-108181300D01*
X173901000Y-88493600D02*
X173901000Y-90271300D01*
G04 #@! TO.N,/D3*
X168186000Y-109959000D02*
X168186000Y-108181300D01*
X173901000Y-103733600D02*
X173901000Y-105511300D01*
X173901000Y-105511300D02*
X170856000Y-105511300D01*
X170856000Y-105511300D02*
X168186000Y-108181300D01*
G04 #@! TO.N,/D0*
X175806000Y-109959000D02*
X175806000Y-111736700D01*
X158661000Y-103733600D02*
X158661000Y-105511300D01*
X158661000Y-105511300D02*
X159087000Y-105937300D01*
X159087000Y-105937300D02*
X159087000Y-110721900D01*
X159087000Y-110721900D02*
X160101800Y-111736700D01*
X160101800Y-111736700D02*
X175806000Y-111736700D01*
G04 #@! TO.N,/A10*
X150406000Y-94969000D02*
X150406000Y-93191300D01*
X133261000Y-88493600D02*
X133261000Y-86715900D01*
X133261000Y-86715900D02*
X134105100Y-85871800D01*
X134105100Y-85871800D02*
X146167900Y-85871800D01*
X146167900Y-85871800D02*
X147391500Y-87095400D01*
X147391500Y-87095400D02*
X147391500Y-90176800D01*
X147391500Y-90176800D02*
X150406000Y-93191300D01*
G04 #@! TO.N,/A11*
X147866000Y-94969000D02*
X147866000Y-93191300D01*
X135801000Y-88493600D02*
X135801000Y-86715900D01*
X135801000Y-86715900D02*
X136210600Y-86306300D01*
X136210600Y-86306300D02*
X146013100Y-86306300D01*
X146013100Y-86306300D02*
X146988700Y-87281900D01*
X146988700Y-87281900D02*
X146988700Y-92314000D01*
X146988700Y-92314000D02*
X147866000Y-93191300D01*
G04 #@! TO.N,/A13*
X142786000Y-94969000D02*
X142786000Y-93191300D01*
X140881000Y-88493600D02*
X140881000Y-91286300D01*
X140881000Y-91286300D02*
X142786000Y-93191300D01*
G04 #@! TO.N,/A15*
X137706000Y-94969000D02*
X137706000Y-93191300D01*
X145961000Y-88493600D02*
X144176500Y-86709100D01*
X144176500Y-86709100D02*
X140400900Y-86709100D01*
X140400900Y-86709100D02*
X139753500Y-87356500D01*
X139753500Y-87356500D02*
X139753500Y-91143800D01*
X139753500Y-91143800D02*
X137706000Y-93191300D01*
G04 #@! TD*
D17*
G04 #@! TO.N,/VPP*
G36*
X188823390Y-83732572D02*
X189135916Y-83913011D01*
X189367879Y-84189453D01*
X189494780Y-84538109D01*
X189510600Y-84718932D01*
X189510601Y-125327999D01*
X189445564Y-125677205D01*
X189270384Y-125961401D01*
X189004639Y-126163477D01*
X188787341Y-126226403D01*
X128332668Y-126127366D01*
X128165599Y-126024384D01*
X127963523Y-125758639D01*
X127866284Y-125422850D01*
X127862400Y-125343433D01*
X127862400Y-122549413D01*
X130230192Y-122549413D01*
X130309017Y-122799490D01*
X130860097Y-122998977D01*
X131445569Y-122972389D01*
X131862983Y-122799490D01*
X131941808Y-122549413D01*
X131086000Y-121693605D01*
X130230192Y-122549413D01*
X127862400Y-122549413D01*
X127862400Y-121288097D01*
X129601023Y-121288097D01*
X129627611Y-121873569D01*
X129800510Y-122290983D01*
X130050587Y-122369808D01*
X130906395Y-121514000D01*
X131265605Y-121514000D01*
X132121413Y-122369808D01*
X132371490Y-122290983D01*
X132491202Y-121960280D01*
X132592412Y-122204622D01*
X132935378Y-122547588D01*
X133383486Y-122733200D01*
X133868514Y-122733200D01*
X134316622Y-122547588D01*
X134659588Y-122204622D01*
X134845200Y-121756514D01*
X134845200Y-121271486D01*
X134659588Y-120823378D01*
X134316622Y-120480412D01*
X133868514Y-120294800D01*
X133383486Y-120294800D01*
X132935378Y-120480412D01*
X132592412Y-120823378D01*
X132499837Y-121046874D01*
X132371490Y-120737017D01*
X132121413Y-120658192D01*
X131265605Y-121514000D01*
X130906395Y-121514000D01*
X130050587Y-120658192D01*
X129800510Y-120737017D01*
X129601023Y-121288097D01*
X127862400Y-121288097D01*
X127862400Y-118731486D01*
X129866800Y-118731486D01*
X129866800Y-119216514D01*
X130052412Y-119664622D01*
X130395378Y-120007588D01*
X130618874Y-120100163D01*
X130309017Y-120228510D01*
X130230192Y-120478587D01*
X131086000Y-121334395D01*
X131941808Y-120478587D01*
X131862983Y-120228510D01*
X131532280Y-120108798D01*
X131776622Y-120007588D01*
X132119588Y-119664622D01*
X132305200Y-119216514D01*
X132305200Y-118731486D01*
X132119588Y-118283378D01*
X131776622Y-117940412D01*
X131328514Y-117754800D01*
X130843486Y-117754800D01*
X130395378Y-117940412D01*
X130052412Y-118283378D01*
X129866800Y-118731486D01*
X127862400Y-118731486D01*
X127862400Y-110086000D01*
X128701000Y-110086000D01*
X128701000Y-110836000D01*
X128855028Y-111356349D01*
X129196460Y-111778145D01*
X129673316Y-112037173D01*
X129744815Y-112051318D01*
X129959000Y-111928656D01*
X129959000Y-110086000D01*
X128701000Y-110086000D01*
X127862400Y-110086000D01*
X127862400Y-109959603D01*
X127861309Y-109954116D01*
X127856674Y-109859355D01*
X127855675Y-109855146D01*
X127856097Y-109850842D01*
X127847971Y-109807211D01*
X127731549Y-109405176D01*
X127722691Y-109387564D01*
X127717422Y-109368564D01*
X127694134Y-109330784D01*
X127673141Y-109303176D01*
X127670558Y-108861118D01*
X127660607Y-108812575D01*
X127632836Y-108771534D01*
X127591475Y-108744245D01*
X127543877Y-108734860D01*
X127041536Y-108733605D01*
X127022799Y-108722055D01*
X127004403Y-108714956D01*
X126987740Y-108704423D01*
X126945115Y-108692079D01*
X126945112Y-108692078D01*
X126945111Y-108692078D01*
X126534999Y-108615698D01*
X126514397Y-108611600D01*
X108478995Y-108611600D01*
X108129795Y-108546564D01*
X107845599Y-108371384D01*
X107643523Y-108105639D01*
X107546284Y-107769850D01*
X107542400Y-107690433D01*
X107542400Y-102872210D01*
X116890000Y-102872210D01*
X116890000Y-104594991D01*
X116955623Y-104924894D01*
X117205596Y-105299005D01*
X117579707Y-105548978D01*
X118021000Y-105636757D01*
X118462294Y-105548978D01*
X118836405Y-105299005D01*
X119086378Y-104924894D01*
X119152000Y-104594991D01*
X119152000Y-102872210D01*
X119430000Y-102872210D01*
X119430000Y-104594991D01*
X119495623Y-104924894D01*
X119745596Y-105299005D01*
X120119707Y-105548978D01*
X120561000Y-105636757D01*
X121002294Y-105548978D01*
X121376405Y-105299005D01*
X121626378Y-104924894D01*
X121692000Y-104594991D01*
X121692000Y-102872210D01*
X121970000Y-102872210D01*
X121970000Y-104594991D01*
X122035623Y-104924894D01*
X122285596Y-105299005D01*
X122659707Y-105548978D01*
X123101000Y-105636757D01*
X123542294Y-105548978D01*
X123916405Y-105299005D01*
X124166378Y-104924894D01*
X124232000Y-104594991D01*
X124232000Y-102872209D01*
X124166378Y-102542306D01*
X123916405Y-102168195D01*
X123542293Y-101918222D01*
X123101000Y-101830443D01*
X122659706Y-101918222D01*
X122285595Y-102168195D01*
X122035622Y-102542307D01*
X121970000Y-102872210D01*
X121692000Y-102872210D01*
X121692000Y-102872209D01*
X121626378Y-102542306D01*
X121376405Y-102168195D01*
X121002293Y-101918222D01*
X120561000Y-101830443D01*
X120119706Y-101918222D01*
X119745595Y-102168195D01*
X119495622Y-102542307D01*
X119430000Y-102872210D01*
X119152000Y-102872210D01*
X119152000Y-102872209D01*
X119086378Y-102542306D01*
X118836405Y-102168195D01*
X118462293Y-101918222D01*
X118021000Y-101830443D01*
X117579706Y-101918222D01*
X117205595Y-102168195D01*
X116955622Y-102542307D01*
X116890000Y-102872210D01*
X107542400Y-102872210D01*
X107542400Y-87632210D01*
X116890000Y-87632210D01*
X116890000Y-89354991D01*
X116955623Y-89684894D01*
X117205596Y-90059005D01*
X117579707Y-90308978D01*
X118021000Y-90396757D01*
X118462294Y-90308978D01*
X118836405Y-90059005D01*
X119086378Y-89684894D01*
X119152000Y-89354991D01*
X119152000Y-87632210D01*
X119430000Y-87632210D01*
X119430000Y-89354991D01*
X119495623Y-89684894D01*
X119745596Y-90059005D01*
X120119707Y-90308978D01*
X120561000Y-90396757D01*
X121002294Y-90308978D01*
X121376405Y-90059005D01*
X121626378Y-89684894D01*
X121692000Y-89354991D01*
X121692000Y-87632210D01*
X121970000Y-87632210D01*
X121970000Y-89354991D01*
X122035623Y-89684894D01*
X122285596Y-90059005D01*
X122659707Y-90308978D01*
X123101000Y-90396757D01*
X123542294Y-90308978D01*
X123916405Y-90059005D01*
X124166378Y-89684894D01*
X124232000Y-89354991D01*
X124232000Y-87632210D01*
X124510000Y-87632210D01*
X124510000Y-89354991D01*
X124575623Y-89684894D01*
X124825596Y-90059005D01*
X125135000Y-90265742D01*
X125135001Y-98892361D01*
X125125087Y-98942200D01*
X125151391Y-99074432D01*
X125164360Y-99139631D01*
X125276195Y-99307006D01*
X125318446Y-99335237D01*
X127874598Y-101891390D01*
X127739706Y-101918222D01*
X127365595Y-102168195D01*
X127115622Y-102542307D01*
X127050000Y-102872210D01*
X127050000Y-104594991D01*
X127115623Y-104924894D01*
X127169349Y-105005300D01*
X126652652Y-105005300D01*
X126706378Y-104924894D01*
X126772000Y-104594991D01*
X126772000Y-102872209D01*
X126706378Y-102542306D01*
X126456405Y-102168195D01*
X126082293Y-101918222D01*
X125641000Y-101830443D01*
X125199706Y-101918222D01*
X124825595Y-102168195D01*
X124575622Y-102542307D01*
X124510000Y-102872210D01*
X124510000Y-104594991D01*
X124575623Y-104924894D01*
X124825596Y-105299005D01*
X125127226Y-105500548D01*
X125125087Y-105511300D01*
X125164359Y-105708731D01*
X125276194Y-105876106D01*
X125443569Y-105987941D01*
X125591165Y-106017300D01*
X125641000Y-106027213D01*
X125690835Y-106017300D01*
X127686609Y-106017300D01*
X129593494Y-107924186D01*
X129196460Y-108139855D01*
X128855028Y-108561651D01*
X128701000Y-109082000D01*
X128701000Y-109832000D01*
X129959000Y-109832000D01*
X129959000Y-109812000D01*
X130213000Y-109812000D01*
X130213000Y-109832000D01*
X130233000Y-109832000D01*
X130233000Y-110086000D01*
X130213000Y-110086000D01*
X130213000Y-111928656D01*
X130427185Y-112051318D01*
X130498684Y-112037173D01*
X130975540Y-111778145D01*
X131219219Y-111477110D01*
X141754463Y-122012355D01*
X141782694Y-122054606D01*
X141890583Y-122126694D01*
X141950068Y-122166441D01*
X142147500Y-122205713D01*
X142197335Y-122195800D01*
X147832209Y-122195800D01*
X148145400Y-122508992D01*
X148145401Y-123491166D01*
X148202177Y-123776600D01*
X141684193Y-123776600D01*
X134768727Y-116861136D01*
X134845200Y-116676514D01*
X134845200Y-116191486D01*
X134659588Y-115743378D01*
X134316622Y-115400412D01*
X133868514Y-115214800D01*
X133383486Y-115214800D01*
X132935378Y-115400412D01*
X132592412Y-115743378D01*
X132406800Y-116191486D01*
X132406800Y-116676514D01*
X132563781Y-117055500D01*
X132423092Y-117055500D01*
X132228727Y-116861136D01*
X132305200Y-116676514D01*
X132305200Y-116191486D01*
X132119588Y-115743378D01*
X131776622Y-115400412D01*
X131328514Y-115214800D01*
X130843486Y-115214800D01*
X130395378Y-115400412D01*
X130052412Y-115743378D01*
X129866800Y-116191486D01*
X129866800Y-116676514D01*
X130052412Y-117124622D01*
X130395378Y-117467588D01*
X130843486Y-117653200D01*
X131328514Y-117653200D01*
X131513136Y-117576727D01*
X131820463Y-117884055D01*
X131848694Y-117926306D01*
X131961281Y-118001533D01*
X132016068Y-118038141D01*
X132213500Y-118077413D01*
X132263335Y-118067500D01*
X132808290Y-118067500D01*
X132592412Y-118283378D01*
X132406800Y-118731486D01*
X132406800Y-119216514D01*
X132592412Y-119664622D01*
X132935378Y-120007588D01*
X133383486Y-120193200D01*
X133868514Y-120193200D01*
X134316622Y-120007588D01*
X134659588Y-119664622D01*
X134845200Y-119216514D01*
X134845200Y-118938491D01*
X140952963Y-125046255D01*
X140981194Y-125088506D01*
X141148569Y-125200341D01*
X141296165Y-125229700D01*
X141345999Y-125239613D01*
X141395833Y-125229700D01*
X153723366Y-125229700D01*
X153773200Y-125239613D01*
X153823034Y-125229700D01*
X153823035Y-125229700D01*
X153970631Y-125200341D01*
X154138006Y-125088506D01*
X154166238Y-125046253D01*
X154538555Y-124673937D01*
X154580806Y-124645706D01*
X154660611Y-124526268D01*
X154692641Y-124478332D01*
X154731913Y-124280900D01*
X154724778Y-124245030D01*
X154930183Y-124107783D01*
X155149125Y-123780113D01*
X155206600Y-123491166D01*
X155206600Y-122076834D01*
X155149125Y-121787887D01*
X155119667Y-121743800D01*
X159853309Y-121743800D01*
X159946061Y-121836552D01*
X159974294Y-121878806D01*
X160103565Y-121965181D01*
X160141668Y-121990641D01*
X160339100Y-122029913D01*
X160374970Y-122022778D01*
X160512217Y-122228183D01*
X160839887Y-122447125D01*
X161128834Y-122504600D01*
X162543166Y-122504600D01*
X162832113Y-122447125D01*
X163159783Y-122228183D01*
X163378725Y-121900513D01*
X163455607Y-121514000D01*
X163378725Y-121127487D01*
X163159783Y-120799817D01*
X162832113Y-120580875D01*
X162543166Y-120523400D01*
X161128834Y-120523400D01*
X160839887Y-120580875D01*
X160512217Y-120799817D01*
X160445514Y-120899646D01*
X160427706Y-120872994D01*
X160260331Y-120761159D01*
X160112735Y-120731800D01*
X160112734Y-120731800D01*
X160062900Y-120721887D01*
X160013066Y-120731800D01*
X153933235Y-120731800D01*
X153883400Y-120721887D01*
X153685969Y-120761159D01*
X153592851Y-120823378D01*
X153518594Y-120872994D01*
X153490365Y-120915242D01*
X152610551Y-121795057D01*
X152609125Y-121787887D01*
X152390183Y-121460217D01*
X152184778Y-121322970D01*
X152191913Y-121287100D01*
X152152641Y-121089669D01*
X152040806Y-120922294D01*
X151873431Y-120810459D01*
X151725835Y-120781100D01*
X151676000Y-120771187D01*
X151626165Y-120781100D01*
X144463292Y-120781100D01*
X138139027Y-114456835D01*
X148145400Y-114456835D01*
X148145401Y-115871166D01*
X148202876Y-116160113D01*
X148421818Y-116487783D01*
X148749488Y-116706725D01*
X149136000Y-116783607D01*
X149522513Y-116706725D01*
X149850183Y-116487783D01*
X150069125Y-116160113D01*
X150126600Y-115871166D01*
X150126600Y-114456835D01*
X150685400Y-114456835D01*
X150685401Y-115871166D01*
X150742876Y-116160113D01*
X150961818Y-116487783D01*
X151289488Y-116706725D01*
X151676000Y-116783607D01*
X152062513Y-116706725D01*
X152390183Y-116487783D01*
X152609125Y-116160113D01*
X152666600Y-115871166D01*
X152666600Y-114456834D01*
X152609125Y-114167887D01*
X152390183Y-113840217D01*
X152062512Y-113621275D01*
X151676000Y-113544393D01*
X151289487Y-113621275D01*
X150961817Y-113840217D01*
X150742875Y-114167888D01*
X150685400Y-114456835D01*
X150126600Y-114456835D01*
X150126600Y-114456834D01*
X150069125Y-114167887D01*
X149850183Y-113840217D01*
X149522512Y-113621275D01*
X149136000Y-113544393D01*
X148749487Y-113621275D01*
X148421817Y-113840217D01*
X148202875Y-114167888D01*
X148145400Y-114456835D01*
X138139027Y-114456835D01*
X135481576Y-111799385D01*
X135607294Y-111774378D01*
X135981405Y-111524405D01*
X135995187Y-111503779D01*
X136589763Y-112098355D01*
X136617994Y-112140606D01*
X136785369Y-112252441D01*
X136932965Y-112281800D01*
X136982799Y-112291713D01*
X137032633Y-112281800D01*
X143124766Y-112281800D01*
X143174600Y-112291713D01*
X143224434Y-112281800D01*
X143224435Y-112281800D01*
X143372031Y-112252441D01*
X143539406Y-112140606D01*
X143567638Y-112098353D01*
X144166755Y-111499237D01*
X144209006Y-111471006D01*
X144320841Y-111303631D01*
X144330531Y-111254918D01*
X144510596Y-111524405D01*
X144884707Y-111774378D01*
X145326000Y-111862157D01*
X145767294Y-111774378D01*
X146141405Y-111524405D01*
X146391378Y-111150294D01*
X146457000Y-110820391D01*
X146457000Y-109097610D01*
X146735000Y-109097610D01*
X146735000Y-110820391D01*
X146800623Y-111150294D01*
X147050596Y-111524405D01*
X147424707Y-111774378D01*
X147866000Y-111862157D01*
X148307294Y-111774378D01*
X148681405Y-111524405D01*
X148931378Y-111150294D01*
X148997000Y-110820391D01*
X148997000Y-109097610D01*
X149275000Y-109097610D01*
X149275000Y-110820391D01*
X149340623Y-111150294D01*
X149590596Y-111524405D01*
X149964707Y-111774378D01*
X150406000Y-111862157D01*
X150847294Y-111774378D01*
X151221405Y-111524405D01*
X151471378Y-111150294D01*
X151537000Y-110820391D01*
X151537000Y-109097609D01*
X151471378Y-108767706D01*
X151221405Y-108393595D01*
X150847293Y-108143622D01*
X150406000Y-108055843D01*
X149964706Y-108143622D01*
X149590595Y-108393595D01*
X149340622Y-108767707D01*
X149275000Y-109097610D01*
X148997000Y-109097610D01*
X148997000Y-109097609D01*
X148931378Y-108767706D01*
X148681405Y-108393595D01*
X148307293Y-108143622D01*
X147866000Y-108055843D01*
X147424706Y-108143622D01*
X147050595Y-108393595D01*
X146800622Y-108767707D01*
X146735000Y-109097610D01*
X146457000Y-109097610D01*
X146457000Y-109097609D01*
X146391378Y-108767706D01*
X146141405Y-108393595D01*
X145767293Y-108143622D01*
X145653087Y-108120905D01*
X146908692Y-106865300D01*
X148057666Y-106865300D01*
X148107500Y-106875213D01*
X148157334Y-106865300D01*
X148157335Y-106865300D01*
X148304931Y-106835941D01*
X148472306Y-106724106D01*
X148500539Y-106681853D01*
X150088526Y-105093866D01*
X150225596Y-105299005D01*
X150599707Y-105548978D01*
X151041000Y-105636757D01*
X151482294Y-105548978D01*
X151856405Y-105299005D01*
X152106378Y-104924894D01*
X152172000Y-104594991D01*
X152172000Y-102872209D01*
X152106378Y-102542306D01*
X151856405Y-102168195D01*
X151482293Y-101918222D01*
X151221287Y-101866304D01*
X154538555Y-98549037D01*
X154580806Y-98520806D01*
X154692641Y-98353431D01*
X154722000Y-98205835D01*
X154731913Y-98156001D01*
X154722000Y-98106167D01*
X154722000Y-96568753D01*
X154980000Y-96741143D01*
X154980001Y-99841307D01*
X153258445Y-101562863D01*
X153216195Y-101591094D01*
X153165924Y-101666331D01*
X153104360Y-101758469D01*
X153065087Y-101955900D01*
X153067226Y-101966652D01*
X152765595Y-102168195D01*
X152515622Y-102542307D01*
X152450000Y-102872210D01*
X152450000Y-104594991D01*
X152515623Y-104924894D01*
X152765596Y-105299005D01*
X153139707Y-105548978D01*
X153581000Y-105636757D01*
X154022294Y-105548978D01*
X154396405Y-105299005D01*
X154455929Y-105209921D01*
X154980001Y-105733993D01*
X154980001Y-106344300D01*
X154761441Y-106344300D01*
X154511144Y-106447976D01*
X154319576Y-106639544D01*
X154215900Y-106889841D01*
X154215900Y-106990708D01*
X153531309Y-107675300D01*
X152995835Y-107675300D01*
X152946000Y-107665387D01*
X152896165Y-107675300D01*
X152748569Y-107704659D01*
X152581194Y-107816494D01*
X152469359Y-107983869D01*
X152430087Y-108181300D01*
X152432226Y-108192052D01*
X152130595Y-108393595D01*
X151880622Y-108767707D01*
X151815000Y-109097610D01*
X151815000Y-110820391D01*
X151880623Y-111150294D01*
X152130596Y-111524405D01*
X152504707Y-111774378D01*
X152946000Y-111862157D01*
X153387294Y-111774378D01*
X153761405Y-111524405D01*
X154011378Y-111150294D01*
X154077000Y-110820391D01*
X154077000Y-109097609D01*
X154011378Y-108767706D01*
X153938070Y-108657993D01*
X153938331Y-108657941D01*
X154105706Y-108546106D01*
X154133938Y-108503853D01*
X154931492Y-107706300D01*
X154980000Y-107706300D01*
X154980000Y-108186857D01*
X154670595Y-108393595D01*
X154420622Y-108767707D01*
X154355000Y-109097610D01*
X154355000Y-110820391D01*
X154420623Y-111150294D01*
X154670596Y-111524405D01*
X154980000Y-111731142D01*
X154980000Y-112496100D01*
X154930833Y-112496100D01*
X154880999Y-112486187D01*
X154831165Y-112496100D01*
X154683569Y-112525459D01*
X154516194Y-112637294D01*
X154487963Y-112679545D01*
X153893445Y-113274064D01*
X153851195Y-113302294D01*
X153739360Y-113469669D01*
X153700087Y-113667100D01*
X153707222Y-113702970D01*
X153501817Y-113840217D01*
X153282875Y-114167888D01*
X153225400Y-114456835D01*
X153225401Y-115871166D01*
X153282876Y-116160113D01*
X153501818Y-116487783D01*
X153829488Y-116706725D01*
X154216000Y-116783607D01*
X154602513Y-116706725D01*
X154930183Y-116487783D01*
X155149125Y-116160113D01*
X155158121Y-116114882D01*
X160023407Y-116114882D01*
X160148002Y-116307000D01*
X161709000Y-116307000D01*
X161709000Y-115189400D01*
X161099400Y-115189400D01*
X160632779Y-115332740D01*
X160256532Y-115643737D01*
X160027938Y-116075045D01*
X160023407Y-116114882D01*
X155158121Y-116114882D01*
X155206600Y-115871166D01*
X155206600Y-114456834D01*
X155149125Y-114167887D01*
X154930183Y-113840217D01*
X154827251Y-113771440D01*
X155090592Y-113508100D01*
X155436165Y-113508100D01*
X155486000Y-113518013D01*
X155535835Y-113508100D01*
X166003627Y-113508100D01*
X165925400Y-113696957D01*
X165925400Y-114091043D01*
X165948235Y-114146173D01*
X163690200Y-116404209D01*
X163690200Y-116306998D01*
X163523999Y-116306998D01*
X163648593Y-116114882D01*
X163644062Y-116075045D01*
X163415468Y-115643737D01*
X163039221Y-115332740D01*
X162572600Y-115189400D01*
X161963000Y-115189400D01*
X161963000Y-116307000D01*
X161983000Y-116307000D01*
X161983000Y-116561000D01*
X161963000Y-116561000D01*
X161963000Y-116581000D01*
X161709000Y-116581000D01*
X161709000Y-116561000D01*
X160148002Y-116561000D01*
X160023407Y-116753118D01*
X160027938Y-116792955D01*
X160256532Y-117224263D01*
X160632779Y-117535260D01*
X161099400Y-117678600D01*
X161535989Y-117678600D01*
X161471194Y-117721894D01*
X161359359Y-117889269D01*
X161340635Y-117983400D01*
X161128834Y-117983400D01*
X160839887Y-118040875D01*
X160512217Y-118259817D01*
X160293275Y-118587487D01*
X160216393Y-118974000D01*
X160293275Y-119360513D01*
X160512217Y-119688183D01*
X160839887Y-119907125D01*
X161128834Y-119964600D01*
X162543166Y-119964600D01*
X162832113Y-119907125D01*
X163159783Y-119688183D01*
X163378725Y-119360513D01*
X163455607Y-118974000D01*
X163378725Y-118587487D01*
X163202237Y-118323354D01*
X166663827Y-114861765D01*
X166718957Y-114884600D01*
X167113043Y-114884600D01*
X167477130Y-114733790D01*
X167755790Y-114455130D01*
X167906600Y-114091043D01*
X167906600Y-113696957D01*
X167828373Y-113508100D01*
X169624509Y-113508100D01*
X169758236Y-113641827D01*
X169735400Y-113696957D01*
X169735400Y-114091043D01*
X169886210Y-114455130D01*
X170164870Y-114733790D01*
X170528957Y-114884600D01*
X170923043Y-114884600D01*
X171287130Y-114733790D01*
X171565790Y-114455130D01*
X171716600Y-114091043D01*
X171716600Y-113696957D01*
X173545400Y-113696957D01*
X173545400Y-114091043D01*
X173696210Y-114455130D01*
X173974870Y-114733790D01*
X174338957Y-114884600D01*
X174733043Y-114884600D01*
X175097130Y-114733790D01*
X175375790Y-114455130D01*
X175526600Y-114091043D01*
X175526600Y-113696957D01*
X175375790Y-113332870D01*
X175097130Y-113054210D01*
X174733043Y-112903400D01*
X174338957Y-112903400D01*
X173974870Y-113054210D01*
X173696210Y-113332870D01*
X173545400Y-113696957D01*
X171716600Y-113696957D01*
X171565790Y-113332870D01*
X171287130Y-113054210D01*
X170923043Y-112903400D01*
X170528957Y-112903400D01*
X170473827Y-112926236D01*
X170227138Y-112679547D01*
X170198906Y-112637294D01*
X170031531Y-112525459D01*
X169883935Y-112496100D01*
X169883934Y-112496100D01*
X169834100Y-112486187D01*
X169784266Y-112496100D01*
X155992000Y-112496100D01*
X155992000Y-111731143D01*
X156301405Y-111524405D01*
X156551378Y-111150294D01*
X156617000Y-110820391D01*
X156617000Y-109097609D01*
X156551378Y-108767706D01*
X156301405Y-108393595D01*
X155992000Y-108186858D01*
X155992000Y-105611097D01*
X156121000Y-105636757D01*
X156562294Y-105548978D01*
X156936405Y-105299005D01*
X157096601Y-105059255D01*
X157096601Y-107708061D01*
X157086687Y-107757900D01*
X157125960Y-107955331D01*
X157237795Y-108122706D01*
X157280045Y-108150936D01*
X157397690Y-108268582D01*
X157210595Y-108393595D01*
X156960622Y-108767707D01*
X156895000Y-109097610D01*
X156895000Y-110820391D01*
X156960623Y-111150294D01*
X157210596Y-111524405D01*
X157584707Y-111774378D01*
X158026000Y-111862157D01*
X158467294Y-111774378D01*
X158841405Y-111524405D01*
X158974589Y-111325081D01*
X159708763Y-112059255D01*
X159736994Y-112101506D01*
X159904369Y-112213341D01*
X160051965Y-112242700D01*
X160051966Y-112242700D01*
X160101800Y-112252613D01*
X160151634Y-112242700D01*
X175756165Y-112242700D01*
X175806000Y-112252613D01*
X175855835Y-112242700D01*
X176003431Y-112213341D01*
X176170806Y-112101506D01*
X176282641Y-111934131D01*
X176321913Y-111736700D01*
X176319774Y-111725948D01*
X176621405Y-111524405D01*
X176802700Y-111253077D01*
X176802701Y-122510700D01*
X175623135Y-122510700D01*
X175573300Y-122500787D01*
X175375868Y-122540059D01*
X175321081Y-122576667D01*
X175208494Y-122651894D01*
X175180263Y-122694145D01*
X174788173Y-123086236D01*
X174733043Y-123063400D01*
X174338957Y-123063400D01*
X173974870Y-123214210D01*
X173696210Y-123492870D01*
X173545400Y-123856957D01*
X173545400Y-124251043D01*
X173568236Y-124306173D01*
X173435009Y-124439400D01*
X171638580Y-124439400D01*
X171716600Y-124251043D01*
X171716600Y-123856957D01*
X171565790Y-123492870D01*
X171287130Y-123214210D01*
X170923043Y-123063400D01*
X170528957Y-123063400D01*
X170164870Y-123214210D01*
X169886210Y-123492870D01*
X169735400Y-123856957D01*
X169735400Y-124251043D01*
X169813420Y-124439400D01*
X168016992Y-124439400D01*
X167883764Y-124306173D01*
X167906600Y-124251043D01*
X167906600Y-123856957D01*
X167755790Y-123492870D01*
X167477130Y-123214210D01*
X167113043Y-123063400D01*
X166718957Y-123063400D01*
X166354870Y-123214210D01*
X166076210Y-123492870D01*
X165925400Y-123856957D01*
X165925400Y-124251043D01*
X166076210Y-124615130D01*
X166354870Y-124893790D01*
X166718957Y-125044600D01*
X167113043Y-125044600D01*
X167168173Y-125021764D01*
X167414363Y-125267955D01*
X167442594Y-125310206D01*
X167609969Y-125422041D01*
X167757565Y-125451400D01*
X167757566Y-125451400D01*
X167807400Y-125461313D01*
X167857234Y-125451400D01*
X173594766Y-125451400D01*
X173644600Y-125461313D01*
X173694434Y-125451400D01*
X173694435Y-125451400D01*
X173842031Y-125422041D01*
X174009406Y-125310206D01*
X174037638Y-125267953D01*
X174283827Y-125021764D01*
X174338957Y-125044600D01*
X174733043Y-125044600D01*
X175097130Y-124893790D01*
X175375790Y-124615130D01*
X175526600Y-124251043D01*
X175526600Y-123856957D01*
X175503764Y-123801827D01*
X175782892Y-123522700D01*
X177099109Y-123522700D01*
X177378236Y-123801827D01*
X177355400Y-123856957D01*
X177355400Y-124251043D01*
X177506210Y-124615130D01*
X177784870Y-124893790D01*
X178148957Y-125044600D01*
X178543043Y-125044600D01*
X178907130Y-124893790D01*
X179185790Y-124615130D01*
X179336600Y-124251043D01*
X179336600Y-123856957D01*
X181165400Y-123856957D01*
X181165400Y-124251043D01*
X181316210Y-124615130D01*
X181594870Y-124893790D01*
X181958957Y-125044600D01*
X182353043Y-125044600D01*
X182717130Y-124893790D01*
X182995790Y-124615130D01*
X183146600Y-124251043D01*
X183146600Y-123856957D01*
X182995790Y-123492870D01*
X182717130Y-123214210D01*
X182353043Y-123063400D01*
X181958957Y-123063400D01*
X181594870Y-123214210D01*
X181316210Y-123492870D01*
X181165400Y-123856957D01*
X179336600Y-123856957D01*
X179185790Y-123492870D01*
X178907130Y-123214210D01*
X178543043Y-123063400D01*
X178148957Y-123063400D01*
X178093827Y-123086236D01*
X177814700Y-122807109D01*
X177814700Y-114746146D01*
X178148957Y-114884600D01*
X178543043Y-114884600D01*
X178907130Y-114733790D01*
X179185790Y-114455130D01*
X179336600Y-114091043D01*
X179336600Y-113696957D01*
X181165400Y-113696957D01*
X181165400Y-114091043D01*
X181316210Y-114455130D01*
X181594870Y-114733790D01*
X181958957Y-114884600D01*
X182353043Y-114884600D01*
X182717130Y-114733790D01*
X182995790Y-114455130D01*
X183146600Y-114091043D01*
X183146600Y-113696957D01*
X182995790Y-113332870D01*
X182717130Y-113054210D01*
X182353043Y-112903400D01*
X181958957Y-112903400D01*
X181594870Y-113054210D01*
X181316210Y-113332870D01*
X181165400Y-113696957D01*
X179336600Y-113696957D01*
X179185790Y-113332870D01*
X178907130Y-113054210D01*
X178543043Y-112903400D01*
X178148957Y-112903400D01*
X177814700Y-113041854D01*
X177814700Y-111714237D01*
X177904707Y-111774378D01*
X178346000Y-111862157D01*
X178787294Y-111774378D01*
X179161405Y-111524405D01*
X179411378Y-111150294D01*
X179477000Y-110820391D01*
X179477000Y-109097609D01*
X179411378Y-108767706D01*
X179161405Y-108393595D01*
X178787293Y-108143622D01*
X178346000Y-108055843D01*
X177904706Y-108143622D01*
X177814700Y-108203762D01*
X177814700Y-105730491D01*
X177838152Y-105707039D01*
X177880406Y-105678806D01*
X177967153Y-105548978D01*
X177992241Y-105511432D01*
X178031513Y-105314000D01*
X178021600Y-105264165D01*
X178021600Y-102601634D01*
X178031513Y-102551800D01*
X178015602Y-102471813D01*
X177992241Y-102354369D01*
X177880406Y-102186994D01*
X177838156Y-102158764D01*
X177373000Y-101693609D01*
X177373000Y-96298546D01*
X177530596Y-96534405D01*
X177904707Y-96784378D01*
X178346000Y-96872157D01*
X178787294Y-96784378D01*
X179161405Y-96534405D01*
X179411378Y-96160294D01*
X179477000Y-95830391D01*
X179477000Y-94107609D01*
X179411378Y-93777706D01*
X179161405Y-93403595D01*
X178787293Y-93153622D01*
X178346000Y-93065843D01*
X177904706Y-93153622D01*
X177530595Y-93403595D01*
X177373000Y-93639453D01*
X177373000Y-90747134D01*
X177382913Y-90697300D01*
X177372769Y-90646305D01*
X177343641Y-90499869D01*
X177231806Y-90332494D01*
X177189555Y-90304264D01*
X177069310Y-90184018D01*
X177256405Y-90059005D01*
X177506378Y-89684894D01*
X177572000Y-89354991D01*
X177572000Y-87632209D01*
X177506378Y-87302306D01*
X177256405Y-86928195D01*
X176882293Y-86678222D01*
X176441000Y-86590443D01*
X175999706Y-86678222D01*
X175625595Y-86928195D01*
X175487364Y-87135072D01*
X173493039Y-85140747D01*
X173464806Y-85098494D01*
X173297431Y-84986659D01*
X173149835Y-84957300D01*
X173149834Y-84957300D01*
X173100000Y-84947387D01*
X173050166Y-84957300D01*
X133974135Y-84957300D01*
X133924300Y-84947387D01*
X133726868Y-84986659D01*
X133672081Y-85023267D01*
X133559494Y-85098494D01*
X133531263Y-85140745D01*
X131810947Y-86861061D01*
X131768694Y-86889294D01*
X131656859Y-87056670D01*
X131648919Y-87096585D01*
X131536405Y-86928195D01*
X131162293Y-86678222D01*
X130721000Y-86590443D01*
X130279706Y-86678222D01*
X129905595Y-86928195D01*
X129655622Y-87302307D01*
X129590000Y-87632210D01*
X129590000Y-89354991D01*
X129655623Y-89684894D01*
X129905596Y-90059005D01*
X130279707Y-90308978D01*
X130721000Y-90396757D01*
X131162294Y-90308978D01*
X131536405Y-90059005D01*
X131627501Y-89922671D01*
X131627501Y-90934207D01*
X129763445Y-92798263D01*
X129721195Y-92826494D01*
X129626090Y-92968831D01*
X129609360Y-92993869D01*
X129570087Y-93191300D01*
X129572226Y-93202052D01*
X129270596Y-93403595D01*
X129020623Y-93777706D01*
X128955000Y-94107609D01*
X128955000Y-95830390D01*
X129020622Y-96160293D01*
X129270595Y-96534405D01*
X129644706Y-96784378D01*
X130086000Y-96872157D01*
X130527293Y-96784378D01*
X130901405Y-96534405D01*
X131151378Y-96160294D01*
X131217000Y-95830391D01*
X131217000Y-94107609D01*
X131495000Y-94107609D01*
X131495000Y-95830390D01*
X131560622Y-96160293D01*
X131810595Y-96534405D01*
X132184706Y-96784378D01*
X132626000Y-96872157D01*
X133067293Y-96784378D01*
X133441405Y-96534405D01*
X133691378Y-96160294D01*
X133757000Y-95830391D01*
X133757000Y-94107609D01*
X134035000Y-94107609D01*
X134035000Y-95830390D01*
X134100622Y-96160293D01*
X134350595Y-96534405D01*
X134724706Y-96784378D01*
X135166000Y-96872157D01*
X135607293Y-96784378D01*
X135981405Y-96534405D01*
X136231378Y-96160294D01*
X136297000Y-95830391D01*
X136297000Y-94107609D01*
X136231378Y-93777706D01*
X135981405Y-93403595D01*
X135607294Y-93153622D01*
X135166000Y-93065843D01*
X134724707Y-93153622D01*
X134350596Y-93403595D01*
X134100623Y-93777706D01*
X134035000Y-94107609D01*
X133757000Y-94107609D01*
X133691378Y-93777706D01*
X133441405Y-93403595D01*
X133067294Y-93153622D01*
X132626000Y-93065843D01*
X132184707Y-93153622D01*
X131810596Y-93403595D01*
X131560623Y-93777706D01*
X131495000Y-94107609D01*
X131217000Y-94107609D01*
X131151378Y-93777706D01*
X130901405Y-93403595D01*
X130714309Y-93278582D01*
X132456055Y-91536837D01*
X132498306Y-91508606D01*
X132610141Y-91341231D01*
X132639500Y-91193635D01*
X132649413Y-91143801D01*
X132639500Y-91093967D01*
X132639500Y-90188568D01*
X132819707Y-90308978D01*
X133261000Y-90396757D01*
X133702294Y-90308978D01*
X134076405Y-90059005D01*
X134326378Y-89684894D01*
X134392000Y-89354991D01*
X134392000Y-87632209D01*
X134326378Y-87302306D01*
X134076405Y-86928195D01*
X133889309Y-86803182D01*
X134314692Y-86377800D01*
X135418351Y-86377800D01*
X135328904Y-86511669D01*
X135324360Y-86518469D01*
X135285087Y-86715900D01*
X135287226Y-86726652D01*
X134985595Y-86928195D01*
X134735622Y-87302307D01*
X134670000Y-87632210D01*
X134670000Y-89354991D01*
X134735623Y-89684894D01*
X134985596Y-90059005D01*
X135359707Y-90308978D01*
X135801000Y-90396757D01*
X136242294Y-90308978D01*
X136616405Y-90059005D01*
X136866378Y-89684894D01*
X136932000Y-89354991D01*
X136932000Y-87632209D01*
X136866378Y-87302306D01*
X136616405Y-86928195D01*
X136442955Y-86812300D01*
X137699044Y-86812300D01*
X137525595Y-86928195D01*
X137275622Y-87302307D01*
X137210000Y-87632210D01*
X137210000Y-89354991D01*
X137275623Y-89684894D01*
X137525596Y-90059005D01*
X137899707Y-90308978D01*
X138341000Y-90396757D01*
X138782294Y-90308978D01*
X139156405Y-90059005D01*
X139247501Y-89922671D01*
X139247501Y-90934207D01*
X137383445Y-92798263D01*
X137341195Y-92826494D01*
X137246090Y-92968831D01*
X137229360Y-92993869D01*
X137190087Y-93191300D01*
X137192226Y-93202052D01*
X136890596Y-93403595D01*
X136640623Y-93777706D01*
X136575000Y-94107609D01*
X136575000Y-95830390D01*
X136640622Y-96160293D01*
X136890595Y-96534405D01*
X137264706Y-96784378D01*
X137706000Y-96872157D01*
X138147293Y-96784378D01*
X138521405Y-96534405D01*
X138771378Y-96160294D01*
X138837000Y-95830391D01*
X138837000Y-94107610D01*
X139115000Y-94107610D01*
X139115000Y-95830391D01*
X139180623Y-96160294D01*
X139430596Y-96534405D01*
X139804707Y-96784378D01*
X140246000Y-96872157D01*
X140687294Y-96784378D01*
X141061405Y-96534405D01*
X141311378Y-96160294D01*
X141377000Y-95830391D01*
X141377000Y-94107609D01*
X141311378Y-93777706D01*
X141061405Y-93403595D01*
X140687293Y-93153622D01*
X140246000Y-93065843D01*
X139804706Y-93153622D01*
X139430595Y-93403595D01*
X139180622Y-93777707D01*
X139115000Y-94107610D01*
X138837000Y-94107610D01*
X138837000Y-94107609D01*
X138771378Y-93777706D01*
X138521405Y-93403595D01*
X138334309Y-93278582D01*
X140076055Y-91536837D01*
X140118306Y-91508606D01*
X140230141Y-91341231D01*
X140259500Y-91193635D01*
X140269413Y-91143801D01*
X140259500Y-91093967D01*
X140259500Y-90188568D01*
X140375001Y-90265743D01*
X140375001Y-91236461D01*
X140365087Y-91286300D01*
X140394884Y-91436094D01*
X140404360Y-91483731D01*
X140516195Y-91651106D01*
X140558445Y-91679337D01*
X142157691Y-93278582D01*
X141970596Y-93403595D01*
X141720623Y-93777706D01*
X141655000Y-94107609D01*
X141655000Y-95830390D01*
X141720622Y-96160293D01*
X141970595Y-96534405D01*
X142344706Y-96784378D01*
X142786000Y-96872157D01*
X143227293Y-96784378D01*
X143601405Y-96534405D01*
X143851378Y-96160294D01*
X143917000Y-95830391D01*
X143917000Y-94107609D01*
X143851378Y-93777706D01*
X143601405Y-93403595D01*
X143299774Y-93202052D01*
X143301913Y-93191300D01*
X143290954Y-93136205D01*
X143262641Y-92993869D01*
X143150806Y-92826494D01*
X143108555Y-92798263D01*
X141387000Y-91076709D01*
X141387000Y-90265743D01*
X141696405Y-90059005D01*
X141946378Y-89684894D01*
X142012000Y-89354991D01*
X142012000Y-87632209D01*
X141946378Y-87302306D01*
X141888109Y-87215100D01*
X142413892Y-87215100D01*
X142355622Y-87302307D01*
X142290000Y-87632210D01*
X142290000Y-89354991D01*
X142355623Y-89684894D01*
X142605596Y-90059005D01*
X142979707Y-90308978D01*
X143421000Y-90396757D01*
X143862294Y-90308978D01*
X144236405Y-90059005D01*
X144486378Y-89684894D01*
X144552000Y-89354991D01*
X144552000Y-87800191D01*
X144830000Y-88078192D01*
X144830000Y-89354991D01*
X144895623Y-89684894D01*
X145145596Y-90059005D01*
X145519707Y-90308978D01*
X145961000Y-90396757D01*
X146402294Y-90308978D01*
X146482701Y-90255252D01*
X146482701Y-92264161D01*
X146472787Y-92314000D01*
X146511995Y-92511106D01*
X146512060Y-92511431D01*
X146623895Y-92678806D01*
X146666145Y-92707036D01*
X147237690Y-93278583D01*
X147050596Y-93403595D01*
X146800623Y-93777706D01*
X146735000Y-94107609D01*
X146735000Y-95830390D01*
X146800622Y-96160293D01*
X146854415Y-96240800D01*
X146337586Y-96240800D01*
X146391378Y-96160294D01*
X146457000Y-95830391D01*
X146457000Y-94107609D01*
X146391378Y-93777706D01*
X146141405Y-93403595D01*
X145767294Y-93153622D01*
X145326000Y-93065843D01*
X144884707Y-93153622D01*
X144510596Y-93403595D01*
X144260623Y-93777706D01*
X144195000Y-94107609D01*
X144195000Y-95830390D01*
X144260622Y-96160293D01*
X144510595Y-96534405D01*
X144878726Y-96780382D01*
X139520648Y-102138461D01*
X139478394Y-102166694D01*
X139366559Y-102334070D01*
X139343775Y-102448613D01*
X139156405Y-102168195D01*
X138782293Y-101918222D01*
X138341000Y-101830443D01*
X137899706Y-101918222D01*
X137525595Y-102168195D01*
X137275622Y-102542307D01*
X137210000Y-102872210D01*
X137210000Y-104594991D01*
X137275623Y-104924894D01*
X137525596Y-105299005D01*
X137899707Y-105548978D01*
X138341000Y-105636757D01*
X138782294Y-105548978D01*
X139156405Y-105299005D01*
X139337201Y-105028425D01*
X139337201Y-105834507D01*
X137383445Y-107788263D01*
X137341195Y-107816494D01*
X137272360Y-107919514D01*
X137229360Y-107983869D01*
X137190087Y-108181300D01*
X137192226Y-108192052D01*
X136890595Y-108393595D01*
X136640622Y-108767707D01*
X136575000Y-109097610D01*
X136575000Y-110652408D01*
X136297000Y-110374409D01*
X136297000Y-109097609D01*
X136231378Y-108767706D01*
X135981405Y-108393595D01*
X135607293Y-108143622D01*
X135166000Y-108055843D01*
X134724706Y-108143622D01*
X134350595Y-108393595D01*
X134215675Y-108595518D01*
X134118306Y-108449794D01*
X134076056Y-108421564D01*
X132662439Y-107007947D01*
X132634206Y-106965694D01*
X132466831Y-106853859D01*
X132319235Y-106824500D01*
X132319234Y-106824500D01*
X132269400Y-106814587D01*
X132242024Y-106820033D01*
X131002712Y-105580721D01*
X131162294Y-105548978D01*
X131536405Y-105299005D01*
X131786378Y-104924894D01*
X131852000Y-104594991D01*
X131852000Y-102872210D01*
X132130000Y-102872210D01*
X132130000Y-104594991D01*
X132195623Y-104924894D01*
X132445596Y-105299005D01*
X132819707Y-105548978D01*
X133261000Y-105636757D01*
X133702294Y-105548978D01*
X134076405Y-105299005D01*
X134326378Y-104924894D01*
X134392000Y-104594991D01*
X134392000Y-102872210D01*
X134670000Y-102872210D01*
X134670000Y-104594991D01*
X134735623Y-104924894D01*
X134985596Y-105299005D01*
X135359707Y-105548978D01*
X135801000Y-105636757D01*
X136242294Y-105548978D01*
X136616405Y-105299005D01*
X136866378Y-104924894D01*
X136932000Y-104594991D01*
X136932000Y-102872209D01*
X136866378Y-102542306D01*
X136616405Y-102168195D01*
X136242293Y-101918222D01*
X135801000Y-101830443D01*
X135359706Y-101918222D01*
X134985595Y-102168195D01*
X134735622Y-102542307D01*
X134670000Y-102872210D01*
X134392000Y-102872210D01*
X134392000Y-102872209D01*
X134326378Y-102542306D01*
X134076405Y-102168195D01*
X133702293Y-101918222D01*
X133261000Y-101830443D01*
X132819706Y-101918222D01*
X132445595Y-102168195D01*
X132195622Y-102542307D01*
X132130000Y-102872210D01*
X131852000Y-102872210D01*
X131852000Y-102872209D01*
X131786378Y-102542306D01*
X131536405Y-102168195D01*
X131162293Y-101918222D01*
X130721000Y-101830443D01*
X130279706Y-101918222D01*
X129905595Y-102168195D01*
X129763826Y-102380368D01*
X129673306Y-102244894D01*
X129631056Y-102216664D01*
X126147000Y-98732609D01*
X126147000Y-90265743D01*
X126456405Y-90059005D01*
X126706378Y-89684894D01*
X126772000Y-89354991D01*
X126772000Y-87632210D01*
X127050000Y-87632210D01*
X127050000Y-89354991D01*
X127115623Y-89684894D01*
X127365596Y-90059005D01*
X127739707Y-90308978D01*
X128181000Y-90396757D01*
X128622294Y-90308978D01*
X128996405Y-90059005D01*
X129246378Y-89684894D01*
X129312000Y-89354991D01*
X129312000Y-87632209D01*
X129246378Y-87302306D01*
X128996405Y-86928195D01*
X128622293Y-86678222D01*
X128181000Y-86590443D01*
X127739706Y-86678222D01*
X127365595Y-86928195D01*
X127115622Y-87302307D01*
X127050000Y-87632210D01*
X126772000Y-87632210D01*
X126772000Y-87632209D01*
X126706378Y-87302306D01*
X126456405Y-86928195D01*
X126082293Y-86678222D01*
X125641000Y-86590443D01*
X125199706Y-86678222D01*
X124825595Y-86928195D01*
X124575622Y-87302307D01*
X124510000Y-87632210D01*
X124232000Y-87632210D01*
X124232000Y-87632209D01*
X124166378Y-87302306D01*
X123916405Y-86928195D01*
X123542293Y-86678222D01*
X123101000Y-86590443D01*
X122659706Y-86678222D01*
X122285595Y-86928195D01*
X122035622Y-87302307D01*
X121970000Y-87632210D01*
X121692000Y-87632210D01*
X121692000Y-87632209D01*
X121626378Y-87302306D01*
X121376405Y-86928195D01*
X121002293Y-86678222D01*
X120561000Y-86590443D01*
X120119706Y-86678222D01*
X119745595Y-86928195D01*
X119495622Y-87302307D01*
X119430000Y-87632210D01*
X119152000Y-87632210D01*
X119152000Y-87632209D01*
X119086378Y-87302306D01*
X118836405Y-86928195D01*
X118462293Y-86678222D01*
X118021000Y-86590443D01*
X117579706Y-86678222D01*
X117205595Y-86928195D01*
X116955622Y-87302307D01*
X116890000Y-87632210D01*
X107542400Y-87632210D01*
X107542400Y-84728893D01*
X107608572Y-84353610D01*
X107789011Y-84041084D01*
X108065453Y-83809121D01*
X108414109Y-83682220D01*
X108594932Y-83666400D01*
X188448107Y-83666400D01*
X188823390Y-83732572D01*
X188823390Y-83732572D01*
G37*
X188823390Y-83732572D02*
X189135916Y-83913011D01*
X189367879Y-84189453D01*
X189494780Y-84538109D01*
X189510600Y-84718932D01*
X189510601Y-125327999D01*
X189445564Y-125677205D01*
X189270384Y-125961401D01*
X189004639Y-126163477D01*
X188787341Y-126226403D01*
X128332668Y-126127366D01*
X128165599Y-126024384D01*
X127963523Y-125758639D01*
X127866284Y-125422850D01*
X127862400Y-125343433D01*
X127862400Y-122549413D01*
X130230192Y-122549413D01*
X130309017Y-122799490D01*
X130860097Y-122998977D01*
X131445569Y-122972389D01*
X131862983Y-122799490D01*
X131941808Y-122549413D01*
X131086000Y-121693605D01*
X130230192Y-122549413D01*
X127862400Y-122549413D01*
X127862400Y-121288097D01*
X129601023Y-121288097D01*
X129627611Y-121873569D01*
X129800510Y-122290983D01*
X130050587Y-122369808D01*
X130906395Y-121514000D01*
X131265605Y-121514000D01*
X132121413Y-122369808D01*
X132371490Y-122290983D01*
X132491202Y-121960280D01*
X132592412Y-122204622D01*
X132935378Y-122547588D01*
X133383486Y-122733200D01*
X133868514Y-122733200D01*
X134316622Y-122547588D01*
X134659588Y-122204622D01*
X134845200Y-121756514D01*
X134845200Y-121271486D01*
X134659588Y-120823378D01*
X134316622Y-120480412D01*
X133868514Y-120294800D01*
X133383486Y-120294800D01*
X132935378Y-120480412D01*
X132592412Y-120823378D01*
X132499837Y-121046874D01*
X132371490Y-120737017D01*
X132121413Y-120658192D01*
X131265605Y-121514000D01*
X130906395Y-121514000D01*
X130050587Y-120658192D01*
X129800510Y-120737017D01*
X129601023Y-121288097D01*
X127862400Y-121288097D01*
X127862400Y-118731486D01*
X129866800Y-118731486D01*
X129866800Y-119216514D01*
X130052412Y-119664622D01*
X130395378Y-120007588D01*
X130618874Y-120100163D01*
X130309017Y-120228510D01*
X130230192Y-120478587D01*
X131086000Y-121334395D01*
X131941808Y-120478587D01*
X131862983Y-120228510D01*
X131532280Y-120108798D01*
X131776622Y-120007588D01*
X132119588Y-119664622D01*
X132305200Y-119216514D01*
X132305200Y-118731486D01*
X132119588Y-118283378D01*
X131776622Y-117940412D01*
X131328514Y-117754800D01*
X130843486Y-117754800D01*
X130395378Y-117940412D01*
X130052412Y-118283378D01*
X129866800Y-118731486D01*
X127862400Y-118731486D01*
X127862400Y-110086000D01*
X128701000Y-110086000D01*
X128701000Y-110836000D01*
X128855028Y-111356349D01*
X129196460Y-111778145D01*
X129673316Y-112037173D01*
X129744815Y-112051318D01*
X129959000Y-111928656D01*
X129959000Y-110086000D01*
X128701000Y-110086000D01*
X127862400Y-110086000D01*
X127862400Y-109959603D01*
X127861309Y-109954116D01*
X127856674Y-109859355D01*
X127855675Y-109855146D01*
X127856097Y-109850842D01*
X127847971Y-109807211D01*
X127731549Y-109405176D01*
X127722691Y-109387564D01*
X127717422Y-109368564D01*
X127694134Y-109330784D01*
X127673141Y-109303176D01*
X127670558Y-108861118D01*
X127660607Y-108812575D01*
X127632836Y-108771534D01*
X127591475Y-108744245D01*
X127543877Y-108734860D01*
X127041536Y-108733605D01*
X127022799Y-108722055D01*
X127004403Y-108714956D01*
X126987740Y-108704423D01*
X126945115Y-108692079D01*
X126945112Y-108692078D01*
X126945111Y-108692078D01*
X126534999Y-108615698D01*
X126514397Y-108611600D01*
X108478995Y-108611600D01*
X108129795Y-108546564D01*
X107845599Y-108371384D01*
X107643523Y-108105639D01*
X107546284Y-107769850D01*
X107542400Y-107690433D01*
X107542400Y-102872210D01*
X116890000Y-102872210D01*
X116890000Y-104594991D01*
X116955623Y-104924894D01*
X117205596Y-105299005D01*
X117579707Y-105548978D01*
X118021000Y-105636757D01*
X118462294Y-105548978D01*
X118836405Y-105299005D01*
X119086378Y-104924894D01*
X119152000Y-104594991D01*
X119152000Y-102872210D01*
X119430000Y-102872210D01*
X119430000Y-104594991D01*
X119495623Y-104924894D01*
X119745596Y-105299005D01*
X120119707Y-105548978D01*
X120561000Y-105636757D01*
X121002294Y-105548978D01*
X121376405Y-105299005D01*
X121626378Y-104924894D01*
X121692000Y-104594991D01*
X121692000Y-102872210D01*
X121970000Y-102872210D01*
X121970000Y-104594991D01*
X122035623Y-104924894D01*
X122285596Y-105299005D01*
X122659707Y-105548978D01*
X123101000Y-105636757D01*
X123542294Y-105548978D01*
X123916405Y-105299005D01*
X124166378Y-104924894D01*
X124232000Y-104594991D01*
X124232000Y-102872209D01*
X124166378Y-102542306D01*
X123916405Y-102168195D01*
X123542293Y-101918222D01*
X123101000Y-101830443D01*
X122659706Y-101918222D01*
X122285595Y-102168195D01*
X122035622Y-102542307D01*
X121970000Y-102872210D01*
X121692000Y-102872210D01*
X121692000Y-102872209D01*
X121626378Y-102542306D01*
X121376405Y-102168195D01*
X121002293Y-101918222D01*
X120561000Y-101830443D01*
X120119706Y-101918222D01*
X119745595Y-102168195D01*
X119495622Y-102542307D01*
X119430000Y-102872210D01*
X119152000Y-102872210D01*
X119152000Y-102872209D01*
X119086378Y-102542306D01*
X118836405Y-102168195D01*
X118462293Y-101918222D01*
X118021000Y-101830443D01*
X117579706Y-101918222D01*
X117205595Y-102168195D01*
X116955622Y-102542307D01*
X116890000Y-102872210D01*
X107542400Y-102872210D01*
X107542400Y-87632210D01*
X116890000Y-87632210D01*
X116890000Y-89354991D01*
X116955623Y-89684894D01*
X117205596Y-90059005D01*
X117579707Y-90308978D01*
X118021000Y-90396757D01*
X118462294Y-90308978D01*
X118836405Y-90059005D01*
X119086378Y-89684894D01*
X119152000Y-89354991D01*
X119152000Y-87632210D01*
X119430000Y-87632210D01*
X119430000Y-89354991D01*
X119495623Y-89684894D01*
X119745596Y-90059005D01*
X120119707Y-90308978D01*
X120561000Y-90396757D01*
X121002294Y-90308978D01*
X121376405Y-90059005D01*
X121626378Y-89684894D01*
X121692000Y-89354991D01*
X121692000Y-87632210D01*
X121970000Y-87632210D01*
X121970000Y-89354991D01*
X122035623Y-89684894D01*
X122285596Y-90059005D01*
X122659707Y-90308978D01*
X123101000Y-90396757D01*
X123542294Y-90308978D01*
X123916405Y-90059005D01*
X124166378Y-89684894D01*
X124232000Y-89354991D01*
X124232000Y-87632210D01*
X124510000Y-87632210D01*
X124510000Y-89354991D01*
X124575623Y-89684894D01*
X124825596Y-90059005D01*
X125135000Y-90265742D01*
X125135001Y-98892361D01*
X125125087Y-98942200D01*
X125151391Y-99074432D01*
X125164360Y-99139631D01*
X125276195Y-99307006D01*
X125318446Y-99335237D01*
X127874598Y-101891390D01*
X127739706Y-101918222D01*
X127365595Y-102168195D01*
X127115622Y-102542307D01*
X127050000Y-102872210D01*
X127050000Y-104594991D01*
X127115623Y-104924894D01*
X127169349Y-105005300D01*
X126652652Y-105005300D01*
X126706378Y-104924894D01*
X126772000Y-104594991D01*
X126772000Y-102872209D01*
X126706378Y-102542306D01*
X126456405Y-102168195D01*
X126082293Y-101918222D01*
X125641000Y-101830443D01*
X125199706Y-101918222D01*
X124825595Y-102168195D01*
X124575622Y-102542307D01*
X124510000Y-102872210D01*
X124510000Y-104594991D01*
X124575623Y-104924894D01*
X124825596Y-105299005D01*
X125127226Y-105500548D01*
X125125087Y-105511300D01*
X125164359Y-105708731D01*
X125276194Y-105876106D01*
X125443569Y-105987941D01*
X125591165Y-106017300D01*
X125641000Y-106027213D01*
X125690835Y-106017300D01*
X127686609Y-106017300D01*
X129593494Y-107924186D01*
X129196460Y-108139855D01*
X128855028Y-108561651D01*
X128701000Y-109082000D01*
X128701000Y-109832000D01*
X129959000Y-109832000D01*
X129959000Y-109812000D01*
X130213000Y-109812000D01*
X130213000Y-109832000D01*
X130233000Y-109832000D01*
X130233000Y-110086000D01*
X130213000Y-110086000D01*
X130213000Y-111928656D01*
X130427185Y-112051318D01*
X130498684Y-112037173D01*
X130975540Y-111778145D01*
X131219219Y-111477110D01*
X141754463Y-122012355D01*
X141782694Y-122054606D01*
X141890583Y-122126694D01*
X141950068Y-122166441D01*
X142147500Y-122205713D01*
X142197335Y-122195800D01*
X147832209Y-122195800D01*
X148145400Y-122508992D01*
X148145401Y-123491166D01*
X148202177Y-123776600D01*
X141684193Y-123776600D01*
X134768727Y-116861136D01*
X134845200Y-116676514D01*
X134845200Y-116191486D01*
X134659588Y-115743378D01*
X134316622Y-115400412D01*
X133868514Y-115214800D01*
X133383486Y-115214800D01*
X132935378Y-115400412D01*
X132592412Y-115743378D01*
X132406800Y-116191486D01*
X132406800Y-116676514D01*
X132563781Y-117055500D01*
X132423092Y-117055500D01*
X132228727Y-116861136D01*
X132305200Y-116676514D01*
X132305200Y-116191486D01*
X132119588Y-115743378D01*
X131776622Y-115400412D01*
X131328514Y-115214800D01*
X130843486Y-115214800D01*
X130395378Y-115400412D01*
X130052412Y-115743378D01*
X129866800Y-116191486D01*
X129866800Y-116676514D01*
X130052412Y-117124622D01*
X130395378Y-117467588D01*
X130843486Y-117653200D01*
X131328514Y-117653200D01*
X131513136Y-117576727D01*
X131820463Y-117884055D01*
X131848694Y-117926306D01*
X131961281Y-118001533D01*
X132016068Y-118038141D01*
X132213500Y-118077413D01*
X132263335Y-118067500D01*
X132808290Y-118067500D01*
X132592412Y-118283378D01*
X132406800Y-118731486D01*
X132406800Y-119216514D01*
X132592412Y-119664622D01*
X132935378Y-120007588D01*
X133383486Y-120193200D01*
X133868514Y-120193200D01*
X134316622Y-120007588D01*
X134659588Y-119664622D01*
X134845200Y-119216514D01*
X134845200Y-118938491D01*
X140952963Y-125046255D01*
X140981194Y-125088506D01*
X141148569Y-125200341D01*
X141296165Y-125229700D01*
X141345999Y-125239613D01*
X141395833Y-125229700D01*
X153723366Y-125229700D01*
X153773200Y-125239613D01*
X153823034Y-125229700D01*
X153823035Y-125229700D01*
X153970631Y-125200341D01*
X154138006Y-125088506D01*
X154166238Y-125046253D01*
X154538555Y-124673937D01*
X154580806Y-124645706D01*
X154660611Y-124526268D01*
X154692641Y-124478332D01*
X154731913Y-124280900D01*
X154724778Y-124245030D01*
X154930183Y-124107783D01*
X155149125Y-123780113D01*
X155206600Y-123491166D01*
X155206600Y-122076834D01*
X155149125Y-121787887D01*
X155119667Y-121743800D01*
X159853309Y-121743800D01*
X159946061Y-121836552D01*
X159974294Y-121878806D01*
X160103565Y-121965181D01*
X160141668Y-121990641D01*
X160339100Y-122029913D01*
X160374970Y-122022778D01*
X160512217Y-122228183D01*
X160839887Y-122447125D01*
X161128834Y-122504600D01*
X162543166Y-122504600D01*
X162832113Y-122447125D01*
X163159783Y-122228183D01*
X163378725Y-121900513D01*
X163455607Y-121514000D01*
X163378725Y-121127487D01*
X163159783Y-120799817D01*
X162832113Y-120580875D01*
X162543166Y-120523400D01*
X161128834Y-120523400D01*
X160839887Y-120580875D01*
X160512217Y-120799817D01*
X160445514Y-120899646D01*
X160427706Y-120872994D01*
X160260331Y-120761159D01*
X160112735Y-120731800D01*
X160112734Y-120731800D01*
X160062900Y-120721887D01*
X160013066Y-120731800D01*
X153933235Y-120731800D01*
X153883400Y-120721887D01*
X153685969Y-120761159D01*
X153592851Y-120823378D01*
X153518594Y-120872994D01*
X153490365Y-120915242D01*
X152610551Y-121795057D01*
X152609125Y-121787887D01*
X152390183Y-121460217D01*
X152184778Y-121322970D01*
X152191913Y-121287100D01*
X152152641Y-121089669D01*
X152040806Y-120922294D01*
X151873431Y-120810459D01*
X151725835Y-120781100D01*
X151676000Y-120771187D01*
X151626165Y-120781100D01*
X144463292Y-120781100D01*
X138139027Y-114456835D01*
X148145400Y-114456835D01*
X148145401Y-115871166D01*
X148202876Y-116160113D01*
X148421818Y-116487783D01*
X148749488Y-116706725D01*
X149136000Y-116783607D01*
X149522513Y-116706725D01*
X149850183Y-116487783D01*
X150069125Y-116160113D01*
X150126600Y-115871166D01*
X150126600Y-114456835D01*
X150685400Y-114456835D01*
X150685401Y-115871166D01*
X150742876Y-116160113D01*
X150961818Y-116487783D01*
X151289488Y-116706725D01*
X151676000Y-116783607D01*
X152062513Y-116706725D01*
X152390183Y-116487783D01*
X152609125Y-116160113D01*
X152666600Y-115871166D01*
X152666600Y-114456834D01*
X152609125Y-114167887D01*
X152390183Y-113840217D01*
X152062512Y-113621275D01*
X151676000Y-113544393D01*
X151289487Y-113621275D01*
X150961817Y-113840217D01*
X150742875Y-114167888D01*
X150685400Y-114456835D01*
X150126600Y-114456835D01*
X150126600Y-114456834D01*
X150069125Y-114167887D01*
X149850183Y-113840217D01*
X149522512Y-113621275D01*
X149136000Y-113544393D01*
X148749487Y-113621275D01*
X148421817Y-113840217D01*
X148202875Y-114167888D01*
X148145400Y-114456835D01*
X138139027Y-114456835D01*
X135481576Y-111799385D01*
X135607294Y-111774378D01*
X135981405Y-111524405D01*
X135995187Y-111503779D01*
X136589763Y-112098355D01*
X136617994Y-112140606D01*
X136785369Y-112252441D01*
X136932965Y-112281800D01*
X136982799Y-112291713D01*
X137032633Y-112281800D01*
X143124766Y-112281800D01*
X143174600Y-112291713D01*
X143224434Y-112281800D01*
X143224435Y-112281800D01*
X143372031Y-112252441D01*
X143539406Y-112140606D01*
X143567638Y-112098353D01*
X144166755Y-111499237D01*
X144209006Y-111471006D01*
X144320841Y-111303631D01*
X144330531Y-111254918D01*
X144510596Y-111524405D01*
X144884707Y-111774378D01*
X145326000Y-111862157D01*
X145767294Y-111774378D01*
X146141405Y-111524405D01*
X146391378Y-111150294D01*
X146457000Y-110820391D01*
X146457000Y-109097610D01*
X146735000Y-109097610D01*
X146735000Y-110820391D01*
X146800623Y-111150294D01*
X147050596Y-111524405D01*
X147424707Y-111774378D01*
X147866000Y-111862157D01*
X148307294Y-111774378D01*
X148681405Y-111524405D01*
X148931378Y-111150294D01*
X148997000Y-110820391D01*
X148997000Y-109097610D01*
X149275000Y-109097610D01*
X149275000Y-110820391D01*
X149340623Y-111150294D01*
X149590596Y-111524405D01*
X149964707Y-111774378D01*
X150406000Y-111862157D01*
X150847294Y-111774378D01*
X151221405Y-111524405D01*
X151471378Y-111150294D01*
X151537000Y-110820391D01*
X151537000Y-109097609D01*
X151471378Y-108767706D01*
X151221405Y-108393595D01*
X150847293Y-108143622D01*
X150406000Y-108055843D01*
X149964706Y-108143622D01*
X149590595Y-108393595D01*
X149340622Y-108767707D01*
X149275000Y-109097610D01*
X148997000Y-109097610D01*
X148997000Y-109097609D01*
X148931378Y-108767706D01*
X148681405Y-108393595D01*
X148307293Y-108143622D01*
X147866000Y-108055843D01*
X147424706Y-108143622D01*
X147050595Y-108393595D01*
X146800622Y-108767707D01*
X146735000Y-109097610D01*
X146457000Y-109097610D01*
X146457000Y-109097609D01*
X146391378Y-108767706D01*
X146141405Y-108393595D01*
X145767293Y-108143622D01*
X145653087Y-108120905D01*
X146908692Y-106865300D01*
X148057666Y-106865300D01*
X148107500Y-106875213D01*
X148157334Y-106865300D01*
X148157335Y-106865300D01*
X148304931Y-106835941D01*
X148472306Y-106724106D01*
X148500539Y-106681853D01*
X150088526Y-105093866D01*
X150225596Y-105299005D01*
X150599707Y-105548978D01*
X151041000Y-105636757D01*
X151482294Y-105548978D01*
X151856405Y-105299005D01*
X152106378Y-104924894D01*
X152172000Y-104594991D01*
X152172000Y-102872209D01*
X152106378Y-102542306D01*
X151856405Y-102168195D01*
X151482293Y-101918222D01*
X151221287Y-101866304D01*
X154538555Y-98549037D01*
X154580806Y-98520806D01*
X154692641Y-98353431D01*
X154722000Y-98205835D01*
X154731913Y-98156001D01*
X154722000Y-98106167D01*
X154722000Y-96568753D01*
X154980000Y-96741143D01*
X154980001Y-99841307D01*
X153258445Y-101562863D01*
X153216195Y-101591094D01*
X153165924Y-101666331D01*
X153104360Y-101758469D01*
X153065087Y-101955900D01*
X153067226Y-101966652D01*
X152765595Y-102168195D01*
X152515622Y-102542307D01*
X152450000Y-102872210D01*
X152450000Y-104594991D01*
X152515623Y-104924894D01*
X152765596Y-105299005D01*
X153139707Y-105548978D01*
X153581000Y-105636757D01*
X154022294Y-105548978D01*
X154396405Y-105299005D01*
X154455929Y-105209921D01*
X154980001Y-105733993D01*
X154980001Y-106344300D01*
X154761441Y-106344300D01*
X154511144Y-106447976D01*
X154319576Y-106639544D01*
X154215900Y-106889841D01*
X154215900Y-106990708D01*
X153531309Y-107675300D01*
X152995835Y-107675300D01*
X152946000Y-107665387D01*
X152896165Y-107675300D01*
X152748569Y-107704659D01*
X152581194Y-107816494D01*
X152469359Y-107983869D01*
X152430087Y-108181300D01*
X152432226Y-108192052D01*
X152130595Y-108393595D01*
X151880622Y-108767707D01*
X151815000Y-109097610D01*
X151815000Y-110820391D01*
X151880623Y-111150294D01*
X152130596Y-111524405D01*
X152504707Y-111774378D01*
X152946000Y-111862157D01*
X153387294Y-111774378D01*
X153761405Y-111524405D01*
X154011378Y-111150294D01*
X154077000Y-110820391D01*
X154077000Y-109097609D01*
X154011378Y-108767706D01*
X153938070Y-108657993D01*
X153938331Y-108657941D01*
X154105706Y-108546106D01*
X154133938Y-108503853D01*
X154931492Y-107706300D01*
X154980000Y-107706300D01*
X154980000Y-108186857D01*
X154670595Y-108393595D01*
X154420622Y-108767707D01*
X154355000Y-109097610D01*
X154355000Y-110820391D01*
X154420623Y-111150294D01*
X154670596Y-111524405D01*
X154980000Y-111731142D01*
X154980000Y-112496100D01*
X154930833Y-112496100D01*
X154880999Y-112486187D01*
X154831165Y-112496100D01*
X154683569Y-112525459D01*
X154516194Y-112637294D01*
X154487963Y-112679545D01*
X153893445Y-113274064D01*
X153851195Y-113302294D01*
X153739360Y-113469669D01*
X153700087Y-113667100D01*
X153707222Y-113702970D01*
X153501817Y-113840217D01*
X153282875Y-114167888D01*
X153225400Y-114456835D01*
X153225401Y-115871166D01*
X153282876Y-116160113D01*
X153501818Y-116487783D01*
X153829488Y-116706725D01*
X154216000Y-116783607D01*
X154602513Y-116706725D01*
X154930183Y-116487783D01*
X155149125Y-116160113D01*
X155158121Y-116114882D01*
X160023407Y-116114882D01*
X160148002Y-116307000D01*
X161709000Y-116307000D01*
X161709000Y-115189400D01*
X161099400Y-115189400D01*
X160632779Y-115332740D01*
X160256532Y-115643737D01*
X160027938Y-116075045D01*
X160023407Y-116114882D01*
X155158121Y-116114882D01*
X155206600Y-115871166D01*
X155206600Y-114456834D01*
X155149125Y-114167887D01*
X154930183Y-113840217D01*
X154827251Y-113771440D01*
X155090592Y-113508100D01*
X155436165Y-113508100D01*
X155486000Y-113518013D01*
X155535835Y-113508100D01*
X166003627Y-113508100D01*
X165925400Y-113696957D01*
X165925400Y-114091043D01*
X165948235Y-114146173D01*
X163690200Y-116404209D01*
X163690200Y-116306998D01*
X163523999Y-116306998D01*
X163648593Y-116114882D01*
X163644062Y-116075045D01*
X163415468Y-115643737D01*
X163039221Y-115332740D01*
X162572600Y-115189400D01*
X161963000Y-115189400D01*
X161963000Y-116307000D01*
X161983000Y-116307000D01*
X161983000Y-116561000D01*
X161963000Y-116561000D01*
X161963000Y-116581000D01*
X161709000Y-116581000D01*
X161709000Y-116561000D01*
X160148002Y-116561000D01*
X160023407Y-116753118D01*
X160027938Y-116792955D01*
X160256532Y-117224263D01*
X160632779Y-117535260D01*
X161099400Y-117678600D01*
X161535989Y-117678600D01*
X161471194Y-117721894D01*
X161359359Y-117889269D01*
X161340635Y-117983400D01*
X161128834Y-117983400D01*
X160839887Y-118040875D01*
X160512217Y-118259817D01*
X160293275Y-118587487D01*
X160216393Y-118974000D01*
X160293275Y-119360513D01*
X160512217Y-119688183D01*
X160839887Y-119907125D01*
X161128834Y-119964600D01*
X162543166Y-119964600D01*
X162832113Y-119907125D01*
X163159783Y-119688183D01*
X163378725Y-119360513D01*
X163455607Y-118974000D01*
X163378725Y-118587487D01*
X163202237Y-118323354D01*
X166663827Y-114861765D01*
X166718957Y-114884600D01*
X167113043Y-114884600D01*
X167477130Y-114733790D01*
X167755790Y-114455130D01*
X167906600Y-114091043D01*
X167906600Y-113696957D01*
X167828373Y-113508100D01*
X169624509Y-113508100D01*
X169758236Y-113641827D01*
X169735400Y-113696957D01*
X169735400Y-114091043D01*
X169886210Y-114455130D01*
X170164870Y-114733790D01*
X170528957Y-114884600D01*
X170923043Y-114884600D01*
X171287130Y-114733790D01*
X171565790Y-114455130D01*
X171716600Y-114091043D01*
X171716600Y-113696957D01*
X173545400Y-113696957D01*
X173545400Y-114091043D01*
X173696210Y-114455130D01*
X173974870Y-114733790D01*
X174338957Y-114884600D01*
X174733043Y-114884600D01*
X175097130Y-114733790D01*
X175375790Y-114455130D01*
X175526600Y-114091043D01*
X175526600Y-113696957D01*
X175375790Y-113332870D01*
X175097130Y-113054210D01*
X174733043Y-112903400D01*
X174338957Y-112903400D01*
X173974870Y-113054210D01*
X173696210Y-113332870D01*
X173545400Y-113696957D01*
X171716600Y-113696957D01*
X171565790Y-113332870D01*
X171287130Y-113054210D01*
X170923043Y-112903400D01*
X170528957Y-112903400D01*
X170473827Y-112926236D01*
X170227138Y-112679547D01*
X170198906Y-112637294D01*
X170031531Y-112525459D01*
X169883935Y-112496100D01*
X169883934Y-112496100D01*
X169834100Y-112486187D01*
X169784266Y-112496100D01*
X155992000Y-112496100D01*
X155992000Y-111731143D01*
X156301405Y-111524405D01*
X156551378Y-111150294D01*
X156617000Y-110820391D01*
X156617000Y-109097609D01*
X156551378Y-108767706D01*
X156301405Y-108393595D01*
X155992000Y-108186858D01*
X155992000Y-105611097D01*
X156121000Y-105636757D01*
X156562294Y-105548978D01*
X156936405Y-105299005D01*
X157096601Y-105059255D01*
X157096601Y-107708061D01*
X157086687Y-107757900D01*
X157125960Y-107955331D01*
X157237795Y-108122706D01*
X157280045Y-108150936D01*
X157397690Y-108268582D01*
X157210595Y-108393595D01*
X156960622Y-108767707D01*
X156895000Y-109097610D01*
X156895000Y-110820391D01*
X156960623Y-111150294D01*
X157210596Y-111524405D01*
X157584707Y-111774378D01*
X158026000Y-111862157D01*
X158467294Y-111774378D01*
X158841405Y-111524405D01*
X158974589Y-111325081D01*
X159708763Y-112059255D01*
X159736994Y-112101506D01*
X159904369Y-112213341D01*
X160051965Y-112242700D01*
X160051966Y-112242700D01*
X160101800Y-112252613D01*
X160151634Y-112242700D01*
X175756165Y-112242700D01*
X175806000Y-112252613D01*
X175855835Y-112242700D01*
X176003431Y-112213341D01*
X176170806Y-112101506D01*
X176282641Y-111934131D01*
X176321913Y-111736700D01*
X176319774Y-111725948D01*
X176621405Y-111524405D01*
X176802700Y-111253077D01*
X176802701Y-122510700D01*
X175623135Y-122510700D01*
X175573300Y-122500787D01*
X175375868Y-122540059D01*
X175321081Y-122576667D01*
X175208494Y-122651894D01*
X175180263Y-122694145D01*
X174788173Y-123086236D01*
X174733043Y-123063400D01*
X174338957Y-123063400D01*
X173974870Y-123214210D01*
X173696210Y-123492870D01*
X173545400Y-123856957D01*
X173545400Y-124251043D01*
X173568236Y-124306173D01*
X173435009Y-124439400D01*
X171638580Y-124439400D01*
X171716600Y-124251043D01*
X171716600Y-123856957D01*
X171565790Y-123492870D01*
X171287130Y-123214210D01*
X170923043Y-123063400D01*
X170528957Y-123063400D01*
X170164870Y-123214210D01*
X169886210Y-123492870D01*
X169735400Y-123856957D01*
X169735400Y-124251043D01*
X169813420Y-124439400D01*
X168016992Y-124439400D01*
X167883764Y-124306173D01*
X167906600Y-124251043D01*
X167906600Y-123856957D01*
X167755790Y-123492870D01*
X167477130Y-123214210D01*
X167113043Y-123063400D01*
X166718957Y-123063400D01*
X166354870Y-123214210D01*
X166076210Y-123492870D01*
X165925400Y-123856957D01*
X165925400Y-124251043D01*
X166076210Y-124615130D01*
X166354870Y-124893790D01*
X166718957Y-125044600D01*
X167113043Y-125044600D01*
X167168173Y-125021764D01*
X167414363Y-125267955D01*
X167442594Y-125310206D01*
X167609969Y-125422041D01*
X167757565Y-125451400D01*
X167757566Y-125451400D01*
X167807400Y-125461313D01*
X167857234Y-125451400D01*
X173594766Y-125451400D01*
X173644600Y-125461313D01*
X173694434Y-125451400D01*
X173694435Y-125451400D01*
X173842031Y-125422041D01*
X174009406Y-125310206D01*
X174037638Y-125267953D01*
X174283827Y-125021764D01*
X174338957Y-125044600D01*
X174733043Y-125044600D01*
X175097130Y-124893790D01*
X175375790Y-124615130D01*
X175526600Y-124251043D01*
X175526600Y-123856957D01*
X175503764Y-123801827D01*
X175782892Y-123522700D01*
X177099109Y-123522700D01*
X177378236Y-123801827D01*
X177355400Y-123856957D01*
X177355400Y-124251043D01*
X177506210Y-124615130D01*
X177784870Y-124893790D01*
X178148957Y-125044600D01*
X178543043Y-125044600D01*
X178907130Y-124893790D01*
X179185790Y-124615130D01*
X179336600Y-124251043D01*
X179336600Y-123856957D01*
X181165400Y-123856957D01*
X181165400Y-124251043D01*
X181316210Y-124615130D01*
X181594870Y-124893790D01*
X181958957Y-125044600D01*
X182353043Y-125044600D01*
X182717130Y-124893790D01*
X182995790Y-124615130D01*
X183146600Y-124251043D01*
X183146600Y-123856957D01*
X182995790Y-123492870D01*
X182717130Y-123214210D01*
X182353043Y-123063400D01*
X181958957Y-123063400D01*
X181594870Y-123214210D01*
X181316210Y-123492870D01*
X181165400Y-123856957D01*
X179336600Y-123856957D01*
X179185790Y-123492870D01*
X178907130Y-123214210D01*
X178543043Y-123063400D01*
X178148957Y-123063400D01*
X178093827Y-123086236D01*
X177814700Y-122807109D01*
X177814700Y-114746146D01*
X178148957Y-114884600D01*
X178543043Y-114884600D01*
X178907130Y-114733790D01*
X179185790Y-114455130D01*
X179336600Y-114091043D01*
X179336600Y-113696957D01*
X181165400Y-113696957D01*
X181165400Y-114091043D01*
X181316210Y-114455130D01*
X181594870Y-114733790D01*
X181958957Y-114884600D01*
X182353043Y-114884600D01*
X182717130Y-114733790D01*
X182995790Y-114455130D01*
X183146600Y-114091043D01*
X183146600Y-113696957D01*
X182995790Y-113332870D01*
X182717130Y-113054210D01*
X182353043Y-112903400D01*
X181958957Y-112903400D01*
X181594870Y-113054210D01*
X181316210Y-113332870D01*
X181165400Y-113696957D01*
X179336600Y-113696957D01*
X179185790Y-113332870D01*
X178907130Y-113054210D01*
X178543043Y-112903400D01*
X178148957Y-112903400D01*
X177814700Y-113041854D01*
X177814700Y-111714237D01*
X177904707Y-111774378D01*
X178346000Y-111862157D01*
X178787294Y-111774378D01*
X179161405Y-111524405D01*
X179411378Y-111150294D01*
X179477000Y-110820391D01*
X179477000Y-109097609D01*
X179411378Y-108767706D01*
X179161405Y-108393595D01*
X178787293Y-108143622D01*
X178346000Y-108055843D01*
X177904706Y-108143622D01*
X177814700Y-108203762D01*
X177814700Y-105730491D01*
X177838152Y-105707039D01*
X177880406Y-105678806D01*
X177967153Y-105548978D01*
X177992241Y-105511432D01*
X178031513Y-105314000D01*
X178021600Y-105264165D01*
X178021600Y-102601634D01*
X178031513Y-102551800D01*
X178015602Y-102471813D01*
X177992241Y-102354369D01*
X177880406Y-102186994D01*
X177838156Y-102158764D01*
X177373000Y-101693609D01*
X177373000Y-96298546D01*
X177530596Y-96534405D01*
X177904707Y-96784378D01*
X178346000Y-96872157D01*
X178787294Y-96784378D01*
X179161405Y-96534405D01*
X179411378Y-96160294D01*
X179477000Y-95830391D01*
X179477000Y-94107609D01*
X179411378Y-93777706D01*
X179161405Y-93403595D01*
X178787293Y-93153622D01*
X178346000Y-93065843D01*
X177904706Y-93153622D01*
X177530595Y-93403595D01*
X177373000Y-93639453D01*
X177373000Y-90747134D01*
X177382913Y-90697300D01*
X177372769Y-90646305D01*
X177343641Y-90499869D01*
X177231806Y-90332494D01*
X177189555Y-90304264D01*
X177069310Y-90184018D01*
X177256405Y-90059005D01*
X177506378Y-89684894D01*
X177572000Y-89354991D01*
X177572000Y-87632209D01*
X177506378Y-87302306D01*
X177256405Y-86928195D01*
X176882293Y-86678222D01*
X176441000Y-86590443D01*
X175999706Y-86678222D01*
X175625595Y-86928195D01*
X175487364Y-87135072D01*
X173493039Y-85140747D01*
X173464806Y-85098494D01*
X173297431Y-84986659D01*
X173149835Y-84957300D01*
X173149834Y-84957300D01*
X173100000Y-84947387D01*
X173050166Y-84957300D01*
X133974135Y-84957300D01*
X133924300Y-84947387D01*
X133726868Y-84986659D01*
X133672081Y-85023267D01*
X133559494Y-85098494D01*
X133531263Y-85140745D01*
X131810947Y-86861061D01*
X131768694Y-86889294D01*
X131656859Y-87056670D01*
X131648919Y-87096585D01*
X131536405Y-86928195D01*
X131162293Y-86678222D01*
X130721000Y-86590443D01*
X130279706Y-86678222D01*
X129905595Y-86928195D01*
X129655622Y-87302307D01*
X129590000Y-87632210D01*
X129590000Y-89354991D01*
X129655623Y-89684894D01*
X129905596Y-90059005D01*
X130279707Y-90308978D01*
X130721000Y-90396757D01*
X131162294Y-90308978D01*
X131536405Y-90059005D01*
X131627501Y-89922671D01*
X131627501Y-90934207D01*
X129763445Y-92798263D01*
X129721195Y-92826494D01*
X129626090Y-92968831D01*
X129609360Y-92993869D01*
X129570087Y-93191300D01*
X129572226Y-93202052D01*
X129270596Y-93403595D01*
X129020623Y-93777706D01*
X128955000Y-94107609D01*
X128955000Y-95830390D01*
X129020622Y-96160293D01*
X129270595Y-96534405D01*
X129644706Y-96784378D01*
X130086000Y-96872157D01*
X130527293Y-96784378D01*
X130901405Y-96534405D01*
X131151378Y-96160294D01*
X131217000Y-95830391D01*
X131217000Y-94107609D01*
X131495000Y-94107609D01*
X131495000Y-95830390D01*
X131560622Y-96160293D01*
X131810595Y-96534405D01*
X132184706Y-96784378D01*
X132626000Y-96872157D01*
X133067293Y-96784378D01*
X133441405Y-96534405D01*
X133691378Y-96160294D01*
X133757000Y-95830391D01*
X133757000Y-94107609D01*
X134035000Y-94107609D01*
X134035000Y-95830390D01*
X134100622Y-96160293D01*
X134350595Y-96534405D01*
X134724706Y-96784378D01*
X135166000Y-96872157D01*
X135607293Y-96784378D01*
X135981405Y-96534405D01*
X136231378Y-96160294D01*
X136297000Y-95830391D01*
X136297000Y-94107609D01*
X136231378Y-93777706D01*
X135981405Y-93403595D01*
X135607294Y-93153622D01*
X135166000Y-93065843D01*
X134724707Y-93153622D01*
X134350596Y-93403595D01*
X134100623Y-93777706D01*
X134035000Y-94107609D01*
X133757000Y-94107609D01*
X133691378Y-93777706D01*
X133441405Y-93403595D01*
X133067294Y-93153622D01*
X132626000Y-93065843D01*
X132184707Y-93153622D01*
X131810596Y-93403595D01*
X131560623Y-93777706D01*
X131495000Y-94107609D01*
X131217000Y-94107609D01*
X131151378Y-93777706D01*
X130901405Y-93403595D01*
X130714309Y-93278582D01*
X132456055Y-91536837D01*
X132498306Y-91508606D01*
X132610141Y-91341231D01*
X132639500Y-91193635D01*
X132649413Y-91143801D01*
X132639500Y-91093967D01*
X132639500Y-90188568D01*
X132819707Y-90308978D01*
X133261000Y-90396757D01*
X133702294Y-90308978D01*
X134076405Y-90059005D01*
X134326378Y-89684894D01*
X134392000Y-89354991D01*
X134392000Y-87632209D01*
X134326378Y-87302306D01*
X134076405Y-86928195D01*
X133889309Y-86803182D01*
X134314692Y-86377800D01*
X135418351Y-86377800D01*
X135328904Y-86511669D01*
X135324360Y-86518469D01*
X135285087Y-86715900D01*
X135287226Y-86726652D01*
X134985595Y-86928195D01*
X134735622Y-87302307D01*
X134670000Y-87632210D01*
X134670000Y-89354991D01*
X134735623Y-89684894D01*
X134985596Y-90059005D01*
X135359707Y-90308978D01*
X135801000Y-90396757D01*
X136242294Y-90308978D01*
X136616405Y-90059005D01*
X136866378Y-89684894D01*
X136932000Y-89354991D01*
X136932000Y-87632209D01*
X136866378Y-87302306D01*
X136616405Y-86928195D01*
X136442955Y-86812300D01*
X137699044Y-86812300D01*
X137525595Y-86928195D01*
X137275622Y-87302307D01*
X137210000Y-87632210D01*
X137210000Y-89354991D01*
X137275623Y-89684894D01*
X137525596Y-90059005D01*
X137899707Y-90308978D01*
X138341000Y-90396757D01*
X138782294Y-90308978D01*
X139156405Y-90059005D01*
X139247501Y-89922671D01*
X139247501Y-90934207D01*
X137383445Y-92798263D01*
X137341195Y-92826494D01*
X137246090Y-92968831D01*
X137229360Y-92993869D01*
X137190087Y-93191300D01*
X137192226Y-93202052D01*
X136890596Y-93403595D01*
X136640623Y-93777706D01*
X136575000Y-94107609D01*
X136575000Y-95830390D01*
X136640622Y-96160293D01*
X136890595Y-96534405D01*
X137264706Y-96784378D01*
X137706000Y-96872157D01*
X138147293Y-96784378D01*
X138521405Y-96534405D01*
X138771378Y-96160294D01*
X138837000Y-95830391D01*
X138837000Y-94107610D01*
X139115000Y-94107610D01*
X139115000Y-95830391D01*
X139180623Y-96160294D01*
X139430596Y-96534405D01*
X139804707Y-96784378D01*
X140246000Y-96872157D01*
X140687294Y-96784378D01*
X141061405Y-96534405D01*
X141311378Y-96160294D01*
X141377000Y-95830391D01*
X141377000Y-94107609D01*
X141311378Y-93777706D01*
X141061405Y-93403595D01*
X140687293Y-93153622D01*
X140246000Y-93065843D01*
X139804706Y-93153622D01*
X139430595Y-93403595D01*
X139180622Y-93777707D01*
X139115000Y-94107610D01*
X138837000Y-94107610D01*
X138837000Y-94107609D01*
X138771378Y-93777706D01*
X138521405Y-93403595D01*
X138334309Y-93278582D01*
X140076055Y-91536837D01*
X140118306Y-91508606D01*
X140230141Y-91341231D01*
X140259500Y-91193635D01*
X140269413Y-91143801D01*
X140259500Y-91093967D01*
X140259500Y-90188568D01*
X140375001Y-90265743D01*
X140375001Y-91236461D01*
X140365087Y-91286300D01*
X140394884Y-91436094D01*
X140404360Y-91483731D01*
X140516195Y-91651106D01*
X140558445Y-91679337D01*
X142157691Y-93278582D01*
X141970596Y-93403595D01*
X141720623Y-93777706D01*
X141655000Y-94107609D01*
X141655000Y-95830390D01*
X141720622Y-96160293D01*
X141970595Y-96534405D01*
X142344706Y-96784378D01*
X142786000Y-96872157D01*
X143227293Y-96784378D01*
X143601405Y-96534405D01*
X143851378Y-96160294D01*
X143917000Y-95830391D01*
X143917000Y-94107609D01*
X143851378Y-93777706D01*
X143601405Y-93403595D01*
X143299774Y-93202052D01*
X143301913Y-93191300D01*
X143290954Y-93136205D01*
X143262641Y-92993869D01*
X143150806Y-92826494D01*
X143108555Y-92798263D01*
X141387000Y-91076709D01*
X141387000Y-90265743D01*
X141696405Y-90059005D01*
X141946378Y-89684894D01*
X142012000Y-89354991D01*
X142012000Y-87632209D01*
X141946378Y-87302306D01*
X141888109Y-87215100D01*
X142413892Y-87215100D01*
X142355622Y-87302307D01*
X142290000Y-87632210D01*
X142290000Y-89354991D01*
X142355623Y-89684894D01*
X142605596Y-90059005D01*
X142979707Y-90308978D01*
X143421000Y-90396757D01*
X143862294Y-90308978D01*
X144236405Y-90059005D01*
X144486378Y-89684894D01*
X144552000Y-89354991D01*
X144552000Y-87800191D01*
X144830000Y-88078192D01*
X144830000Y-89354991D01*
X144895623Y-89684894D01*
X145145596Y-90059005D01*
X145519707Y-90308978D01*
X145961000Y-90396757D01*
X146402294Y-90308978D01*
X146482701Y-90255252D01*
X146482701Y-92264161D01*
X146472787Y-92314000D01*
X146511995Y-92511106D01*
X146512060Y-92511431D01*
X146623895Y-92678806D01*
X146666145Y-92707036D01*
X147237690Y-93278583D01*
X147050596Y-93403595D01*
X146800623Y-93777706D01*
X146735000Y-94107609D01*
X146735000Y-95830390D01*
X146800622Y-96160293D01*
X146854415Y-96240800D01*
X146337586Y-96240800D01*
X146391378Y-96160294D01*
X146457000Y-95830391D01*
X146457000Y-94107609D01*
X146391378Y-93777706D01*
X146141405Y-93403595D01*
X145767294Y-93153622D01*
X145326000Y-93065843D01*
X144884707Y-93153622D01*
X144510596Y-93403595D01*
X144260623Y-93777706D01*
X144195000Y-94107609D01*
X144195000Y-95830390D01*
X144260622Y-96160293D01*
X144510595Y-96534405D01*
X144878726Y-96780382D01*
X139520648Y-102138461D01*
X139478394Y-102166694D01*
X139366559Y-102334070D01*
X139343775Y-102448613D01*
X139156405Y-102168195D01*
X138782293Y-101918222D01*
X138341000Y-101830443D01*
X137899706Y-101918222D01*
X137525595Y-102168195D01*
X137275622Y-102542307D01*
X137210000Y-102872210D01*
X137210000Y-104594991D01*
X137275623Y-104924894D01*
X137525596Y-105299005D01*
X137899707Y-105548978D01*
X138341000Y-105636757D01*
X138782294Y-105548978D01*
X139156405Y-105299005D01*
X139337201Y-105028425D01*
X139337201Y-105834507D01*
X137383445Y-107788263D01*
X137341195Y-107816494D01*
X137272360Y-107919514D01*
X137229360Y-107983869D01*
X137190087Y-108181300D01*
X137192226Y-108192052D01*
X136890595Y-108393595D01*
X136640622Y-108767707D01*
X136575000Y-109097610D01*
X136575000Y-110652408D01*
X136297000Y-110374409D01*
X136297000Y-109097609D01*
X136231378Y-108767706D01*
X135981405Y-108393595D01*
X135607293Y-108143622D01*
X135166000Y-108055843D01*
X134724706Y-108143622D01*
X134350595Y-108393595D01*
X134215675Y-108595518D01*
X134118306Y-108449794D01*
X134076056Y-108421564D01*
X132662439Y-107007947D01*
X132634206Y-106965694D01*
X132466831Y-106853859D01*
X132319235Y-106824500D01*
X132319234Y-106824500D01*
X132269400Y-106814587D01*
X132242024Y-106820033D01*
X131002712Y-105580721D01*
X131162294Y-105548978D01*
X131536405Y-105299005D01*
X131786378Y-104924894D01*
X131852000Y-104594991D01*
X131852000Y-102872210D01*
X132130000Y-102872210D01*
X132130000Y-104594991D01*
X132195623Y-104924894D01*
X132445596Y-105299005D01*
X132819707Y-105548978D01*
X133261000Y-105636757D01*
X133702294Y-105548978D01*
X134076405Y-105299005D01*
X134326378Y-104924894D01*
X134392000Y-104594991D01*
X134392000Y-102872210D01*
X134670000Y-102872210D01*
X134670000Y-104594991D01*
X134735623Y-104924894D01*
X134985596Y-105299005D01*
X135359707Y-105548978D01*
X135801000Y-105636757D01*
X136242294Y-105548978D01*
X136616405Y-105299005D01*
X136866378Y-104924894D01*
X136932000Y-104594991D01*
X136932000Y-102872209D01*
X136866378Y-102542306D01*
X136616405Y-102168195D01*
X136242293Y-101918222D01*
X135801000Y-101830443D01*
X135359706Y-101918222D01*
X134985595Y-102168195D01*
X134735622Y-102542307D01*
X134670000Y-102872210D01*
X134392000Y-102872210D01*
X134392000Y-102872209D01*
X134326378Y-102542306D01*
X134076405Y-102168195D01*
X133702293Y-101918222D01*
X133261000Y-101830443D01*
X132819706Y-101918222D01*
X132445595Y-102168195D01*
X132195622Y-102542307D01*
X132130000Y-102872210D01*
X131852000Y-102872210D01*
X131852000Y-102872209D01*
X131786378Y-102542306D01*
X131536405Y-102168195D01*
X131162293Y-101918222D01*
X130721000Y-101830443D01*
X130279706Y-101918222D01*
X129905595Y-102168195D01*
X129763826Y-102380368D01*
X129673306Y-102244894D01*
X129631056Y-102216664D01*
X126147000Y-98732609D01*
X126147000Y-90265743D01*
X126456405Y-90059005D01*
X126706378Y-89684894D01*
X126772000Y-89354991D01*
X126772000Y-87632210D01*
X127050000Y-87632210D01*
X127050000Y-89354991D01*
X127115623Y-89684894D01*
X127365596Y-90059005D01*
X127739707Y-90308978D01*
X128181000Y-90396757D01*
X128622294Y-90308978D01*
X128996405Y-90059005D01*
X129246378Y-89684894D01*
X129312000Y-89354991D01*
X129312000Y-87632209D01*
X129246378Y-87302306D01*
X128996405Y-86928195D01*
X128622293Y-86678222D01*
X128181000Y-86590443D01*
X127739706Y-86678222D01*
X127365595Y-86928195D01*
X127115622Y-87302307D01*
X127050000Y-87632210D01*
X126772000Y-87632210D01*
X126772000Y-87632209D01*
X126706378Y-87302306D01*
X126456405Y-86928195D01*
X126082293Y-86678222D01*
X125641000Y-86590443D01*
X125199706Y-86678222D01*
X124825595Y-86928195D01*
X124575622Y-87302307D01*
X124510000Y-87632210D01*
X124232000Y-87632210D01*
X124232000Y-87632209D01*
X124166378Y-87302306D01*
X123916405Y-86928195D01*
X123542293Y-86678222D01*
X123101000Y-86590443D01*
X122659706Y-86678222D01*
X122285595Y-86928195D01*
X122035622Y-87302307D01*
X121970000Y-87632210D01*
X121692000Y-87632210D01*
X121692000Y-87632209D01*
X121626378Y-87302306D01*
X121376405Y-86928195D01*
X121002293Y-86678222D01*
X120561000Y-86590443D01*
X120119706Y-86678222D01*
X119745595Y-86928195D01*
X119495622Y-87302307D01*
X119430000Y-87632210D01*
X119152000Y-87632210D01*
X119152000Y-87632209D01*
X119086378Y-87302306D01*
X118836405Y-86928195D01*
X118462293Y-86678222D01*
X118021000Y-86590443D01*
X117579706Y-86678222D01*
X117205595Y-86928195D01*
X116955622Y-87302307D01*
X116890000Y-87632210D01*
X107542400Y-87632210D01*
X107542400Y-84728893D01*
X107608572Y-84353610D01*
X107789011Y-84041084D01*
X108065453Y-83809121D01*
X108414109Y-83682220D01*
X108594932Y-83666400D01*
X188448107Y-83666400D01*
X188823390Y-83732572D01*
G04 #@! TD*
M02*
