G04 #@! TF.GenerationSoftware,KiCad,Pcbnew,(5.0.0)*
G04 #@! TF.CreationDate,2018-09-19T19:41:42-05:00*
G04 #@! TF.ProjectId,27C160_Adapter,3237433136305F416461707465722E6B,rev?*
G04 #@! TF.SameCoordinates,Original*
G04 #@! TF.FileFunction,Copper,L1,Top,Signal*
G04 #@! TF.FilePolarity,Positive*
%FSLAX46Y46*%
G04 Gerber Fmt 4.6, Leading zero omitted, Abs format (unit mm)*
G04 Created by KiCad (PCBNEW (5.0.0)) date 09/19/18 19:41:42*
%MOMM*%
%LPD*%
G01*
G04 APERTURE LIST*
G04 #@! TA.AperFunction,ComponentPad*
%ADD10O,1.500000X3.000000*%
G04 #@! TD*
G04 #@! TA.AperFunction,ComponentPad*
%ADD11C,1.219200*%
G04 #@! TD*
G04 #@! TA.AperFunction,ComponentPad*
%ADD12O,1.219200X2.438400*%
G04 #@! TD*
G04 #@! TA.AperFunction,ComponentPad*
%ADD13C,1.676400*%
G04 #@! TD*
G04 #@! TA.AperFunction,ComponentPad*
%ADD14O,2.438400X1.219200*%
G04 #@! TD*
G04 #@! TA.AperFunction,ViaPad*
%ADD15C,0.600000*%
G04 #@! TD*
G04 #@! TA.AperFunction,Conductor*
%ADD16C,0.250000*%
G04 #@! TD*
G04 #@! TA.AperFunction,Conductor*
%ADD17C,0.254000*%
G04 #@! TD*
G04 APERTURE END LIST*
D10*
G04 #@! TO.P,U1,1*
G04 #@! TO.N,/VPP*
X130086000Y-109959000D03*
G04 #@! TO.P,U1,2*
G04 #@! TO.N,/E*
X132626000Y-109959000D03*
G04 #@! TO.P,U1,3*
G04 #@! TO.N,/D15*
X135166000Y-109959000D03*
G04 #@! TO.P,U1,4*
G04 #@! TO.N,/D14*
X137706000Y-109959000D03*
G04 #@! TO.P,U1,5*
G04 #@! TO.N,/D13*
X140246000Y-109959000D03*
G04 #@! TO.P,U1,6*
G04 #@! TO.N,/D12*
X142786000Y-109959000D03*
G04 #@! TO.P,U1,7*
G04 #@! TO.N,/D11*
X145326000Y-109959000D03*
G04 #@! TO.P,U1,8*
G04 #@! TO.N,/D10*
X147866000Y-109959000D03*
G04 #@! TO.P,U1,9*
G04 #@! TO.N,/D9*
X150406000Y-109959000D03*
G04 #@! TO.P,U1,10*
G04 #@! TO.N,/D8*
X152946000Y-109959000D03*
G04 #@! TO.P,U1,11*
G04 #@! TO.N,GND*
X155486000Y-109959000D03*
G04 #@! TO.P,U1,12*
G04 #@! TO.N,/D7*
X158026000Y-109959000D03*
G04 #@! TO.P,U1,13*
G04 #@! TO.N,/D6*
X160566000Y-109959000D03*
G04 #@! TO.P,U1,14*
G04 #@! TO.N,/D5*
X163106000Y-109959000D03*
G04 #@! TO.P,U1,15*
G04 #@! TO.N,/D4*
X165646000Y-109959000D03*
G04 #@! TO.P,U1,16*
G04 #@! TO.N,/D3*
X168186000Y-109959000D03*
G04 #@! TO.P,U1,17*
G04 #@! TO.N,/D2*
X170726000Y-109959000D03*
G04 #@! TO.P,U1,18*
G04 #@! TO.N,/D1*
X173266000Y-109959000D03*
G04 #@! TO.P,U1,19*
G04 #@! TO.N,/D0*
X175806000Y-109959000D03*
G04 #@! TO.P,U1,20*
G04 #@! TO.N,/N$5*
X178346000Y-109959000D03*
G04 #@! TO.P,U1,21*
G04 #@! TO.N,/A0*
X178346000Y-94969000D03*
G04 #@! TO.P,U1,22*
G04 #@! TO.N,/A1*
X175806000Y-94969000D03*
G04 #@! TO.P,U1,23*
G04 #@! TO.N,/A2*
X173266000Y-94969000D03*
G04 #@! TO.P,U1,24*
G04 #@! TO.N,/A3*
X170726000Y-94969000D03*
G04 #@! TO.P,U1,25*
G04 #@! TO.N,/A4*
X168186000Y-94969000D03*
G04 #@! TO.P,U1,26*
G04 #@! TO.N,/A5*
X165646000Y-94969000D03*
G04 #@! TO.P,U1,27*
G04 #@! TO.N,/A6*
X163106000Y-94969000D03*
G04 #@! TO.P,U1,28*
G04 #@! TO.N,/A7*
X160566000Y-94969000D03*
G04 #@! TO.P,U1,29*
G04 #@! TO.N,/A8*
X158026000Y-94969000D03*
G04 #@! TO.P,U1,30*
G04 #@! TO.N,GND*
X155486000Y-94969000D03*
G04 #@! TO.P,U1,31*
G04 #@! TO.N,/A9*
X152946000Y-94969000D03*
G04 #@! TO.P,U1,32*
G04 #@! TO.N,/A10*
X150406000Y-94969000D03*
G04 #@! TO.P,U1,33*
G04 #@! TO.N,/A11*
X147866000Y-94969000D03*
G04 #@! TO.P,U1,34*
G04 #@! TO.N,/A12*
X145326000Y-94969000D03*
G04 #@! TO.P,U1,35*
G04 #@! TO.N,/A13*
X142786000Y-94969000D03*
G04 #@! TO.P,U1,36*
G04 #@! TO.N,/A14*
X140246000Y-94969000D03*
G04 #@! TO.P,U1,37*
G04 #@! TO.N,/A15*
X137706000Y-94969000D03*
G04 #@! TO.P,U1,38*
G04 #@! TO.N,/A16*
X135166000Y-94969000D03*
G04 #@! TO.P,U1,39*
G04 #@! TO.N,/A17*
X132626000Y-94969000D03*
G04 #@! TO.P,U1,40*
G04 #@! TO.N,VCC*
X130086000Y-94969000D03*
G04 #@! TD*
D11*
G04 #@! TO.P,R1,1*
G04 #@! TO.N,/A20*
X182156000Y-113894000D03*
G04 #@! TO.P,R1,2*
G04 #@! TO.N,VCC*
X182156000Y-124054000D03*
G04 #@! TD*
G04 #@! TO.P,R2,1*
G04 #@! TO.N,/A19*
X178346000Y-113894000D03*
G04 #@! TO.P,R2,2*
G04 #@! TO.N,VCC*
X178346000Y-124054000D03*
G04 #@! TD*
D12*
G04 #@! TO.P,SW2,1*
G04 #@! TO.N,/A18*
X149136000Y-122784000D03*
G04 #@! TO.P,SW2,2*
G04 #@! TO.N,/A19*
X151676000Y-122784000D03*
G04 #@! TO.P,SW2,3*
G04 #@! TO.N,/A20*
X154216000Y-122784000D03*
G04 #@! TO.P,SW2,4*
G04 #@! TO.N,GND*
X154216000Y-115164000D03*
G04 #@! TO.P,SW2,6*
X149136000Y-115164000D03*
G04 #@! TO.P,SW2,5*
X151676000Y-115164000D03*
G04 #@! TD*
D11*
G04 #@! TO.P,R3,1*
G04 #@! TO.N,/A18*
X174536000Y-113894000D03*
G04 #@! TO.P,R3,2*
G04 #@! TO.N,VCC*
X174536000Y-124054000D03*
G04 #@! TD*
D13*
G04 #@! TO.P,SW1,2*
G04 #@! TO.N,/N$2*
X131086000Y-118974000D03*
G04 #@! TO.P,SW1,5*
G04 #@! TO.N,/N$6*
X133626000Y-118974000D03*
G04 #@! TO.P,SW1,1*
G04 #@! TO.N,/VPP*
X131086000Y-121514000D03*
G04 #@! TO.P,SW1,3*
G04 #@! TO.N,/A20*
X131086000Y-116434000D03*
G04 #@! TO.P,SW1,4*
G04 #@! TO.N,/N$5*
X133626000Y-121514000D03*
G04 #@! TO.P,SW1,6*
G04 #@! TO.N,/N$4*
X133626000Y-116434000D03*
G04 #@! TD*
D11*
G04 #@! TO.P,R4,1*
G04 #@! TO.N,GND*
X170726000Y-113894000D03*
G04 #@! TO.P,R4,2*
G04 #@! TO.N,/N$4*
X170726000Y-124054000D03*
G04 #@! TD*
G04 #@! TO.P,R5,1*
G04 #@! TO.N,VCC*
X166916000Y-124054000D03*
G04 #@! TO.P,R5,2*
G04 #@! TO.N,/N$1*
X166916000Y-113894000D03*
G04 #@! TD*
D14*
G04 #@! TO.P,Q1,C*
G04 #@! TO.N,/N$4*
X161836000Y-121514000D03*
G04 #@! TO.P,Q1,E*
G04 #@! TO.N,/VPP*
X161836000Y-116434000D03*
G04 #@! TO.P,Q1,B*
G04 #@! TO.N,/N$1*
X161836000Y-118974000D03*
G04 #@! TD*
D10*
G04 #@! TO.P,ZX1,1*
G04 #@! TO.N,N/C*
X118021000Y-103733600D03*
G04 #@! TO.P,ZX1,2*
X120561000Y-103733600D03*
G04 #@! TO.P,ZX1,3*
X123101000Y-103733600D03*
G04 #@! TO.P,ZX1,4*
G04 #@! TO.N,/A18*
X125641000Y-103733600D03*
G04 #@! TO.P,ZX1,5*
G04 #@! TO.N,/A17*
X128181000Y-103733600D03*
G04 #@! TO.P,ZX1,6*
G04 #@! TO.N,/A7*
X130721000Y-103733600D03*
G04 #@! TO.P,ZX1,7*
G04 #@! TO.N,/A6*
X133261000Y-103733600D03*
G04 #@! TO.P,ZX1,8*
G04 #@! TO.N,/A5*
X135801000Y-103733600D03*
G04 #@! TO.P,ZX1,9*
G04 #@! TO.N,/A4*
X138341000Y-103733600D03*
G04 #@! TO.P,ZX1,10*
G04 #@! TO.N,/A3*
X140881000Y-103733600D03*
G04 #@! TO.P,ZX1,11*
G04 #@! TO.N,/A2*
X143421000Y-103733600D03*
G04 #@! TO.P,ZX1,12*
G04 #@! TO.N,/A1*
X145961000Y-103733600D03*
G04 #@! TO.P,ZX1,13*
G04 #@! TO.N,/A0*
X148501000Y-103733600D03*
G04 #@! TO.P,ZX1,14*
G04 #@! TO.N,/E*
X151041000Y-103733600D03*
G04 #@! TO.P,ZX1,15*
G04 #@! TO.N,GND*
X153581000Y-103733600D03*
G04 #@! TO.P,ZX1,16*
G04 #@! TO.N,/N$6*
X156121000Y-103733600D03*
G04 #@! TO.P,ZX1,17*
G04 #@! TO.N,/D0*
X158661000Y-103733600D03*
G04 #@! TO.P,ZX1,18*
G04 #@! TO.N,/D8*
X161201000Y-103733600D03*
G04 #@! TO.P,ZX1,19*
G04 #@! TO.N,/D1*
X163741000Y-103733600D03*
G04 #@! TO.P,ZX1,20*
G04 #@! TO.N,/D9*
X166281000Y-103733600D03*
G04 #@! TO.P,ZX1,21*
G04 #@! TO.N,/D2*
X168821000Y-103733600D03*
G04 #@! TO.P,ZX1,22*
G04 #@! TO.N,/D10*
X171361000Y-103733600D03*
G04 #@! TO.P,ZX1,23*
G04 #@! TO.N,/D3*
X173901000Y-103733600D03*
G04 #@! TO.P,ZX1,24*
G04 #@! TO.N,/D11*
X176441000Y-103733600D03*
G04 #@! TO.P,ZX1,25*
G04 #@! TO.N,VCC*
X176441000Y-88493600D03*
G04 #@! TO.P,ZX1,26*
G04 #@! TO.N,/D4*
X173901000Y-88493600D03*
G04 #@! TO.P,ZX1,27*
G04 #@! TO.N,/D12*
X171361000Y-88493600D03*
G04 #@! TO.P,ZX1,28*
G04 #@! TO.N,/D5*
X168821000Y-88493600D03*
G04 #@! TO.P,ZX1,29*
G04 #@! TO.N,/D13*
X166281000Y-88493600D03*
G04 #@! TO.P,ZX1,30*
G04 #@! TO.N,/D6*
X163741000Y-88493600D03*
G04 #@! TO.P,ZX1,31*
G04 #@! TO.N,/D14*
X161201000Y-88493600D03*
G04 #@! TO.P,ZX1,32*
G04 #@! TO.N,/D7*
X158661000Y-88493600D03*
G04 #@! TO.P,ZX1,33*
G04 #@! TO.N,/D15*
X156121000Y-88493600D03*
G04 #@! TO.P,ZX1,34*
G04 #@! TO.N,GND*
X153581000Y-88493600D03*
G04 #@! TO.P,ZX1,35*
G04 #@! TO.N,/N$2*
X151041000Y-88493600D03*
G04 #@! TO.P,ZX1,36*
G04 #@! TO.N,/A16*
X148501000Y-88493600D03*
G04 #@! TO.P,ZX1,37*
G04 #@! TO.N,/A15*
X145961000Y-88493600D03*
G04 #@! TO.P,ZX1,38*
G04 #@! TO.N,/A14*
X143421000Y-88493600D03*
G04 #@! TO.P,ZX1,39*
G04 #@! TO.N,/A13*
X140881000Y-88493600D03*
G04 #@! TO.P,ZX1,40*
G04 #@! TO.N,/A12*
X138341000Y-88493600D03*
G04 #@! TO.P,ZX1,41*
G04 #@! TO.N,/A11*
X135801000Y-88493600D03*
G04 #@! TO.P,ZX1,42*
G04 #@! TO.N,/A10*
X133261000Y-88493600D03*
G04 #@! TO.P,ZX1,43*
G04 #@! TO.N,/A9*
X130721000Y-88493600D03*
G04 #@! TO.P,ZX1,44*
G04 #@! TO.N,/A8*
X128181000Y-88493600D03*
G04 #@! TO.P,ZX1,45*
G04 #@! TO.N,/A19*
X125641000Y-88493600D03*
G04 #@! TO.P,ZX1,46*
G04 #@! TO.N,N/C*
X123101000Y-88493600D03*
G04 #@! TO.P,ZX1,47*
X120561000Y-88493600D03*
G04 #@! TO.P,ZX1,48*
X118021000Y-88493600D03*
G04 #@! TD*
D15*
G04 #@! TO.N,/D13*
X149544900Y-97372200D03*
G04 #@! TO.N,/D8*
X154896900Y-107025300D03*
G04 #@! TD*
D16*
G04 #@! TO.N,GND*
X155486000Y-94969000D02*
X155486000Y-93191300D01*
X153581000Y-88493600D02*
X153581000Y-91286300D01*
X153581000Y-91286300D02*
X155486000Y-93191300D01*
X151676000Y-114789700D02*
X151676000Y-114415500D01*
X151676000Y-115164000D02*
X151676000Y-114789700D01*
X154216000Y-115164000D02*
X154216000Y-114789700D01*
X154216000Y-114789700D02*
X151676000Y-114789700D01*
X149136000Y-115164000D02*
X149136000Y-113667100D01*
X151676000Y-114415500D02*
X150927600Y-113667100D01*
X150927600Y-113667100D02*
X149136000Y-113667100D01*
G04 #@! TO.N,VCC*
X178346000Y-124054000D02*
X182156000Y-124054000D01*
G04 #@! TO.N,/N$4*
X161836000Y-121514000D02*
X168186000Y-121514000D01*
X168186000Y-121514000D02*
X170726000Y-124054000D01*
G04 #@! TO.N,/VPP*
X131517500Y-121082500D02*
X131086000Y-121514000D01*
X160339100Y-116434000D02*
X160112100Y-116661000D01*
X160112100Y-116661000D02*
X139148300Y-116661000D01*
X139148300Y-116661000D02*
X135565300Y-120244000D01*
X135565300Y-120244000D02*
X132356000Y-120244000D01*
X132356000Y-120244000D02*
X131517500Y-121082500D01*
X131517500Y-121082500D02*
X129922600Y-119487600D01*
X129922600Y-119487600D02*
X129922600Y-111900100D01*
X129922600Y-111900100D02*
X130086000Y-111736700D01*
X130086000Y-109959000D02*
X130086000Y-111736700D01*
X161836000Y-116434000D02*
X160339100Y-116434000D01*
G04 #@! TO.N,/A20*
X154216000Y-121287100D02*
X154907900Y-120595200D01*
X154907900Y-120595200D02*
X175454800Y-120595200D01*
X175454800Y-120595200D02*
X182156000Y-113894000D01*
X154216000Y-122784000D02*
X154216000Y-121287100D01*
G04 #@! TO.N,/A19*
X151676000Y-122784000D02*
X151676000Y-121287100D01*
X178346000Y-113894000D02*
X172241500Y-119998500D01*
X172241500Y-119998500D02*
X152964600Y-119998500D01*
X152964600Y-119998500D02*
X151676000Y-121287100D01*
G04 #@! TO.N,/A18*
X149136000Y-121287100D02*
X152517700Y-117905400D01*
X152517700Y-117905400D02*
X170524600Y-117905400D01*
X170524600Y-117905400D02*
X174536000Y-113894000D01*
X149136000Y-122784000D02*
X149136000Y-121287100D01*
G04 #@! TO.N,/N$2*
X151041000Y-88493600D02*
X151041000Y-90271300D01*
X151041000Y-90271300D02*
X150328000Y-90271300D01*
X150328000Y-90271300D02*
X146596000Y-94003300D01*
X146596000Y-94003300D02*
X146596000Y-95965200D01*
X146596000Y-95965200D02*
X144812700Y-97748500D01*
X144812700Y-97748500D02*
X134352200Y-97748500D01*
X134352200Y-97748500D02*
X129687500Y-102413200D01*
X129687500Y-102413200D02*
X129687500Y-105662000D01*
X129687500Y-105662000D02*
X131213500Y-107188000D01*
X131213500Y-107188000D02*
X131213500Y-112771300D01*
X131213500Y-112771300D02*
X132213200Y-113771000D01*
X132213200Y-113771000D02*
X132213200Y-117846800D01*
X132213200Y-117846800D02*
X131086000Y-118974000D01*
G04 #@! TO.N,/N$6*
X156121000Y-103733600D02*
X153937300Y-105917300D01*
X153937300Y-105917300D02*
X147161100Y-105917300D01*
X147161100Y-105917300D02*
X144056000Y-109022400D01*
X144056000Y-109022400D02*
X144056000Y-110936000D01*
X144056000Y-110936000D02*
X136018000Y-118974000D01*
X136018000Y-118974000D02*
X133626000Y-118974000D01*
G04 #@! TO.N,/N$5*
X133626000Y-121514000D02*
X138175600Y-121514000D01*
X138175600Y-121514000D02*
X142329200Y-117360400D01*
X142329200Y-117360400D02*
X169627100Y-117360400D01*
X169627100Y-117360400D02*
X175250800Y-111736700D01*
X175250800Y-111736700D02*
X178346000Y-111736700D01*
X178346000Y-109959000D02*
X178346000Y-111736700D01*
G04 #@! TO.N,/E*
X132626000Y-109959000D02*
X132626000Y-108181300D01*
X151041000Y-103733600D02*
X151041000Y-105511300D01*
X151041000Y-105511300D02*
X135296000Y-105511300D01*
X135296000Y-105511300D02*
X132626000Y-108181300D01*
G04 #@! TO.N,/D13*
X166281000Y-90271300D02*
X162981000Y-90271300D01*
X162981000Y-90271300D02*
X159296000Y-93956300D01*
X159296000Y-93956300D02*
X159296000Y-95961900D01*
X159296000Y-95961900D02*
X157885700Y-97372200D01*
X157885700Y-97372200D02*
X149544900Y-97372200D01*
X166281000Y-88493600D02*
X166281000Y-90271300D01*
G04 #@! TO.N,/D11*
X176441000Y-101955900D02*
X175635600Y-101150500D01*
X175635600Y-101150500D02*
X164865300Y-101150500D01*
X164865300Y-101150500D02*
X164059900Y-101955900D01*
X164059900Y-101955900D02*
X160711100Y-101955900D01*
X160711100Y-101955900D02*
X159699700Y-102967300D01*
X159699700Y-102967300D02*
X159699700Y-104898300D01*
X159699700Y-104898300D02*
X159086700Y-105511300D01*
X159086700Y-105511300D02*
X155051900Y-105511300D01*
X155051900Y-105511300D02*
X153259800Y-107303400D01*
X153259800Y-107303400D02*
X147981600Y-107303400D01*
X147981600Y-107303400D02*
X145326000Y-109959000D01*
X176441000Y-103733600D02*
X176441000Y-101955900D01*
G04 #@! TO.N,/D10*
X147866000Y-109959000D02*
X147866000Y-108181300D01*
X171361000Y-103733600D02*
X169583300Y-101955900D01*
X169583300Y-101955900D02*
X165803600Y-101955900D01*
X165803600Y-101955900D02*
X165011000Y-102748500D01*
X165011000Y-102748500D02*
X165011000Y-104686700D01*
X165011000Y-104686700D02*
X161955400Y-107742300D01*
X161955400Y-107742300D02*
X148305000Y-107742300D01*
X148305000Y-107742300D02*
X147866000Y-108181300D01*
G04 #@! TO.N,/D9*
X150406000Y-109959000D02*
X150406000Y-108181300D01*
X166281000Y-103733600D02*
X166281000Y-105511300D01*
X166281000Y-105511300D02*
X163611000Y-108181300D01*
X163611000Y-108181300D02*
X150406000Y-108181300D01*
G04 #@! TO.N,/D8*
X161201000Y-105511300D02*
X159687000Y-107025300D01*
X159687000Y-107025300D02*
X154896900Y-107025300D01*
X161201000Y-103733600D02*
X161201000Y-105511300D01*
G04 #@! TO.N,/D2*
X170726000Y-109959000D02*
X170726000Y-108181300D01*
X168821000Y-103733600D02*
X168821000Y-106276300D01*
X168821000Y-106276300D02*
X170726000Y-108181300D01*
G04 #@! TO.N,/D1*
X173266000Y-108181300D02*
X172840200Y-107755500D01*
X172840200Y-107755500D02*
X172840200Y-102984900D01*
X172840200Y-102984900D02*
X171408500Y-101553200D01*
X171408500Y-101553200D02*
X165636600Y-101553200D01*
X165636600Y-101553200D02*
X163741000Y-103448800D01*
X163741000Y-103448800D02*
X163741000Y-103733600D01*
X173266000Y-109959000D02*
X173266000Y-108181300D01*
G04 #@! TO.N,/A0*
X178346000Y-96746700D02*
X174747600Y-100345100D01*
X174747600Y-100345100D02*
X164851100Y-100345100D01*
X164851100Y-100345100D02*
X163986900Y-101209300D01*
X163986900Y-101209300D02*
X149247600Y-101209300D01*
X149247600Y-101209300D02*
X148501000Y-101955900D01*
X148501000Y-103733600D02*
X148501000Y-101955900D01*
X178346000Y-94969000D02*
X178346000Y-96746700D01*
G04 #@! TO.N,/A1*
X175806000Y-96746700D02*
X172610400Y-99942300D01*
X172610400Y-99942300D02*
X164684200Y-99942300D01*
X164684200Y-99942300D02*
X163878700Y-100747800D01*
X163878700Y-100747800D02*
X147169100Y-100747800D01*
X147169100Y-100747800D02*
X145961000Y-101955900D01*
X145961000Y-103733600D02*
X145961000Y-101955900D01*
X175806000Y-94969000D02*
X175806000Y-96746700D01*
G04 #@! TO.N,/A2*
X173266000Y-96746700D02*
X170473100Y-99539600D01*
X170473100Y-99539600D02*
X164517400Y-99539600D01*
X164517400Y-99539600D02*
X163711900Y-100345100D01*
X163711900Y-100345100D02*
X145031800Y-100345100D01*
X145031800Y-100345100D02*
X143421000Y-101955900D01*
X173266000Y-94969000D02*
X173266000Y-96746700D01*
X143421000Y-103733600D02*
X143421000Y-101955900D01*
G04 #@! TO.N,/A3*
X170726000Y-96746700D02*
X168335800Y-99136900D01*
X168335800Y-99136900D02*
X164350500Y-99136900D01*
X164350500Y-99136900D02*
X163545000Y-99942400D01*
X163545000Y-99942400D02*
X142894500Y-99942400D01*
X142894500Y-99942400D02*
X140881000Y-101955900D01*
X170726000Y-94969000D02*
X170726000Y-96746700D01*
X140881000Y-103733600D02*
X140881000Y-101955900D01*
G04 #@! TO.N,/A4*
X168186000Y-96746700D02*
X166198500Y-98734200D01*
X166198500Y-98734200D02*
X164183600Y-98734200D01*
X164183600Y-98734200D02*
X163378100Y-99539700D01*
X163378100Y-99539700D02*
X140757200Y-99539700D01*
X140757200Y-99539700D02*
X138341000Y-101955900D01*
X168186000Y-94969000D02*
X168186000Y-96746700D01*
X138341000Y-103733600D02*
X138341000Y-101955900D01*
G04 #@! TO.N,/A5*
X165646000Y-96746700D02*
X165601500Y-96746700D01*
X165601500Y-96746700D02*
X163211200Y-99137000D01*
X163211200Y-99137000D02*
X138619900Y-99137000D01*
X138619900Y-99137000D02*
X135801000Y-101955900D01*
X135801000Y-103733600D02*
X135801000Y-101955900D01*
X165646000Y-94969000D02*
X165646000Y-96746700D01*
G04 #@! TO.N,/A6*
X163106000Y-96746700D02*
X161154000Y-98698700D01*
X161154000Y-98698700D02*
X136518200Y-98698700D01*
X136518200Y-98698700D02*
X133261000Y-101955900D01*
X163106000Y-94969000D02*
X163106000Y-96746700D01*
X133261000Y-103733600D02*
X133261000Y-101955900D01*
G04 #@! TO.N,/A7*
X160566000Y-96746700D02*
X159047200Y-98265500D01*
X159047200Y-98265500D02*
X134411400Y-98265500D01*
X134411400Y-98265500D02*
X130721000Y-101955900D01*
X160566000Y-94969000D02*
X160566000Y-96746700D01*
X130721000Y-103733600D02*
X130721000Y-101955900D01*
G04 #@! TO.N,/A8*
X158026000Y-94969000D02*
X158026000Y-93191300D01*
X128181000Y-88493600D02*
X128181000Y-86715900D01*
X128181000Y-86715900D02*
X129020200Y-85876700D01*
X129020200Y-85876700D02*
X153196500Y-85876700D01*
X153196500Y-85876700D02*
X154708500Y-87388700D01*
X154708500Y-87388700D02*
X154708500Y-89873800D01*
X154708500Y-89873800D02*
X158026000Y-93191300D01*
G04 #@! TO.N,/A9*
X152946000Y-94969000D02*
X152946000Y-93191300D01*
X130721000Y-88493600D02*
X130721000Y-86715900D01*
X130721000Y-86715900D02*
X131127300Y-86309600D01*
X131127300Y-86309600D02*
X151073600Y-86309600D01*
X151073600Y-86309600D02*
X152520200Y-87756200D01*
X152520200Y-87756200D02*
X152520200Y-92765500D01*
X152520200Y-92765500D02*
X152946000Y-93191300D01*
G04 #@! TO.N,/A12*
X138341000Y-88493600D02*
X138341000Y-90271300D01*
X138341000Y-90271300D02*
X138767000Y-90697300D01*
X138767000Y-90697300D02*
X138767000Y-95731600D01*
X138767000Y-95731600D02*
X139782100Y-96746700D01*
X139782100Y-96746700D02*
X143548300Y-96746700D01*
X143548300Y-96746700D02*
X145326000Y-94969000D01*
G04 #@! TO.N,/A14*
X143421000Y-88493600D02*
X143421000Y-90271300D01*
X140246000Y-94969000D02*
X140246000Y-93191300D01*
X143421000Y-90271300D02*
X143166000Y-90271300D01*
X143166000Y-90271300D02*
X140246000Y-93191300D01*
G04 #@! TO.N,/A16*
X148501000Y-88493600D02*
X148501000Y-86715900D01*
X148501000Y-86715900D02*
X137902500Y-86715900D01*
X137902500Y-86715900D02*
X137213500Y-87404900D01*
X137213500Y-87404900D02*
X137213500Y-91143800D01*
X137213500Y-91143800D02*
X135166000Y-93191300D01*
X135166000Y-94969000D02*
X135166000Y-93191300D01*
G04 #@! TO.N,/A17*
X132626000Y-94969000D02*
X132626000Y-96746700D01*
X128181000Y-103733600D02*
X128181000Y-101191700D01*
X128181000Y-101191700D02*
X132626000Y-96746700D01*
G04 #@! TD*
D17*
G04 #@! TO.N,VCC*
G36*
X188823390Y-83732572D02*
X189135916Y-83913011D01*
X189367879Y-84189453D01*
X189494780Y-84538109D01*
X189510600Y-84718932D01*
X189510601Y-125327999D01*
X189445564Y-125677205D01*
X189270384Y-125961401D01*
X189004639Y-126163477D01*
X188668850Y-126260716D01*
X188589433Y-126264600D01*
X128798995Y-126264600D01*
X128449795Y-126199564D01*
X128165599Y-126024384D01*
X127963523Y-125758639D01*
X127866284Y-125422850D01*
X127862400Y-125343433D01*
X127862400Y-124923702D01*
X166225903Y-124923702D01*
X166276600Y-125150123D01*
X166744739Y-125311374D01*
X167238952Y-125281200D01*
X167555400Y-125150123D01*
X167606097Y-124923702D01*
X166916000Y-124233605D01*
X166225903Y-124923702D01*
X127862400Y-124923702D01*
X127862400Y-109959603D01*
X127861309Y-109954116D01*
X127856674Y-109859355D01*
X127855675Y-109855146D01*
X127856097Y-109850842D01*
X127847971Y-109807211D01*
X127731549Y-109405176D01*
X127722691Y-109387564D01*
X127717422Y-109368564D01*
X127694134Y-109330784D01*
X127616848Y-109229148D01*
X127614677Y-108886455D01*
X127604702Y-108837917D01*
X127576912Y-108796890D01*
X127535536Y-108769622D01*
X127487329Y-108760260D01*
X127086578Y-108761369D01*
X127022799Y-108722055D01*
X127004403Y-108714956D01*
X126987740Y-108704423D01*
X126945115Y-108692079D01*
X126945112Y-108692078D01*
X126945111Y-108692078D01*
X126534999Y-108615698D01*
X126514397Y-108611600D01*
X108478995Y-108611600D01*
X108129795Y-108546564D01*
X107845599Y-108371384D01*
X107643523Y-108105639D01*
X107546284Y-107769850D01*
X107542400Y-107690433D01*
X107542400Y-102872210D01*
X116890000Y-102872210D01*
X116890000Y-104594991D01*
X116955623Y-104924894D01*
X117205596Y-105299005D01*
X117579707Y-105548978D01*
X118021000Y-105636757D01*
X118462294Y-105548978D01*
X118836405Y-105299005D01*
X119086378Y-104924894D01*
X119152000Y-104594991D01*
X119152000Y-102872210D01*
X119430000Y-102872210D01*
X119430000Y-104594991D01*
X119495623Y-104924894D01*
X119745596Y-105299005D01*
X120119707Y-105548978D01*
X120561000Y-105636757D01*
X121002294Y-105548978D01*
X121376405Y-105299005D01*
X121626378Y-104924894D01*
X121692000Y-104594991D01*
X121692000Y-102872210D01*
X121970000Y-102872210D01*
X121970000Y-104594991D01*
X122035623Y-104924894D01*
X122285596Y-105299005D01*
X122659707Y-105548978D01*
X123101000Y-105636757D01*
X123542294Y-105548978D01*
X123916405Y-105299005D01*
X124166378Y-104924894D01*
X124232000Y-104594991D01*
X124232000Y-102872210D01*
X124510000Y-102872210D01*
X124510000Y-104594991D01*
X124575623Y-104924894D01*
X124825596Y-105299005D01*
X125199707Y-105548978D01*
X125641000Y-105636757D01*
X126082294Y-105548978D01*
X126456405Y-105299005D01*
X126706378Y-104924894D01*
X126772000Y-104594991D01*
X126772000Y-102872209D01*
X126706378Y-102542306D01*
X126456405Y-102168195D01*
X126082293Y-101918222D01*
X125641000Y-101830443D01*
X125199706Y-101918222D01*
X124825595Y-102168195D01*
X124575622Y-102542307D01*
X124510000Y-102872210D01*
X124232000Y-102872210D01*
X124232000Y-102872209D01*
X124166378Y-102542306D01*
X123916405Y-102168195D01*
X123542293Y-101918222D01*
X123101000Y-101830443D01*
X122659706Y-101918222D01*
X122285595Y-102168195D01*
X122035622Y-102542307D01*
X121970000Y-102872210D01*
X121692000Y-102872210D01*
X121692000Y-102872209D01*
X121626378Y-102542306D01*
X121376405Y-102168195D01*
X121002293Y-101918222D01*
X120561000Y-101830443D01*
X120119706Y-101918222D01*
X119745595Y-102168195D01*
X119495622Y-102542307D01*
X119430000Y-102872210D01*
X119152000Y-102872210D01*
X119152000Y-102872209D01*
X119086378Y-102542306D01*
X118836405Y-102168195D01*
X118462293Y-101918222D01*
X118021000Y-101830443D01*
X117579706Y-101918222D01*
X117205595Y-102168195D01*
X116955622Y-102542307D01*
X116890000Y-102872210D01*
X107542400Y-102872210D01*
X107542400Y-95096000D01*
X128701000Y-95096000D01*
X128701000Y-95846000D01*
X128855028Y-96366349D01*
X129196460Y-96788145D01*
X129673316Y-97047173D01*
X129744815Y-97061318D01*
X129959000Y-96938656D01*
X129959000Y-95096000D01*
X130213000Y-95096000D01*
X130213000Y-96938656D01*
X130427185Y-97061318D01*
X130498684Y-97047173D01*
X130975540Y-96788145D01*
X131316972Y-96366349D01*
X131471000Y-95846000D01*
X131471000Y-95096000D01*
X130213000Y-95096000D01*
X129959000Y-95096000D01*
X128701000Y-95096000D01*
X107542400Y-95096000D01*
X107542400Y-94092000D01*
X128701000Y-94092000D01*
X128701000Y-94842000D01*
X129959000Y-94842000D01*
X129959000Y-92999344D01*
X130213000Y-92999344D01*
X130213000Y-94842000D01*
X131471000Y-94842000D01*
X131471000Y-94092000D01*
X131316972Y-93571651D01*
X130975540Y-93149855D01*
X130498684Y-92890827D01*
X130427185Y-92876682D01*
X130213000Y-92999344D01*
X129959000Y-92999344D01*
X129744815Y-92876682D01*
X129673316Y-92890827D01*
X129196460Y-93149855D01*
X128855028Y-93571651D01*
X128701000Y-94092000D01*
X107542400Y-94092000D01*
X107542400Y-87632210D01*
X116890000Y-87632210D01*
X116890000Y-89354991D01*
X116955623Y-89684894D01*
X117205596Y-90059005D01*
X117579707Y-90308978D01*
X118021000Y-90396757D01*
X118462294Y-90308978D01*
X118836405Y-90059005D01*
X119086378Y-89684894D01*
X119152000Y-89354991D01*
X119152000Y-87632210D01*
X119430000Y-87632210D01*
X119430000Y-89354991D01*
X119495623Y-89684894D01*
X119745596Y-90059005D01*
X120119707Y-90308978D01*
X120561000Y-90396757D01*
X121002294Y-90308978D01*
X121376405Y-90059005D01*
X121626378Y-89684894D01*
X121692000Y-89354991D01*
X121692000Y-87632210D01*
X121970000Y-87632210D01*
X121970000Y-89354991D01*
X122035623Y-89684894D01*
X122285596Y-90059005D01*
X122659707Y-90308978D01*
X123101000Y-90396757D01*
X123542294Y-90308978D01*
X123916405Y-90059005D01*
X124166378Y-89684894D01*
X124232000Y-89354991D01*
X124232000Y-87632210D01*
X124510000Y-87632210D01*
X124510000Y-89354991D01*
X124575623Y-89684894D01*
X124825596Y-90059005D01*
X125199707Y-90308978D01*
X125641000Y-90396757D01*
X126082294Y-90308978D01*
X126456405Y-90059005D01*
X126706378Y-89684894D01*
X126772000Y-89354991D01*
X126772000Y-87632210D01*
X127050000Y-87632210D01*
X127050000Y-89354991D01*
X127115623Y-89684894D01*
X127365596Y-90059005D01*
X127739707Y-90308978D01*
X128181000Y-90396757D01*
X128622294Y-90308978D01*
X128996405Y-90059005D01*
X129246378Y-89684894D01*
X129312000Y-89354991D01*
X129312000Y-87632209D01*
X129246378Y-87302306D01*
X128996405Y-86928195D01*
X128809309Y-86803182D01*
X129229792Y-86382700D01*
X130335077Y-86382700D01*
X130322661Y-86401282D01*
X130244360Y-86518469D01*
X130205087Y-86715900D01*
X130207226Y-86726652D01*
X129905595Y-86928195D01*
X129655622Y-87302307D01*
X129590000Y-87632210D01*
X129590000Y-89354991D01*
X129655623Y-89684894D01*
X129905596Y-90059005D01*
X130279707Y-90308978D01*
X130721000Y-90396757D01*
X131162294Y-90308978D01*
X131536405Y-90059005D01*
X131786378Y-89684894D01*
X131852000Y-89354991D01*
X131852000Y-87632209D01*
X131786378Y-87302306D01*
X131536405Y-86928195D01*
X131367894Y-86815600D01*
X132614105Y-86815600D01*
X132445595Y-86928195D01*
X132195622Y-87302307D01*
X132130000Y-87632210D01*
X132130000Y-89354991D01*
X132195623Y-89684894D01*
X132445596Y-90059005D01*
X132819707Y-90308978D01*
X133261000Y-90396757D01*
X133702294Y-90308978D01*
X134076405Y-90059005D01*
X134326378Y-89684894D01*
X134392000Y-89354991D01*
X134392000Y-87632209D01*
X134326378Y-87302306D01*
X134076405Y-86928195D01*
X133907894Y-86815600D01*
X135154105Y-86815600D01*
X134985595Y-86928195D01*
X134735622Y-87302307D01*
X134670000Y-87632210D01*
X134670000Y-89354991D01*
X134735623Y-89684894D01*
X134985596Y-90059005D01*
X135359707Y-90308978D01*
X135801000Y-90396757D01*
X136242294Y-90308978D01*
X136616405Y-90059005D01*
X136707501Y-89922671D01*
X136707501Y-90934207D01*
X134843445Y-92798263D01*
X134801195Y-92826494D01*
X134767661Y-92876682D01*
X134689360Y-92993869D01*
X134650087Y-93191300D01*
X134652226Y-93202052D01*
X134350596Y-93403595D01*
X134100623Y-93777706D01*
X134035000Y-94107609D01*
X134035000Y-95830390D01*
X134100622Y-96160293D01*
X134350595Y-96534405D01*
X134724706Y-96784378D01*
X135166000Y-96872157D01*
X135607293Y-96784378D01*
X135981405Y-96534405D01*
X136231378Y-96160294D01*
X136297000Y-95830391D01*
X136297000Y-94107609D01*
X136231378Y-93777706D01*
X135981405Y-93403595D01*
X135794309Y-93278582D01*
X137536055Y-91536837D01*
X137578306Y-91508606D01*
X137690141Y-91341231D01*
X137719500Y-91193635D01*
X137729413Y-91143801D01*
X137719500Y-91093967D01*
X137719500Y-90188568D01*
X137827226Y-90260548D01*
X137825087Y-90271300D01*
X137837260Y-90332494D01*
X137864360Y-90468731D01*
X137976195Y-90636106D01*
X138018445Y-90664336D01*
X138261000Y-90906892D01*
X138261001Y-93229598D01*
X138147294Y-93153622D01*
X137706000Y-93065843D01*
X137264707Y-93153622D01*
X136890596Y-93403595D01*
X136640623Y-93777706D01*
X136575000Y-94107609D01*
X136575000Y-95830390D01*
X136640622Y-96160293D01*
X136890595Y-96534405D01*
X137264706Y-96784378D01*
X137706000Y-96872157D01*
X138147293Y-96784378D01*
X138521405Y-96534405D01*
X138654709Y-96334901D01*
X139389063Y-97069255D01*
X139417294Y-97111506D01*
X139584669Y-97223341D01*
X139680987Y-97242500D01*
X134402033Y-97242500D01*
X134352199Y-97232587D01*
X134302365Y-97242500D01*
X134154769Y-97271859D01*
X133987394Y-97383694D01*
X133959163Y-97425945D01*
X129364948Y-102020161D01*
X129322694Y-102048394D01*
X129210859Y-102215770D01*
X129189986Y-102320705D01*
X129171587Y-102413200D01*
X129176451Y-102437653D01*
X128996405Y-102168195D01*
X128687000Y-101961458D01*
X128687000Y-101401291D01*
X132948555Y-97139737D01*
X132990806Y-97111506D01*
X133102641Y-96944131D01*
X133132000Y-96796535D01*
X133141913Y-96746701D01*
X133139774Y-96735948D01*
X133441405Y-96534405D01*
X133691378Y-96160294D01*
X133757000Y-95830391D01*
X133757000Y-94107609D01*
X133691378Y-93777706D01*
X133441405Y-93403595D01*
X133067294Y-93153622D01*
X132626000Y-93065843D01*
X132184707Y-93153622D01*
X131810596Y-93403595D01*
X131560623Y-93777706D01*
X131495000Y-94107609D01*
X131495000Y-95830390D01*
X131560622Y-96160293D01*
X131810595Y-96534405D01*
X131997690Y-96659418D01*
X127858446Y-100798663D01*
X127816195Y-100826894D01*
X127776206Y-100886743D01*
X127704360Y-100994269D01*
X127665087Y-101191700D01*
X127675001Y-101241539D01*
X127675001Y-101961457D01*
X127365595Y-102168195D01*
X127115622Y-102542307D01*
X127050000Y-102872210D01*
X127050000Y-104594991D01*
X127115623Y-104924894D01*
X127365596Y-105299005D01*
X127739707Y-105548978D01*
X128181000Y-105636757D01*
X128622294Y-105548978D01*
X128996405Y-105299005D01*
X129181501Y-105021990D01*
X129181501Y-105612161D01*
X129171587Y-105662000D01*
X129205773Y-105833858D01*
X129210860Y-105859431D01*
X129322695Y-106026806D01*
X129364945Y-106055036D01*
X130707500Y-107397592D01*
X130707500Y-108264032D01*
X130527293Y-108143622D01*
X130086000Y-108055843D01*
X129644706Y-108143622D01*
X129270595Y-108393595D01*
X129020622Y-108767707D01*
X128955000Y-109097610D01*
X128955000Y-110820391D01*
X129020623Y-111150294D01*
X129270596Y-111524405D01*
X129474179Y-111660435D01*
X129445960Y-111702669D01*
X129406687Y-111900100D01*
X129416601Y-111949939D01*
X129416600Y-119437766D01*
X129406687Y-119487600D01*
X129416600Y-119537434D01*
X129445959Y-119685030D01*
X129557794Y-119852406D01*
X129600047Y-119880639D01*
X130297599Y-120578191D01*
X130052412Y-120823378D01*
X129866800Y-121271486D01*
X129866800Y-121756514D01*
X130052412Y-122204622D01*
X130395378Y-122547588D01*
X130843486Y-122733200D01*
X131328514Y-122733200D01*
X131776622Y-122547588D01*
X132119588Y-122204622D01*
X132305200Y-121756514D01*
X132305200Y-121271486D01*
X132228727Y-121086864D01*
X132565592Y-120750000D01*
X132665790Y-120750000D01*
X132592412Y-120823378D01*
X132406800Y-121271486D01*
X132406800Y-121756514D01*
X132592412Y-122204622D01*
X132935378Y-122547588D01*
X133383486Y-122733200D01*
X133868514Y-122733200D01*
X134316622Y-122547588D01*
X134659588Y-122204622D01*
X134736061Y-122020000D01*
X138125766Y-122020000D01*
X138175600Y-122029913D01*
X138225434Y-122020000D01*
X138225435Y-122020000D01*
X138373031Y-121990641D01*
X138540406Y-121878806D01*
X138568639Y-121836552D01*
X142538792Y-117866400D01*
X151841108Y-117866400D01*
X148813446Y-120894063D01*
X148771195Y-120922294D01*
X148671273Y-121071840D01*
X148659360Y-121089669D01*
X148620087Y-121287100D01*
X148627222Y-121322970D01*
X148421817Y-121460217D01*
X148202875Y-121787888D01*
X148145400Y-122076835D01*
X148145401Y-123491166D01*
X148202876Y-123780113D01*
X148421818Y-124107783D01*
X148749488Y-124326725D01*
X149136000Y-124403607D01*
X149522513Y-124326725D01*
X149850183Y-124107783D01*
X150069125Y-123780113D01*
X150126600Y-123491166D01*
X150126600Y-122076834D01*
X150069125Y-121787887D01*
X149850183Y-121460217D01*
X149747251Y-121391440D01*
X152727292Y-118411400D01*
X160410933Y-118411400D01*
X160293275Y-118587487D01*
X160216393Y-118974000D01*
X160293275Y-119360513D01*
X160381466Y-119492500D01*
X153014435Y-119492500D01*
X152964600Y-119482587D01*
X152914765Y-119492500D01*
X152767169Y-119521859D01*
X152599794Y-119633694D01*
X152571563Y-119675945D01*
X151353445Y-120894064D01*
X151311195Y-120922294D01*
X151211273Y-121071840D01*
X151199360Y-121089669D01*
X151160087Y-121287100D01*
X151167222Y-121322970D01*
X150961817Y-121460217D01*
X150742875Y-121787888D01*
X150685400Y-122076835D01*
X150685401Y-123491166D01*
X150742876Y-123780113D01*
X150961818Y-124107783D01*
X151289488Y-124326725D01*
X151676000Y-124403607D01*
X152062513Y-124326725D01*
X152390183Y-124107783D01*
X152609125Y-123780113D01*
X152666600Y-123491166D01*
X152666600Y-122076834D01*
X152609125Y-121787887D01*
X152390183Y-121460217D01*
X152287251Y-121391440D01*
X153174192Y-120504500D01*
X154283008Y-120504500D01*
X153893445Y-120894064D01*
X153851195Y-120922294D01*
X153751273Y-121071840D01*
X153739360Y-121089669D01*
X153700087Y-121287100D01*
X153707222Y-121322970D01*
X153501817Y-121460217D01*
X153282875Y-121787888D01*
X153225400Y-122076835D01*
X153225401Y-123491166D01*
X153282876Y-123780113D01*
X153501818Y-124107783D01*
X153829488Y-124326725D01*
X154216000Y-124403607D01*
X154602513Y-124326725D01*
X154930183Y-124107783D01*
X155080552Y-123882739D01*
X165658626Y-123882739D01*
X165688800Y-124376952D01*
X165819877Y-124693400D01*
X166046298Y-124744097D01*
X166736395Y-124054000D01*
X167095605Y-124054000D01*
X167785702Y-124744097D01*
X168012123Y-124693400D01*
X168173374Y-124225261D01*
X168143200Y-123731048D01*
X168012123Y-123414600D01*
X167785702Y-123363903D01*
X167095605Y-124054000D01*
X166736395Y-124054000D01*
X166046298Y-123363903D01*
X165819877Y-123414600D01*
X165658626Y-123882739D01*
X155080552Y-123882739D01*
X155149125Y-123780113D01*
X155206600Y-123491166D01*
X155206600Y-123184298D01*
X166225903Y-123184298D01*
X166916000Y-123874395D01*
X167606097Y-123184298D01*
X167555400Y-122957877D01*
X167087261Y-122796626D01*
X166593048Y-122826800D01*
X166276600Y-122957877D01*
X166225903Y-123184298D01*
X155206600Y-123184298D01*
X155206600Y-122076834D01*
X155149125Y-121787887D01*
X154930183Y-121460217D01*
X154827251Y-121391440D01*
X155117492Y-121101200D01*
X160310839Y-121101200D01*
X160293275Y-121127487D01*
X160216393Y-121514000D01*
X160293275Y-121900513D01*
X160512217Y-122228183D01*
X160839887Y-122447125D01*
X161128834Y-122504600D01*
X162543166Y-122504600D01*
X162832113Y-122447125D01*
X163159783Y-122228183D01*
X163298886Y-122020000D01*
X167976409Y-122020000D01*
X169758236Y-123801827D01*
X169735400Y-123856957D01*
X169735400Y-124251043D01*
X169886210Y-124615130D01*
X170164870Y-124893790D01*
X170528957Y-125044600D01*
X170923043Y-125044600D01*
X171214916Y-124923702D01*
X173845903Y-124923702D01*
X173896600Y-125150123D01*
X174364739Y-125311374D01*
X174858952Y-125281200D01*
X175175400Y-125150123D01*
X175226097Y-124923702D01*
X177655903Y-124923702D01*
X177706600Y-125150123D01*
X178174739Y-125311374D01*
X178668952Y-125281200D01*
X178985400Y-125150123D01*
X179036097Y-124923702D01*
X181465903Y-124923702D01*
X181516600Y-125150123D01*
X181984739Y-125311374D01*
X182478952Y-125281200D01*
X182795400Y-125150123D01*
X182846097Y-124923702D01*
X182156000Y-124233605D01*
X181465903Y-124923702D01*
X179036097Y-124923702D01*
X178346000Y-124233605D01*
X177655903Y-124923702D01*
X175226097Y-124923702D01*
X174536000Y-124233605D01*
X173845903Y-124923702D01*
X171214916Y-124923702D01*
X171287130Y-124893790D01*
X171565790Y-124615130D01*
X171716600Y-124251043D01*
X171716600Y-123882739D01*
X173278626Y-123882739D01*
X173308800Y-124376952D01*
X173439877Y-124693400D01*
X173666298Y-124744097D01*
X174356395Y-124054000D01*
X174715605Y-124054000D01*
X175405702Y-124744097D01*
X175632123Y-124693400D01*
X175793374Y-124225261D01*
X175772462Y-123882739D01*
X177088626Y-123882739D01*
X177118800Y-124376952D01*
X177249877Y-124693400D01*
X177476298Y-124744097D01*
X178166395Y-124054000D01*
X178525605Y-124054000D01*
X179215702Y-124744097D01*
X179442123Y-124693400D01*
X179603374Y-124225261D01*
X179582462Y-123882739D01*
X180898626Y-123882739D01*
X180928800Y-124376952D01*
X181059877Y-124693400D01*
X181286298Y-124744097D01*
X181976395Y-124054000D01*
X182335605Y-124054000D01*
X183025702Y-124744097D01*
X183252123Y-124693400D01*
X183413374Y-124225261D01*
X183383200Y-123731048D01*
X183252123Y-123414600D01*
X183025702Y-123363903D01*
X182335605Y-124054000D01*
X181976395Y-124054000D01*
X181286298Y-123363903D01*
X181059877Y-123414600D01*
X180898626Y-123882739D01*
X179582462Y-123882739D01*
X179573200Y-123731048D01*
X179442123Y-123414600D01*
X179215702Y-123363903D01*
X178525605Y-124054000D01*
X178166395Y-124054000D01*
X177476298Y-123363903D01*
X177249877Y-123414600D01*
X177088626Y-123882739D01*
X175772462Y-123882739D01*
X175763200Y-123731048D01*
X175632123Y-123414600D01*
X175405702Y-123363903D01*
X174715605Y-124054000D01*
X174356395Y-124054000D01*
X173666298Y-123363903D01*
X173439877Y-123414600D01*
X173278626Y-123882739D01*
X171716600Y-123882739D01*
X171716600Y-123856957D01*
X171565790Y-123492870D01*
X171287130Y-123214210D01*
X171214917Y-123184298D01*
X173845903Y-123184298D01*
X174536000Y-123874395D01*
X175226097Y-123184298D01*
X177655903Y-123184298D01*
X178346000Y-123874395D01*
X179036097Y-123184298D01*
X181465903Y-123184298D01*
X182156000Y-123874395D01*
X182846097Y-123184298D01*
X182795400Y-122957877D01*
X182327261Y-122796626D01*
X181833048Y-122826800D01*
X181516600Y-122957877D01*
X181465903Y-123184298D01*
X179036097Y-123184298D01*
X178985400Y-122957877D01*
X178517261Y-122796626D01*
X178023048Y-122826800D01*
X177706600Y-122957877D01*
X177655903Y-123184298D01*
X175226097Y-123184298D01*
X175175400Y-122957877D01*
X174707261Y-122796626D01*
X174213048Y-122826800D01*
X173896600Y-122957877D01*
X173845903Y-123184298D01*
X171214917Y-123184298D01*
X170923043Y-123063400D01*
X170528957Y-123063400D01*
X170473827Y-123086236D01*
X168579039Y-121191448D01*
X168550806Y-121149194D01*
X168478977Y-121101200D01*
X175404966Y-121101200D01*
X175454800Y-121111113D01*
X175504634Y-121101200D01*
X175504635Y-121101200D01*
X175652231Y-121071841D01*
X175819606Y-120960006D01*
X175847839Y-120917752D01*
X181903827Y-114861765D01*
X181958957Y-114884600D01*
X182353043Y-114884600D01*
X182717130Y-114733790D01*
X182995790Y-114455130D01*
X183146600Y-114091043D01*
X183146600Y-113696957D01*
X182995790Y-113332870D01*
X182717130Y-113054210D01*
X182353043Y-112903400D01*
X181958957Y-112903400D01*
X181594870Y-113054210D01*
X181316210Y-113332870D01*
X181165400Y-113696957D01*
X181165400Y-114091043D01*
X181188235Y-114146173D01*
X175245209Y-120089200D01*
X172866391Y-120089200D01*
X178093827Y-114861765D01*
X178148957Y-114884600D01*
X178543043Y-114884600D01*
X178907130Y-114733790D01*
X179185790Y-114455130D01*
X179336600Y-114091043D01*
X179336600Y-113696957D01*
X179185790Y-113332870D01*
X178907130Y-113054210D01*
X178543043Y-112903400D01*
X178148957Y-112903400D01*
X177784870Y-113054210D01*
X177506210Y-113332870D01*
X177355400Y-113696957D01*
X177355400Y-114091043D01*
X177378235Y-114146173D01*
X172031909Y-119492500D01*
X163290534Y-119492500D01*
X163378725Y-119360513D01*
X163455607Y-118974000D01*
X163378725Y-118587487D01*
X163261067Y-118411400D01*
X170474766Y-118411400D01*
X170524600Y-118421313D01*
X170574434Y-118411400D01*
X170574435Y-118411400D01*
X170722031Y-118382041D01*
X170889406Y-118270206D01*
X170917639Y-118227952D01*
X174283827Y-114861765D01*
X174338957Y-114884600D01*
X174733043Y-114884600D01*
X175097130Y-114733790D01*
X175375790Y-114455130D01*
X175526600Y-114091043D01*
X175526600Y-113696957D01*
X175375790Y-113332870D01*
X175097130Y-113054210D01*
X174780171Y-112922921D01*
X175460392Y-112242700D01*
X178296165Y-112242700D01*
X178346000Y-112252613D01*
X178395835Y-112242700D01*
X178543431Y-112213341D01*
X178710806Y-112101506D01*
X178822641Y-111934131D01*
X178861913Y-111736700D01*
X178859774Y-111725948D01*
X179161405Y-111524405D01*
X179411378Y-111150294D01*
X179477000Y-110820391D01*
X179477000Y-109097609D01*
X179411378Y-108767706D01*
X179161405Y-108393595D01*
X178787293Y-108143622D01*
X178346000Y-108055843D01*
X177904706Y-108143622D01*
X177530595Y-108393595D01*
X177280622Y-108767707D01*
X177215000Y-109097610D01*
X177215000Y-110820391D01*
X177280623Y-111150294D01*
X177334349Y-111230700D01*
X176817652Y-111230700D01*
X176871378Y-111150294D01*
X176937000Y-110820391D01*
X176937000Y-109097609D01*
X176871378Y-108767706D01*
X176621405Y-108393595D01*
X176247293Y-108143622D01*
X175806000Y-108055843D01*
X175364706Y-108143622D01*
X174990595Y-108393595D01*
X174740622Y-108767707D01*
X174675000Y-109097610D01*
X174675000Y-110820391D01*
X174740623Y-111150294D01*
X174887859Y-111370648D01*
X174885994Y-111371894D01*
X174857763Y-111414145D01*
X169417509Y-116854400D01*
X163356082Y-116854400D01*
X163378725Y-116820513D01*
X163455607Y-116434000D01*
X163378725Y-116047487D01*
X163159783Y-115719817D01*
X162832113Y-115500875D01*
X162543166Y-115443400D01*
X161128834Y-115443400D01*
X160839887Y-115500875D01*
X160512217Y-115719817D01*
X160374970Y-115925222D01*
X160339099Y-115918087D01*
X160289265Y-115928000D01*
X160141669Y-115957359D01*
X159974294Y-116069194D01*
X159946061Y-116111448D01*
X159902509Y-116155000D01*
X155150142Y-116155000D01*
X155206600Y-115871166D01*
X155206600Y-114456834D01*
X155149125Y-114167887D01*
X154930183Y-113840217D01*
X154715779Y-113696957D01*
X165925400Y-113696957D01*
X165925400Y-114091043D01*
X166076210Y-114455130D01*
X166354870Y-114733790D01*
X166718957Y-114884600D01*
X167113043Y-114884600D01*
X167477130Y-114733790D01*
X167755790Y-114455130D01*
X167906600Y-114091043D01*
X167906600Y-113696957D01*
X169735400Y-113696957D01*
X169735400Y-114091043D01*
X169886210Y-114455130D01*
X170164870Y-114733790D01*
X170528957Y-114884600D01*
X170923043Y-114884600D01*
X171287130Y-114733790D01*
X171565790Y-114455130D01*
X171716600Y-114091043D01*
X171716600Y-113696957D01*
X171565790Y-113332870D01*
X171287130Y-113054210D01*
X170923043Y-112903400D01*
X170528957Y-112903400D01*
X170164870Y-113054210D01*
X169886210Y-113332870D01*
X169735400Y-113696957D01*
X167906600Y-113696957D01*
X167755790Y-113332870D01*
X167477130Y-113054210D01*
X167113043Y-112903400D01*
X166718957Y-112903400D01*
X166354870Y-113054210D01*
X166076210Y-113332870D01*
X165925400Y-113696957D01*
X154715779Y-113696957D01*
X154602512Y-113621275D01*
X154216000Y-113544393D01*
X153829487Y-113621275D01*
X153501817Y-113840217D01*
X153282875Y-114167888D01*
X153259839Y-114283700D01*
X152632162Y-114283700D01*
X152609125Y-114167887D01*
X152390183Y-113840217D01*
X152062512Y-113621275D01*
X151676000Y-113544393D01*
X151546286Y-113570195D01*
X151320638Y-113344547D01*
X151292406Y-113302294D01*
X151125031Y-113190459D01*
X150977435Y-113161100D01*
X150977434Y-113161100D01*
X150927600Y-113151187D01*
X150877766Y-113161100D01*
X149185835Y-113161100D01*
X149136000Y-113151187D01*
X149086165Y-113161100D01*
X148938569Y-113190459D01*
X148771194Y-113302294D01*
X148659359Y-113469669D01*
X148620087Y-113667100D01*
X148627222Y-113702970D01*
X148421817Y-113840217D01*
X148202875Y-114167888D01*
X148145400Y-114456835D01*
X148145401Y-115871166D01*
X148201859Y-116155000D01*
X139552591Y-116155000D01*
X144378555Y-111329037D01*
X144379592Y-111328344D01*
X144510596Y-111524405D01*
X144884707Y-111774378D01*
X145326000Y-111862157D01*
X145767294Y-111774378D01*
X146141405Y-111524405D01*
X146391378Y-111150294D01*
X146457000Y-110820391D01*
X146457000Y-109543592D01*
X146735000Y-109265592D01*
X146735000Y-110820391D01*
X146800623Y-111150294D01*
X147050596Y-111524405D01*
X147424707Y-111774378D01*
X147866000Y-111862157D01*
X148307294Y-111774378D01*
X148681405Y-111524405D01*
X148931378Y-111150294D01*
X148997000Y-110820391D01*
X148997000Y-109097609D01*
X148931378Y-108767706D01*
X148681405Y-108393595D01*
X148494309Y-108268582D01*
X148514592Y-108248300D01*
X149808044Y-108248300D01*
X149590595Y-108393595D01*
X149340622Y-108767707D01*
X149275000Y-109097610D01*
X149275000Y-110820391D01*
X149340623Y-111150294D01*
X149590596Y-111524405D01*
X149964707Y-111774378D01*
X150406000Y-111862157D01*
X150847294Y-111774378D01*
X151221405Y-111524405D01*
X151471378Y-111150294D01*
X151537000Y-110820391D01*
X151537000Y-109097609D01*
X151471378Y-108767706D01*
X151417652Y-108687300D01*
X151934348Y-108687300D01*
X151880622Y-108767707D01*
X151815000Y-109097610D01*
X151815000Y-110820391D01*
X151880623Y-111150294D01*
X152130596Y-111524405D01*
X152504707Y-111774378D01*
X152946000Y-111862157D01*
X153387294Y-111774378D01*
X153761405Y-111524405D01*
X154011378Y-111150294D01*
X154077000Y-110820391D01*
X154077000Y-109097609D01*
X154011378Y-108767706D01*
X153957652Y-108687300D01*
X154474348Y-108687300D01*
X154420622Y-108767707D01*
X154355000Y-109097610D01*
X154355000Y-110820391D01*
X154420623Y-111150294D01*
X154670596Y-111524405D01*
X155044707Y-111774378D01*
X155486000Y-111862157D01*
X155927294Y-111774378D01*
X156301405Y-111524405D01*
X156551378Y-111150294D01*
X156617000Y-110820391D01*
X156617000Y-109097609D01*
X156551378Y-108767706D01*
X156497652Y-108687300D01*
X157014348Y-108687300D01*
X156960622Y-108767707D01*
X156895000Y-109097610D01*
X156895000Y-110820391D01*
X156960623Y-111150294D01*
X157210596Y-111524405D01*
X157584707Y-111774378D01*
X158026000Y-111862157D01*
X158467294Y-111774378D01*
X158841405Y-111524405D01*
X159091378Y-111150294D01*
X159157000Y-110820391D01*
X159157000Y-109097609D01*
X159091378Y-108767706D01*
X159037652Y-108687300D01*
X159554348Y-108687300D01*
X159500622Y-108767707D01*
X159435000Y-109097610D01*
X159435000Y-110820391D01*
X159500623Y-111150294D01*
X159750596Y-111524405D01*
X160124707Y-111774378D01*
X160566000Y-111862157D01*
X161007294Y-111774378D01*
X161381405Y-111524405D01*
X161631378Y-111150294D01*
X161697000Y-110820391D01*
X161697000Y-109097609D01*
X161631378Y-108767706D01*
X161577652Y-108687300D01*
X162094348Y-108687300D01*
X162040622Y-108767707D01*
X161975000Y-109097610D01*
X161975000Y-110820391D01*
X162040623Y-111150294D01*
X162290596Y-111524405D01*
X162664707Y-111774378D01*
X163106000Y-111862157D01*
X163547294Y-111774378D01*
X163921405Y-111524405D01*
X164171378Y-111150294D01*
X164237000Y-110820391D01*
X164237000Y-109097610D01*
X164515000Y-109097610D01*
X164515000Y-110820391D01*
X164580623Y-111150294D01*
X164830596Y-111524405D01*
X165204707Y-111774378D01*
X165646000Y-111862157D01*
X166087294Y-111774378D01*
X166461405Y-111524405D01*
X166711378Y-111150294D01*
X166777000Y-110820391D01*
X166777000Y-109097610D01*
X167055000Y-109097610D01*
X167055000Y-110820391D01*
X167120623Y-111150294D01*
X167370596Y-111524405D01*
X167744707Y-111774378D01*
X168186000Y-111862157D01*
X168627294Y-111774378D01*
X169001405Y-111524405D01*
X169251378Y-111150294D01*
X169317000Y-110820391D01*
X169317000Y-109097609D01*
X169251378Y-108767706D01*
X169001405Y-108393595D01*
X168627293Y-108143622D01*
X168186000Y-108055843D01*
X167744706Y-108143622D01*
X167370595Y-108393595D01*
X167120622Y-108767707D01*
X167055000Y-109097610D01*
X166777000Y-109097610D01*
X166777000Y-109097609D01*
X166711378Y-108767706D01*
X166461405Y-108393595D01*
X166087293Y-108143622D01*
X165646000Y-108055843D01*
X165204706Y-108143622D01*
X164830595Y-108393595D01*
X164580622Y-108767707D01*
X164515000Y-109097610D01*
X164237000Y-109097610D01*
X164237000Y-109097609D01*
X164171378Y-108767706D01*
X163999558Y-108510559D01*
X164004039Y-108503852D01*
X166603555Y-105904337D01*
X166645806Y-105876106D01*
X166757641Y-105708731D01*
X166787000Y-105561135D01*
X166796913Y-105511301D01*
X166794774Y-105500548D01*
X167096405Y-105299005D01*
X167346378Y-104924894D01*
X167412000Y-104594991D01*
X167412000Y-102872209D01*
X167346378Y-102542306D01*
X167292652Y-102461900D01*
X167809348Y-102461900D01*
X167755622Y-102542307D01*
X167690000Y-102872210D01*
X167690000Y-104594991D01*
X167755623Y-104924894D01*
X168005596Y-105299005D01*
X168315001Y-105505743D01*
X168315001Y-106226461D01*
X168305087Y-106276300D01*
X168336300Y-106433213D01*
X168344360Y-106473731D01*
X168456195Y-106641106D01*
X168498445Y-106669337D01*
X170097690Y-108268582D01*
X169910595Y-108393595D01*
X169660622Y-108767707D01*
X169595000Y-109097610D01*
X169595000Y-110820391D01*
X169660623Y-111150294D01*
X169910596Y-111524405D01*
X170284707Y-111774378D01*
X170726000Y-111862157D01*
X171167294Y-111774378D01*
X171541405Y-111524405D01*
X171791378Y-111150294D01*
X171857000Y-110820391D01*
X171857000Y-109097609D01*
X171791378Y-108767706D01*
X171541405Y-108393595D01*
X171239774Y-108192052D01*
X171241913Y-108181300D01*
X171229780Y-108120306D01*
X171202641Y-107983869D01*
X171090806Y-107816494D01*
X171048555Y-107788263D01*
X169327000Y-106066709D01*
X169327000Y-105505743D01*
X169636405Y-105299005D01*
X169886378Y-104924894D01*
X169952000Y-104594991D01*
X169952000Y-103040191D01*
X170230000Y-103318192D01*
X170230000Y-104594991D01*
X170295623Y-104924894D01*
X170545596Y-105299005D01*
X170919707Y-105548978D01*
X171361000Y-105636757D01*
X171802294Y-105548978D01*
X172176405Y-105299005D01*
X172334201Y-105062847D01*
X172334200Y-107705666D01*
X172324287Y-107755500D01*
X172334200Y-107805334D01*
X172363559Y-107952930D01*
X172475394Y-108120306D01*
X172517647Y-108148538D01*
X172637690Y-108268582D01*
X172450595Y-108393595D01*
X172200622Y-108767707D01*
X172135000Y-109097610D01*
X172135000Y-110820391D01*
X172200623Y-111150294D01*
X172450596Y-111524405D01*
X172824707Y-111774378D01*
X173266000Y-111862157D01*
X173707294Y-111774378D01*
X174081405Y-111524405D01*
X174331378Y-111150294D01*
X174397000Y-110820391D01*
X174397000Y-109097609D01*
X174331378Y-108767706D01*
X174081405Y-108393595D01*
X173779774Y-108192052D01*
X173781913Y-108181299D01*
X173758751Y-108064858D01*
X173742641Y-107983869D01*
X173630806Y-107816494D01*
X173588555Y-107788263D01*
X173346200Y-107545909D01*
X173346200Y-105473135D01*
X173459707Y-105548978D01*
X173901000Y-105636757D01*
X174342294Y-105548978D01*
X174716405Y-105299005D01*
X174966378Y-104924894D01*
X175032000Y-104594991D01*
X175032000Y-102872209D01*
X174966378Y-102542306D01*
X174716405Y-102168195D01*
X174342293Y-101918222D01*
X173901000Y-101830443D01*
X173459706Y-101918222D01*
X173085595Y-102168195D01*
X172946804Y-102375911D01*
X172227392Y-101656500D01*
X175426009Y-101656500D01*
X175812690Y-102043182D01*
X175625595Y-102168195D01*
X175375622Y-102542307D01*
X175310000Y-102872210D01*
X175310000Y-104594991D01*
X175375623Y-104924894D01*
X175625596Y-105299005D01*
X175999707Y-105548978D01*
X176441000Y-105636757D01*
X176882294Y-105548978D01*
X177256405Y-105299005D01*
X177506378Y-104924894D01*
X177572000Y-104594991D01*
X177572000Y-102872209D01*
X177506378Y-102542306D01*
X177256405Y-102168195D01*
X176954774Y-101966652D01*
X176956913Y-101955900D01*
X176917641Y-101758468D01*
X176849508Y-101656500D01*
X176805806Y-101591094D01*
X176763555Y-101562863D01*
X176028638Y-100827947D01*
X176000406Y-100785694D01*
X175833031Y-100673859D01*
X175685435Y-100644500D01*
X175685434Y-100644500D01*
X175635600Y-100634587D01*
X175585766Y-100644500D01*
X175163791Y-100644500D01*
X178668555Y-97139737D01*
X178710806Y-97111506D01*
X178822641Y-96944131D01*
X178852000Y-96796535D01*
X178861913Y-96746701D01*
X178859774Y-96735948D01*
X179161405Y-96534405D01*
X179411378Y-96160294D01*
X179477000Y-95830391D01*
X179477000Y-94107609D01*
X179411378Y-93777706D01*
X179161405Y-93403595D01*
X178787293Y-93153622D01*
X178346000Y-93065843D01*
X177904706Y-93153622D01*
X177530595Y-93403595D01*
X177280622Y-93777707D01*
X177215000Y-94107610D01*
X177215000Y-95830391D01*
X177280623Y-96160294D01*
X177530596Y-96534405D01*
X177717691Y-96659418D01*
X174538009Y-99839100D01*
X173429191Y-99839100D01*
X176128555Y-97139737D01*
X176170806Y-97111506D01*
X176282641Y-96944131D01*
X176312000Y-96796535D01*
X176312000Y-96796534D01*
X176321913Y-96746700D01*
X176319774Y-96735948D01*
X176621405Y-96534405D01*
X176871378Y-96160294D01*
X176937000Y-95830391D01*
X176937000Y-94107609D01*
X176871378Y-93777706D01*
X176621405Y-93403595D01*
X176247294Y-93153622D01*
X175806000Y-93065843D01*
X175364707Y-93153622D01*
X174990596Y-93403595D01*
X174740623Y-93777706D01*
X174675000Y-94107609D01*
X174675000Y-95830390D01*
X174740622Y-96160293D01*
X174990595Y-96534405D01*
X175177690Y-96659418D01*
X172400809Y-99436300D01*
X171291991Y-99436300D01*
X173588555Y-97139737D01*
X173630806Y-97111506D01*
X173742641Y-96944131D01*
X173772000Y-96796535D01*
X173781913Y-96746701D01*
X173779774Y-96735948D01*
X174081405Y-96534405D01*
X174331378Y-96160294D01*
X174397000Y-95830391D01*
X174397000Y-94107609D01*
X174331378Y-93777706D01*
X174081405Y-93403595D01*
X173707294Y-93153622D01*
X173266000Y-93065843D01*
X172824707Y-93153622D01*
X172450596Y-93403595D01*
X172200623Y-93777706D01*
X172135000Y-94107609D01*
X172135000Y-95830390D01*
X172200622Y-96160293D01*
X172450595Y-96534405D01*
X172637690Y-96659418D01*
X170263509Y-99033600D01*
X169154691Y-99033600D01*
X171048555Y-97139737D01*
X171090806Y-97111506D01*
X171202641Y-96944131D01*
X171232000Y-96796535D01*
X171241913Y-96746701D01*
X171239774Y-96735948D01*
X171541405Y-96534405D01*
X171791378Y-96160294D01*
X171857000Y-95830391D01*
X171857000Y-94107609D01*
X171791378Y-93777706D01*
X171541405Y-93403595D01*
X171167294Y-93153622D01*
X170726000Y-93065843D01*
X170284707Y-93153622D01*
X169910596Y-93403595D01*
X169660623Y-93777706D01*
X169595000Y-94107609D01*
X169595000Y-95830390D01*
X169660622Y-96160293D01*
X169910595Y-96534405D01*
X170097690Y-96659418D01*
X168126209Y-98630900D01*
X167017391Y-98630900D01*
X168508555Y-97139737D01*
X168550806Y-97111506D01*
X168662641Y-96944131D01*
X168692000Y-96796535D01*
X168701913Y-96746701D01*
X168699774Y-96735948D01*
X169001405Y-96534405D01*
X169251378Y-96160294D01*
X169317000Y-95830391D01*
X169317000Y-94107609D01*
X169251378Y-93777706D01*
X169001405Y-93403595D01*
X168627294Y-93153622D01*
X168186000Y-93065843D01*
X167744707Y-93153622D01*
X167370596Y-93403595D01*
X167120623Y-93777706D01*
X167055000Y-94107609D01*
X167055000Y-95830390D01*
X167120622Y-96160293D01*
X167370595Y-96534405D01*
X167557690Y-96659418D01*
X165988909Y-98228200D01*
X164835592Y-98228200D01*
X165839711Y-97224081D01*
X165843431Y-97223341D01*
X166010806Y-97111506D01*
X166122641Y-96944131D01*
X166152000Y-96796535D01*
X166161913Y-96746700D01*
X166159774Y-96735948D01*
X166461405Y-96534405D01*
X166711378Y-96160294D01*
X166777000Y-95830391D01*
X166777000Y-94107609D01*
X166711378Y-93777706D01*
X166461405Y-93403595D01*
X166087294Y-93153622D01*
X165646000Y-93065843D01*
X165204707Y-93153622D01*
X164830596Y-93403595D01*
X164580623Y-93777706D01*
X164515000Y-94107609D01*
X164515000Y-95830390D01*
X164580622Y-96160293D01*
X164830595Y-96534405D01*
X164991014Y-96641594D01*
X163001609Y-98631000D01*
X161937291Y-98631000D01*
X163428555Y-97139737D01*
X163470806Y-97111506D01*
X163582641Y-96944131D01*
X163612000Y-96796535D01*
X163612000Y-96796534D01*
X163621913Y-96746700D01*
X163619774Y-96735948D01*
X163921405Y-96534405D01*
X164171378Y-96160294D01*
X164237000Y-95830391D01*
X164237000Y-94107609D01*
X164171378Y-93777706D01*
X163921405Y-93403595D01*
X163547294Y-93153622D01*
X163106000Y-93065843D01*
X162664707Y-93153622D01*
X162290596Y-93403595D01*
X162040623Y-93777706D01*
X161975000Y-94107609D01*
X161975000Y-95830390D01*
X162040622Y-96160293D01*
X162290595Y-96534405D01*
X162477690Y-96659418D01*
X160944409Y-98192700D01*
X159835592Y-98192700D01*
X160888559Y-97139734D01*
X160930806Y-97111506D01*
X160973792Y-97047173D01*
X161042641Y-96944131D01*
X161081913Y-96746700D01*
X161079774Y-96735948D01*
X161381405Y-96534405D01*
X161631378Y-96160294D01*
X161697000Y-95830391D01*
X161697000Y-94107609D01*
X161631378Y-93777706D01*
X161381405Y-93403595D01*
X161007294Y-93153622D01*
X160846294Y-93121597D01*
X163190592Y-90777300D01*
X166231165Y-90777300D01*
X166281000Y-90787213D01*
X166330835Y-90777300D01*
X166478431Y-90747941D01*
X166645806Y-90636106D01*
X166757641Y-90468731D01*
X166796913Y-90271300D01*
X166794774Y-90260548D01*
X167096405Y-90059005D01*
X167346378Y-89684894D01*
X167412000Y-89354991D01*
X167412000Y-87632210D01*
X167690000Y-87632210D01*
X167690000Y-89354991D01*
X167755623Y-89684894D01*
X168005596Y-90059005D01*
X168379707Y-90308978D01*
X168821000Y-90396757D01*
X169262294Y-90308978D01*
X169636405Y-90059005D01*
X169886378Y-89684894D01*
X169952000Y-89354991D01*
X169952000Y-87632210D01*
X170230000Y-87632210D01*
X170230000Y-89354991D01*
X170295623Y-89684894D01*
X170545596Y-90059005D01*
X170919707Y-90308978D01*
X171361000Y-90396757D01*
X171802294Y-90308978D01*
X172176405Y-90059005D01*
X172426378Y-89684894D01*
X172492000Y-89354991D01*
X172492000Y-87632210D01*
X172770000Y-87632210D01*
X172770000Y-89354991D01*
X172835623Y-89684894D01*
X173085596Y-90059005D01*
X173459707Y-90308978D01*
X173901000Y-90396757D01*
X174342294Y-90308978D01*
X174716405Y-90059005D01*
X174966378Y-89684894D01*
X175032000Y-89354991D01*
X175032000Y-88620600D01*
X175056000Y-88620600D01*
X175056000Y-89370600D01*
X175210028Y-89890949D01*
X175551460Y-90312745D01*
X176028316Y-90571773D01*
X176099815Y-90585918D01*
X176314000Y-90463256D01*
X176314000Y-88620600D01*
X176568000Y-88620600D01*
X176568000Y-90463256D01*
X176782185Y-90585918D01*
X176853684Y-90571773D01*
X177330540Y-90312745D01*
X177671972Y-89890949D01*
X177826000Y-89370600D01*
X177826000Y-88620600D01*
X176568000Y-88620600D01*
X176314000Y-88620600D01*
X175056000Y-88620600D01*
X175032000Y-88620600D01*
X175032000Y-87632209D01*
X175028896Y-87616600D01*
X175056000Y-87616600D01*
X175056000Y-88366600D01*
X176314000Y-88366600D01*
X176314000Y-86523944D01*
X176568000Y-86523944D01*
X176568000Y-88366600D01*
X177826000Y-88366600D01*
X177826000Y-87616600D01*
X177671972Y-87096251D01*
X177330540Y-86674455D01*
X176853684Y-86415427D01*
X176782185Y-86401282D01*
X176568000Y-86523944D01*
X176314000Y-86523944D01*
X176099815Y-86401282D01*
X176028316Y-86415427D01*
X175551460Y-86674455D01*
X175210028Y-87096251D01*
X175056000Y-87616600D01*
X175028896Y-87616600D01*
X174966378Y-87302306D01*
X174716405Y-86928195D01*
X174342293Y-86678222D01*
X173901000Y-86590443D01*
X173459706Y-86678222D01*
X173085595Y-86928195D01*
X172835622Y-87302307D01*
X172770000Y-87632210D01*
X172492000Y-87632210D01*
X172492000Y-87632209D01*
X172426378Y-87302306D01*
X172176405Y-86928195D01*
X171802293Y-86678222D01*
X171361000Y-86590443D01*
X170919706Y-86678222D01*
X170545595Y-86928195D01*
X170295622Y-87302307D01*
X170230000Y-87632210D01*
X169952000Y-87632210D01*
X169952000Y-87632209D01*
X169886378Y-87302306D01*
X169636405Y-86928195D01*
X169262293Y-86678222D01*
X168821000Y-86590443D01*
X168379706Y-86678222D01*
X168005595Y-86928195D01*
X167755622Y-87302307D01*
X167690000Y-87632210D01*
X167412000Y-87632210D01*
X167412000Y-87632209D01*
X167346378Y-87302306D01*
X167096405Y-86928195D01*
X166722293Y-86678222D01*
X166281000Y-86590443D01*
X165839706Y-86678222D01*
X165465595Y-86928195D01*
X165215622Y-87302307D01*
X165150000Y-87632210D01*
X165150000Y-89354991D01*
X165215623Y-89684894D01*
X165269349Y-89765300D01*
X164752652Y-89765300D01*
X164806378Y-89684894D01*
X164872000Y-89354991D01*
X164872000Y-87632209D01*
X164806378Y-87302306D01*
X164556405Y-86928195D01*
X164182293Y-86678222D01*
X163741000Y-86590443D01*
X163299706Y-86678222D01*
X162925595Y-86928195D01*
X162675622Y-87302307D01*
X162610000Y-87632210D01*
X162610000Y-89354991D01*
X162675623Y-89684894D01*
X162759646Y-89810644D01*
X162616194Y-89906494D01*
X162587963Y-89948745D01*
X158973448Y-93563261D01*
X158955917Y-93574975D01*
X158841405Y-93403595D01*
X158539774Y-93202052D01*
X158541913Y-93191299D01*
X158521376Y-93088057D01*
X158502641Y-92993869D01*
X158390806Y-92826494D01*
X158348555Y-92798263D01*
X155903855Y-90353564D01*
X156121000Y-90396757D01*
X156562294Y-90308978D01*
X156936405Y-90059005D01*
X157186378Y-89684894D01*
X157252000Y-89354991D01*
X157252000Y-87632210D01*
X157530000Y-87632210D01*
X157530000Y-89354991D01*
X157595623Y-89684894D01*
X157845596Y-90059005D01*
X158219707Y-90308978D01*
X158661000Y-90396757D01*
X159102294Y-90308978D01*
X159476405Y-90059005D01*
X159726378Y-89684894D01*
X159792000Y-89354991D01*
X159792000Y-87632210D01*
X160070000Y-87632210D01*
X160070000Y-89354991D01*
X160135623Y-89684894D01*
X160385596Y-90059005D01*
X160759707Y-90308978D01*
X161201000Y-90396757D01*
X161642294Y-90308978D01*
X162016405Y-90059005D01*
X162266378Y-89684894D01*
X162332000Y-89354991D01*
X162332000Y-87632209D01*
X162266378Y-87302306D01*
X162016405Y-86928195D01*
X161642293Y-86678222D01*
X161201000Y-86590443D01*
X160759706Y-86678222D01*
X160385595Y-86928195D01*
X160135622Y-87302307D01*
X160070000Y-87632210D01*
X159792000Y-87632210D01*
X159792000Y-87632209D01*
X159726378Y-87302306D01*
X159476405Y-86928195D01*
X159102293Y-86678222D01*
X158661000Y-86590443D01*
X158219706Y-86678222D01*
X157845595Y-86928195D01*
X157595622Y-87302307D01*
X157530000Y-87632210D01*
X157252000Y-87632210D01*
X157252000Y-87632209D01*
X157186378Y-87302306D01*
X156936405Y-86928195D01*
X156562293Y-86678222D01*
X156121000Y-86590443D01*
X155679706Y-86678222D01*
X155305595Y-86928195D01*
X155157478Y-87149868D01*
X155073306Y-87023894D01*
X155031056Y-86995664D01*
X153589539Y-85554147D01*
X153561306Y-85511894D01*
X153393931Y-85400059D01*
X153246335Y-85370700D01*
X153246334Y-85370700D01*
X153196500Y-85360787D01*
X153146666Y-85370700D01*
X129070033Y-85370700D01*
X129020199Y-85360787D01*
X128970365Y-85370700D01*
X128822769Y-85400059D01*
X128655394Y-85511894D01*
X128627163Y-85554145D01*
X127858445Y-86322864D01*
X127816195Y-86351094D01*
X127782661Y-86401282D01*
X127704360Y-86518469D01*
X127665087Y-86715900D01*
X127667226Y-86726652D01*
X127365595Y-86928195D01*
X127115622Y-87302307D01*
X127050000Y-87632210D01*
X126772000Y-87632210D01*
X126772000Y-87632209D01*
X126706378Y-87302306D01*
X126456405Y-86928195D01*
X126082293Y-86678222D01*
X125641000Y-86590443D01*
X125199706Y-86678222D01*
X124825595Y-86928195D01*
X124575622Y-87302307D01*
X124510000Y-87632210D01*
X124232000Y-87632210D01*
X124232000Y-87632209D01*
X124166378Y-87302306D01*
X123916405Y-86928195D01*
X123542293Y-86678222D01*
X123101000Y-86590443D01*
X122659706Y-86678222D01*
X122285595Y-86928195D01*
X122035622Y-87302307D01*
X121970000Y-87632210D01*
X121692000Y-87632210D01*
X121692000Y-87632209D01*
X121626378Y-87302306D01*
X121376405Y-86928195D01*
X121002293Y-86678222D01*
X120561000Y-86590443D01*
X120119706Y-86678222D01*
X119745595Y-86928195D01*
X119495622Y-87302307D01*
X119430000Y-87632210D01*
X119152000Y-87632210D01*
X119152000Y-87632209D01*
X119086378Y-87302306D01*
X118836405Y-86928195D01*
X118462293Y-86678222D01*
X118021000Y-86590443D01*
X117579706Y-86678222D01*
X117205595Y-86928195D01*
X116955622Y-87302307D01*
X116890000Y-87632210D01*
X107542400Y-87632210D01*
X107542400Y-84728893D01*
X107608572Y-84353610D01*
X107789011Y-84041084D01*
X108065453Y-83809121D01*
X108414109Y-83682220D01*
X108594932Y-83666400D01*
X188448107Y-83666400D01*
X188823390Y-83732572D01*
X188823390Y-83732572D01*
G37*
X188823390Y-83732572D02*
X189135916Y-83913011D01*
X189367879Y-84189453D01*
X189494780Y-84538109D01*
X189510600Y-84718932D01*
X189510601Y-125327999D01*
X189445564Y-125677205D01*
X189270384Y-125961401D01*
X189004639Y-126163477D01*
X188668850Y-126260716D01*
X188589433Y-126264600D01*
X128798995Y-126264600D01*
X128449795Y-126199564D01*
X128165599Y-126024384D01*
X127963523Y-125758639D01*
X127866284Y-125422850D01*
X127862400Y-125343433D01*
X127862400Y-124923702D01*
X166225903Y-124923702D01*
X166276600Y-125150123D01*
X166744739Y-125311374D01*
X167238952Y-125281200D01*
X167555400Y-125150123D01*
X167606097Y-124923702D01*
X166916000Y-124233605D01*
X166225903Y-124923702D01*
X127862400Y-124923702D01*
X127862400Y-109959603D01*
X127861309Y-109954116D01*
X127856674Y-109859355D01*
X127855675Y-109855146D01*
X127856097Y-109850842D01*
X127847971Y-109807211D01*
X127731549Y-109405176D01*
X127722691Y-109387564D01*
X127717422Y-109368564D01*
X127694134Y-109330784D01*
X127616848Y-109229148D01*
X127614677Y-108886455D01*
X127604702Y-108837917D01*
X127576912Y-108796890D01*
X127535536Y-108769622D01*
X127487329Y-108760260D01*
X127086578Y-108761369D01*
X127022799Y-108722055D01*
X127004403Y-108714956D01*
X126987740Y-108704423D01*
X126945115Y-108692079D01*
X126945112Y-108692078D01*
X126945111Y-108692078D01*
X126534999Y-108615698D01*
X126514397Y-108611600D01*
X108478995Y-108611600D01*
X108129795Y-108546564D01*
X107845599Y-108371384D01*
X107643523Y-108105639D01*
X107546284Y-107769850D01*
X107542400Y-107690433D01*
X107542400Y-102872210D01*
X116890000Y-102872210D01*
X116890000Y-104594991D01*
X116955623Y-104924894D01*
X117205596Y-105299005D01*
X117579707Y-105548978D01*
X118021000Y-105636757D01*
X118462294Y-105548978D01*
X118836405Y-105299005D01*
X119086378Y-104924894D01*
X119152000Y-104594991D01*
X119152000Y-102872210D01*
X119430000Y-102872210D01*
X119430000Y-104594991D01*
X119495623Y-104924894D01*
X119745596Y-105299005D01*
X120119707Y-105548978D01*
X120561000Y-105636757D01*
X121002294Y-105548978D01*
X121376405Y-105299005D01*
X121626378Y-104924894D01*
X121692000Y-104594991D01*
X121692000Y-102872210D01*
X121970000Y-102872210D01*
X121970000Y-104594991D01*
X122035623Y-104924894D01*
X122285596Y-105299005D01*
X122659707Y-105548978D01*
X123101000Y-105636757D01*
X123542294Y-105548978D01*
X123916405Y-105299005D01*
X124166378Y-104924894D01*
X124232000Y-104594991D01*
X124232000Y-102872210D01*
X124510000Y-102872210D01*
X124510000Y-104594991D01*
X124575623Y-104924894D01*
X124825596Y-105299005D01*
X125199707Y-105548978D01*
X125641000Y-105636757D01*
X126082294Y-105548978D01*
X126456405Y-105299005D01*
X126706378Y-104924894D01*
X126772000Y-104594991D01*
X126772000Y-102872209D01*
X126706378Y-102542306D01*
X126456405Y-102168195D01*
X126082293Y-101918222D01*
X125641000Y-101830443D01*
X125199706Y-101918222D01*
X124825595Y-102168195D01*
X124575622Y-102542307D01*
X124510000Y-102872210D01*
X124232000Y-102872210D01*
X124232000Y-102872209D01*
X124166378Y-102542306D01*
X123916405Y-102168195D01*
X123542293Y-101918222D01*
X123101000Y-101830443D01*
X122659706Y-101918222D01*
X122285595Y-102168195D01*
X122035622Y-102542307D01*
X121970000Y-102872210D01*
X121692000Y-102872210D01*
X121692000Y-102872209D01*
X121626378Y-102542306D01*
X121376405Y-102168195D01*
X121002293Y-101918222D01*
X120561000Y-101830443D01*
X120119706Y-101918222D01*
X119745595Y-102168195D01*
X119495622Y-102542307D01*
X119430000Y-102872210D01*
X119152000Y-102872210D01*
X119152000Y-102872209D01*
X119086378Y-102542306D01*
X118836405Y-102168195D01*
X118462293Y-101918222D01*
X118021000Y-101830443D01*
X117579706Y-101918222D01*
X117205595Y-102168195D01*
X116955622Y-102542307D01*
X116890000Y-102872210D01*
X107542400Y-102872210D01*
X107542400Y-95096000D01*
X128701000Y-95096000D01*
X128701000Y-95846000D01*
X128855028Y-96366349D01*
X129196460Y-96788145D01*
X129673316Y-97047173D01*
X129744815Y-97061318D01*
X129959000Y-96938656D01*
X129959000Y-95096000D01*
X130213000Y-95096000D01*
X130213000Y-96938656D01*
X130427185Y-97061318D01*
X130498684Y-97047173D01*
X130975540Y-96788145D01*
X131316972Y-96366349D01*
X131471000Y-95846000D01*
X131471000Y-95096000D01*
X130213000Y-95096000D01*
X129959000Y-95096000D01*
X128701000Y-95096000D01*
X107542400Y-95096000D01*
X107542400Y-94092000D01*
X128701000Y-94092000D01*
X128701000Y-94842000D01*
X129959000Y-94842000D01*
X129959000Y-92999344D01*
X130213000Y-92999344D01*
X130213000Y-94842000D01*
X131471000Y-94842000D01*
X131471000Y-94092000D01*
X131316972Y-93571651D01*
X130975540Y-93149855D01*
X130498684Y-92890827D01*
X130427185Y-92876682D01*
X130213000Y-92999344D01*
X129959000Y-92999344D01*
X129744815Y-92876682D01*
X129673316Y-92890827D01*
X129196460Y-93149855D01*
X128855028Y-93571651D01*
X128701000Y-94092000D01*
X107542400Y-94092000D01*
X107542400Y-87632210D01*
X116890000Y-87632210D01*
X116890000Y-89354991D01*
X116955623Y-89684894D01*
X117205596Y-90059005D01*
X117579707Y-90308978D01*
X118021000Y-90396757D01*
X118462294Y-90308978D01*
X118836405Y-90059005D01*
X119086378Y-89684894D01*
X119152000Y-89354991D01*
X119152000Y-87632210D01*
X119430000Y-87632210D01*
X119430000Y-89354991D01*
X119495623Y-89684894D01*
X119745596Y-90059005D01*
X120119707Y-90308978D01*
X120561000Y-90396757D01*
X121002294Y-90308978D01*
X121376405Y-90059005D01*
X121626378Y-89684894D01*
X121692000Y-89354991D01*
X121692000Y-87632210D01*
X121970000Y-87632210D01*
X121970000Y-89354991D01*
X122035623Y-89684894D01*
X122285596Y-90059005D01*
X122659707Y-90308978D01*
X123101000Y-90396757D01*
X123542294Y-90308978D01*
X123916405Y-90059005D01*
X124166378Y-89684894D01*
X124232000Y-89354991D01*
X124232000Y-87632210D01*
X124510000Y-87632210D01*
X124510000Y-89354991D01*
X124575623Y-89684894D01*
X124825596Y-90059005D01*
X125199707Y-90308978D01*
X125641000Y-90396757D01*
X126082294Y-90308978D01*
X126456405Y-90059005D01*
X126706378Y-89684894D01*
X126772000Y-89354991D01*
X126772000Y-87632210D01*
X127050000Y-87632210D01*
X127050000Y-89354991D01*
X127115623Y-89684894D01*
X127365596Y-90059005D01*
X127739707Y-90308978D01*
X128181000Y-90396757D01*
X128622294Y-90308978D01*
X128996405Y-90059005D01*
X129246378Y-89684894D01*
X129312000Y-89354991D01*
X129312000Y-87632209D01*
X129246378Y-87302306D01*
X128996405Y-86928195D01*
X128809309Y-86803182D01*
X129229792Y-86382700D01*
X130335077Y-86382700D01*
X130322661Y-86401282D01*
X130244360Y-86518469D01*
X130205087Y-86715900D01*
X130207226Y-86726652D01*
X129905595Y-86928195D01*
X129655622Y-87302307D01*
X129590000Y-87632210D01*
X129590000Y-89354991D01*
X129655623Y-89684894D01*
X129905596Y-90059005D01*
X130279707Y-90308978D01*
X130721000Y-90396757D01*
X131162294Y-90308978D01*
X131536405Y-90059005D01*
X131786378Y-89684894D01*
X131852000Y-89354991D01*
X131852000Y-87632209D01*
X131786378Y-87302306D01*
X131536405Y-86928195D01*
X131367894Y-86815600D01*
X132614105Y-86815600D01*
X132445595Y-86928195D01*
X132195622Y-87302307D01*
X132130000Y-87632210D01*
X132130000Y-89354991D01*
X132195623Y-89684894D01*
X132445596Y-90059005D01*
X132819707Y-90308978D01*
X133261000Y-90396757D01*
X133702294Y-90308978D01*
X134076405Y-90059005D01*
X134326378Y-89684894D01*
X134392000Y-89354991D01*
X134392000Y-87632209D01*
X134326378Y-87302306D01*
X134076405Y-86928195D01*
X133907894Y-86815600D01*
X135154105Y-86815600D01*
X134985595Y-86928195D01*
X134735622Y-87302307D01*
X134670000Y-87632210D01*
X134670000Y-89354991D01*
X134735623Y-89684894D01*
X134985596Y-90059005D01*
X135359707Y-90308978D01*
X135801000Y-90396757D01*
X136242294Y-90308978D01*
X136616405Y-90059005D01*
X136707501Y-89922671D01*
X136707501Y-90934207D01*
X134843445Y-92798263D01*
X134801195Y-92826494D01*
X134767661Y-92876682D01*
X134689360Y-92993869D01*
X134650087Y-93191300D01*
X134652226Y-93202052D01*
X134350596Y-93403595D01*
X134100623Y-93777706D01*
X134035000Y-94107609D01*
X134035000Y-95830390D01*
X134100622Y-96160293D01*
X134350595Y-96534405D01*
X134724706Y-96784378D01*
X135166000Y-96872157D01*
X135607293Y-96784378D01*
X135981405Y-96534405D01*
X136231378Y-96160294D01*
X136297000Y-95830391D01*
X136297000Y-94107609D01*
X136231378Y-93777706D01*
X135981405Y-93403595D01*
X135794309Y-93278582D01*
X137536055Y-91536837D01*
X137578306Y-91508606D01*
X137690141Y-91341231D01*
X137719500Y-91193635D01*
X137729413Y-91143801D01*
X137719500Y-91093967D01*
X137719500Y-90188568D01*
X137827226Y-90260548D01*
X137825087Y-90271300D01*
X137837260Y-90332494D01*
X137864360Y-90468731D01*
X137976195Y-90636106D01*
X138018445Y-90664336D01*
X138261000Y-90906892D01*
X138261001Y-93229598D01*
X138147294Y-93153622D01*
X137706000Y-93065843D01*
X137264707Y-93153622D01*
X136890596Y-93403595D01*
X136640623Y-93777706D01*
X136575000Y-94107609D01*
X136575000Y-95830390D01*
X136640622Y-96160293D01*
X136890595Y-96534405D01*
X137264706Y-96784378D01*
X137706000Y-96872157D01*
X138147293Y-96784378D01*
X138521405Y-96534405D01*
X138654709Y-96334901D01*
X139389063Y-97069255D01*
X139417294Y-97111506D01*
X139584669Y-97223341D01*
X139680987Y-97242500D01*
X134402033Y-97242500D01*
X134352199Y-97232587D01*
X134302365Y-97242500D01*
X134154769Y-97271859D01*
X133987394Y-97383694D01*
X133959163Y-97425945D01*
X129364948Y-102020161D01*
X129322694Y-102048394D01*
X129210859Y-102215770D01*
X129189986Y-102320705D01*
X129171587Y-102413200D01*
X129176451Y-102437653D01*
X128996405Y-102168195D01*
X128687000Y-101961458D01*
X128687000Y-101401291D01*
X132948555Y-97139737D01*
X132990806Y-97111506D01*
X133102641Y-96944131D01*
X133132000Y-96796535D01*
X133141913Y-96746701D01*
X133139774Y-96735948D01*
X133441405Y-96534405D01*
X133691378Y-96160294D01*
X133757000Y-95830391D01*
X133757000Y-94107609D01*
X133691378Y-93777706D01*
X133441405Y-93403595D01*
X133067294Y-93153622D01*
X132626000Y-93065843D01*
X132184707Y-93153622D01*
X131810596Y-93403595D01*
X131560623Y-93777706D01*
X131495000Y-94107609D01*
X131495000Y-95830390D01*
X131560622Y-96160293D01*
X131810595Y-96534405D01*
X131997690Y-96659418D01*
X127858446Y-100798663D01*
X127816195Y-100826894D01*
X127776206Y-100886743D01*
X127704360Y-100994269D01*
X127665087Y-101191700D01*
X127675001Y-101241539D01*
X127675001Y-101961457D01*
X127365595Y-102168195D01*
X127115622Y-102542307D01*
X127050000Y-102872210D01*
X127050000Y-104594991D01*
X127115623Y-104924894D01*
X127365596Y-105299005D01*
X127739707Y-105548978D01*
X128181000Y-105636757D01*
X128622294Y-105548978D01*
X128996405Y-105299005D01*
X129181501Y-105021990D01*
X129181501Y-105612161D01*
X129171587Y-105662000D01*
X129205773Y-105833858D01*
X129210860Y-105859431D01*
X129322695Y-106026806D01*
X129364945Y-106055036D01*
X130707500Y-107397592D01*
X130707500Y-108264032D01*
X130527293Y-108143622D01*
X130086000Y-108055843D01*
X129644706Y-108143622D01*
X129270595Y-108393595D01*
X129020622Y-108767707D01*
X128955000Y-109097610D01*
X128955000Y-110820391D01*
X129020623Y-111150294D01*
X129270596Y-111524405D01*
X129474179Y-111660435D01*
X129445960Y-111702669D01*
X129406687Y-111900100D01*
X129416601Y-111949939D01*
X129416600Y-119437766D01*
X129406687Y-119487600D01*
X129416600Y-119537434D01*
X129445959Y-119685030D01*
X129557794Y-119852406D01*
X129600047Y-119880639D01*
X130297599Y-120578191D01*
X130052412Y-120823378D01*
X129866800Y-121271486D01*
X129866800Y-121756514D01*
X130052412Y-122204622D01*
X130395378Y-122547588D01*
X130843486Y-122733200D01*
X131328514Y-122733200D01*
X131776622Y-122547588D01*
X132119588Y-122204622D01*
X132305200Y-121756514D01*
X132305200Y-121271486D01*
X132228727Y-121086864D01*
X132565592Y-120750000D01*
X132665790Y-120750000D01*
X132592412Y-120823378D01*
X132406800Y-121271486D01*
X132406800Y-121756514D01*
X132592412Y-122204622D01*
X132935378Y-122547588D01*
X133383486Y-122733200D01*
X133868514Y-122733200D01*
X134316622Y-122547588D01*
X134659588Y-122204622D01*
X134736061Y-122020000D01*
X138125766Y-122020000D01*
X138175600Y-122029913D01*
X138225434Y-122020000D01*
X138225435Y-122020000D01*
X138373031Y-121990641D01*
X138540406Y-121878806D01*
X138568639Y-121836552D01*
X142538792Y-117866400D01*
X151841108Y-117866400D01*
X148813446Y-120894063D01*
X148771195Y-120922294D01*
X148671273Y-121071840D01*
X148659360Y-121089669D01*
X148620087Y-121287100D01*
X148627222Y-121322970D01*
X148421817Y-121460217D01*
X148202875Y-121787888D01*
X148145400Y-122076835D01*
X148145401Y-123491166D01*
X148202876Y-123780113D01*
X148421818Y-124107783D01*
X148749488Y-124326725D01*
X149136000Y-124403607D01*
X149522513Y-124326725D01*
X149850183Y-124107783D01*
X150069125Y-123780113D01*
X150126600Y-123491166D01*
X150126600Y-122076834D01*
X150069125Y-121787887D01*
X149850183Y-121460217D01*
X149747251Y-121391440D01*
X152727292Y-118411400D01*
X160410933Y-118411400D01*
X160293275Y-118587487D01*
X160216393Y-118974000D01*
X160293275Y-119360513D01*
X160381466Y-119492500D01*
X153014435Y-119492500D01*
X152964600Y-119482587D01*
X152914765Y-119492500D01*
X152767169Y-119521859D01*
X152599794Y-119633694D01*
X152571563Y-119675945D01*
X151353445Y-120894064D01*
X151311195Y-120922294D01*
X151211273Y-121071840D01*
X151199360Y-121089669D01*
X151160087Y-121287100D01*
X151167222Y-121322970D01*
X150961817Y-121460217D01*
X150742875Y-121787888D01*
X150685400Y-122076835D01*
X150685401Y-123491166D01*
X150742876Y-123780113D01*
X150961818Y-124107783D01*
X151289488Y-124326725D01*
X151676000Y-124403607D01*
X152062513Y-124326725D01*
X152390183Y-124107783D01*
X152609125Y-123780113D01*
X152666600Y-123491166D01*
X152666600Y-122076834D01*
X152609125Y-121787887D01*
X152390183Y-121460217D01*
X152287251Y-121391440D01*
X153174192Y-120504500D01*
X154283008Y-120504500D01*
X153893445Y-120894064D01*
X153851195Y-120922294D01*
X153751273Y-121071840D01*
X153739360Y-121089669D01*
X153700087Y-121287100D01*
X153707222Y-121322970D01*
X153501817Y-121460217D01*
X153282875Y-121787888D01*
X153225400Y-122076835D01*
X153225401Y-123491166D01*
X153282876Y-123780113D01*
X153501818Y-124107783D01*
X153829488Y-124326725D01*
X154216000Y-124403607D01*
X154602513Y-124326725D01*
X154930183Y-124107783D01*
X155080552Y-123882739D01*
X165658626Y-123882739D01*
X165688800Y-124376952D01*
X165819877Y-124693400D01*
X166046298Y-124744097D01*
X166736395Y-124054000D01*
X167095605Y-124054000D01*
X167785702Y-124744097D01*
X168012123Y-124693400D01*
X168173374Y-124225261D01*
X168143200Y-123731048D01*
X168012123Y-123414600D01*
X167785702Y-123363903D01*
X167095605Y-124054000D01*
X166736395Y-124054000D01*
X166046298Y-123363903D01*
X165819877Y-123414600D01*
X165658626Y-123882739D01*
X155080552Y-123882739D01*
X155149125Y-123780113D01*
X155206600Y-123491166D01*
X155206600Y-123184298D01*
X166225903Y-123184298D01*
X166916000Y-123874395D01*
X167606097Y-123184298D01*
X167555400Y-122957877D01*
X167087261Y-122796626D01*
X166593048Y-122826800D01*
X166276600Y-122957877D01*
X166225903Y-123184298D01*
X155206600Y-123184298D01*
X155206600Y-122076834D01*
X155149125Y-121787887D01*
X154930183Y-121460217D01*
X154827251Y-121391440D01*
X155117492Y-121101200D01*
X160310839Y-121101200D01*
X160293275Y-121127487D01*
X160216393Y-121514000D01*
X160293275Y-121900513D01*
X160512217Y-122228183D01*
X160839887Y-122447125D01*
X161128834Y-122504600D01*
X162543166Y-122504600D01*
X162832113Y-122447125D01*
X163159783Y-122228183D01*
X163298886Y-122020000D01*
X167976409Y-122020000D01*
X169758236Y-123801827D01*
X169735400Y-123856957D01*
X169735400Y-124251043D01*
X169886210Y-124615130D01*
X170164870Y-124893790D01*
X170528957Y-125044600D01*
X170923043Y-125044600D01*
X171214916Y-124923702D01*
X173845903Y-124923702D01*
X173896600Y-125150123D01*
X174364739Y-125311374D01*
X174858952Y-125281200D01*
X175175400Y-125150123D01*
X175226097Y-124923702D01*
X177655903Y-124923702D01*
X177706600Y-125150123D01*
X178174739Y-125311374D01*
X178668952Y-125281200D01*
X178985400Y-125150123D01*
X179036097Y-124923702D01*
X181465903Y-124923702D01*
X181516600Y-125150123D01*
X181984739Y-125311374D01*
X182478952Y-125281200D01*
X182795400Y-125150123D01*
X182846097Y-124923702D01*
X182156000Y-124233605D01*
X181465903Y-124923702D01*
X179036097Y-124923702D01*
X178346000Y-124233605D01*
X177655903Y-124923702D01*
X175226097Y-124923702D01*
X174536000Y-124233605D01*
X173845903Y-124923702D01*
X171214916Y-124923702D01*
X171287130Y-124893790D01*
X171565790Y-124615130D01*
X171716600Y-124251043D01*
X171716600Y-123882739D01*
X173278626Y-123882739D01*
X173308800Y-124376952D01*
X173439877Y-124693400D01*
X173666298Y-124744097D01*
X174356395Y-124054000D01*
X174715605Y-124054000D01*
X175405702Y-124744097D01*
X175632123Y-124693400D01*
X175793374Y-124225261D01*
X175772462Y-123882739D01*
X177088626Y-123882739D01*
X177118800Y-124376952D01*
X177249877Y-124693400D01*
X177476298Y-124744097D01*
X178166395Y-124054000D01*
X178525605Y-124054000D01*
X179215702Y-124744097D01*
X179442123Y-124693400D01*
X179603374Y-124225261D01*
X179582462Y-123882739D01*
X180898626Y-123882739D01*
X180928800Y-124376952D01*
X181059877Y-124693400D01*
X181286298Y-124744097D01*
X181976395Y-124054000D01*
X182335605Y-124054000D01*
X183025702Y-124744097D01*
X183252123Y-124693400D01*
X183413374Y-124225261D01*
X183383200Y-123731048D01*
X183252123Y-123414600D01*
X183025702Y-123363903D01*
X182335605Y-124054000D01*
X181976395Y-124054000D01*
X181286298Y-123363903D01*
X181059877Y-123414600D01*
X180898626Y-123882739D01*
X179582462Y-123882739D01*
X179573200Y-123731048D01*
X179442123Y-123414600D01*
X179215702Y-123363903D01*
X178525605Y-124054000D01*
X178166395Y-124054000D01*
X177476298Y-123363903D01*
X177249877Y-123414600D01*
X177088626Y-123882739D01*
X175772462Y-123882739D01*
X175763200Y-123731048D01*
X175632123Y-123414600D01*
X175405702Y-123363903D01*
X174715605Y-124054000D01*
X174356395Y-124054000D01*
X173666298Y-123363903D01*
X173439877Y-123414600D01*
X173278626Y-123882739D01*
X171716600Y-123882739D01*
X171716600Y-123856957D01*
X171565790Y-123492870D01*
X171287130Y-123214210D01*
X171214917Y-123184298D01*
X173845903Y-123184298D01*
X174536000Y-123874395D01*
X175226097Y-123184298D01*
X177655903Y-123184298D01*
X178346000Y-123874395D01*
X179036097Y-123184298D01*
X181465903Y-123184298D01*
X182156000Y-123874395D01*
X182846097Y-123184298D01*
X182795400Y-122957877D01*
X182327261Y-122796626D01*
X181833048Y-122826800D01*
X181516600Y-122957877D01*
X181465903Y-123184298D01*
X179036097Y-123184298D01*
X178985400Y-122957877D01*
X178517261Y-122796626D01*
X178023048Y-122826800D01*
X177706600Y-122957877D01*
X177655903Y-123184298D01*
X175226097Y-123184298D01*
X175175400Y-122957877D01*
X174707261Y-122796626D01*
X174213048Y-122826800D01*
X173896600Y-122957877D01*
X173845903Y-123184298D01*
X171214917Y-123184298D01*
X170923043Y-123063400D01*
X170528957Y-123063400D01*
X170473827Y-123086236D01*
X168579039Y-121191448D01*
X168550806Y-121149194D01*
X168478977Y-121101200D01*
X175404966Y-121101200D01*
X175454800Y-121111113D01*
X175504634Y-121101200D01*
X175504635Y-121101200D01*
X175652231Y-121071841D01*
X175819606Y-120960006D01*
X175847839Y-120917752D01*
X181903827Y-114861765D01*
X181958957Y-114884600D01*
X182353043Y-114884600D01*
X182717130Y-114733790D01*
X182995790Y-114455130D01*
X183146600Y-114091043D01*
X183146600Y-113696957D01*
X182995790Y-113332870D01*
X182717130Y-113054210D01*
X182353043Y-112903400D01*
X181958957Y-112903400D01*
X181594870Y-113054210D01*
X181316210Y-113332870D01*
X181165400Y-113696957D01*
X181165400Y-114091043D01*
X181188235Y-114146173D01*
X175245209Y-120089200D01*
X172866391Y-120089200D01*
X178093827Y-114861765D01*
X178148957Y-114884600D01*
X178543043Y-114884600D01*
X178907130Y-114733790D01*
X179185790Y-114455130D01*
X179336600Y-114091043D01*
X179336600Y-113696957D01*
X179185790Y-113332870D01*
X178907130Y-113054210D01*
X178543043Y-112903400D01*
X178148957Y-112903400D01*
X177784870Y-113054210D01*
X177506210Y-113332870D01*
X177355400Y-113696957D01*
X177355400Y-114091043D01*
X177378235Y-114146173D01*
X172031909Y-119492500D01*
X163290534Y-119492500D01*
X163378725Y-119360513D01*
X163455607Y-118974000D01*
X163378725Y-118587487D01*
X163261067Y-118411400D01*
X170474766Y-118411400D01*
X170524600Y-118421313D01*
X170574434Y-118411400D01*
X170574435Y-118411400D01*
X170722031Y-118382041D01*
X170889406Y-118270206D01*
X170917639Y-118227952D01*
X174283827Y-114861765D01*
X174338957Y-114884600D01*
X174733043Y-114884600D01*
X175097130Y-114733790D01*
X175375790Y-114455130D01*
X175526600Y-114091043D01*
X175526600Y-113696957D01*
X175375790Y-113332870D01*
X175097130Y-113054210D01*
X174780171Y-112922921D01*
X175460392Y-112242700D01*
X178296165Y-112242700D01*
X178346000Y-112252613D01*
X178395835Y-112242700D01*
X178543431Y-112213341D01*
X178710806Y-112101506D01*
X178822641Y-111934131D01*
X178861913Y-111736700D01*
X178859774Y-111725948D01*
X179161405Y-111524405D01*
X179411378Y-111150294D01*
X179477000Y-110820391D01*
X179477000Y-109097609D01*
X179411378Y-108767706D01*
X179161405Y-108393595D01*
X178787293Y-108143622D01*
X178346000Y-108055843D01*
X177904706Y-108143622D01*
X177530595Y-108393595D01*
X177280622Y-108767707D01*
X177215000Y-109097610D01*
X177215000Y-110820391D01*
X177280623Y-111150294D01*
X177334349Y-111230700D01*
X176817652Y-111230700D01*
X176871378Y-111150294D01*
X176937000Y-110820391D01*
X176937000Y-109097609D01*
X176871378Y-108767706D01*
X176621405Y-108393595D01*
X176247293Y-108143622D01*
X175806000Y-108055843D01*
X175364706Y-108143622D01*
X174990595Y-108393595D01*
X174740622Y-108767707D01*
X174675000Y-109097610D01*
X174675000Y-110820391D01*
X174740623Y-111150294D01*
X174887859Y-111370648D01*
X174885994Y-111371894D01*
X174857763Y-111414145D01*
X169417509Y-116854400D01*
X163356082Y-116854400D01*
X163378725Y-116820513D01*
X163455607Y-116434000D01*
X163378725Y-116047487D01*
X163159783Y-115719817D01*
X162832113Y-115500875D01*
X162543166Y-115443400D01*
X161128834Y-115443400D01*
X160839887Y-115500875D01*
X160512217Y-115719817D01*
X160374970Y-115925222D01*
X160339099Y-115918087D01*
X160289265Y-115928000D01*
X160141669Y-115957359D01*
X159974294Y-116069194D01*
X159946061Y-116111448D01*
X159902509Y-116155000D01*
X155150142Y-116155000D01*
X155206600Y-115871166D01*
X155206600Y-114456834D01*
X155149125Y-114167887D01*
X154930183Y-113840217D01*
X154715779Y-113696957D01*
X165925400Y-113696957D01*
X165925400Y-114091043D01*
X166076210Y-114455130D01*
X166354870Y-114733790D01*
X166718957Y-114884600D01*
X167113043Y-114884600D01*
X167477130Y-114733790D01*
X167755790Y-114455130D01*
X167906600Y-114091043D01*
X167906600Y-113696957D01*
X169735400Y-113696957D01*
X169735400Y-114091043D01*
X169886210Y-114455130D01*
X170164870Y-114733790D01*
X170528957Y-114884600D01*
X170923043Y-114884600D01*
X171287130Y-114733790D01*
X171565790Y-114455130D01*
X171716600Y-114091043D01*
X171716600Y-113696957D01*
X171565790Y-113332870D01*
X171287130Y-113054210D01*
X170923043Y-112903400D01*
X170528957Y-112903400D01*
X170164870Y-113054210D01*
X169886210Y-113332870D01*
X169735400Y-113696957D01*
X167906600Y-113696957D01*
X167755790Y-113332870D01*
X167477130Y-113054210D01*
X167113043Y-112903400D01*
X166718957Y-112903400D01*
X166354870Y-113054210D01*
X166076210Y-113332870D01*
X165925400Y-113696957D01*
X154715779Y-113696957D01*
X154602512Y-113621275D01*
X154216000Y-113544393D01*
X153829487Y-113621275D01*
X153501817Y-113840217D01*
X153282875Y-114167888D01*
X153259839Y-114283700D01*
X152632162Y-114283700D01*
X152609125Y-114167887D01*
X152390183Y-113840217D01*
X152062512Y-113621275D01*
X151676000Y-113544393D01*
X151546286Y-113570195D01*
X151320638Y-113344547D01*
X151292406Y-113302294D01*
X151125031Y-113190459D01*
X150977435Y-113161100D01*
X150977434Y-113161100D01*
X150927600Y-113151187D01*
X150877766Y-113161100D01*
X149185835Y-113161100D01*
X149136000Y-113151187D01*
X149086165Y-113161100D01*
X148938569Y-113190459D01*
X148771194Y-113302294D01*
X148659359Y-113469669D01*
X148620087Y-113667100D01*
X148627222Y-113702970D01*
X148421817Y-113840217D01*
X148202875Y-114167888D01*
X148145400Y-114456835D01*
X148145401Y-115871166D01*
X148201859Y-116155000D01*
X139552591Y-116155000D01*
X144378555Y-111329037D01*
X144379592Y-111328344D01*
X144510596Y-111524405D01*
X144884707Y-111774378D01*
X145326000Y-111862157D01*
X145767294Y-111774378D01*
X146141405Y-111524405D01*
X146391378Y-111150294D01*
X146457000Y-110820391D01*
X146457000Y-109543592D01*
X146735000Y-109265592D01*
X146735000Y-110820391D01*
X146800623Y-111150294D01*
X147050596Y-111524405D01*
X147424707Y-111774378D01*
X147866000Y-111862157D01*
X148307294Y-111774378D01*
X148681405Y-111524405D01*
X148931378Y-111150294D01*
X148997000Y-110820391D01*
X148997000Y-109097609D01*
X148931378Y-108767706D01*
X148681405Y-108393595D01*
X148494309Y-108268582D01*
X148514592Y-108248300D01*
X149808044Y-108248300D01*
X149590595Y-108393595D01*
X149340622Y-108767707D01*
X149275000Y-109097610D01*
X149275000Y-110820391D01*
X149340623Y-111150294D01*
X149590596Y-111524405D01*
X149964707Y-111774378D01*
X150406000Y-111862157D01*
X150847294Y-111774378D01*
X151221405Y-111524405D01*
X151471378Y-111150294D01*
X151537000Y-110820391D01*
X151537000Y-109097609D01*
X151471378Y-108767706D01*
X151417652Y-108687300D01*
X151934348Y-108687300D01*
X151880622Y-108767707D01*
X151815000Y-109097610D01*
X151815000Y-110820391D01*
X151880623Y-111150294D01*
X152130596Y-111524405D01*
X152504707Y-111774378D01*
X152946000Y-111862157D01*
X153387294Y-111774378D01*
X153761405Y-111524405D01*
X154011378Y-111150294D01*
X154077000Y-110820391D01*
X154077000Y-109097609D01*
X154011378Y-108767706D01*
X153957652Y-108687300D01*
X154474348Y-108687300D01*
X154420622Y-108767707D01*
X154355000Y-109097610D01*
X154355000Y-110820391D01*
X154420623Y-111150294D01*
X154670596Y-111524405D01*
X155044707Y-111774378D01*
X155486000Y-111862157D01*
X155927294Y-111774378D01*
X156301405Y-111524405D01*
X156551378Y-111150294D01*
X156617000Y-110820391D01*
X156617000Y-109097609D01*
X156551378Y-108767706D01*
X156497652Y-108687300D01*
X157014348Y-108687300D01*
X156960622Y-108767707D01*
X156895000Y-109097610D01*
X156895000Y-110820391D01*
X156960623Y-111150294D01*
X157210596Y-111524405D01*
X157584707Y-111774378D01*
X158026000Y-111862157D01*
X158467294Y-111774378D01*
X158841405Y-111524405D01*
X159091378Y-111150294D01*
X159157000Y-110820391D01*
X159157000Y-109097609D01*
X159091378Y-108767706D01*
X159037652Y-108687300D01*
X159554348Y-108687300D01*
X159500622Y-108767707D01*
X159435000Y-109097610D01*
X159435000Y-110820391D01*
X159500623Y-111150294D01*
X159750596Y-111524405D01*
X160124707Y-111774378D01*
X160566000Y-111862157D01*
X161007294Y-111774378D01*
X161381405Y-111524405D01*
X161631378Y-111150294D01*
X161697000Y-110820391D01*
X161697000Y-109097609D01*
X161631378Y-108767706D01*
X161577652Y-108687300D01*
X162094348Y-108687300D01*
X162040622Y-108767707D01*
X161975000Y-109097610D01*
X161975000Y-110820391D01*
X162040623Y-111150294D01*
X162290596Y-111524405D01*
X162664707Y-111774378D01*
X163106000Y-111862157D01*
X163547294Y-111774378D01*
X163921405Y-111524405D01*
X164171378Y-111150294D01*
X164237000Y-110820391D01*
X164237000Y-109097610D01*
X164515000Y-109097610D01*
X164515000Y-110820391D01*
X164580623Y-111150294D01*
X164830596Y-111524405D01*
X165204707Y-111774378D01*
X165646000Y-111862157D01*
X166087294Y-111774378D01*
X166461405Y-111524405D01*
X166711378Y-111150294D01*
X166777000Y-110820391D01*
X166777000Y-109097610D01*
X167055000Y-109097610D01*
X167055000Y-110820391D01*
X167120623Y-111150294D01*
X167370596Y-111524405D01*
X167744707Y-111774378D01*
X168186000Y-111862157D01*
X168627294Y-111774378D01*
X169001405Y-111524405D01*
X169251378Y-111150294D01*
X169317000Y-110820391D01*
X169317000Y-109097609D01*
X169251378Y-108767706D01*
X169001405Y-108393595D01*
X168627293Y-108143622D01*
X168186000Y-108055843D01*
X167744706Y-108143622D01*
X167370595Y-108393595D01*
X167120622Y-108767707D01*
X167055000Y-109097610D01*
X166777000Y-109097610D01*
X166777000Y-109097609D01*
X166711378Y-108767706D01*
X166461405Y-108393595D01*
X166087293Y-108143622D01*
X165646000Y-108055843D01*
X165204706Y-108143622D01*
X164830595Y-108393595D01*
X164580622Y-108767707D01*
X164515000Y-109097610D01*
X164237000Y-109097610D01*
X164237000Y-109097609D01*
X164171378Y-108767706D01*
X163999558Y-108510559D01*
X164004039Y-108503852D01*
X166603555Y-105904337D01*
X166645806Y-105876106D01*
X166757641Y-105708731D01*
X166787000Y-105561135D01*
X166796913Y-105511301D01*
X166794774Y-105500548D01*
X167096405Y-105299005D01*
X167346378Y-104924894D01*
X167412000Y-104594991D01*
X167412000Y-102872209D01*
X167346378Y-102542306D01*
X167292652Y-102461900D01*
X167809348Y-102461900D01*
X167755622Y-102542307D01*
X167690000Y-102872210D01*
X167690000Y-104594991D01*
X167755623Y-104924894D01*
X168005596Y-105299005D01*
X168315001Y-105505743D01*
X168315001Y-106226461D01*
X168305087Y-106276300D01*
X168336300Y-106433213D01*
X168344360Y-106473731D01*
X168456195Y-106641106D01*
X168498445Y-106669337D01*
X170097690Y-108268582D01*
X169910595Y-108393595D01*
X169660622Y-108767707D01*
X169595000Y-109097610D01*
X169595000Y-110820391D01*
X169660623Y-111150294D01*
X169910596Y-111524405D01*
X170284707Y-111774378D01*
X170726000Y-111862157D01*
X171167294Y-111774378D01*
X171541405Y-111524405D01*
X171791378Y-111150294D01*
X171857000Y-110820391D01*
X171857000Y-109097609D01*
X171791378Y-108767706D01*
X171541405Y-108393595D01*
X171239774Y-108192052D01*
X171241913Y-108181300D01*
X171229780Y-108120306D01*
X171202641Y-107983869D01*
X171090806Y-107816494D01*
X171048555Y-107788263D01*
X169327000Y-106066709D01*
X169327000Y-105505743D01*
X169636405Y-105299005D01*
X169886378Y-104924894D01*
X169952000Y-104594991D01*
X169952000Y-103040191D01*
X170230000Y-103318192D01*
X170230000Y-104594991D01*
X170295623Y-104924894D01*
X170545596Y-105299005D01*
X170919707Y-105548978D01*
X171361000Y-105636757D01*
X171802294Y-105548978D01*
X172176405Y-105299005D01*
X172334201Y-105062847D01*
X172334200Y-107705666D01*
X172324287Y-107755500D01*
X172334200Y-107805334D01*
X172363559Y-107952930D01*
X172475394Y-108120306D01*
X172517647Y-108148538D01*
X172637690Y-108268582D01*
X172450595Y-108393595D01*
X172200622Y-108767707D01*
X172135000Y-109097610D01*
X172135000Y-110820391D01*
X172200623Y-111150294D01*
X172450596Y-111524405D01*
X172824707Y-111774378D01*
X173266000Y-111862157D01*
X173707294Y-111774378D01*
X174081405Y-111524405D01*
X174331378Y-111150294D01*
X174397000Y-110820391D01*
X174397000Y-109097609D01*
X174331378Y-108767706D01*
X174081405Y-108393595D01*
X173779774Y-108192052D01*
X173781913Y-108181299D01*
X173758751Y-108064858D01*
X173742641Y-107983869D01*
X173630806Y-107816494D01*
X173588555Y-107788263D01*
X173346200Y-107545909D01*
X173346200Y-105473135D01*
X173459707Y-105548978D01*
X173901000Y-105636757D01*
X174342294Y-105548978D01*
X174716405Y-105299005D01*
X174966378Y-104924894D01*
X175032000Y-104594991D01*
X175032000Y-102872209D01*
X174966378Y-102542306D01*
X174716405Y-102168195D01*
X174342293Y-101918222D01*
X173901000Y-101830443D01*
X173459706Y-101918222D01*
X173085595Y-102168195D01*
X172946804Y-102375911D01*
X172227392Y-101656500D01*
X175426009Y-101656500D01*
X175812690Y-102043182D01*
X175625595Y-102168195D01*
X175375622Y-102542307D01*
X175310000Y-102872210D01*
X175310000Y-104594991D01*
X175375623Y-104924894D01*
X175625596Y-105299005D01*
X175999707Y-105548978D01*
X176441000Y-105636757D01*
X176882294Y-105548978D01*
X177256405Y-105299005D01*
X177506378Y-104924894D01*
X177572000Y-104594991D01*
X177572000Y-102872209D01*
X177506378Y-102542306D01*
X177256405Y-102168195D01*
X176954774Y-101966652D01*
X176956913Y-101955900D01*
X176917641Y-101758468D01*
X176849508Y-101656500D01*
X176805806Y-101591094D01*
X176763555Y-101562863D01*
X176028638Y-100827947D01*
X176000406Y-100785694D01*
X175833031Y-100673859D01*
X175685435Y-100644500D01*
X175685434Y-100644500D01*
X175635600Y-100634587D01*
X175585766Y-100644500D01*
X175163791Y-100644500D01*
X178668555Y-97139737D01*
X178710806Y-97111506D01*
X178822641Y-96944131D01*
X178852000Y-96796535D01*
X178861913Y-96746701D01*
X178859774Y-96735948D01*
X179161405Y-96534405D01*
X179411378Y-96160294D01*
X179477000Y-95830391D01*
X179477000Y-94107609D01*
X179411378Y-93777706D01*
X179161405Y-93403595D01*
X178787293Y-93153622D01*
X178346000Y-93065843D01*
X177904706Y-93153622D01*
X177530595Y-93403595D01*
X177280622Y-93777707D01*
X177215000Y-94107610D01*
X177215000Y-95830391D01*
X177280623Y-96160294D01*
X177530596Y-96534405D01*
X177717691Y-96659418D01*
X174538009Y-99839100D01*
X173429191Y-99839100D01*
X176128555Y-97139737D01*
X176170806Y-97111506D01*
X176282641Y-96944131D01*
X176312000Y-96796535D01*
X176312000Y-96796534D01*
X176321913Y-96746700D01*
X176319774Y-96735948D01*
X176621405Y-96534405D01*
X176871378Y-96160294D01*
X176937000Y-95830391D01*
X176937000Y-94107609D01*
X176871378Y-93777706D01*
X176621405Y-93403595D01*
X176247294Y-93153622D01*
X175806000Y-93065843D01*
X175364707Y-93153622D01*
X174990596Y-93403595D01*
X174740623Y-93777706D01*
X174675000Y-94107609D01*
X174675000Y-95830390D01*
X174740622Y-96160293D01*
X174990595Y-96534405D01*
X175177690Y-96659418D01*
X172400809Y-99436300D01*
X171291991Y-99436300D01*
X173588555Y-97139737D01*
X173630806Y-97111506D01*
X173742641Y-96944131D01*
X173772000Y-96796535D01*
X173781913Y-96746701D01*
X173779774Y-96735948D01*
X174081405Y-96534405D01*
X174331378Y-96160294D01*
X174397000Y-95830391D01*
X174397000Y-94107609D01*
X174331378Y-93777706D01*
X174081405Y-93403595D01*
X173707294Y-93153622D01*
X173266000Y-93065843D01*
X172824707Y-93153622D01*
X172450596Y-93403595D01*
X172200623Y-93777706D01*
X172135000Y-94107609D01*
X172135000Y-95830390D01*
X172200622Y-96160293D01*
X172450595Y-96534405D01*
X172637690Y-96659418D01*
X170263509Y-99033600D01*
X169154691Y-99033600D01*
X171048555Y-97139737D01*
X171090806Y-97111506D01*
X171202641Y-96944131D01*
X171232000Y-96796535D01*
X171241913Y-96746701D01*
X171239774Y-96735948D01*
X171541405Y-96534405D01*
X171791378Y-96160294D01*
X171857000Y-95830391D01*
X171857000Y-94107609D01*
X171791378Y-93777706D01*
X171541405Y-93403595D01*
X171167294Y-93153622D01*
X170726000Y-93065843D01*
X170284707Y-93153622D01*
X169910596Y-93403595D01*
X169660623Y-93777706D01*
X169595000Y-94107609D01*
X169595000Y-95830390D01*
X169660622Y-96160293D01*
X169910595Y-96534405D01*
X170097690Y-96659418D01*
X168126209Y-98630900D01*
X167017391Y-98630900D01*
X168508555Y-97139737D01*
X168550806Y-97111506D01*
X168662641Y-96944131D01*
X168692000Y-96796535D01*
X168701913Y-96746701D01*
X168699774Y-96735948D01*
X169001405Y-96534405D01*
X169251378Y-96160294D01*
X169317000Y-95830391D01*
X169317000Y-94107609D01*
X169251378Y-93777706D01*
X169001405Y-93403595D01*
X168627294Y-93153622D01*
X168186000Y-93065843D01*
X167744707Y-93153622D01*
X167370596Y-93403595D01*
X167120623Y-93777706D01*
X167055000Y-94107609D01*
X167055000Y-95830390D01*
X167120622Y-96160293D01*
X167370595Y-96534405D01*
X167557690Y-96659418D01*
X165988909Y-98228200D01*
X164835592Y-98228200D01*
X165839711Y-97224081D01*
X165843431Y-97223341D01*
X166010806Y-97111506D01*
X166122641Y-96944131D01*
X166152000Y-96796535D01*
X166161913Y-96746700D01*
X166159774Y-96735948D01*
X166461405Y-96534405D01*
X166711378Y-96160294D01*
X166777000Y-95830391D01*
X166777000Y-94107609D01*
X166711378Y-93777706D01*
X166461405Y-93403595D01*
X166087294Y-93153622D01*
X165646000Y-93065843D01*
X165204707Y-93153622D01*
X164830596Y-93403595D01*
X164580623Y-93777706D01*
X164515000Y-94107609D01*
X164515000Y-95830390D01*
X164580622Y-96160293D01*
X164830595Y-96534405D01*
X164991014Y-96641594D01*
X163001609Y-98631000D01*
X161937291Y-98631000D01*
X163428555Y-97139737D01*
X163470806Y-97111506D01*
X163582641Y-96944131D01*
X163612000Y-96796535D01*
X163612000Y-96796534D01*
X163621913Y-96746700D01*
X163619774Y-96735948D01*
X163921405Y-96534405D01*
X164171378Y-96160294D01*
X164237000Y-95830391D01*
X164237000Y-94107609D01*
X164171378Y-93777706D01*
X163921405Y-93403595D01*
X163547294Y-93153622D01*
X163106000Y-93065843D01*
X162664707Y-93153622D01*
X162290596Y-93403595D01*
X162040623Y-93777706D01*
X161975000Y-94107609D01*
X161975000Y-95830390D01*
X162040622Y-96160293D01*
X162290595Y-96534405D01*
X162477690Y-96659418D01*
X160944409Y-98192700D01*
X159835592Y-98192700D01*
X160888559Y-97139734D01*
X160930806Y-97111506D01*
X160973792Y-97047173D01*
X161042641Y-96944131D01*
X161081913Y-96746700D01*
X161079774Y-96735948D01*
X161381405Y-96534405D01*
X161631378Y-96160294D01*
X161697000Y-95830391D01*
X161697000Y-94107609D01*
X161631378Y-93777706D01*
X161381405Y-93403595D01*
X161007294Y-93153622D01*
X160846294Y-93121597D01*
X163190592Y-90777300D01*
X166231165Y-90777300D01*
X166281000Y-90787213D01*
X166330835Y-90777300D01*
X166478431Y-90747941D01*
X166645806Y-90636106D01*
X166757641Y-90468731D01*
X166796913Y-90271300D01*
X166794774Y-90260548D01*
X167096405Y-90059005D01*
X167346378Y-89684894D01*
X167412000Y-89354991D01*
X167412000Y-87632210D01*
X167690000Y-87632210D01*
X167690000Y-89354991D01*
X167755623Y-89684894D01*
X168005596Y-90059005D01*
X168379707Y-90308978D01*
X168821000Y-90396757D01*
X169262294Y-90308978D01*
X169636405Y-90059005D01*
X169886378Y-89684894D01*
X169952000Y-89354991D01*
X169952000Y-87632210D01*
X170230000Y-87632210D01*
X170230000Y-89354991D01*
X170295623Y-89684894D01*
X170545596Y-90059005D01*
X170919707Y-90308978D01*
X171361000Y-90396757D01*
X171802294Y-90308978D01*
X172176405Y-90059005D01*
X172426378Y-89684894D01*
X172492000Y-89354991D01*
X172492000Y-87632210D01*
X172770000Y-87632210D01*
X172770000Y-89354991D01*
X172835623Y-89684894D01*
X173085596Y-90059005D01*
X173459707Y-90308978D01*
X173901000Y-90396757D01*
X174342294Y-90308978D01*
X174716405Y-90059005D01*
X174966378Y-89684894D01*
X175032000Y-89354991D01*
X175032000Y-88620600D01*
X175056000Y-88620600D01*
X175056000Y-89370600D01*
X175210028Y-89890949D01*
X175551460Y-90312745D01*
X176028316Y-90571773D01*
X176099815Y-90585918D01*
X176314000Y-90463256D01*
X176314000Y-88620600D01*
X176568000Y-88620600D01*
X176568000Y-90463256D01*
X176782185Y-90585918D01*
X176853684Y-90571773D01*
X177330540Y-90312745D01*
X177671972Y-89890949D01*
X177826000Y-89370600D01*
X177826000Y-88620600D01*
X176568000Y-88620600D01*
X176314000Y-88620600D01*
X175056000Y-88620600D01*
X175032000Y-88620600D01*
X175032000Y-87632209D01*
X175028896Y-87616600D01*
X175056000Y-87616600D01*
X175056000Y-88366600D01*
X176314000Y-88366600D01*
X176314000Y-86523944D01*
X176568000Y-86523944D01*
X176568000Y-88366600D01*
X177826000Y-88366600D01*
X177826000Y-87616600D01*
X177671972Y-87096251D01*
X177330540Y-86674455D01*
X176853684Y-86415427D01*
X176782185Y-86401282D01*
X176568000Y-86523944D01*
X176314000Y-86523944D01*
X176099815Y-86401282D01*
X176028316Y-86415427D01*
X175551460Y-86674455D01*
X175210028Y-87096251D01*
X175056000Y-87616600D01*
X175028896Y-87616600D01*
X174966378Y-87302306D01*
X174716405Y-86928195D01*
X174342293Y-86678222D01*
X173901000Y-86590443D01*
X173459706Y-86678222D01*
X173085595Y-86928195D01*
X172835622Y-87302307D01*
X172770000Y-87632210D01*
X172492000Y-87632210D01*
X172492000Y-87632209D01*
X172426378Y-87302306D01*
X172176405Y-86928195D01*
X171802293Y-86678222D01*
X171361000Y-86590443D01*
X170919706Y-86678222D01*
X170545595Y-86928195D01*
X170295622Y-87302307D01*
X170230000Y-87632210D01*
X169952000Y-87632210D01*
X169952000Y-87632209D01*
X169886378Y-87302306D01*
X169636405Y-86928195D01*
X169262293Y-86678222D01*
X168821000Y-86590443D01*
X168379706Y-86678222D01*
X168005595Y-86928195D01*
X167755622Y-87302307D01*
X167690000Y-87632210D01*
X167412000Y-87632210D01*
X167412000Y-87632209D01*
X167346378Y-87302306D01*
X167096405Y-86928195D01*
X166722293Y-86678222D01*
X166281000Y-86590443D01*
X165839706Y-86678222D01*
X165465595Y-86928195D01*
X165215622Y-87302307D01*
X165150000Y-87632210D01*
X165150000Y-89354991D01*
X165215623Y-89684894D01*
X165269349Y-89765300D01*
X164752652Y-89765300D01*
X164806378Y-89684894D01*
X164872000Y-89354991D01*
X164872000Y-87632209D01*
X164806378Y-87302306D01*
X164556405Y-86928195D01*
X164182293Y-86678222D01*
X163741000Y-86590443D01*
X163299706Y-86678222D01*
X162925595Y-86928195D01*
X162675622Y-87302307D01*
X162610000Y-87632210D01*
X162610000Y-89354991D01*
X162675623Y-89684894D01*
X162759646Y-89810644D01*
X162616194Y-89906494D01*
X162587963Y-89948745D01*
X158973448Y-93563261D01*
X158955917Y-93574975D01*
X158841405Y-93403595D01*
X158539774Y-93202052D01*
X158541913Y-93191299D01*
X158521376Y-93088057D01*
X158502641Y-92993869D01*
X158390806Y-92826494D01*
X158348555Y-92798263D01*
X155903855Y-90353564D01*
X156121000Y-90396757D01*
X156562294Y-90308978D01*
X156936405Y-90059005D01*
X157186378Y-89684894D01*
X157252000Y-89354991D01*
X157252000Y-87632210D01*
X157530000Y-87632210D01*
X157530000Y-89354991D01*
X157595623Y-89684894D01*
X157845596Y-90059005D01*
X158219707Y-90308978D01*
X158661000Y-90396757D01*
X159102294Y-90308978D01*
X159476405Y-90059005D01*
X159726378Y-89684894D01*
X159792000Y-89354991D01*
X159792000Y-87632210D01*
X160070000Y-87632210D01*
X160070000Y-89354991D01*
X160135623Y-89684894D01*
X160385596Y-90059005D01*
X160759707Y-90308978D01*
X161201000Y-90396757D01*
X161642294Y-90308978D01*
X162016405Y-90059005D01*
X162266378Y-89684894D01*
X162332000Y-89354991D01*
X162332000Y-87632209D01*
X162266378Y-87302306D01*
X162016405Y-86928195D01*
X161642293Y-86678222D01*
X161201000Y-86590443D01*
X160759706Y-86678222D01*
X160385595Y-86928195D01*
X160135622Y-87302307D01*
X160070000Y-87632210D01*
X159792000Y-87632210D01*
X159792000Y-87632209D01*
X159726378Y-87302306D01*
X159476405Y-86928195D01*
X159102293Y-86678222D01*
X158661000Y-86590443D01*
X158219706Y-86678222D01*
X157845595Y-86928195D01*
X157595622Y-87302307D01*
X157530000Y-87632210D01*
X157252000Y-87632210D01*
X157252000Y-87632209D01*
X157186378Y-87302306D01*
X156936405Y-86928195D01*
X156562293Y-86678222D01*
X156121000Y-86590443D01*
X155679706Y-86678222D01*
X155305595Y-86928195D01*
X155157478Y-87149868D01*
X155073306Y-87023894D01*
X155031056Y-86995664D01*
X153589539Y-85554147D01*
X153561306Y-85511894D01*
X153393931Y-85400059D01*
X153246335Y-85370700D01*
X153246334Y-85370700D01*
X153196500Y-85360787D01*
X153146666Y-85370700D01*
X129070033Y-85370700D01*
X129020199Y-85360787D01*
X128970365Y-85370700D01*
X128822769Y-85400059D01*
X128655394Y-85511894D01*
X128627163Y-85554145D01*
X127858445Y-86322864D01*
X127816195Y-86351094D01*
X127782661Y-86401282D01*
X127704360Y-86518469D01*
X127665087Y-86715900D01*
X127667226Y-86726652D01*
X127365595Y-86928195D01*
X127115622Y-87302307D01*
X127050000Y-87632210D01*
X126772000Y-87632210D01*
X126772000Y-87632209D01*
X126706378Y-87302306D01*
X126456405Y-86928195D01*
X126082293Y-86678222D01*
X125641000Y-86590443D01*
X125199706Y-86678222D01*
X124825595Y-86928195D01*
X124575622Y-87302307D01*
X124510000Y-87632210D01*
X124232000Y-87632210D01*
X124232000Y-87632209D01*
X124166378Y-87302306D01*
X123916405Y-86928195D01*
X123542293Y-86678222D01*
X123101000Y-86590443D01*
X122659706Y-86678222D01*
X122285595Y-86928195D01*
X122035622Y-87302307D01*
X121970000Y-87632210D01*
X121692000Y-87632210D01*
X121692000Y-87632209D01*
X121626378Y-87302306D01*
X121376405Y-86928195D01*
X121002293Y-86678222D01*
X120561000Y-86590443D01*
X120119706Y-86678222D01*
X119745595Y-86928195D01*
X119495622Y-87302307D01*
X119430000Y-87632210D01*
X119152000Y-87632210D01*
X119152000Y-87632209D01*
X119086378Y-87302306D01*
X118836405Y-86928195D01*
X118462293Y-86678222D01*
X118021000Y-86590443D01*
X117579706Y-86678222D01*
X117205595Y-86928195D01*
X116955622Y-87302307D01*
X116890000Y-87632210D01*
X107542400Y-87632210D01*
X107542400Y-84728893D01*
X107608572Y-84353610D01*
X107789011Y-84041084D01*
X108065453Y-83809121D01*
X108414109Y-83682220D01*
X108594932Y-83666400D01*
X188448107Y-83666400D01*
X188823390Y-83732572D01*
G04 #@! TD*
M02*
