%TF.GenerationSoftware,KiCad,Pcbnew,7.0.8*%
%TF.CreationDate,2023-11-23T12:11:22-06:00*%
%TF.ProjectId,27C160_Adapter,32374331-3630-45f4-9164-61707465722e,rev?*%
%TF.SameCoordinates,Original*%
%TF.FileFunction,Paste,Top*%
%TF.FilePolarity,Positive*%
%FSLAX46Y46*%
G04 Gerber Fmt 4.6, Leading zero omitted, Abs format (unit mm)*
G04 Created by KiCad (PCBNEW 7.0.8) date 2023-11-23 12:11:22*
%MOMM*%
%LPD*%
G01*
G04 APERTURE LIST*
%ADD10O,1.506220X3.014980*%
%ADD11C,1.320800*%
%ADD12O,1.320800X2.641600*%
%ADD13C,1.676400*%
%ADD14O,2.641600X1.320800*%
G04 APERTURE END LIST*
D10*
%TO.C,U1*%
X132830000Y-94950000D03*
X135370000Y-94950000D03*
X137910000Y-94950000D03*
X140450000Y-94950000D03*
X142990000Y-94950000D03*
X145530000Y-94950000D03*
X148070000Y-94950000D03*
X150610000Y-94950000D03*
X153150000Y-94950000D03*
X155690000Y-94950000D03*
X158230000Y-94950000D03*
X160770000Y-94950000D03*
X163310000Y-94950000D03*
X165850000Y-94950000D03*
X168390000Y-94950000D03*
X170930000Y-94950000D03*
X173470000Y-94950000D03*
X176010000Y-94950000D03*
X178550000Y-94950000D03*
X181090000Y-94950000D03*
X181090000Y-109936000D03*
X178550000Y-109936000D03*
X176010000Y-109936000D03*
X173470000Y-109936000D03*
X170930000Y-109936000D03*
X168390000Y-109936000D03*
X165850000Y-109936000D03*
X163310000Y-109936000D03*
X160770000Y-109936000D03*
X158230000Y-109936000D03*
X155690000Y-109936000D03*
X153150000Y-109936000D03*
X150610000Y-109936000D03*
X148070000Y-109936000D03*
X145530000Y-109936000D03*
X142990000Y-109936000D03*
X140450000Y-109936000D03*
X137910000Y-109936000D03*
X135370000Y-109936000D03*
X132830000Y-109936000D03*
%TD*%
D11*
%TO.C,R1*%
X182156000Y-124054000D03*
X182156000Y-113894000D03*
%TD*%
%TO.C,R2*%
X178346000Y-124054000D03*
X178346000Y-113894000D03*
%TD*%
D12*
%TO.C,SW2*%
X149136000Y-122784000D03*
X151676000Y-122784000D03*
X154216000Y-122784000D03*
X154216000Y-115164000D03*
X151676000Y-115164000D03*
X149136000Y-115164000D03*
%TD*%
D11*
%TO.C,R3*%
X174536000Y-124054000D03*
X174536000Y-113894000D03*
%TD*%
D13*
%TO.C,SW1*%
X131086000Y-121514000D03*
X131086000Y-118974000D03*
X131086000Y-116434000D03*
X133626000Y-121514000D03*
X133626000Y-118974000D03*
X133626000Y-116434000D03*
%TD*%
D11*
%TO.C,R4*%
X170726000Y-124054000D03*
X170726000Y-113894000D03*
%TD*%
%TO.C,R5*%
X166916000Y-124054000D03*
X166916000Y-113894000D03*
%TD*%
D14*
%TO.C,Q1*%
X161836000Y-118974000D03*
X161836000Y-121514000D03*
X161836000Y-116434000D03*
%TD*%
D10*
%TO.C,ZX1*%
X118021000Y-88493600D03*
X120561000Y-88493600D03*
X123101000Y-88493600D03*
X125641000Y-88493600D03*
X128181000Y-88493600D03*
X130721000Y-88493600D03*
X133261000Y-88493600D03*
X135801000Y-88493600D03*
X138341000Y-88493600D03*
X140881000Y-88493600D03*
X143421000Y-88493600D03*
X145961000Y-88493600D03*
X148501000Y-88493600D03*
X151041000Y-88493600D03*
X153581000Y-88493600D03*
X156121000Y-88493600D03*
X158661000Y-88493600D03*
X161201000Y-88493600D03*
X163741000Y-88493600D03*
X166281000Y-88493600D03*
X168821000Y-88493600D03*
X171361000Y-88493600D03*
X173901000Y-88493600D03*
X176441000Y-88493600D03*
X176441000Y-103733600D03*
X173901000Y-103733600D03*
X171361000Y-103733600D03*
X168821000Y-103733600D03*
X166281000Y-103733600D03*
X163741000Y-103733600D03*
X161201000Y-103733600D03*
X158661000Y-103733600D03*
X156121000Y-103733600D03*
X153581000Y-103733600D03*
X151041000Y-103733600D03*
X148501000Y-103733600D03*
X145961000Y-103733600D03*
X143421000Y-103733600D03*
X140881000Y-103733600D03*
X138341000Y-103733600D03*
X135801000Y-103733600D03*
X133261000Y-103733600D03*
X130721000Y-103733600D03*
X128181000Y-103733600D03*
X125641000Y-103733600D03*
X123101000Y-103733600D03*
X120561000Y-103733600D03*
X118021000Y-103733600D03*
%TD*%
M02*
