%TF.GenerationSoftware,KiCad,Pcbnew,7.0.8*%
%TF.CreationDate,2023-11-23T12:11:22-06:00*%
%TF.ProjectId,27C160_Adapter,32374331-3630-45f4-9164-61707465722e,rev?*%
%TF.SameCoordinates,Original*%
%TF.FileFunction,Legend,Bot*%
%TF.FilePolarity,Positive*%
%FSLAX46Y46*%
G04 Gerber Fmt 4.6, Leading zero omitted, Abs format (unit mm)*
G04 Created by KiCad (PCBNEW 7.0.8) date 2023-11-23 12:11:22*
%MOMM*%
%LPD*%
G01*
G04 APERTURE LIST*
%ADD10C,0.142240*%
%ADD11C,0.134112*%
%ADD12C,0.010000*%
G04 APERTURE END LIST*
D10*
X185033296Y-93441078D02*
X183344196Y-93441078D01*
X183987663Y-93441078D02*
X183907229Y-93601945D01*
X183907229Y-93601945D02*
X183907229Y-93923678D01*
X183907229Y-93923678D02*
X183987663Y-94084545D01*
X183987663Y-94084545D02*
X184068096Y-94164978D01*
X184068096Y-94164978D02*
X184228963Y-94245412D01*
X184228963Y-94245412D02*
X184711563Y-94245412D01*
X184711563Y-94245412D02*
X184872429Y-94164978D01*
X184872429Y-94164978D02*
X184952863Y-94084545D01*
X184952863Y-94084545D02*
X185033296Y-93923678D01*
X185033296Y-93923678D02*
X185033296Y-93601945D01*
X185033296Y-93601945D02*
X184952863Y-93441078D01*
X183907229Y-94808445D02*
X185033296Y-95210611D01*
X183907229Y-95612778D02*
X185033296Y-95210611D01*
X185033296Y-95210611D02*
X185435463Y-95049745D01*
X185435463Y-95049745D02*
X185515896Y-94969311D01*
X185515896Y-94969311D02*
X185596329Y-94808445D01*
X184148529Y-97543177D02*
X184148529Y-98106211D01*
X185033296Y-98347511D02*
X185033296Y-97543177D01*
X185033296Y-97543177D02*
X183344196Y-97543177D01*
X183344196Y-97543177D02*
X183344196Y-98347511D01*
X185033296Y-99312710D02*
X184952863Y-99151844D01*
X184952863Y-99151844D02*
X184791996Y-99071410D01*
X184791996Y-99071410D02*
X183344196Y-99071410D01*
X185033296Y-100680077D02*
X184148529Y-100680077D01*
X184148529Y-100680077D02*
X183987663Y-100599644D01*
X183987663Y-100599644D02*
X183907229Y-100438777D01*
X183907229Y-100438777D02*
X183907229Y-100117044D01*
X183907229Y-100117044D02*
X183987663Y-99956177D01*
X184952863Y-100680077D02*
X185033296Y-100519211D01*
X185033296Y-100519211D02*
X185033296Y-100117044D01*
X185033296Y-100117044D02*
X184952863Y-99956177D01*
X184952863Y-99956177D02*
X184791996Y-99875744D01*
X184791996Y-99875744D02*
X184631129Y-99875744D01*
X184631129Y-99875744D02*
X184470263Y-99956177D01*
X184470263Y-99956177D02*
X184389829Y-100117044D01*
X184389829Y-100117044D02*
X184389829Y-100519211D01*
X184389829Y-100519211D02*
X184309396Y-100680077D01*
X185033296Y-102208310D02*
X183344196Y-102208310D01*
X184952863Y-102208310D02*
X185033296Y-102047444D01*
X185033296Y-102047444D02*
X185033296Y-101725710D01*
X185033296Y-101725710D02*
X184952863Y-101564844D01*
X184952863Y-101564844D02*
X184872429Y-101484410D01*
X184872429Y-101484410D02*
X184711563Y-101403977D01*
X184711563Y-101403977D02*
X184228963Y-101403977D01*
X184228963Y-101403977D02*
X184068096Y-101484410D01*
X184068096Y-101484410D02*
X183987663Y-101564844D01*
X183987663Y-101564844D02*
X183907229Y-101725710D01*
X183907229Y-101725710D02*
X183907229Y-102047444D01*
X183907229Y-102047444D02*
X183987663Y-102208310D01*
X185033296Y-103012643D02*
X183907229Y-103012643D01*
X183344196Y-103012643D02*
X183424629Y-102932210D01*
X183424629Y-102932210D02*
X183505063Y-103012643D01*
X183505063Y-103012643D02*
X183424629Y-103093077D01*
X183424629Y-103093077D02*
X183344196Y-103012643D01*
X183344196Y-103012643D02*
X183505063Y-103012643D01*
X185033296Y-104058276D02*
X184952863Y-103897410D01*
X184952863Y-103897410D02*
X184872429Y-103816976D01*
X184872429Y-103816976D02*
X184711563Y-103736543D01*
X184711563Y-103736543D02*
X184228963Y-103736543D01*
X184228963Y-103736543D02*
X184068096Y-103816976D01*
X184068096Y-103816976D02*
X183987663Y-103897410D01*
X183987663Y-103897410D02*
X183907229Y-104058276D01*
X183907229Y-104058276D02*
X183907229Y-104299576D01*
X183907229Y-104299576D02*
X183987663Y-104460443D01*
X183987663Y-104460443D02*
X184068096Y-104540876D01*
X184068096Y-104540876D02*
X184228963Y-104621310D01*
X184228963Y-104621310D02*
X184711563Y-104621310D01*
X184711563Y-104621310D02*
X184872429Y-104540876D01*
X184872429Y-104540876D02*
X184952863Y-104460443D01*
X184952863Y-104460443D02*
X185033296Y-104299576D01*
X185033296Y-104299576D02*
X185033296Y-104058276D01*
X185033296Y-106632142D02*
X183344196Y-106632142D01*
X183344196Y-106632142D02*
X184550696Y-107195176D01*
X184550696Y-107195176D02*
X183344196Y-107758209D01*
X183344196Y-107758209D02*
X185033296Y-107758209D01*
X185033296Y-109286442D02*
X184148529Y-109286442D01*
X184148529Y-109286442D02*
X183987663Y-109206009D01*
X183987663Y-109206009D02*
X183907229Y-109045142D01*
X183907229Y-109045142D02*
X183907229Y-108723409D01*
X183907229Y-108723409D02*
X183987663Y-108562542D01*
X184952863Y-109286442D02*
X185033296Y-109125576D01*
X185033296Y-109125576D02*
X185033296Y-108723409D01*
X185033296Y-108723409D02*
X184952863Y-108562542D01*
X184952863Y-108562542D02*
X184791996Y-108482109D01*
X184791996Y-108482109D02*
X184631129Y-108482109D01*
X184631129Y-108482109D02*
X184470263Y-108562542D01*
X184470263Y-108562542D02*
X184389829Y-108723409D01*
X184389829Y-108723409D02*
X184389829Y-109125576D01*
X184389829Y-109125576D02*
X184309396Y-109286442D01*
X185033296Y-110090775D02*
X183907229Y-110090775D01*
X184228963Y-110090775D02*
X184068096Y-110171209D01*
X184068096Y-110171209D02*
X183987663Y-110251642D01*
X183987663Y-110251642D02*
X183907229Y-110412509D01*
X183907229Y-110412509D02*
X183907229Y-110573375D01*
X183907229Y-110895108D02*
X183907229Y-111538575D01*
X183344196Y-111136408D02*
X184791996Y-111136408D01*
X184791996Y-111136408D02*
X184952863Y-111216842D01*
X184952863Y-111216842D02*
X185033296Y-111377708D01*
X185033296Y-111377708D02*
X185033296Y-111538575D01*
X185033296Y-112101608D02*
X183907229Y-112101608D01*
X183344196Y-112101608D02*
X183424629Y-112021175D01*
X183424629Y-112021175D02*
X183505063Y-112101608D01*
X183505063Y-112101608D02*
X183424629Y-112182042D01*
X183424629Y-112182042D02*
X183344196Y-112101608D01*
X183344196Y-112101608D02*
X183505063Y-112101608D01*
X183907229Y-112905941D02*
X185033296Y-112905941D01*
X184068096Y-112905941D02*
X183987663Y-112986375D01*
X183987663Y-112986375D02*
X183907229Y-113147241D01*
X183907229Y-113147241D02*
X183907229Y-113388541D01*
X183907229Y-113388541D02*
X183987663Y-113549408D01*
X183987663Y-113549408D02*
X184148529Y-113629841D01*
X184148529Y-113629841D02*
X185033296Y-113629841D01*
X184952863Y-115077641D02*
X185033296Y-114916774D01*
X185033296Y-114916774D02*
X185033296Y-114595041D01*
X185033296Y-114595041D02*
X184952863Y-114434174D01*
X184952863Y-114434174D02*
X184791996Y-114353741D01*
X184791996Y-114353741D02*
X184148529Y-114353741D01*
X184148529Y-114353741D02*
X183987663Y-114434174D01*
X183987663Y-114434174D02*
X183907229Y-114595041D01*
X183907229Y-114595041D02*
X183907229Y-114916774D01*
X183907229Y-114916774D02*
X183987663Y-115077641D01*
X183987663Y-115077641D02*
X184148529Y-115158074D01*
X184148529Y-115158074D02*
X184309396Y-115158074D01*
X184309396Y-115158074D02*
X184470263Y-114353741D01*
X183907229Y-115721108D02*
X183907229Y-116605874D01*
X183907229Y-116605874D02*
X185033296Y-115721108D01*
X185033296Y-115721108D02*
X185033296Y-116605874D01*
X187895322Y-85204943D02*
X186895322Y-85204943D01*
X187895322Y-85633514D02*
X187371512Y-85633514D01*
X187371512Y-85633514D02*
X187276274Y-85585895D01*
X187276274Y-85585895D02*
X187228655Y-85490657D01*
X187228655Y-85490657D02*
X187228655Y-85347800D01*
X187228655Y-85347800D02*
X187276274Y-85252562D01*
X187276274Y-85252562D02*
X187323893Y-85204943D01*
X187228655Y-85966848D02*
X187228655Y-86347800D01*
X186895322Y-86109705D02*
X187752464Y-86109705D01*
X187752464Y-86109705D02*
X187847703Y-86157324D01*
X187847703Y-86157324D02*
X187895322Y-86252562D01*
X187895322Y-86252562D02*
X187895322Y-86347800D01*
X187228655Y-86538277D02*
X187228655Y-86919229D01*
X186895322Y-86681134D02*
X187752464Y-86681134D01*
X187752464Y-86681134D02*
X187847703Y-86728753D01*
X187847703Y-86728753D02*
X187895322Y-86823991D01*
X187895322Y-86823991D02*
X187895322Y-86919229D01*
X187228655Y-87252563D02*
X188228655Y-87252563D01*
X187276274Y-87252563D02*
X187228655Y-87347801D01*
X187228655Y-87347801D02*
X187228655Y-87538277D01*
X187228655Y-87538277D02*
X187276274Y-87633515D01*
X187276274Y-87633515D02*
X187323893Y-87681134D01*
X187323893Y-87681134D02*
X187419131Y-87728753D01*
X187419131Y-87728753D02*
X187704845Y-87728753D01*
X187704845Y-87728753D02*
X187800083Y-87681134D01*
X187800083Y-87681134D02*
X187847703Y-87633515D01*
X187847703Y-87633515D02*
X187895322Y-87538277D01*
X187895322Y-87538277D02*
X187895322Y-87347801D01*
X187895322Y-87347801D02*
X187847703Y-87252563D01*
X187847703Y-88109706D02*
X187895322Y-88204944D01*
X187895322Y-88204944D02*
X187895322Y-88395420D01*
X187895322Y-88395420D02*
X187847703Y-88490658D01*
X187847703Y-88490658D02*
X187752464Y-88538277D01*
X187752464Y-88538277D02*
X187704845Y-88538277D01*
X187704845Y-88538277D02*
X187609607Y-88490658D01*
X187609607Y-88490658D02*
X187561988Y-88395420D01*
X187561988Y-88395420D02*
X187561988Y-88252563D01*
X187561988Y-88252563D02*
X187514369Y-88157325D01*
X187514369Y-88157325D02*
X187419131Y-88109706D01*
X187419131Y-88109706D02*
X187371512Y-88109706D01*
X187371512Y-88109706D02*
X187276274Y-88157325D01*
X187276274Y-88157325D02*
X187228655Y-88252563D01*
X187228655Y-88252563D02*
X187228655Y-88395420D01*
X187228655Y-88395420D02*
X187276274Y-88490658D01*
X187800083Y-88966849D02*
X187847703Y-89014468D01*
X187847703Y-89014468D02*
X187895322Y-88966849D01*
X187895322Y-88966849D02*
X187847703Y-88919230D01*
X187847703Y-88919230D02*
X187800083Y-88966849D01*
X187800083Y-88966849D02*
X187895322Y-88966849D01*
X187276274Y-88966849D02*
X187323893Y-89014468D01*
X187323893Y-89014468D02*
X187371512Y-88966849D01*
X187371512Y-88966849D02*
X187323893Y-88919230D01*
X187323893Y-88919230D02*
X187276274Y-88966849D01*
X187276274Y-88966849D02*
X187371512Y-88966849D01*
X186847703Y-90157324D02*
X188133417Y-89300182D01*
X186847703Y-91204943D02*
X188133417Y-90347801D01*
X187228655Y-91966848D02*
X188038179Y-91966848D01*
X188038179Y-91966848D02*
X188133417Y-91919229D01*
X188133417Y-91919229D02*
X188181036Y-91871610D01*
X188181036Y-91871610D02*
X188228655Y-91776372D01*
X188228655Y-91776372D02*
X188228655Y-91633515D01*
X188228655Y-91633515D02*
X188181036Y-91538277D01*
X187847703Y-91966848D02*
X187895322Y-91871610D01*
X187895322Y-91871610D02*
X187895322Y-91681134D01*
X187895322Y-91681134D02*
X187847703Y-91585896D01*
X187847703Y-91585896D02*
X187800083Y-91538277D01*
X187800083Y-91538277D02*
X187704845Y-91490658D01*
X187704845Y-91490658D02*
X187419131Y-91490658D01*
X187419131Y-91490658D02*
X187323893Y-91538277D01*
X187323893Y-91538277D02*
X187276274Y-91585896D01*
X187276274Y-91585896D02*
X187228655Y-91681134D01*
X187228655Y-91681134D02*
X187228655Y-91871610D01*
X187228655Y-91871610D02*
X187276274Y-91966848D01*
X187895322Y-92443039D02*
X187228655Y-92443039D01*
X186895322Y-92443039D02*
X186942941Y-92395420D01*
X186942941Y-92395420D02*
X186990560Y-92443039D01*
X186990560Y-92443039D02*
X186942941Y-92490658D01*
X186942941Y-92490658D02*
X186895322Y-92443039D01*
X186895322Y-92443039D02*
X186990560Y-92443039D01*
X187228655Y-92776372D02*
X187228655Y-93157324D01*
X186895322Y-92919229D02*
X187752464Y-92919229D01*
X187752464Y-92919229D02*
X187847703Y-92966848D01*
X187847703Y-92966848D02*
X187895322Y-93062086D01*
X187895322Y-93062086D02*
X187895322Y-93157324D01*
X187895322Y-93490658D02*
X186895322Y-93490658D01*
X187895322Y-93919229D02*
X187371512Y-93919229D01*
X187371512Y-93919229D02*
X187276274Y-93871610D01*
X187276274Y-93871610D02*
X187228655Y-93776372D01*
X187228655Y-93776372D02*
X187228655Y-93633515D01*
X187228655Y-93633515D02*
X187276274Y-93538277D01*
X187276274Y-93538277D02*
X187323893Y-93490658D01*
X187228655Y-94823991D02*
X187895322Y-94823991D01*
X187228655Y-94395420D02*
X187752464Y-94395420D01*
X187752464Y-94395420D02*
X187847703Y-94443039D01*
X187847703Y-94443039D02*
X187895322Y-94538277D01*
X187895322Y-94538277D02*
X187895322Y-94681134D01*
X187895322Y-94681134D02*
X187847703Y-94776372D01*
X187847703Y-94776372D02*
X187800083Y-94823991D01*
X187895322Y-95300182D02*
X186895322Y-95300182D01*
X187276274Y-95300182D02*
X187228655Y-95395420D01*
X187228655Y-95395420D02*
X187228655Y-95585896D01*
X187228655Y-95585896D02*
X187276274Y-95681134D01*
X187276274Y-95681134D02*
X187323893Y-95728753D01*
X187323893Y-95728753D02*
X187419131Y-95776372D01*
X187419131Y-95776372D02*
X187704845Y-95776372D01*
X187704845Y-95776372D02*
X187800083Y-95728753D01*
X187800083Y-95728753D02*
X187847703Y-95681134D01*
X187847703Y-95681134D02*
X187895322Y-95585896D01*
X187895322Y-95585896D02*
X187895322Y-95395420D01*
X187895322Y-95395420D02*
X187847703Y-95300182D01*
X187800083Y-96204944D02*
X187847703Y-96252563D01*
X187847703Y-96252563D02*
X187895322Y-96204944D01*
X187895322Y-96204944D02*
X187847703Y-96157325D01*
X187847703Y-96157325D02*
X187800083Y-96204944D01*
X187800083Y-96204944D02*
X187895322Y-96204944D01*
X187847703Y-97109705D02*
X187895322Y-97014467D01*
X187895322Y-97014467D02*
X187895322Y-96823991D01*
X187895322Y-96823991D02*
X187847703Y-96728753D01*
X187847703Y-96728753D02*
X187800083Y-96681134D01*
X187800083Y-96681134D02*
X187704845Y-96633515D01*
X187704845Y-96633515D02*
X187419131Y-96633515D01*
X187419131Y-96633515D02*
X187323893Y-96681134D01*
X187323893Y-96681134D02*
X187276274Y-96728753D01*
X187276274Y-96728753D02*
X187228655Y-96823991D01*
X187228655Y-96823991D02*
X187228655Y-97014467D01*
X187228655Y-97014467D02*
X187276274Y-97109705D01*
X187895322Y-97681134D02*
X187847703Y-97585896D01*
X187847703Y-97585896D02*
X187800083Y-97538277D01*
X187800083Y-97538277D02*
X187704845Y-97490658D01*
X187704845Y-97490658D02*
X187419131Y-97490658D01*
X187419131Y-97490658D02*
X187323893Y-97538277D01*
X187323893Y-97538277D02*
X187276274Y-97585896D01*
X187276274Y-97585896D02*
X187228655Y-97681134D01*
X187228655Y-97681134D02*
X187228655Y-97823991D01*
X187228655Y-97823991D02*
X187276274Y-97919229D01*
X187276274Y-97919229D02*
X187323893Y-97966848D01*
X187323893Y-97966848D02*
X187419131Y-98014467D01*
X187419131Y-98014467D02*
X187704845Y-98014467D01*
X187704845Y-98014467D02*
X187800083Y-97966848D01*
X187800083Y-97966848D02*
X187847703Y-97919229D01*
X187847703Y-97919229D02*
X187895322Y-97823991D01*
X187895322Y-97823991D02*
X187895322Y-97681134D01*
X187895322Y-98443039D02*
X187228655Y-98443039D01*
X187323893Y-98443039D02*
X187276274Y-98490658D01*
X187276274Y-98490658D02*
X187228655Y-98585896D01*
X187228655Y-98585896D02*
X187228655Y-98728753D01*
X187228655Y-98728753D02*
X187276274Y-98823991D01*
X187276274Y-98823991D02*
X187371512Y-98871610D01*
X187371512Y-98871610D02*
X187895322Y-98871610D01*
X187371512Y-98871610D02*
X187276274Y-98919229D01*
X187276274Y-98919229D02*
X187228655Y-99014467D01*
X187228655Y-99014467D02*
X187228655Y-99157324D01*
X187228655Y-99157324D02*
X187276274Y-99252563D01*
X187276274Y-99252563D02*
X187371512Y-99300182D01*
X187371512Y-99300182D02*
X187895322Y-99300182D01*
X186847703Y-100490657D02*
X188133417Y-99633515D01*
X187895322Y-100823991D02*
X187228655Y-100823991D01*
X187323893Y-100823991D02*
X187276274Y-100871610D01*
X187276274Y-100871610D02*
X187228655Y-100966848D01*
X187228655Y-100966848D02*
X187228655Y-101109705D01*
X187228655Y-101109705D02*
X187276274Y-101204943D01*
X187276274Y-101204943D02*
X187371512Y-101252562D01*
X187371512Y-101252562D02*
X187895322Y-101252562D01*
X187371512Y-101252562D02*
X187276274Y-101300181D01*
X187276274Y-101300181D02*
X187228655Y-101395419D01*
X187228655Y-101395419D02*
X187228655Y-101538276D01*
X187228655Y-101538276D02*
X187276274Y-101633515D01*
X187276274Y-101633515D02*
X187371512Y-101681134D01*
X187371512Y-101681134D02*
X187895322Y-101681134D01*
X187895322Y-102585895D02*
X187371512Y-102585895D01*
X187371512Y-102585895D02*
X187276274Y-102538276D01*
X187276274Y-102538276D02*
X187228655Y-102443038D01*
X187228655Y-102443038D02*
X187228655Y-102252562D01*
X187228655Y-102252562D02*
X187276274Y-102157324D01*
X187847703Y-102585895D02*
X187895322Y-102490657D01*
X187895322Y-102490657D02*
X187895322Y-102252562D01*
X187895322Y-102252562D02*
X187847703Y-102157324D01*
X187847703Y-102157324D02*
X187752464Y-102109705D01*
X187752464Y-102109705D02*
X187657226Y-102109705D01*
X187657226Y-102109705D02*
X187561988Y-102157324D01*
X187561988Y-102157324D02*
X187514369Y-102252562D01*
X187514369Y-102252562D02*
X187514369Y-102490657D01*
X187514369Y-102490657D02*
X187466750Y-102585895D01*
X187228655Y-102919229D02*
X187228655Y-103300181D01*
X187895322Y-103062086D02*
X187038179Y-103062086D01*
X187038179Y-103062086D02*
X186942941Y-103109705D01*
X186942941Y-103109705D02*
X186895322Y-103204943D01*
X186895322Y-103204943D02*
X186895322Y-103300181D01*
X187847703Y-104014467D02*
X187895322Y-103919229D01*
X187895322Y-103919229D02*
X187895322Y-103728753D01*
X187895322Y-103728753D02*
X187847703Y-103633515D01*
X187847703Y-103633515D02*
X187752464Y-103585896D01*
X187752464Y-103585896D02*
X187371512Y-103585896D01*
X187371512Y-103585896D02*
X187276274Y-103633515D01*
X187276274Y-103633515D02*
X187228655Y-103728753D01*
X187228655Y-103728753D02*
X187228655Y-103919229D01*
X187228655Y-103919229D02*
X187276274Y-104014467D01*
X187276274Y-104014467D02*
X187371512Y-104062086D01*
X187371512Y-104062086D02*
X187466750Y-104062086D01*
X187466750Y-104062086D02*
X187561988Y-103585896D01*
X186895322Y-104395420D02*
X186895322Y-105062086D01*
X186895322Y-105062086D02*
X187895322Y-104633515D01*
X186990560Y-105395420D02*
X186942941Y-105443039D01*
X186942941Y-105443039D02*
X186895322Y-105538277D01*
X186895322Y-105538277D02*
X186895322Y-105776372D01*
X186895322Y-105776372D02*
X186942941Y-105871610D01*
X186942941Y-105871610D02*
X186990560Y-105919229D01*
X186990560Y-105919229D02*
X187085798Y-105966848D01*
X187085798Y-105966848D02*
X187181036Y-105966848D01*
X187181036Y-105966848D02*
X187323893Y-105919229D01*
X187323893Y-105919229D02*
X187895322Y-105347801D01*
X187895322Y-105347801D02*
X187895322Y-105966848D01*
X186847703Y-107109705D02*
X188133417Y-106252563D01*
X186990560Y-107395420D02*
X186942941Y-107443039D01*
X186942941Y-107443039D02*
X186895322Y-107538277D01*
X186895322Y-107538277D02*
X186895322Y-107776372D01*
X186895322Y-107776372D02*
X186942941Y-107871610D01*
X186942941Y-107871610D02*
X186990560Y-107919229D01*
X186990560Y-107919229D02*
X187085798Y-107966848D01*
X187085798Y-107966848D02*
X187181036Y-107966848D01*
X187181036Y-107966848D02*
X187323893Y-107919229D01*
X187323893Y-107919229D02*
X187895322Y-107347801D01*
X187895322Y-107347801D02*
X187895322Y-107966848D01*
X186895322Y-108300182D02*
X186895322Y-108966848D01*
X186895322Y-108966848D02*
X187895322Y-108538277D01*
X187847703Y-109776372D02*
X187895322Y-109681134D01*
X187895322Y-109681134D02*
X187895322Y-109490658D01*
X187895322Y-109490658D02*
X187847703Y-109395420D01*
X187847703Y-109395420D02*
X187800083Y-109347801D01*
X187800083Y-109347801D02*
X187704845Y-109300182D01*
X187704845Y-109300182D02*
X187419131Y-109300182D01*
X187419131Y-109300182D02*
X187323893Y-109347801D01*
X187323893Y-109347801D02*
X187276274Y-109395420D01*
X187276274Y-109395420D02*
X187228655Y-109490658D01*
X187228655Y-109490658D02*
X187228655Y-109681134D01*
X187228655Y-109681134D02*
X187276274Y-109776372D01*
X187895322Y-110728753D02*
X187895322Y-110157325D01*
X187895322Y-110443039D02*
X186895322Y-110443039D01*
X186895322Y-110443039D02*
X187038179Y-110347801D01*
X187038179Y-110347801D02*
X187133417Y-110252563D01*
X187133417Y-110252563D02*
X187181036Y-110157325D01*
X186895322Y-111585896D02*
X186895322Y-111395420D01*
X186895322Y-111395420D02*
X186942941Y-111300182D01*
X186942941Y-111300182D02*
X186990560Y-111252563D01*
X186990560Y-111252563D02*
X187133417Y-111157325D01*
X187133417Y-111157325D02*
X187323893Y-111109706D01*
X187323893Y-111109706D02*
X187704845Y-111109706D01*
X187704845Y-111109706D02*
X187800083Y-111157325D01*
X187800083Y-111157325D02*
X187847703Y-111204944D01*
X187847703Y-111204944D02*
X187895322Y-111300182D01*
X187895322Y-111300182D02*
X187895322Y-111490658D01*
X187895322Y-111490658D02*
X187847703Y-111585896D01*
X187847703Y-111585896D02*
X187800083Y-111633515D01*
X187800083Y-111633515D02*
X187704845Y-111681134D01*
X187704845Y-111681134D02*
X187466750Y-111681134D01*
X187466750Y-111681134D02*
X187371512Y-111633515D01*
X187371512Y-111633515D02*
X187323893Y-111585896D01*
X187323893Y-111585896D02*
X187276274Y-111490658D01*
X187276274Y-111490658D02*
X187276274Y-111300182D01*
X187276274Y-111300182D02*
X187323893Y-111204944D01*
X187323893Y-111204944D02*
X187371512Y-111157325D01*
X187371512Y-111157325D02*
X187466750Y-111109706D01*
X186895322Y-112300182D02*
X186895322Y-112395420D01*
X186895322Y-112395420D02*
X186942941Y-112490658D01*
X186942941Y-112490658D02*
X186990560Y-112538277D01*
X186990560Y-112538277D02*
X187085798Y-112585896D01*
X187085798Y-112585896D02*
X187276274Y-112633515D01*
X187276274Y-112633515D02*
X187514369Y-112633515D01*
X187514369Y-112633515D02*
X187704845Y-112585896D01*
X187704845Y-112585896D02*
X187800083Y-112538277D01*
X187800083Y-112538277D02*
X187847703Y-112490658D01*
X187847703Y-112490658D02*
X187895322Y-112395420D01*
X187895322Y-112395420D02*
X187895322Y-112300182D01*
X187895322Y-112300182D02*
X187847703Y-112204944D01*
X187847703Y-112204944D02*
X187800083Y-112157325D01*
X187800083Y-112157325D02*
X187704845Y-112109706D01*
X187704845Y-112109706D02*
X187514369Y-112062087D01*
X187514369Y-112062087D02*
X187276274Y-112062087D01*
X187276274Y-112062087D02*
X187085798Y-112109706D01*
X187085798Y-112109706D02*
X186990560Y-112157325D01*
X186990560Y-112157325D02*
X186942941Y-112204944D01*
X186942941Y-112204944D02*
X186895322Y-112300182D01*
X187514369Y-113062087D02*
X187514369Y-113823992D01*
X187228655Y-114157325D02*
X187228655Y-114538277D01*
X186895322Y-114300182D02*
X187752464Y-114300182D01*
X187752464Y-114300182D02*
X187847703Y-114347801D01*
X187847703Y-114347801D02*
X187895322Y-114443039D01*
X187895322Y-114443039D02*
X187895322Y-114538277D01*
X187895322Y-115014468D02*
X187847703Y-114919230D01*
X187847703Y-114919230D02*
X187752464Y-114871611D01*
X187752464Y-114871611D02*
X186895322Y-114871611D01*
X187323893Y-115538278D02*
X187276274Y-115443040D01*
X187276274Y-115443040D02*
X187228655Y-115395421D01*
X187228655Y-115395421D02*
X187133417Y-115347802D01*
X187133417Y-115347802D02*
X187085798Y-115347802D01*
X187085798Y-115347802D02*
X186990560Y-115395421D01*
X186990560Y-115395421D02*
X186942941Y-115443040D01*
X186942941Y-115443040D02*
X186895322Y-115538278D01*
X186895322Y-115538278D02*
X186895322Y-115728754D01*
X186895322Y-115728754D02*
X186942941Y-115823992D01*
X186942941Y-115823992D02*
X186990560Y-115871611D01*
X186990560Y-115871611D02*
X187085798Y-115919230D01*
X187085798Y-115919230D02*
X187133417Y-115919230D01*
X187133417Y-115919230D02*
X187228655Y-115871611D01*
X187228655Y-115871611D02*
X187276274Y-115823992D01*
X187276274Y-115823992D02*
X187323893Y-115728754D01*
X187323893Y-115728754D02*
X187323893Y-115538278D01*
X187323893Y-115538278D02*
X187371512Y-115443040D01*
X187371512Y-115443040D02*
X187419131Y-115395421D01*
X187419131Y-115395421D02*
X187514369Y-115347802D01*
X187514369Y-115347802D02*
X187704845Y-115347802D01*
X187704845Y-115347802D02*
X187800083Y-115395421D01*
X187800083Y-115395421D02*
X187847703Y-115443040D01*
X187847703Y-115443040D02*
X187895322Y-115538278D01*
X187895322Y-115538278D02*
X187895322Y-115728754D01*
X187895322Y-115728754D02*
X187847703Y-115823992D01*
X187847703Y-115823992D02*
X187800083Y-115871611D01*
X187800083Y-115871611D02*
X187704845Y-115919230D01*
X187704845Y-115919230D02*
X187514369Y-115919230D01*
X187514369Y-115919230D02*
X187419131Y-115871611D01*
X187419131Y-115871611D02*
X187371512Y-115823992D01*
X187371512Y-115823992D02*
X187323893Y-115728754D01*
X186895322Y-116776373D02*
X186895322Y-116585897D01*
X186895322Y-116585897D02*
X186942941Y-116490659D01*
X186942941Y-116490659D02*
X186990560Y-116443040D01*
X186990560Y-116443040D02*
X187133417Y-116347802D01*
X187133417Y-116347802D02*
X187323893Y-116300183D01*
X187323893Y-116300183D02*
X187704845Y-116300183D01*
X187704845Y-116300183D02*
X187800083Y-116347802D01*
X187800083Y-116347802D02*
X187847703Y-116395421D01*
X187847703Y-116395421D02*
X187895322Y-116490659D01*
X187895322Y-116490659D02*
X187895322Y-116681135D01*
X187895322Y-116681135D02*
X187847703Y-116776373D01*
X187847703Y-116776373D02*
X187800083Y-116823992D01*
X187800083Y-116823992D02*
X187704845Y-116871611D01*
X187704845Y-116871611D02*
X187466750Y-116871611D01*
X187466750Y-116871611D02*
X187371512Y-116823992D01*
X187371512Y-116823992D02*
X187323893Y-116776373D01*
X187323893Y-116776373D02*
X187276274Y-116681135D01*
X187276274Y-116681135D02*
X187276274Y-116490659D01*
X187276274Y-116490659D02*
X187323893Y-116395421D01*
X187323893Y-116395421D02*
X187371512Y-116347802D01*
X187371512Y-116347802D02*
X187466750Y-116300183D01*
X186895322Y-117728754D02*
X186895322Y-117538278D01*
X186895322Y-117538278D02*
X186942941Y-117443040D01*
X186942941Y-117443040D02*
X186990560Y-117395421D01*
X186990560Y-117395421D02*
X187133417Y-117300183D01*
X187133417Y-117300183D02*
X187323893Y-117252564D01*
X187323893Y-117252564D02*
X187704845Y-117252564D01*
X187704845Y-117252564D02*
X187800083Y-117300183D01*
X187800083Y-117300183D02*
X187847703Y-117347802D01*
X187847703Y-117347802D02*
X187895322Y-117443040D01*
X187895322Y-117443040D02*
X187895322Y-117633516D01*
X187895322Y-117633516D02*
X187847703Y-117728754D01*
X187847703Y-117728754D02*
X187800083Y-117776373D01*
X187800083Y-117776373D02*
X187704845Y-117823992D01*
X187704845Y-117823992D02*
X187466750Y-117823992D01*
X187466750Y-117823992D02*
X187371512Y-117776373D01*
X187371512Y-117776373D02*
X187323893Y-117728754D01*
X187323893Y-117728754D02*
X187276274Y-117633516D01*
X187276274Y-117633516D02*
X187276274Y-117443040D01*
X187276274Y-117443040D02*
X187323893Y-117347802D01*
X187323893Y-117347802D02*
X187371512Y-117300183D01*
X187371512Y-117300183D02*
X187466750Y-117252564D01*
X187514369Y-118252564D02*
X187514369Y-119014469D01*
X187895322Y-119919230D02*
X187371512Y-119919230D01*
X187371512Y-119919230D02*
X187276274Y-119871611D01*
X187276274Y-119871611D02*
X187228655Y-119776373D01*
X187228655Y-119776373D02*
X187228655Y-119585897D01*
X187228655Y-119585897D02*
X187276274Y-119490659D01*
X187847703Y-119919230D02*
X187895322Y-119823992D01*
X187895322Y-119823992D02*
X187895322Y-119585897D01*
X187895322Y-119585897D02*
X187847703Y-119490659D01*
X187847703Y-119490659D02*
X187752464Y-119443040D01*
X187752464Y-119443040D02*
X187657226Y-119443040D01*
X187657226Y-119443040D02*
X187561988Y-119490659D01*
X187561988Y-119490659D02*
X187514369Y-119585897D01*
X187514369Y-119585897D02*
X187514369Y-119823992D01*
X187514369Y-119823992D02*
X187466750Y-119919230D01*
X187895322Y-120823992D02*
X186895322Y-120823992D01*
X187847703Y-120823992D02*
X187895322Y-120728754D01*
X187895322Y-120728754D02*
X187895322Y-120538278D01*
X187895322Y-120538278D02*
X187847703Y-120443040D01*
X187847703Y-120443040D02*
X187800083Y-120395421D01*
X187800083Y-120395421D02*
X187704845Y-120347802D01*
X187704845Y-120347802D02*
X187419131Y-120347802D01*
X187419131Y-120347802D02*
X187323893Y-120395421D01*
X187323893Y-120395421D02*
X187276274Y-120443040D01*
X187276274Y-120443040D02*
X187228655Y-120538278D01*
X187228655Y-120538278D02*
X187228655Y-120728754D01*
X187228655Y-120728754D02*
X187276274Y-120823992D01*
X187895322Y-121728754D02*
X187371512Y-121728754D01*
X187371512Y-121728754D02*
X187276274Y-121681135D01*
X187276274Y-121681135D02*
X187228655Y-121585897D01*
X187228655Y-121585897D02*
X187228655Y-121395421D01*
X187228655Y-121395421D02*
X187276274Y-121300183D01*
X187847703Y-121728754D02*
X187895322Y-121633516D01*
X187895322Y-121633516D02*
X187895322Y-121395421D01*
X187895322Y-121395421D02*
X187847703Y-121300183D01*
X187847703Y-121300183D02*
X187752464Y-121252564D01*
X187752464Y-121252564D02*
X187657226Y-121252564D01*
X187657226Y-121252564D02*
X187561988Y-121300183D01*
X187561988Y-121300183D02*
X187514369Y-121395421D01*
X187514369Y-121395421D02*
X187514369Y-121633516D01*
X187514369Y-121633516D02*
X187466750Y-121728754D01*
X187228655Y-122204945D02*
X188228655Y-122204945D01*
X187276274Y-122204945D02*
X187228655Y-122300183D01*
X187228655Y-122300183D02*
X187228655Y-122490659D01*
X187228655Y-122490659D02*
X187276274Y-122585897D01*
X187276274Y-122585897D02*
X187323893Y-122633516D01*
X187323893Y-122633516D02*
X187419131Y-122681135D01*
X187419131Y-122681135D02*
X187704845Y-122681135D01*
X187704845Y-122681135D02*
X187800083Y-122633516D01*
X187800083Y-122633516D02*
X187847703Y-122585897D01*
X187847703Y-122585897D02*
X187895322Y-122490659D01*
X187895322Y-122490659D02*
X187895322Y-122300183D01*
X187895322Y-122300183D02*
X187847703Y-122204945D01*
X187228655Y-122966850D02*
X187228655Y-123347802D01*
X186895322Y-123109707D02*
X187752464Y-123109707D01*
X187752464Y-123109707D02*
X187847703Y-123157326D01*
X187847703Y-123157326D02*
X187895322Y-123252564D01*
X187895322Y-123252564D02*
X187895322Y-123347802D01*
X187847703Y-124062088D02*
X187895322Y-123966850D01*
X187895322Y-123966850D02*
X187895322Y-123776374D01*
X187895322Y-123776374D02*
X187847703Y-123681136D01*
X187847703Y-123681136D02*
X187752464Y-123633517D01*
X187752464Y-123633517D02*
X187371512Y-123633517D01*
X187371512Y-123633517D02*
X187276274Y-123681136D01*
X187276274Y-123681136D02*
X187228655Y-123776374D01*
X187228655Y-123776374D02*
X187228655Y-123966850D01*
X187228655Y-123966850D02*
X187276274Y-124062088D01*
X187276274Y-124062088D02*
X187371512Y-124109707D01*
X187371512Y-124109707D02*
X187466750Y-124109707D01*
X187466750Y-124109707D02*
X187561988Y-123633517D01*
X187895322Y-124538279D02*
X187228655Y-124538279D01*
X187419131Y-124538279D02*
X187323893Y-124585898D01*
X187323893Y-124585898D02*
X187276274Y-124633517D01*
X187276274Y-124633517D02*
X187228655Y-124728755D01*
X187228655Y-124728755D02*
X187228655Y-124823993D01*
D11*
X112138591Y-88386867D02*
X111380219Y-87856007D01*
X112138591Y-87476821D02*
X110546011Y-87476821D01*
X110546011Y-87476821D02*
X110546011Y-88083518D01*
X110546011Y-88083518D02*
X110621848Y-88235193D01*
X110621848Y-88235193D02*
X110697685Y-88311030D01*
X110697685Y-88311030D02*
X110849359Y-88386867D01*
X110849359Y-88386867D02*
X111076871Y-88386867D01*
X111076871Y-88386867D02*
X111228545Y-88311030D01*
X111228545Y-88311030D02*
X111304382Y-88235193D01*
X111304382Y-88235193D02*
X111380219Y-88083518D01*
X111380219Y-88083518D02*
X111380219Y-87476821D01*
X112138591Y-89903610D02*
X112138591Y-88993564D01*
X112138591Y-89448587D02*
X110546011Y-89448587D01*
X110546011Y-89448587D02*
X110773522Y-89296913D01*
X110773522Y-89296913D02*
X110925196Y-89145238D01*
X110925196Y-89145238D02*
X111001034Y-88993564D01*
X111531894Y-90586144D02*
X111531894Y-91799539D01*
X110546011Y-93316282D02*
X110546011Y-92557910D01*
X110546011Y-92557910D02*
X111304382Y-92482073D01*
X111304382Y-92482073D02*
X111228545Y-92557910D01*
X111228545Y-92557910D02*
X111152708Y-92709585D01*
X111152708Y-92709585D02*
X111152708Y-93088770D01*
X111152708Y-93088770D02*
X111228545Y-93240445D01*
X111228545Y-93240445D02*
X111304382Y-93316282D01*
X111304382Y-93316282D02*
X111456056Y-93392119D01*
X111456056Y-93392119D02*
X111835242Y-93392119D01*
X111835242Y-93392119D02*
X111986916Y-93316282D01*
X111986916Y-93316282D02*
X112062754Y-93240445D01*
X112062754Y-93240445D02*
X112138591Y-93088770D01*
X112138591Y-93088770D02*
X112138591Y-92709585D01*
X112138591Y-92709585D02*
X112062754Y-92557910D01*
X112062754Y-92557910D02*
X111986916Y-92482073D01*
X111986916Y-94074653D02*
X112062754Y-94150490D01*
X112062754Y-94150490D02*
X112138591Y-94074653D01*
X112138591Y-94074653D02*
X112062754Y-93998816D01*
X112062754Y-93998816D02*
X111986916Y-94074653D01*
X111986916Y-94074653D02*
X112138591Y-94074653D01*
X111152708Y-94074653D02*
X111228545Y-94150490D01*
X111228545Y-94150490D02*
X111304382Y-94074653D01*
X111304382Y-94074653D02*
X111228545Y-93998816D01*
X111228545Y-93998816D02*
X111152708Y-94074653D01*
X111152708Y-94074653D02*
X111304382Y-94074653D01*
X112138591Y-96880627D02*
X112138591Y-95970581D01*
X112138591Y-96425604D02*
X110546011Y-96425604D01*
X110546011Y-96425604D02*
X110773522Y-96273930D01*
X110773522Y-96273930D02*
X110925196Y-96122255D01*
X110925196Y-96122255D02*
X111001034Y-95970581D01*
X110546011Y-97866510D02*
X110546011Y-98018184D01*
X110546011Y-98018184D02*
X110621848Y-98169858D01*
X110621848Y-98169858D02*
X110697685Y-98245696D01*
X110697685Y-98245696D02*
X110849359Y-98321533D01*
X110849359Y-98321533D02*
X111152708Y-98397370D01*
X111152708Y-98397370D02*
X111531894Y-98397370D01*
X111531894Y-98397370D02*
X111835242Y-98321533D01*
X111835242Y-98321533D02*
X111986916Y-98245696D01*
X111986916Y-98245696D02*
X112062754Y-98169858D01*
X112062754Y-98169858D02*
X112138591Y-98018184D01*
X112138591Y-98018184D02*
X112138591Y-97866510D01*
X112138591Y-97866510D02*
X112062754Y-97714836D01*
X112062754Y-97714836D02*
X111986916Y-97638998D01*
X111986916Y-97638998D02*
X111835242Y-97563161D01*
X111835242Y-97563161D02*
X111531894Y-97487324D01*
X111531894Y-97487324D02*
X111152708Y-97487324D01*
X111152708Y-97487324D02*
X110849359Y-97563161D01*
X110849359Y-97563161D02*
X110697685Y-97638998D01*
X110697685Y-97638998D02*
X110621848Y-97714836D01*
X110621848Y-97714836D02*
X110546011Y-97866510D01*
X112138591Y-99079904D02*
X110546011Y-99079904D01*
X111531894Y-99231579D02*
X112138591Y-99686601D01*
X111076871Y-99686601D02*
X111683568Y-99079904D01*
X110546011Y-100672484D02*
X110546011Y-100975832D01*
X110546011Y-100975832D02*
X110621848Y-101127507D01*
X110621848Y-101127507D02*
X110773522Y-101279181D01*
X110773522Y-101279181D02*
X111076871Y-101355018D01*
X111076871Y-101355018D02*
X111607731Y-101355018D01*
X111607731Y-101355018D02*
X111911079Y-101279181D01*
X111911079Y-101279181D02*
X112062754Y-101127507D01*
X112062754Y-101127507D02*
X112138591Y-100975832D01*
X112138591Y-100975832D02*
X112138591Y-100672484D01*
X112138591Y-100672484D02*
X112062754Y-100520810D01*
X112062754Y-100520810D02*
X111911079Y-100369135D01*
X111911079Y-100369135D02*
X111607731Y-100293298D01*
X111607731Y-100293298D02*
X111076871Y-100293298D01*
X111076871Y-100293298D02*
X110773522Y-100369135D01*
X110773522Y-100369135D02*
X110621848Y-100520810D01*
X110621848Y-100520810D02*
X110546011Y-100672484D01*
X112138591Y-102037552D02*
X110546011Y-102037552D01*
X112138591Y-102720087D02*
X111304382Y-102720087D01*
X111304382Y-102720087D02*
X111152708Y-102644249D01*
X111152708Y-102644249D02*
X111076871Y-102492575D01*
X111076871Y-102492575D02*
X111076871Y-102265064D01*
X111076871Y-102265064D02*
X111152708Y-102113389D01*
X111152708Y-102113389D02*
X111228545Y-102037552D01*
X112138591Y-103478458D02*
X111076871Y-103478458D01*
X111228545Y-103478458D02*
X111152708Y-103554295D01*
X111152708Y-103554295D02*
X111076871Y-103705970D01*
X111076871Y-103705970D02*
X111076871Y-103933481D01*
X111076871Y-103933481D02*
X111152708Y-104085155D01*
X111152708Y-104085155D02*
X111304382Y-104160993D01*
X111304382Y-104160993D02*
X112138591Y-104160993D01*
X111304382Y-104160993D02*
X111152708Y-104236830D01*
X111152708Y-104236830D02*
X111076871Y-104388504D01*
X111076871Y-104388504D02*
X111076871Y-104616015D01*
X111076871Y-104616015D02*
X111152708Y-104767690D01*
X111152708Y-104767690D02*
X111304382Y-104843527D01*
X111304382Y-104843527D02*
X112138591Y-104843527D01*
X114854319Y-88538541D02*
X114778482Y-88386867D01*
X114778482Y-88386867D02*
X114626808Y-88235193D01*
X114626808Y-88235193D02*
X114399296Y-88007681D01*
X114399296Y-88007681D02*
X114323459Y-87856007D01*
X114323459Y-87856007D02*
X114323459Y-87704333D01*
X114702645Y-87780170D02*
X114626808Y-87628496D01*
X114626808Y-87628496D02*
X114475133Y-87476821D01*
X114475133Y-87476821D02*
X114171785Y-87400984D01*
X114171785Y-87400984D02*
X113640925Y-87400984D01*
X113640925Y-87400984D02*
X113337576Y-87476821D01*
X113337576Y-87476821D02*
X113185902Y-87628496D01*
X113185902Y-87628496D02*
X113110065Y-87780170D01*
X113110065Y-87780170D02*
X113110065Y-88083518D01*
X113110065Y-88083518D02*
X113185902Y-88235193D01*
X113185902Y-88235193D02*
X113337576Y-88386867D01*
X113337576Y-88386867D02*
X113640925Y-88462704D01*
X113640925Y-88462704D02*
X114171785Y-88462704D01*
X114171785Y-88462704D02*
X114475133Y-88386867D01*
X114475133Y-88386867D02*
X114626808Y-88235193D01*
X114626808Y-88235193D02*
X114702645Y-88083518D01*
X114702645Y-88083518D02*
X114702645Y-87780170D01*
X114702645Y-89979447D02*
X114702645Y-89069401D01*
X114702645Y-89524424D02*
X113110065Y-89524424D01*
X113110065Y-89524424D02*
X113337576Y-89372750D01*
X113337576Y-89372750D02*
X113489250Y-89221075D01*
X113489250Y-89221075D02*
X113565088Y-89069401D01*
X114550970Y-90661981D02*
X114626808Y-90737818D01*
X114626808Y-90737818D02*
X114702645Y-90661981D01*
X114702645Y-90661981D02*
X114626808Y-90586144D01*
X114626808Y-90586144D02*
X114550970Y-90661981D01*
X114550970Y-90661981D02*
X114702645Y-90661981D01*
X113716762Y-90661981D02*
X113792599Y-90737818D01*
X113792599Y-90737818D02*
X113868436Y-90661981D01*
X113868436Y-90661981D02*
X113792599Y-90586144D01*
X113792599Y-90586144D02*
X113716762Y-90661981D01*
X113716762Y-90661981D02*
X113868436Y-90661981D01*
X113868436Y-95591394D02*
X113944273Y-95818906D01*
X113944273Y-95818906D02*
X114020110Y-95894743D01*
X114020110Y-95894743D02*
X114171785Y-95970580D01*
X114171785Y-95970580D02*
X114399296Y-95970580D01*
X114399296Y-95970580D02*
X114550970Y-95894743D01*
X114550970Y-95894743D02*
X114626808Y-95818906D01*
X114626808Y-95818906D02*
X114702645Y-95667231D01*
X114702645Y-95667231D02*
X114702645Y-95060534D01*
X114702645Y-95060534D02*
X113110065Y-95060534D01*
X113110065Y-95060534D02*
X113110065Y-95591394D01*
X113110065Y-95591394D02*
X113185902Y-95743069D01*
X113185902Y-95743069D02*
X113261739Y-95818906D01*
X113261739Y-95818906D02*
X113413413Y-95894743D01*
X113413413Y-95894743D02*
X113565088Y-95894743D01*
X113565088Y-95894743D02*
X113716762Y-95818906D01*
X113716762Y-95818906D02*
X113792599Y-95743069D01*
X113792599Y-95743069D02*
X113868436Y-95591394D01*
X113868436Y-95591394D02*
X113868436Y-95060534D01*
X114550970Y-97563160D02*
X114626808Y-97487323D01*
X114626808Y-97487323D02*
X114702645Y-97259811D01*
X114702645Y-97259811D02*
X114702645Y-97108137D01*
X114702645Y-97108137D02*
X114626808Y-96880626D01*
X114626808Y-96880626D02*
X114475133Y-96728951D01*
X114475133Y-96728951D02*
X114323459Y-96653114D01*
X114323459Y-96653114D02*
X114020110Y-96577277D01*
X114020110Y-96577277D02*
X113792599Y-96577277D01*
X113792599Y-96577277D02*
X113489250Y-96653114D01*
X113489250Y-96653114D02*
X113337576Y-96728951D01*
X113337576Y-96728951D02*
X113185902Y-96880626D01*
X113185902Y-96880626D02*
X113110065Y-97108137D01*
X113110065Y-97108137D02*
X113110065Y-97259811D01*
X113110065Y-97259811D02*
X113185902Y-97487323D01*
X113185902Y-97487323D02*
X113261739Y-97563160D01*
X113110065Y-98094020D02*
X113110065Y-99079903D01*
X113110065Y-99079903D02*
X113716762Y-98549043D01*
X113716762Y-98549043D02*
X113716762Y-98776554D01*
X113716762Y-98776554D02*
X113792599Y-98928229D01*
X113792599Y-98928229D02*
X113868436Y-99004066D01*
X113868436Y-99004066D02*
X114020110Y-99079903D01*
X114020110Y-99079903D02*
X114399296Y-99079903D01*
X114399296Y-99079903D02*
X114550970Y-99004066D01*
X114550970Y-99004066D02*
X114626808Y-98928229D01*
X114626808Y-98928229D02*
X114702645Y-98776554D01*
X114702645Y-98776554D02*
X114702645Y-98321531D01*
X114702645Y-98321531D02*
X114626808Y-98169857D01*
X114626808Y-98169857D02*
X114550970Y-98094020D01*
X113261739Y-99686600D02*
X113185902Y-99762437D01*
X113185902Y-99762437D02*
X113110065Y-99914112D01*
X113110065Y-99914112D02*
X113110065Y-100293297D01*
X113110065Y-100293297D02*
X113185902Y-100444972D01*
X113185902Y-100444972D02*
X113261739Y-100520809D01*
X113261739Y-100520809D02*
X113413413Y-100596646D01*
X113413413Y-100596646D02*
X113565088Y-100596646D01*
X113565088Y-100596646D02*
X113792599Y-100520809D01*
X113792599Y-100520809D02*
X114702645Y-99610763D01*
X114702645Y-99610763D02*
X114702645Y-100596646D01*
X113110065Y-101127506D02*
X113110065Y-102189226D01*
X113110065Y-102189226D02*
X114702645Y-101506692D01*
%TO.C,REF01*%
D12*
X137266541Y-121655956D02*
X137347207Y-121685920D01*
X137380754Y-121708434D01*
X137414727Y-121740692D01*
X137438959Y-121781726D01*
X137455041Y-121837588D01*
X137464561Y-121914331D01*
X137469108Y-122018005D01*
X137470271Y-122154664D01*
X137470043Y-122225285D01*
X137468900Y-122321788D01*
X137466959Y-122398803D01*
X137464405Y-122449799D01*
X137461421Y-122468249D01*
X137442002Y-122462147D01*
X137402806Y-122445575D01*
X137401629Y-122445038D01*
X137381275Y-122434383D01*
X137367586Y-122419762D01*
X137359239Y-122394153D01*
X137354914Y-122350534D01*
X137353288Y-122281883D01*
X137353040Y-122181178D01*
X137352540Y-122117293D01*
X137347204Y-121997231D01*
X137334985Y-121909289D01*
X137314592Y-121848855D01*
X137284735Y-121811316D01*
X137244122Y-121792061D01*
X137238488Y-121790719D01*
X137162418Y-121789671D01*
X137103092Y-121823751D01*
X137062117Y-121892078D01*
X137054810Y-121911831D01*
X137038154Y-121955546D01*
X137029719Y-121975635D01*
X137012396Y-121972867D01*
X136974565Y-121957845D01*
X136939280Y-121933036D01*
X136923194Y-121886150D01*
X136927992Y-121852567D01*
X136957471Y-121784447D01*
X137005138Y-121720614D01*
X137060879Y-121676468D01*
X137084233Y-121666262D01*
X137172659Y-121649198D01*
X137266541Y-121655956D01*
G36*
X137266541Y-121655956D02*
G01*
X137347207Y-121685920D01*
X137380754Y-121708434D01*
X137414727Y-121740692D01*
X137438959Y-121781726D01*
X137455041Y-121837588D01*
X137464561Y-121914331D01*
X137469108Y-122018005D01*
X137470271Y-122154664D01*
X137470043Y-122225285D01*
X137468900Y-122321788D01*
X137466959Y-122398803D01*
X137464405Y-122449799D01*
X137461421Y-122468249D01*
X137442002Y-122462147D01*
X137402806Y-122445575D01*
X137401629Y-122445038D01*
X137381275Y-122434383D01*
X137367586Y-122419762D01*
X137359239Y-122394153D01*
X137354914Y-122350534D01*
X137353288Y-122281883D01*
X137353040Y-122181178D01*
X137352540Y-122117293D01*
X137347204Y-121997231D01*
X137334985Y-121909289D01*
X137314592Y-121848855D01*
X137284735Y-121811316D01*
X137244122Y-121792061D01*
X137238488Y-121790719D01*
X137162418Y-121789671D01*
X137103092Y-121823751D01*
X137062117Y-121892078D01*
X137054810Y-121911831D01*
X137038154Y-121955546D01*
X137029719Y-121975635D01*
X137012396Y-121972867D01*
X136974565Y-121957845D01*
X136939280Y-121933036D01*
X136923194Y-121886150D01*
X136927992Y-121852567D01*
X136957471Y-121784447D01*
X137005138Y-121720614D01*
X137060879Y-121676468D01*
X137084233Y-121666262D01*
X137172659Y-121649198D01*
X137266541Y-121655956D01*
G37*
X142581412Y-121611164D02*
X142672669Y-121654049D01*
X142747456Y-121728209D01*
X142762957Y-121751424D01*
X142775814Y-121777736D01*
X142784933Y-121810900D01*
X142791142Y-121857361D01*
X142795273Y-121923562D01*
X142798156Y-122015948D01*
X142800619Y-122140965D01*
X142806737Y-122487758D01*
X142755343Y-122468218D01*
X142708286Y-122450267D01*
X142673055Y-122432991D01*
X142650057Y-122410722D01*
X142636695Y-122376645D01*
X142630368Y-122323943D01*
X142628477Y-122245803D01*
X142628425Y-122135408D01*
X142628157Y-122047415D01*
X142626561Y-121962982D01*
X142622752Y-121905314D01*
X142615860Y-121867468D01*
X142605015Y-121842504D01*
X142589348Y-121823480D01*
X142550832Y-121796633D01*
X142486131Y-121786514D01*
X142422121Y-121812086D01*
X142417896Y-121815360D01*
X142404729Y-121830487D01*
X142395015Y-121854748D01*
X142387943Y-121894130D01*
X142382696Y-121954621D01*
X142378461Y-122042209D01*
X142374425Y-122162882D01*
X142364655Y-122485995D01*
X142198579Y-122411545D01*
X142198579Y-122116542D01*
X142198923Y-122036399D01*
X142201887Y-121924911D01*
X142209391Y-121841901D01*
X142223230Y-121780679D01*
X142245195Y-121734555D01*
X142277079Y-121696838D01*
X142320673Y-121660838D01*
X142383376Y-121624569D01*
X142482157Y-121600892D01*
X142581412Y-121611164D01*
G36*
X142581412Y-121611164D02*
G01*
X142672669Y-121654049D01*
X142747456Y-121728209D01*
X142762957Y-121751424D01*
X142775814Y-121777736D01*
X142784933Y-121810900D01*
X142791142Y-121857361D01*
X142795273Y-121923562D01*
X142798156Y-122015948D01*
X142800619Y-122140965D01*
X142806737Y-122487758D01*
X142755343Y-122468218D01*
X142708286Y-122450267D01*
X142673055Y-122432991D01*
X142650057Y-122410722D01*
X142636695Y-122376645D01*
X142630368Y-122323943D01*
X142628477Y-122245803D01*
X142628425Y-122135408D01*
X142628157Y-122047415D01*
X142626561Y-121962982D01*
X142622752Y-121905314D01*
X142615860Y-121867468D01*
X142605015Y-121842504D01*
X142589348Y-121823480D01*
X142550832Y-121796633D01*
X142486131Y-121786514D01*
X142422121Y-121812086D01*
X142417896Y-121815360D01*
X142404729Y-121830487D01*
X142395015Y-121854748D01*
X142387943Y-121894130D01*
X142382696Y-121954621D01*
X142378461Y-122042209D01*
X142374425Y-122162882D01*
X142364655Y-122485995D01*
X142198579Y-122411545D01*
X142198579Y-122116542D01*
X142198923Y-122036399D01*
X142201887Y-121924911D01*
X142209391Y-121841901D01*
X142223230Y-121780679D01*
X142245195Y-121734555D01*
X142277079Y-121696838D01*
X142320673Y-121660838D01*
X142383376Y-121624569D01*
X142482157Y-121600892D01*
X142581412Y-121611164D01*
G37*
X140126932Y-121676647D02*
X140133100Y-121680061D01*
X140183487Y-121719172D01*
X140228538Y-121769455D01*
X140236395Y-121780819D01*
X140251416Y-121807340D01*
X140262147Y-121838816D01*
X140269526Y-121882071D01*
X140274492Y-121943929D01*
X140277982Y-122031213D01*
X140280933Y-122150749D01*
X140281351Y-122170958D01*
X140282694Y-122301979D01*
X140280801Y-122394776D01*
X140275645Y-122449987D01*
X140267198Y-122468249D01*
X140241634Y-122462781D01*
X140198206Y-122446213D01*
X140187980Y-122441368D01*
X140172007Y-122430400D01*
X140160994Y-122412370D01*
X140153790Y-122380876D01*
X140149248Y-122329516D01*
X140146220Y-122251890D01*
X140143556Y-122141595D01*
X140142825Y-122109355D01*
X140140005Y-122007530D01*
X140136344Y-121936268D01*
X140130734Y-121888812D01*
X140122069Y-121858405D01*
X140109242Y-121838290D01*
X140091145Y-121821709D01*
X140037565Y-121792641D01*
X139971652Y-121787044D01*
X139912675Y-121809287D01*
X139870243Y-121855339D01*
X139853963Y-121921172D01*
X139853510Y-121939067D01*
X139844618Y-121971462D01*
X139818365Y-121976405D01*
X139766959Y-121957113D01*
X139755053Y-121950926D01*
X139722875Y-121914538D01*
X139722238Y-121860434D01*
X139752896Y-121785608D01*
X139781018Y-121744830D01*
X139852923Y-121686901D01*
X139941678Y-121654150D01*
X140036582Y-121649692D01*
X140126932Y-121676647D01*
G36*
X140126932Y-121676647D02*
G01*
X140133100Y-121680061D01*
X140183487Y-121719172D01*
X140228538Y-121769455D01*
X140236395Y-121780819D01*
X140251416Y-121807340D01*
X140262147Y-121838816D01*
X140269526Y-121882071D01*
X140274492Y-121943929D01*
X140277982Y-122031213D01*
X140280933Y-122150749D01*
X140281351Y-122170958D01*
X140282694Y-122301979D01*
X140280801Y-122394776D01*
X140275645Y-122449987D01*
X140267198Y-122468249D01*
X140241634Y-122462781D01*
X140198206Y-122446213D01*
X140187980Y-122441368D01*
X140172007Y-122430400D01*
X140160994Y-122412370D01*
X140153790Y-122380876D01*
X140149248Y-122329516D01*
X140146220Y-122251890D01*
X140143556Y-122141595D01*
X140142825Y-122109355D01*
X140140005Y-122007530D01*
X140136344Y-121936268D01*
X140130734Y-121888812D01*
X140122069Y-121858405D01*
X140109242Y-121838290D01*
X140091145Y-121821709D01*
X140037565Y-121792641D01*
X139971652Y-121787044D01*
X139912675Y-121809287D01*
X139870243Y-121855339D01*
X139853963Y-121921172D01*
X139853510Y-121939067D01*
X139844618Y-121971462D01*
X139818365Y-121976405D01*
X139766959Y-121957113D01*
X139755053Y-121950926D01*
X139722875Y-121914538D01*
X139722238Y-121860434D01*
X139752896Y-121785608D01*
X139781018Y-121744830D01*
X139852923Y-121686901D01*
X139941678Y-121654150D01*
X140036582Y-121649692D01*
X140126932Y-121676647D01*
G37*
X141631963Y-121411286D02*
X141631963Y-121945935D01*
X141631700Y-122084574D01*
X141630998Y-122209285D01*
X141629923Y-122315037D01*
X141628540Y-122396802D01*
X141626914Y-122449549D01*
X141625110Y-122468249D01*
X141624404Y-122468186D01*
X141600427Y-122461392D01*
X141556725Y-122446800D01*
X141495194Y-122425350D01*
X141495194Y-122150097D01*
X141494803Y-122041946D01*
X141492986Y-121963506D01*
X141488807Y-121910127D01*
X141481326Y-121874736D01*
X141469607Y-121850259D01*
X141452711Y-121829624D01*
X141441192Y-121818650D01*
X141378904Y-121788255D01*
X141310251Y-121790946D01*
X141247338Y-121826886D01*
X141238179Y-121835805D01*
X141223511Y-121854324D01*
X141213473Y-121878806D01*
X141207191Y-121915873D01*
X141203788Y-121972147D01*
X141202389Y-122054251D01*
X141202117Y-122168809D01*
X141201987Y-122226910D01*
X141201139Y-122322473D01*
X141199634Y-122399006D01*
X141197625Y-122449825D01*
X141195263Y-122468249D01*
X141194558Y-122468186D01*
X141170581Y-122461392D01*
X141126879Y-122446800D01*
X141065348Y-122425350D01*
X141065378Y-122148838D01*
X141065424Y-122124222D01*
X141068010Y-121995899D01*
X141075953Y-121898864D01*
X141091195Y-121826537D01*
X141115676Y-121772335D01*
X141151338Y-121729678D01*
X141200122Y-121691985D01*
X141247701Y-121668390D01*
X141323772Y-121650152D01*
X141398596Y-121649116D01*
X141456117Y-121666858D01*
X141460442Y-121669309D01*
X141473778Y-121669046D01*
X141482891Y-121648519D01*
X141489468Y-121601460D01*
X141495194Y-121521600D01*
X141504963Y-121357716D01*
X141631963Y-121411286D01*
G36*
X141631963Y-121411286D02*
G01*
X141631963Y-121945935D01*
X141631700Y-122084574D01*
X141630998Y-122209285D01*
X141629923Y-122315037D01*
X141628540Y-122396802D01*
X141626914Y-122449549D01*
X141625110Y-122468249D01*
X141624404Y-122468186D01*
X141600427Y-122461392D01*
X141556725Y-122446800D01*
X141495194Y-122425350D01*
X141495194Y-122150097D01*
X141494803Y-122041946D01*
X141492986Y-121963506D01*
X141488807Y-121910127D01*
X141481326Y-121874736D01*
X141469607Y-121850259D01*
X141452711Y-121829624D01*
X141441192Y-121818650D01*
X141378904Y-121788255D01*
X141310251Y-121790946D01*
X141247338Y-121826886D01*
X141238179Y-121835805D01*
X141223511Y-121854324D01*
X141213473Y-121878806D01*
X141207191Y-121915873D01*
X141203788Y-121972147D01*
X141202389Y-122054251D01*
X141202117Y-122168809D01*
X141201987Y-122226910D01*
X141201139Y-122322473D01*
X141199634Y-122399006D01*
X141197625Y-122449825D01*
X141195263Y-122468249D01*
X141194558Y-122468186D01*
X141170581Y-122461392D01*
X141126879Y-122446800D01*
X141065348Y-122425350D01*
X141065378Y-122148838D01*
X141065424Y-122124222D01*
X141068010Y-121995899D01*
X141075953Y-121898864D01*
X141091195Y-121826537D01*
X141115676Y-121772335D01*
X141151338Y-121729678D01*
X141200122Y-121691985D01*
X141247701Y-121668390D01*
X141323772Y-121650152D01*
X141398596Y-121649116D01*
X141456117Y-121666858D01*
X141460442Y-121669309D01*
X141473778Y-121669046D01*
X141482891Y-121648519D01*
X141489468Y-121601460D01*
X141495194Y-121521600D01*
X141504963Y-121357716D01*
X141631963Y-121411286D01*
G37*
X138843038Y-121653514D02*
X138885890Y-121670309D01*
X138935655Y-121692983D01*
X138935655Y-122348013D01*
X138873825Y-122409843D01*
X138859702Y-122423708D01*
X138820576Y-122454526D01*
X138781118Y-122464508D01*
X138722402Y-122459913D01*
X138698496Y-122456942D01*
X138636841Y-122450656D01*
X138593732Y-122448152D01*
X138580945Y-122448535D01*
X138528486Y-122452680D01*
X138465062Y-122459913D01*
X138444770Y-122462398D01*
X138393650Y-122463375D01*
X138356247Y-122447942D01*
X138313639Y-122409843D01*
X138251809Y-122348013D01*
X138251809Y-121997823D01*
X138252291Y-121894337D01*
X138253793Y-121795672D01*
X138256129Y-121717548D01*
X138259111Y-121666142D01*
X138262549Y-121647634D01*
X138263270Y-121647684D01*
X138288243Y-121656893D01*
X138330439Y-121677187D01*
X138387589Y-121706741D01*
X138392968Y-122014226D01*
X138398348Y-122321711D01*
X138515579Y-122321711D01*
X138520925Y-121984672D01*
X138522619Y-121893054D01*
X138525045Y-121795129D01*
X138527674Y-121717386D01*
X138530286Y-121666122D01*
X138532663Y-121647634D01*
X138533346Y-121647699D01*
X138557036Y-121654500D01*
X138600586Y-121669084D01*
X138662117Y-121690534D01*
X138662416Y-121986584D01*
X138662716Y-122038012D01*
X138664794Y-122137946D01*
X138668510Y-122221405D01*
X138673470Y-122280857D01*
X138679280Y-122308767D01*
X138700064Y-122323694D01*
X138742480Y-122328305D01*
X138789117Y-122321711D01*
X138794463Y-121984672D01*
X138796376Y-121899026D01*
X138800343Y-121797652D01*
X138805531Y-121718135D01*
X138811539Y-121666216D01*
X138817967Y-121647634D01*
X138843038Y-121653514D01*
G36*
X138843038Y-121653514D02*
G01*
X138885890Y-121670309D01*
X138935655Y-121692983D01*
X138935655Y-122348013D01*
X138873825Y-122409843D01*
X138859702Y-122423708D01*
X138820576Y-122454526D01*
X138781118Y-122464508D01*
X138722402Y-122459913D01*
X138698496Y-122456942D01*
X138636841Y-122450656D01*
X138593732Y-122448152D01*
X138580945Y-122448535D01*
X138528486Y-122452680D01*
X138465062Y-122459913D01*
X138444770Y-122462398D01*
X138393650Y-122463375D01*
X138356247Y-122447942D01*
X138313639Y-122409843D01*
X138251809Y-122348013D01*
X138251809Y-121997823D01*
X138252291Y-121894337D01*
X138253793Y-121795672D01*
X138256129Y-121717548D01*
X138259111Y-121666142D01*
X138262549Y-121647634D01*
X138263270Y-121647684D01*
X138288243Y-121656893D01*
X138330439Y-121677187D01*
X138387589Y-121706741D01*
X138392968Y-122014226D01*
X138398348Y-122321711D01*
X138515579Y-122321711D01*
X138520925Y-121984672D01*
X138522619Y-121893054D01*
X138525045Y-121795129D01*
X138527674Y-121717386D01*
X138530286Y-121666122D01*
X138532663Y-121647634D01*
X138533346Y-121647699D01*
X138557036Y-121654500D01*
X138600586Y-121669084D01*
X138662117Y-121690534D01*
X138662416Y-121986584D01*
X138662716Y-122038012D01*
X138664794Y-122137946D01*
X138668510Y-122221405D01*
X138673470Y-122280857D01*
X138679280Y-122308767D01*
X138700064Y-122323694D01*
X138742480Y-122328305D01*
X138789117Y-122321711D01*
X138794463Y-121984672D01*
X138796376Y-121899026D01*
X138800343Y-121797652D01*
X138805531Y-121718135D01*
X138811539Y-121666216D01*
X138817967Y-121647634D01*
X138843038Y-121653514D01*
G37*
X145051194Y-122038403D02*
X145051175Y-122059585D01*
X145050116Y-122154064D01*
X145046476Y-122219894D01*
X145038932Y-122265874D01*
X145026162Y-122300801D01*
X145006843Y-122333475D01*
X145002090Y-122340255D01*
X144951799Y-122393711D01*
X144894497Y-122434027D01*
X144865072Y-122447109D01*
X144759339Y-122468930D01*
X144654774Y-122454816D01*
X144558408Y-122406585D01*
X144477275Y-122326059D01*
X144470425Y-122315271D01*
X144448137Y-122252633D01*
X144433119Y-122165415D01*
X144425832Y-122064690D01*
X144426651Y-121971517D01*
X144623836Y-121971517D01*
X144625389Y-122100594D01*
X144626014Y-122108900D01*
X144635117Y-122180123D01*
X144651328Y-122225289D01*
X144678700Y-122256232D01*
X144724593Y-122285217D01*
X144769982Y-122286741D01*
X144816732Y-122253326D01*
X144824864Y-122244533D01*
X144840794Y-122218221D01*
X144850199Y-122180000D01*
X144854672Y-122120829D01*
X144855809Y-122031662D01*
X144853862Y-121948144D01*
X144844145Y-121868575D01*
X144824087Y-121818288D01*
X144791280Y-121791993D01*
X144743320Y-121784403D01*
X144725056Y-121785912D01*
X144673888Y-121813587D01*
X144640075Y-121875652D01*
X144623836Y-121971517D01*
X144426651Y-121971517D01*
X144426739Y-121961532D01*
X144436302Y-121867013D01*
X144454983Y-121792207D01*
X144478991Y-121742385D01*
X144546576Y-121664889D01*
X144638154Y-121616736D01*
X144750253Y-121600183D01*
X144780191Y-121601079D01*
X144868355Y-121619409D01*
X144940773Y-121665584D01*
X145007232Y-121745128D01*
X145011187Y-121751028D01*
X145029080Y-121782768D01*
X145040718Y-121818643D01*
X145047411Y-121867386D01*
X145050466Y-121937729D01*
X145051146Y-122031662D01*
X145051194Y-122038403D01*
G36*
X145051194Y-122038403D02*
G01*
X145051175Y-122059585D01*
X145050116Y-122154064D01*
X145046476Y-122219894D01*
X145038932Y-122265874D01*
X145026162Y-122300801D01*
X145006843Y-122333475D01*
X145002090Y-122340255D01*
X144951799Y-122393711D01*
X144894497Y-122434027D01*
X144865072Y-122447109D01*
X144759339Y-122468930D01*
X144654774Y-122454816D01*
X144558408Y-122406585D01*
X144477275Y-122326059D01*
X144470425Y-122315271D01*
X144448137Y-122252633D01*
X144433119Y-122165415D01*
X144425832Y-122064690D01*
X144426651Y-121971517D01*
X144623836Y-121971517D01*
X144625389Y-122100594D01*
X144626014Y-122108900D01*
X144635117Y-122180123D01*
X144651328Y-122225289D01*
X144678700Y-122256232D01*
X144724593Y-122285217D01*
X144769982Y-122286741D01*
X144816732Y-122253326D01*
X144824864Y-122244533D01*
X144840794Y-122218221D01*
X144850199Y-122180000D01*
X144854672Y-122120829D01*
X144855809Y-122031662D01*
X144853862Y-121948144D01*
X144844145Y-121868575D01*
X144824087Y-121818288D01*
X144791280Y-121791993D01*
X144743320Y-121784403D01*
X144725056Y-121785912D01*
X144673888Y-121813587D01*
X144640075Y-121875652D01*
X144623836Y-121971517D01*
X144426651Y-121971517D01*
X144426739Y-121961532D01*
X144436302Y-121867013D01*
X144454983Y-121792207D01*
X144478991Y-121742385D01*
X144546576Y-121664889D01*
X144638154Y-121616736D01*
X144750253Y-121600183D01*
X144780191Y-121601079D01*
X144868355Y-121619409D01*
X144940773Y-121665584D01*
X145007232Y-121745128D01*
X145011187Y-121751028D01*
X145029080Y-121782768D01*
X145040718Y-121818643D01*
X145047411Y-121867386D01*
X145050466Y-121937729D01*
X145051146Y-122031662D01*
X145051194Y-122038403D01*
G37*
X136805834Y-122061856D02*
X136805453Y-122113929D01*
X136800681Y-122216527D01*
X136788190Y-122291606D01*
X136765161Y-122347228D01*
X136728772Y-122391455D01*
X136676202Y-122432349D01*
X136642754Y-122450946D01*
X136589138Y-122463471D01*
X136513820Y-122462483D01*
X136471712Y-122458515D01*
X136420919Y-122446400D01*
X136380320Y-122420065D01*
X136333089Y-122370994D01*
X136326778Y-122363826D01*
X136284317Y-122308669D01*
X136264058Y-122260630D01*
X136258886Y-122203664D01*
X136258886Y-122119951D01*
X136317386Y-122142032D01*
X136360034Y-122167844D01*
X136397104Y-122228408D01*
X136404843Y-122247800D01*
X136448114Y-122302715D01*
X136507016Y-122330359D01*
X136571151Y-122327873D01*
X136630117Y-122292403D01*
X136650382Y-122270285D01*
X136668760Y-122236916D01*
X136663011Y-122206597D01*
X136629927Y-122175393D01*
X136566301Y-122139367D01*
X136468925Y-122094583D01*
X136268655Y-122006925D01*
X136263341Y-121920087D01*
X136265339Y-121864776D01*
X136395823Y-121864776D01*
X136405728Y-121899018D01*
X136450796Y-121935576D01*
X136532597Y-121977172D01*
X136546132Y-121983198D01*
X136610858Y-122011233D01*
X136659287Y-122030952D01*
X136681791Y-122038403D01*
X136685201Y-122032918D01*
X136686569Y-121999428D01*
X136681691Y-121945596D01*
X136669404Y-121892953D01*
X136631081Y-121826631D01*
X136575760Y-121789260D01*
X136509680Y-121784201D01*
X136439080Y-121814819D01*
X136419514Y-121830128D01*
X136395823Y-121864776D01*
X136265339Y-121864776D01*
X136265687Y-121855143D01*
X136295226Y-121773070D01*
X136332512Y-121727841D01*
X136409816Y-121677318D01*
X136501518Y-121651796D01*
X136596314Y-121653816D01*
X136682899Y-121685920D01*
X136701960Y-121698247D01*
X136745680Y-121736392D01*
X136775580Y-121784647D01*
X136794008Y-121850190D01*
X136803310Y-121940200D01*
X136804539Y-121999428D01*
X136805834Y-122061856D01*
G36*
X136805834Y-122061856D02*
G01*
X136805453Y-122113929D01*
X136800681Y-122216527D01*
X136788190Y-122291606D01*
X136765161Y-122347228D01*
X136728772Y-122391455D01*
X136676202Y-122432349D01*
X136642754Y-122450946D01*
X136589138Y-122463471D01*
X136513820Y-122462483D01*
X136471712Y-122458515D01*
X136420919Y-122446400D01*
X136380320Y-122420065D01*
X136333089Y-122370994D01*
X136326778Y-122363826D01*
X136284317Y-122308669D01*
X136264058Y-122260630D01*
X136258886Y-122203664D01*
X136258886Y-122119951D01*
X136317386Y-122142032D01*
X136360034Y-122167844D01*
X136397104Y-122228408D01*
X136404843Y-122247800D01*
X136448114Y-122302715D01*
X136507016Y-122330359D01*
X136571151Y-122327873D01*
X136630117Y-122292403D01*
X136650382Y-122270285D01*
X136668760Y-122236916D01*
X136663011Y-122206597D01*
X136629927Y-122175393D01*
X136566301Y-122139367D01*
X136468925Y-122094583D01*
X136268655Y-122006925D01*
X136263341Y-121920087D01*
X136265339Y-121864776D01*
X136395823Y-121864776D01*
X136405728Y-121899018D01*
X136450796Y-121935576D01*
X136532597Y-121977172D01*
X136546132Y-121983198D01*
X136610858Y-122011233D01*
X136659287Y-122030952D01*
X136681791Y-122038403D01*
X136685201Y-122032918D01*
X136686569Y-121999428D01*
X136681691Y-121945596D01*
X136669404Y-121892953D01*
X136631081Y-121826631D01*
X136575760Y-121789260D01*
X136509680Y-121784201D01*
X136439080Y-121814819D01*
X136419514Y-121830128D01*
X136395823Y-121864776D01*
X136265339Y-121864776D01*
X136265687Y-121855143D01*
X136295226Y-121773070D01*
X136332512Y-121727841D01*
X136409816Y-121677318D01*
X136501518Y-121651796D01*
X136596314Y-121653816D01*
X136682899Y-121685920D01*
X136701960Y-121698247D01*
X136745680Y-121736392D01*
X136775580Y-121784647D01*
X136794008Y-121850190D01*
X136803310Y-121940200D01*
X136804539Y-121999428D01*
X136805834Y-122061856D01*
G37*
X139619441Y-122057942D02*
X139617879Y-122134132D01*
X139606850Y-122237987D01*
X139582854Y-122315813D01*
X139543083Y-122375240D01*
X139484728Y-122423898D01*
X139429140Y-122452026D01*
X139335791Y-122467679D01*
X139242570Y-122450564D01*
X139158312Y-122402868D01*
X139091858Y-122326774D01*
X139083833Y-122312742D01*
X139073236Y-122288159D01*
X139065375Y-122256789D01*
X139059847Y-122213249D01*
X139056246Y-122152158D01*
X139054168Y-122068135D01*
X139054104Y-122060680D01*
X139189655Y-122060680D01*
X139190117Y-122131796D01*
X139193039Y-122196121D01*
X139200261Y-122237646D01*
X139213601Y-122265547D01*
X139234876Y-122288997D01*
X139239861Y-122293505D01*
X139303903Y-122326775D01*
X139371665Y-122323370D01*
X139434774Y-122283522D01*
X139453566Y-122262878D01*
X139469294Y-122235509D01*
X139478079Y-122197672D01*
X139481899Y-122139835D01*
X139482732Y-122052466D01*
X139482321Y-121985799D01*
X139479474Y-121920725D01*
X139472296Y-121878731D01*
X139458929Y-121850543D01*
X139437512Y-121826886D01*
X139424930Y-121816233D01*
X139359739Y-121787537D01*
X139291440Y-121792055D01*
X139232138Y-121829624D01*
X139219373Y-121844520D01*
X139203804Y-121872569D01*
X139194802Y-121911738D01*
X139190657Y-121971338D01*
X139189655Y-122060680D01*
X139054104Y-122060680D01*
X139053207Y-121955800D01*
X139052959Y-121809769D01*
X139052886Y-121356443D01*
X139116386Y-121383044D01*
X139133176Y-121390325D01*
X139159899Y-121406767D01*
X139175196Y-121431667D01*
X139183603Y-121475212D01*
X139189655Y-121547586D01*
X139195184Y-121612569D01*
X139202490Y-121655230D01*
X139212958Y-121671150D01*
X139228732Y-121666880D01*
X139268930Y-121651877D01*
X139340768Y-121648158D01*
X139418050Y-121662052D01*
X139484728Y-121691985D01*
X139521411Y-121719691D01*
X139568512Y-121773749D01*
X139598678Y-121843057D01*
X139614718Y-121935245D01*
X139619231Y-122052466D01*
X139619441Y-122057942D01*
G36*
X139619441Y-122057942D02*
G01*
X139617879Y-122134132D01*
X139606850Y-122237987D01*
X139582854Y-122315813D01*
X139543083Y-122375240D01*
X139484728Y-122423898D01*
X139429140Y-122452026D01*
X139335791Y-122467679D01*
X139242570Y-122450564D01*
X139158312Y-122402868D01*
X139091858Y-122326774D01*
X139083833Y-122312742D01*
X139073236Y-122288159D01*
X139065375Y-122256789D01*
X139059847Y-122213249D01*
X139056246Y-122152158D01*
X139054168Y-122068135D01*
X139054104Y-122060680D01*
X139189655Y-122060680D01*
X139190117Y-122131796D01*
X139193039Y-122196121D01*
X139200261Y-122237646D01*
X139213601Y-122265547D01*
X139234876Y-122288997D01*
X139239861Y-122293505D01*
X139303903Y-122326775D01*
X139371665Y-122323370D01*
X139434774Y-122283522D01*
X139453566Y-122262878D01*
X139469294Y-122235509D01*
X139478079Y-122197672D01*
X139481899Y-122139835D01*
X139482732Y-122052466D01*
X139482321Y-121985799D01*
X139479474Y-121920725D01*
X139472296Y-121878731D01*
X139458929Y-121850543D01*
X139437512Y-121826886D01*
X139424930Y-121816233D01*
X139359739Y-121787537D01*
X139291440Y-121792055D01*
X139232138Y-121829624D01*
X139219373Y-121844520D01*
X139203804Y-121872569D01*
X139194802Y-121911738D01*
X139190657Y-121971338D01*
X139189655Y-122060680D01*
X139054104Y-122060680D01*
X139053207Y-121955800D01*
X139052959Y-121809769D01*
X139052886Y-121356443D01*
X139116386Y-121383044D01*
X139133176Y-121390325D01*
X139159899Y-121406767D01*
X139175196Y-121431667D01*
X139183603Y-121475212D01*
X139189655Y-121547586D01*
X139195184Y-121612569D01*
X139202490Y-121655230D01*
X139212958Y-121671150D01*
X139228732Y-121666880D01*
X139268930Y-121651877D01*
X139340768Y-121648158D01*
X139418050Y-121662052D01*
X139484728Y-121691985D01*
X139521411Y-121719691D01*
X139568512Y-121773749D01*
X139598678Y-121843057D01*
X139614718Y-121935245D01*
X139619231Y-122052466D01*
X139619441Y-122057942D01*
G37*
X143565827Y-121983016D02*
X143559614Y-122131123D01*
X143556106Y-122162501D01*
X143529967Y-122274185D01*
X143482734Y-122359122D01*
X143410902Y-122424221D01*
X143406842Y-122426908D01*
X143315527Y-122465114D01*
X143220184Y-122468514D01*
X143128314Y-122439419D01*
X143047419Y-122380140D01*
X142985002Y-122292990D01*
X142983954Y-122290889D01*
X142963213Y-122236769D01*
X142948020Y-122175261D01*
X142939961Y-122117519D01*
X142940622Y-122074695D01*
X142951588Y-122057942D01*
X142961330Y-122058960D01*
X143007917Y-122077489D01*
X143060722Y-122111561D01*
X143105643Y-122151002D01*
X143128575Y-122185635D01*
X143152413Y-122232613D01*
X143201270Y-122275342D01*
X143258003Y-122292403D01*
X143278798Y-122287470D01*
X143319844Y-122262637D01*
X143355597Y-122228165D01*
X143370886Y-122196891D01*
X143370882Y-122196775D01*
X143353535Y-122182413D01*
X143307287Y-122156505D01*
X143239107Y-122122690D01*
X143155963Y-122084609D01*
X143155506Y-122084407D01*
X143065178Y-122044189D01*
X143004632Y-122015213D01*
X142967928Y-121992954D01*
X142949126Y-121972887D01*
X142942286Y-121950489D01*
X142941469Y-121921236D01*
X142947153Y-121865843D01*
X143140040Y-121865843D01*
X143159951Y-121883257D01*
X143209561Y-121909352D01*
X143211016Y-121910090D01*
X143269546Y-121937963D01*
X143321908Y-121960199D01*
X143355126Y-121969606D01*
X143368450Y-121957032D01*
X143370886Y-121913948D01*
X143360764Y-121860327D01*
X143325671Y-121811599D01*
X143274863Y-121786336D01*
X143218221Y-121788886D01*
X143165624Y-121823600D01*
X143144950Y-121847587D01*
X143140040Y-121865843D01*
X142947153Y-121865843D01*
X142948662Y-121851134D01*
X142984224Y-121755892D01*
X143043754Y-121681047D01*
X143120786Y-121629225D01*
X143208855Y-121603053D01*
X143301494Y-121605156D01*
X143392238Y-121638161D01*
X143474619Y-121704695D01*
X143520262Y-121770535D01*
X143553048Y-121864516D01*
X143558379Y-121913948D01*
X143565827Y-121983016D01*
G36*
X143565827Y-121983016D02*
G01*
X143559614Y-122131123D01*
X143556106Y-122162501D01*
X143529967Y-122274185D01*
X143482734Y-122359122D01*
X143410902Y-122424221D01*
X143406842Y-122426908D01*
X143315527Y-122465114D01*
X143220184Y-122468514D01*
X143128314Y-122439419D01*
X143047419Y-122380140D01*
X142985002Y-122292990D01*
X142983954Y-122290889D01*
X142963213Y-122236769D01*
X142948020Y-122175261D01*
X142939961Y-122117519D01*
X142940622Y-122074695D01*
X142951588Y-122057942D01*
X142961330Y-122058960D01*
X143007917Y-122077489D01*
X143060722Y-122111561D01*
X143105643Y-122151002D01*
X143128575Y-122185635D01*
X143152413Y-122232613D01*
X143201270Y-122275342D01*
X143258003Y-122292403D01*
X143278798Y-122287470D01*
X143319844Y-122262637D01*
X143355597Y-122228165D01*
X143370886Y-122196891D01*
X143370882Y-122196775D01*
X143353535Y-122182413D01*
X143307287Y-122156505D01*
X143239107Y-122122690D01*
X143155963Y-122084609D01*
X143155506Y-122084407D01*
X143065178Y-122044189D01*
X143004632Y-122015213D01*
X142967928Y-121992954D01*
X142949126Y-121972887D01*
X142942286Y-121950489D01*
X142941469Y-121921236D01*
X142947153Y-121865843D01*
X143140040Y-121865843D01*
X143159951Y-121883257D01*
X143209561Y-121909352D01*
X143211016Y-121910090D01*
X143269546Y-121937963D01*
X143321908Y-121960199D01*
X143355126Y-121969606D01*
X143368450Y-121957032D01*
X143370886Y-121913948D01*
X143360764Y-121860327D01*
X143325671Y-121811599D01*
X143274863Y-121786336D01*
X143218221Y-121788886D01*
X143165624Y-121823600D01*
X143144950Y-121847587D01*
X143140040Y-121865843D01*
X142947153Y-121865843D01*
X142948662Y-121851134D01*
X142984224Y-121755892D01*
X143043754Y-121681047D01*
X143120786Y-121629225D01*
X143208855Y-121603053D01*
X143301494Y-121605156D01*
X143392238Y-121638161D01*
X143474619Y-121704695D01*
X143520262Y-121770535D01*
X143553048Y-121864516D01*
X143558379Y-121913948D01*
X143565827Y-121983016D01*
G37*
X140775498Y-121668708D02*
X140842662Y-121707869D01*
X140872209Y-121738382D01*
X140928988Y-121829590D01*
X140948117Y-121929028D01*
X140948117Y-121997440D01*
X140885231Y-121970998D01*
X140841740Y-121944317D01*
X140807466Y-121888926D01*
X140803947Y-121877504D01*
X140766068Y-121819318D01*
X140708976Y-121787887D01*
X140643423Y-121786538D01*
X140580157Y-121818596D01*
X140570712Y-121826863D01*
X140539127Y-121862791D01*
X140533911Y-121894115D01*
X140557805Y-121924871D01*
X140613550Y-121959097D01*
X140703886Y-122000830D01*
X140709996Y-122003473D01*
X140810281Y-122050235D01*
X140878775Y-122091661D01*
X140920939Y-122133022D01*
X140942233Y-122179591D01*
X140948117Y-122236640D01*
X140940406Y-122299888D01*
X140901470Y-122380844D01*
X140832972Y-122439002D01*
X140783428Y-122456463D01*
X140713509Y-122466017D01*
X140645615Y-122463976D01*
X140597133Y-122449562D01*
X140591983Y-122445973D01*
X140578307Y-122420896D01*
X140587797Y-122376698D01*
X140604286Y-122342007D01*
X140630727Y-122327564D01*
X140680874Y-122328283D01*
X140750493Y-122324140D01*
X140795983Y-122295534D01*
X140811348Y-122242584D01*
X140811334Y-122241062D01*
X140802023Y-122210325D01*
X140770351Y-122182123D01*
X140708771Y-122149616D01*
X140625026Y-122110478D01*
X140569558Y-122089186D01*
X140537537Y-122090559D01*
X140522574Y-122118683D01*
X140518282Y-122177650D01*
X140518271Y-122271548D01*
X140517792Y-122329511D01*
X140515596Y-122401092D01*
X140512026Y-122450086D01*
X140507531Y-122468249D01*
X140506330Y-122468126D01*
X140480359Y-122458282D01*
X140437345Y-122437508D01*
X140377899Y-122406767D01*
X140384963Y-122129778D01*
X140385454Y-122111408D01*
X140391065Y-121982472D01*
X140400978Y-121885294D01*
X140417215Y-121813405D01*
X140441799Y-121760332D01*
X140476755Y-121719607D01*
X140524104Y-121684759D01*
X140524980Y-121684213D01*
X140601539Y-121655783D01*
X140690084Y-121650980D01*
X140775498Y-121668708D01*
G36*
X140775498Y-121668708D02*
G01*
X140842662Y-121707869D01*
X140872209Y-121738382D01*
X140928988Y-121829590D01*
X140948117Y-121929028D01*
X140948117Y-121997440D01*
X140885231Y-121970998D01*
X140841740Y-121944317D01*
X140807466Y-121888926D01*
X140803947Y-121877504D01*
X140766068Y-121819318D01*
X140708976Y-121787887D01*
X140643423Y-121786538D01*
X140580157Y-121818596D01*
X140570712Y-121826863D01*
X140539127Y-121862791D01*
X140533911Y-121894115D01*
X140557805Y-121924871D01*
X140613550Y-121959097D01*
X140703886Y-122000830D01*
X140709996Y-122003473D01*
X140810281Y-122050235D01*
X140878775Y-122091661D01*
X140920939Y-122133022D01*
X140942233Y-122179591D01*
X140948117Y-122236640D01*
X140940406Y-122299888D01*
X140901470Y-122380844D01*
X140832972Y-122439002D01*
X140783428Y-122456463D01*
X140713509Y-122466017D01*
X140645615Y-122463976D01*
X140597133Y-122449562D01*
X140591983Y-122445973D01*
X140578307Y-122420896D01*
X140587797Y-122376698D01*
X140604286Y-122342007D01*
X140630727Y-122327564D01*
X140680874Y-122328283D01*
X140750493Y-122324140D01*
X140795983Y-122295534D01*
X140811348Y-122242584D01*
X140811334Y-122241062D01*
X140802023Y-122210325D01*
X140770351Y-122182123D01*
X140708771Y-122149616D01*
X140625026Y-122110478D01*
X140569558Y-122089186D01*
X140537537Y-122090559D01*
X140522574Y-122118683D01*
X140518282Y-122177650D01*
X140518271Y-122271548D01*
X140517792Y-122329511D01*
X140515596Y-122401092D01*
X140512026Y-122450086D01*
X140507531Y-122468249D01*
X140506330Y-122468126D01*
X140480359Y-122458282D01*
X140437345Y-122437508D01*
X140377899Y-122406767D01*
X140384963Y-122129778D01*
X140385454Y-122111408D01*
X140391065Y-121982472D01*
X140400978Y-121885294D01*
X140417215Y-121813405D01*
X140441799Y-121760332D01*
X140476755Y-121719607D01*
X140524104Y-121684759D01*
X140524980Y-121684213D01*
X140601539Y-121655783D01*
X140690084Y-121650980D01*
X140775498Y-121668708D01*
G37*
X144302868Y-122127685D02*
X144304803Y-122277749D01*
X144305340Y-122321282D01*
X144307059Y-122466824D01*
X144307405Y-122578191D01*
X144305317Y-122659284D01*
X144299738Y-122714002D01*
X144289607Y-122746241D01*
X144273866Y-122759902D01*
X144251457Y-122758883D01*
X144221320Y-122747083D01*
X144182395Y-122728400D01*
X144174078Y-122724413D01*
X144139442Y-122704899D01*
X144121354Y-122681682D01*
X144114432Y-122642972D01*
X144113296Y-122576977D01*
X144113245Y-122458480D01*
X143991181Y-122458480D01*
X143916095Y-122455192D01*
X143857055Y-122441857D01*
X143808026Y-122414903D01*
X143804370Y-122412268D01*
X143754621Y-122367766D01*
X143719999Y-122314003D01*
X143698163Y-122243634D01*
X143686777Y-122149310D01*
X143683999Y-122042751D01*
X143878886Y-122042751D01*
X143878920Y-122060611D01*
X143880775Y-122141228D01*
X143886733Y-122193927D01*
X143898546Y-122228148D01*
X143917963Y-122253326D01*
X143919173Y-122254529D01*
X143966898Y-122287108D01*
X144013150Y-122283897D01*
X144065390Y-122244445D01*
X144078168Y-122230962D01*
X144096989Y-122203317D01*
X144107602Y-122167360D01*
X144112292Y-122112844D01*
X144113348Y-122029522D01*
X144112434Y-121979078D01*
X144102517Y-121887337D01*
X144079882Y-121827232D01*
X144042278Y-121794380D01*
X143987456Y-121784403D01*
X143964357Y-121786530D01*
X143924390Y-121807627D01*
X143897966Y-121854641D01*
X143883370Y-121931655D01*
X143878886Y-122042751D01*
X143683999Y-122042751D01*
X143683502Y-122023686D01*
X143684227Y-121932016D01*
X143687530Y-121862578D01*
X143694868Y-121814425D01*
X143707695Y-121778346D01*
X143727463Y-121745128D01*
X143745609Y-121719741D01*
X143811501Y-121651207D01*
X143886154Y-121613985D01*
X143979944Y-121602202D01*
X144087280Y-121613947D01*
X144180071Y-121656075D01*
X144253461Y-121730378D01*
X144258994Y-121738244D01*
X144271897Y-121759148D01*
X144281782Y-121783035D01*
X144289133Y-121815062D01*
X144294434Y-121860385D01*
X144298167Y-121924159D01*
X144300818Y-122011540D01*
X144301136Y-122029522D01*
X144302868Y-122127685D01*
G36*
X144302868Y-122127685D02*
G01*
X144304803Y-122277749D01*
X144305340Y-122321282D01*
X144307059Y-122466824D01*
X144307405Y-122578191D01*
X144305317Y-122659284D01*
X144299738Y-122714002D01*
X144289607Y-122746241D01*
X144273866Y-122759902D01*
X144251457Y-122758883D01*
X144221320Y-122747083D01*
X144182395Y-122728400D01*
X144174078Y-122724413D01*
X144139442Y-122704899D01*
X144121354Y-122681682D01*
X144114432Y-122642972D01*
X144113296Y-122576977D01*
X144113245Y-122458480D01*
X143991181Y-122458480D01*
X143916095Y-122455192D01*
X143857055Y-122441857D01*
X143808026Y-122414903D01*
X143804370Y-122412268D01*
X143754621Y-122367766D01*
X143719999Y-122314003D01*
X143698163Y-122243634D01*
X143686777Y-122149310D01*
X143683999Y-122042751D01*
X143878886Y-122042751D01*
X143878920Y-122060611D01*
X143880775Y-122141228D01*
X143886733Y-122193927D01*
X143898546Y-122228148D01*
X143917963Y-122253326D01*
X143919173Y-122254529D01*
X143966898Y-122287108D01*
X144013150Y-122283897D01*
X144065390Y-122244445D01*
X144078168Y-122230962D01*
X144096989Y-122203317D01*
X144107602Y-122167360D01*
X144112292Y-122112844D01*
X144113348Y-122029522D01*
X144112434Y-121979078D01*
X144102517Y-121887337D01*
X144079882Y-121827232D01*
X144042278Y-121794380D01*
X143987456Y-121784403D01*
X143964357Y-121786530D01*
X143924390Y-121807627D01*
X143897966Y-121854641D01*
X143883370Y-121931655D01*
X143878886Y-122042751D01*
X143683999Y-122042751D01*
X143683502Y-122023686D01*
X143684227Y-121932016D01*
X143687530Y-121862578D01*
X143694868Y-121814425D01*
X143707695Y-121778346D01*
X143727463Y-121745128D01*
X143745609Y-121719741D01*
X143811501Y-121651207D01*
X143886154Y-121613985D01*
X143979944Y-121602202D01*
X144087280Y-121613947D01*
X144180071Y-121656075D01*
X144253461Y-121730378D01*
X144258994Y-121738244D01*
X144271897Y-121759148D01*
X144281782Y-121783035D01*
X144289133Y-121815062D01*
X144294434Y-121860385D01*
X144298167Y-121924159D01*
X144300818Y-122011540D01*
X144301136Y-122029522D01*
X144302868Y-122127685D01*
G37*
X137918976Y-121649391D02*
X137960847Y-121660027D01*
X137999831Y-121686542D01*
X138050005Y-121735900D01*
X138082272Y-121770759D01*
X138115884Y-121816014D01*
X138131043Y-121858431D01*
X138134579Y-121912248D01*
X138134579Y-122000330D01*
X138074510Y-121969267D01*
X138026907Y-121931416D01*
X137994301Y-121880430D01*
X137988701Y-121866568D01*
X137946032Y-121812838D01*
X137886747Y-121785897D01*
X137822101Y-121788519D01*
X137763348Y-121823480D01*
X137738490Y-121851874D01*
X137724010Y-121888198D01*
X137739510Y-121920526D01*
X137787707Y-121953045D01*
X137871314Y-121989941D01*
X137884002Y-121995037D01*
X137960118Y-122028387D01*
X138025436Y-122061273D01*
X138066993Y-122087249D01*
X138108616Y-122133647D01*
X138136287Y-122207691D01*
X138133350Y-122287150D01*
X138100611Y-122362348D01*
X138038881Y-122423611D01*
X137988898Y-122449690D01*
X137892343Y-122467950D01*
X137838687Y-122465487D01*
X137789016Y-122452167D01*
X137769959Y-122424219D01*
X137777085Y-122378190D01*
X137779158Y-122372104D01*
X137795596Y-122339829D01*
X137822966Y-122327613D01*
X137875108Y-122328430D01*
X137911924Y-122329541D01*
X137955001Y-122320008D01*
X137984515Y-122291506D01*
X138001326Y-122256415D01*
X138003201Y-122219655D01*
X138003114Y-122219441D01*
X137981319Y-122199578D01*
X137934672Y-122170672D01*
X137874318Y-122138366D01*
X137811400Y-122108303D01*
X137757063Y-122086126D01*
X137722450Y-122077480D01*
X137717300Y-122085947D01*
X137710818Y-122125789D01*
X137706379Y-122190851D01*
X137704732Y-122272865D01*
X137704349Y-122329633D01*
X137702545Y-122401128D01*
X137699598Y-122450090D01*
X137695883Y-122468249D01*
X137676464Y-122462147D01*
X137637267Y-122445575D01*
X137587502Y-122422900D01*
X137587502Y-122131989D01*
X137587820Y-122057420D01*
X137590829Y-121944181D01*
X137598494Y-121860172D01*
X137612602Y-121799000D01*
X137634939Y-121754275D01*
X137667293Y-121719604D01*
X137711450Y-121688597D01*
X137767707Y-121663008D01*
X137871580Y-121647634D01*
X137918976Y-121649391D01*
G36*
X137918976Y-121649391D02*
G01*
X137960847Y-121660027D01*
X137999831Y-121686542D01*
X138050005Y-121735900D01*
X138082272Y-121770759D01*
X138115884Y-121816014D01*
X138131043Y-121858431D01*
X138134579Y-121912248D01*
X138134579Y-122000330D01*
X138074510Y-121969267D01*
X138026907Y-121931416D01*
X137994301Y-121880430D01*
X137988701Y-121866568D01*
X137946032Y-121812838D01*
X137886747Y-121785897D01*
X137822101Y-121788519D01*
X137763348Y-121823480D01*
X137738490Y-121851874D01*
X137724010Y-121888198D01*
X137739510Y-121920526D01*
X137787707Y-121953045D01*
X137871314Y-121989941D01*
X137884002Y-121995037D01*
X137960118Y-122028387D01*
X138025436Y-122061273D01*
X138066993Y-122087249D01*
X138108616Y-122133647D01*
X138136287Y-122207691D01*
X138133350Y-122287150D01*
X138100611Y-122362348D01*
X138038881Y-122423611D01*
X137988898Y-122449690D01*
X137892343Y-122467950D01*
X137838687Y-122465487D01*
X137789016Y-122452167D01*
X137769959Y-122424219D01*
X137777085Y-122378190D01*
X137779158Y-122372104D01*
X137795596Y-122339829D01*
X137822966Y-122327613D01*
X137875108Y-122328430D01*
X137911924Y-122329541D01*
X137955001Y-122320008D01*
X137984515Y-122291506D01*
X138001326Y-122256415D01*
X138003201Y-122219655D01*
X138003114Y-122219441D01*
X137981319Y-122199578D01*
X137934672Y-122170672D01*
X137874318Y-122138366D01*
X137811400Y-122108303D01*
X137757063Y-122086126D01*
X137722450Y-122077480D01*
X137717300Y-122085947D01*
X137710818Y-122125789D01*
X137706379Y-122190851D01*
X137704732Y-122272865D01*
X137704349Y-122329633D01*
X137702545Y-122401128D01*
X137699598Y-122450090D01*
X137695883Y-122468249D01*
X137676464Y-122462147D01*
X137637267Y-122445575D01*
X137587502Y-122422900D01*
X137587502Y-122131989D01*
X137587820Y-122057420D01*
X137590829Y-121944181D01*
X137598494Y-121860172D01*
X137612602Y-121799000D01*
X137634939Y-121754275D01*
X137667293Y-121719604D01*
X137711450Y-121688597D01*
X137767707Y-121663008D01*
X137871580Y-121647634D01*
X137918976Y-121649391D01*
G37*
X140672615Y-115317173D02*
X140808411Y-115317287D01*
X140910616Y-115317952D01*
X140984162Y-115319662D01*
X141033982Y-115322909D01*
X141065007Y-115328186D01*
X141082169Y-115335987D01*
X141090401Y-115346805D01*
X141094634Y-115361134D01*
X141094756Y-115361648D01*
X141101712Y-115395331D01*
X141114360Y-115460397D01*
X141131400Y-115550022D01*
X141151536Y-115657384D01*
X141173469Y-115775658D01*
X141175258Y-115785336D01*
X141197123Y-115900130D01*
X141217470Y-116000960D01*
X141234974Y-116081697D01*
X141248311Y-116136214D01*
X141256156Y-116158381D01*
X141256198Y-116158416D01*
X141280924Y-116170680D01*
X141331671Y-116191056D01*
X141397502Y-116215154D01*
X141401209Y-116216463D01*
X141485371Y-116248271D01*
X141583270Y-116288165D01*
X141674475Y-116327833D01*
X141824447Y-116395900D01*
X142156539Y-116169119D01*
X142179929Y-116153168D01*
X142280120Y-116085370D01*
X142369520Y-116025688D01*
X142442785Y-115977636D01*
X142494567Y-115944730D01*
X142519520Y-115930484D01*
X142536617Y-115933750D01*
X142575435Y-115959051D01*
X142635425Y-116009155D01*
X142718250Y-116085469D01*
X142825575Y-116189402D01*
X142835179Y-116198862D01*
X142920342Y-116283625D01*
X142995989Y-116360417D01*
X143057489Y-116424427D01*
X143100213Y-116470841D01*
X143119529Y-116494849D01*
X143119592Y-116494965D01*
X143122046Y-116513243D01*
X143112996Y-116542891D01*
X143090159Y-116587966D01*
X143051253Y-116652524D01*
X142993994Y-116740620D01*
X142916099Y-116856310D01*
X142902825Y-116875837D01*
X142835692Y-116974758D01*
X142776450Y-117062328D01*
X142728628Y-117133311D01*
X142695755Y-117182471D01*
X142681358Y-117204575D01*
X142680272Y-117209257D01*
X142687084Y-117244190D01*
X142707490Y-117301233D01*
X142738163Y-117370652D01*
X142779848Y-117461439D01*
X142826392Y-117569166D01*
X142865917Y-117666672D01*
X142875716Y-117691910D01*
X142901380Y-117756350D01*
X142920233Y-117801243D01*
X142928750Y-117818096D01*
X142938151Y-117819355D01*
X142980403Y-117826639D01*
X143049561Y-117839219D01*
X143138427Y-117855726D01*
X143239808Y-117874792D01*
X143346507Y-117895049D01*
X143451328Y-117915127D01*
X143547076Y-117933659D01*
X143626556Y-117949275D01*
X143682570Y-117960607D01*
X143707925Y-117966287D01*
X143712128Y-117967888D01*
X143722374Y-117976525D01*
X143729997Y-117994913D01*
X143735378Y-118027940D01*
X143738899Y-118080493D01*
X143740941Y-118157459D01*
X143741887Y-118263726D01*
X143742117Y-118404181D01*
X143742117Y-118831325D01*
X143639540Y-118851571D01*
X143627132Y-118853998D01*
X143561239Y-118866568D01*
X143470124Y-118883650D01*
X143364144Y-118903309D01*
X143253655Y-118923612D01*
X143210145Y-118931779D01*
X143112922Y-118951647D01*
X143031898Y-118970434D01*
X142974517Y-118986339D01*
X142948227Y-118997559D01*
X142936313Y-119015891D01*
X142914623Y-119064396D01*
X142892435Y-119127172D01*
X142884625Y-119150680D01*
X142855875Y-119227846D01*
X142818792Y-119319174D01*
X142779415Y-119409573D01*
X142758355Y-119456790D01*
X142728351Y-119527317D01*
X142707732Y-119580135D01*
X142700066Y-119606392D01*
X142700492Y-119608374D01*
X142715033Y-119636231D01*
X142747823Y-119689990D01*
X142795533Y-119764443D01*
X142854838Y-119854377D01*
X142922409Y-119954584D01*
X143144753Y-120280896D01*
X142852641Y-120573496D01*
X142824389Y-120601651D01*
X142738001Y-120685929D01*
X142660796Y-120758608D01*
X142597298Y-120815592D01*
X142552030Y-120852787D01*
X142529514Y-120866096D01*
X142505063Y-120855970D01*
X142453859Y-120826901D01*
X142381787Y-120782376D01*
X142294500Y-120725891D01*
X142197652Y-120660942D01*
X142102526Y-120596794D01*
X142016709Y-120540307D01*
X141946692Y-120495664D01*
X141897916Y-120466335D01*
X141875823Y-120455788D01*
X141874528Y-120455884D01*
X141845179Y-120466282D01*
X141793133Y-120490492D01*
X141728748Y-120523729D01*
X141728072Y-120524093D01*
X141642561Y-120566921D01*
X141583966Y-120587845D01*
X141547611Y-120587903D01*
X141528815Y-120568134D01*
X141520859Y-120548675D01*
X141499387Y-120496560D01*
X141466313Y-120416444D01*
X141423396Y-120312587D01*
X141372396Y-120189247D01*
X141315073Y-120050681D01*
X141253186Y-119901150D01*
X141197092Y-119765116D01*
X141140017Y-119625530D01*
X141089519Y-119500795D01*
X141047294Y-119395152D01*
X141015035Y-119312845D01*
X140994437Y-119258115D01*
X140987194Y-119235206D01*
X141001026Y-119214198D01*
X141039452Y-119179122D01*
X141093847Y-119138367D01*
X141224435Y-119031747D01*
X141341300Y-118895505D01*
X141426820Y-118745598D01*
X141480471Y-118586451D01*
X141501724Y-118422492D01*
X141490054Y-118258147D01*
X141444934Y-118097841D01*
X141365837Y-117946000D01*
X141252237Y-117807052D01*
X141193005Y-117752940D01*
X141051094Y-117657262D01*
X140899246Y-117594885D01*
X140741901Y-117564324D01*
X140583496Y-117564095D01*
X140428469Y-117592712D01*
X140281260Y-117648690D01*
X140146306Y-117730544D01*
X140028045Y-117836789D01*
X139930917Y-117965939D01*
X139859358Y-118116511D01*
X139817809Y-118287019D01*
X139810183Y-118369202D01*
X139820674Y-118547255D01*
X139867922Y-118716184D01*
X139950529Y-118873002D01*
X140067099Y-119014725D01*
X140216233Y-119138367D01*
X140268601Y-119177462D01*
X140307872Y-119212923D01*
X140322886Y-119235172D01*
X140316899Y-119254568D01*
X140297472Y-119306539D01*
X140266234Y-119386482D01*
X140224879Y-119490153D01*
X140175101Y-119613312D01*
X140118593Y-119751714D01*
X140057049Y-119901117D01*
X140001048Y-120036500D01*
X139943224Y-120176332D01*
X139891540Y-120301352D01*
X139847758Y-120407302D01*
X139813637Y-120489921D01*
X139790938Y-120544952D01*
X139781420Y-120568134D01*
X139781309Y-120568408D01*
X139762268Y-120587983D01*
X139725734Y-120587759D01*
X139666994Y-120566690D01*
X139581332Y-120523729D01*
X139574589Y-120520111D01*
X139510978Y-120487567D01*
X139460747Y-120464530D01*
X139434258Y-120455788D01*
X139412546Y-120466119D01*
X139364024Y-120495268D01*
X139294203Y-120539767D01*
X139208524Y-120596148D01*
X139112428Y-120660942D01*
X139017746Y-120724464D01*
X138930172Y-120781185D01*
X138857682Y-120826027D01*
X138805929Y-120855496D01*
X138780566Y-120866096D01*
X138776246Y-120864750D01*
X138746132Y-120843536D01*
X138694680Y-120799717D01*
X138626415Y-120737389D01*
X138545860Y-120660650D01*
X138457540Y-120573596D01*
X138165528Y-120281097D01*
X138620400Y-119612005D01*
X138551248Y-119462396D01*
X138551043Y-119461953D01*
X138509517Y-119366581D01*
X138467084Y-119260376D01*
X138432898Y-119166249D01*
X138427724Y-119151068D01*
X138401641Y-119080589D01*
X138378121Y-119025822D01*
X138361717Y-118997559D01*
X138355036Y-118993568D01*
X138314932Y-118980177D01*
X138246835Y-118962853D01*
X138158185Y-118943397D01*
X138056425Y-118923612D01*
X138025944Y-118918031D01*
X137915668Y-118897713D01*
X137812771Y-118878575D01*
X137727609Y-118862550D01*
X137670540Y-118851571D01*
X137567963Y-118831325D01*
X137567963Y-118404181D01*
X137567986Y-118351660D01*
X137568419Y-118223527D01*
X137569699Y-118127900D01*
X137572208Y-118059891D01*
X137576326Y-118014613D01*
X137582435Y-117987177D01*
X137590918Y-117972698D01*
X137602155Y-117966287D01*
X137613034Y-117963689D01*
X137657387Y-117954502D01*
X137728146Y-117940471D01*
X137818114Y-117922966D01*
X137920096Y-117903354D01*
X138026897Y-117883005D01*
X138131321Y-117863287D01*
X138226172Y-117845569D01*
X138304254Y-117831218D01*
X138358372Y-117821604D01*
X138381331Y-117818096D01*
X138382882Y-117815977D01*
X138395365Y-117788486D01*
X138416967Y-117735886D01*
X138444163Y-117666672D01*
X138481906Y-117573417D01*
X138528368Y-117465639D01*
X138571918Y-117370652D01*
X138581898Y-117349331D01*
X138609902Y-117282566D01*
X138626681Y-117231070D01*
X138628894Y-117204575D01*
X138627753Y-117202698D01*
X138609624Y-117175045D01*
X138573684Y-117121329D01*
X138523458Y-117046783D01*
X138462470Y-116956642D01*
X138394245Y-116856137D01*
X138317370Y-116741950D01*
X138259703Y-116653250D01*
X138220466Y-116588201D01*
X138197390Y-116542775D01*
X138188206Y-116512943D01*
X138190644Y-116494675D01*
X138191464Y-116493305D01*
X138213517Y-116466685D01*
X138258476Y-116418177D01*
X138321713Y-116352588D01*
X138398599Y-116274727D01*
X138484505Y-116189402D01*
X138573619Y-116102814D01*
X138660912Y-116021427D01*
X138725058Y-115966515D01*
X138767719Y-115936670D01*
X138790561Y-115930484D01*
X138793545Y-115931874D01*
X138824976Y-115950607D01*
X138882037Y-115987213D01*
X138959383Y-116038177D01*
X139051666Y-116099984D01*
X139153542Y-116169119D01*
X139485633Y-116395900D01*
X139635606Y-116327833D01*
X139639963Y-116325861D01*
X139732040Y-116285971D01*
X139829723Y-116246298D01*
X139912579Y-116215154D01*
X139912945Y-116215025D01*
X139978725Y-116190936D01*
X140029363Y-116170590D01*
X140053924Y-116158381D01*
X140054322Y-116157938D01*
X140062659Y-116132936D01*
X140076381Y-116076078D01*
X140094163Y-115993494D01*
X140114681Y-115891311D01*
X140136611Y-115775658D01*
X140137376Y-115771513D01*
X140159269Y-115653499D01*
X140179321Y-115546631D01*
X140196232Y-115457732D01*
X140208707Y-115393625D01*
X140215446Y-115361134D01*
X140215877Y-115359333D01*
X140220313Y-115345424D01*
X140229303Y-115334969D01*
X140247777Y-115327476D01*
X140280668Y-115322452D01*
X140332908Y-115319402D01*
X140409428Y-115317835D01*
X140515162Y-115317256D01*
X140655040Y-115317172D01*
X140672615Y-115317173D01*
G36*
X140672615Y-115317173D02*
G01*
X140808411Y-115317287D01*
X140910616Y-115317952D01*
X140984162Y-115319662D01*
X141033982Y-115322909D01*
X141065007Y-115328186D01*
X141082169Y-115335987D01*
X141090401Y-115346805D01*
X141094634Y-115361134D01*
X141094756Y-115361648D01*
X141101712Y-115395331D01*
X141114360Y-115460397D01*
X141131400Y-115550022D01*
X141151536Y-115657384D01*
X141173469Y-115775658D01*
X141175258Y-115785336D01*
X141197123Y-115900130D01*
X141217470Y-116000960D01*
X141234974Y-116081697D01*
X141248311Y-116136214D01*
X141256156Y-116158381D01*
X141256198Y-116158416D01*
X141280924Y-116170680D01*
X141331671Y-116191056D01*
X141397502Y-116215154D01*
X141401209Y-116216463D01*
X141485371Y-116248271D01*
X141583270Y-116288165D01*
X141674475Y-116327833D01*
X141824447Y-116395900D01*
X142156539Y-116169119D01*
X142179929Y-116153168D01*
X142280120Y-116085370D01*
X142369520Y-116025688D01*
X142442785Y-115977636D01*
X142494567Y-115944730D01*
X142519520Y-115930484D01*
X142536617Y-115933750D01*
X142575435Y-115959051D01*
X142635425Y-116009155D01*
X142718250Y-116085469D01*
X142825575Y-116189402D01*
X142835179Y-116198862D01*
X142920342Y-116283625D01*
X142995989Y-116360417D01*
X143057489Y-116424427D01*
X143100213Y-116470841D01*
X143119529Y-116494849D01*
X143119592Y-116494965D01*
X143122046Y-116513243D01*
X143112996Y-116542891D01*
X143090159Y-116587966D01*
X143051253Y-116652524D01*
X142993994Y-116740620D01*
X142916099Y-116856310D01*
X142902825Y-116875837D01*
X142835692Y-116974758D01*
X142776450Y-117062328D01*
X142728628Y-117133311D01*
X142695755Y-117182471D01*
X142681358Y-117204575D01*
X142680272Y-117209257D01*
X142687084Y-117244190D01*
X142707490Y-117301233D01*
X142738163Y-117370652D01*
X142779848Y-117461439D01*
X142826392Y-117569166D01*
X142865917Y-117666672D01*
X142875716Y-117691910D01*
X142901380Y-117756350D01*
X142920233Y-117801243D01*
X142928750Y-117818096D01*
X142938151Y-117819355D01*
X142980403Y-117826639D01*
X143049561Y-117839219D01*
X143138427Y-117855726D01*
X143239808Y-117874792D01*
X143346507Y-117895049D01*
X143451328Y-117915127D01*
X143547076Y-117933659D01*
X143626556Y-117949275D01*
X143682570Y-117960607D01*
X143707925Y-117966287D01*
X143712128Y-117967888D01*
X143722374Y-117976525D01*
X143729997Y-117994913D01*
X143735378Y-118027940D01*
X143738899Y-118080493D01*
X143740941Y-118157459D01*
X143741887Y-118263726D01*
X143742117Y-118404181D01*
X143742117Y-118831325D01*
X143639540Y-118851571D01*
X143627132Y-118853998D01*
X143561239Y-118866568D01*
X143470124Y-118883650D01*
X143364144Y-118903309D01*
X143253655Y-118923612D01*
X143210145Y-118931779D01*
X143112922Y-118951647D01*
X143031898Y-118970434D01*
X142974517Y-118986339D01*
X142948227Y-118997559D01*
X142936313Y-119015891D01*
X142914623Y-119064396D01*
X142892435Y-119127172D01*
X142884625Y-119150680D01*
X142855875Y-119227846D01*
X142818792Y-119319174D01*
X142779415Y-119409573D01*
X142758355Y-119456790D01*
X142728351Y-119527317D01*
X142707732Y-119580135D01*
X142700066Y-119606392D01*
X142700492Y-119608374D01*
X142715033Y-119636231D01*
X142747823Y-119689990D01*
X142795533Y-119764443D01*
X142854838Y-119854377D01*
X142922409Y-119954584D01*
X143144753Y-120280896D01*
X142852641Y-120573496D01*
X142824389Y-120601651D01*
X142738001Y-120685929D01*
X142660796Y-120758608D01*
X142597298Y-120815592D01*
X142552030Y-120852787D01*
X142529514Y-120866096D01*
X142505063Y-120855970D01*
X142453859Y-120826901D01*
X142381787Y-120782376D01*
X142294500Y-120725891D01*
X142197652Y-120660942D01*
X142102526Y-120596794D01*
X142016709Y-120540307D01*
X141946692Y-120495664D01*
X141897916Y-120466335D01*
X141875823Y-120455788D01*
X141874528Y-120455884D01*
X141845179Y-120466282D01*
X141793133Y-120490492D01*
X141728748Y-120523729D01*
X141728072Y-120524093D01*
X141642561Y-120566921D01*
X141583966Y-120587845D01*
X141547611Y-120587903D01*
X141528815Y-120568134D01*
X141520859Y-120548675D01*
X141499387Y-120496560D01*
X141466313Y-120416444D01*
X141423396Y-120312587D01*
X141372396Y-120189247D01*
X141315073Y-120050681D01*
X141253186Y-119901150D01*
X141197092Y-119765116D01*
X141140017Y-119625530D01*
X141089519Y-119500795D01*
X141047294Y-119395152D01*
X141015035Y-119312845D01*
X140994437Y-119258115D01*
X140987194Y-119235206D01*
X141001026Y-119214198D01*
X141039452Y-119179122D01*
X141093847Y-119138367D01*
X141224435Y-119031747D01*
X141341300Y-118895505D01*
X141426820Y-118745598D01*
X141480471Y-118586451D01*
X141501724Y-118422492D01*
X141490054Y-118258147D01*
X141444934Y-118097841D01*
X141365837Y-117946000D01*
X141252237Y-117807052D01*
X141193005Y-117752940D01*
X141051094Y-117657262D01*
X140899246Y-117594885D01*
X140741901Y-117564324D01*
X140583496Y-117564095D01*
X140428469Y-117592712D01*
X140281260Y-117648690D01*
X140146306Y-117730544D01*
X140028045Y-117836789D01*
X139930917Y-117965939D01*
X139859358Y-118116511D01*
X139817809Y-118287019D01*
X139810183Y-118369202D01*
X139820674Y-118547255D01*
X139867922Y-118716184D01*
X139950529Y-118873002D01*
X140067099Y-119014725D01*
X140216233Y-119138367D01*
X140268601Y-119177462D01*
X140307872Y-119212923D01*
X140322886Y-119235172D01*
X140316899Y-119254568D01*
X140297472Y-119306539D01*
X140266234Y-119386482D01*
X140224879Y-119490153D01*
X140175101Y-119613312D01*
X140118593Y-119751714D01*
X140057049Y-119901117D01*
X140001048Y-120036500D01*
X139943224Y-120176332D01*
X139891540Y-120301352D01*
X139847758Y-120407302D01*
X139813637Y-120489921D01*
X139790938Y-120544952D01*
X139781420Y-120568134D01*
X139781309Y-120568408D01*
X139762268Y-120587983D01*
X139725734Y-120587759D01*
X139666994Y-120566690D01*
X139581332Y-120523729D01*
X139574589Y-120520111D01*
X139510978Y-120487567D01*
X139460747Y-120464530D01*
X139434258Y-120455788D01*
X139412546Y-120466119D01*
X139364024Y-120495268D01*
X139294203Y-120539767D01*
X139208524Y-120596148D01*
X139112428Y-120660942D01*
X139017746Y-120724464D01*
X138930172Y-120781185D01*
X138857682Y-120826027D01*
X138805929Y-120855496D01*
X138780566Y-120866096D01*
X138776246Y-120864750D01*
X138746132Y-120843536D01*
X138694680Y-120799717D01*
X138626415Y-120737389D01*
X138545860Y-120660650D01*
X138457540Y-120573596D01*
X138165528Y-120281097D01*
X138620400Y-119612005D01*
X138551248Y-119462396D01*
X138551043Y-119461953D01*
X138509517Y-119366581D01*
X138467084Y-119260376D01*
X138432898Y-119166249D01*
X138427724Y-119151068D01*
X138401641Y-119080589D01*
X138378121Y-119025822D01*
X138361717Y-118997559D01*
X138355036Y-118993568D01*
X138314932Y-118980177D01*
X138246835Y-118962853D01*
X138158185Y-118943397D01*
X138056425Y-118923612D01*
X138025944Y-118918031D01*
X137915668Y-118897713D01*
X137812771Y-118878575D01*
X137727609Y-118862550D01*
X137670540Y-118851571D01*
X137567963Y-118831325D01*
X137567963Y-118404181D01*
X137567986Y-118351660D01*
X137568419Y-118223527D01*
X137569699Y-118127900D01*
X137572208Y-118059891D01*
X137576326Y-118014613D01*
X137582435Y-117987177D01*
X137590918Y-117972698D01*
X137602155Y-117966287D01*
X137613034Y-117963689D01*
X137657387Y-117954502D01*
X137728146Y-117940471D01*
X137818114Y-117922966D01*
X137920096Y-117903354D01*
X138026897Y-117883005D01*
X138131321Y-117863287D01*
X138226172Y-117845569D01*
X138304254Y-117831218D01*
X138358372Y-117821604D01*
X138381331Y-117818096D01*
X138382882Y-117815977D01*
X138395365Y-117788486D01*
X138416967Y-117735886D01*
X138444163Y-117666672D01*
X138481906Y-117573417D01*
X138528368Y-117465639D01*
X138571918Y-117370652D01*
X138581898Y-117349331D01*
X138609902Y-117282566D01*
X138626681Y-117231070D01*
X138628894Y-117204575D01*
X138627753Y-117202698D01*
X138609624Y-117175045D01*
X138573684Y-117121329D01*
X138523458Y-117046783D01*
X138462470Y-116956642D01*
X138394245Y-116856137D01*
X138317370Y-116741950D01*
X138259703Y-116653250D01*
X138220466Y-116588201D01*
X138197390Y-116542775D01*
X138188206Y-116512943D01*
X138190644Y-116494675D01*
X138191464Y-116493305D01*
X138213517Y-116466685D01*
X138258476Y-116418177D01*
X138321713Y-116352588D01*
X138398599Y-116274727D01*
X138484505Y-116189402D01*
X138573619Y-116102814D01*
X138660912Y-116021427D01*
X138725058Y-115966515D01*
X138767719Y-115936670D01*
X138790561Y-115930484D01*
X138793545Y-115931874D01*
X138824976Y-115950607D01*
X138882037Y-115987213D01*
X138959383Y-116038177D01*
X139051666Y-116099984D01*
X139153542Y-116169119D01*
X139485633Y-116395900D01*
X139635606Y-116327833D01*
X139639963Y-116325861D01*
X139732040Y-116285971D01*
X139829723Y-116246298D01*
X139912579Y-116215154D01*
X139912945Y-116215025D01*
X139978725Y-116190936D01*
X140029363Y-116170590D01*
X140053924Y-116158381D01*
X140054322Y-116157938D01*
X140062659Y-116132936D01*
X140076381Y-116076078D01*
X140094163Y-115993494D01*
X140114681Y-115891311D01*
X140136611Y-115775658D01*
X140137376Y-115771513D01*
X140159269Y-115653499D01*
X140179321Y-115546631D01*
X140196232Y-115457732D01*
X140208707Y-115393625D01*
X140215446Y-115361134D01*
X140215877Y-115359333D01*
X140220313Y-115345424D01*
X140229303Y-115334969D01*
X140247777Y-115327476D01*
X140280668Y-115322452D01*
X140332908Y-115319402D01*
X140409428Y-115317835D01*
X140515162Y-115317256D01*
X140655040Y-115317172D01*
X140672615Y-115317173D01*
G37*
%TO.C,G001*%
X177253900Y-118122507D02*
X176576566Y-118122507D01*
X176576566Y-115836507D01*
X177253900Y-115836507D01*
X177253900Y-118122507D01*
G36*
X177253900Y-118122507D02*
G01*
X176576566Y-118122507D01*
X176576566Y-115836507D01*
X177253900Y-115836507D01*
X177253900Y-118122507D01*
G37*
X174375233Y-118122507D02*
X173697900Y-118122507D01*
X173697900Y-115836507D01*
X174375233Y-115836507D01*
X174375233Y-118122507D01*
G36*
X174375233Y-118122507D02*
G01*
X173697900Y-118122507D01*
X173697900Y-115836507D01*
X174375233Y-115836507D01*
X174375233Y-118122507D01*
G37*
X175141767Y-116810173D02*
X175442641Y-116323340D01*
X175480369Y-116262537D01*
X175636748Y-116027041D01*
X175759675Y-115899363D01*
X175891700Y-115846764D01*
X176075374Y-115836507D01*
X176407233Y-115836507D01*
X176407233Y-118122507D01*
X175729900Y-118122507D01*
X175726164Y-117233507D01*
X175467043Y-117678007D01*
X175321248Y-117915560D01*
X175200344Y-118053992D01*
X175067601Y-118111243D01*
X174876245Y-118122507D01*
X174544566Y-118122507D01*
X174544566Y-115836507D01*
X175137233Y-115836507D01*
X175141767Y-116810173D01*
G36*
X175141767Y-116810173D02*
G01*
X175442641Y-116323340D01*
X175480369Y-116262537D01*
X175636748Y-116027041D01*
X175759675Y-115899363D01*
X175891700Y-115846764D01*
X176075374Y-115836507D01*
X176407233Y-115836507D01*
X176407233Y-118122507D01*
X175729900Y-118122507D01*
X175726164Y-117233507D01*
X175467043Y-117678007D01*
X175321248Y-117915560D01*
X175200344Y-118053992D01*
X175067601Y-118111243D01*
X174876245Y-118122507D01*
X174544566Y-118122507D01*
X174544566Y-115836507D01*
X175137233Y-115836507D01*
X175141767Y-116810173D01*
G37*
X180430487Y-117895557D02*
X180667286Y-118021641D01*
X180925325Y-118216879D01*
X181162172Y-118443634D01*
X181335396Y-118664265D01*
X181402566Y-118841135D01*
X181369697Y-119041730D01*
X181187307Y-119309043D01*
X180845386Y-119520587D01*
X180344233Y-119676128D01*
X180099894Y-119708229D01*
X179940089Y-119677663D01*
X179922296Y-119598109D01*
X180048699Y-119496209D01*
X180321482Y-119398606D01*
X180568369Y-119319909D01*
X180865583Y-119172207D01*
X181071541Y-119003895D01*
X181148566Y-118840403D01*
X181093622Y-118720199D01*
X180945609Y-118537079D01*
X180749016Y-118339727D01*
X180548491Y-118172772D01*
X180388685Y-118080846D01*
X180375910Y-118076552D01*
X180249361Y-117996098D01*
X180219262Y-117909186D01*
X180306104Y-117868507D01*
X180430487Y-117895557D01*
G36*
X180430487Y-117895557D02*
G01*
X180667286Y-118021641D01*
X180925325Y-118216879D01*
X181162172Y-118443634D01*
X181335396Y-118664265D01*
X181402566Y-118841135D01*
X181369697Y-119041730D01*
X181187307Y-119309043D01*
X180845386Y-119520587D01*
X180344233Y-119676128D01*
X180099894Y-119708229D01*
X179940089Y-119677663D01*
X179922296Y-119598109D01*
X180048699Y-119496209D01*
X180321482Y-119398606D01*
X180568369Y-119319909D01*
X180865583Y-119172207D01*
X181071541Y-119003895D01*
X181148566Y-118840403D01*
X181093622Y-118720199D01*
X180945609Y-118537079D01*
X180749016Y-118339727D01*
X180548491Y-118172772D01*
X180388685Y-118080846D01*
X180375910Y-118076552D01*
X180249361Y-117996098D01*
X180219262Y-117909186D01*
X180306104Y-117868507D01*
X180430487Y-117895557D01*
G37*
X177875062Y-115840070D02*
X177998448Y-115871525D01*
X178099945Y-115962061D01*
X178211350Y-116142833D01*
X178364464Y-116444997D01*
X178665358Y-117053487D01*
X178945830Y-116444997D01*
X179065233Y-116189897D01*
X179174944Y-115987776D01*
X179271663Y-115882620D01*
X179386967Y-115842756D01*
X179552434Y-115836507D01*
X179878566Y-115836507D01*
X179878566Y-118122507D01*
X179582233Y-118122507D01*
X179472443Y-118121074D01*
X179342347Y-118091938D01*
X179291658Y-117988271D01*
X179280648Y-117762673D01*
X179275395Y-117402840D01*
X179094634Y-117762673D01*
X179079774Y-117792000D01*
X178952780Y-118002970D01*
X178826299Y-118099461D01*
X178649580Y-118122507D01*
X178540305Y-118115827D01*
X178377161Y-118041505D01*
X178248342Y-117847340D01*
X178111396Y-117572173D01*
X178105981Y-117847340D01*
X178103985Y-117916111D01*
X178076646Y-118057175D01*
X177979123Y-118112773D01*
X177761900Y-118122507D01*
X177423233Y-118122507D01*
X177423233Y-115836507D01*
X177743401Y-115836507D01*
X177875062Y-115840070D01*
G36*
X177875062Y-115840070D02*
G01*
X177998448Y-115871525D01*
X178099945Y-115962061D01*
X178211350Y-116142833D01*
X178364464Y-116444997D01*
X178665358Y-117053487D01*
X178945830Y-116444997D01*
X179065233Y-116189897D01*
X179174944Y-115987776D01*
X179271663Y-115882620D01*
X179386967Y-115842756D01*
X179552434Y-115836507D01*
X179878566Y-115836507D01*
X179878566Y-118122507D01*
X179582233Y-118122507D01*
X179472443Y-118121074D01*
X179342347Y-118091938D01*
X179291658Y-117988271D01*
X179280648Y-117762673D01*
X179275395Y-117402840D01*
X179094634Y-117762673D01*
X179079774Y-117792000D01*
X178952780Y-118002970D01*
X178826299Y-118099461D01*
X178649580Y-118122507D01*
X178540305Y-118115827D01*
X178377161Y-118041505D01*
X178248342Y-117847340D01*
X178111396Y-117572173D01*
X178105981Y-117847340D01*
X178103985Y-117916111D01*
X178076646Y-118057175D01*
X177979123Y-118112773D01*
X177761900Y-118122507D01*
X177423233Y-118122507D01*
X177423233Y-115836507D01*
X177743401Y-115836507D01*
X177875062Y-115840070D01*
G37*
X174063290Y-119564879D02*
X174188977Y-119594598D01*
X174289984Y-119682625D01*
X174398631Y-119860567D01*
X174547240Y-120160032D01*
X174836626Y-120758224D01*
X175132428Y-120160032D01*
X175248493Y-119928649D01*
X175367168Y-119721010D01*
X175468462Y-119611622D01*
X175584747Y-119569046D01*
X175748398Y-119561840D01*
X176068566Y-119561840D01*
X176068566Y-121847840D01*
X175772233Y-121847840D01*
X175662443Y-121846407D01*
X175532347Y-121817271D01*
X175481658Y-121713605D01*
X175470648Y-121488007D01*
X175465395Y-121128173D01*
X175284634Y-121488007D01*
X175269774Y-121517333D01*
X175142780Y-121728304D01*
X175016299Y-121824795D01*
X174839580Y-121847840D01*
X174730305Y-121841160D01*
X174567161Y-121766839D01*
X174438342Y-121572673D01*
X174301396Y-121297507D01*
X174295981Y-121572673D01*
X174293985Y-121641444D01*
X174266646Y-121782508D01*
X174169123Y-121838107D01*
X173951900Y-121847840D01*
X173613233Y-121847840D01*
X173613233Y-119561840D01*
X173935543Y-119561840D01*
X174063290Y-119564879D01*
G36*
X174063290Y-119564879D02*
G01*
X174188977Y-119594598D01*
X174289984Y-119682625D01*
X174398631Y-119860567D01*
X174547240Y-120160032D01*
X174836626Y-120758224D01*
X175132428Y-120160032D01*
X175248493Y-119928649D01*
X175367168Y-119721010D01*
X175468462Y-119611622D01*
X175584747Y-119569046D01*
X175748398Y-119561840D01*
X176068566Y-119561840D01*
X176068566Y-121847840D01*
X175772233Y-121847840D01*
X175662443Y-121846407D01*
X175532347Y-121817271D01*
X175481658Y-121713605D01*
X175470648Y-121488007D01*
X175465395Y-121128173D01*
X175284634Y-121488007D01*
X175269774Y-121517333D01*
X175142780Y-121728304D01*
X175016299Y-121824795D01*
X174839580Y-121847840D01*
X174730305Y-121841160D01*
X174567161Y-121766839D01*
X174438342Y-121572673D01*
X174301396Y-121297507D01*
X174295981Y-121572673D01*
X174293985Y-121641444D01*
X174266646Y-121782508D01*
X174169123Y-121838107D01*
X173951900Y-121847840D01*
X173613233Y-121847840D01*
X173613233Y-119561840D01*
X173935543Y-119561840D01*
X174063290Y-119564879D01*
G37*
X173481048Y-120346177D02*
X173486233Y-120704840D01*
X173485753Y-120844869D01*
X173475814Y-121156008D01*
X173445183Y-121359790D01*
X173383642Y-121502232D01*
X173280975Y-121629352D01*
X173273032Y-121637763D01*
X173147231Y-121749933D01*
X173004005Y-121813330D01*
X172792784Y-121841464D01*
X172463001Y-121847840D01*
X172330024Y-121847436D01*
X172055371Y-121837170D01*
X171881113Y-121800977D01*
X171756577Y-121722991D01*
X171631093Y-121587344D01*
X171519821Y-121436727D01*
X171450810Y-121270638D01*
X171419364Y-121044904D01*
X171411900Y-120704840D01*
X171418376Y-120381386D01*
X171436612Y-120239173D01*
X172080783Y-120239173D01*
X172106175Y-120726007D01*
X172131566Y-121212840D01*
X172430926Y-121238036D01*
X172464209Y-121240441D01*
X172673097Y-121236691D01*
X172790759Y-121202758D01*
X172813673Y-121145988D01*
X172840698Y-120955158D01*
X172851233Y-120690729D01*
X172851233Y-120239173D01*
X172080783Y-120239173D01*
X171436612Y-120239173D01*
X171448003Y-120150342D01*
X171514382Y-119982220D01*
X171631093Y-119822336D01*
X171679493Y-119765945D01*
X171798803Y-119652849D01*
X171935377Y-119591711D01*
X172139886Y-119566663D01*
X172463001Y-119561840D01*
X172486601Y-119561855D01*
X172808006Y-119569137D01*
X173013824Y-119598972D01*
X173154623Y-119664866D01*
X173280975Y-119780328D01*
X173321536Y-119825156D01*
X173408916Y-119952352D01*
X173458681Y-120110687D01*
X173470885Y-120239173D01*
X173481048Y-120346177D01*
G36*
X173481048Y-120346177D02*
G01*
X173486233Y-120704840D01*
X173485753Y-120844869D01*
X173475814Y-121156008D01*
X173445183Y-121359790D01*
X173383642Y-121502232D01*
X173280975Y-121629352D01*
X173273032Y-121637763D01*
X173147231Y-121749933D01*
X173004005Y-121813330D01*
X172792784Y-121841464D01*
X172463001Y-121847840D01*
X172330024Y-121847436D01*
X172055371Y-121837170D01*
X171881113Y-121800977D01*
X171756577Y-121722991D01*
X171631093Y-121587344D01*
X171519821Y-121436727D01*
X171450810Y-121270638D01*
X171419364Y-121044904D01*
X171411900Y-120704840D01*
X171418376Y-120381386D01*
X171436612Y-120239173D01*
X172080783Y-120239173D01*
X172106175Y-120726007D01*
X172131566Y-121212840D01*
X172430926Y-121238036D01*
X172464209Y-121240441D01*
X172673097Y-121236691D01*
X172790759Y-121202758D01*
X172813673Y-121145988D01*
X172840698Y-120955158D01*
X172851233Y-120690729D01*
X172851233Y-120239173D01*
X172080783Y-120239173D01*
X171436612Y-120239173D01*
X171448003Y-120150342D01*
X171514382Y-119982220D01*
X171631093Y-119822336D01*
X171679493Y-119765945D01*
X171798803Y-119652849D01*
X171935377Y-119591711D01*
X172139886Y-119566663D01*
X172463001Y-119561840D01*
X172486601Y-119561855D01*
X172808006Y-119569137D01*
X173013824Y-119598972D01*
X173154623Y-119664866D01*
X173280975Y-119780328D01*
X173321536Y-119825156D01*
X173408916Y-119952352D01*
X173458681Y-120110687D01*
X173470885Y-120239173D01*
X173481048Y-120346177D01*
G37*
X180096695Y-120719051D02*
X179959938Y-120905310D01*
X179893137Y-120980242D01*
X179777789Y-121051572D01*
X179667424Y-121001608D01*
X179556381Y-120944836D01*
X179489510Y-121033971D01*
X179455044Y-121103214D01*
X179380347Y-121170507D01*
X179344573Y-121159230D01*
X179202057Y-121082794D01*
X179020262Y-120968066D01*
X178865018Y-120855311D01*
X178863164Y-120825264D01*
X178949685Y-120742570D01*
X178959268Y-120736353D01*
X179031594Y-120660572D01*
X178950600Y-120583009D01*
X178901294Y-120545395D01*
X178884581Y-120462920D01*
X178971920Y-120346849D01*
X179142457Y-120346849D01*
X179226111Y-120409446D01*
X179308903Y-120489071D01*
X179326239Y-120668790D01*
X179302749Y-120799847D01*
X179346925Y-120816434D01*
X179442832Y-120687673D01*
X179444292Y-120685075D01*
X179533294Y-120591815D01*
X179651168Y-120649451D01*
X179736329Y-120701931D01*
X179833692Y-120666618D01*
X179842915Y-120620698D01*
X179756563Y-120577840D01*
X179680549Y-120567001D01*
X179630993Y-120485120D01*
X179726166Y-120340773D01*
X179777232Y-120262099D01*
X179683833Y-120239173D01*
X179609525Y-120251644D01*
X179539900Y-120325453D01*
X179478488Y-120372373D01*
X179307066Y-120362442D01*
X179198368Y-120341451D01*
X179142457Y-120346849D01*
X178971920Y-120346849D01*
X178987591Y-120326023D01*
X179130187Y-120217572D01*
X179270122Y-120195315D01*
X179348584Y-120205323D01*
X179510805Y-120143519D01*
X179525950Y-120132330D01*
X179683898Y-120097592D01*
X179860187Y-120143124D01*
X179992261Y-120241534D01*
X180017567Y-120365430D01*
X180005103Y-120427559D01*
X180051598Y-120537792D01*
X180119008Y-120607127D01*
X180116302Y-120620698D01*
X180096695Y-120719051D01*
G36*
X180096695Y-120719051D02*
G01*
X179959938Y-120905310D01*
X179893137Y-120980242D01*
X179777789Y-121051572D01*
X179667424Y-121001608D01*
X179556381Y-120944836D01*
X179489510Y-121033971D01*
X179455044Y-121103214D01*
X179380347Y-121170507D01*
X179344573Y-121159230D01*
X179202057Y-121082794D01*
X179020262Y-120968066D01*
X178865018Y-120855311D01*
X178863164Y-120825264D01*
X178949685Y-120742570D01*
X178959268Y-120736353D01*
X179031594Y-120660572D01*
X178950600Y-120583009D01*
X178901294Y-120545395D01*
X178884581Y-120462920D01*
X178971920Y-120346849D01*
X179142457Y-120346849D01*
X179226111Y-120409446D01*
X179308903Y-120489071D01*
X179326239Y-120668790D01*
X179302749Y-120799847D01*
X179346925Y-120816434D01*
X179442832Y-120687673D01*
X179444292Y-120685075D01*
X179533294Y-120591815D01*
X179651168Y-120649451D01*
X179736329Y-120701931D01*
X179833692Y-120666618D01*
X179842915Y-120620698D01*
X179756563Y-120577840D01*
X179680549Y-120567001D01*
X179630993Y-120485120D01*
X179726166Y-120340773D01*
X179777232Y-120262099D01*
X179683833Y-120239173D01*
X179609525Y-120251644D01*
X179539900Y-120325453D01*
X179478488Y-120372373D01*
X179307066Y-120362442D01*
X179198368Y-120341451D01*
X179142457Y-120346849D01*
X178971920Y-120346849D01*
X178987591Y-120326023D01*
X179130187Y-120217572D01*
X179270122Y-120195315D01*
X179348584Y-120205323D01*
X179510805Y-120143519D01*
X179525950Y-120132330D01*
X179683898Y-120097592D01*
X179860187Y-120143124D01*
X179992261Y-120241534D01*
X180017567Y-120365430D01*
X180005103Y-120427559D01*
X180051598Y-120537792D01*
X180119008Y-120607127D01*
X180116302Y-120620698D01*
X180096695Y-120719051D01*
G37*
X171327233Y-121847840D02*
X170622325Y-121847840D01*
X170522855Y-121847222D01*
X170104385Y-121818762D01*
X169817935Y-121729882D01*
X169634658Y-121555852D01*
X169525706Y-121271946D01*
X169462231Y-120853435D01*
X169458166Y-120814274D01*
X169434179Y-120617797D01*
X170134956Y-120617797D01*
X170141576Y-120874699D01*
X170188532Y-121090604D01*
X170275825Y-121203781D01*
X170331288Y-121224190D01*
X170499024Y-121259191D01*
X170595441Y-121201102D01*
X170639434Y-121024719D01*
X170649900Y-120704840D01*
X170649390Y-120609774D01*
X170632293Y-120328242D01*
X170576930Y-120183888D01*
X170464406Y-120151507D01*
X170275825Y-120205898D01*
X170242726Y-120227928D01*
X170168673Y-120381630D01*
X170134956Y-120617797D01*
X169434179Y-120617797D01*
X169428786Y-120573627D01*
X169405103Y-120448663D01*
X169391920Y-120465861D01*
X169353710Y-120606288D01*
X169179011Y-120808602D01*
X168900165Y-120948764D01*
X168557093Y-121001173D01*
X168436261Y-121003992D01*
X168252997Y-121035926D01*
X168215425Y-121107007D01*
X168266937Y-121152884D01*
X168472778Y-121206964D01*
X168815148Y-121237875D01*
X169379900Y-121262910D01*
X169379900Y-121847840D01*
X168656385Y-121847840D01*
X168462729Y-121846962D01*
X168167805Y-121835980D01*
X167976153Y-121804434D01*
X167843370Y-121742418D01*
X167725051Y-121640022D01*
X167709805Y-121624290D01*
X167550700Y-121350947D01*
X167516855Y-121042395D01*
X167596455Y-120745011D01*
X167777689Y-120505170D01*
X168048743Y-120369248D01*
X168236085Y-120334120D01*
X168490900Y-120296242D01*
X168519348Y-120291892D01*
X168524590Y-120275698D01*
X168387954Y-120261465D01*
X168131066Y-120251859D01*
X167517233Y-120239173D01*
X167517233Y-119561840D01*
X168264475Y-119561840D01*
X168460680Y-119562716D01*
X168762279Y-119573253D01*
X168956231Y-119602653D01*
X169084076Y-119659490D01*
X169187356Y-119752340D01*
X169316342Y-119926403D01*
X169400678Y-120112173D01*
X169420690Y-120197476D01*
X169451270Y-120233384D01*
X169506413Y-120112173D01*
X169595699Y-119950504D01*
X169745941Y-119752340D01*
X169777747Y-119718558D01*
X169885998Y-119635938D01*
X170034104Y-119588525D01*
X170265177Y-119566949D01*
X170622325Y-119561840D01*
X171327233Y-119561840D01*
X171327233Y-120704840D01*
X171327233Y-121847840D01*
G36*
X171327233Y-121847840D02*
G01*
X170622325Y-121847840D01*
X170522855Y-121847222D01*
X170104385Y-121818762D01*
X169817935Y-121729882D01*
X169634658Y-121555852D01*
X169525706Y-121271946D01*
X169462231Y-120853435D01*
X169458166Y-120814274D01*
X169434179Y-120617797D01*
X170134956Y-120617797D01*
X170141576Y-120874699D01*
X170188532Y-121090604D01*
X170275825Y-121203781D01*
X170331288Y-121224190D01*
X170499024Y-121259191D01*
X170595441Y-121201102D01*
X170639434Y-121024719D01*
X170649900Y-120704840D01*
X170649390Y-120609774D01*
X170632293Y-120328242D01*
X170576930Y-120183888D01*
X170464406Y-120151507D01*
X170275825Y-120205898D01*
X170242726Y-120227928D01*
X170168673Y-120381630D01*
X170134956Y-120617797D01*
X169434179Y-120617797D01*
X169428786Y-120573627D01*
X169405103Y-120448663D01*
X169391920Y-120465861D01*
X169353710Y-120606288D01*
X169179011Y-120808602D01*
X168900165Y-120948764D01*
X168557093Y-121001173D01*
X168436261Y-121003992D01*
X168252997Y-121035926D01*
X168215425Y-121107007D01*
X168266937Y-121152884D01*
X168472778Y-121206964D01*
X168815148Y-121237875D01*
X169379900Y-121262910D01*
X169379900Y-121847840D01*
X168656385Y-121847840D01*
X168462729Y-121846962D01*
X168167805Y-121835980D01*
X167976153Y-121804434D01*
X167843370Y-121742418D01*
X167725051Y-121640022D01*
X167709805Y-121624290D01*
X167550700Y-121350947D01*
X167516855Y-121042395D01*
X167596455Y-120745011D01*
X167777689Y-120505170D01*
X168048743Y-120369248D01*
X168236085Y-120334120D01*
X168490900Y-120296242D01*
X168519348Y-120291892D01*
X168524590Y-120275698D01*
X168387954Y-120261465D01*
X168131066Y-120251859D01*
X167517233Y-120239173D01*
X167517233Y-119561840D01*
X168264475Y-119561840D01*
X168460680Y-119562716D01*
X168762279Y-119573253D01*
X168956231Y-119602653D01*
X169084076Y-119659490D01*
X169187356Y-119752340D01*
X169316342Y-119926403D01*
X169400678Y-120112173D01*
X169420690Y-120197476D01*
X169451270Y-120233384D01*
X169506413Y-120112173D01*
X169595699Y-119950504D01*
X169745941Y-119752340D01*
X169777747Y-119718558D01*
X169885998Y-119635938D01*
X170034104Y-119588525D01*
X170265177Y-119566949D01*
X170622325Y-119561840D01*
X171327233Y-119561840D01*
X171327233Y-120704840D01*
X171327233Y-121847840D01*
G37*
X178523446Y-119275171D02*
X178544574Y-119314018D01*
X178681680Y-119411866D01*
X178904024Y-119514672D01*
X178915868Y-119519507D01*
X179025173Y-119564130D01*
X179106429Y-119604173D01*
X179231243Y-119665682D01*
X179312049Y-119725661D01*
X179335657Y-119743185D01*
X179328955Y-119773507D01*
X179320866Y-119810112D01*
X179214583Y-119956877D01*
X179049007Y-120135125D01*
X178979964Y-120198792D01*
X178890265Y-120281507D01*
X178865618Y-120304235D01*
X178705897Y-120423582D01*
X178611325Y-120452544D01*
X178577618Y-120470741D01*
X178566312Y-120600075D01*
X178595864Y-120689264D01*
X178597057Y-120690579D01*
X178761965Y-120872371D01*
X179081040Y-121098186D01*
X179089021Y-121103186D01*
X179349814Y-121259573D01*
X179557193Y-121371466D01*
X179666900Y-121414935D01*
X179686736Y-121407048D01*
X179795897Y-121301271D01*
X179960826Y-121097846D01*
X180154220Y-120829570D01*
X180556873Y-120241852D01*
X180260053Y-120113513D01*
X180259304Y-120113189D01*
X179962883Y-119985020D01*
X179666900Y-119857037D01*
X179614831Y-119833222D01*
X179440805Y-119729588D01*
X179370566Y-119645370D01*
X179372138Y-119599658D01*
X179396008Y-119573751D01*
X179474687Y-119592985D01*
X179640823Y-119666674D01*
X179927062Y-119804131D01*
X179991449Y-119835077D01*
X180373126Y-120009553D01*
X180626269Y-120104565D01*
X180766615Y-120124949D01*
X180809900Y-120075545D01*
X180813269Y-120050349D01*
X180894566Y-119985173D01*
X180909958Y-119990477D01*
X180959327Y-120098955D01*
X180979233Y-120303320D01*
X180977345Y-120357399D01*
X180955415Y-120468626D01*
X180941023Y-120541624D01*
X180846750Y-120764543D01*
X180679206Y-121057825D01*
X180423075Y-121453143D01*
X180278284Y-121665202D01*
X180031782Y-121997643D01*
X179854647Y-122191276D01*
X179751598Y-122240568D01*
X179717363Y-122222888D01*
X179553023Y-122125086D01*
X179279415Y-121955597D01*
X178918416Y-121728160D01*
X178491905Y-121456510D01*
X178021757Y-121154385D01*
X177628309Y-120899886D01*
X177200967Y-120620005D01*
X176886883Y-120406898D01*
X176668881Y-120246718D01*
X176529787Y-120125616D01*
X176452426Y-120029747D01*
X176419621Y-119945262D01*
X176418763Y-119931511D01*
X176576566Y-119931511D01*
X176585154Y-119949922D01*
X176698456Y-120057727D01*
X176926946Y-120235319D01*
X177249785Y-120467554D01*
X177646140Y-120739285D01*
X178095175Y-121035367D01*
X178250199Y-121135543D01*
X178693416Y-121420001D01*
X179085074Y-121668562D01*
X179402604Y-121867074D01*
X179623438Y-122001385D01*
X179725008Y-122057343D01*
X179775884Y-122040428D01*
X179908480Y-121914642D01*
X180085487Y-121698283D01*
X180283282Y-121425942D01*
X180478244Y-121132213D01*
X180646749Y-120851689D01*
X180765175Y-120618962D01*
X180809900Y-120468626D01*
X180794326Y-120438712D01*
X180702767Y-120504689D01*
X180532656Y-120709988D01*
X180287982Y-121050164D01*
X180113105Y-121302805D01*
X179925648Y-121572447D01*
X179791894Y-121763436D01*
X179733045Y-121845388D01*
X179716305Y-121853956D01*
X179641130Y-121798180D01*
X179618942Y-121776396D01*
X179476216Y-121669858D01*
X179228112Y-121500205D01*
X178901663Y-121285671D01*
X178523900Y-121044494D01*
X178419728Y-120978864D01*
X177998800Y-120713362D01*
X177598001Y-120460116D01*
X177258400Y-120245096D01*
X177149199Y-120175697D01*
X177522928Y-120175697D01*
X177592566Y-120258300D01*
X177741738Y-120380354D01*
X177940694Y-120512870D01*
X178139800Y-120626210D01*
X178292919Y-120694178D01*
X178353914Y-120690579D01*
X178332166Y-120653942D01*
X178202191Y-120544168D01*
X177994081Y-120408507D01*
X177773385Y-120281507D01*
X178608566Y-120281507D01*
X178650900Y-120323840D01*
X178693233Y-120281507D01*
X178650900Y-120239173D01*
X178608566Y-120281507D01*
X177773385Y-120281507D01*
X177751580Y-120268959D01*
X177573407Y-120178306D01*
X177522928Y-120175697D01*
X177149199Y-120175697D01*
X177021066Y-120094267D01*
X176908817Y-120027507D01*
X177423233Y-120027507D01*
X177465566Y-120069840D01*
X177507900Y-120027507D01*
X177465566Y-119985173D01*
X177423233Y-120027507D01*
X176908817Y-120027507D01*
X176794076Y-119959265D01*
X177992635Y-119959265D01*
X178035750Y-120010613D01*
X178053265Y-120027507D01*
X178119540Y-120091436D01*
X178148704Y-120162878D01*
X178179688Y-120188665D01*
X178324850Y-120209392D01*
X178450879Y-120214438D01*
X178493926Y-120198792D01*
X178409732Y-120144170D01*
X178185233Y-120034175D01*
X178092749Y-119991642D01*
X177992635Y-119959265D01*
X176794076Y-119959265D01*
X176791058Y-119957470D01*
X176628522Y-119893029D01*
X176576566Y-119931511D01*
X176418763Y-119931511D01*
X176414502Y-119863170D01*
X177592566Y-119863170D01*
X177593391Y-119875006D01*
X177642401Y-119893652D01*
X177727651Y-119802758D01*
X177740387Y-119773507D01*
X178947233Y-119773507D01*
X178989566Y-119815840D01*
X179031900Y-119773507D01*
X178989566Y-119731173D01*
X178965297Y-119755442D01*
X178947233Y-119773507D01*
X177740387Y-119773507D01*
X177748252Y-119755442D01*
X177690315Y-119765422D01*
X177652703Y-119791557D01*
X177592566Y-119863170D01*
X176414502Y-119863170D01*
X176414199Y-119858314D01*
X176428874Y-119749522D01*
X176504093Y-119595216D01*
X176529290Y-119567352D01*
X176681992Y-119567352D01*
X176703566Y-119646507D01*
X176720961Y-119671570D01*
X176798227Y-119731173D01*
X176809808Y-119725661D01*
X176801134Y-119693837D01*
X177338566Y-119693837D01*
X177339391Y-119705673D01*
X177388401Y-119724318D01*
X177473651Y-119633425D01*
X177494252Y-119586109D01*
X177436315Y-119596088D01*
X177398703Y-119622224D01*
X177338566Y-119693837D01*
X176801134Y-119693837D01*
X176788233Y-119646507D01*
X176770838Y-119621443D01*
X176693573Y-119561840D01*
X176681992Y-119567352D01*
X176529290Y-119567352D01*
X176649117Y-119434840D01*
X176999900Y-119434840D01*
X177042233Y-119477173D01*
X177084566Y-119434840D01*
X177042233Y-119392507D01*
X176999900Y-119434840D01*
X176649117Y-119434840D01*
X176666931Y-119415140D01*
X176876804Y-119233239D01*
X177186640Y-119233239D01*
X177278026Y-119335221D01*
X177451631Y-119434840D01*
X177510507Y-119468625D01*
X177613363Y-119521663D01*
X177743257Y-119586109D01*
X177791493Y-119610041D01*
X177870340Y-119643690D01*
X177878810Y-119641351D01*
X177933115Y-119604173D01*
X178523900Y-119604173D01*
X178566233Y-119646507D01*
X178608566Y-119604173D01*
X178566233Y-119561840D01*
X178523900Y-119604173D01*
X177933115Y-119604173D01*
X177978024Y-119573428D01*
X178037430Y-119519507D01*
X178354566Y-119519507D01*
X178396900Y-119561840D01*
X178439233Y-119519507D01*
X178396900Y-119477173D01*
X178354566Y-119519507D01*
X178037430Y-119519507D01*
X178110795Y-119452916D01*
X178222275Y-119333118D01*
X178257616Y-119267333D01*
X178224485Y-119245893D01*
X178071393Y-119167715D01*
X177844890Y-119062518D01*
X177720458Y-119008079D01*
X177538430Y-118945738D01*
X177423653Y-118954037D01*
X177318835Y-119029363D01*
X177221382Y-119128382D01*
X177186640Y-119233239D01*
X176876804Y-119233239D01*
X176943925Y-119175064D01*
X177466687Y-118745955D01*
X177994840Y-118963397D01*
X178260508Y-119085631D01*
X178450716Y-119197769D01*
X178516082Y-119267333D01*
X178523446Y-119275171D01*
G36*
X178523446Y-119275171D02*
G01*
X178544574Y-119314018D01*
X178681680Y-119411866D01*
X178904024Y-119514672D01*
X178915868Y-119519507D01*
X179025173Y-119564130D01*
X179106429Y-119604173D01*
X179231243Y-119665682D01*
X179312049Y-119725661D01*
X179335657Y-119743185D01*
X179328955Y-119773507D01*
X179320866Y-119810112D01*
X179214583Y-119956877D01*
X179049007Y-120135125D01*
X178979964Y-120198792D01*
X178890265Y-120281507D01*
X178865618Y-120304235D01*
X178705897Y-120423582D01*
X178611325Y-120452544D01*
X178577618Y-120470741D01*
X178566312Y-120600075D01*
X178595864Y-120689264D01*
X178597057Y-120690579D01*
X178761965Y-120872371D01*
X179081040Y-121098186D01*
X179089021Y-121103186D01*
X179349814Y-121259573D01*
X179557193Y-121371466D01*
X179666900Y-121414935D01*
X179686736Y-121407048D01*
X179795897Y-121301271D01*
X179960826Y-121097846D01*
X180154220Y-120829570D01*
X180556873Y-120241852D01*
X180260053Y-120113513D01*
X180259304Y-120113189D01*
X179962883Y-119985020D01*
X179666900Y-119857037D01*
X179614831Y-119833222D01*
X179440805Y-119729588D01*
X179370566Y-119645370D01*
X179372138Y-119599658D01*
X179396008Y-119573751D01*
X179474687Y-119592985D01*
X179640823Y-119666674D01*
X179927062Y-119804131D01*
X179991449Y-119835077D01*
X180373126Y-120009553D01*
X180626269Y-120104565D01*
X180766615Y-120124949D01*
X180809900Y-120075545D01*
X180813269Y-120050349D01*
X180894566Y-119985173D01*
X180909958Y-119990477D01*
X180959327Y-120098955D01*
X180979233Y-120303320D01*
X180977345Y-120357399D01*
X180955415Y-120468626D01*
X180941023Y-120541624D01*
X180846750Y-120764543D01*
X180679206Y-121057825D01*
X180423075Y-121453143D01*
X180278284Y-121665202D01*
X180031782Y-121997643D01*
X179854647Y-122191276D01*
X179751598Y-122240568D01*
X179717363Y-122222888D01*
X179553023Y-122125086D01*
X179279415Y-121955597D01*
X178918416Y-121728160D01*
X178491905Y-121456510D01*
X178021757Y-121154385D01*
X177628309Y-120899886D01*
X177200967Y-120620005D01*
X176886883Y-120406898D01*
X176668881Y-120246718D01*
X176529787Y-120125616D01*
X176452426Y-120029747D01*
X176419621Y-119945262D01*
X176418763Y-119931511D01*
X176576566Y-119931511D01*
X176585154Y-119949922D01*
X176698456Y-120057727D01*
X176926946Y-120235319D01*
X177249785Y-120467554D01*
X177646140Y-120739285D01*
X178095175Y-121035367D01*
X178250199Y-121135543D01*
X178693416Y-121420001D01*
X179085074Y-121668562D01*
X179402604Y-121867074D01*
X179623438Y-122001385D01*
X179725008Y-122057343D01*
X179775884Y-122040428D01*
X179908480Y-121914642D01*
X180085487Y-121698283D01*
X180283282Y-121425942D01*
X180478244Y-121132213D01*
X180646749Y-120851689D01*
X180765175Y-120618962D01*
X180809900Y-120468626D01*
X180794326Y-120438712D01*
X180702767Y-120504689D01*
X180532656Y-120709988D01*
X180287982Y-121050164D01*
X180113105Y-121302805D01*
X179925648Y-121572447D01*
X179791894Y-121763436D01*
X179733045Y-121845388D01*
X179716305Y-121853956D01*
X179641130Y-121798180D01*
X179618942Y-121776396D01*
X179476216Y-121669858D01*
X179228112Y-121500205D01*
X178901663Y-121285671D01*
X178523900Y-121044494D01*
X178419728Y-120978864D01*
X177998800Y-120713362D01*
X177598001Y-120460116D01*
X177258400Y-120245096D01*
X177149199Y-120175697D01*
X177522928Y-120175697D01*
X177592566Y-120258300D01*
X177741738Y-120380354D01*
X177940694Y-120512870D01*
X178139800Y-120626210D01*
X178292919Y-120694178D01*
X178353914Y-120690579D01*
X178332166Y-120653942D01*
X178202191Y-120544168D01*
X177994081Y-120408507D01*
X177773385Y-120281507D01*
X178608566Y-120281507D01*
X178650900Y-120323840D01*
X178693233Y-120281507D01*
X178650900Y-120239173D01*
X178608566Y-120281507D01*
X177773385Y-120281507D01*
X177751580Y-120268959D01*
X177573407Y-120178306D01*
X177522928Y-120175697D01*
X177149199Y-120175697D01*
X177021066Y-120094267D01*
X176908817Y-120027507D01*
X177423233Y-120027507D01*
X177465566Y-120069840D01*
X177507900Y-120027507D01*
X177465566Y-119985173D01*
X177423233Y-120027507D01*
X176908817Y-120027507D01*
X176794076Y-119959265D01*
X177992635Y-119959265D01*
X178035750Y-120010613D01*
X178053265Y-120027507D01*
X178119540Y-120091436D01*
X178148704Y-120162878D01*
X178179688Y-120188665D01*
X178324850Y-120209392D01*
X178450879Y-120214438D01*
X178493926Y-120198792D01*
X178409732Y-120144170D01*
X178185233Y-120034175D01*
X178092749Y-119991642D01*
X177992635Y-119959265D01*
X176794076Y-119959265D01*
X176791058Y-119957470D01*
X176628522Y-119893029D01*
X176576566Y-119931511D01*
X176418763Y-119931511D01*
X176414502Y-119863170D01*
X177592566Y-119863170D01*
X177593391Y-119875006D01*
X177642401Y-119893652D01*
X177727651Y-119802758D01*
X177740387Y-119773507D01*
X178947233Y-119773507D01*
X178989566Y-119815840D01*
X179031900Y-119773507D01*
X178989566Y-119731173D01*
X178965297Y-119755442D01*
X178947233Y-119773507D01*
X177740387Y-119773507D01*
X177748252Y-119755442D01*
X177690315Y-119765422D01*
X177652703Y-119791557D01*
X177592566Y-119863170D01*
X176414502Y-119863170D01*
X176414199Y-119858314D01*
X176428874Y-119749522D01*
X176504093Y-119595216D01*
X176529290Y-119567352D01*
X176681992Y-119567352D01*
X176703566Y-119646507D01*
X176720961Y-119671570D01*
X176798227Y-119731173D01*
X176809808Y-119725661D01*
X176801134Y-119693837D01*
X177338566Y-119693837D01*
X177339391Y-119705673D01*
X177388401Y-119724318D01*
X177473651Y-119633425D01*
X177494252Y-119586109D01*
X177436315Y-119596088D01*
X177398703Y-119622224D01*
X177338566Y-119693837D01*
X176801134Y-119693837D01*
X176788233Y-119646507D01*
X176770838Y-119621443D01*
X176693573Y-119561840D01*
X176681992Y-119567352D01*
X176529290Y-119567352D01*
X176649117Y-119434840D01*
X176999900Y-119434840D01*
X177042233Y-119477173D01*
X177084566Y-119434840D01*
X177042233Y-119392507D01*
X176999900Y-119434840D01*
X176649117Y-119434840D01*
X176666931Y-119415140D01*
X176876804Y-119233239D01*
X177186640Y-119233239D01*
X177278026Y-119335221D01*
X177451631Y-119434840D01*
X177510507Y-119468625D01*
X177613363Y-119521663D01*
X177743257Y-119586109D01*
X177791493Y-119610041D01*
X177870340Y-119643690D01*
X177878810Y-119641351D01*
X177933115Y-119604173D01*
X178523900Y-119604173D01*
X178566233Y-119646507D01*
X178608566Y-119604173D01*
X178566233Y-119561840D01*
X178523900Y-119604173D01*
X177933115Y-119604173D01*
X177978024Y-119573428D01*
X178037430Y-119519507D01*
X178354566Y-119519507D01*
X178396900Y-119561840D01*
X178439233Y-119519507D01*
X178396900Y-119477173D01*
X178354566Y-119519507D01*
X178037430Y-119519507D01*
X178110795Y-119452916D01*
X178222275Y-119333118D01*
X178257616Y-119267333D01*
X178224485Y-119245893D01*
X178071393Y-119167715D01*
X177844890Y-119062518D01*
X177720458Y-119008079D01*
X177538430Y-118945738D01*
X177423653Y-118954037D01*
X177318835Y-119029363D01*
X177221382Y-119128382D01*
X177186640Y-119233239D01*
X176876804Y-119233239D01*
X176943925Y-119175064D01*
X177466687Y-118745955D01*
X177994840Y-118963397D01*
X178260508Y-119085631D01*
X178450716Y-119197769D01*
X178516082Y-119267333D01*
X178523446Y-119275171D01*
G37*
%TD*%
M02*
